<svg width="660" height="330" viewBox="0 0 660 330" fill="none" xmlns="http://www.w3.org/2000/svg">
<rect width="660" height="330" fill="#F6E8E8"/>
<path d="M106.152 172.776L101.88 172.992C101.64 173.376 101.376 173.736 101.136 174.072C102.12 174.384 103.152 174.768 104.136 175.176C105.336 174.408 105.888 173.544 106.152 172.776ZM99.72 167.208V168.696H102.72V167.208H99.72ZM107.208 167.208H104.136V168.696H107.208V167.208ZM100.392 163.752H102.72V162.312H100.392V163.752ZM102.72 159.84H100.392V161.112H102.72V159.84ZM106.632 159.84H104.136V161.112H106.632V159.84ZM104.136 163.752H106.632V162.312H104.136V163.752ZM109.008 172.608L107.712 172.68C107.496 173.736 106.968 174.816 105.648 175.848C106.728 176.328 107.688 176.808 108.408 177.264L107.232 178.296C106.464 177.816 105.432 177.264 104.28 176.736C102.744 177.528 100.584 178.248 97.56 178.8C97.416 178.44 97.08 177.912 96.816 177.6C99.36 177.168 101.256 176.616 102.6 176.016C101.376 175.488 100.104 175.032 98.904 174.696C99.288 174.216 99.72 173.688 100.128 173.112L97.296 173.256L97.128 171.936C98.208 171.912 99.552 171.84 101.016 171.792C101.376 171.144 101.76 170.52 102.096 169.896H98.184V165.984H102.72V165H98.856V162.408H97.248V161.04H98.856V158.592H102.72V156.912H104.136V158.592H108.216V161.04H109.848V162.408H108.216V165H104.136V165.984H108.792V169.896H103.728C103.44 170.496 103.104 171.096 102.72 171.696C103.896 171.648 105.12 171.576 106.368 171.504V171.264V170.376H107.832V171.312V171.432L109.032 171.36L109.008 172.608ZM115.584 163.104H112.584C112.944 165.648 113.472 168.072 114.192 170.208C114.888 168.144 115.296 165.768 115.584 163.104ZM118.824 163.104H117.192C116.736 166.68 116.112 169.728 115.008 172.296C116.064 174.456 117.36 176.208 119.064 177.288C118.704 177.6 118.224 178.128 117.984 178.56C116.424 177.48 115.176 175.92 114.216 174.024C113.136 175.992 111.744 177.648 109.872 178.968C109.728 178.632 109.224 177.936 108.888 177.624C110.928 176.28 112.368 174.48 113.4 172.224C112.632 170.352 112.08 168.216 111.648 165.888C111.264 166.872 110.856 167.76 110.376 168.528C110.112 168.288 109.512 167.688 109.152 167.448C110.736 164.928 111.672 161.04 112.224 157.104L113.736 157.344C113.544 158.736 113.28 160.152 112.968 161.496H118.824V163.104ZM142.44 161.76H129.456C128.616 163.68 127.584 165.504 126.36 167.184V178.8H124.608V169.272C123.744 170.184 122.808 171.048 121.752 171.768C121.56 171.336 121.128 170.568 120.84 170.16C123.768 168.12 125.952 165.072 127.512 161.76H121.608V160.032H128.232C128.64 159 129 157.944 129.288 156.912L131.112 157.344C130.824 158.256 130.536 159.144 130.176 160.032H142.44V161.76ZM142.896 170.592V172.272H136.488V176.712C136.488 177.768 136.272 178.272 135.48 178.56C134.688 178.824 133.368 178.824 131.328 178.824C131.232 178.32 130.992 177.648 130.752 177.12C132.336 177.192 133.776 177.192 134.184 177.144C134.616 177.12 134.712 177.024 134.712 176.688V172.272H128.088V170.592H134.712V168.624C135.888 168 137.184 167.016 138.24 166.08H130.104V164.448H139.872L140.232 164.328L141.384 165.24C140.088 166.656 138.24 168.12 136.488 169.2V170.592H142.896ZM156.072 172.296V175.536H160.104V172.296H156.072ZM160.104 165.936V162.84H156.072V165.936H160.104ZM160.104 170.688V167.544H156.072V170.688H160.104ZM166.824 175.536V177.168H156.072V178.848H154.344V164.832C153.744 165.84 153.072 166.752 152.4 167.544L152.328 167.448L152.568 168.984L149.832 169.872V176.64C149.832 177.672 149.592 178.152 148.992 178.464C148.416 178.752 147.504 178.824 145.968 178.8C145.92 178.32 145.68 177.576 145.44 177.072C146.472 177.096 147.408 177.096 147.672 177.072C147.984 177.072 148.104 177 148.104 176.64V170.424L145.296 171.36L144.84 169.632C145.752 169.368 146.88 169.056 148.104 168.648V163.344H145.056V161.688H148.104V156.936H149.832V161.688H152.52V163.344H149.832V168.12L152.232 167.376C151.92 167.016 151.392 166.512 151.08 166.272C153.168 164.04 154.968 160.584 156.048 157.056L157.728 157.488C157.32 158.736 156.816 159.984 156.288 161.184H161.016C160.728 160.224 160.008 158.76 159.36 157.704L160.896 157.104C161.616 158.208 162.36 159.624 162.648 160.584L161.256 161.184H166.344V162.84H161.784V165.936H165.96V167.544H161.784V170.688H165.936V172.296H161.784V175.536H166.824ZM174.408 161.352V159.84H169.368V158.424H174.408V156.936H176.136V158.424H179.208V159.84H176.136V161.352H174.408ZM173.688 178.656L172.392 177.936C173.136 177.096 173.808 175.632 174.168 174.528L175.464 175.104C175.056 176.232 174.432 177.72 173.688 178.656ZM176.64 175.032L177.984 174.816C178.344 175.944 178.584 177.336 178.608 178.272L177.144 178.488C177.168 177.576 176.928 176.136 176.64 175.032ZM179.76 174.888L181.056 174.504C181.656 175.416 182.232 176.688 182.496 177.528L181.128 178.008C180.912 177.144 180.336 175.848 179.76 174.888ZM183 174.624L184.152 174.072C184.896 174.744 185.64 175.656 186 176.28L184.776 176.952C184.44 176.28 183.696 175.32 183 174.624ZM181.848 164.856V163.44H177.96V164.856H181.848ZM187.44 166.008H183.408V167.496H187.44V166.008ZM177.96 166.008V167.496H181.848V166.008H177.96ZM176.424 167.496V166.008H172.56V167.496H176.424ZM176.424 163.44H172.56V164.856H176.424V163.44ZM178.44 160.8L179.784 160.32C180.264 160.848 180.768 161.568 181.056 162.144H190.2V163.44H183.408V164.856H189.168V168.624H175.944V169.992H189.552V171.24H175.944V172.608H190.008C190.008 172.608 189.984 173.064 189.936 173.256C189.672 176.472 189.432 177.768 188.928 178.296C188.592 178.656 188.184 178.776 187.632 178.824C187.152 178.872 186.264 178.872 185.328 178.8C185.304 178.392 185.16 177.816 184.944 177.432C185.784 177.528 186.576 177.528 186.888 177.528C187.224 177.528 187.416 177.504 187.584 177.336C187.848 177.024 188.064 176.112 188.256 173.88H174.36V168.624H172.56C172.488 171.768 172.056 175.872 170.28 178.728C169.968 178.488 169.248 178.008 168.84 177.84C170.688 174.84 170.88 170.664 170.88 167.688V162.144H179.352C179.088 161.664 178.752 161.208 178.44 160.8ZM185.712 158.424H190.488V159.816H185.712V161.352H184.008V159.816H180.6V158.424H184.008V156.936H185.712V158.424ZM206.832 170.496V165.024H201.024V170.496H206.832ZM199.32 163.416H208.584V172.08H199.32V163.416ZM195.864 175.848H212.064V159.696H195.864V175.848ZM194.064 157.92H213.96V178.824H212.064V177.528H195.864V178.824H194.064V157.92ZM228.744 161.256H231.696V159.624H228.744V161.256ZM236.328 159.624H233.328V161.256H236.328V159.624ZM231.696 163.608V162.432H227.232V158.472H231.696V156.888H233.328V158.472H237.912V162.432H233.328V163.608H238.944V164.976H226.104V163.608H231.696ZM228.912 172.2V173.664H236.088V172.2H228.912ZM228.912 169.68V171.096H236.088V169.68H228.912ZM228.912 167.208V168.576H236.088V167.208H228.912ZM237.768 174.792H227.304V166.056H237.768V174.792ZM226.2 160.32L225.384 161.688C224.64 161.04 223.2 160.056 221.952 159.264C220.728 160.872 219.192 162.36 217.656 163.416C217.536 163.056 217.128 162.192 216.864 161.856C218.736 160.656 220.728 158.76 221.808 156.744L223.272 157.248C223.128 157.512 222.96 157.776 222.792 158.064C223.992 158.784 225.432 159.72 226.2 160.32ZM220.104 162.696V161.4H224.16V162.696H220.104ZM223.704 165.504H220.008V167.4H223.704V165.504ZM220.008 170.808H223.704V168.744H220.008V170.808ZM226.152 177.432L224.808 178.128C224.616 177.6 224.328 176.952 223.968 176.208C219.264 178.152 218.616 178.488 218.184 178.824C218.088 178.44 217.824 177.672 217.56 177.312C217.92 177.168 218.424 176.832 218.424 175.968V164.16H225.288V172.176H220.008V176.28L223.368 174.984C223.056 174.336 222.72 173.736 222.408 173.16L223.656 172.656C224.544 174.168 225.648 176.256 226.152 177.432ZM229.92 175.104L231.528 175.632C230.496 176.88 228.768 178.128 227.256 178.872C227.016 178.536 226.392 177.936 226.032 177.648C227.472 177.024 229.032 176.136 229.92 175.104ZM233.616 175.824L234.672 174.912C236.28 175.848 238.032 177.024 239.112 177.912L237.816 178.872C236.808 177.984 235.128 176.76 233.616 175.824ZM261.816 161.28H245.112C244.2 162.408 243.192 163.416 242.16 164.232C241.968 163.896 241.416 163.176 241.056 162.84C243.072 161.4 244.992 159.12 246.144 156.768L247.728 157.272C247.32 158.088 246.84 158.904 246.312 159.672H261.816V161.28ZM243.504 178.848L241.824 178.176C242.664 177.024 243.648 175.152 244.248 173.592L245.928 174.024C245.328 175.584 244.392 177.576 243.504 178.848ZM248.256 174.264L249.912 174.12C250.224 175.512 250.488 177.312 250.512 178.392L248.76 178.656C248.76 177.552 248.544 175.704 248.256 174.264ZM253.2 174.216L254.832 173.928C255.504 175.296 256.152 177.12 256.392 178.248L254.64 178.608C254.424 177.48 253.8 175.632 253.2 174.216ZM258.144 174.12L259.752 173.472C260.64 174.912 261.744 176.88 262.272 178.056L260.544 178.8C260.088 177.6 259.008 175.608 258.144 174.12ZM246.72 166.92V171H249.216V166.92H246.72ZM253.536 166.92H250.752V171H253.536V166.92ZM257.712 166.92H255.072V171H257.712V166.92ZM259.368 171H262.56V172.608H241.44V171H245.112V166.92H242.232V165.312H245.112V162.648H246.72V165.312H249.216V162.648H250.752V165.312H253.536V162.648H255.072V165.312H257.712V162.648H259.368V165.312H262.08V166.92H259.368V171ZM276.144 175.92H286.704V177.696H265.32V175.92H274.272V157.296H276.144V164.64H285.072V166.416H276.144V175.92ZM296.28 157.824L297.456 158.52C296.736 160.464 295.872 162.816 295.056 164.712C296.784 166.704 297.216 168.456 297.216 169.944C297.216 171.192 296.928 172.248 296.28 172.704C295.944 172.968 295.488 173.112 295.008 173.16C294.552 173.232 293.928 173.232 293.424 173.208C293.4 172.752 293.232 172.08 292.968 171.624C293.52 171.672 293.976 171.696 294.36 171.648C294.648 171.624 294.912 171.576 295.104 171.432C295.464 171.168 295.608 170.496 295.608 169.776C295.608 168.48 295.176 166.824 293.448 164.904C294.144 163.176 294.864 161.112 295.344 159.528H291.864V178.8H290.28V157.896H296.016L296.28 157.824ZM300.36 163.92V166.896H307.392V163.92H300.36ZM307.392 159.552H300.36V162.432H307.392V159.552ZM309.384 169.224L310.56 170.472C309.336 171.48 307.752 172.536 306.432 173.328C307.608 175.032 309.144 176.352 311.064 177.144C310.68 177.48 310.128 178.2 309.84 178.656C306.096 176.88 303.864 173.208 302.664 168.456H300.36V176.352L304.584 175.32C304.584 175.848 304.608 176.568 304.68 176.952C299.736 178.296 299.016 178.536 298.536 178.848C298.416 178.464 298.032 177.72 297.744 177.384C298.128 177.192 298.632 176.688 298.632 175.704V157.968H309.12V168.456H304.224C304.584 169.752 305.04 170.976 305.64 172.056C306.888 171.216 308.4 170.088 309.384 169.224ZM329.175 161.28V162.216C328.719 172.632 328.335 176.184 327.471 177.288C326.991 177.936 326.535 178.128 325.839 178.2C325.215 178.296 324.231 178.296 323.223 178.224C323.175 177.672 322.983 176.904 322.695 176.4C323.703 176.496 324.615 176.52 325.047 176.52C325.431 176.52 325.647 176.424 325.887 176.112C326.559 175.344 326.991 172.032 327.375 163.032H323.991C323.703 169.032 322.815 175.008 319.815 178.728C319.479 178.32 318.879 177.792 318.399 177.528C321.207 174.192 321.999 168.624 322.239 163.032H318.927V161.28H322.287C322.335 159.816 322.335 158.352 322.335 156.984H324.111C324.111 158.376 324.087 159.816 324.039 161.28H329.175ZM332.727 175.008H337.383V161.64H332.727V175.008ZM330.975 159.912H339.207V178.32H337.383V176.736H332.727V178.488H330.975V159.912ZM348.903 174.216V167.04H345.831V174.216H348.903ZM350.463 175.776H345.831V177.744H344.295V169.824C343.935 170.568 343.527 171.264 343.095 171.888C342.927 171.528 342.375 170.688 342.039 170.328C343.791 167.76 344.799 163.848 345.399 159.696H342.615V158.064H351.375V159.696H347.103C346.791 161.712 346.407 163.68 345.903 165.504H350.463V175.776ZM351.567 177.744L350.319 177.024C351.351 175.848 351.831 173.784 352.047 171.816L353.391 172.152C353.151 174.216 352.719 176.448 351.567 177.744ZM354.351 172.56L355.575 172.368C355.863 173.784 356.055 175.584 356.031 176.76L354.711 176.976C354.759 175.776 354.615 173.952 354.351 172.56ZM356.895 172.368L358.047 172.056C358.551 173.184 359.007 174.72 359.175 175.704L357.951 176.064C357.807 175.056 357.375 173.544 356.895 172.368ZM354.015 166.8V169.08H357.327V166.8H354.015ZM357.327 159.504H354.015V161.688H357.327V159.504ZM357.327 165.36V163.128H354.015V165.36H357.327ZM358.911 169.08H363.951C363.951 169.08 363.951 169.584 363.927 169.824C363.663 175.392 363.375 177.456 362.775 178.152C362.391 178.608 362.007 178.776 361.359 178.824C360.807 178.872 359.799 178.872 358.719 178.8C358.695 178.344 358.527 177.672 358.287 177.264C359.295 177.36 360.255 177.384 360.615 177.384C360.999 177.384 361.167 177.336 361.383 177.12C361.767 176.664 362.055 174.984 362.271 170.64H352.383V157.944H363.471V159.504H358.911V161.688H362.919V163.128H358.911V165.36H362.919V166.8H358.911V169.08ZM361.911 174.216L360.879 174.72C360.591 173.928 359.895 172.728 359.271 171.84L360.255 171.432C360.927 172.296 361.599 173.472 361.911 174.216ZM378.159 171.408H383.727V168.456H378.159V171.408ZM370.983 168.456V171.408H376.383V168.456H370.983ZM376.383 163.992H370.983V166.896H376.383V163.992ZM383.727 163.992H378.159V166.896H383.727V163.992ZM388.383 171.408V173.064H385.479V176.664C385.479 177.744 385.215 178.272 384.447 178.56C383.655 178.848 382.335 178.872 380.271 178.872C380.175 178.392 379.887 177.624 379.623 177.168C381.207 177.216 382.743 177.192 383.151 177.168C383.583 177.168 383.727 177.048 383.727 176.664V173.064H370.983V178.896H369.231V173.064H366.399V171.408H369.231V162.36H376.383V160.056H367.287V158.376H387.495V160.056H378.159V162.36H385.479V171.408H388.383ZM398.175 167.304L398.415 168.912L395.487 169.824V176.784C395.487 177.768 395.247 178.248 394.623 178.536C394.023 178.8 393.063 178.848 391.479 178.848C391.407 178.392 391.167 177.696 390.927 177.216C392.007 177.24 393.015 177.24 393.303 177.24C393.639 177.24 393.759 177.12 393.759 176.784V170.352L390.615 171.336L390.135 169.608C391.143 169.344 392.391 168.984 393.759 168.576V163.392H390.447V161.736H393.759V156.936H395.487V161.736H398.151V163.392H395.487V168.12C396.375 167.856 397.263 167.568 398.175 167.304ZM406.167 175.368H410.127V170.472H406.167V175.368ZM400.695 170.472V175.368H404.463V170.472H400.695ZM404.463 164.112H400.695V168.792H404.463V164.112ZM410.127 164.112H406.167V168.792H410.127V164.112ZM406.167 162.408H411.879V178.608H410.127V177.072H400.695V178.776H398.991V162.408H404.463V156.96H406.167V162.408ZM415.767 177V159.408H420.999C424.575 159.408 427.047 160.608 427.047 163.704C427.047 165.456 426.111 166.992 424.455 167.52V167.64C426.567 168.048 428.055 169.44 428.055 171.84C428.055 175.296 425.319 177 421.383 177H415.767ZM417.999 166.896H420.615C423.639 166.896 424.863 165.768 424.863 163.992C424.863 161.928 423.447 161.16 420.711 161.16H417.999V166.896ZM417.999 175.224H421.071C424.095 175.224 425.871 174.144 425.871 171.768C425.871 169.584 424.143 168.6 421.071 168.6H417.999V175.224ZM437.781 177.312C434.205 177.312 431.469 175.392 431.469 169.728V159.408H433.701V169.8C433.701 174.048 435.501 175.368 437.781 175.368C440.133 175.368 441.981 174.048 441.981 169.8V159.408H444.117V169.728C444.117 175.392 441.381 177.312 437.781 177.312ZM448.838 177V159.408H454.07C457.646 159.408 460.118 160.608 460.118 163.704C460.118 165.456 459.182 166.992 457.526 167.52V167.64C459.638 168.048 461.126 169.44 461.126 171.84C461.126 175.296 458.39 177 454.454 177H448.838ZM451.07 166.896H453.686C456.71 166.896 457.934 165.768 457.934 163.992C457.934 161.928 456.518 161.16 453.782 161.16H451.07V166.896ZM451.07 175.224H454.142C457.166 175.224 458.942 174.144 458.942 171.768C458.942 169.584 457.214 168.6 454.142 168.6H451.07V175.224ZM464.611 177V159.408H466.843V177H464.611ZM477.258 163.752L474.042 163.944C473.658 165.888 473.202 167.808 472.794 169.368C473.706 170.064 474.666 170.808 475.578 171.6C476.898 168.864 477.21 166.08 477.258 163.752ZM480.33 163.56L478.962 163.656C478.89 166.344 478.53 169.584 476.946 172.752C478.146 173.808 479.226 174.816 479.946 175.656L478.794 177.144C478.122 176.328 477.138 175.344 476.034 174.312C474.978 175.92 473.514 177.48 471.57 178.896C471.306 178.512 470.682 177.936 470.322 177.672C472.29 176.28 473.706 174.72 474.714 173.136C473.442 172.008 472.074 170.904 470.85 169.968C471.33 168.408 471.834 166.272 472.314 164.04L470.418 164.136L470.226 162.432C470.922 162.408 471.738 162.36 472.626 162.336C472.962 160.512 473.226 158.616 473.394 156.984L475.146 157.08C474.954 158.688 474.666 160.488 474.354 162.264L477.282 162.096V160.344H478.962V162L480.354 161.928L480.33 163.56ZM492.186 167.04V168.744H486.906V176.712C486.906 177.768 486.642 178.272 485.898 178.56C485.154 178.824 484.002 178.872 482.13 178.848C482.034 178.344 481.746 177.648 481.482 177.144C482.898 177.192 484.218 177.192 484.578 177.168C484.962 177.168 485.106 177.048 485.106 176.712V168.744H479.562V167.04H485.106V164.304C486.33 163.296 487.626 161.736 488.61 160.344H480.618V158.688H489.834L490.242 158.592L491.466 159.48C490.29 161.256 488.586 163.272 486.906 164.736V167.04H492.186ZM513.69 161.76V160.104H511.458V161.76H513.69ZM513.69 164.592V162.888H511.458V164.592H513.69ZM504.714 162.888V164.592H506.874V162.888H504.714ZM504.714 160.104V161.76H506.874V160.104H504.714ZM510.21 162.888H508.122V164.592H510.21V162.888ZM508.122 161.76H510.21V160.104H508.122V161.76ZM515.25 158.904V165.792H503.226V158.904H506.682V156.936H508.122V158.904H510.21V156.936H511.674V158.904H515.25ZM515.97 166.968V168.336H502.434V166.968H515.97ZM505.482 170.76V172.824H512.922V170.76H505.482ZM514.482 174.024H503.97V169.56H514.482V174.024ZM499.722 160.032L498.33 160.968C497.994 160.104 497.154 158.808 496.362 157.872L497.658 157.032C498.498 157.944 499.338 159.192 499.722 160.032ZM502.458 170.16L501.33 171.6C500.898 170.928 500.01 169.728 499.242 168.72V178.824H497.61V169.224C496.722 170.232 495.81 171.12 494.898 171.816C494.754 171.312 494.37 170.424 494.106 170.112C496.362 168.48 498.69 165.6 500.034 162.672H494.586V161.04H500.898L501.21 160.968L502.17 161.616C501.522 163.416 500.586 165.192 499.506 166.776C500.346 167.688 502.026 169.632 502.458 170.16ZM511.986 176.976H516.186V178.368H501.906V176.976H506.322C506.058 176.256 505.746 175.368 505.41 174.648L506.802 174.264C507.21 175.104 507.642 176.208 507.906 176.976H510.474C510.93 176.136 511.41 175.008 511.674 174.216L513.306 174.648C512.85 175.464 512.394 176.28 511.986 176.976ZM518.346 171.12V169.44H524.49V171.12H518.346ZM536.075 170.568V171.96H538.907V170.568H536.075ZM534.971 172.896V169.632H540.059V172.896H534.971ZM533.435 168.6V173.928H541.595V168.6H533.435ZM532.043 175.056V167.496H543.059V175.056H532.043ZM534.299 161.592V163.176H540.755V161.592H534.299ZM538.234 165.336H544.787V166.464H530.411V165.336H536.723V164.256H532.811V160.536H542.291V164.256H538.234V165.336ZM529.283 176.328H545.843V159.408H529.283V176.328ZM527.627 157.896H547.547V178.8H545.843V177.864H529.283V178.8H527.627V157.896ZM555.323 177V159.36H561.299C565.547 159.36 568.019 160.584 568.019 163.704C568.019 165.432 567.107 166.944 565.187 167.52V167.64C567.635 168.048 569.123 169.512 569.123 171.84C569.123 175.44 566.699 177 561.803 177H555.323ZM557.531 166.872H560.939C564.299 166.872 565.787 165.984 565.787 163.992C565.787 161.88 564.299 161.112 561.131 161.112H557.531V166.872ZM557.531 175.224H561.539C565.187 175.224 566.915 174.36 566.915 171.768C566.915 169.584 565.283 168.6 561.467 168.6H557.531V175.224Z" fill="#A32244"/>
</svg>
