<svg width="836" height="298" viewBox="0 0 836 298" fill="none" xmlns="http://www.w3.org/2000/svg">
<g clip-path="url(#clip0_141_37530)">
<rect width="836" height="298" fill="white"/>
<rect width="836" height="298.571" fill="#F6E8E8"/>
<path d="M178.152 154.776L173.88 154.992C173.64 155.376 173.376 155.736 173.136 156.072C174.12 156.384 175.152 156.768 176.136 157.176C177.336 156.408 177.888 155.544 178.152 154.776ZM171.72 149.208V150.696H174.72V149.208H171.72ZM179.208 149.208H176.136V150.696H179.208V149.208ZM172.392 145.752H174.72V144.312H172.392V145.752ZM174.72 141.84H172.392V143.112H174.72V141.84ZM178.632 141.84H176.136V143.112H178.632V141.84ZM176.136 145.752H178.632V144.312H176.136V145.752ZM181.008 154.608L179.712 154.68C179.496 155.736 178.968 156.816 177.648 157.848C178.728 158.328 179.688 158.808 180.408 159.264L179.232 160.296C178.464 159.816 177.432 159.264 176.28 158.736C174.744 159.528 172.584 160.248 169.56 160.8C169.416 160.44 169.08 159.912 168.816 159.6C171.36 159.168 173.256 158.616 174.6 158.016C173.376 157.488 172.104 157.032 170.904 156.696C171.288 156.216 171.72 155.688 172.128 155.112L169.296 155.256L169.128 153.936C170.208 153.912 171.552 153.84 173.016 153.792C173.376 153.144 173.76 152.52 174.096 151.896H170.184V147.984H174.72V147H170.856V144.408H169.248V143.04H170.856V140.592H174.72V138.912H176.136V140.592H180.216V143.04H181.848V144.408H180.216V147H176.136V147.984H180.792V151.896H175.728C175.44 152.496 175.104 153.096 174.72 153.696C175.896 153.648 177.12 153.576 178.368 153.504V153.264V152.376H179.832V153.312V153.432L181.032 153.36L181.008 154.608ZM187.584 145.104H184.584C184.944 147.648 185.472 150.072 186.192 152.208C186.888 150.144 187.296 147.768 187.584 145.104ZM190.824 145.104H189.192C188.736 148.68 188.112 151.728 187.008 154.296C188.064 156.456 189.36 158.208 191.064 159.288C190.704 159.6 190.224 160.128 189.984 160.56C188.424 159.48 187.176 157.92 186.216 156.024C185.136 157.992 183.744 159.648 181.872 160.968C181.728 160.632 181.224 159.936 180.888 159.624C182.928 158.28 184.368 156.48 185.4 154.224C184.632 152.352 184.08 150.216 183.648 147.888C183.264 148.872 182.856 149.76 182.376 150.528C182.112 150.288 181.512 149.688 181.152 149.448C182.736 146.928 183.672 143.04 184.224 139.104L185.736 139.344C185.544 140.736 185.28 142.152 184.968 143.496H190.824V145.104ZM214.44 143.76H201.456C200.616 145.68 199.584 147.504 198.36 149.184V160.8H196.608V151.272C195.744 152.184 194.808 153.048 193.752 153.768C193.56 153.336 193.128 152.568 192.84 152.16C195.768 150.12 197.952 147.072 199.512 143.76H193.608V142.032H200.232C200.64 141 201 139.944 201.288 138.912L203.112 139.344C202.824 140.256 202.536 141.144 202.176 142.032H214.44V143.76ZM214.896 152.592V154.272H208.488V158.712C208.488 159.768 208.272 160.272 207.48 160.56C206.688 160.824 205.368 160.824 203.328 160.824C203.232 160.32 202.992 159.648 202.752 159.12C204.336 159.192 205.776 159.192 206.184 159.144C206.616 159.12 206.712 159.024 206.712 158.688V154.272H200.088V152.592H206.712V150.624C207.888 150 209.184 149.016 210.24 148.08H202.104V146.448H211.872L212.232 146.328L213.384 147.24C212.088 148.656 210.24 150.12 208.488 151.2V152.592H214.896ZM228.072 154.296V157.536H232.104V154.296H228.072ZM232.104 147.936V144.84H228.072V147.936H232.104ZM232.104 152.688V149.544H228.072V152.688H232.104ZM238.824 157.536V159.168H228.072V160.848H226.344V146.832C225.744 147.84 225.072 148.752 224.4 149.544L224.328 149.448L224.568 150.984L221.832 151.872V158.64C221.832 159.672 221.592 160.152 220.992 160.464C220.416 160.752 219.504 160.824 217.968 160.8C217.92 160.32 217.68 159.576 217.44 159.072C218.472 159.096 219.408 159.096 219.672 159.072C219.984 159.072 220.104 159 220.104 158.64V152.424L217.296 153.36L216.84 151.632C217.752 151.368 218.88 151.056 220.104 150.648V145.344H217.056V143.688H220.104V138.936H221.832V143.688H224.52V145.344H221.832V150.12L224.232 149.376C223.92 149.016 223.392 148.512 223.08 148.272C225.168 146.04 226.968 142.584 228.048 139.056L229.728 139.488C229.32 140.736 228.816 141.984 228.288 143.184H233.016C232.728 142.224 232.008 140.76 231.36 139.704L232.896 139.104C233.616 140.208 234.36 141.624 234.648 142.584L233.256 143.184H238.344V144.84H233.784V147.936H237.96V149.544H233.784V152.688H237.936V154.296H233.784V157.536H238.824ZM246.408 143.352V141.84H241.368V140.424H246.408V138.936H248.136V140.424H251.208V141.84H248.136V143.352H246.408ZM245.688 160.656L244.392 159.936C245.136 159.096 245.808 157.632 246.168 156.528L247.464 157.104C247.056 158.232 246.432 159.72 245.688 160.656ZM248.64 157.032L249.984 156.816C250.344 157.944 250.584 159.336 250.608 160.272L249.144 160.488C249.168 159.576 248.928 158.136 248.64 157.032ZM251.76 156.888L253.056 156.504C253.656 157.416 254.232 158.688 254.496 159.528L253.128 160.008C252.912 159.144 252.336 157.848 251.76 156.888ZM255 156.624L256.152 156.072C256.896 156.744 257.64 157.656 258 158.28L256.776 158.952C256.44 158.28 255.696 157.32 255 156.624ZM253.848 146.856V145.44H249.96V146.856H253.848ZM259.44 148.008H255.408V149.496H259.44V148.008ZM249.96 148.008V149.496H253.848V148.008H249.96ZM248.424 149.496V148.008H244.56V149.496H248.424ZM248.424 145.44H244.56V146.856H248.424V145.44ZM250.44 142.8L251.784 142.32C252.264 142.848 252.768 143.568 253.056 144.144H262.2V145.44H255.408V146.856H261.168V150.624H247.944V151.992H261.552V153.24H247.944V154.608H262.008C262.008 154.608 261.984 155.064 261.936 155.256C261.672 158.472 261.432 159.768 260.928 160.296C260.592 160.656 260.184 160.776 259.632 160.824C259.152 160.872 258.264 160.872 257.328 160.8C257.304 160.392 257.16 159.816 256.944 159.432C257.784 159.528 258.576 159.528 258.888 159.528C259.224 159.528 259.416 159.504 259.584 159.336C259.848 159.024 260.064 158.112 260.256 155.88H246.36V150.624H244.56C244.488 153.768 244.056 157.872 242.28 160.728C241.968 160.488 241.248 160.008 240.84 159.84C242.688 156.84 242.88 152.664 242.88 149.688V144.144H251.352C251.088 143.664 250.752 143.208 250.44 142.8ZM257.712 140.424H262.488V141.816H257.712V143.352H256.008V141.816H252.6V140.424H256.008V138.936H257.712V140.424ZM278.832 152.496V147.024H273.024V152.496H278.832ZM271.32 145.416H280.584V154.08H271.32V145.416ZM267.864 157.848H284.064V141.696H267.864V157.848ZM266.064 139.92H285.96V160.824H284.064V159.528H267.864V160.824H266.064V139.92ZM300.744 143.256H303.696V141.624H300.744V143.256ZM308.328 141.624H305.328V143.256H308.328V141.624ZM303.696 145.608V144.432H299.232V140.472H303.696V138.888H305.328V140.472H309.912V144.432H305.328V145.608H310.944V146.976H298.104V145.608H303.696ZM300.912 154.2V155.664H308.088V154.2H300.912ZM300.912 151.68V153.096H308.088V151.68H300.912ZM300.912 149.208V150.576H308.088V149.208H300.912ZM309.768 156.792H299.304V148.056H309.768V156.792ZM298.2 142.32L297.384 143.688C296.64 143.04 295.2 142.056 293.952 141.264C292.728 142.872 291.192 144.36 289.656 145.416C289.536 145.056 289.128 144.192 288.864 143.856C290.736 142.656 292.728 140.76 293.808 138.744L295.272 139.248C295.128 139.512 294.96 139.776 294.792 140.064C295.992 140.784 297.432 141.72 298.2 142.32ZM292.104 144.696V143.4H296.16V144.696H292.104ZM295.704 147.504H292.008V149.4H295.704V147.504ZM292.008 152.808H295.704V150.744H292.008V152.808ZM298.152 159.432L296.808 160.128C296.616 159.6 296.328 158.952 295.968 158.208C291.264 160.152 290.616 160.488 290.184 160.824C290.088 160.44 289.824 159.672 289.56 159.312C289.92 159.168 290.424 158.832 290.424 157.968V146.16H297.288V154.176H292.008V158.28L295.368 156.984C295.056 156.336 294.72 155.736 294.408 155.16L295.656 154.656C296.544 156.168 297.648 158.256 298.152 159.432ZM301.92 157.104L303.528 157.632C302.496 158.88 300.768 160.128 299.256 160.872C299.016 160.536 298.392 159.936 298.032 159.648C299.472 159.024 301.032 158.136 301.92 157.104ZM305.616 157.824L306.672 156.912C308.28 157.848 310.032 159.024 311.112 159.912L309.816 160.872C308.808 159.984 307.128 158.76 305.616 157.824ZM333.816 143.28H317.112C316.2 144.408 315.192 145.416 314.16 146.232C313.968 145.896 313.416 145.176 313.056 144.84C315.072 143.4 316.992 141.12 318.144 138.768L319.728 139.272C319.32 140.088 318.84 140.904 318.312 141.672H333.816V143.28ZM315.504 160.848L313.824 160.176C314.664 159.024 315.648 157.152 316.248 155.592L317.928 156.024C317.328 157.584 316.392 159.576 315.504 160.848ZM320.256 156.264L321.912 156.12C322.224 157.512 322.488 159.312 322.512 160.392L320.76 160.656C320.76 159.552 320.544 157.704 320.256 156.264ZM325.2 156.216L326.832 155.928C327.504 157.296 328.152 159.12 328.392 160.248L326.64 160.608C326.424 159.48 325.8 157.632 325.2 156.216ZM330.144 156.12L331.752 155.472C332.64 156.912 333.744 158.88 334.272 160.056L332.544 160.8C332.088 159.6 331.008 157.608 330.144 156.12ZM318.72 148.92V153H321.216V148.92H318.72ZM325.536 148.92H322.752V153H325.536V148.92ZM329.712 148.92H327.072V153H329.712V148.92ZM331.368 153H334.56V154.608H313.44V153H317.112V148.92H314.232V147.312H317.112V144.648H318.72V147.312H321.216V144.648H322.752V147.312H325.536V144.648H327.072V147.312H329.712V144.648H331.368V147.312H334.08V148.92H331.368V153ZM348.144 157.92H358.704V159.696H337.32V157.92H346.272V139.296H348.144V146.64H357.072V148.416H348.144V157.92ZM368.28 139.824L369.456 140.52C368.736 142.464 367.872 144.816 367.056 146.712C368.784 148.704 369.216 150.456 369.216 151.944C369.216 153.192 368.928 154.248 368.28 154.704C367.944 154.968 367.488 155.112 367.008 155.16C366.552 155.232 365.928 155.232 365.424 155.208C365.4 154.752 365.232 154.08 364.968 153.624C365.52 153.672 365.976 153.696 366.36 153.648C366.648 153.624 366.912 153.576 367.104 153.432C367.464 153.168 367.608 152.496 367.608 151.776C367.608 150.48 367.176 148.824 365.448 146.904C366.144 145.176 366.864 143.112 367.344 141.528H363.864V160.8H362.28V139.896H368.016L368.28 139.824ZM372.36 145.92V148.896H379.392V145.92H372.36ZM379.392 141.552H372.36V144.432H379.392V141.552ZM381.384 151.224L382.56 152.472C381.336 153.48 379.752 154.536 378.432 155.328C379.608 157.032 381.144 158.352 383.064 159.144C382.68 159.48 382.128 160.2 381.84 160.656C378.096 158.88 375.864 155.208 374.664 150.456H372.36V158.352L376.584 157.32C376.584 157.848 376.608 158.568 376.68 158.952C371.736 160.296 371.016 160.536 370.536 160.848C370.416 160.464 370.032 159.72 369.744 159.384C370.128 159.192 370.632 158.688 370.632 157.704V139.968H381.12V150.456H376.224C376.584 151.752 377.04 152.976 377.64 154.056C378.888 153.216 380.4 152.088 381.384 151.224ZM401.175 143.28V144.216C400.719 154.632 400.335 158.184 399.471 159.288C398.991 159.936 398.535 160.128 397.839 160.2C397.215 160.296 396.231 160.296 395.223 160.224C395.175 159.672 394.983 158.904 394.695 158.4C395.703 158.496 396.615 158.52 397.047 158.52C397.431 158.52 397.647 158.424 397.887 158.112C398.559 157.344 398.991 154.032 399.375 145.032H395.991C395.703 151.032 394.815 157.008 391.815 160.728C391.479 160.32 390.879 159.792 390.399 159.528C393.207 156.192 393.999 150.624 394.239 145.032H390.927V143.28H394.287C394.335 141.816 394.335 140.352 394.335 138.984H396.111C396.111 140.376 396.087 141.816 396.039 143.28H401.175ZM404.727 157.008H409.383V143.64H404.727V157.008ZM402.975 141.912H411.207V160.32H409.383V158.736H404.727V160.488H402.975V141.912ZM420.903 156.216V149.04H417.831V156.216H420.903ZM422.463 157.776H417.831V159.744H416.295V151.824C415.935 152.568 415.527 153.264 415.095 153.888C414.927 153.528 414.375 152.688 414.039 152.328C415.791 149.76 416.799 145.848 417.399 141.696H414.615V140.064H423.375V141.696H419.103C418.791 143.712 418.407 145.68 417.903 147.504H422.463V157.776ZM423.567 159.744L422.319 159.024C423.351 157.848 423.831 155.784 424.047 153.816L425.391 154.152C425.151 156.216 424.719 158.448 423.567 159.744ZM426.351 154.56L427.575 154.368C427.863 155.784 428.055 157.584 428.031 158.76L426.711 158.976C426.759 157.776 426.615 155.952 426.351 154.56ZM428.895 154.368L430.047 154.056C430.551 155.184 431.007 156.72 431.175 157.704L429.951 158.064C429.807 157.056 429.375 155.544 428.895 154.368ZM426.015 148.8V151.08H429.327V148.8H426.015ZM429.327 141.504H426.015V143.688H429.327V141.504ZM429.327 147.36V145.128H426.015V147.36H429.327ZM430.911 151.08H435.951C435.951 151.08 435.951 151.584 435.927 151.824C435.663 157.392 435.375 159.456 434.775 160.152C434.391 160.608 434.007 160.776 433.359 160.824C432.807 160.872 431.799 160.872 430.719 160.8C430.695 160.344 430.527 159.672 430.287 159.264C431.295 159.36 432.255 159.384 432.615 159.384C432.999 159.384 433.167 159.336 433.383 159.12C433.767 158.664 434.055 156.984 434.271 152.64H424.383V139.944H435.471V141.504H430.911V143.688H434.919V145.128H430.911V147.36H434.919V148.8H430.911V151.08ZM433.911 156.216L432.879 156.72C432.591 155.928 431.895 154.728 431.271 153.84L432.255 153.432C432.927 154.296 433.599 155.472 433.911 156.216ZM450.159 153.408H455.727V150.456H450.159V153.408ZM442.983 150.456V153.408H448.383V150.456H442.983ZM448.383 145.992H442.983V148.896H448.383V145.992ZM455.727 145.992H450.159V148.896H455.727V145.992ZM460.383 153.408V155.064H457.479V158.664C457.479 159.744 457.215 160.272 456.447 160.56C455.655 160.848 454.335 160.872 452.271 160.872C452.175 160.392 451.887 159.624 451.623 159.168C453.207 159.216 454.743 159.192 455.151 159.168C455.583 159.168 455.727 159.048 455.727 158.664V155.064H442.983V160.896H441.231V155.064H438.399V153.408H441.231V144.36H448.383V142.056H439.287V140.376H459.495V142.056H450.159V144.36H457.479V153.408H460.383ZM470.175 149.304L470.415 150.912L467.487 151.824V158.784C467.487 159.768 467.247 160.248 466.623 160.536C466.023 160.8 465.063 160.848 463.479 160.848C463.407 160.392 463.167 159.696 462.927 159.216C464.007 159.24 465.015 159.24 465.303 159.24C465.639 159.24 465.759 159.12 465.759 158.784V152.352L462.615 153.336L462.135 151.608C463.143 151.344 464.391 150.984 465.759 150.576V145.392H462.447V143.736H465.759V138.936H467.487V143.736H470.151V145.392H467.487V150.12C468.375 149.856 469.263 149.568 470.175 149.304ZM478.167 157.368H482.127V152.472H478.167V157.368ZM472.695 152.472V157.368H476.463V152.472H472.695ZM476.463 146.112H472.695V150.792H476.463V146.112ZM482.127 146.112H478.167V150.792H482.127V146.112ZM478.167 144.408H483.879V160.608H482.127V159.072H472.695V160.776H470.991V144.408H476.463V138.96H478.167V144.408ZM487.767 159V141.408H492.999C496.575 141.408 499.047 142.608 499.047 145.704C499.047 147.456 498.111 148.992 496.455 149.52V149.64C498.567 150.048 500.055 151.44 500.055 153.84C500.055 157.296 497.319 159 493.383 159H487.767ZM489.999 148.896H492.615C495.639 148.896 496.863 147.768 496.863 145.992C496.863 143.928 495.447 143.16 492.711 143.16H489.999V148.896ZM489.999 157.224H493.071C496.095 157.224 497.871 156.144 497.871 153.768C497.871 151.584 496.143 150.6 493.071 150.6H489.999V157.224ZM509.781 159.312C506.205 159.312 503.469 157.392 503.469 151.728V141.408H505.701V151.8C505.701 156.048 507.501 157.368 509.781 157.368C512.133 157.368 513.981 156.048 513.981 151.8V141.408H516.117V151.728C516.117 157.392 513.381 159.312 509.781 159.312ZM520.838 159V141.408H526.07C529.646 141.408 532.118 142.608 532.118 145.704C532.118 147.456 531.182 148.992 529.526 149.52V149.64C531.638 150.048 533.126 151.44 533.126 153.84C533.126 157.296 530.39 159 526.454 159H520.838ZM523.07 148.896H525.686C528.71 148.896 529.934 147.768 529.934 145.992C529.934 143.928 528.518 143.16 525.782 143.16H523.07V148.896ZM523.07 157.224H526.142C529.166 157.224 530.942 156.144 530.942 153.768C530.942 151.584 529.214 150.6 526.142 150.6H523.07V157.224ZM536.611 159V141.408H538.843V159H536.611ZM549.258 145.752L546.042 145.944C545.658 147.888 545.202 149.808 544.794 151.368C545.706 152.064 546.666 152.808 547.578 153.6C548.898 150.864 549.21 148.08 549.258 145.752ZM552.33 145.56L550.962 145.656C550.89 148.344 550.53 151.584 548.946 154.752C550.146 155.808 551.226 156.816 551.946 157.656L550.794 159.144C550.122 158.328 549.138 157.344 548.034 156.312C546.978 157.92 545.514 159.48 543.57 160.896C543.306 160.512 542.682 159.936 542.322 159.672C544.29 158.28 545.706 156.72 546.714 155.136C545.442 154.008 544.074 152.904 542.85 151.968C543.33 150.408 543.834 148.272 544.314 146.04L542.418 146.136L542.226 144.432C542.922 144.408 543.738 144.36 544.626 144.336C544.962 142.512 545.226 140.616 545.394 138.984L547.146 139.08C546.954 140.688 546.666 142.488 546.354 144.264L549.282 144.096V142.344H550.962V144L552.354 143.928L552.33 145.56ZM564.186 149.04V150.744H558.906V158.712C558.906 159.768 558.642 160.272 557.898 160.56C557.154 160.824 556.002 160.872 554.13 160.848C554.034 160.344 553.746 159.648 553.482 159.144C554.898 159.192 556.218 159.192 556.578 159.168C556.962 159.168 557.106 159.048 557.106 158.712V150.744H551.562V149.04H557.106V146.304C558.33 145.296 559.626 143.736 560.61 142.344H552.618V140.688H561.834L562.242 140.592L563.466 141.48C562.29 143.256 560.586 145.272 558.906 146.736V149.04H564.186ZM585.69 143.76V142.104H583.458V143.76H585.69ZM585.69 146.592V144.888H583.458V146.592H585.69ZM576.714 144.888V146.592H578.874V144.888H576.714ZM576.714 142.104V143.76H578.874V142.104H576.714ZM582.21 144.888H580.122V146.592H582.21V144.888ZM580.122 143.76H582.21V142.104H580.122V143.76ZM587.25 140.904V147.792H575.226V140.904H578.682V138.936H580.122V140.904H582.21V138.936H583.674V140.904H587.25ZM587.97 148.968V150.336H574.434V148.968H587.97ZM577.482 152.76V154.824H584.922V152.76H577.482ZM586.482 156.024H575.97V151.56H586.482V156.024ZM571.722 142.032L570.33 142.968C569.994 142.104 569.154 140.808 568.362 139.872L569.658 139.032C570.498 139.944 571.338 141.192 571.722 142.032ZM574.458 152.16L573.33 153.6C572.898 152.928 572.01 151.728 571.242 150.72V160.824H569.61V151.224C568.722 152.232 567.81 153.12 566.898 153.816C566.754 153.312 566.37 152.424 566.106 152.112C568.362 150.48 570.69 147.6 572.034 144.672H566.586V143.04H572.898L573.21 142.968L574.17 143.616C573.522 145.416 572.586 147.192 571.506 148.776C572.346 149.688 574.026 151.632 574.458 152.16ZM583.986 158.976H588.186V160.368H573.906V158.976H578.322C578.058 158.256 577.746 157.368 577.41 156.648L578.802 156.264C579.21 157.104 579.642 158.208 579.906 158.976H582.474C582.93 158.136 583.41 157.008 583.674 156.216L585.306 156.648C584.85 157.464 584.394 158.28 583.986 158.976ZM590.346 153.12V151.44H596.49V153.12H590.346ZM608.075 152.568V153.96H610.907V152.568H608.075ZM606.971 154.896V151.632H612.059V154.896H606.971ZM605.435 150.6V155.928H613.595V150.6H605.435ZM604.043 157.056V149.496H615.059V157.056H604.043ZM606.299 143.592V145.176H612.755V143.592H606.299ZM610.234 147.336H616.787V148.464H602.411V147.336H608.723V146.256H604.811V142.536H614.291V146.256H610.234V147.336ZM601.283 158.328H617.843V141.408H601.283V158.328ZM599.627 139.896H619.547V160.8H617.843V159.864H601.283V160.8H599.627V139.896ZM639.131 159L637.139 153.624H629.651L627.659 159H625.331L632.051 141.36H634.763L641.555 159H639.131ZM630.179 151.896H636.635L635.579 149.088C634.859 147.096 634.163 145.176 633.443 143.16H633.347C632.675 145.2 631.955 147.12 631.235 149.088L630.179 151.896Z" fill="#A32244"/>
</g>
<defs>
<clipPath id="clip0_141_37530">
<rect width="836" height="298" fill="white"/>
</clipPath>
</defs>
</svg>
