<svg width="100" height="100" viewBox="0 0 100 100" fill="none" xmlns="http://www.w3.org/2000/svg">
<rect x="4" y="4" width="92" height="92" rx="46" fill="white"/>
<path d="M50.35 60.7C56.0661 60.7 60.7 56.0661 60.7 50.35C60.7 44.6339 56.0661 40 50.35 40C44.6339 40 40 44.6339 40 50.35C40 56.0661 44.6339 60.7 50.35 60.7Z" stroke="#E0B6B7" stroke-width="3" stroke-linecap="round" stroke-linejoin="round"/>
<path d="M47 53.9081C47.8254 55.5589 49.4761 55.5589 49.4761 55.5589H51.1268C52.489 55.5589 53.6029 54.445 53.6029 53.0828C53.6029 51.7206 52.489 50.6067 51.1268 50.6067H49.4761C48.1139 50.6067 47 49.4929 47 48.1306C47 46.7684 48.1139 45.6545 49.4761 45.6545H51.1268C51.1268 45.6545 52.7775 45.6545 53.6029 47.3053" stroke="#E0B6B7" stroke-width="2.2" stroke-linecap="round" stroke-linejoin="round"/>
<path d="M50.3008 44V45.6507" stroke="#E0B6B7" stroke-width="2.2" stroke-linecap="round" stroke-linejoin="round"/>
<path d="M50.3008 55.559V57.2097" stroke="#E0B6B7" stroke-width="2.2" stroke-linecap="round" stroke-linejoin="round"/>
<path d="M53.4232 30.3903C52.3191 30.1918 51.1647 30.0914 49.999 30.0914C39.0011 30.0914 30.0928 38.9997 30.0928 49.9977C30.0928 52.7306 30.6471 55.3313 31.6463 57.7015" stroke="#E0B6B7" stroke-width="2.2" stroke-linecap="round" stroke-linejoin="round"/>
<path d="M46.5859 69.6074C47.6901 69.8058 48.8353 69.9062 50.001 69.9062C60.9989 69.9062 69.9072 60.9979 69.9072 49.9999C69.9072 47.267 69.3529 44.6664 68.3537 42.2961" stroke="#E0B6B7" stroke-width="2.2" stroke-linecap="round" stroke-linejoin="round"/>
<path d="M74.6797 33.2076C77.9465 37.9914 79.8582 43.7744 79.8582 49.9977C79.8582 66.4912 66.49 79.8571 49.9988 79.8571C41.1612 79.8571 34.8193 75.7257 34.8193 75.7257L31.8925 78.6526L31.1465 64.3308L44.0995 65.0768L41.914 67.5702" stroke="#E0B6B7" stroke-width="3" stroke-linecap="round" stroke-linejoin="round"/>
<path d="M58.5537 31.6336L55.8961 34.9186L68.849 35.6646L68.1031 21.3428L65.1762 24.2697C65.1762 24.2697 58.8275 20.1406 49.9967 20.1406C33.5078 20.1406 20.1396 33.5088 20.1396 50C20.1396 56.2301 22.0536 62.0131 25.3249 66.8015" stroke="#E0B6B7" stroke-width="3" stroke-linecap="round" stroke-linejoin="round"/>
<path d="M97.2001 55.37C97.1801 56.15 96.9701 56.93 96.7501 57.73C96.5101 58.53 96.3501 59.36 96.1401 60.2C95.9701 61.06 95.7601 61.91 95.5301 62.76L95.1801 64.04L94.7101 65.27C94.3901 66.1 94.1901 66.92 94.0301 67.78C93.9201 68.64 93.1301 69.34 93.1901 70.25C93.1901 70.33 93.0901 70.47 93.0401 70.58C92.8101 71.07 92.5901 71.56 92.3601 72.05L92.0301 72.79L91.6301 73.49C91.0901 74.42 90.5201 75.33 89.8801 76.16C89.1401 77.12 88.3401 78.02 87.6501 78.99C87.2901 79.46 86.9501 79.96 86.5601 80.41C86.1601 80.85 85.7501 81.29 85.3301 81.71C84.7601 82.5 84.1901 83.31 83.5001 84.02C82.8001 84.71 82.0801 85.37 81.3401 86.03C80.9701 86.35 80.6101 86.7 80.2201 86.99L79.0201 87.85C78.2201 88.43 77.4301 89.01 76.6501 89.61C75.6201 90.27 74.6101 91 73.3801 91.38C73.1201 91.46 72.8701 91.59 72.6201 91.74C72.3601 91.87 72.1001 92.01 71.8401 92.16C71.3101 92.44 70.7601 92.71 70.1601 92.74C70.0601 92.74 69.9101 92.93 69.7701 93.02C69.4401 93.24 69.1101 93.53 68.7501 93.65C66.5701 94.24 66.5701 94.19 64.8901 95.06C64.6901 95.16 64.3701 95.07 64.1401 95.15C63.1401 95.4 62.1301 95.62 61.1501 95.92C60.2601 96.2 59.2701 96.19 58.4701 96.71C58.3001 96.83 57.8901 96.81 57.5901 96.86C56.6301 97 55.6601 97.15 54.7001 97.29C53.5901 97.39 52.4501 97.25 51.3801 97.67C50.9001 97.85 50.2101 97.47 49.9301 97.56C49.4101 97.7 48.9101 97.72 48.4001 97.66C47.8901 97.6 47.4101 97.41 46.9101 97.38C46.4801 97.35 46.0301 97.53 45.5801 97.52C44.4801 97.48 43.3501 97.06 42.3201 97.12C41.2101 97.17 40.1901 96.98 39.1601 96.7C38.0801 96.45 37.0201 96.12 35.9401 95.89C35.1101 95.67 34.4501 95.21 33.7301 94.85C33.0201 94.48 32.0601 94.45 31.5501 93.8C31.5301 93.77 31.4401 93.75 31.3901 93.72C29.9401 92.91 28.4701 92.15 27.0401 91.33C25.8401 90.57 24.6001 89.85 23.4101 89.08L19.9901 86.52C19.3901 85.99 18.6701 85.52 18.3501 84.75C18.2801 84.59 17.9601 84.44 17.8401 84.26C17.4101 83.58 16.4401 83.68 16.1701 82.88C15.9201 82.19 15.3301 81.77 14.8801 81.24C14.4001 80.63 13.7801 80.12 13.3501 79.45C13.0401 79.01 12.7001 78.65 12.2701 78.41C12.2401 77.69 11.5101 77.17 11.2501 76.5C11.0701 76.07 10.8401 75.38 10.5401 75.17C9.89013 74.7 9.63013 73.98 9.21013 73.37C8.55013 72.47 8.24013 71.39 7.49013 70.54C7.18013 70.18 6.97013 69.58 6.78013 69.08C6.69013 68.85 6.63013 68.6 6.56013 68.36C6.52013 68.11 6.47013 67.86 6.40013 67.63C6.11013 66.75 5.78013 65.9 5.26013 65.11C5.04013 64.76 4.91013 64.33 4.80013 63.9C4.70013 63.46 4.58013 63.04 4.27013 62.71C4.19013 62.62 4.14013 62.36 4.13013 62.19C4.08013 61.29 3.99013 60.51 3.51013 59.62C3.18013 58.88 3.19013 57.84 3.05013 56.94C2.93013 55.98 2.61013 55 2.72013 54.05C2.76013 53.44 2.17013 53.18 2.50013 52.44C2.67013 52.04 2.54013 51.29 2.52013 50.7C2.48013 50.09 2.44013 49.45 2.56013 48.88C2.71013 48.12 2.81013 47.37 2.89013 46.61C2.96013 45.85 2.98013 45.09 3.11013 44.34L3.42013 42.07C3.54013 41.32 3.60013 40.55 3.86013 39.83C4.24013 38.61 4.24013 37.2 5.03013 36.16C4.95013 35.19 5.66013 34.25 5.71013 33.35C5.75013 32.77 5.93013 32.32 6.10013 31.85C6.75013 30.31 7.53013 28.82 8.25013 27.31C9.14013 25.89 9.95013 24.42 10.8801 23.03C11.5301 22.14 12.1601 21.23 12.7801 20.32C13.0801 19.85 13.4201 19.42 13.7901 19.01L14.8701 17.75C15.2801 17.28 15.6601 16.8 16.2801 16.46C16.7501 16.23 17.4301 15.65 17.7201 14.99C17.7801 14.86 17.9401 14.65 18.0401 14.61C18.6901 14.39 19.1401 13.97 19.5601 13.49C19.9801 13.02 20.4001 12.56 20.8801 12.17C21.8501 11.45 22.8101 10.72 23.8701 10.17C24.9301 9.60999 25.9801 9.05999 27.0001 8.42999C27.4201 8.13999 28.0601 8.06999 28.2401 7.54999C28.7401 7.64999 28.9301 7.38999 29.3101 7.04999C29.7001 6.69999 30.4401 6.32999 30.9101 6.29999C31.5401 6.23999 32.0301 5.99999 32.5801 5.81999C33.1601 5.63999 33.7201 5.38999 34.3001 5.19999C34.9101 5.00999 35.5101 4.76999 36.1301 4.60999L38.0101 4.17999C39.2601 3.90999 40.5001 3.56999 41.7801 3.47999C42.2801 3.41999 42.7801 3.47999 43.2801 3.47999C43.7801 3.46999 44.3001 3.20999 44.8001 3.45999C44.9901 3.53999 45.4801 3.39999 45.8401 3.39999C47.1001 3.33999 48.4601 3.45999 49.5901 3.15999C50.7101 2.88999 51.9001 3.30999 52.9701 2.89999C53.2701 2.78999 53.8001 2.94999 54.2201 2.93999C55.0801 2.88999 55.9201 3.17999 56.7701 3.29999C57.6201 3.44999 58.4601 3.54999 59.3401 3.42999C59.8901 3.83999 60.5901 3.98999 61.2701 4.12999C61.7701 4.23999 62.2901 4.55999 62.7901 4.31999C62.8501 4.28999 63.0201 4.33999 63.1201 4.37999C63.7001 4.60999 64.1701 4.95999 64.8201 5.14999C65.3701 5.29999 65.8801 5.24999 66.4801 5.46999C68.6601 6.17999 70.4401 7.63999 72.5601 8.44999C72.9601 9.01999 73.5801 9.33999 74.1801 9.70999C75.2101 10.38 76.4401 10.62 77.3901 11.5C78.3001 12.29 79.2901 13.1 80.2901 13.68C81.1201 14.22 81.8701 14.86 82.6001 15.52C82.9601 15.85 83.3301 16.18 83.6701 16.53C84.0001 16.9 84.3301 17.26 84.6701 17.61C85.0201 17.97 85.5001 18.31 85.5501 18.87C85.5601 19 85.9601 19.39 86.1401 19.43C86.5201 19.53 86.6701 19.89 86.9101 20.1C87.6201 20.68 87.4501 21.89 88.4801 22.21L89.3501 23.38C89.6201 23.79 89.8601 24.21 90.1201 24.62C90.6301 25.45 91.1401 26.28 91.6301 27.12C91.8701 27.51 92.0901 27.89 92.1101 28.41C92.1101 28.76 92.4101 29.44 92.6701 29.66C93.2801 30.19 93.5001 30.93 93.8201 31.61C94.5901 33.72 95.5001 35.81 95.9401 38.03C96.1501 38.99 96.3301 39.96 96.4101 40.95C96.4901 41.94 96.8701 42.93 96.7201 43.93C96.7101 44 96.7401 44.1 96.7601 44.18C96.8601 44.56 97.0401 44.94 97.0601 45.33C97.0601 45.83 96.8101 46.52 96.9501 46.79C97.2201 47.34 96.9701 47.73 96.9701 48.15C96.9501 49.39 96.3601 50.15 95.5901 50C95.4201 49.97 95.2301 49.83 95.0901 49.66C94.2101 48.61 94.2501 48.62 94.1201 46.94C94.0701 46.41 94.0901 45.88 94.0701 45.35L93.9601 43.77C93.8701 42.72 93.8501 41.64 93.5201 40.62C93.5701 39.18 92.9801 37.78 92.6401 36.39C92.2001 34.97 92.0601 33.37 91.2401 32.11C90.3601 30.9 89.8501 29.56 89.1401 28.29C88.5701 27.35 88.1501 26.32 87.6001 25.35C87.0301 24.35 86.1701 23.52 85.6101 22.53C85.2401 21.93 85.0401 21.14 84.4401 20.77C83.8201 20.35 83.3101 19.81 82.8301 19.27C82.3401 18.73 81.9001 18.14 81.2901 17.75C80.4701 17.18 79.7301 16.53 78.9901 15.88C78.6401 15.54 78.2401 15.25 77.8401 14.97C77.4401 14.69 77.0401 14.41 76.6301 14.15C75.7401 13.6 74.8801 13.03 73.9601 12.52C73.5501 12.27 73.1601 12.04 72.8101 11.63C72.4401 11.22 71.8001 10.79 71.1101 10.7C70.8201 10.67 70.3801 10.54 70.2101 10.37C69.5101 9.63999 68.5201 9.31999 67.6301 8.89999C67.0601 8.64999 66.5101 8.12999 66.1101 8.11999C65.4301 8.11999 64.9301 7.82999 64.3601 7.64999C63.9601 7.52999 63.4901 7.43999 63.2101 7.05999C63.1401 6.95999 62.7401 6.82999 62.6001 6.86999C61.8001 7.06999 61.0701 6.68999 60.3301 6.50999L58.9901 6.18999L57.6301 5.98999L54.9101 5.54999C53.4001 5.38999 51.9201 5.78999 50.4101 5.52999C49.4901 5.89999 48.4701 5.82999 47.4901 5.85999C46.7401 5.90999 45.9801 5.76999 45.2301 5.77999C44.4801 5.81999 43.7601 5.99999 42.9501 5.94999C42.4501 5.91999 41.9101 5.98999 41.3701 6.08999C40.8201 6.16999 40.3001 6.39999 39.7601 6.49999C39.1801 6.62999 38.6001 6.99999 37.9801 6.76999C37.9001 6.73999 37.6301 6.80999 37.5501 6.88999C36.8901 7.42999 35.9601 7.68999 35.2601 7.77999C34.1201 7.94999 33.1001 8.36999 32.0901 8.79999C31.2501 9.16999 30.4401 9.61999 29.5901 9.98999C29.2901 10.12 29.0001 10.28 28.7001 10.42C28.4101 10.57 28.1201 10.74 27.7801 10.84C27.2601 11.01 26.7701 11.56 26.2401 11.91C25.7201 12.27 25.1401 12.54 24.6401 12.93L22.9801 14.17C22.4301 14.59 21.8601 14.98 21.3301 15.43C20.7801 15.94 20.2401 16.46 19.6601 16.94C19.1201 17.39 18.4701 17.73 17.9601 18.22C16.6101 19.69 15.5201 21.31 14.2801 22.86C14.1901 23.46 13.7101 23.75 13.3301 24.17C13.1501 24.36 12.9501 24.56 12.7801 24.79C12.6201 25.02 12.5201 25.29 12.5101 25.59C12.5101 25.76 12.3501 25.98 12.2501 26.17C12.0401 26.6 11.5901 26.81 11.4701 27.4C11.3901 27.82 10.9401 28.26 10.7101 28.72C10.5101 29.22 10.0601 29.68 10.1901 30.25C9.29013 30.87 9.64013 32.03 9.03013 32.77C8.86013 33.02 8.72013 33.31 8.56013 33.58C8.48013 33.72 8.36013 33.86 8.34013 33.99C8.24013 34.62 8.09013 35.23 7.90013 35.84C7.81013 36.14 7.71013 36.44 7.60013 36.74L7.36013 37.66C7.04013 38.88 6.62013 40.08 6.43013 41.33C6.40013 41.64 6.46013 41.95 6.46013 42.27C6.46013 42.42 6.45013 42.59 6.41013 42.73C6.01013 44.06 6.01013 44.06 6.02013 45.35C6.02013 45.67 5.99013 46.02 5.99013 46.36C6.00013 47.23 5.87013 48.07 6.05013 48.97C6.19013 49.86 5.86013 50.83 5.73013 51.77C5.62013 52.61 5.48013 53.44 5.54013 54.35C5.69013 55.49 5.90013 56.61 6.06013 57.75C6.18013 58.89 6.50013 60 6.78013 61.11C6.85013 61.39 6.87013 61.79 7.00013 61.92C7.57013 62.45 7.90013 62.93 7.50013 63.72C7.48013 63.76 7.56013 63.98 7.62013 64.02C8.22013 64.41 8.27013 65.16 8.48013 65.76C8.68013 66.33 8.89013 66.9 9.15013 67.44L10.0501 69C10.6601 70.03 11.1901 71.1 11.7801 72.15C11.9601 72.5 12.3201 72.89 12.3201 73.16C12.3201 73.73 12.8401 73.68 12.9701 74.09C13.0801 74.44 13.4801 74.79 13.5801 75.09C13.8701 76.19 14.7001 77.08 15.4101 77.8C16.0601 78.49 16.8901 79.05 17.3301 79.79C17.8001 80.49 18.2901 81.18 18.9001 81.75L20.7501 83.43L21.6901 84.31C22.0201 84.58 22.3701 84.83 22.7101 85.09L24.7801 86.61C25.3301 87.04 25.9201 87.52 26.6601 87.56C26.8101 87.56 27.0601 87.76 27.2301 87.9C27.6401 88.23 28.0201 88.62 28.4601 88.9C28.9001 89.19 29.4601 89.24 29.9501 89.43C30.3501 89.57 30.6901 89.79 31.1701 89.79C31.5201 89.79 31.9601 90.14 32.3301 90.55C33.0601 91.35 33.9401 92.02 35.1701 92.42C35.7201 92.58 36.2501 92.8 36.8001 92.98C37.3601 93.13 37.9101 93.28 38.4701 93.42C38.9401 93.53 39.3801 93.68 39.9201 93.62C40.4101 93.57 41.1301 93.85 41.6701 94.03C42.5101 94.36 43.3201 94.51 44.2101 94.41C44.5201 94.38 44.8701 94.43 45.1901 94.48C46.1901 94.58 47.1901 94.59 48.2001 94.65C49.2001 94.71 50.2101 94.78 51.2101 94.69C51.6901 94.67 52.2001 94.57 52.6101 94.83C52.9101 94.48 53.4201 94.57 53.8401 94.57C54.4901 94.6 55.1301 94.64 55.7801 94.57C56.5501 94.49 57.2901 94.34 58.0101 94.03C58.3401 93.88 58.7301 93.86 59.1201 93.81C59.5101 93.73 59.9001 93.64 60.2401 93.41C60.3701 93.32 60.7001 93.44 60.9001 93.37C61.7201 93.08 62.7301 93.16 63.3701 92.5C63.4201 92.44 63.6001 92.38 63.6801 92.39C64.7601 92.48 65.5901 91.81 66.4701 91.36C67.4501 90.91 68.4501 90.76 69.4101 90.31C69.9401 90.03 70.4901 89.75 71.0301 89.47C71.5701 89.2 72.0701 88.86 72.6101 88.65C73.5301 88.27 74.4001 87.8 75.2401 87.28C76.0301 86.69 76.8001 86.08 77.6001 85.5C78.0001 85.2 78.4301 84.93 78.8101 84.59L79.9301 83.58C80.6601 82.89 81.4501 82.25 82.1201 81.49C82.7001 80.83 83.1601 80.08 83.7201 79.41C84.0201 79.03 84.3801 78.69 84.6701 78.3L85.5501 77.13L87.1901 74.92C87.4201 74.56 87.5501 74.08 87.9901 73.91C88.0801 73.88 88.2301 73.66 88.2501 73.54C88.3901 72.7 88.8001 72.07 89.4601 71.52C89.6401 71.36 89.7101 71.02 89.8701 70.79C90.3001 70.16 90.3401 69.45 90.5701 68.79C90.7601 68.18 91.4001 67.65 91.1701 66.94C91.1401 66.85 91.2501 66.55 91.3301 66.48C91.8901 66.01 92.0101 65.32 92.1301 64.63C92.2301 63.94 92.3901 63.28 92.8301 62.75C92.5601 62.14 93.1401 61.76 93.1801 61.35C93.2401 60.76 93.2701 60.19 93.4301 59.6C93.6001 59.06 93.6901 58.49 93.7501 57.92C93.8501 56.89 94.2001 55.86 94.0301 54.8C93.9901 54.45 93.9101 53.8 94.2701 53.4C94.3301 53.33 94.3301 53.1 94.3301 52.95C94.2601 51.81 94.6901 50.44 95.3001 50.14C95.6601 49.97 96.0901 49.99 96.4401 50.13C96.6201 50.2 96.7101 50.72 96.8201 51.05C97.0201 51.63 97.3001 52.19 97.3601 52.83C97.4101 53.59 97.3601 54.41 97.2001 55.38V55.37Z" fill="#F6E8E8"/>
</svg>
