<svg width="150" height="120" viewBox="0 0 150 120" fill="none" xmlns="http://www.w3.org/2000/svg">
<path d="M80.6021 12.5528C77.278 13.4253 74.6274 12.6207 73.5114 10.4008C72.5156 8.41351 73.165 5.92217 75.0989 4.34206C80.6021 -0.160768 87.1348 5.48594 87.409 5.72829C87.9093 6.16936 88.6646 6.15967 89.1504 5.70406C89.4102 5.46656 95.5628 -0.146227 101.042 4.34206C102.976 5.92217 103.63 8.41835 102.63 10.4008C101.513 12.6207 98.8629 13.4253 95.5388 12.5528C94.5575 12.2959 91.5701 11.5107 90.0211 14.6079C89.5305 15.587 89.4679 16.5709 89.4968 17.5403C88.5491 17.4676 87.5918 17.424 86.6345 17.3998C86.6538 16.4692 86.572 15.5288 86.1102 14.6079C84.5612 11.5107 81.5738 12.2959 80.5925 12.5528H80.6021Z" fill="white"/>
<path d="M99.4859 104.669C99.712 104.669 99.9381 104.596 100.131 104.446C116.876 91.1849 116.26 69.5578 116.227 68.6417C116.207 68.0649 115.721 67.6044 115.149 67.6335C114.577 67.6529 114.124 68.1424 114.148 68.7192C114.158 68.9325 114.74 90.2058 98.8461 102.798C98.3939 103.157 98.3169 103.816 98.6729 104.272C98.8798 104.533 99.1828 104.674 99.4907 104.674L99.4859 104.669Z" fill="#DCDDDD"/>
<path d="M84.1504 108.135C84.4438 108.135 84.7325 108.014 84.9345 107.776C105.418 84.0502 102.604 61.7687 102.474 60.8284C102.392 60.2564 101.868 59.859 101.3 59.9365C100.732 60.0189 100.333 60.5473 100.415 61.1192C100.453 61.4003 103.166 83.4637 83.3663 106.4C82.9911 106.836 83.0344 107.5 83.4673 107.878C83.6645 108.052 83.9099 108.135 84.1504 108.135Z" fill="#DCDDDD"/>
<path d="M58.0101 105.726C58.3036 105.726 58.5922 105.605 58.7991 105.362C70.2337 91.9799 70.5127 72.3012 70.5175 71.4724C70.5175 70.8956 70.0605 70.4206 69.4832 70.4158H69.4736C68.9012 70.4158 68.4393 70.8811 68.4345 71.4579C68.4345 71.6517 68.1507 91.2092 57.2212 103.996C56.846 104.437 56.8941 105.096 57.3318 105.474C57.5291 105.643 57.7696 105.726 58.0101 105.726Z" fill="#DCDDDD"/>
<path d="M70.9546 106.967C71.2624 106.967 71.5655 106.831 71.7724 106.569C89.1095 84.5931 86.6657 61.0853 86.6369 60.8526C86.5695 60.2759 86.05 59.8687 85.4872 59.9317C84.9147 59.9947 84.5058 60.5182 84.5684 61.0901C84.5924 61.318 86.9207 83.9969 70.1416 105.265C69.7856 105.716 69.8578 106.38 70.31 106.739C70.5024 106.894 70.7285 106.967 70.9546 106.967Z" fill="#DCDDDD"/>
<path d="M116.007 39.4629C118.302 39.4629 120.158 39.9185 120.158 41.1884C120.158 42.4583 118.297 42.9139 116.007 42.9139C113.717 42.9139 111.855 42.4583 111.855 41.1884C111.855 39.9185 113.717 39.4629 116.007 39.4629Z" fill="#9A0036"/>
<path d="M67.9015 39.4629C70.1961 39.4629 72.053 39.9185 72.053 41.1884C72.053 42.4583 70.1913 42.9139 67.9015 42.9139C65.6117 42.9139 63.75 42.4583 63.75 41.1884C63.75 39.9185 65.6117 39.4629 67.9015 39.4629Z" fill="#9A0036"/>
<path d="M109.647 32.3621C108.748 32.3621 107.94 32.745 107.367 33.3557L109.109 35.1103C109.335 35.3381 109.335 35.7065 109.109 35.9343L107.367 37.6889C107.94 38.2996 108.748 38.6825 109.647 38.6825C111.379 38.6825 112.784 37.2672 112.784 35.5223C112.784 33.7774 111.379 32.3621 109.647 32.3621Z" fill="#4C4948"/>
<path d="M131.164 61.8365C131.155 61.5942 131.155 61.3518 131.14 61.1095C131.111 60.5908 131.068 60.0771 131.025 59.5681C131.006 59.3306 130.991 59.0883 130.967 58.8508C130.919 58.3419 130.847 57.8426 130.784 57.3385C130.755 57.101 130.731 56.8635 130.698 56.6309C130.626 56.1316 130.534 55.6421 130.443 55.1526C130.399 54.9199 130.366 54.6824 130.322 54.4546C130.226 53.9699 130.111 53.49 130 53.0102C129.947 52.7824 129.904 52.5497 129.846 52.3268C129.726 51.8518 129.591 51.3816 129.457 50.9163C129.394 50.6933 129.336 50.4655 129.269 50.2426C129.125 49.7773 128.966 49.3168 128.812 48.8563C128.74 48.6382 128.672 48.4201 128.595 48.2069C128.427 47.7464 128.244 47.2956 128.061 46.84C127.98 46.6364 127.903 46.428 127.821 46.2244C127.629 45.7688 127.417 45.3181 127.21 44.8721C127.123 44.6831 127.042 44.4844 126.95 44.2954C126.729 43.8349 126.488 43.389 126.248 42.9382C126.157 42.7686 126.075 42.5892 125.979 42.4196C125.719 41.9543 125.445 41.4938 125.17 41.0382C125.084 40.8928 125.002 40.7425 124.911 40.5971C124.603 40.1027 124.276 39.6229 123.948 39.143C123.881 39.0413 123.814 38.9346 123.746 38.8377C123.366 38.2948 122.967 37.7617 122.558 37.2333C122.534 37.1994 122.51 37.1655 122.486 37.1315C121.611 36.0119 120.673 34.9359 119.672 33.9035C116.54 30.6705 112.86 27.932 108.786 25.7606C103.547 22.9687 97.6541 21.1172 91.4389 20.3562C80.5142 19.0233 69.7483 21.2093 61.1182 26.507C58.8476 27.9029 56.7598 29.4879 54.8645 31.257C49.1785 36.5596 45.2194 43.4762 43.2278 51.6482C43.3144 51.6967 43.3962 51.7548 43.4732 51.8275C43.9927 52.3268 44.0168 53.1556 43.5213 53.6791C41.2363 56.1074 38.8118 58.2061 36.3873 60.0141C36.1179 60.2128 35.8533 60.4067 35.5839 60.6005C35.5502 60.6248 35.5117 60.6539 35.4781 60.6781C35.3193 60.7896 35.1606 60.901 35.0018 61.0125C34.8575 61.1143 34.7132 61.2161 34.5737 61.313C27.94 65.8837 21.5949 68.3072 18.521 69.3154C18.0111 69.4802 17.5444 69.7274 17.1403 70.0376C17.0153 70.1297 16.8998 70.2314 16.7892 70.3381C16.7796 70.3478 16.7651 70.3575 16.7555 70.3672C16.2696 70.8276 15.8992 71.3899 15.6924 72.0103C15.4855 72.6355 14.8505 74.5307 18.242 76.5131C25.0873 80.5119 43.199 77.6909 43.3818 77.6618C44.0889 77.5504 44.7576 78.0351 44.8682 78.7524C44.95 79.2904 44.6999 79.7994 44.2717 80.0708C44.1274 80.1629 43.9638 80.2259 43.7859 80.2501C43.6945 80.2647 43.3577 80.318 42.8334 80.3907C42.7853 84.5445 42.0781 89.4012 38.172 93.143C38.1191 93.1964 38.0565 93.2448 38.0036 93.2933C37.7919 93.4872 37.5803 93.6859 37.3494 93.8749C38.0036 93.8652 38.7444 93.8119 39.5815 93.7053C40.303 93.6132 40.9476 94.1221 41.039 94.8395C41.1304 95.5568 40.6302 96.216 39.9134 96.3081C39.1581 96.405 38.451 96.4535 37.7679 96.4777C37.5707 96.4826 37.359 96.4971 37.1666 96.4971C35.4973 96.4971 34.0782 96.2499 32.9285 95.7604C32.8804 95.741 32.8371 95.7119 32.789 95.6925C32.611 95.6101 32.433 95.5326 32.2695 95.4405C31.8509 95.203 31.4757 94.9316 31.139 94.6165C29.5082 93.08 29.5659 91.2285 29.5804 91.0249C29.6044 90.6565 29.7776 90.3173 30.0614 90.0846C33.6308 87.1861 34.8142 84.2779 33.6645 81.2195C32.6832 81.2583 31.6681 81.2825 30.6387 81.2825C28.7241 81.2825 26.7662 81.2001 24.8949 80.9966C22.7831 84.6851 24.183 88.3882 24.2455 88.5433C24.4331 89.0086 24.3417 89.5466 24.005 89.9198C23.9713 89.9586 23.928 89.9828 23.8895 90.0167C23.8366 90.0652 23.7837 90.1185 23.7211 90.1573C23.6201 90.2203 23.5047 90.2688 23.3892 90.3027C23.1583 90.3657 22.9082 90.3706 22.6676 90.2979C22.3694 90.2106 22.0808 90.1331 21.7921 90.0555C15.6635 88.4124 11.2956 89.2655 8.28898 90.8359C8.2072 90.8795 8.12542 90.928 8.04364 90.9716C7.933 91.0298 7.82236 91.0928 7.71653 91.1558C4.93604 92.7795 3.43516 94.98 2.82422 96.0609C8.56799 103.399 22.9707 98.305 23.1198 98.2469C23.6634 98.053 24.2744 98.2372 24.6159 98.7122C24.7265 98.8624 24.8372 99.0127 24.9526 99.163C25.0007 99.226 25.044 99.2841 25.0921 99.3471C25.2076 99.4926 25.3231 99.638 25.4385 99.7834C25.501 99.8609 25.5588 99.9336 25.6213 100.011C25.7416 100.152 25.857 100.297 25.9821 100.438C26.0398 100.506 26.0975 100.573 26.1553 100.636C26.5882 101.131 27.0452 101.606 27.5118 102.071C27.5551 102.115 27.5984 102.158 27.6417 102.197C27.786 102.338 27.9352 102.478 28.0795 102.614C28.1372 102.667 28.1949 102.725 28.2575 102.779C28.4066 102.915 28.5557 103.055 28.7097 103.191C28.753 103.23 28.8011 103.273 28.8492 103.312C29.3639 103.763 29.8979 104.199 30.4415 104.625C30.4896 104.664 30.5377 104.698 30.5858 104.737C30.7541 104.863 30.9225 104.989 31.0909 105.115C31.1486 105.159 31.2111 105.202 31.2689 105.246C31.442 105.372 31.6152 105.498 31.7884 105.624C31.8173 105.643 31.8413 105.663 31.8702 105.682C32.4571 106.094 33.0536 106.492 33.6645 106.879C33.7174 106.913 33.7655 106.942 33.8184 106.976C34.0012 107.093 34.1889 107.204 34.3717 107.32C34.4246 107.354 34.4775 107.383 34.5304 107.417C35.2327 107.839 35.9495 108.246 36.6711 108.634C40.7745 107.761 49.8952 104.034 54.3161 88.0973C60.1224 67.1633 69.5366 60.0286 69.5366 60.0286C69.5366 60.0286 71.2011 58.4097 74.352 56.563C74.6358 56.3934 74.9388 56.2237 75.2467 56.0541C77.7289 54.6921 80.9857 53.2768 84.9447 52.3462C88.163 51.59 91.843 51.1538 95.9512 51.3235C96.2687 51.338 96.5862 51.3525 96.9085 51.3719C97.8369 51.4301 98.7846 51.5222 99.7563 51.6482C99.8381 51.6579 99.9247 51.6724 100.006 51.6821C100.906 51.8033 101.82 51.9536 102.753 52.1377C102.893 52.1668 103.032 52.1911 103.172 52.2201C104.504 52.4916 105.866 52.826 107.266 53.238C107.756 53.3834 108.232 53.5337 108.699 53.6936C108.819 53.7324 108.94 53.776 109.06 53.8196C109.502 53.9747 109.94 54.1347 110.364 54.3043C110.397 54.3189 110.436 54.3334 110.469 54.348C110.883 54.5128 111.282 54.6921 111.677 54.8666C111.807 54.9247 111.937 54.9829 112.062 55.0459C112.408 55.2107 112.754 55.3755 113.086 55.55C113.197 55.6082 113.303 55.6615 113.409 55.7196C113.721 55.8893 114.029 56.0589 114.332 56.2334C114.477 56.3158 114.616 56.4031 114.76 56.4855C115.015 56.6406 115.261 56.7957 115.506 56.9556C115.689 57.0768 115.872 57.1931 116.05 57.3191C116.266 57.4694 116.483 57.6197 116.694 57.7699C116.848 57.8814 117.002 57.9977 117.151 58.1092C117.324 58.2401 117.498 58.3758 117.666 58.5115C117.902 58.7005 118.133 58.8896 118.354 59.0834C118.498 59.2095 118.647 59.3355 118.787 59.4615C118.941 59.5972 119.095 59.7378 119.244 59.8783C119.369 59.9947 119.489 60.111 119.609 60.2273C119.85 60.4648 120.086 60.7023 120.317 60.9398C120.427 61.0562 120.533 61.1676 120.644 61.284C120.783 61.4342 120.923 61.5893 121.057 61.7444C121.163 61.8656 121.264 61.9868 121.365 62.1079C121.567 62.3454 121.76 62.5829 121.952 62.8204C122.063 62.961 122.169 63.0967 122.279 63.2373C122.39 63.3827 122.496 63.5233 122.602 63.6687C122.727 63.8383 122.842 64.008 122.962 64.1776C123.068 64.3327 123.174 64.4878 123.28 64.6429C123.424 64.861 123.568 65.084 123.708 65.3069C123.771 65.4087 123.833 65.5057 123.891 65.6074C124.228 66.1649 124.545 66.7223 124.838 67.2893C124.867 67.3427 124.896 67.4008 124.925 67.4541C125.036 67.6674 125.142 67.8758 125.243 68.0891C125.276 68.1618 125.315 68.2393 125.348 68.3121C125.445 68.5108 125.536 68.7143 125.627 68.9131C125.656 68.9809 125.69 69.0488 125.719 69.1167C125.829 69.3687 125.935 69.6159 126.036 69.8631C126.041 69.8776 126.046 69.8922 126.056 69.9019C126.166 70.1733 126.272 70.4447 126.373 70.7161C126.392 70.7695 126.411 70.8179 126.431 70.8713C126.508 71.0845 126.585 71.2929 126.662 71.5062C126.686 71.5838 126.715 71.6565 126.739 71.7292C126.806 71.923 126.868 72.1169 126.931 72.3108C126.955 72.3835 126.979 72.4514 126.998 72.5241C127.071 72.747 127.138 72.97 127.2 73.1929C127.21 73.2269 127.22 73.2608 127.229 73.2947C127.306 73.5516 127.378 73.8134 127.446 74.0654C127.46 74.1139 127.47 74.1672 127.484 74.2157C127.537 74.4144 127.585 74.618 127.633 74.8118C127.653 74.8894 127.672 74.9669 127.686 75.0396C127.73 75.2141 127.768 75.3886 127.807 75.5631C127.826 75.6407 127.84 75.7134 127.855 75.7909C127.893 75.9799 127.936 76.169 127.97 76.3532C127.98 76.4065 127.994 76.455 128.004 76.5083C128.052 76.7458 128.095 76.9784 128.134 77.2062C128.143 77.2595 128.153 77.308 128.158 77.3613C128.187 77.5358 128.215 77.7152 128.244 77.8848C128.259 77.9624 128.268 78.0399 128.278 78.1175C128.302 78.2677 128.321 78.4131 128.34 78.5585C128.35 78.6361 128.365 78.7136 128.374 78.7912C128.393 78.9414 128.413 79.0917 128.432 79.242C128.442 79.305 128.446 79.368 128.456 79.4261C128.48 79.6297 128.504 79.8284 128.523 80.0223C128.528 80.0805 128.533 80.1386 128.538 80.1968C128.552 80.3374 128.567 80.4731 128.576 80.6088C128.581 80.6863 128.591 80.7639 128.595 80.8366C128.6 80.9045 128.605 80.9772 128.61 81.045C130.197 76.2659 130.76 72.2478 130.948 69.674C131.039 67.934 131.14 65.9177 131.145 65.8546C131.145 65.7965 131.155 65.7383 131.169 65.6802C131.188 65.1712 131.193 64.6671 131.193 64.1631C131.193 63.9207 131.203 63.6784 131.203 63.436C131.203 62.9077 131.179 62.3842 131.159 61.8559L131.164 61.8365ZM67.901 42.9091C65.6064 42.9091 63.7495 42.4535 63.7495 41.1836C63.7495 39.9137 65.6112 39.4581 67.901 39.4581C70.1908 39.4581 72.0525 39.9137 72.0525 41.1836C72.0525 42.4535 70.1908 42.9091 67.901 42.9091ZM73.2359 38.6777C72.3363 38.6777 71.5282 38.2948 70.9557 37.6841L72.6971 35.9295C72.9232 35.7017 72.9232 35.3333 72.6971 35.1055L70.9557 33.3509C71.5282 32.7402 72.3363 32.3573 73.2359 32.3573C74.9677 32.3573 76.3724 33.7726 76.3724 35.5175C76.3724 37.2624 74.9677 38.6777 73.2359 38.6777ZM107.434 44.0433C107.102 44.1984 101.738 46.6316 92.9687 46.6316C88.5815 46.6316 83.3476 46.0209 77.4644 44.213C76.9063 44.0433 76.5311 43.515 76.5455 42.9237C76.5937 40.7086 78.0176 39.2497 78.1763 39.0946C78.6862 38.5953 79.4992 38.605 80.0043 39.114C80.5094 39.6229 80.5046 40.4517 80.0043 40.9655C79.9995 40.9703 79.5906 41.392 79.3405 42.0367C92.7041 45.8415 102.484 43.0739 105.423 42.0221C105.178 41.3242 104.74 40.8734 104.74 40.8734C104.225 40.3693 104.216 39.5405 104.716 39.017C105.216 38.4984 106.039 38.4887 106.558 38.9928C106.722 39.1527 108.141 40.6068 108.189 42.8267C108.199 43.3454 107.905 43.8252 107.434 44.0433ZM109.647 38.6777C108.747 38.6777 107.939 38.2948 107.367 37.6841L109.108 35.9295C109.334 35.7017 109.334 35.3333 109.108 35.1055L107.367 33.3509C107.939 32.7402 108.747 32.3573 109.647 32.3573C111.379 32.3573 112.783 33.7726 112.783 35.5175C112.783 37.2624 111.379 38.6777 109.647 38.6777ZM116.006 42.9091C113.712 42.9091 111.855 42.4535 111.855 41.1836C111.855 39.9137 113.716 39.4581 116.006 39.4581C118.296 39.4581 120.158 39.9137 120.158 41.1836C120.158 42.4535 118.296 42.9091 116.006 42.9091Z" fill="#CFD4E0"/>
<path d="M73.2372 32.3621C72.3377 32.3621 71.5295 32.745 70.957 33.3557L72.6984 35.1103C72.9245 35.3381 72.9245 35.7065 72.6984 35.9343L70.957 37.6889C71.5295 38.2996 72.3377 38.6825 73.2372 38.6825C74.969 38.6825 76.3737 37.2672 76.3737 35.5223C76.3737 33.7774 74.969 32.3621 73.2372 32.3621Z" fill="#4C4948"/>
<path d="M80.0041 39.1189C80.5092 39.6278 80.5044 40.4567 80.0041 40.9704C79.9993 40.9753 79.5904 41.397 79.3402 42.0416C92.7039 45.8465 102.484 43.0789 105.423 42.0271C105.178 41.3291 104.74 40.8783 104.74 40.8783C104.225 40.3743 104.215 39.5454 104.716 39.022C105.216 38.5033 106.039 38.4936 106.558 38.9977C106.722 39.1577 108.141 40.6118 108.189 42.8317C108.199 43.3551 107.905 43.8301 107.434 44.0483C107.102 44.2034 101.738 46.6365 92.9685 46.6365C88.5813 46.6365 83.3474 46.0258 77.4641 44.2179C76.9061 44.0483 76.5309 43.5199 76.5453 42.9286C76.5934 40.7135 78.0173 39.2546 78.1761 39.0995C78.686 38.6003 79.499 38.61 80.0041 39.1189Z" fill="#4C4948"/>
<path d="M0.217243 96.88C5.9562 105.6 19.4064 102.149 23.0817 101C27.4977 106.7 34.6751 111.372 44.4452 114.911C51.9785 117.635 58.1697 118.604 58.4294 118.643C58.4631 118.648 58.5016 118.653 58.5353 118.653C58.6122 118.662 58.7614 118.691 58.9634 118.725C64.5003 119.675 69.5658 120 73.9049 120C77.5128 120 80.6108 119.777 83.0641 119.501C98.3376 117.785 110.537 111.901 119.326 102.013C126.739 93.6761 130.328 85.1649 132.059 78.573C134.84 79.4309 138.313 80.2452 141.551 80.2452C142.878 80.2452 144.167 80.1095 145.351 79.7848C150.301 78.4276 150.171 74.9814 149.887 73.5613C149.613 72.2041 148.853 70.9245 147.751 69.9551C145.394 67.8855 139.275 62.2775 133.392 54.9538C133.281 54.8132 133.142 54.7017 132.997 54.6242C131.415 45.953 127.547 38.2851 121.524 32.0713C114.039 24.3452 103.61 19.2947 92.1272 17.8115C92.0743 16.8518 92.1031 16.2944 92.3533 15.7855C92.7718 14.9518 93.2336 14.6561 94.8932 15.0875C100.305 16.5077 103.639 14.2102 104.962 11.5832C106.515 8.48595 105.582 4.67139 102.691 2.30607C97.4332 -1.99803 91.3912 0.595097 88.2547 3.04766C84.9884 0.609638 78.7202 -1.99318 73.4671 2.30607C70.576 4.67139 69.6428 8.48595 71.1966 11.5832C72.5147 14.2102 75.8532 16.5077 81.2602 15.0875C82.915 14.6561 83.3816 14.9518 83.8002 15.7855C84.0166 16.2217 84.0647 16.7258 84.0455 17.3947C65.1449 17.8842 45.2245 28.5088 40.2553 52.9568C40.2312 53.0732 40.2312 53.1846 40.236 53.2961C31.7695 61.5941 21.7684 65.5008 17.7083 66.8288C15.5724 67.5268 13.8936 69.1554 13.2201 71.1766C12.6525 72.8778 12.3783 76.1253 16.9338 78.7814C18.3626 79.6151 20.1713 80.1919 22.1725 80.5797C21.0228 83.0855 21.0228 85.509 21.2633 87.2006C5.47996 83.6187 0.159516 95.5083 0.106601 95.6343C-0.0665784 96.0415 -0.0280942 96.5116 0.217243 96.88ZM90.0298 14.6028C89.5391 15.5819 89.4718 16.5658 89.5054 17.5352C88.5578 17.4625 87.6053 17.4189 86.6432 17.3947C86.6624 16.464 86.5806 15.5237 86.1188 14.6028C84.5698 11.5056 81.5825 12.2908 80.6012 12.5477C77.2771 13.4202 74.6313 12.6156 73.5153 10.3957C72.5195 8.4084 73.1737 5.92191 75.1027 4.33695C80.606 -0.165876 87.1339 5.48083 87.4129 5.72318C87.9132 6.16426 88.6684 6.15456 89.1591 5.69895C89.4188 5.46145 95.5715 -0.146488 101.051 4.33695C102.985 5.91706 103.639 8.4084 102.638 10.3957C101.522 12.6156 98.8715 13.4202 95.5523 12.5477C94.5709 12.2908 91.5836 11.5056 90.0346 14.6028H90.0298ZM132.665 76.0187C133.296 73.0184 133.531 70.561 133.613 68.9082L133.772 65.9515C133.858 63.688 133.801 61.4729 133.618 59.3112C138.876 65.4571 143.932 70.0763 146.039 71.9278C146.712 72.5192 147.174 73.285 147.333 74.0799C147.549 75.1559 147.443 76.4888 144.663 77.2498C141.887 78.0108 137.635 77.5697 132.661 76.0138L132.665 76.0187ZM2.82455 96.0415C4.1282 93.7392 9.48713 86.3379 22.668 90.2833C23.149 90.4287 23.6686 90.2833 24.0005 89.9052C24.3372 89.532 24.4286 88.9988 24.241 88.5287C24.1785 88.3736 22.7786 84.6705 24.8904 80.982C26.7617 81.1855 28.7196 81.2679 30.6342 81.2679C31.6588 81.2679 32.6739 81.2437 33.66 81.2049C34.8097 84.2634 33.6264 87.1667 30.0569 90.07C29.7731 90.3027 29.5951 90.642 29.5759 91.0103C29.5615 91.2139 29.5037 93.0654 31.1345 94.6019C32.467 95.8573 34.4874 96.4874 37.1621 96.4874C38.0087 96.4874 38.9276 96.4244 39.9041 96.2984C40.6161 96.2063 41.1212 95.5471 41.0298 94.8297C40.9384 94.1124 40.2937 93.6034 39.5722 93.6955C38.7351 93.8022 37.9943 93.8555 37.3401 93.8652C41.9726 90.0458 42.776 84.8159 42.8241 80.3858C43.3532 80.3131 43.6852 80.2598 43.7766 80.2452C44.4885 80.1337 44.9696 79.46 44.8589 78.7475C44.7483 78.0302 44.0748 77.5455 43.3725 77.6569C43.1897 77.686 25.078 80.5021 18.2327 76.5082C14.8364 74.5258 15.4714 72.6306 15.6831 72.0054C16.0968 70.7646 17.1551 69.7564 18.5117 69.3105C22.9807 67.8418 34.3672 63.3826 43.512 53.6742C44.0075 53.1507 43.9834 52.317 43.4639 51.8226C43.3869 51.7499 43.3051 51.6918 43.2185 51.6433C45.874 40.7473 52.0314 32.0761 61.1089 26.5021C69.739 21.2044 80.5049 19.0184 91.4296 20.3513C102.479 21.6988 112.505 26.507 119.663 33.8937C127.682 42.1675 131.66 53.2089 131.174 65.8207L131.015 68.7676C130.765 73.9102 128.933 87.2733 117.387 100.253C109.036 109.647 97.3947 115.24 82.7755 116.883C77.5465 117.47 69.2483 117.819 59.4012 116.132C59.0548 116.074 58.8912 116.045 58.771 116.035C57.4962 115.827 34.0737 111.828 24.6162 98.6879C24.2747 98.2178 23.6686 98.0287 23.1202 98.2226C22.971 98.2759 8.56832 103.37 2.82455 96.0366V96.0415ZM40.2168 80.7202C40.0676 87.0116 38.1386 90.7001 33.6841 93.2254C33.381 93.0703 33.1453 92.9006 32.9577 92.7358C32.544 92.3626 32.3516 91.9555 32.2602 91.6453C35.0599 89.2024 37.6528 85.5769 36.3587 81.0644C37.7971 80.9626 39.1055 80.8414 40.2168 80.7154V80.7202Z" fill="#4C4948"/>
<path d="M36.666 108.604C36.7911 108.672 36.9162 108.74 37.046 108.808C37.1182 108.847 37.1856 108.881 37.2577 108.92C37.4501 109.021 37.6426 109.118 37.8398 109.22C37.8638 109.23 37.8831 109.239 37.9071 109.254C38.3401 109.472 38.773 109.685 39.2108 109.889C39.2252 109.894 39.2396 109.903 39.2541 109.908C39.4657 110.01 39.6774 110.107 39.8891 110.204C39.9276 110.223 39.9708 110.243 40.0093 110.257C49.0387 114.387 57.9959 115.914 58.7704 116.04C58.8906 116.049 59.059 116.078 59.4006 116.137C69.2429 117.823 77.5459 117.479 82.7749 116.888C97.3941 115.245 109.04 109.651 117.387 100.258C123.352 93.5498 126.719 86.7447 128.619 81.0204C128.032 73.3816 124.631 58.2833 107.261 53.1989C83.636 46.2823 69.5364 59.9895 69.5364 59.9895C69.5364 59.9895 60.127 67.129 54.3158 88.0582C49.895 103.995 40.7742 107.722 36.6708 108.595L36.666 108.604ZM98.8421 102.798C114.736 90.2103 114.154 68.937 114.144 68.7188C114.125 68.1421 114.573 67.6525 115.145 67.6331C115.717 67.604 116.203 68.0645 116.223 68.6413C116.256 69.5574 116.872 91.1845 100.126 104.446C99.9341 104.596 99.708 104.669 99.4819 104.669C99.174 104.669 98.8661 104.533 98.6641 104.266C98.3081 103.811 98.3851 103.152 98.8373 102.793L98.8421 102.798ZM83.3666 106.399C103.167 83.4633 100.449 61.3999 100.415 61.1188C100.338 60.5469 100.733 60.0137 101.3 59.9361C101.868 59.8586 102.397 60.256 102.474 60.828C102.604 61.7635 105.418 84.0449 84.9348 107.776C84.728 108.013 84.4394 108.134 84.1507 108.134C83.9102 108.134 83.6649 108.052 83.4676 107.877C83.0347 107.499 82.9866 106.835 83.3666 106.399ZM70.1425 105.27C86.9216 84.0013 84.5933 61.3224 84.5692 61.0946C84.5067 60.5178 84.9156 59.9992 85.4881 59.9361C86.0557 59.8731 86.5752 60.2851 86.6378 60.8571C86.6666 61.0897 89.1104 84.5975 71.7732 106.574C71.5664 106.835 71.2633 106.971 70.9555 106.971C70.7294 106.971 70.4985 106.898 70.3108 106.743C69.8587 106.385 69.7865 105.725 70.1425 105.27ZM57.2214 103.99C68.1509 91.1991 68.4347 71.6464 68.4347 71.4525C68.4395 70.8757 68.9062 70.4104 69.4738 70.4104H69.4834C70.0607 70.4104 70.5225 70.8903 70.5177 71.4671C70.5129 72.2959 70.2339 91.9746 58.7993 105.357C58.5924 105.599 58.3038 105.721 58.0103 105.721C57.7698 105.721 57.5293 105.638 57.332 105.469C56.8943 105.09 56.8462 104.426 57.2214 103.99Z" fill="white"/>
<path d="M147.332 74.0797C147.549 75.1557 147.443 76.4886 144.662 77.2496C141.887 78.0106 137.634 77.5695 132.66 76.0136C133.29 73.0134 133.526 70.556 133.608 68.9031L133.767 65.9465C133.81 64.8123 133.819 63.6927 133.791 62.5827C133.762 61.4776 133.704 60.387 133.613 59.3062C136.206 62.3355 138.75 64.9916 140.915 67.134C141.098 67.3133 141.276 67.4878 141.454 67.6623C141.839 68.0355 142.214 68.4039 142.57 68.7432C142.993 69.1503 143.392 69.5235 143.772 69.8725C143.83 69.9258 143.893 69.9889 143.95 70.0422C143.975 70.0616 143.994 70.081 144.013 70.1003C144.836 70.8613 145.528 71.4769 146.038 71.9276C146.712 72.519 147.174 73.2848 147.332 74.0797Z" fill="#CFD4E0"/>
</svg>
