<svg width="316" height="358" viewBox="0 0 316 358" fill="none" xmlns="http://www.w3.org/2000/svg">
<path d="M282.236 357.391C275.376 357.581 268.086 357.051 260.326 357.141C252.566 357.231 244.726 357.181 236.926 357.151C232.986 357.141 229.256 357.221 225.456 357.381C221.776 357.531 217.516 357.191 214.016 357.621C213.706 357.661 212.966 357.621 212.436 357.621C203.016 357.621 193.386 357.801 184.236 357.571C173.586 357.311 163.086 357.491 152.556 357.381C135.376 357.881 118.006 357.511 100.736 357.601C95.3357 357.631 89.9057 357.721 84.3657 357.421C79.6357 357.161 73.8657 357.631 68.9257 357.171C68.5257 357.131 67.5457 357.231 66.8157 357.251C65.0757 357.301 63.2157 357.421 61.5757 357.381C51.6657 357.121 51.6957 357.121 43.4257 357.351C42.4357 357.381 41.2357 357.191 40.1157 357.181C35.5557 357.151 30.9757 357.121 26.4357 357.171C22.3457 357.211 18.0057 356.951 14.1057 357.381C13.2557 357.471 11.4857 357.391 10.1457 357.391C7.6357 357.431 5.0257 356.401 3.2457 354.561C1.4357 352.761 0.435704 350.131 0.475704 347.661C0.435704 342.751 0.635704 337.741 0.265704 332.931C0.105704 330.831 0.535704 327.781 0.435704 326.541C0.265704 324.231 0.225704 322.081 0.255704 319.801C0.285704 317.571 0.455704 315.401 0.465704 313.191C0.465704 311.271 0.275704 309.351 0.255704 307.401C0.225704 302.571 0.395704 297.381 0.205704 292.961C-0.004296 288.201 0.0457039 283.661 0.0257039 279.011C0.0257039 274.171 0.0157039 269.301 0.00570394 264.481C-0.0342961 260.721 0.145704 257.361 0.245704 253.841C0.345704 250.321 0.045704 246.381 0.475704 243.191C0.495704 243.051 0.475704 242.671 0.475704 242.401C0.555704 235.091 0.675704 227.781 0.695704 220.461C0.695704 207.821 0.705704 195.161 0.715704 182.511C0.715704 178.931 0.575704 175.171 0.935704 171.821C1.0057 171.121 0.905704 169.591 0.955704 168.671C1.1557 165.171 0.475704 162.401 0.785704 159.051C1.0657 156.051 0.905704 152.881 0.935704 149.801C0.935704 146.321 0.935704 142.801 0.945704 139.311C0.955704 136.901 0.905704 134.711 0.705704 132.711C1.1157 130.051 0.835704 126.261 1.0357 123.151C1.1657 121.101 1.2857 117.921 1.1457 116.421C0.835704 113.081 0.985704 109.761 0.945704 106.451C0.895704 101.531 1.0257 96.5813 0.725704 91.7213C0.595704 89.6613 0.675704 86.9113 0.715704 84.5213C0.755704 82.2913 0.915704 80.1313 0.925704 77.9113C0.955704 73.7713 0.945704 69.7113 0.725704 65.6113C0.535704 62.0613 0.915704 57.7113 0.485704 54.1713C0.425704 53.7013 0.445704 52.5413 0.485704 51.8013C0.665704 47.9213 0.765704 44.4213 0.525704 40.1013C0.325704 36.6113 0.485704 32.1413 0.485704 28.1013C0.485704 23.7913 0.405704 19.3813 0.515704 15.2213C0.555704 13.8813 0.425704 12.8813 0.335704 11.8213C0.295704 11.2913 0.255704 10.7413 0.255704 10.1313C0.255704 9.86128 0.285704 9.41128 0.325704 9.01128C0.385704 8.60128 0.475704 8.16128 0.625704 7.70128C0.925704 6.72128 1.4957 5.30128 2.5157 4.00128C3.5057 2.69128 4.9757 1.60128 6.4257 1.02128C7.1757 0.73128 7.9557 0.50128 8.7657 0.40128C9.1657 0.33128 9.5757 0.33128 9.9757 0.30128H11.0057C12.3657 0.28128 13.7057 0.28128 14.9757 0.33128C28.4057 0.79128 42.0257 0.41128 55.4957 0.56128C61.1957 0.62128 67.1757 0.28128 72.5957 0.78128C76.6157 0.40128 81.5657 0.73128 85.4257 0.47128C87.8757 0.31128 90.0157 0.32128 92.2557 0.32128C107.056 0.32128 121.866 0.31128 136.656 0.30128C146.396 0.23128 156.126 0.16128 165.866 0.0912802C168.606 0.0812802 171.276 0.0312803 174.246 0.26128C176.426 0.43128 180.406 0.45128 183.316 0.15128C183.886 0.0912802 185.046 0.0412802 185.476 0.0812802C191.016 0.63128 196.496 0.0612803 201.936 0.0412803C212.586 0.00128028 222.996 0.34128 233.566 0.30128C235.816 0.30128 238.456 0.46128 240.206 0.0912802C241.936 0.40128 243.256 0.25128 245.396 0.11128C247.606 -0.0287198 251.236 -0.0487198 253.176 0.12128C255.816 0.36128 258.246 0.27128 260.766 0.30128C263.446 0.30128 266.146 0.30128 268.836 0.30128C280.186 0.38128 291.536 0.46128 302.886 0.54128C304.006 0.55128 305.066 0.58128 306.216 0.64128C307.466 0.71128 308.706 1.05128 309.826 1.61128C310.956 2.17128 312.036 2.95128 312.876 3.93128C313.726 4.91128 314.306 6.10128 314.486 7.28128C314.546 7.72128 314.766 8.54128 314.786 9.50128C314.826 10.4213 314.826 11.3613 314.826 12.1713C314.826 17.8213 314.626 23.9413 314.876 28.9913C315.126 34.0013 314.816 39.3813 315.266 44.0213C315.396 45.3213 315.266 47.7113 315.286 49.5813C315.396 57.1513 315.016 64.9513 315.516 72.3313C315.206 75.0513 315.266 78.2713 315.296 81.3513C315.316 83.6113 315.136 86.2113 315.486 88.0713C315.526 88.2913 315.526 89.0813 315.516 89.5613C315.436 92.2913 315.216 94.7413 315.276 97.7913C315.326 100.331 315.546 102.401 315.536 105.181C315.516 115.221 315.116 125.101 315.286 135.191C315.006 137.951 315.056 141.101 315.046 144.211C315.036 149.711 315.376 154.871 315.296 160.511C315.216 165.841 315.126 171.541 315.316 176.591C315.636 185.311 315.436 193.971 315.506 202.631C315.526 204.851 315.646 207.361 315.306 209.381C315.226 209.861 315.266 212.291 315.366 212.961C315.576 214.381 315.446 216.041 315.526 217.421C315.746 221.341 314.886 225.161 315.526 229.021V241.941C315.526 246.251 315.526 250.551 315.526 254.861C315.526 256.871 315.586 258.821 315.366 260.901C315.216 262.301 315.186 265.601 315.326 266.991C315.656 270.271 315.516 273.641 315.526 276.941C315.526 286.901 315.526 296.861 315.526 306.811C315.516 311.171 315.376 315.511 315.306 319.871C315.226 324.291 315.466 328.871 315.156 333.171C315.136 333.471 315.156 333.931 315.156 334.301C315.206 336.041 315.306 337.811 315.286 339.521C315.266 341.751 314.976 344.691 315.106 345.961C315.166 346.591 315.196 347.171 315.206 347.711C315.206 348.291 315.156 348.891 315.036 349.431C314.796 350.511 314.376 351.451 313.826 352.371C313.026 353.701 311.946 354.671 310.896 355.251C309.846 355.841 308.836 356.091 308.046 356.141C307.256 356.201 306.676 356.081 306.346 355.921C306.016 355.771 305.936 355.591 306.086 355.391C306.216 355.211 306.806 355.021 307.466 354.761C308.486 354.321 309.126 353.821 309.636 353.351C310.136 352.871 310.526 352.441 310.906 351.911C311.276 351.381 311.656 350.761 311.956 349.871C312.106 349.421 312.216 348.911 312.256 348.301C312.256 348.151 312.266 347.991 312.276 347.831C312.276 347.621 312.276 347.411 312.276 347.191C312.276 346.751 312.276 346.281 312.276 345.791C312.216 335.711 312.686 325.871 312.516 315.781C312.946 309.201 312.666 302.221 312.756 295.461C312.846 288.421 313.206 281.271 312.956 274.381C312.706 267.531 312.766 260.791 312.766 254.001C312.766 248.841 312.936 243.691 312.976 238.521C313.016 233.151 312.906 227.681 313.016 222.411C313.086 219.141 313.356 215.691 313.196 212.611C312.836 205.851 313.146 198.891 312.966 192.261C312.706 183.051 312.876 173.771 312.716 164.681C312.626 159.771 312.526 154.911 312.536 149.971C312.536 147.721 312.536 145.581 312.696 143.171C312.866 140.701 312.866 137.111 312.636 134.051C312.536 132.781 312.466 130.661 312.546 129.581C312.906 125.061 312.756 120.291 312.746 115.651C312.746 112.711 313.066 109.411 312.936 107.661C312.706 104.701 312.806 101.991 312.776 99.2213C312.756 97.2513 312.646 95.0013 312.946 93.2513C313.026 92.7813 313.046 90.8513 312.986 90.2813C312.586 86.9613 312.786 83.1413 312.776 79.5813C312.776 70.9713 312.776 62.3513 312.776 53.7513C312.796 46.6313 312.366 39.7913 312.536 32.6213C312.136 28.2613 312.316 23.3913 312.316 18.7613C312.316 16.9913 312.356 15.2113 312.396 13.4413L312.466 10.7813C312.496 9.82128 312.506 9.18128 312.376 8.46128C312.106 7.05128 311.316 5.76128 310.216 4.81128C309.096 3.88128 307.676 3.29128 306.106 3.18128C301.506 2.96128 295.996 3.15128 290.896 3.11128C288.126 3.09128 285.026 3.31128 282.526 2.93128C282.186 2.88128 280.906 2.89128 280.426 2.93128C276.776 3.33128 272.176 3.22128 268.926 3.06128C263.616 2.81128 258.516 2.92128 253.336 2.88128C249.046 2.88128 244.716 2.87128 240.426 2.86128C237.346 2.83128 234.326 2.92128 231.086 2.75128C228.606 2.62128 225.316 2.84128 222.376 2.86128C219.426 2.86128 216.456 2.86128 213.496 2.86128H194.116C190.616 2.86128 187.106 2.89128 183.626 2.86128C180.326 2.82128 177.086 2.66128 173.796 2.65128C164.566 2.60128 155.506 3.03128 146.206 2.87128C143.696 3.16128 141.266 2.95128 138.636 2.89128C136.226 2.84128 133.396 2.72128 130.986 3.01128C130.316 3.09128 129.036 3.07128 128.026 3.09128C125.786 3.13128 123.846 2.86128 121.186 3.06128C119.306 3.21128 116.436 3.06128 114.026 3.09128C111.496 3.12128 108.636 2.92128 106.516 3.28128C102.076 2.74128 97.8457 3.57128 93.4157 3.32128C92.0257 3.24128 90.4957 3.21128 89.0357 3.16128C88.3057 3.13128 87.4757 3.06128 86.8457 3.09128C75.0757 3.58128 63.0357 3.18128 51.1757 3.32128C49.7157 3.34128 48.3057 3.44128 46.8557 3.49128C46.1557 3.51128 45.3757 3.53128 44.6757 3.50128C38.1757 3.30128 38.1857 3.31128 32.1157 3.50128C30.5857 3.55128 28.9257 3.50128 27.3457 3.53128C23.2457 3.59128 19.2457 3.49128 14.9957 3.72128C13.9357 3.78128 12.8457 3.79128 11.7457 3.79128C11.1957 3.78128 10.6457 3.77128 10.0857 3.76128H9.4457L8.8157 3.83128C7.1357 4.07128 5.4857 5.07128 4.5157 6.56128C4.0857 7.22128 3.7757 7.96128 3.6057 8.75128C3.5057 9.15128 3.4857 9.51128 3.4557 9.99128C3.4357 10.4813 3.4257 10.9813 3.4057 11.4713C3.3457 13.4613 3.3057 15.4913 3.3157 17.6313C3.3157 28.3913 3.3157 39.1613 3.3257 49.9213C3.3257 51.2713 3.2457 53.1213 3.3357 53.8713C3.7357 56.9613 4.0057 59.6913 3.3357 62.6413C3.3057 62.7813 3.3057 63.9013 3.3357 64.1413C3.7557 66.7913 3.5557 70.2413 3.5357 73.2213C3.4857 84.6313 3.9557 95.8413 3.7857 107.271C3.7557 109.111 3.8657 111.611 3.7257 112.691C3.4357 114.981 3.9057 116.101 3.7957 118.091C3.7057 119.751 3.8757 122.231 3.7557 123.621C3.3257 128.681 3.4557 134.321 3.5957 139.091C3.7257 143.551 3.8757 148.151 3.7357 152.171C3.4457 160.081 3.5757 167.921 3.5457 175.791C3.5457 183.861 3.5457 191.941 3.5457 200.011C3.5557 203.311 3.3757 206.851 3.7557 209.901C3.8357 210.521 3.7857 212.011 3.7557 213.061C3.6957 215.551 3.5457 218.001 3.5457 220.471C3.5457 222.941 3.6957 225.391 3.7557 227.881C3.8057 229.891 3.7557 231.771 3.9557 233.831C4.1057 235.341 3.9857 237.991 3.7857 240.361C3.3857 245.071 2.9857 249.981 3.0557 256.031C3.1157 261.381 3.0557 266.791 3.0757 272.171C3.0757 274.431 3.0557 276.551 3.2457 278.971C3.4157 281.141 3.3457 284.791 3.2157 287.421C3.0157 291.581 2.9957 295.401 3.2157 299.461C3.2957 300.861 3.2957 302.531 3.2957 304.071V332.331C3.2957 334.601 3.3657 337.011 3.0857 338.861C3.4157 340.361 3.3057 342.731 3.2857 344.711C3.2757 345.471 3.2557 346.221 3.2457 346.971C3.2357 347.771 3.1857 348.371 3.2957 349.011C3.4757 350.281 4.0257 351.521 4.9157 352.491C5.9557 353.661 7.4057 354.441 8.9257 354.641C9.3057 354.711 9.6857 354.701 10.0857 354.711L11.4157 354.671C12.3057 354.631 13.1957 354.591 14.0957 354.551C17.4057 354.361 21.3957 354.671 24.9657 354.391C25.6357 354.341 27.0357 354.531 28.0257 354.511C32.1157 354.441 36.5357 354.751 40.3157 354.291C40.6357 354.251 41.5157 354.251 41.8757 354.291C46.5757 354.751 51.2457 354.401 55.8957 354.291C60.9757 354.161 65.6057 354.541 70.5757 354.531C76.2257 354.521 82.1157 354.381 87.4757 354.561C96.7157 354.871 105.916 354.721 115.116 354.751C124.526 354.751 133.956 354.751 143.376 354.751C147.466 354.741 151.526 354.571 155.626 354.541C160.186 354.541 164.776 354.541 169.346 354.541C173.656 354.541 177.956 354.541 182.266 354.541C184.286 354.541 186.516 354.421 188.276 354.701C188.636 354.761 189.876 354.781 190.376 354.731C194.066 354.421 197.626 354.441 201.376 354.721C202.446 354.801 204.006 354.721 205.276 354.771C208.806 354.881 211.846 354.611 215.106 354.531C218.116 354.451 221.526 354.741 224.196 354.311C224.566 354.251 226.036 354.251 226.506 354.311C232.536 355.031 239.426 353.831 245.426 354.501C247.826 354.091 250.306 354.561 252.206 354.501C254.956 354.411 257.616 354.301 260.486 354.311C263.176 354.311 265.876 354.341 268.556 354.311C273.466 354.261 278.426 354.451 283.326 354.111C284.966 354.001 288.036 353.921 290.046 354.251C290.406 354.311 291.476 354.301 292.176 354.281C297.556 354.151 304.106 354.511 305.456 355.111C306.246 355.461 306.156 355.891 305.536 356.251C305.226 356.431 302.886 356.541 301.396 356.671C298.826 356.901 296.366 357.211 293.556 357.301C290.236 357.411 286.596 357.331 282.256 357.331L282.236 357.391Z" fill="#BA9F67"/>
</svg>
