<svg width="490" height="300" viewBox="0 0 490 300" fill="none" xmlns="http://www.w3.org/2000/svg">
<g clip-path="url(#clip0_1005_119327)">
<path d="M354.591 112.729C357.522 113.645 358.351 115.627 357.906 117.626C357.461 119.624 355.71 121.648 353.706 122.599C355.095 123.005 356.687 122.855 358.317 122.384C359.131 122.149 359.961 121.842 360.775 121.473C361.19 121.282 361.589 121.104 361.996 120.882C362.392 120.643 362.789 120.405 363.185 120.166C366.302 118.173 369.063 115.951 370.68 114.913C370.877 114.801 371.575 114.708 372.692 114.618C373.251 114.573 373.926 114.52 374.691 114.454C375.074 114.421 375.484 114.393 375.926 114.356C376.367 114.319 376.803 114.236 377.278 114.176C379.159 113.886 381.436 113.565 383.962 113.023C385.213 112.706 386.529 112.355 387.926 111.961C388.617 111.762 389.326 111.552 390.048 111.344C390.773 111.122 391.472 110.82 392.206 110.555C393.667 109.994 395.181 109.383 396.735 108.72C398.248 107.976 399.777 107.159 401.342 106.305C401.732 106.095 402.126 105.871 402.519 105.647C402.913 105.423 403.284 105.165 403.67 104.909C404.438 104.412 405.198 103.885 405.972 103.359C406.735 102.817 407.523 102.295 408.267 101.705C409 101.097 409.734 100.49 410.473 99.8546C416.314 94.8444 421.426 88.1977 424.314 80.7814C424.566 80.1294 424.854 79.4397 425.067 78.6915C425.295 77.946 425.5 77.1666 425.695 76.3704C425.89 75.5741 426.085 74.7779 426.224 73.9713C426.338 73.1452 426.435 72.3309 426.499 71.54C426.563 70.7491 426.579 69.9791 426.572 69.2495C426.523 68.5121 426.44 67.7982 426.312 67.1649C426.048 65.8673 425.602 64.8183 424.945 64.0869C424.238 63.3166 423.122 64.239 421.915 65.7988C421.333 66.5826 420.624 67.4914 419.933 68.4483C419.603 68.9222 419.256 69.4078 418.924 69.896C418.58 70.3673 418.208 70.8334 417.87 71.2761C417.635 71.5743 417.141 72.211 416.508 73.0299C415.889 73.8515 415.004 74.7722 414.182 75.7345C413.752 76.2046 413.357 76.7111 412.919 77.15C412.481 77.589 412.06 78.0161 411.672 78.4199C410.914 79.2156 410.272 79.8694 409.904 80.2471C409.077 81.0299 408.294 81.8061 407.542 82.5732C407.171 82.9652 406.803 83.3429 406.433 83.7349C406.054 84.0957 405.659 84.4682 405.283 84.8147C404.54 85.5389 403.811 86.2656 403.123 87.0001C402.411 87.7152 401.668 88.3652 400.976 89.0542C400.283 89.7432 399.605 90.4347 398.932 91.0977C398.234 91.7411 397.551 92.3872 396.881 93.0358C396.211 93.6845 395.566 94.3526 394.903 94.9726C394.228 95.5757 393.553 96.1788 392.893 96.7845C392.229 97.4045 391.582 98.0128 390.935 98.6211C390.277 99.2125 389.601 99.7558 388.932 100.33C388.263 100.905 387.598 101.465 386.949 102.013C386.616 102.293 386.283 102.574 385.964 102.856C385.62 103.119 385.28 103.368 384.939 103.617C383.569 104.641 382.203 105.651 380.815 106.627C379.397 107.538 377.936 108.382 376.463 109.209C374.504 110.361 373.227 111.15 372.019 111.817C370.813 112.47 369.65 112.923 367.849 113.035C366.257 113.052 364.153 112.676 360.794 112.365C359.768 112.293 358.961 112.143 358.303 112.11C357.649 112.063 357.144 112.059 356.709 112.067C355.852 112.086 355.299 112.177 354.443 112.122L354.566 112.71L354.591 112.729Z" fill="#CCEAE6"/>
<path d="M268.808 231.155C271.816 231.714 273.256 233.751 273.423 236.073C273.514 237.235 273.288 238.457 272.824 239.576C272.362 240.68 271.624 241.659 270.768 242.363C273.79 242.849 276.86 240.608 279.296 237.936C281.758 235.284 283.661 232.187 285.023 230.922C285.348 230.611 287.69 230.198 291.331 229.312C294.971 228.425 299.916 227.038 305.402 224.858C308.147 223.761 311.017 222.479 313.923 220.951C314.654 220.566 315.374 220.164 316.111 219.75C316.474 219.535 316.834 219.334 317.211 219.122C317.594 218.88 317.973 218.653 318.356 218.412C319.902 217.449 321.378 216.4 322.839 215.287C325.733 213.058 328.382 210.545 330.735 207.992C333.092 205.425 335.14 202.815 337.096 200.158C338.461 198.255 340.143 195.801 341.756 193.333C342.136 192.69 342.549 192.097 342.898 191.463C343.258 190.845 343.585 190.177 343.897 189.581C344.5 188.354 344.932 187.11 345.007 185.919C345.11 184.659 343.618 184.397 341.406 184.671C339.238 185.012 336.4 186.002 334.072 187.117C333.277 187.461 330.704 188.708 328.189 190.16C325.66 191.61 323.277 193.191 322.317 193.845C318.26 196.662 315.097 199.422 312.262 201.99C311.548 202.645 310.872 203.249 310.202 203.898C309.538 204.518 308.877 205.125 308.226 205.748C306.864 207.012 305.51 208.307 304.217 209.585C299.018 214.689 294.429 219.712 289.234 223.895C287.485 225.281 286.493 226.435 285.471 227.316C284.459 228.215 283.429 228.856 281.649 229.21C280.096 229.517 277.947 229.49 274.542 229.661C270.406 229.801 270.095 230.323 268.479 230.514L268.778 231.165L268.808 231.155Z" fill="#CCEAE6"/>
<path d="M271.009 173.692C275.288 176.128 276.634 180.184 275.951 184.087C275.617 186.04 274.785 187.945 273.625 189.55C272.456 191.124 270.974 192.387 269.416 193.112C273.714 195.388 279.331 193.282 284.116 190.081C288.955 186.904 292.959 182.648 295.468 181.188C296.069 180.808 299.79 181.185 305.746 181.142C311.698 181.113 319.912 180.533 329.158 178.549C338.376 176.559 348.568 173.168 358.235 168.112C367.928 163.076 377.09 156.479 384.839 148.171C387.569 145.231 390.848 141.183 393.389 136.923C395.929 132.664 397.775 128.186 397.419 124.254C397.229 122.174 394.892 121.904 391.684 122.473C388.501 123.061 384.501 124.512 381.068 125.815C379.906 126.241 376.088 127.651 372.179 129.149C368.27 130.647 364.276 132.204 362.658 132.874C348.973 138.691 338.983 145.851 330.016 152.768C321.062 159.687 313.065 166.471 304.01 171.297C302.504 172.122 301.277 172.864 300.203 173.56C299.13 174.257 298.214 174.893 297.312 175.397C296.406 175.915 295.511 176.316 294.496 176.59C293.474 176.833 292.325 176.918 290.937 176.825C288.502 176.611 285.271 175.549 280.183 174.142C277.085 173.208 275.401 172.94 274.14 172.796C272.893 172.654 272.074 172.755 270.833 172.45L271.015 173.663L271.009 173.692Z" fill="#CCEAE6"/>
<path d="M290.489 125.659C290.937 127.504 290.647 129.679 289.671 131.364C289.19 132.208 288.548 132.916 287.832 133.416C287.117 133.915 286.355 134.149 285.657 134.139C285.865 134.615 286.191 135.007 286.564 135.317C286.951 135.63 287.413 135.792 287.912 135.915C288.916 136.132 290.062 136.015 291.146 135.705C293.342 135.09 295.25 133.759 296.255 133.48C296.379 133.443 296.731 133.644 297.309 133.947C297.881 134.28 298.694 134.718 299.711 135.223C301.745 136.235 304.672 137.368 308.123 138.011C311.571 138.669 315.529 138.835 319.451 138.12C323.372 137.406 327.238 135.837 330.587 133.104C332.945 131.149 336.293 127.436 336.412 123.558C336.476 121.492 333.022 121.707 330.424 121.87C329.554 121.918 324.711 122.16 323.475 122.216C318.289 122.634 314.325 124.184 310.68 125.884C307.055 127.557 303.726 129.421 300.245 130.188C299.085 130.439 298.307 130.821 297.599 131.005C296.887 131.203 296.238 131.173 295.396 130.594C295.028 130.33 294.646 129.927 294.186 129.405C293.746 128.856 293.22 128.231 292.656 127.433C292.317 126.963 292.068 126.616 291.864 126.337C291.67 126.075 291.501 125.908 291.371 125.763C291.107 125.488 290.912 125.376 290.702 125.051L290.492 125.644L290.489 125.659Z" fill="#CCEAE6"/>
<path d="M19.9616 216.206C20.4097 218.051 20.1193 220.226 19.1435 221.911C18.6626 222.755 18.0204 223.463 17.305 223.962C16.5897 224.462 15.8272 224.696 15.1298 224.686C15.3372 225.162 15.6639 225.554 16.0367 225.864C16.4235 226.177 16.8854 226.339 17.3844 226.462C18.3884 226.679 19.5347 226.562 20.6188 226.252C22.8151 225.637 24.7228 224.306 25.7278 224.027C25.852 223.99 26.2038 224.191 26.7819 224.494C27.3541 224.827 28.1668 225.264 29.1838 225.77C31.218 226.782 34.1449 227.915 37.5958 228.558C41.0437 229.216 45.0016 229.381 48.9233 228.667C52.8451 227.952 56.7106 226.384 60.0601 223.65C62.4176 221.696 65.7659 217.983 65.8848 214.105C65.9488 212.039 62.4949 212.253 59.8968 212.417C59.027 212.465 54.1834 212.707 52.948 212.763C47.7617 213.181 43.7979 214.731 40.1528 216.431C36.5278 218.104 33.1983 219.968 29.7174 220.735C28.5582 220.986 27.7796 221.367 27.0713 221.552C26.3599 221.75 25.7106 221.72 24.8688 221.141C24.5011 220.877 24.1183 220.474 23.6583 219.952C23.2184 219.403 22.6923 218.778 22.1291 217.98C21.7894 217.51 21.5409 217.163 21.3364 216.884C21.143 216.622 20.9737 216.455 20.8434 216.31C20.5799 216.035 20.3845 215.923 20.175 215.598L19.9646 216.191L19.9616 216.206Z" fill="#CCEAE6"/>
<path d="M226.797 217.341C228.349 218.905 228.649 221.031 228.119 222.882C227.603 224.736 226.201 226.305 224.776 226.79C225.589 227.496 226.634 227.72 227.744 227.627C228.025 227.604 228.309 227.567 228.586 227.498C228.862 227.43 229.158 227.335 229.44 227.237C230.007 227.028 230.569 226.772 231.123 226.486C232.24 225.943 233.269 225.19 234.17 224.562C235.075 223.921 235.834 223.417 236.402 223.133C236.532 223.067 236.991 223.167 237.711 223.346C238.433 223.511 239.456 223.836 240.7 224.082C241.943 224.328 243.444 224.668 245.106 224.857C245.942 224.967 246.825 225.057 247.767 225.142C248.685 225.208 249.653 225.238 250.652 225.259C254.625 225.323 259.12 224.899 263.492 223.672C267.877 222.448 272.158 220.47 275.98 217.476C277.325 216.391 278.974 214.898 280.339 213.157C281.699 211.445 282.783 209.517 282.91 207.576C283.072 205.536 279.02 205.922 275.94 206.324C274.886 206.428 269.148 207.161 267.701 207.401C261.529 208.473 256.825 210.673 252.607 212.978C248.39 215.283 244.621 217.672 240.549 219.135C239.192 219.647 238.329 220.161 237.518 220.491C237.106 220.654 236.717 220.777 236.273 220.814C235.829 220.851 235.358 220.809 234.773 220.61C234.27 220.441 233.704 220.156 233.01 219.787C232.67 219.604 232.29 219.398 231.858 219.168C231.443 218.926 230.989 218.661 230.485 218.357C228.083 216.966 227.782 217.224 226.805 216.743L226.794 217.356L226.797 217.341Z" fill="#CCEAE6"/>
<path d="M78.1886 242.03C81.0405 243.852 81.6891 246.614 81.0098 249.114C80.3415 251.631 78.2863 253.89 76.1039 254.729C77.4888 255.557 79.1639 255.689 80.906 255.428C82.6591 255.184 84.4452 254.36 86.1813 253.498C87.9034 252.633 89.5163 251.522 90.9472 250.588C92.3641 249.651 93.5878 248.873 94.4923 248.441C94.9306 248.222 97.4202 248.775 101.408 249.262C105.378 249.761 110.891 250.261 117.177 250.05C123.46 249.854 130.557 249.028 137.619 247.115C144.691 245.22 151.747 242.285 158.182 237.99C160.453 236.446 163.254 234.311 165.578 231.877C167.91 229.474 169.791 226.793 170.112 224.196C170.48 221.443 164.057 222.244 159.149 222.966C157.489 223.183 148.312 224.492 145.987 224.9C136.082 226.703 128.275 229.963 121.225 233.364C114.188 236.767 107.894 240.309 101.22 242.669C98.988 243.469 97.5871 244.259 96.2543 244.791C94.9245 245.309 93.6647 245.63 91.7624 245.261C90.9359 245.108 89.9993 244.783 88.8195 244.369C87.6507 243.971 86.2478 243.44 84.5317 242.805C80.364 241.294 79.8306 241.69 78.1235 241.223L78.1746 242.028L78.1886 242.03Z" fill="#CCEAE6"/>
<path d="M421.897 97.4878C424.712 97.3737 426.526 98.9557 427.338 101.003C428.149 103.051 427.957 105.564 426.95 107.155C429.593 106.965 431.61 104.465 432.961 101.633C433.309 100.927 433.63 100.216 433.919 99.5146C434.209 98.8127 434.457 98.103 434.691 97.4648C435.178 96.1622 435.578 95.066 436.01 94.3756C436.208 94.0421 438.113 93.2549 441.084 91.8361C442.546 91.1002 444.282 90.2225 446.16 89.1488C448.027 88.0583 450.084 86.8107 452.173 85.3464C456.374 82.4373 460.777 78.7655 464.7 74.5005C468.639 70.2238 472.092 65.3824 474.657 59.8279C475.53 57.8415 476.584 55.2661 477.169 52.589C477.798 49.9793 477.998 47.2897 477.142 45.2487C476.676 44.1692 475.396 44.3759 473.792 45.1743C472.989 45.5735 472.116 46.1076 471.227 46.7131C470.367 47.3237 469.497 47.9772 468.678 48.5955C467.537 49.3764 461.548 54.102 460.073 55.3839C453.799 60.8568 449.94 66.6154 446.749 72.0685C443.571 77.524 441.068 82.779 437.722 87.3881C436.607 88.9444 436.036 90.0979 435.415 91.079C435.097 91.5683 434.764 91.9954 434.337 92.3901C433.898 92.7681 433.352 93.1112 432.626 93.4208C431.364 93.9568 429.49 94.3199 426.562 95.0501C424.784 95.5051 423.874 95.8695 423.209 96.1608C422.555 96.4691 422.168 96.738 421.485 96.9814L421.922 97.5073L421.897 97.4878Z" fill="#CCEAE6"/>
<path d="M149.764 186.952C152.599 188.517 153.478 191.297 153.204 193.952C152.944 196.61 151.505 199.123 149.802 200.174C152.405 201.591 155.458 200.144 158.166 198.108C160.9 196.092 163.321 193.476 164.847 192.648C165.209 192.444 167.42 192.946 170.878 193.545C174.333 194.159 179.062 194.874 184.413 195.194C189.763 195.514 195.72 195.436 201.722 194.509C207.738 193.585 213.765 191.836 219.586 188.696C221.631 187.543 224.232 185.953 226.516 183.928C228.799 181.978 230.773 179.624 231.459 177.016C231.818 175.64 230.617 174.83 228.775 174.306C227.85 174.059 226.757 173.855 225.634 173.721C224.509 173.602 223.343 173.535 222.268 173.455C220.814 173.305 212.647 172.941 210.542 172.985C201.615 173.127 194.405 175.527 188.054 178.343C181.701 181.174 176.171 184.459 170.395 186.75C166.527 188.27 165.604 190.052 162.211 189.421C160.725 189.144 158.766 188.268 155.562 187.22C151.649 185.935 151.19 186.466 149.581 186.151L149.747 186.964L149.764 186.952Z" fill="#CCEAE6"/>
</g>
<defs>
<clipPath id="clip0_1005_119327">
<rect width="490" height="300" fill="white"/>
</clipPath>
</defs>
</svg>
