<svg width="1950" height="600" viewBox="0 0 1950 600" fill="none" xmlns="http://www.w3.org/2000/svg">
<path d="M1116.94 78.3114C893.105 14.1788 790.938 184.31 653.438 219.81C533.795 280.21 597.438 355.311 674.938 364.811C830.938 383.934 865.438 567.811 1092.44 491.311C1335.98 409.236 1496.5 517 1578.94 406.811C1641.07 323.767 1629.5 181.5 1475.5 129.5C1395.86 102.608 1303.94 131.891 1116.94 78.3114Z" fill="#F2FAFD"/>
<path d="M1116.85 60.9848C893.053 -6.99339 790.903 192.95 653.427 230.578C533.804 294.6 597.436 374.204 674.923 384.274C830.896 404.543 865.39 599.447 1092.35 518.36C1335.85 431.363 1496.34 545.589 1578.77 428.793C1640.89 340.769 1629.32 170.361 1475.35 115.243C1395.72 86.738 1303.81 117.777 1116.85 60.9848Z" fill="#F2FAFD"/>
</svg>
