<svg width="1024" height="2268" viewBox="0 0 1024 2268" fill="none" xmlns="http://www.w3.org/2000/svg">
<g clip-path="url(#clip0_1307_106717)">
<path d="M-1538.69 276.158C-1868.07 372.598 -1829.33 177.671 -2055.02 177.671C-2280.71 177.671 -2383 26.2121 -2383 26.2121C-2383 26.2121 -2383 411.156 -2383 504.579C-2383 569.088 -2383 1934.36 -2383 2127.58C-2271.78 2039.15 -2136.2 1927.54 -1911.32 1835.77C-1686.44 1744 -1411.85 1693.97 -1056.46 1780.53C-624.559 1885.72 -661.904 1914.53 -349.346 1966.78C-36.7888 2019.04 120.708 1876.34 515.261 1998.94C909.814 2121.55 790.474 2172.67 1142 2276V-160C1116.02 -140.891 1049.45 70.0195 835.125 118.147C542.864 183.775 468.671 -17.8185 35.1499 28.1854C-241.687 57.5624 -295.765 183.968 -618.876 252.62C-853.527 302.476 -1112.47 151.365 -1538.69 276.158Z" fill="#CCEAE6"/>
</g>
<defs>
<clipPath id="clip0_1307_106717">
<rect width="1024" height="2268" fill="white"/>
</clipPath>
</defs>
</svg>
