<svg width="290" height="206" viewBox="0 0 290 206" fill="none" xmlns="http://www.w3.org/2000/svg">
<g clip-path="url(#clip0_1371_100705)">
<path d="M147.82 40.7118C150.659 41.1649 153.831 38.3962 153.831 38.3962C153.106 30.9961 157.204 31.3686 157.204 31.3686C164.664 36.1107 178.045 30.0194 175.236 20.1325C172.225 9.55089 159.519 11.2323 152.17 15.6321C147.065 8.75551 135.97 2.33203 129.144 10.9604C122.761 19.015 132.789 29.7677 141.497 28.2374C141.497 28.2374 145.434 29.4556 141.93 36.0201C141.93 36.0201 142.484 39.8661 147.81 40.7118H147.82Z" fill="white"/>
<path d="M147.82 42.7556C147.72 42.7455 147.609 42.7355 147.508 42.7153C140.772 41.6481 139.957 36.5234 139.927 36.312C139.866 35.879 139.947 35.4461 140.148 35.0635C141.588 32.3653 141.407 31.1067 141.266 30.6839C141.215 30.5429 141.145 30.4322 141.085 30.3516C137.661 30.7141 133.997 29.6167 130.906 27.2708C127.623 24.7839 125.529 21.2702 125.167 17.6557C124.643 12.4505 128.147 7.50699 133.674 5.63431C138.185 4.10396 143.581 5.34234 148.465 9.03735C148.505 9.06755 151.012 11.0812 152.703 13.0243C158.029 10.3059 165.57 8.62456 171.43 11.947C175.206 14.0916 177.451 17.9477 177.441 22.2669C177.441 26.6969 175.024 30.7946 171.148 32.9694C168.782 34.2983 165.993 35.0333 163.295 35.0333C161.654 35.0333 160.305 34.4997 159.117 34.0265C158.351 33.7245 157.687 33.4627 157.093 33.3922C157.002 33.3922 156.751 33.4426 156.509 33.7144C156.217 34.0466 155.563 35.134 155.865 38.1847C155.925 38.8391 155.673 39.4834 155.18 39.9164C154.797 40.2587 151.384 43.1281 147.82 42.7556ZM148.142 38.6981C149.26 38.8894 150.77 38.084 151.737 37.4295C151.616 34.4292 152.27 32.1941 153.69 30.7745C155.311 29.1636 157.214 29.3146 157.425 29.3347C158.623 29.4354 159.67 29.8684 160.617 30.2409C161.593 30.6335 162.429 30.9658 163.285 30.9658C165.299 30.9658 167.383 30.412 169.155 29.4254C171.792 27.9453 173.373 25.2672 173.373 22.2568C173.373 19.3773 171.943 16.9106 169.416 15.481C164.795 12.8632 157.959 14.5346 153.227 17.3738C152.26 17.9477 151.012 17.6356 150.438 16.669C150.418 16.6287 150.388 16.5885 150.367 16.5482C149.622 15.6823 146.501 12.6921 145.978 12.2592C142.263 9.46021 138.135 8.41312 134.963 9.48035C131.923 10.5073 128.812 13.3767 129.204 17.2429C129.456 19.7398 130.966 22.2166 133.352 24.0288C135.748 25.8411 138.668 26.6667 141.155 26.2338C141.477 26.1733 141.799 26.2036 142.112 26.2942C143.038 26.5861 144.347 27.4822 145.001 29.073C145.786 30.9759 145.484 33.3821 144.125 36.2113C144.467 36.9463 145.444 38.2753 148.142 38.6981ZM157.073 33.3922C157.073 33.3922 157.012 33.3922 157.043 33.3922C157.043 33.3922 157.063 33.3922 157.083 33.3922H157.073Z" fill="#595757"/>
<path d="M206.85 150.827L202.853 138.031L208.572 101.473C208.572 101.473 208.602 45.2727 146.492 37.5203C114.052 33.4729 95.3959 41.1146 82.1764 58.2506L77.5551 64.2109C77.5551 64.2109 70.3061 57.868 65.9868 56.3477C65.9868 56.3477 67.7689 39.9064 54.2977 47.8301C54.2977 47.8301 43.3637 41.3059 37.7255 53.0554C32.1276 64.7244 52.8579 105.239 65.9264 113.001C66.1076 129.372 74.1823 184.787 144.307 195.661C144.307 195.661 214.593 210.38 246.307 160.865C246.307 160.865 262.91 174.336 282.2 160.805C282.2 160.805 283.64 143.206 247.757 142.602L245.442 132.322L238.716 122.254L228.004 115.76C228.004 115.76 211.854 131.094 230.128 148.914C230.128 148.914 220.906 156.898 206.83 150.827H206.85Z" fill="#C8D0E1"/>
<path d="M67.8184 125.908C67.8184 125.908 75.0171 77.2087 125.73 86.4311C174.148 95.2307 172.104 125.566 180.26 164.127C180.26 164.127 184.871 184.837 204.161 191.754C204.161 191.754 163.728 207.45 110.507 185.421C110.507 185.421 71.161 164.399 67.8284 125.918L67.8184 125.908Z" fill="white"/>
<path d="M154.516 199.265C149.069 198.701 145.586 197.997 144.992 197.876C116.418 193.607 94.7516 181.424 80.5656 161.651C62.02 135.796 62.4127 105.4 64.1343 95.8653C66.2789 83.9546 80.3743 25.0761 146.975 35.6376C178.559 40.6515 201.585 59.0259 208.552 84.8004C211.915 97.2446 209.831 108.591 207.616 120.603C207.364 121.952 207.122 123.311 206.871 124.67C203.508 143.598 207.324 149.186 211.119 150.535C218.036 152.992 223.976 149.921 226.715 148.049C210.797 129.906 225.96 113.887 226.121 113.716C226.715 113.102 227.621 112.931 228.406 113.273C240.438 118.649 245.442 126.452 247.526 132.06C248.865 135.665 249.197 138.846 249.237 140.89C262.668 140.427 272.666 143.115 278.979 148.884C284.999 154.391 285.271 160.684 285.281 160.946C285.301 161.63 284.979 162.285 284.415 162.678C267.813 174.316 252.197 166.755 246.962 163.533C233.712 183.539 212.116 195.822 184.358 199.104C172.397 200.524 161.725 200.02 154.506 199.265H154.516ZM140.813 38.9198C117.697 36.5236 99.2722 42.937 85.9923 58.0392C73.6085 72.1145 69.3899 89.6834 68.1415 96.5801C66.5104 105.641 66.148 134.567 83.878 159.274C97.3995 178.132 118.19 189.761 145.656 193.859C145.696 193.859 145.747 193.869 145.787 193.879C146.472 194.03 214.502 207.944 244.666 159.607C244.968 159.113 245.472 158.781 246.046 158.68C246.62 158.58 247.204 158.731 247.657 159.083C248.311 159.597 263.725 171.346 281.093 160.02C280.761 158.348 279.673 154.945 276.17 151.784C270.421 146.609 260.433 144.273 247.274 145.038C246.67 145.078 246.076 144.837 245.663 144.384C245.25 143.941 245.059 143.327 245.14 142.722C245.22 142.068 246.992 126.754 228.155 117.602C225.336 121.207 217.905 133.248 231.195 146.84C231.578 147.233 231.789 147.757 231.779 148.31C231.769 148.854 231.538 149.378 231.135 149.75C230.752 150.112 221.58 158.54 209.79 154.341C202.118 151.613 199.803 141.383 202.904 123.935C203.145 122.566 203.397 121.197 203.649 119.848C205.773 108.299 207.777 97.3956 204.656 85.8475C198.121 61.6637 176.324 44.3868 146.371 39.6346C144.498 39.3326 142.656 39.0909 140.844 38.9097L140.813 38.9198Z" fill="#595757"/>
<path d="M48.5275 66.3855C47.6113 66.2949 46.8462 65.57 46.7253 64.6135C46.5844 63.4959 47.3697 62.479 48.4873 62.3381C52.8871 61.7843 53.6019 56.1764 53.6321 55.9347C53.763 54.8272 54.7597 54.0319 55.8572 54.1426H55.8773C56.9949 54.2735 57.7902 55.2702 57.6694 56.3878C57.3271 59.5089 55.0718 65.6102 48.9907 66.3754C48.8296 66.3956 48.6786 66.3956 48.5275 66.3754V66.3855Z" fill="#595757"/>
<path d="M139.222 82.666C136.363 82.374 133.04 81.8706 129.194 81.1658C118.935 79.2931 113.236 76.3331 111.756 72.1347C110.789 69.3861 112.028 66.9395 112.914 65.9226C113.649 65.0769 114.938 64.9863 115.783 65.7213C116.629 66.4562 116.72 67.7248 116.005 68.5705C115.944 68.6511 115.169 69.6478 115.612 70.8359C116.055 72.034 118.341 75.0544 129.929 77.1788C145.706 80.0684 149.622 78.7494 150.549 77.7124C150.679 77.5614 151.082 77.1184 150.579 75.4269C150.257 74.3497 150.871 73.222 151.938 72.8898C153.015 72.5676 154.143 73.1717 154.465 74.249C155.24 76.8164 154.938 78.8904 153.569 80.4208C151.475 82.7566 147.115 83.4915 139.222 82.676V82.666Z" fill="#595757"/>
<path d="M163.477 63.9287C162.178 63.6669 160.9 64.1502 159.893 65.0664C161.433 65.3886 162.4 67.1102 162.037 68.9326C161.675 70.7549 160.124 71.9731 158.584 71.6812C159.168 72.9095 160.155 73.8458 161.463 74.1076C163.86 74.5808 166.246 72.688 166.81 69.879C167.373 67.07 165.883 64.4019 163.487 63.9287H163.477Z" fill="#595757"/>
<path d="M107.94 53.5385C106.641 53.2768 105.363 53.76 104.356 54.6762C105.896 54.9984 106.863 56.7201 106.5 58.5424C106.138 60.3648 104.587 61.583 103.047 61.291C103.631 62.5193 104.618 63.4557 105.926 63.7175C108.323 64.1907 110.709 62.2978 111.273 59.4888C111.836 56.6798 110.346 54.0118 107.95 53.5385H107.94Z" fill="#595757"/>
<path d="M103.161 67.6476C103.474 66.0715 100.815 64.2138 97.2216 63.4983C93.6278 62.7828 90.4601 63.4804 90.1463 65.0565C89.8325 66.6325 92.4915 68.4902 96.0853 69.2057C99.6792 69.9212 102.847 69.2236 103.161 67.6476Z" fill="#B3292C"/>
<path d="M176.889 81.1488C177.203 79.5727 174.544 77.7151 170.95 76.9995C167.356 76.284 164.189 76.9816 163.875 78.5577C163.561 80.1337 166.22 81.9914 169.814 82.7069C173.408 83.4224 176.575 82.7248 176.889 81.1488Z" fill="#B3292C"/>
<path d="M103.178 168.084C102.756 168.044 102.343 167.842 102.041 167.49C81.6024 143.81 83.4952 112.175 83.5859 110.846C83.6563 109.89 84.4819 109.165 85.4384 109.225C86.3647 109.276 87.1198 110.122 87.0594 111.078C87.0392 111.39 85.1968 142.642 104.679 165.214C105.303 165.939 105.222 167.037 104.497 167.671C104.125 167.993 103.642 168.134 103.178 168.084Z" fill="#DBDCDC"/>
<path d="M125.791 177.91C125.318 177.86 124.875 177.618 124.573 177.216C97.0264 139.853 107.96 100.738 108.081 100.355C108.353 99.4393 109.31 98.9056 110.236 99.1674C111.162 99.4393 111.686 100.396 111.424 101.322C111.313 101.695 100.882 139.219 127.382 175.152C127.956 175.927 127.785 177.014 127.009 177.578C126.647 177.85 126.214 177.951 125.801 177.91H125.791Z" fill="#DBDCDC"/>
<path d="M147.951 181.444C147.478 181.394 147.035 181.152 146.733 180.75C136.282 166.554 133.362 146.77 132.748 132.664C132.094 117.481 133.836 105.782 133.916 105.289C134.057 104.343 134.923 103.678 135.9 103.829C136.846 103.97 137.5 104.856 137.36 105.812C137.289 106.276 130.473 152.79 149.542 178.686C150.116 179.461 149.945 180.548 149.169 181.112C148.807 181.384 148.374 181.485 147.961 181.444H147.951Z" fill="#DBDCDC"/>
<path d="M166.981 178.635C166.457 178.585 165.964 178.293 165.672 177.81C150.962 153.566 154.567 123.492 154.728 122.224C154.849 121.287 155.694 120.613 156.631 120.713C156.641 120.713 156.661 120.713 156.671 120.713C157.628 120.834 158.302 121.7 158.181 122.656C158.141 122.959 154.577 152.811 168.652 175.998C169.146 176.823 168.884 177.89 168.068 178.384C167.736 178.585 167.353 178.666 166.991 178.625L166.981 178.635Z" fill="#DBDCDC"/>
<path d="M64.9492 116.455C64.4458 116.404 63.9524 116.163 63.6 115.74C49.263 98.6139 40.1815 83.3909 36.6073 70.4835C32.7714 56.6398 36.6476 50.1257 38.48 47.961C43.8564 41.6584 52.364 44.5177 55.2737 45.7662C60.1165 43.2995 63.8518 42.9974 66.399 44.8903C69.8121 47.4174 69.5906 52.8542 69.2483 55.5222C75.3597 59.2273 79.6688 62.6807 79.8601 62.8317C80.7361 63.5365 80.877 64.8151 80.1722 65.6911C79.4675 66.567 78.1888 66.7079 77.3129 66.0032C77.2625 65.9629 72.46 62.1169 65.9862 58.3111C65.2311 57.8681 64.8485 56.9922 65.0297 56.1364C65.4526 54.1026 65.7546 49.4813 63.9726 48.1523C62.7141 47.2261 59.9252 47.8302 56.3208 49.8136C55.7268 50.1458 55.0018 50.1559 54.3978 49.8337C54.3172 49.7934 45.9002 45.5245 41.581 50.5888C40.4735 51.8876 37.1208 57.0828 40.5238 69.3861C43.8967 81.5585 52.9479 96.6808 66.7111 113.122C67.436 113.978 67.3152 115.267 66.4594 115.981C66.0164 116.344 65.4727 116.495 64.9492 116.445V116.455Z" fill="#595757"/>
<path d="M225.658 135.101L240.096 122.516L248.916 102.49L246.65 94.1938L237.025 93.3279L230.078 97.335L222.467 97.8083L213.919 97.0431L203.982 94.8986L195.081 92.5627L187.047 139.672L209.469 141.464L225.658 135.101Z" fill="#C8D0E1"/>
<path d="M194.606 142.773C193.509 142.662 192.703 141.685 192.794 140.588C192.885 139.47 193.871 138.635 194.989 138.725C208.601 139.833 222.364 135.282 232.744 126.231C241.312 118.76 250.766 104.232 244.947 95.3113C244.927 95.2811 244.907 95.2509 244.887 95.2207C244.887 95.2207 243.89 93.5997 242.35 93.3984C240.92 93.2071 239.4 94.3448 238.373 95.3314C231.305 102.148 214.793 102.792 203.043 96.7208C202.047 96.2074 201.654 94.979 202.168 93.9823C202.681 92.9856 203.909 92.5929 204.906 93.1064C216.051 98.8654 230.278 97.476 235.554 92.4016C238 90.0457 240.487 89.0187 242.933 89.3711C246.246 89.8342 248.048 92.603 248.37 93.1265C255.056 103.446 246.689 119.455 235.413 129.291C224.217 139.057 209.356 143.971 194.657 142.773C194.647 142.773 194.626 142.773 194.606 142.773Z" fill="#595757"/>
</g>
<path d="M8.29454 52.8327C13.1729 58.9547 28.0404 58.3727 38.5051 49.8332C48.9588 41.2938 51.0606 28.0089 46.1712 21.8981C41.2928 15.7761 28.8479 17.7459 18.3942 26.2966C7.92949 34.8248 3.40509 46.7107 8.29454 52.8327Z" fill="#FDF4D8"/>
<path d="M46.8569 21.9541L54.4787 31.2434C57.6535 35.2165 54.0583 46.6211 43.6046 55.1718C33.151 63.7112 19.7769 66.1623 16.6021 62.1891L8.58203 54.3548" fill="#FDF4D8"/>
<path d="M49.0279 22.0434C49.4482 22.2449 49.3044 22.95 49.6805 23.2633C50.0566 23.5767 50.3221 23.9796 50.6097 24.3713C50.7536 24.5616 50.9637 24.6847 51.2403 24.763C51.5058 24.8414 51.3952 25.2667 51.8819 25.1436C51.9261 25.1324 51.9261 25.1883 51.9483 25.2107C52.3133 25.6584 52.8443 25.9942 53.0102 26.5873C53.2093 27.27 53.7735 27.6506 54.0943 28.2214C54.6364 28.4564 55.0014 28.8481 55.3222 29.2734L55.7868 29.9225L55.9085 30.0904L56.0634 30.3366L56.3842 30.8179C56.6939 31.2096 56.9262 31.6125 56.7713 32.1497C56.6497 32.5862 57.2249 32.8996 56.8045 33.3585C56.7713 33.392 56.893 33.448 56.9151 33.4928C56.9926 33.6159 57.1364 33.7278 57.1143 33.8621C56.9151 34.612 56.882 34.5784 57.1474 35.1716C57.1806 35.2387 56.9815 35.3282 56.9705 35.4066C56.9373 35.72 56.8709 36.0333 56.893 36.3467C56.9041 36.6377 56.6165 36.8951 57.0258 37.2197C57.1143 37.2868 57.0036 37.3988 56.9926 37.4883C56.9373 37.7793 56.8598 38.0591 56.8377 38.3501C56.8266 38.697 56.528 38.9544 56.8156 39.3685C56.9373 39.5476 56.4505 39.6259 56.5169 39.7267C56.6497 39.9281 56.6497 40.0848 56.5722 40.2191C56.5058 40.3534 56.2846 40.4318 56.2293 40.5661C56.185 40.6892 56.3399 40.8683 56.3067 41.0026C56.2293 41.3159 55.9306 41.5733 56.0302 41.9315C56.1408 42.3232 55.9527 42.5694 55.8532 42.8604C55.7426 43.1626 55.5545 43.4312 55.4771 43.7558C55.4107 44.002 55.1452 44.1251 54.935 44.2706C54.7359 44.4273 54.8908 44.8078 54.393 44.763C54.3709 44.763 54.3819 44.7966 54.3709 44.8078C54.0722 45.1883 53.7514 45.5465 53.4748 45.927C53.0102 46.5873 52.6452 47.326 52.1474 47.9639C52.0146 48.143 51.9925 48.434 51.5721 48.3892C51.4837 48.3892 51.5168 48.5235 51.4394 48.5459C51.1407 48.6019 51.6164 49.1839 51.2292 49.1503C50.8752 49.1167 50.8863 49.3741 50.7314 49.5084C50.5655 49.6651 50.4659 49.8554 50.3 50.0233C50.1894 50.1352 50.1562 50.2807 50.2336 50.5157C49.7912 50.3702 49.8686 50.7395 49.592 50.7619C49.404 50.7731 49.1717 50.8291 49.227 50.997C49.3265 51.3663 49.0721 51.4223 48.9615 51.6013C48.7956 51.8699 48.4858 52.0042 48.5079 52.4519C48.5079 52.6422 48.342 52.7205 48.2093 52.7989C48.0765 52.866 47.8663 52.8436 47.7447 52.9332C47.5345 53.0899 47.3686 53.2801 47.3354 53.6271C47.3132 53.9293 46.8376 53.8285 46.9924 54.3322C47.0146 54.3993 46.9482 54.4329 46.8818 54.4441C46.5721 54.4777 46.3508 54.556 46.3066 54.9253C46.2734 55.2275 45.9526 55.2947 45.7535 55.4625C45.5433 55.6416 45.3884 55.899 45.1119 55.9774C44.9349 56.0333 45.2557 56.5594 44.8575 56.3915C44.6473 56.3019 44.5477 56.5258 44.4039 56.6153C44.2601 56.7048 44.1716 56.8951 43.9946 56.9175C43.0211 57.0518 42.5787 57.8912 41.7822 58.2493C41.4503 58.406 41.3397 58.9209 40.7534 58.6522C40.7534 59.1335 40.3109 59.0104 40.2556 59.3797C40.2114 59.6036 40.0897 59.6707 39.968 59.7379C39.1826 60.2527 38.3419 60.6892 37.5343 61.1704C37.0034 61.495 36.5166 61.8979 35.9746 62.2225C35.8197 62.312 35.687 62.4239 35.4104 62.2784C35.2113 62.1665 34.979 62.2672 34.9347 62.6366C34.9347 62.7037 34.8794 62.7821 34.8352 62.7597C34.2821 62.3568 34.2046 63.0731 33.8949 63.2298C33.2865 63.5431 32.5343 63.4424 31.9148 63.711C31.782 63.767 31.5608 63.655 31.594 64.0691C31.3838 63.7893 31.3506 63.9684 31.2732 64.1587C31.1847 64.3489 30.9745 64.4497 30.7975 64.3042C30.5542 64.1139 30.4435 64.2482 30.2776 64.2706C30.1006 64.293 29.9568 64.3825 29.7798 64.4161C29.0608 64.5504 28.3417 64.6623 27.6116 64.7295C27.4678 64.7295 27.3019 64.6287 27.147 64.584C26.9922 64.5504 26.8815 64.763 26.6824 64.4609C26.605 64.3489 26.4833 64.4609 26.3837 64.4832C26.0298 64.5392 25.6205 64.4161 25.3439 64.7183C25.0674 65.0317 24.6912 64.7519 24.4479 65.2555C24.3815 65.401 24.2045 65.2779 24.0939 65.3226C23.6072 65.4793 23.0872 65.1212 22.6116 65.6584C22.4235 65.3338 22.2133 65.4122 22.0142 65.4234C21.8593 65.4346 21.6934 65.2443 21.5607 65.6248C21.5496 65.6696 21.4943 65.6696 21.4611 65.6472C21.2841 65.5577 21.1292 65.3003 20.9191 65.3562C20.7421 65.401 20.5872 65.6248 20.3881 65.5913C19.6801 65.4905 19.0938 64.9309 18.3637 64.8862C18.2642 64.528 18.0429 64.5056 17.8327 64.4161C17.4787 64.237 16.9478 64.3937 16.6159 64.0468C16.2951 63.7222 16.0296 63.3529 15.5982 63.1514L15.4876 63.0954L15.6093 63.2298C15.0561 63.0731 14.8238 62.5806 14.4145 62.2784C14.3039 62.2001 14.1048 62.1777 14.2597 61.8419C14.2929 61.7636 14.1601 61.6853 14.0606 61.73C13.8393 61.8308 13.8614 61.6629 13.7508 61.6629C13.419 61.6629 13.8836 60.8347 13.242 61.1592L12.6778 60.5996C12.4897 60.4094 12.2906 60.2415 12.1136 60.04C12.0362 59.9505 11.8924 59.9169 11.9698 59.6595C12.0251 59.4804 11.8924 59.3238 11.7375 59.3685C11.3503 59.4804 11.3061 59.2342 11.1512 59.0999C10.6977 58.6858 10.2552 58.2717 9.83484 57.8129C9.65784 57.6114 9.55828 57.3204 9.42554 57.0854C9.29279 56.8392 8.91668 56.8168 8.94987 56.4027C8.94987 56.3691 8.92774 56.3579 8.89456 56.3579C8.78394 56.3243 8.62907 56.3243 8.5627 56.2348C8.48526 56.1229 8.5627 55.7759 8.41889 55.8207C8.13127 55.899 8.25296 55.6192 8.18658 55.5185C7.99853 55.2275 8.31933 54.5896 8.90562 54.03C9.03837 53.9069 9.2043 53.7949 9.32598 53.7278C10.1556 53.3025 10.1225 53.3361 10.5096 53.6383C10.9964 54.03 11.0738 54.8134 11.649 55.1156C11.6269 55.7312 12.1358 55.8095 12.3681 56.1676C12.6114 56.537 12.6667 57.119 13.1535 57.2197C13.6402 57.3204 13.8946 57.6562 14.1822 57.9472C14.4035 58.171 14.503 58.5179 14.7132 58.7754C14.9234 59.0328 15.2442 59.1895 15.388 59.5028C15.4765 59.6931 15.4323 60.0512 15.6867 60.0624C16.2509 60.0736 16.3283 60.6108 16.7487 60.7563C17.0584 60.8571 17.2796 61.0473 17.5009 61.2488L17.6115 61.3719C17.7332 61.4838 17.8438 61.6181 18.0429 61.6517C18.2531 61.6965 18.4633 61.7076 18.6513 61.8084C18.7398 61.8531 18.8173 61.8867 18.8504 62.0882C18.8947 62.2896 19.0606 62.368 19.2819 62.1665C19.3704 62.077 19.4921 62.0322 19.5142 62.1329C19.6248 62.5694 19.9235 62.4575 20.1558 62.5023C20.3106 62.5247 20.4323 62.894 20.554 62.7597C20.7421 62.5359 20.8748 62.659 21.0297 62.6366C21.1403 62.6254 21.262 62.5135 21.3505 62.8492C21.3726 62.9388 21.4832 62.9723 21.5164 62.894C21.7155 62.4687 21.9257 62.6925 22.1248 62.6813C22.6116 62.6478 23.0983 62.6254 23.585 62.6142C23.9943 62.5918 24.3262 62.1106 24.7576 62.2225C24.9457 61.7636 25.2443 61.9091 25.4988 61.8643C25.6979 61.8308 25.9191 61.9427 26.1404 61.9874C26.3616 62.021 26.5386 61.9091 26.793 62.0434C27.1028 62.2225 27.3793 61.9315 27.678 61.8979C27.8439 61.8755 27.9546 61.6069 28.1979 61.9539C28.2311 61.9986 28.2975 61.9763 28.3196 61.9091C28.4192 61.439 28.7068 61.4838 28.928 61.5845C29.3041 61.7524 29.5586 61.5398 29.8683 61.495C30.1227 61.4502 30.344 61.3047 30.5984 61.26C30.7754 61.2264 30.9192 61.0809 31.1626 61.1816C31.3506 61.26 31.4502 60.969 31.6051 60.8794C31.7599 60.7899 31.9369 60.7451 32.0918 60.678L32.6228 60.4541L33.1537 60.2303C33.3418 60.1408 33.5188 60.0289 33.729 59.9841C33.9281 59.9393 34.1715 60.0177 34.3595 59.9505C34.8905 59.7602 35.1671 59.0999 35.7312 58.9992C35.7312 58.6634 35.9525 58.7865 36.1184 58.7642C36.2733 58.7418 36.4834 58.7754 36.4613 58.4284C36.4613 58.3277 36.5277 58.3165 36.5719 58.2605C36.6604 58.1486 36.9149 58.3613 36.937 58.0926C36.9591 57.9024 37.1804 57.9472 37.291 57.8464C37.4016 57.7457 37.656 57.8464 37.5786 57.4435C38.0985 57.8129 37.8551 56.9063 38.2202 57.007C38.3308 57.0406 38.4304 57.007 38.5299 57.007C38.5852 57.007 38.6627 57.0406 38.6848 57.007C38.9945 56.19 39.8131 56.1564 40.2999 55.6192C40.3552 55.5521 40.3662 55.4178 40.3994 55.3171C40.4216 55.2723 40.4437 55.2387 40.499 55.2275C40.9304 55.1716 40.9304 55.1604 41.0853 54.7798C41.1295 54.6791 41.2291 54.6567 41.2955 54.5896C41.4503 54.3993 41.6937 54.3322 41.749 53.9852C41.7933 53.6383 42.2689 53.8173 42.5897 53.7949C42.8663 53.7726 43.165 53.7726 43.3419 53.5935C43.7844 53.1346 44.3043 52.7541 44.769 52.3176C44.8243 52.2617 44.9681 52.2505 44.9238 52.1385C44.769 51.7021 44.6805 51.3775 45.2999 51.7804C45.3331 51.8028 45.3774 51.7468 45.3552 51.7132C45.1561 51.2768 45.4548 51.2991 45.5876 51.176C46.1185 50.7507 46.1849 49.9002 46.7712 49.5308C46.8708 49.4749 46.8818 49.2846 47.0256 49.3406C47.3464 49.4525 47.0256 49.0608 47.1805 49.0496C47.3132 49.0384 47.2801 48.8145 47.4239 48.8369C47.9548 48.9041 48.0655 48.5459 48.1208 48.2326C48.1761 47.9416 48.2203 47.6282 48.4858 47.5387C49.0279 47.3708 49.1717 46.9007 49.4593 46.5426C49.7469 46.1732 50.0456 45.7927 50.2558 45.3674C50.3443 45.1995 50.6097 45.1212 50.3664 44.7519C50.3111 44.6735 50.3996 44.6287 50.4549 44.5952C50.5876 44.5056 50.7978 44.4721 50.8752 44.3489C50.9527 44.2258 50.8863 44.0244 50.9084 43.8677C50.9195 43.7446 51.019 43.6662 50.8863 43.4536C50.7867 43.2969 50.9748 43.2298 51.2292 43.2074C51.727 43.1738 52.2469 43.1178 52.3465 42.7597C52.435 42.4463 52.612 42.1777 52.7226 41.8867C52.7669 41.7636 52.8554 41.6629 52.7226 41.4502C52.612 41.26 52.7669 41.1033 52.9549 41.0137C53.2315 40.8683 53.3421 40.6668 53.1983 40.3534C53.154 40.2527 53.1872 40.152 53.2093 40.0736C53.4085 39.5588 53.5633 39.044 53.7071 38.5179C53.7403 38.3948 53.7071 38.2381 54.0279 38.2158C53.7071 38.0479 53.862 37.9472 53.9063 37.8352C53.9726 37.6785 54.1607 37.5442 54.216 37.3764C54.2934 37.1861 54.2934 36.9735 54.1275 36.7384C53.9726 36.5258 54.2934 36.3467 54.0279 36.1229C53.9726 36.0781 54.1828 36.0221 54.1717 35.9662C54.1164 35.7423 54.4704 35.5073 53.9948 35.2947C53.9505 35.2723 53.9505 35.2275 53.9948 35.2163C54.4704 34.9701 54.0943 34.7127 53.9616 34.5C53.8288 34.2538 54.1496 33.9964 54.1054 33.739C54.0611 33.4368 53.8288 33.2465 53.9173 32.9444C53.9616 32.8101 53.9726 32.6869 53.9616 32.5638C53.9394 32.4519 53.8841 32.3736 53.8399 32.284C53.7182 32.105 53.6408 31.9595 53.4416 31.7132C53.1098 31.2432 52.7337 30.7955 52.3354 30.3702C52.1584 30.1799 51.8708 30.1016 51.6828 29.9337C51.4726 29.7435 51.3177 29.5084 51.1407 29.2846C50.9748 29.0831 50.7978 28.8817 50.6429 28.669C50.5766 28.5683 50.3774 28.5571 50.5434 28.2773C50.5766 28.2214 50.5434 28.143 50.4881 28.1542C50.0898 28.1878 49.9681 28.0087 50.0456 27.6394C50.0677 27.5386 49.946 27.5051 49.935 27.4267C49.8907 27.1805 49.5478 27.2253 49.3597 27.1245C49.1827 27.035 49.2823 26.6769 48.8287 26.8447C48.7624 26.8671 48.7071 26.8 48.7403 26.7328C49.0942 25.9494 47.8442 26.4418 48.154 25.7032C47.7225 25.8711 48.0102 25.4346 47.8885 25.3786C47.7115 25.3115 47.5124 25.2555 47.4128 25.1212C47.3132 24.9869 47.2247 24.8526 47.092 24.7407C46.8597 24.5392 46.8154 24.1811 46.3508 24.1699C46.196 24.1699 46.019 24.0691 46.207 23.7558C46.2402 23.6998 46.196 23.655 46.1517 23.6327C45.842 23.4648 45.8752 22.9052 46.3066 22.4351C46.561 22.1553 46.915 21.8643 47.2358 21.6517C47.3907 21.5398 47.5787 21.5733 47.7447 21.5622C48.0323 21.5286 48.3863 21.4279 48.5633 21.5062C48.7845 21.5845 48.8509 21.8196 49.0279 22.021V22.0434Z" fill="#9C7625"/>
<path d="M10.9072 53.0451C11.416 53.2242 11.6926 53.9628 12.3231 54.1979C12.9537 54.3881 13.5731 54.6567 14.2147 54.8806C14.5466 54.9701 14.8895 54.9589 15.2435 54.8806C15.5754 54.8134 15.8851 55.2163 16.2612 54.8022C16.2944 54.7687 16.3497 54.8022 16.394 54.8134C17.2015 54.9589 18.0422 54.791 18.8387 55.0597C19.3033 55.2387 19.779 55.2051 20.2546 55.2051L21.6706 55.1492C22.4117 54.7799 23.164 54.6903 23.9273 54.5336C24.6905 54.4105 25.4649 54.3322 26.206 54.0636C26.6707 53.8957 27.1131 53.7054 27.6773 53.8397C28.1751 53.9628 28.4959 53.3137 29.0933 53.6271C29.1375 53.6495 29.1928 53.5264 29.2481 53.4816C29.3809 53.3809 29.4915 53.2018 29.6464 53.1794C30.5756 53.0675 30.5756 53.0675 31.1729 52.5415C31.2393 52.4743 31.4274 52.6198 31.5269 52.5862C31.9141 52.4407 32.2902 52.2505 32.6442 52.0154C32.9539 51.8028 33.4407 51.8588 33.5292 51.2992C33.5513 51.176 33.7283 51.1649 33.8278 51.0977C34.1597 50.8851 34.5026 50.706 34.8124 50.4598C35.1663 50.18 35.6752 50.1352 35.7969 49.5308C35.8522 49.2734 36.3279 49.4861 36.3611 49.3406C36.4274 49.072 36.5491 48.9153 36.7372 48.8257C36.9142 48.7362 37.1907 48.7586 37.3456 48.6467C37.4894 48.5459 37.4894 48.2661 37.6111 48.143C37.9098 47.8297 38.3854 47.6618 38.5403 47.2365C38.7173 46.7888 39.0491 46.565 39.3036 46.2292C39.5801 45.8934 39.9231 45.6248 40.1775 45.2779C40.3877 45.0205 40.7195 44.9086 40.9961 44.7295C41.2726 44.5504 41.2505 44.0692 41.7925 44.1475C41.8147 44.1475 41.8257 44.1139 41.8368 44.0915C42.3346 43.6439 42.7881 43.1514 43.1974 42.6142C43.5514 42.1553 43.8501 41.6629 44.1267 41.1481C44.4032 40.6444 44.7129 40.152 44.9452 39.626C45.0891 39.335 45.0891 38.9544 45.5647 38.8425C45.6643 38.8201 45.62 38.6411 45.7085 38.5851C46.0515 38.3725 45.443 37.8576 45.8745 37.701C46.2506 37.5555 46.1953 37.2197 46.3169 36.9623C46.4718 36.6713 46.5271 36.3579 46.6267 36.0557C46.7041 35.8431 46.6931 35.6304 46.5493 35.4066C47.036 35.2835 46.8479 34.8806 47.1134 34.6456C47.2794 34.4889 47.4563 34.2315 47.3457 34.0636C47.0802 33.6942 47.2904 33.4256 47.3125 33.1234C47.3457 32.6758 47.5006 32.2393 47.2462 31.7692C47.1355 31.5678 47.2462 31.3327 47.3015 31.1201C47.3457 30.9186 47.5117 30.7396 47.5338 30.5381C47.567 30.1688 47.5559 29.7882 47.3347 29.4301C47.1134 29.1279 47.4674 28.7138 46.9807 28.4452C46.9143 28.4116 46.9254 28.3109 46.9585 28.2438C47.1355 27.8856 47.1687 27.5611 46.8369 27.2477C46.5603 27.0015 46.682 26.5874 46.5714 26.2628C46.4497 25.9158 46.2616 25.6025 46.2616 25.2219C46.2616 24.9757 45.6422 25.1324 45.8855 24.7519C46.0072 24.5392 45.797 24.3378 45.7196 24.1363C45.6532 23.9125 45.4209 23.8006 45.3988 23.5767C45.3545 23.2857 45.255 23.0171 45.1222 22.7597C44.9563 22.5471 44.7683 22.3456 44.5802 22.1553L44.2926 21.8755L43.9497 21.6517C43.7284 21.495 43.5182 21.3271 43.3191 21.1369C42.9209 20.8683 42.3678 20.9578 42.1465 20.2863C41.6819 20.5549 41.4054 20.096 41.0182 20.2527C40.7859 20.3534 40.6089 20.3199 40.4208 20.2751L39.5138 20.096L38.5735 20.0177C37.954 19.9282 37.2903 19.9953 36.6597 20.0177C36.2394 20.0177 35.808 20.1632 35.3987 20.2415C34.9783 20.3311 34.569 20.4318 34.1486 20.5549C33.9163 20.6221 33.6951 20.7116 33.3854 20.5213C33.153 20.3758 32.7991 20.4206 32.6221 20.8235C32.5889 20.9018 32.5004 20.9802 32.4561 20.9466C31.8256 20.5101 31.5048 21.2376 31.0623 21.3943C30.1884 21.7748 29.1596 21.6965 28.2968 22.1553C28.1087 22.2449 27.8211 22.1777 27.8322 22.603C27.5556 22.368 27.5114 22.5583 27.3897 22.7709C27.268 22.9836 26.9915 23.1626 26.7481 23.0731C26.4273 22.95 26.2614 23.1402 26.0512 23.2186C25.8189 23.3081 25.6198 23.4536 25.3875 23.5431C24.4582 24.002 23.4958 24.4385 22.5777 24.9533C22.4007 25.0541 22.1463 25.0429 21.9361 25.0988C21.7259 25.1548 21.6485 25.4346 21.2945 25.2779C21.1617 25.2219 21.04 25.4122 20.9184 25.5017C20.498 25.8263 19.9228 26.0054 19.7015 26.509C19.4914 27.0015 18.8829 27.0462 18.8719 27.7177C18.8719 27.8968 18.6064 27.9416 18.4958 28.0759C18.0422 28.6243 17.2126 28.7922 17.1019 29.6651C16.7037 29.598 16.5267 29.8554 16.3387 30.068C16.2059 30.2247 15.8962 30.2583 16.04 30.65C16.0621 30.6948 16.0068 30.7508 15.9625 30.7619C15.7302 30.8851 15.4094 30.8851 15.2656 31.1425C15.1439 31.3551 15.1882 31.6573 15.0112 31.8364C14.3585 32.4855 13.4957 32.9556 13.0311 33.7838C12.6329 33.795 12.5112 34.0748 12.3342 34.2986C12.0244 34.7127 12.0576 35.3171 11.6815 35.6864C11.3496 36.0445 10.9957 36.4586 10.9182 36.9511C10.7744 37.8017 10.2766 38.406 9.95582 39.1335C9.86732 39.3238 9.90051 39.5812 9.51334 39.6036C9.42484 39.6036 9.36953 39.8274 9.4359 39.9281C9.59077 40.1408 9.40272 40.2191 9.4359 40.3646C9.5244 40.7787 8.50669 40.7564 9.03767 41.3271L8.67262 42.424C8.52881 42.7821 8.49562 43.1626 8.37394 43.5208C8.32969 43.6886 8.36288 43.8677 8.08633 44.002C7.88721 44.0915 7.80977 44.3713 7.94252 44.5168C8.25226 44.8526 8.0642 45.1212 8.04208 45.401C7.97571 45.8263 8.00889 46.2516 7.99783 46.6657C7.96464 47.091 7.99783 47.5051 8.04208 47.908C8.0642 48.2661 7.95358 48.6467 7.99783 49.016C8.03102 49.3853 8.29651 49.6987 8.16376 50.124C8.1527 50.1576 8.17482 50.18 8.20801 50.2135C8.31863 50.3255 8.4735 50.415 8.51775 50.5493C8.57306 50.7172 8.385 51.0977 8.562 51.1201C8.90492 51.1649 8.72793 51.4111 8.7943 51.5678C8.97129 51.9819 8.61731 52.6646 7.95358 53.1346C7.80977 53.2354 7.62172 53.3025 7.45579 53.3249C6.4602 53.4144 6.4602 53.3585 5.91815 52.6086C5.63054 52.0938 5.49779 51.5118 5.36505 50.9522C5.28761 50.3814 5.2323 49.8218 5 49.2958C5.34293 48.5012 4.93363 47.8073 5.02212 47.0686C5.13275 46.3076 5.48673 45.5913 5.35399 44.875C5.26549 44.5057 5.26549 44.1475 5.29868 43.7894C5.35399 43.4424 5.45355 43.1067 5.54204 42.7709C5.66373 42.2449 5.9624 41.786 6.18364 41.3048C6.40489 40.8123 6.43807 40.2191 6.76994 39.7827C6.96905 39.5029 7.36729 39.3126 7.3341 38.9544C7.23454 38.1598 7.87615 37.701 7.99783 37.0182C8.16376 36.0445 8.83855 35.373 9.15935 34.5001C9.33634 34.0188 9.54652 33.5711 9.83414 33.1682C9.96688 32.9891 10.0886 32.7989 10.3651 32.7093C10.6527 32.6086 10.8629 32.3288 10.8629 31.9371C10.8629 31.7692 10.9293 31.5566 11.0731 31.5342C11.6483 31.4223 11.8253 30.9522 12.1019 30.5829C12.2899 30.3478 12.7767 30.359 12.7767 30.124C12.7877 29.7435 13.0532 29.6204 13.2191 29.3965C13.3298 29.2398 13.4072 28.9936 13.7501 29.0832C13.8386 29.1055 13.9935 28.9824 13.9714 28.8929C13.905 28.3669 14.3254 28.2438 14.5687 27.9863C15.155 27.3708 15.7634 26.7664 16.4382 26.2404C16.9913 25.8039 17.1904 24.9757 17.8763 24.6959C17.9648 24.0916 18.4626 23.9461 18.8276 23.6663C19.1152 23.4536 19.4692 23.3529 19.8122 23.2298C20.1551 23.0955 20.3874 22.8381 20.8077 22.7933C21.3166 22.7373 21.6374 22.2449 22.102 22.0322C22.3454 21.9091 22.4892 21.551 22.9095 21.7748C22.9649 21.8084 23.0644 21.7301 23.0865 21.6629C23.1861 21.1145 23.6396 20.969 23.9936 20.969C24.591 20.969 24.9782 20.6332 25.4428 20.4318C25.8299 20.2639 26.195 20.0289 26.5932 19.9058C26.8808 19.805 27.1242 19.6036 27.4782 19.6484C27.7547 19.6819 27.9539 19.3238 28.2194 19.2007C28.4848 19.0776 28.7725 18.9992 29.0379 18.8985L29.934 18.5739C30.2327 18.4508 30.5424 18.3949 30.8521 18.2941C31.184 18.2046 31.5159 18.0703 31.8588 18.0255C32.1796 17.9696 32.5336 18.0815 32.8544 18.0255C33.3079 17.9584 33.7283 17.7681 34.1597 17.6002C34.6022 17.4547 35.0557 17.3316 35.5203 17.3652C35.7416 17.0406 36.0071 17.2085 36.2726 17.2645C36.527 17.3092 36.8035 17.4323 37.0469 17.119C37.1133 17.0294 37.246 17.0406 37.3456 17.0182C37.5779 16.9623 37.7659 17.2645 38.0425 17.0406C38.2416 16.8951 38.5292 17.0742 38.7837 17.063C39.0491 17.0518 39.3146 17.298 39.5801 16.9287C39.9562 17.5331 40.5315 16.7832 40.9629 17.1302C41.0956 17.2421 41.2394 17.3092 41.3833 17.3876C41.4496 17.4323 41.516 17.5219 41.5934 17.5107C42.2572 17.4659 42.9098 17.6226 43.4961 17.9136C44.0713 18.2606 44.6576 18.5404 45.2218 18.9097C45.3656 18.988 45.5647 18.9992 45.7307 19.0552C45.8081 19.0776 45.8966 19.1223 45.9408 19.1895C46.4165 19.7938 46.3612 19.8274 47.0139 20.1744C47.1798 20.2639 47.2794 20.443 47.4232 20.5549C47.8103 20.8683 47.932 21.3271 48.4298 21.5846C48.9387 21.8644 48.8059 22.5694 48.8391 23.0843C48.8723 23.5543 48.9165 23.9908 49.0493 24.4273C49.4918 25.4905 49.713 26.6209 49.8679 27.7401C49.8789 27.8856 49.8126 28.0871 49.9232 28.1542C50.3767 28.4228 50.6865 28.7138 50.0006 29.072C49.9674 29.0832 49.9785 29.2063 50.0228 29.2287C50.4984 29.4861 50.2551 29.8554 50.244 30.1688C50.2219 31.3551 50.5759 32.575 50.2219 33.739C50.1555 33.9181 50.2219 34.1979 50.0559 34.2874C49.702 34.4665 50.1776 34.6679 50.0228 34.8582C49.9011 35.0037 50.0228 35.3059 49.8789 35.4178C49.2927 35.8095 49.2816 36.3915 49.2816 36.9175C49.3037 37.41 49.2816 37.9136 48.994 38.2494C48.4298 38.9097 48.2749 39.7043 47.8878 40.4094C47.6997 40.7787 47.5227 41.1481 47.3457 41.5174L46.7594 42.603C46.6046 42.9052 46.2616 43.1179 46.4497 43.5991C46.4829 43.6998 46.3723 43.8118 46.2838 43.8789C46.0846 44.058 45.8081 44.1699 45.6753 44.3825C45.5426 44.5952 45.5315 44.8862 45.432 45.1324C45.3545 45.3339 45.2107 45.457 45.255 45.7591C45.2992 45.983 45.0116 46.1173 44.7019 46.1733C44.0603 46.2852 43.4297 46.3859 43.1089 46.9007C42.8324 47.3708 42.3788 47.6842 42.0359 48.0983C41.8921 48.2661 41.7151 48.4004 41.693 48.7138C41.6709 48.9936 41.3722 49.2175 41.0735 49.2958C40.62 49.4189 40.3213 49.6428 40.1775 50.1016C40.1222 50.2583 40.0005 50.3702 39.8899 50.471C39.2151 51.1313 38.4075 51.6349 37.6664 52.2169C37.4783 52.3512 37.3456 52.575 37.0137 52.4184C37.0801 52.7877 36.8146 52.8213 36.6376 52.9108C36.3611 53.0451 36.0292 53.0675 35.7637 53.2018C35.4429 53.3585 35.1774 53.5823 34.9672 53.9405C34.7681 54.265 34.2703 54.1643 34.0933 54.6008C34.0601 54.6791 33.8389 54.5672 33.7615 54.6232C33.4296 54.8806 32.9097 54.8022 32.7769 55.3954C32.7659 55.4402 32.6884 55.4738 32.6331 55.4626C32.0026 55.2051 31.726 55.7312 31.3499 56.0333C30.9406 56.3803 30.3654 56.1677 29.9008 56.3355C29.3809 56.537 28.872 56.8727 28.3078 56.8616C27.3344 56.7832 26.5047 57.2085 25.6087 57.3652C24.6795 57.4883 23.7834 57.7345 22.8542 57.8464C22.456 57.9136 22.0688 58.1262 21.6706 58.2158C21.217 58.3165 20.7524 58.2717 20.2989 58.2941C19.8675 58.2941 19.436 58.3613 19.0046 58.3165C18.8055 58.2941 18.5732 58.4284 18.4073 58.1151C18.3741 58.0479 18.2524 58.0255 18.1971 58.0703C17.8099 58.3837 17.4449 58.3501 17.1019 58.0255C17.0024 57.9248 16.8364 57.9807 16.7148 57.9248C16.3829 57.7569 16.04 58.0031 15.6971 58.0479C15.3763 58.0927 15.0886 57.7457 14.7346 58.1151C14.6904 58.171 14.5355 58.1374 14.5023 58.0591C14.082 57.1525 13.0532 58.2717 12.655 57.3428C12.2678 57.6786 12.1904 57.1078 11.9802 57.0966C11.6704 57.0854 11.3607 57.1078 11.0952 56.9399C10.8408 56.7944 10.5864 56.6489 10.3098 56.537C9.78989 56.3579 9.46909 55.8655 8.81642 55.8207C8.59518 55.8095 8.25226 55.6528 8.29651 55.2499C8.29651 55.1828 8.20801 55.0932 8.14164 55.0597C7.61066 54.7127 7.35623 53.8845 7.76553 53.3921C7.99783 53.0899 8.36288 52.8213 8.69474 52.6086C8.86067 52.5079 9.10404 52.575 9.2921 52.575C9.62396 52.575 10.0001 52.4743 10.2102 52.5527C10.4426 52.6646 10.6527 52.8772 10.9182 53.0899L10.9072 53.0451Z" fill="#9C7625"/>
<path fill-rule="evenodd" clip-rule="evenodd" d="M21.6859 32.4458C21.3689 32.0385 21.051 31.6322 20.7309 31.2282C20.2033 30.5436 20.5997 29.4395 21.2529 29.0273C22.0548 28.5352 22.906 28.8771 23.4333 29.5466C23.6058 29.7649 23.7769 29.9832 23.9471 30.2014C26.1286 28.3174 28.712 26.9193 31.6307 27.097L31.6454 27.0815C32.5048 27.1346 33.2406 27.7073 33.2618 28.633C33.2802 29.4373 32.5776 30.3215 31.7182 30.2684C29.5623 30.1433 27.6885 31.1649 26.0788 32.5438C26.0145 32.599 25.9502 32.6547 25.886 32.7109C26.6464 33.6942 27.4167 34.6769 28.231 35.66C30.83 33.3053 33.9435 30.7161 37.261 32.9912C38.8978 34.117 39.8258 35.8539 39.4055 37.8846C38.9851 39.9153 37.458 41.611 36.0296 43.0155C36.0149 43.0301 36.0001 43.0446 35.9854 43.0591C36.1376 43.1694 36.2908 43.2786 36.4448 43.3868C37.1489 43.8845 37.5149 44.7405 37.0667 45.5573C36.6763 46.2663 35.6167 46.6893 34.9126 46.1916C34.4465 45.8644 33.9845 45.5276 33.528 45.1819C31.0719 47.0213 28.2538 48.3056 25.1318 48.422C23.1011 48.5062 23.0433 45.3189 25.0589 45.2351C27.0746 45.1512 28.9403 44.4336 30.6468 43.3406C30.7612 43.2675 30.876 43.1927 30.9911 43.1162C29.92 42.1784 28.9002 41.195 27.9537 40.1785C27.1945 40.819 26.4195 41.44 25.6178 42.0162C24.0771 43.12 21.7616 44.5785 19.7919 44.0385C17.3831 43.3888 17.3015 40.4754 17.888 38.4706C18.4746 36.4659 19.7155 34.7626 21.0494 33.1784C21.2557 32.9342 21.468 32.6895 21.6859 32.4458ZM23.6297 34.9549C22.8566 35.839 22.1587 36.7883 21.6063 37.7798C21.1431 38.5969 20.7727 39.5178 20.7497 40.4902C20.7501 40.5039 20.7499 40.5252 20.7496 40.5517C20.7487 40.6498 20.7472 40.8199 20.7681 40.947C21.0517 40.8871 21.3596 40.7589 21.6306 40.6462C21.6544 40.6363 21.678 40.6265 21.7012 40.6169C23.2486 39.9757 24.5812 38.8666 25.8609 37.7601C25.1028 36.8376 24.3633 35.8985 23.6297 34.9549ZM30.3538 38.0829C31.3616 39.156 32.4216 40.1722 33.5349 41.126C34.4528 40.2728 35.2721 39.3204 35.8616 38.2975C36.5715 37.0791 36.4213 35.7772 34.8904 35.3319C33.6152 34.9609 32.1509 36.3756 31.1174 37.3742C30.9102 37.5744 30.7203 37.7579 30.5527 37.9069C30.4865 37.9655 30.4201 38.0242 30.3538 38.0829Z" fill="#9C7625"/>
<defs>
<clipPath id="clip0_1371_100705">
<rect width="250.314" height="195" fill="white" transform="translate(34.9766 5)"/>
</clipPath>
</defs>
</svg>
