<svg width="168" height="74" viewBox="0 0 168 74" fill="none" xmlns="http://www.w3.org/2000/svg">
<path d="M23.0789 32.4C23.0789 32.4 18.5589 32 15.6289 33.21C12.6989 34.42 5.62887 37.23 6.58887 44.54C8.29887 57.5 23.0489 54.24 26.6289 54.36C30.2089 54.48 34.4289 61.83 44.2689 62.23C54.1089 62.63 58.8189 59.5 64.7289 60.87C68.3889 61.72 73.8189 67.39 83.6589 68.48C98.2889 70.1 105.449 55.01 113.789 57.25C118.089 58.41 125.169 63.96 135.809 58.3C140.079 56.03 143.849 55.1 150.439 56.68C155.489 57.89 161.699 54.58 162.409 47.78C163.209 40.09 158.419 33.21 148.319 34.83" fill="white"/>
<path d="M19.2204 33.57C18.1704 33.81 16.9804 33.61 15.9204 34.12C14.7504 34.67 13.5904 35.14 12.5004 35.75C11.9604 36.06 11.5004 36.44 11.0904 36.87C10.9104 37.09 10.6504 37.25 10.4104 37.43C10.1904 37.63 9.99041 37.85 9.92041 38.14C9.90041 38.19 9.82041 38.25 9.77041 38.31C8.83041 39.34 8.33041 40.58 7.93041 41.8C7.44041 43.24 7.80041 44.9 8.15041 46.47C8.70041 47.67 9.29041 48.77 10.0804 49.73C10.8504 50.7 11.8504 51.49 13.0304 52.01C13.7704 52.33 14.5504 52.53 15.3304 52.95C16.0104 53.31 16.9604 53.12 17.7004 53.54C17.7604 53.57 17.9304 53.51 18.0404 53.51C18.3204 53.5 18.6204 53.43 18.8804 53.47C20.4604 53.72 20.4704 53.71 21.8104 53.5C21.9704 53.47 22.1704 53.61 22.3604 53.61C23.1104 53.59 23.8604 53.56 24.6204 53.48C25.3304 53.41 26.0004 53.52 26.8304 53.26C27.0204 53.22 27.4404 53.32 27.7104 53.41C28.6004 53.68 29.2804 54.12 29.9404 54.51C30.6904 54.97 31.2804 55.6 32.0904 55.86C32.4404 55.97 32.6604 56.53 32.8604 56.59C33.2404 56.71 33.5404 56.88 33.8304 57.12C34.1104 57.34 34.3304 57.64 34.6304 57.84C34.8904 58.02 35.2304 58.04 35.5004 58.2C35.8304 58.4 36.1604 58.61 36.5004 58.8C36.8304 58.99 37.1704 59.17 37.5204 59.24C38.2604 59.42 38.9004 59.69 39.5804 59.91C40.3004 60.09 41.0004 60.37 41.7504 60.44C42.3204 60.52 42.8104 60.74 43.3604 60.85C43.9004 60.98 44.5204 60.8 45.0404 61.12C45.0604 61.14 45.1204 61.12 45.1704 61.12C46.3604 61.22 47.5504 61.27 48.7504 61.21C50.8204 61.1 52.8604 60.77 54.9304 60.41C55.5204 60.31 56.1204 60.09 56.7204 60.26C56.8404 60.29 57.0804 60.17 57.2504 60.19C57.8604 60.24 58.2504 59.67 58.8604 59.83C59.3904 59.96 59.9304 59.81 60.4604 59.79C61.0704 59.79 61.6804 59.74 62.3004 59.79C62.7204 59.79 63.1104 59.83 63.4804 59.71C63.9104 60.07 64.5904 59.98 65.1204 60.27C65.4804 60.46 65.9604 60.75 66.2404 60.76C66.8804 60.79 67.3504 61.15 67.8504 61.4C68.6104 61.77 69.2704 62.28 70.0804 62.5C70.4204 62.59 70.7904 62.87 71.1204 63.09C71.4304 63.3 71.6804 63.57 71.9904 63.76C72.5804 64.11 73.1704 64.42 73.8504 64.56C74.4304 64.69 74.9504 65.25 75.6104 65.17C75.7004 65.17 75.8604 65.25 75.9604 65.32C76.4904 65.67 76.9904 65.96 77.7104 66.01C78.2904 66.04 78.9304 66.39 79.5604 66.55C80.2304 66.75 80.9304 66.83 81.5704 67.04C81.9804 67.19 82.2604 66.79 82.7204 67.13C82.9704 67.31 83.5204 67.33 83.9304 67.37C84.3504 67.41 84.8004 67.39 85.2004 67.47C87.3304 67.88 89.4904 67.3 91.5404 66.74C92.4304 66.51 93.2104 65.91 94.1604 65.9C94.6304 65.37 95.4504 65.22 95.9104 64.75C96.2004 64.45 96.5004 64.28 96.8104 64.1C98.8704 62.85 100.85 61.43 102.86 59.96C104.19 59 105.51 57.97 107.04 57.12C107.48 56.89 107.9 56.64 108.48 56.61C108.9 56.58 109.58 56.35 110.07 56.02C110.17 55.95 110.38 55.86 110.46 55.88C111.56 56.09 112.61 55.66 113.71 55.88C114.76 56.09 115.6 56.5 116.4 56.89C117.21 57.28 117.98 57.68 118.79 57.98C119.13 58.12 119.49 58.37 119.85 58.21C120.03 58.53 120.27 58.49 120.63 58.49C121 58.49 121.55 58.67 121.81 58.86C122.17 59.13 122.56 59.19 122.94 59.27C123.35 59.36 123.77 59.44 124.19 59.5C125.95 59.8 127.75 59.83 129.52 59.54C129.87 59.51 130.23 59.53 130.58 59.47C130.94 59.42 131.27 59.2 131.67 59.34C131.82 59.4 132.15 59.19 132.39 59.11C132.82 58.95 133.29 58.83 133.72 58.66C134.15 58.47 134.56 58.26 134.89 58C135.53 57.5 136.46 57.24 137.05 56.62C137.22 56.45 137.64 56.36 137.94 56.22C139.15 55.64 140.54 55.53 141.78 54.97C142.3 55.12 142.85 55.01 143.39 54.97C143.79 54.93 144.25 55.05 144.58 54.79C144.62 54.76 144.76 54.76 144.85 54.77C145.33 54.85 145.75 55.03 146.29 55.03C146.73 55.03 147.11 54.9 147.59 54.98C148.46 55.1 149.29 55.34 150.12 55.59C150.55 55.72 150.91 55.82 151.27 55.89C151.63 55.98 152.02 55.96 152.39 55.97C152.8 56.16 153.3 56.13 153.77 56.05C154.62 55.95 155.3 55.47 156.1 55.19C156.87 54.94 157.64 54.5 158.15 53.92C159 52.92 159.9 52 160.41 50.8C160.53 50.49 160.57 50.11 160.92 49.92C161.01 49.88 161.07 49.5 161.03 49.39C160.93 49.14 161.1 48.93 161.09 48.71C161.02 48.12 161.76 47.61 161.3 46.96C161.37 46.29 161.3 45.63 161.28 44.97C161.2 44.31 161.11 43.66 160.95 43.02C160.9 42.71 160.76 42.45 160.8 42.1C160.83 41.87 160.71 41.36 160.5 41.22C160.06 40.87 159.95 40.37 159.66 39.97C158.85 38.73 157.76 37.71 156.47 36.98C156.18 36.84 155.92 36.63 155.62 36.49L154.72 36.06C154.41 35.93 154.05 35.91 153.72 35.83C153.39 35.75 153.05 35.69 152.73 35.55C152.68 35.53 152.61 35.53 152.55 35.53C152.27 35.54 152 35.58 151.73 35.55C151.38 35.54 150.91 35.33 150.71 35.42C150.32 35.6 150.05 35.42 149.74 35.44C148.87 35.48 148.24 35.07 148.25 34.5C148.25 34.37 148.34 34.22 148.46 34.11C148.84 33.75 149.05 33.58 149.33 33.48C149.61 33.38 149.96 33.31 150.68 33.3C152.51 33.18 154.27 33.79 156.03 34.3C157.05 34.98 158.24 35.46 159.18 36.29C160.13 37.19 160.75 38.34 161.52 39.3C162.28 40.28 162.73 41.46 162.98 42.64C163.09 43.09 163.16 43.55 163.17 44.01C163.19 44.47 163.23 44.92 163.21 45.38C163.23 46.33 163.27 47.29 163.07 48.21C163 48.49 162.89 48.78 162.8 49.06C162.7 49.34 162.59 49.61 162.58 49.89C162.5 51.13 161.77 52.21 161.18 53.23C160.37 54.72 158.96 55.78 157.56 56.65C156.78 57.1 155.97 57.54 155.07 57.72C154.67 57.83 154.27 57.9 153.81 57.83C153.35 57.78 152.7 57.78 152.13 57.95C151.89 58.01 151.49 58.03 151.29 57.95C150.89 57.75 150.46 57.63 150.07 57.55C149.7 57.46 149.32 57.41 148.95 57.33C148.48 57.25 148 56.9 147.7 56.97C147.2 57.07 146.78 56.93 146.34 56.92C146.02 56.9 145.66 56.96 145.39 56.72C145.32 56.66 145.01 56.62 144.91 56.67C144.38 56.96 143.78 56.83 143.22 56.88C141.87 57.01 140.55 57.31 139.26 57.75C138.18 58.12 137.34 58.88 136.25 59.32C135.69 59.91 134.87 60.19 134.12 60.5C133.53 60.72 132.91 60.84 132.3 61C131.68 61.11 131.1 61.32 130.43 61.36C129.6 61.33 128.68 61.69 127.77 61.68C127.28 61.7 126.74 61.91 126.3 61.6C126.24 61.56 126.02 61.56 125.93 61.6C125.28 61.91 124.46 61.71 123.91 61.54C123.02 61.22 122.14 61.13 121.28 60.86C120.57 60.65 119.85 60.45 119.17 60.18C118.68 59.98 118.17 59.86 117.72 59.53C117.37 59.29 116.8 59.22 116.33 59.05C115.87 58.88 115.42 58.67 114.97 58.5C114.48 58.3 114 58.14 113.52 58L112.82 57.86C112.58 57.85 112.35 57.81 112.11 57.81C111.59 57.81 111.07 57.88 110.55 57.98C110.06 58.06 109.54 58.1 109.05 58.29C107.66 58.81 106.57 59.87 105.25 60.63C105.03 61.04 104.61 61.14 104.23 61.35C103.88 61.55 103.44 61.75 103.25 62.16C103.19 62.28 103.01 62.39 102.89 62.5C102.6 62.75 102.22 62.76 101.94 63.15C101.75 63.42 101.29 63.61 100.97 63.86C100.64 64.13 100.14 64.27 100 64.7C99.1504 64.78 98.8804 65.69 98.1204 65.93C97.8904 66.01 97.6404 66.11 97.4104 66.21C97.2904 66.26 97.1404 66.28 97.0604 66.35C95.4704 67.67 93.3904 68.27 91.4304 68.95C91.1804 69.03 90.9604 69.16 90.7204 69.26C90.6004 69.31 90.4704 69.35 90.3504 69.37C89.1804 69.45 89.2004 69.47 88.1404 69.75C87.8704 69.82 87.5804 69.83 87.2904 69.85C86.5604 69.95 85.8504 69.88 85.0804 70.04C84.3104 70.17 83.4904 69.81 82.7604 69.56C82.1004 69.35 81.4604 69.12 80.7404 68.97C78.9204 68.62 77.1304 68.07 75.4204 67.36C75.2004 67.28 74.9404 67.09 74.7904 67.1C74.1904 67.16 73.6504 67.16 73.4204 66.47C73.4104 66.44 73.2404 66.35 73.1904 66.36C72.6404 66.45 72.1804 66.04 71.7404 65.79C70.0404 64.85 68.2304 64.13 66.7004 63.14C66.4504 62.97 66.0704 62.87 65.9704 62.71C65.7404 62.34 65.4504 62.61 65.2104 62.43C65.0004 62.26 64.6604 62.31 64.5104 62.16C64.2004 61.92 63.7804 61.79 63.3904 61.72C62.9804 61.69 62.5804 61.67 62.2104 61.72C61.5204 61.79 60.8204 61.92 60.1804 61.87C58.9204 61.76 57.6604 62.06 56.3704 62.27L52.3404 62.94C51.7804 63.02 51.1704 62.97 50.6804 63.31C50.5804 63.38 50.3204 63.37 50.1404 63.37C49.7104 63.37 49.2804 63.3 48.8604 63.32C48.4404 63.34 48.0204 63.49 47.6004 63.55C47.2604 63.59 46.9304 63.56 46.5804 63.72C46.3204 63.84 45.8604 63.75 45.4504 63.59C45.0504 63.43 44.6404 63.27 44.2004 63.16C43.7604 63.02 43.2904 62.91 42.7604 62.89C42.2904 62.89 41.8304 62.77 41.3704 62.7C40.9104 62.62 40.4504 62.52 40.0004 62.39C39.6204 62.29 39.2704 62.19 38.8204 62.19C38.4204 62.19 37.8304 61.92 37.4404 61.66C36.8404 61.22 36.2404 60.96 35.5404 60.76C35.3004 60.7 35.0404 60.56 34.8004 60.43C33.3804 59.62 32.0604 58.67 30.7904 57.73C30.4804 57.5 30.1304 57.31 30.0104 56.96C29.6604 57.01 29.4004 56.73 29.1504 56.53C28.7704 56.24 28.4304 55.87 28.0404 55.65C27.8104 55.5 27.5704 55.39 27.3304 55.34C27.0904 55.25 26.8604 55.29 26.6504 55.32C26.2404 55.41 25.5504 55.24 24.9804 55.48C24.8704 55.53 24.6304 55.4 24.4704 55.42C23.7904 55.52 23.0304 55.34 22.4104 55.71C22.3604 55.74 22.2104 55.75 22.1404 55.72C21.3204 55.41 20.5404 55.68 19.7304 55.76C18.8504 55.85 18.0504 55.5 17.2004 55.42C16.2204 55.32 15.1704 55.23 14.2904 54.84C12.7804 54.19 11.2304 53.61 9.93041 52.55C8.60041 51.48 7.54041 50.08 6.85041 48.54C6.69041 48.21 6.53041 47.88 6.38041 47.55C6.22041 47.22 6.08041 46.88 5.99041 46.52C5.87041 46.13 5.78041 45.73 5.72041 45.33C5.65041 44.93 5.59041 44.53 5.57041 44.11C5.48041 43.33 5.53041 42.53 5.63041 41.74C5.71041 41.38 5.70041 40.94 5.98041 40.67C6.04041 40.62 6.13041 40.41 6.13041 40.31C6.11041 39.58 6.44041 38.96 6.95041 38.47C7.11041 38.34 7.22041 38.08 7.38041 37.9C7.59041 37.65 7.76041 37.41 7.91041 37.16C8.07041 36.91 8.19041 36.64 8.39041 36.42C8.74041 35.98 9.34041 35.75 9.52041 35.21C9.54041 35.13 9.75041 34.96 9.85041 34.96C11.0104 34.77 11.6104 33.4 12.7904 33.37C13.0304 32.9 13.5804 33.05 13.8504 32.87C14.2604 32.62 14.6404 32.36 15.0904 32.19C15.5604 32.01 16.0604 31.85 16.5204 31.71C17.3904 31.45 18.2804 31.46 19.1204 31.14C19.4004 31.03 19.9504 30.94 20.3104 31.17C20.3704 31.21 20.5604 31.2 20.6804 31.19C21.6204 31.07 22.7604 31.4 22.9604 31.86C23.0804 32.13 23.0304 32.45 22.9104 32.71C22.8504 32.84 22.4604 32.9 22.2204 32.99C21.7904 33.14 21.4004 33.37 20.9504 33.45C20.4204 33.54 19.8404 33.5 19.1604 33.56L19.2204 33.57Z" fill="#A6843B"/>
<path d="M153.081 39.29C153.081 39.29 154.621 34.74 152.951 30.41C149.721 22.07 139.501 13.77 128.401 16.31C103.741 21.97 110.311 7.52 98.7406 4.63C86.7906 1.65 82.4706 11.3 76.5606 12.21C69.7606 13.26 60.6506 8.57 53.1306 15.05C45.7806 21.39 48.2906 25 39.9506 25.32C31.6106 25.64 24.2106 25.48 19.6406 37.35" fill="white"/>
<path d="M152.519 36.24C152.459 35.44 152.869 34.59 152.729 33.68C152.579 32.78 152.439 31.89 152.149 31.04C152.029 30.61 151.739 30.22 151.469 29.85C151.209 29.49 151.189 28.93 150.699 28.72C150.659 28.7 150.639 28.61 150.609 28.56C150.359 28.06 150.009 27.61 149.689 27.15C149.389 26.68 149.049 26.23 148.779 25.75C148.159 24.61 147.189 23.77 146.319 22.85C144.559 21.73 143.049 20.31 141.189 19.38C140.599 19.13 139.999 18.89 139.479 18.44C139.009 18.07 138.269 18.13 137.799 17.64C137.759 17.6 137.629 17.64 137.539 17.64C137.329 17.62 137.089 17.65 136.909 17.57C136.369 17.31 136.079 17.21 135.809 17.17C135.539 17.12 135.289 17.13 134.789 17.13C134.669 17.13 134.549 16.97 134.409 16.94C133.869 16.89 133.319 16.84 132.779 16.84C132.299 16.84 131.759 16.71 131.319 17.05C131.219 17.13 131.009 17.08 130.849 17.09C130.339 17.11 129.839 17.23 129.339 17.32C128.789 17.43 128.129 17.43 127.579 17.83C127.339 18 126.889 17.77 126.749 17.87C126.489 18.06 126.219 18.14 125.919 18.17C125.629 18.2 125.329 18.12 125.049 18.17C124.809 18.21 124.589 18.4 124.339 18.45C123.719 18.56 123.039 18.52 122.489 18.74C121.889 18.96 121.289 18.97 120.679 19.05C120.039 19.1 119.399 19.09 118.749 19.13C118.239 19.15 117.799 19.01 117.329 18.91C116.869 18.79 116.309 18.98 115.919 18.61C115.899 18.59 115.849 18.6 115.809 18.59C114.839 18.39 113.889 18.12 112.949 17.76C111.319 17.2 109.779 16.25 108.559 15.02C108.229 14.67 107.789 14.37 107.719 13.85C107.699 13.74 107.509 13.64 107.469 13.52C107.309 13.07 106.679 13.09 106.619 12.59C106.559 12.15 106.239 11.89 106.029 11.56C105.799 11.19 105.519 10.84 105.289 10.48C105.129 10.23 104.929 10.04 104.669 9.93001C104.719 9.48001 104.269 9.25001 104.139 8.87001C104.049 8.63001 103.869 8.26001 103.659 8.21001C103.219 8.08001 103.019 7.74001 102.699 7.51001C102.239 7.17001 101.809 6.75001 101.219 6.66001C100.979 6.61001 100.709 6.44001 100.479 6.29001C100.269 6.14001 100.069 5.96001 99.8294 5.85001C99.3894 5.63001 98.9094 5.54001 98.4094 5.56001C97.9594 5.62001 97.4994 5.24001 97.0294 5.48001C96.9694 5.51001 96.8394 5.48001 96.7494 5.43001C96.3194 5.18001 95.8994 5.13001 95.3794 5.26001C94.9594 5.37001 94.4494 5.21001 93.9694 5.26001C93.4694 5.30001 92.9494 5.32001 92.4694 5.35001C92.1494 5.35001 92.0794 5.80001 91.6694 5.59001C91.4394 5.47001 91.0794 5.63001 90.7894 5.72001C90.4894 5.80001 90.1894 5.95001 89.8894 5.97001C88.2694 6.18001 86.9394 7.23001 85.5294 8.04001C84.9194 8.39001 84.4694 9.03001 83.7094 9.13001C83.4694 9.65001 82.8194 9.84001 82.5494 10.28C82.3694 10.56 82.1294 10.71 81.8994 10.88C81.1294 11.44 80.2894 11.98 79.3894 12.46C78.9294 12.69 78.4294 12.88 77.9394 13.07C77.4194 13.19 76.8594 13.39 76.3694 13.42C75.0394 13.63 73.7394 13.67 72.4594 13.65C72.1094 13.63 71.7594 13.64 71.3894 13.43C71.1194 13.28 70.6194 13.22 70.2194 13.4C70.1394 13.44 69.9894 13.46 69.9394 13.42C69.2794 12.94 68.5494 13.28 67.8694 13.22C66.5494 13.12 65.2894 12.73 64.0094 12.74C63.7394 12.74 63.4094 12.61 63.2094 12.89C62.9994 12.66 62.8394 12.78 62.5894 12.89C62.3294 12.99 61.9094 13.04 61.6694 12.94C61.3394 12.79 61.0594 12.88 60.7594 12.89C60.4394 12.91 60.1394 13.01 59.8294 13.05C59.1594 13.11 58.5394 13.34 57.8894 13.48L56.9594 13.83C56.6394 13.94 56.3394 14.06 56.0494 14.23C55.8194 14.35 55.5494 14.39 55.2894 14.48C55.0294 14.56 54.8694 14.84 54.5394 14.81C54.4094 14.8 54.2294 15.02 54.0794 15.13C53.5194 15.51 52.8794 15.95 52.5394 16.5C52.2194 17.05 51.5994 17.38 51.4494 18.01C51.4194 18.19 51.1494 18.35 51.0194 18.53C50.4694 19.26 49.6794 19.86 49.4494 20.81C49.0694 20.95 48.8794 21.31 48.6694 21.64C48.5194 21.88 48.2194 22.08 48.2994 22.43C48.2994 22.47 48.2494 22.56 48.1994 22.6C47.9294 22.86 47.6194 23.02 47.3794 23.37C47.1994 23.67 47.1094 23.99 46.7994 24.28C46.5494 24.55 46.1994 24.74 45.8894 24.95C45.5594 25.13 45.2094 25.27 44.8694 25.41L43.8394 25.72C43.4994 25.79 43.1694 25.88 42.8294 25.99C42.4194 25.85 42.0194 25.94 41.6094 25.99C40.8994 26.04 40.2194 26.36 39.5094 26.32C38.8294 26.29 38.1094 26.24 37.4894 26.41C36.4094 26.7 35.3394 26.62 34.2794 26.77C34.0094 26.8 33.7194 26.94 33.4494 26.72C33.3794 26.67 33.0894 26.73 33.0194 26.82C32.8694 27.01 32.6594 26.92 32.5094 27.02C32.0894 27.28 31.4894 26.72 31.1494 27.29C30.6694 27.44 30.1594 27.53 29.6994 27.72C29.2294 27.9 28.7594 28.06 28.3094 28.29C28.0994 28.39 27.9194 28.53 27.6194 28.49C27.4194 28.47 27.0894 28.67 26.9994 28.84C26.8094 29.25 26.4294 29.36 26.1394 29.62L25.4794 30.17L24.8694 30.79C24.4394 31.18 24.0894 31.65 23.7194 32.1C23.3694 32.48 23.0394 32.88 22.6994 33.28C22.3494 33.69 22.2294 34.25 21.7994 34.62C21.7694 34.65 21.7494 34.7 21.7394 34.74C21.6694 34.94 21.6394 35.17 21.5394 35.35C21.3894 35.57 21.0594 35.82 21.0794 36C21.1294 36.36 20.8594 36.46 20.7494 36.67C20.4294 37.27 19.8194 37.49 19.3194 37.21C19.2094 37.15 19.1094 37.02 19.0594 36.89C18.7294 36.07 18.7694 36.07 19.1494 35.09C19.6794 33.86 20.5794 32.87 21.2294 31.69C21.5894 31.4 21.8794 31.06 22.1694 30.71C22.4594 30.36 22.6894 29.95 23.0394 29.66C23.3994 29.35 23.7894 29.07 24.1594 28.77C24.5594 28.51 24.9294 28.23 25.2394 27.87C25.8794 27.19 26.6894 26.72 27.5194 26.35C28.1394 26.02 28.8494 25.95 29.4994 25.73C30.1894 25.58 30.8594 25.27 31.5594 25.24C31.9894 25.21 32.4594 25.32 32.8394 25.16C33.6694 24.76 34.5894 24.92 35.4294 24.71C36.5894 24.44 37.7894 24.52 38.9294 24.35C39.5494 24.26 40.1594 24.16 40.7294 24.12C40.9994 24.1 41.2594 24.09 41.5494 24.17C41.8494 24.25 42.2894 24.21 42.5894 23.95C42.7094 23.84 42.9294 23.73 43.0594 23.77C43.6194 23.9 44.0894 23.61 44.4894 23.35C44.7694 23.23 45.1694 23.17 45.2694 22.99C45.3894 22.63 45.6494 22.51 45.8394 22.25C45.9694 22.06 46.0694 21.84 46.3794 21.79C46.4594 21.79 46.6094 21.6 46.6094 21.52C46.6094 21.03 46.9894 20.71 47.2394 20.34C47.8294 19.42 48.5094 18.51 49.2294 17.65C49.5394 17.31 49.7794 16.91 50.0394 16.52C50.3094 16.15 50.5994 15.78 50.9794 15.49C51.1794 14.88 51.7594 14.55 52.2094 14.14C52.5794 13.84 53.0394 13.63 53.4594 13.38C53.8594 13.12 54.2394 12.83 54.7494 12.7C55.0594 12.61 55.3494 12.44 55.6494 12.27C55.9594 12.12 56.2794 11.95 56.5994 11.83C56.9394 11.69 57.2794 11.38 57.6994 11.56C57.7494 11.58 57.9194 11.53 57.9694 11.47C58.3494 11.03 58.9794 10.94 59.4294 11C59.7994 11.03 60.1394 10.98 60.4794 10.94C60.8194 10.91 61.1494 10.86 61.4894 10.85C62.0494 10.8 62.6094 10.78 63.1794 10.78C63.5794 10.78 63.9694 10.74 64.3894 10.88C64.6994 10.99 65.1394 10.83 65.5194 10.85C65.8994 10.85 66.2794 10.9 66.6594 10.93L67.8894 11.05L69.1094 11.18C69.5494 11.23 69.9894 11.26 70.4194 11.33C70.8294 11.4 71.2194 11.57 71.6294 11.61C72.7794 11.76 73.8994 11.48 75.0194 11.56C75.3194 11.35 75.5994 11.45 75.9194 11.47C76.2094 11.48 76.5694 11.54 76.7694 11.24C76.8294 11.16 76.9594 11.14 77.0694 11.1C77.2894 11.03 77.5694 11.15 77.7894 10.88C77.9394 10.69 78.2894 10.7 78.5194 10.52C78.7594 10.36 79.1394 10.33 79.2094 9.97001C79.8694 10.02 79.9594 9.24001 80.4994 9.07001C80.6694 9.02001 80.8394 8.93001 81.0094 8.85001C81.0894 8.81001 81.2094 8.80001 81.2594 8.73001C82.2194 7.56001 83.6294 6.87001 84.8694 5.93001C85.0294 5.82001 85.1394 5.65001 85.2894 5.52001C85.3594 5.46001 85.4394 5.39001 85.5294 5.36001C86.3394 5.03001 86.3494 5.06001 86.9994 4.54001C87.1694 4.41001 87.3794 4.33001 87.5694 4.23001C88.0694 3.98001 88.5994 3.83001 89.0894 3.47001C89.6094 3.14001 90.3094 3.24001 90.9194 3.23001C91.4794 3.25001 92.0094 3.30001 92.5694 3.19001C93.2894 3.12001 94.0094 3.09001 94.7294 3.07001C95.4394 3.13001 96.1694 3.17001 96.8694 3.26001C97.0494 3.29001 97.2794 3.40001 97.3794 3.35001C97.8294 3.13001 98.2394 3.01001 98.5194 3.58001C98.5294 3.61001 98.6794 3.63001 98.7194 3.61001C99.1394 3.35001 99.5594 3.67001 99.9494 3.78001C101.409 4.27001 103.029 4.76001 104.179 5.94001C104.359 6.12001 104.679 6.30001 104.709 6.48001C104.779 6.86001 105.139 6.72001 105.269 6.98001C105.369 7.19001 105.689 7.37001 105.749 7.57001C105.939 8.30001 106.459 8.83001 106.899 9.27001C107.319 9.68001 107.739 10.1 107.939 10.57C108.329 11.5 108.959 12.21 109.549 12.91C110.149 13.63 110.849 14.24 111.619 14.71C111.919 14.92 112.229 15.2 112.649 15.12C112.739 15.1 112.879 15.19 112.969 15.25C113.199 15.41 113.409 15.62 113.689 15.7C113.959 15.79 114.249 15.78 114.539 15.79C114.769 15.81 114.969 15.89 115.229 15.8C115.419 15.73 115.699 15.86 115.949 16.05C116.439 16.45 117.019 16.77 117.749 16.77C118.399 16.74 119.059 16.81 119.719 16.75C119.999 16.73 120.259 16.75 120.549 16.59C120.809 16.44 121.249 16.45 121.589 16.52C122.109 16.63 122.589 16.58 123.069 16.34C123.229 16.26 123.439 16.23 123.629 16.21C124.779 16.03 125.929 15.83 127.079 15.58C127.359 15.52 127.639 15.41 127.909 15.56C128.029 15.28 128.349 15.3 128.619 15.27C129.019 15.23 129.429 15.27 129.819 15.23C130.289 15.16 130.739 15.11 131.209 14.94C131.639 14.78 132.179 14.96 132.649 14.76C132.739 14.73 132.919 14.88 133.059 14.87C133.609 14.85 134.169 15.1 134.709 14.8C134.749 14.78 134.869 14.8 134.919 14.83C135.489 15.27 136.129 15.11 136.769 15.13C137.449 15.21 137.979 15.64 138.609 15.8C139.309 16.04 140.079 16.21 140.689 16.6C141.189 16.97 141.719 17.25 142.259 17.52C142.789 17.81 143.309 18.11 143.819 18.42C144.839 19.11 145.839 19.81 146.779 20.6C147.209 20.92 147.669 21.2 148.069 21.56C148.529 21.95 148.939 22.39 149.329 22.84C149.699 23.26 150.099 23.66 150.419 24.13C150.579 24.34 150.839 24.52 150.799 24.83C150.799 24.89 150.879 25.03 150.949 25.06C151.439 25.3 151.659 25.73 151.759 26.24C151.789 26.39 151.939 26.53 152.009 26.69C152.189 27.12 152.529 27.38 152.799 27.72C153.039 28.04 153.069 28.53 153.489 28.72C153.549 28.75 153.629 28.93 153.619 29C153.529 29.48 153.799 29.81 154.029 30.2C154.269 30.59 154.509 31 154.359 31.46C154.749 31.71 154.459 32.12 154.549 32.37C154.699 32.73 154.799 33.08 154.839 33.47L154.899 34.57C154.959 35.24 154.769 35.9 154.959 36.58C155.009 36.81 155.019 37.24 154.729 37.47C154.679 37.51 154.659 37.65 154.659 37.75C154.629 38.49 154.129 39.3 153.649 39.34C153.359 39.37 153.069 39.24 152.829 39.09C152.709 39.01 152.709 38.72 152.659 38.52C152.569 38.18 152.399 37.84 152.399 37.51C152.399 37.11 152.519 36.7 152.569 36.19L152.519 36.24Z" fill="#A6843B"/>
<path d="M67.8698 53.42C67.6498 53.41 66.9798 53.51 66.7498 53.51C66.4198 53.52 65.9698 53.54 65.6298 53.55C64.6898 53.56 64.2398 53.59 63.2998 53.6C62.8598 53.6 61.5598 53.83 61.0798 53.63C60.6598 53.46 61.0598 53.35 60.6898 53.16C60.5998 53.11 60.7598 52.8 60.9498 52.73C61.3598 52.57 61.8698 52.41 62.3398 52.4C63.3498 52.38 64.2898 52.55 65.2998 52.59C66.3298 52.63 67.3898 52.69 68.4098 52.77C68.6898 52.79 69.1798 52.89 69.1798 52.93C69.1598 53.17 69.1098 53.28 68.6298 53.31C68.5498 53.31 67.9598 53.42 67.8698 53.42Z" fill="#B09151"/>
<path d="M80.4383 57.04C80.4383 57.16 80.1783 57.25 79.6883 57.32C78.5783 57.47 77.0883 57.4 75.9083 57.4C74.0683 57.4 72.1183 57.53 70.2883 57.54C70.0083 57.54 69.7083 57.59 69.4683 57.64C68.6983 57.82 67.5883 57.52 67.1083 57.28C65.8483 56.65 67.0183 56.34 67.8583 56.18C68.0783 56.14 68.9383 56.09 69.4883 56.12C70.7983 56.19 72.2383 56.16 73.5383 56.24C75.4983 56.36 77.4883 56.43 79.4183 56.6C79.8583 56.64 80.1383 56.72 80.2883 56.83C80.3683 56.89 80.4483 56.99 80.4483 57.04H80.4383Z" fill="#B09151"/>
<path d="M53.5681 27.7C54.9381 27.64 58.0281 27.73 56.2581 27.07C54.7481 26.51 52.8681 26.49 51.0081 26.52C49.9081 26.54 48.6181 26.52 48.0781 26.94C48.0781 27.55 49.8181 27.93 51.3281 27.84C52.0781 27.79 52.8181 27.73 53.5781 27.7H53.5681Z" fill="#B09151"/>
<path d="M68.4303 22.68C66.1403 22.77 62.3003 22.83 60.6803 22.89C59.1003 22.95 57.5203 23.06 55.9503 23.05C55.1703 23.05 54.3203 22.83 53.7203 22.66C53.5403 22.61 54.0703 22.37 54.2803 22.22C55.1803 21.58 57.1503 21.81 58.8503 21.81C60.6503 21.81 65.4503 22.02 67.2503 21.99C69.3603 21.96 69.6203 22.09 68.8403 22.62C68.7303 22.69 68.1903 22.72 68.4303 22.69V22.68Z" fill="#B09151"/>
<path d="M46.4617 32.28C46.4617 32.4 46.2017 32.49 45.7117 32.56C44.6017 32.71 43.1117 32.64 41.9317 32.64C40.0917 32.64 38.1417 32.77 36.3117 32.78C36.0317 32.78 35.7317 32.83 35.4917 32.88C34.7217 33.06 33.6117 32.76 33.1317 32.52C31.8717 31.89 33.0417 31.58 33.8817 31.42C34.1017 31.38 34.9617 31.33 35.5117 31.36C36.8217 31.43 38.2617 31.4 39.5617 31.48C41.5217 31.6 43.5117 31.67 45.4417 31.84C45.8817 31.88 46.1617 31.96 46.3117 32.07C46.3917 32.13 46.4717 32.23 46.4717 32.28H46.4617Z" fill="#B09151"/>
<path d="M147.081 46.62C147.221 46.62 147.361 46.62 147.511 46.62C147.961 46.62 148.391 46.58 148.841 46.58C150.281 46.58 151.721 46.55 153.161 46.54C154.501 46.54 155.841 46.54 157.171 46.58C157.411 46.58 157.781 46.8 157.741 46.9C157.671 47.08 157.461 47.33 157.061 47.39C156.451 47.48 155.631 47.47 154.901 47.45C152.611 47.41 151.611 47.29 149.321 47.25C148.691 47.24 146.871 47.15 146.241 47.14C145.771 47.14 145.351 47.14 144.881 47.1C144.821 47.1 144.561 47.02 144.571 47.02C144.641 46.83 144.471 46.95 144.681 46.78C144.811 46.67 145.741 46.66 145.991 46.65C146.351 46.63 146.721 46.62 147.081 46.62Z" fill="#B09151"/>
<path d="M150.079 50.93C149.229 50.97 147.319 50.91 148.409 51.39C149.349 51.8 150.509 51.82 151.659 51.79C152.339 51.77 153.139 51.79 153.479 51.48C153.479 51.04 152.399 50.75 151.469 50.82C151.009 50.86 150.549 50.9 150.079 50.93Z" fill="#B09151"/>
<path d="M147.129 42.63C147.129 42.55 147.289 42.49 147.579 42.44C148.249 42.34 149.139 42.39 149.859 42.39C150.969 42.39 152.139 42.31 153.249 42.3C153.419 42.3 153.599 42.27 153.739 42.23C154.199 42.11 154.869 42.31 155.159 42.47C155.919 42.88 155.209 43.09 154.709 43.2C154.569 43.23 154.059 43.26 153.729 43.24C152.939 43.2 152.079 43.22 151.289 43.16C150.109 43.08 148.909 43.03 147.749 42.92C147.479 42.9 147.319 42.84 147.229 42.77C147.179 42.73 147.129 42.66 147.129 42.63Z" fill="#B09151"/>
</svg>
