<svg width="168" height="80" viewBox="0 0 168 80" fill="none" xmlns="http://www.w3.org/2000/svg">
<path d="M21.03 36.58C21.03 36.58 15.23 35.13 11.41 37.18C7.5 39.28 4.5 43.43 4.5 50.4C4.5 54.91 7.15 61.89 12.76 63.19C19.92 64.84 21.85 61.28 25.42 61.54C33.13 62.09 31.65 68.48 41.39 69.8C52.02 71.24 55.88 63.92 62.99 66.15C67.67 67.61 71.99 73.51 81.79 74.96C102.75 78.05 118.56 73.67 127.69 69.64C130.09 68.58 140.41 61.82 147.22 62.13C155.31 62.49 162.47 56.19 161.94 47.71C161.34 38.09 152.83 29.82 142.75 31.67" fill="white"/>
<path d="M16.7982 37.22C15.6682 37.35 14.4082 37.06 13.1982 37.47C12.6082 37.7 12.0782 37.91 11.5182 38.26C10.9482 38.57 10.4282 38.95 9.91821 39.34C9.41821 39.76 9.00821 40.23 8.70821 40.78C8.39821 41.29 7.79821 41.73 7.77821 42.38C7.77821 42.44 7.68821 42.52 7.64821 42.6C6.89821 43.93 6.52821 45.46 6.08821 46.91C5.59821 48.63 5.62821 50.48 5.78821 52.17C6.18821 53.55 6.60821 54.92 7.15821 56.23C7.71821 57.53 8.41821 58.79 9.38821 59.75C9.99821 60.35 10.6782 60.79 11.3082 61.41C11.5982 61.64 11.9782 61.82 12.3682 61.9C12.5682 61.95 12.7582 62 12.9482 62.08C13.1482 62.15 13.3582 62.23 13.5482 62.35C13.6082 62.39 13.7882 62.35 13.9082 62.35C14.2082 62.38 14.5182 62.32 14.7882 62.38C16.3982 62.72 16.4382 62.71 17.7482 62.4C17.9082 62.37 18.1182 62.47 18.2982 62.44C19.0382 62.33 19.7682 62.12 20.4882 61.81C21.1382 61.54 21.9082 61.41 22.5182 60.86C22.6482 60.74 23.0182 60.69 23.2782 60.62C24.1082 60.38 25.1682 60.34 25.9782 60.44C26.9382 60.52 27.8782 60.84 28.8882 60.96C29.3582 60.99 29.7782 61.57 30.0182 61.64C30.5082 61.75 30.8782 62 31.2382 62.28C31.5882 62.57 31.8182 62.95 32.1282 63.24C32.3782 63.49 32.7582 63.64 33.0082 63.88C33.6482 64.49 34.1782 65.22 34.8282 65.59C35.1782 65.79 35.4882 65.98 35.7782 66.2C36.0882 66.38 36.3782 66.6 36.6982 66.77C37.0482 66.93 37.3582 67.13 37.7182 67.28C38.0782 67.42 38.4282 67.58 38.7982 67.68C39.3982 67.8 39.8582 68.13 40.4382 68.28C41.0082 68.46 41.6782 68.36 42.1782 68.71C42.1982 68.73 42.2682 68.71 42.3082 68.72L43.2282 68.85C43.5382 68.88 43.8482 68.89 44.1582 68.91C44.4682 68.92 44.7782 68.95 45.0882 68.94L46.0182 68.87C48.1582 68.67 50.2182 67.99 52.2682 67.13C52.8482 66.89 53.4282 66.52 54.0882 66.53C54.2282 66.53 54.4482 66.35 54.6182 66.32C55.2582 66.22 55.5482 65.55 56.2282 65.57C56.8082 65.57 57.3682 65.32 57.9382 65.18C58.5982 65.08 59.2582 64.92 59.9482 64.94C60.4182 64.91 60.8382 64.92 61.2482 64.81C61.7382 65.12 62.4782 65.13 63.0282 65.4C63.3782 65.6 63.9082 65.9 64.2082 65.92C64.8782 65.97 65.3882 66.36 65.9382 66.65C66.7382 67.08 67.4382 67.66 68.2882 67.97C68.6482 68.1 69.0282 68.42 69.3582 68.68C69.6682 68.92 69.9282 69.24 70.2482 69.46C70.8482 69.88 71.4682 70.25 72.1582 70.48C72.7582 70.66 73.2882 71.29 73.9882 71.27C74.0782 71.27 74.2482 71.37 74.3482 71.45C74.8982 71.85 75.4082 72.19 76.1782 72.29C76.7882 72.38 77.4582 72.75 78.1282 72.94C78.8282 73.19 79.5882 73.26 80.2582 73.53C80.6982 73.66 81.0082 73.28 81.4882 73.64C81.7482 73.84 82.3482 73.85 82.8082 73.91C83.2782 73.98 83.7782 73.98 84.2182 74.1C85.3782 74.44 86.5682 74.57 87.7682 74.65C88.9682 74.76 90.1682 74.79 91.3482 74.89C92.3582 75 93.4182 74.78 94.3782 75.15C95.0982 74.87 95.9682 75.13 96.6482 74.94C97.0782 74.81 97.4582 74.81 97.8582 74.8L99.8182 74.74L101.778 74.62C103.088 74.56 104.378 74.39 105.678 74.25C107.388 74.02 109.068 73.69 110.748 73.33C111.218 73.23 111.678 73.13 112.228 73.19C112.628 73.24 113.318 73.1 113.778 72.78C113.868 72.72 114.058 72.64 114.138 72.65C115.178 72.83 116.028 72.17 116.948 71.93C118.738 71.4 120.578 71.13 122.328 70.48C122.698 70.34 123.178 70.3 123.378 69.94C123.748 70.05 123.918 69.86 124.238 69.63C124.558 69.39 125.148 69.15 125.518 69.14C126.008 69.12 126.378 68.9 126.798 68.74C127.268 68.57 127.588 68.39 128.028 68.16C129.798 67.26 131.628 66.28 133.488 65.42C133.848 65.25 134.248 65.16 134.628 65.03C135.008 64.9 135.338 64.58 135.798 64.63C135.968 64.65 136.308 64.42 136.578 64.3C137.508 63.88 138.578 63.58 139.378 63.08C140.168 62.58 141.168 62.48 141.898 61.92C142.108 61.76 142.558 61.74 142.888 61.63C144.268 61.23 145.728 61.28 147.188 60.95C147.658 61.17 148.188 61.13 148.698 61.11C149.068 61.06 149.518 61.14 149.798 60.84C149.828 60.8 149.958 60.79 150.038 60.79C150.488 60.76 150.928 60.84 151.418 60.68C151.818 60.51 152.088 60.25 152.528 60.12C154.068 59.57 155.678 58.96 156.858 57.74C157.368 57.62 157.678 57.16 158.058 56.8C158.378 56.46 158.578 56.05 158.818 55.67C159.038 55.27 159.198 54.85 159.478 54.48C159.718 54.11 159.918 53.7 160.128 53.29C160.298 52.87 160.418 52.43 160.488 52.02C160.638 50.58 160.928 49.19 160.818 47.75C160.768 47.38 160.628 46.98 160.838 46.61C160.888 46.52 160.818 46.11 160.728 46.02C160.518 45.81 160.558 45.52 160.448 45.31C160.298 45.01 160.358 44.66 160.348 44.33C160.328 44 160.268 43.67 159.938 43.44C159.748 42.74 159.398 42.1 159.128 41.43C158.778 40.8 158.458 40.15 158.048 39.55C157.858 39.27 157.628 39.03 157.568 38.64C157.538 38.37 157.168 37.94 156.938 37.82C156.668 37.69 156.468 37.5 156.278 37.29L155.688 36.7C154.478 35.56 153.118 34.57 151.618 33.87C150.988 33.5 150.318 33.24 149.658 32.91C148.938 32.71 148.188 32.62 147.488 32.35C147.438 32.33 147.358 32.33 147.298 32.33C146.998 32.33 146.698 32.37 146.418 32.33C146.048 32.31 145.548 32.1 145.338 32.19C144.918 32.37 144.628 32.16 144.308 32.19C143.388 32.25 142.708 31.85 142.708 31.28C142.708 31.15 142.808 31 142.938 30.89C143.348 30.53 143.568 30.35 143.878 30.24C144.178 30.13 144.568 30.06 145.338 30.06C147.318 29.95 149.158 30.65 151.008 31.17C151.278 31.35 151.558 31.51 151.848 31.64C152.138 31.79 152.418 31.95 152.708 32.08L153.588 32.5C153.868 32.67 154.138 32.84 154.398 33.03C154.958 33.4 155.438 33.88 155.918 34.34C156.418 34.77 156.848 35.26 157.388 35.64C158.428 36.42 159.188 37.46 159.888 38.53C160.178 38.92 160.348 39.39 160.568 39.82L160.868 40.48L161.128 41.16C161.538 42.07 161.908 43.03 162.128 43.99C162.208 44.6 162.148 45.26 162.378 45.8C162.578 46.4 162.668 47.04 162.718 47.68C162.698 48.33 162.738 48.96 162.738 49.59C162.838 51.36 162.208 53.09 161.568 54.7C161.408 55.15 161.208 55.58 160.978 55.99C160.758 56.41 160.518 56.82 160.208 57.19C159.938 57.53 159.708 57.88 159.278 58.12C158.858 58.38 158.398 58.88 158.058 59.38C157.918 59.59 157.638 59.91 157.438 59.99C156.998 60.13 156.618 60.35 156.248 60.6C155.878 60.84 155.488 61.07 155.098 61.29C154.608 61.58 153.918 61.56 153.658 61.8C153.208 62.2 152.668 62.24 152.178 62.43C151.828 62.58 151.418 62.71 151.048 62.57C150.948 62.53 150.588 62.59 150.498 62.66C149.928 63.04 149.168 62.99 148.498 63.02L146.198 63.06C145.488 63.12 144.768 63.18 144.048 63.34C142.848 63.55 141.818 64.24 140.608 64.51C140.008 65.06 139.178 65.23 138.428 65.56C137.858 65.79 137.248 65.96 136.658 66.17C136.068 66.38 135.548 66.71 134.898 66.88C134.098 67.11 133.298 67.68 132.488 68.09C132.048 68.31 131.638 68.72 131.118 68.69C131.048 68.69 130.848 68.8 130.788 68.88C130.358 69.46 129.598 69.79 129.018 69.96C128.038 70.28 127.208 70.68 126.348 71.02C125.618 71.28 124.898 71.6 124.168 71.86C123.638 72.03 123.138 72.27 122.548 72.34C122.098 72.4 121.578 72.73 121.078 72.91C120.578 73.09 120.058 73.25 119.548 73.39L117.858 73.87C117.298 74.04 116.728 74.16 116.158 74.3C115.548 74.45 114.938 74.64 114.308 74.73C113.718 74.83 113.118 74.83 112.538 74.94C110.898 75.21 109.338 75.82 107.648 75.92C107.228 76.19 106.768 76.1 106.298 76.12C105.858 76.12 105.338 76.09 104.928 76.35C104.818 76.42 104.578 76.43 104.398 76.47C103.998 76.54 103.628 76.37 103.168 76.57C102.838 76.7 102.308 76.63 101.878 76.68C101.418 76.73 100.898 76.61 100.528 76.91C99.7082 76.57 98.9682 77.18 98.1582 77.03C97.9082 76.98 97.6282 76.96 97.3582 76.93C97.2282 76.91 97.0782 76.87 96.9582 76.89C94.8282 77.27 92.6482 76.94 90.4982 76.91C90.2282 76.91 89.9782 76.98 89.7082 77C89.5782 77.01 89.4382 77.01 89.3082 77C88.1482 76.75 88.1482 76.75 87.0382 76.81C86.7582 76.82 86.4582 76.77 86.1782 76.76C85.4282 76.75 84.7182 76.56 83.9382 76.64C83.1482 76.71 82.3582 76.31 81.5782 76.07C80.8782 75.81 80.1882 75.59 79.4182 75.41C77.4582 75.01 75.5682 74.31 73.7782 73.45C73.5482 73.35 73.2782 73.13 73.1182 73.13C72.4782 73.14 71.9182 73.08 71.6982 72.36C71.6882 72.33 71.5082 72.23 71.4582 72.23C70.8682 72.27 70.4182 71.79 69.9582 71.5C68.2182 70.36 66.3882 69.43 64.7982 68.36C64.5382 68.2 64.1382 68.05 64.0282 67.89C63.7882 67.54 63.4782 67.76 63.2182 67.58C62.9982 67.44 62.6082 67.4 62.4182 67.28C61.7382 66.76 60.7982 66.71 60.0682 66.86C59.7182 66.93 59.3782 66.98 59.0382 67.09C58.6982 67.18 58.3682 67.22 58.0482 67.27C56.7482 67.38 55.5182 68.02 54.2182 68.56C52.8782 69.11 51.4982 69.69 50.0582 70.16C49.4582 70.33 48.7882 70.39 48.2782 70.78C48.1782 70.86 47.8882 70.88 47.6882 70.9C47.2082 70.95 46.7382 70.91 46.2682 70.95C45.7982 70.98 45.3482 71.18 44.8682 71.22C44.4882 71.26 44.1282 71.22 43.7282 71.37C43.4282 71.5 42.9282 71.37 42.4882 71.17C42.0582 70.98 41.6182 70.8 41.1582 70.63C40.6982 70.44 40.2082 70.29 39.6482 70.22C39.1582 70.13 38.6682 69.98 38.1782 69.84C37.6982 69.69 37.2282 69.47 36.7482 69.3C36.3482 69.13 36.0082 68.91 35.5282 68.82C35.1082 68.72 34.5182 68.29 34.1882 67.9C33.6482 67.3 33.1382 66.81 32.4782 66.41C32.2582 66.27 32.0282 66.05 31.8382 65.86C30.6482 64.65 29.5482 63.58 28.1482 63.06C27.9782 62.99 27.8082 62.94 27.6482 62.86C27.4782 62.8 27.3182 62.73 27.1982 62.59C26.8982 62.77 26.5582 62.59 26.2282 62.55C25.7282 62.46 25.2482 62.28 24.8082 62.28C24.2582 62.3 23.7082 62.45 23.2082 62.78C22.7382 63.09 22.0082 63.15 21.4682 63.58C21.3682 63.66 21.0682 63.62 20.8982 63.7C20.1782 64.01 19.3182 64.04 18.6582 64.49C18.5982 64.53 18.4282 64.56 18.3582 64.55C17.3982 64.33 16.5382 64.67 15.6182 64.69C14.6182 64.75 13.7782 64.32 12.8782 64.14C11.8282 63.93 10.5982 63.6 9.78821 62.88C8.35821 61.73 7.10821 60.47 6.21821 58.97C5.31821 57.44 4.63821 55.8 4.19821 54.09C4.00821 53.35 3.73821 52.62 3.63821 51.84C3.49821 50.98 3.54821 50.08 3.56821 49.24C3.60821 48.44 3.67821 47.63 3.81821 46.83C3.86821 46.46 3.87821 46.02 4.14821 45.74C4.20821 45.68 4.25821 45.46 4.25821 45.36C4.23821 45 4.27821 44.65 4.36821 44.32C4.48821 43.99 4.65821 43.68 4.86821 43.39C4.99821 43.23 5.06821 42.93 5.19821 42.73C5.54821 42.16 5.63821 41.56 5.91821 40.99C6.16821 40.46 6.72821 40.06 6.80821 39.46C6.81821 39.38 7.00821 39.16 7.09821 39.11C7.68821 38.85 8.05821 38.36 8.47821 37.88C8.88821 37.4 9.34821 36.94 9.97821 36.83C10.2082 36.32 10.7982 36.38 11.1182 36.17C11.5882 35.85 12.0682 35.59 12.6182 35.42C13.1382 35.28 13.6582 35.17 14.1782 35.08C15.1282 34.9 16.0782 34.99 17.0182 34.76C17.3282 34.68 17.9282 34.65 18.2882 34.93C18.3482 34.98 18.5582 34.99 18.6882 34.99C19.7182 34.99 20.8982 35.49 21.0382 35.99C21.1282 36.28 21.0182 36.59 20.8582 36.83C20.7782 36.95 20.3582 36.95 20.0882 37C19.6182 37.09 19.1682 37.26 18.6882 37.28C18.1182 37.3 17.5182 37.19 16.7782 37.18L16.7982 37.22Z" fill="#A6843B"/>
<path d="M15.0195 41.09C19.6395 29.97 27.1195 30.12 35.5495 29.82C43.9795 29.52 42.8895 27.42 48.8795 20.2C54.8595 12.99 63.8395 14.79 67.3695 14.49C70.9095 14.19 71.7195 9.08001 79.8795 6.08001C88.0395 3.08001 93.8795 5.33001 98.2395 7.13001C102.59 8.93001 110.21 14.04 115.64 14.04C121.07 14.04 125.43 16.44 127.88 20.65C130.33 24.86 133.32 26.36 137.67 27.56C142.02 28.76 143.92 30.26 146.64 33.57C149.36 36.88 149.63 39.58 149.63 39.58" fill="white"/>
<path d="M15.2899 37.93C15.4499 37.51 15.7199 37.14 16.0199 36.78C16.3499 36.43 16.6899 36.08 16.9499 35.66C17.1899 35.22 17.5599 34.86 17.8699 34.47C18.1899 34.07 18.5699 33.74 18.9499 33.4C19.1399 33.23 19.3099 33.05 19.4799 32.86C19.6599 32.69 19.8299 32.5 19.9999 32.31C20.3199 31.92 20.9099 31.8 21.1599 31.31C21.1799 31.26 21.2799 31.24 21.3399 31.2C22.4099 30.54 23.5799 29.96 24.7799 29.74C26.1699 29.56 27.4599 29.14 28.7999 29.09C30.9199 28.46 33.1099 28.68 35.1999 28.54C35.8599 28.49 36.4799 28.39 37.1399 28.57C37.7099 28.72 38.3299 28.3 38.9299 28.54C38.9799 28.56 39.0799 28.47 39.1599 28.44C39.3399 28.36 39.5199 28.22 39.6999 28.21C40.7699 28.1 40.7999 28.07 41.4399 27.53C41.5099 27.46 41.6899 27.51 41.7899 27.45C42.1899 27.2 42.5599 26.87 42.8699 26.48C43.1499 26.12 43.6199 25.86 43.6399 25.29C43.6399 25.17 43.8199 25.04 43.9099 24.91C44.2099 24.49 44.5299 24.08 44.8199 23.64C45.1399 23.13 45.6299 22.72 45.7599 22.08C45.8199 21.8 46.3099 21.69 46.3399 21.53C46.4099 21.23 46.5499 20.99 46.7399 20.78C46.9299 20.57 47.1999 20.45 47.3799 20.23C47.5299 20.05 47.5699 19.77 47.7099 19.57C48.0799 19.08 48.6699 18.67 48.9499 18.14C49.2899 17.58 49.7999 17.23 50.2499 16.8C50.7599 16.4 51.3199 16.05 51.8499 15.68C52.2799 15.41 52.7399 15.31 53.1799 15.15C53.6299 15.03 54.0299 14.61 54.5399 14.75C54.5599 14.75 54.5999 14.72 54.6399 14.71C55.0999 14.58 55.5599 14.47 56.0199 14.35L57.4099 14.07C58.9999 13.76 60.5999 13.59 62.1799 13.56C62.6299 13.55 63.0999 13.44 63.5099 13.71C63.5999 13.77 63.7899 13.68 63.8999 13.73C64.3299 13.89 64.6799 13.38 65.0799 13.62C65.4399 13.84 65.8299 13.73 66.1899 13.74C66.5999 13.77 67.0199 13.72 67.3799 13.7C67.6099 13.67 67.8199 13.6 67.9299 13.39C68.2699 13.61 68.5299 13.24 68.8699 13.17C69.0999 13.13 69.4499 12.97 69.4999 12.77C69.6299 12.36 69.9799 12.16 70.2399 11.86C70.6299 11.41 71.1099 11.04 71.3899 10.46C71.5099 10.21 71.7899 10 72.0299 9.82C72.2599 9.65 72.5399 9.55 72.7499 9.37C73.1699 9.05 73.5399 8.7 73.8699 8.27C74.1499 7.87 74.7599 7.79 74.9699 7.27C74.9999 7.2 75.1299 7.13 75.2199 7.1C75.7099 6.94 76.1399 6.81 76.5399 6.36C76.8699 6.02 77.4499 5.88 77.9099 5.65C78.4199 5.44 78.9199 5.17 79.4399 5.05C79.7799 4.99 79.7999 4.53 80.2699 4.66C80.5199 4.73 80.8999 4.51 81.2299 4.44C81.5599 4.36 81.8999 4.21 82.2299 4.19C83.9599 4.12 85.6399 3.59 87.3799 3.68C88.0999 3.71 88.8899 3.49 89.5499 3.92C90.0899 3.69 90.6898 3.99 91.1999 3.9C91.5299 3.83 91.7999 3.88 92.0799 3.94C93.9399 4.3 95.7299 4.92 97.4499 5.58C98.5599 5.99 99.7699 6.41 100.86 6.92C101.17 7.06 101.48 7.18 101.73 7.5C101.91 7.74 102.34 7.97 102.76 7.94C102.84 7.94 102.98 7.97 103.02 8.02C103.43 8.7 104.22 8.62 104.81 8.91C105.97 9.47 106.98 10.25 108.14 10.76C108.39 10.86 108.63 11.1 108.93 10.93C109.03 11.22 109.21 11.19 109.49 11.19C109.77 11.19 110.17 11.33 110.34 11.54C110.56 11.83 110.86 11.85 111.13 11.97C111.42 12.1 111.73 12.18 112.02 12.27C113.27 12.71 114.51 13.03 115.77 13.1C116.06 13.12 116.33 13.23 116.61 13.29C116.89 13.35 117.21 13.25 117.46 13.51C117.55 13.6 117.84 13.57 118.04 13.6C118.75 13.7 119.48 13.98 120.14 13.98C120.81 13.97 121.39 14.41 122.07 14.33C122.26 14.31 122.52 14.51 122.74 14.61C123.69 14.96 124.39 15.75 125.38 16.04C125.53 16.44 125.87 16.67 126.18 16.94C126.41 17.13 126.55 17.47 126.91 17.46C126.95 17.46 127.03 17.54 127.06 17.59C127.27 17.9 127.33 18.26 127.63 18.53C127.86 18.77 128.15 18.9 128.36 19.2C128.54 19.48 128.69 19.77 128.85 20.07L129.22 20.86C129.48 21.37 129.78 21.86 130.2 22.26C130.24 22.63 130.51 22.88 130.76 23.13C131.2 23.59 131.81 23.77 132.28 24.18C132.72 24.58 133.26 24.96 133.84 25.11C134.83 25.34 135.69 25.82 136.68 26.09C136.93 26.16 137.24 26.16 137.4 26.46C137.44 26.53 137.72 26.59 137.82 26.54C138.02 26.43 138.2 26.59 138.38 26.58C138.91 26.56 139.17 27.32 139.79 27.04C140.31 27.23 140.83 27.43 141.35 27.67C141.87 27.9 142.37 28.17 142.86 28.48C143.08 28.63 143.33 28.73 143.46 29.02C143.54 29.22 143.88 29.49 144.08 29.52C144.57 29.6 144.85 29.97 145.16 30.26C146.12 31.14 146.94 32.08 147.71 33.08C148.05 33.53 148.31 34.04 148.57 34.54C148.84 35.04 149.28 35.48 149.34 36.08C149.34 36.12 149.38 36.17 149.4 36.21C149.53 36.4 149.71 36.57 149.78 36.78C149.89 37.05 149.83 37.49 149.97 37.61C150.26 37.86 150.13 38.13 150.18 38.38C150.33 39.1 149.91 39.66 149.33 39.62C149.2 39.62 149.06 39.58 148.95 39.51C148.23 39.12 148.28 39.13 147.97 38.33C147.55 37.34 147.33 36.18 146.55 35.3C146.39 34.5 145.69 33.99 145.21 33.34C144.72 32.67 144.32 31.86 143.6 31.46C142.89 31.07 142.32 30.59 141.66 30.18C141.17 29.87 140.7 29.51 140.16 29.24C139.6 28.97 138.97 28.83 138.4 28.57C138.05 28.4 137.71 28.1 137.31 28.11C136.43 28.14 135.66 27.66 134.84 27.49C133.68 27.26 132.63 26.63 131.57 26.08C131 25.78 130.42 25.45 129.94 25C129.72 24.8 129.5 24.61 129.37 24.29C129.22 23.97 128.93 23.62 128.53 23.43C128.37 23.35 128.16 23.16 128.12 23.01C127.98 22.38 127.55 21.94 127.23 21.43C127.02 21.09 127.05 20.68 126.85 20.55C126.53 20.35 126.4 20.08 126.2 19.83C126.06 19.66 125.82 19.52 125.87 19.22C125.88 19.14 125.76 18.95 125.67 18.94C125.19 18.87 125.01 18.46 124.69 18.2C123.95 17.57 123.15 17.01 122.3 16.54C121.59 16.14 120.75 16.17 120.03 15.8C119.48 15.95 119 15.69 118.48 15.59C118.09 15.52 117.71 15.36 117.32 15.26C116.92 15.17 116.53 15.18 116.1 15.05C115.62 14.87 114.79 15 114.15 14.87C113.8 14.79 113.35 14.92 113.1 14.56C113.07 14.51 112.91 14.48 112.84 14.51C112.31 14.71 111.75 14.46 111.4 14.23C110.81 13.86 110.19 13.72 109.59 13.46C109.1 13.24 108.58 13.08 108.11 12.84C107.77 12.67 107.4 12.58 107.09 12.29C106.86 12.07 106.42 12.05 106.08 11.91C105.75 11.77 105.42 11.59 105.1 11.43L104.04 10.89L102.99 10.35C102.61 10.15 102.22 9.98 101.86 9.75C101.52 9.54 101.22 9.25 100.87 9.06C99.8799 8.52 98.7699 8.33 97.8099 7.8C97.4499 7.88 97.2299 7.63 96.9599 7.47C96.6999 7.33 96.4199 7.11 96.0699 7.22C95.9699 7.25 95.8399 7.18 95.7199 7.16C95.4599 7.1 95.3099 6.82 94.9599 6.87C94.7099 6.9 94.4299 6.69 94.1499 6.63C93.8599 6.57 93.5799 6.31 93.2599 6.52C92.8599 5.99 92.2299 6.47 91.7699 6.19C91.6199 6.1 91.4599 6.03 91.2899 5.97C91.2099 5.94 91.1199 5.87 91.0499 5.88C89.6499 6.01 88.2999 5.63 86.9299 5.78C86.7599 5.81 86.6099 5.9 86.4399 5.95C86.3599 5.97 86.2699 5.99 86.1899 5.98C85.4299 5.88 85.4299 5.92 84.7599 6.15C84.5899 6.21 84.3999 6.2 84.2199 6.26C83.7699 6.4 83.2999 6.4 82.8699 6.7C82.4499 7 81.8499 6.81 81.3199 6.87C80.8499 6.91 80.3699 6.9 79.9099 7.11C78.7399 7.59 77.6099 8.13 76.5299 8.77C76.3999 8.85 76.1899 8.92 76.1499 9.03C76.0199 9.48 75.8699 9.8 75.3099 9.6C75.2799 9.6 75.1799 9.67 75.1699 9.71C75.1199 10.15 74.7099 10.26 74.4399 10.48C73.3899 11.3 72.7599 12.49 71.6599 13.43C71.4799 13.58 71.2999 13.87 71.1299 13.89C70.7599 13.94 70.8699 14.3 70.6199 14.42C70.4199 14.52 70.1699 14.84 69.9599 14.88C69.1499 15.03 68.4099 15.48 67.6399 15.66C66.9899 15.84 66.4099 15.94 65.8999 15.83C64.9199 15.61 63.9699 15.67 63.0399 15.66C62.0799 15.64 61.1299 15.68 60.1899 15.8C59.8099 15.86 59.3799 15.76 59.0699 16.1C59.0099 16.17 58.8399 16.17 58.7199 16.17C58.4299 16.17 58.1299 16.1 57.8499 16.17C57.5799 16.24 57.3299 16.42 57.0699 16.53C56.8599 16.61 56.6399 16.64 56.4699 16.86C56.3399 17.02 56.0399 17.02 55.7399 16.97C55.1499 16.88 54.4899 16.82 53.8899 17.19C53.3699 17.53 52.7899 17.78 52.3099 18.17C52.0999 18.33 51.8799 18.44 51.7499 18.72C51.6399 18.98 51.2999 19.21 51.0099 19.34C50.5399 19.53 50.2299 19.87 50.0399 20.32C49.9699 20.48 49.8399 20.62 49.7199 20.75C48.9999 21.6 48.2999 22.5 47.6199 23.41C47.4599 23.63 47.3299 23.9 47.0299 23.95C47.1199 24.24 46.8899 24.42 46.7299 24.61C46.4899 24.89 46.1899 25.12 45.9599 25.41C45.6799 25.75 45.4499 26.12 45.2899 26.57C45.1599 26.99 44.6499 27.24 44.5099 27.73C44.4799 27.82 44.2399 27.86 44.1599 27.97C43.8199 28.41 43.2299 28.64 42.9899 29.22C42.9699 29.27 42.8599 29.34 42.7999 29.35C42.0599 29.43 41.6099 29.92 41.0099 30.22C40.3699 30.54 39.6899 30.41 39.0599 30.51C38.3399 30.65 37.5999 30.8 36.9199 30.73C35.7499 30.57 34.6399 30.71 33.5199 30.73C32.3799 30.75 31.2399 30.8 30.1199 30.93C29.6299 30.97 29.1699 31.16 28.6899 31.25L27.0999 31.52C26.5999 31.6 26.1299 31.76 25.6399 31.86C25.4099 31.9 25.2099 32.1 24.9399 31.96C24.8899 31.93 24.7499 31.96 24.6999 32.01C24.3699 32.36 23.9999 32.5 23.5299 32.49C23.3899 32.49 23.2499 32.61 23.1099 32.64C22.6999 32.73 22.5099 33.12 22.2199 33.35C21.9499 33.55 21.5199 33.62 21.4699 34.06C21.4699 34.12 21.3299 34.22 21.2599 34.22C20.8099 34.2 20.5799 34.51 20.3899 34.84C20.1899 35.17 19.9899 35.46 19.5899 35.55C19.6399 35.97 19.1999 35.94 19.0899 36.14C18.9399 36.42 18.7999 36.69 18.6199 36.97C18.4399 37.22 18.2499 37.47 18.0999 37.73C17.7899 38.19 17.4299 38.66 17.3599 39.27C17.3499 39.48 17.1999 39.79 16.8999 39.9C16.8399 39.92 16.7999 40.04 16.7699 40.11C16.5899 40.72 16.0299 41.3 15.5499 41.28C15.2699 41.26 14.9699 41.13 14.7599 40.96C14.6499 40.87 14.6899 40.58 14.6799 40.37C14.6599 40.01 14.5799 39.63 14.6599 39.28C14.7499 38.86 15.0199 38.47 15.2999 37.99L15.2899 37.93Z" fill="#A6843B"/>
<path d="M128.921 61.39C127.891 61.44 125.571 61.37 126.901 61.95C128.031 62.45 129.441 62.47 130.841 62.43C131.661 62.41 132.631 62.43 133.041 62.06C133.041 61.52 131.741 61.18 130.611 61.26C130.051 61.3 129.491 61.36 128.921 61.39Z" fill="#B09151"/>
<path d="M121.4 61.08C122.19 61.08 122.85 61.13 123.11 61.26C123.41 61.39 123.45 61.67 123.11 61.78C122.41 62 121.47 62.26 120.47 62.31C119.25 62.37 117.88 62.24 116.57 62.2C116.12 62.19 115.66 62.19 115.21 62.18C114.23 62.17 112.5 62.04 111.5 61.89C110.78 61.79 108.43 61.73 107.54 61.7C107.43 61.7 107.24 61.68 107.23 61.66C107.1 61.38 106.63 61.5 107.51 61.26C107.62 61.23 110.15 61.11 110.33 61.11C112.48 61.13 114.77 61.19 116.98 61.19C117.8 61.19 119.87 61.06 121.4 61.08Z" fill="#B09151"/>
<path d="M119.16 55.57C119.17 55.48 119.75 55.4 120.89 55.35C123.45 55.23 126.86 55.29 129.58 55.29C133.8 55.29 138.29 55.19 142.51 55.18C143.15 55.18 143.84 55.14 144.4 55.1C146.17 54.96 148.71 55.19 149.84 55.38C152.73 55.86 150.04 56.1 148.11 56.23C147.59 56.26 145.63 56.3 144.37 56.28C141.37 56.23 138.06 56.25 135.06 56.19C130.55 56.1 125.98 56.04 121.53 55.91C120.52 55.88 119.88 55.82 119.53 55.73C119.34 55.68 119.16 55.61 119.17 55.57H119.16Z" fill="#B09151"/>
<path d="M51.7914 27.89C50.8214 27.88 50.0114 27.81 49.6914 27.64C49.3314 27.45 49.2714 27.06 49.6914 26.91C50.5514 26.59 51.7114 26.23 52.9314 26.16C54.4314 26.07 56.1114 26.26 57.7214 26.32C58.2714 26.34 58.8314 26.34 59.3914 26.34C60.5914 26.36 62.7114 26.54 63.9514 26.74C64.8314 26.89 67.7214 26.97 68.8114 27C68.9514 27 69.1814 27.03 69.1914 27.05C69.3514 27.45 69.9314 27.28 68.8514 27.62C68.7214 27.66 65.6214 27.83 65.3914 27.83C62.7514 27.79 59.9414 27.72 57.2314 27.72C56.2214 27.72 53.6914 27.9 51.8114 27.88L51.7914 27.89Z" fill="#B09151"/>
<path d="M66.7212 21.92C66.7212 22.05 66.5312 22.15 66.1812 22.23C65.3712 22.39 64.3012 22.32 63.4412 22.32C62.1112 22.32 60.6912 22.46 59.3612 22.47C59.1612 22.47 58.9412 22.52 58.7612 22.58C58.2012 22.78 57.4012 22.45 57.0512 22.19C56.1412 21.51 56.9912 21.17 57.5912 20.99C57.7512 20.94 58.3712 20.89 58.7712 20.92C59.7212 20.99 60.7612 20.96 61.7012 21.05C63.1212 21.18 64.5612 21.26 65.9712 21.44C66.2912 21.48 66.4912 21.57 66.6012 21.69C66.6612 21.76 66.7212 21.86 66.7112 21.92H66.7212Z" fill="#B09151"/>
<path d="M15.2594 50.55C16.9194 50.48 20.6594 50.58 18.5194 49.79C16.6894 49.11 14.4094 49.09 12.1594 49.13C10.8294 49.16 9.26938 49.13 8.60938 49.64C8.61937 50.37 10.7194 50.84 12.5394 50.72C13.4494 50.66 14.3494 50.59 15.2594 50.55Z" fill="#B09151"/>
<path d="M31.9502 56.03C30.1502 56.14 27.1302 56.21 25.8502 56.28C24.6102 56.35 23.3602 56.49 22.1302 56.47C21.5202 56.47 20.8502 56.21 20.3802 56C20.2402 55.94 20.6502 55.65 20.8202 55.47C21.5302 54.69 23.0702 54.97 24.4102 54.97C25.8302 54.97 29.6002 55.22 31.0202 55.19C32.6802 55.15 32.8802 55.31 32.2702 55.95C32.1802 56.04 31.7602 56.07 31.9502 56.03Z" fill="#B09151"/>
<path d="M17.7096 55.55C17.7096 55.7 17.5996 55.81 17.3996 55.89C16.9496 56.07 16.3396 55.98 15.8596 55.99C15.1096 55.99 14.3196 56.14 13.5696 56.16C13.4596 56.16 13.3296 56.22 13.2396 56.29C12.9296 56.51 12.4796 56.15 12.2796 55.85C11.7696 55.09 12.2396 54.71 12.5796 54.51C12.6696 54.46 13.0196 54.4 13.2396 54.43C13.7696 54.51 14.3596 54.47 14.8896 54.57C15.6896 54.72 16.4996 54.81 17.2796 55.01C17.4596 55.06 17.5696 55.16 17.6296 55.29C17.6596 55.36 17.6996 55.48 17.6896 55.55H17.7096Z" fill="#B09151"/>
<path d="M144.561 50.12C144.731 50.12 144.901 50.12 145.081 50.12C145.621 50.12 146.151 50.07 146.691 50.07C148.431 50.07 150.181 50.03 151.921 50.03C153.541 50.03 155.171 50.03 156.781 50.08C157.071 50.08 157.511 50.34 157.471 50.47C157.391 50.68 157.141 50.99 156.651 51.07C155.911 51.18 154.911 51.16 154.041 51.15C151.271 51.1 150.051 50.96 147.291 50.9C146.531 50.88 144.321 50.78 143.561 50.77C142.991 50.77 142.481 50.76 141.911 50.72C141.841 50.72 141.531 50.63 141.531 50.62C141.621 50.39 141.411 50.54 141.661 50.32C141.811 50.19 142.951 50.18 143.251 50.16C143.691 50.14 144.131 50.13 144.571 50.12H144.561Z" fill="#B09151"/>
<path d="M145.289 45.28C145.289 45.18 145.479 45.11 145.839 45.06C146.649 44.94 147.729 45 148.599 44.99C149.939 44.99 151.359 44.89 152.699 44.88C152.899 44.88 153.119 44.84 153.299 44.8C153.859 44.66 154.669 44.89 155.019 45.09C155.939 45.59 155.079 45.84 154.469 45.97C154.309 46.01 153.689 46.04 153.279 46.02C152.329 45.97 151.279 45.99 150.329 45.93C148.899 45.83 147.449 45.77 146.039 45.64C145.719 45.61 145.519 45.54 145.409 45.45C145.349 45.4 145.289 45.32 145.289 45.28Z" fill="#B09151"/>
</svg>
