<svg width="168" height="74" viewBox="0 0 168 74" fill="none" xmlns="http://www.w3.org/2000/svg">
<path d="M144.92 32.4C144.92 32.4 149.44 32 152.37 33.21C155.3 34.42 162.37 37.23 161.41 44.54C159.7 57.5 144.95 54.24 141.37 54.36C137.79 54.48 133.57 61.83 123.73 62.23C113.89 62.63 109.18 59.5 103.27 60.87C99.6099 61.72 94.1799 67.39 84.3399 68.48C69.7099 70.1 62.5499 55.01 54.2099 57.25C49.9099 58.41 42.8299 63.96 32.1899 58.3C27.9199 56.03 24.1499 55.1 17.5599 56.68C12.5099 57.89 6.29988 54.58 5.58988 47.78C4.78988 40.09 9.57988 33.21 19.6799 34.83" fill="white"/>
<path d="M148.999 31.31C150.229 31.29 151.469 31.89 152.809 32.37C154.039 32.81 155.279 33.39 156.459 34.09C157.059 34.45 157.639 34.76 158.259 35.07C158.549 35.24 158.819 35.49 159.089 35.72C159.349 35.97 159.609 36.21 159.969 36.32C160.029 36.34 160.109 36.46 160.169 36.54C161.369 37.82 162.429 39.52 162.579 41.32C162.689 42.34 162.679 43.34 162.589 44.32C162.509 45.29 162.319 46.2 162.029 47.12C161.769 48.67 161.049 50.2 159.969 51.46C158.899 52.73 157.499 53.67 156.069 54.37C155.169 54.81 154.229 55.21 153.209 55.22C152.349 55.22 151.389 55.74 150.489 55.48C150.419 55.46 150.259 55.55 150.129 55.57C149.829 55.64 149.509 55.75 149.229 55.73C147.499 55.61 147.519 55.58 146.099 55.73C145.929 55.74 145.729 55.59 145.539 55.58C144.769 55.53 143.989 55.45 143.239 55.43C142.589 55.43 141.799 55.15 141.329 55.52C141.249 55.62 141.069 55.56 140.909 55.61C140.419 55.76 139.839 56.05 139.299 56.44C138.679 56.88 137.929 57.26 137.449 57.96C137.239 58.27 136.639 58.32 136.499 58.5C136.249 58.83 135.969 59.07 135.639 59.28C135.309 59.48 134.919 59.58 134.599 59.79C134.319 59.97 134.109 60.26 133.819 60.45C133.469 60.69 133.069 60.88 132.679 61.07C132.289 61.27 131.919 61.47 131.589 61.69C130.889 62.2 130.099 62.45 129.319 62.74C128.489 63 127.639 63.23 126.779 63.39C126.119 63.55 125.499 63.51 124.859 63.47C124.229 63.46 123.539 63.74 122.989 63.4C122.969 63.39 122.899 63.4 122.849 63.4C121.589 63.38 120.339 63.25 119.099 63.15C116.949 62.98 114.799 62.69 112.709 62.3C112.119 62.19 111.479 62.19 110.979 61.83C110.879 61.75 110.609 61.79 110.469 61.73C109.919 61.49 109.399 61.92 108.889 61.62C108.429 61.34 107.909 61.42 107.419 61.36C106.859 61.31 106.299 61.32 105.749 61.34C105.369 61.33 105.029 61.44 104.729 61.6C104.279 61.34 103.709 61.66 103.229 61.63C102.919 61.61 102.419 61.71 102.239 61.9C101.859 62.32 101.339 62.46 100.879 62.75C100.199 63.17 99.4389 63.51 98.8489 64.11C98.5989 64.37 98.1689 64.55 97.8089 64.73C97.4689 64.89 97.0889 64.97 96.7589 65.14C96.1289 65.45 95.5289 65.79 94.9689 66.25C94.4889 66.65 93.6889 66.71 93.2589 67.24C93.1989 67.31 93.0089 67.38 92.8889 67.41C92.2089 67.53 91.6289 67.69 90.9889 68.1C90.4589 68.43 89.6889 68.57 89.0089 68.74C88.2889 68.95 87.5489 69.17 86.8289 69.23C86.3689 69.28 86.2089 69.73 85.6189 69.54C85.2989 69.43 84.7389 69.6 84.2789 69.64C83.8089 69.66 83.3089 69.78 82.8589 69.73C80.4989 69.46 78.0789 69.41 75.8589 68.57C74.9289 68.23 73.8589 68.07 73.1589 67.34C72.4089 67.3 71.7589 66.7 71.0789 66.55C70.6489 66.45 70.3389 66.25 70.0089 66.06C67.8189 64.76 65.8089 63.24 63.7889 61.85C62.4589 60.93 61.0889 60.13 59.7289 59.46C59.3489 59.28 58.9689 59.13 58.6189 58.81C58.3689 58.56 57.7789 58.35 57.3289 58.49C57.2389 58.51 57.0689 58.51 57.0189 58.47C56.2989 57.92 55.4789 58.35 54.8089 58.52C54.1089 58.68 53.3189 58.94 52.4989 59.21C51.6889 59.48 50.8389 59.78 50.0089 60.13C49.6589 60.28 49.1789 60.32 48.9989 60.68C48.6389 60.57 48.4689 60.75 48.1389 60.96C47.8089 61.18 47.1989 61.4 46.8289 61.34C46.3289 61.28 45.9389 61.47 45.4989 61.53C45.0289 61.59 44.5689 61.73 44.0889 61.77C42.0889 62 40.0389 61.91 38.0989 61.44C37.7089 61.37 37.3689 61.18 37.0089 61.03C36.6489 60.88 36.1989 60.9 35.9189 60.58C35.8089 60.47 35.4289 60.38 35.1689 60.29C34.7189 60.12 34.2489 59.92 33.7989 59.72C33.3589 59.5 32.9289 59.3 32.4989 59.2C31.6189 59 30.9789 58.37 30.1489 58.37C29.9189 58.37 29.6089 58.13 29.3289 58.04C28.1989 57.67 27.0689 57.05 25.8589 57.24C25.4789 56.94 24.9589 56.93 24.4789 56.92C24.1289 56.9 23.7089 56.76 23.4189 57.04C23.3889 57.07 23.2589 57.07 23.1889 57.06C22.7589 57.01 22.3589 56.86 21.8789 56.95C21.4789 57.03 21.1689 57.21 20.7289 57.28C19.9389 57.38 19.1289 57.45 18.3289 57.57L17.0289 57.76C16.5689 57.84 16.1089 57.84 15.6489 57.91C15.1389 57.68 14.5789 57.73 14.0189 57.62C13.0489 57.48 12.0589 57.46 11.1289 56.99C10.2389 56.56 9.41885 55.93 8.60885 55.47C7.19885 54.64 6.26885 53.21 5.55885 51.78C5.37885 51.41 5.12885 51 5.22885 50.57C5.24885 50.47 5.11885 50.05 5.00885 49.95C4.78885 49.74 4.79885 49.42 4.68885 49.19C4.40885 48.49 4.92885 47.74 4.43885 47.1C4.36885 46.33 4.42885 45.55 4.45885 44.78C4.54885 44.01 4.63885 43.23 4.85885 42.48C4.93885 42.12 4.98885 41.77 5.28885 41.46C5.48885 41.26 5.67885 40.7 5.70885 40.44C5.74885 39.8 6.09885 39.27 6.43885 38.77C7.40885 37.2 8.80885 35.87 10.4489 35.01C10.8189 34.84 11.1789 34.65 11.5589 34.54L12.7189 34.23C13.1089 34.13 13.4989 34.04 13.8889 33.94C14.2789 33.83 14.6789 33.79 15.0689 33.88C15.1289 33.89 15.2089 33.88 15.2689 33.86C15.5689 33.8 15.8789 33.68 16.1889 33.67C16.5889 33.69 17.0989 33.91 17.3289 33.82C17.7789 33.63 18.0589 33.85 18.3889 33.92C19.3389 34.09 19.8489 34.62 19.6489 35.17C19.6089 35.29 19.4789 35.42 19.3389 35.5C18.8989 35.76 18.6889 35.89 18.4289 35.93C18.1689 35.98 17.8589 35.92 17.2489 35.95C15.7189 35.92 14.1489 35.8 12.7489 36.45C11.6789 36.47 10.8489 37.23 10.0289 37.79C9.18885 38.41 8.24885 39.12 7.85885 40.14C7.50885 41.15 7.06885 42.08 6.83885 43.11C6.73885 43.5 6.61885 43.88 6.54885 44.28C6.45885 44.68 6.35885 45.07 6.34885 45.48C6.26885 46.33 6.39885 47.2 6.41885 48.03C6.42885 48.28 6.41885 48.56 6.41885 48.82C6.42885 49.08 6.48885 49.34 6.60885 49.56C7.14885 50.49 7.38885 51.57 8.11885 52.32C9.07885 53.35 10.0689 54.38 11.3589 54.92C12.0589 55.18 12.7489 55.4 13.4589 55.56C13.7789 55.66 14.0889 55.69 14.4289 55.86C14.7789 56.06 15.3389 56.06 15.7889 55.87C15.9789 55.78 16.2789 55.71 16.4389 55.76C16.7889 55.84 17.1189 55.82 17.4989 55.75C17.8889 55.65 18.2789 55.56 18.6689 55.46C19.1689 55.37 19.7689 55.5 20.0489 55.36C20.5289 55.11 21.0089 55.12 21.4889 55.06C21.8289 55.01 22.2189 54.9 22.5389 55.11C22.6189 55.17 22.9589 55.17 23.0589 55.11C23.6389 54.8 24.3189 54.96 24.9389 55C26.4589 55.1 27.9789 55.45 29.3889 55.97C30.5489 56.41 31.7789 56.64 32.8089 57.33C33.5789 57.36 34.1989 57.83 34.8689 58.11C35.3889 58.31 35.8789 58.6 36.3889 58.85C36.9089 59.05 37.4489 59.14 37.9989 59.42C38.6889 59.69 39.5689 59.75 40.3689 59.79C40.8089 59.84 41.2889 59.71 41.6889 59.97C41.7389 60.01 41.9489 60 42.0189 59.96C42.5889 59.67 43.2989 59.65 43.8289 59.72C44.6889 59.78 45.4889 59.54 46.2989 59.34C46.9789 59.19 47.6289 58.93 48.2989 58.72C48.7789 58.57 49.2189 58.33 49.7589 58.25C50.1789 58.19 50.6189 57.83 51.0589 57.62C51.5089 57.41 51.9689 57.23 52.4489 57.05C52.9589 56.84 53.5089 56.66 54.0689 56.5C54.3689 56.44 54.6589 56.37 54.9589 56.32C55.2589 56.3 55.5589 56.26 55.8589 56.25C56.5089 56.25 57.1689 56.29 57.7789 56.47C58.3589 56.63 58.8789 56.92 59.3989 57.16C60.8789 57.8 62.3689 58.36 63.6189 59.34C64.0989 59.4 64.3489 59.76 64.6789 60.05C64.9889 60.31 65.3189 60.66 65.7789 60.72C65.9089 60.74 66.0689 60.87 66.2189 60.96C66.5389 61.15 66.6889 61.51 67.1389 61.64C67.4589 61.73 67.7889 62.09 68.1289 62.3C68.4889 62.52 68.7889 62.91 69.2289 62.88C69.6089 63.63 70.5389 63.47 71.0489 64C71.2089 64.17 71.4189 64.31 71.5989 64.46C71.6889 64.54 71.7789 64.65 71.8789 64.68C73.7089 65.29 75.3389 66.34 77.1889 66.77C77.4189 66.81 77.6488 66.79 77.8789 66.81C77.9889 66.81 78.1089 66.84 78.2089 66.88C79.1789 67.22 79.1789 67.24 80.1389 67.2C80.3789 67.2 80.6289 67.26 80.8789 67.25C81.5189 67.26 82.1389 67.33 82.7989 67.15C83.4489 66.94 84.1689 67.21 84.8989 67.22C85.5389 67.25 86.1789 67.29 86.8489 67.13C88.5389 66.74 90.2188 66.27 91.8389 65.6C92.0489 65.53 92.3389 65.45 92.4289 65.34C92.7689 64.86 93.0789 64.51 93.7289 64.76C93.7589 64.77 93.9189 64.69 93.9489 64.65C94.1989 64.18 94.7589 64.06 95.1989 63.84C96.8689 63 98.2389 61.72 100.049 60.86C100.329 60.72 100.699 60.45 100.919 60.46C101.369 60.47 101.419 60.07 101.809 60C102.099 59.93 102.559 59.67 102.859 59.68C103.859 59.77 104.809 59.54 105.679 59.4C106.479 59.26 107.319 59.18 108.019 59.35C109.389 59.68 110.719 59.81 112.019 60.06C113.349 60.32 114.659 60.55 115.969 60.72C116.499 60.78 117.069 60.99 117.589 60.76C117.699 60.71 117.929 60.76 118.099 60.8C118.499 60.89 118.889 61.04 119.289 61.06C119.689 61.08 120.089 61 120.499 60.97C120.829 60.94 121.129 60.98 121.469 60.84C121.709 60.74 122.139 60.84 122.519 60.97C122.899 61.11 123.299 61.25 123.719 61.35C124.129 61.42 124.579 61.44 125.059 61.38C125.489 61.34 125.909 61.23 126.329 61.17C126.759 61.11 127.179 61.03 127.589 60.89C127.929 60.78 128.279 60.74 128.599 60.47C128.879 60.23 129.439 60.09 129.869 60.03C130.529 59.89 131.119 59.68 131.609 59.2C131.779 59.04 132.019 58.92 132.229 58.8C133.539 58.04 134.789 57.15 136.049 56.22C136.349 56 136.649 55.71 137.029 55.69C137.079 55.34 137.469 55.17 137.759 54.99C138.219 54.72 138.699 54.51 139.209 54.28C139.499 54.13 139.799 53.99 140.129 53.86C140.439 53.7 140.799 53.61 141.179 53.48C141.869 53.28 142.519 53.58 143.139 53.41C143.259 53.38 143.479 53.54 143.649 53.54C144.329 53.54 145.049 53.81 145.689 53.5C145.739 53.47 145.889 53.48 145.949 53.51C146.699 53.89 147.479 53.64 148.219 53.54C149.029 53.43 149.789 53.66 150.579 53.57C151.479 53.46 152.369 53.19 153.209 53.09C154.679 52.93 155.979 52.21 157.099 51.36C158.259 50.49 159.159 49.3 159.709 47.95C159.839 47.66 159.919 47.35 159.989 47.04C160.069 46.73 160.119 46.42 160.179 46.1C160.259 45.75 160.339 45.41 160.389 45.05C160.459 44.69 160.519 44.34 160.529 44C160.609 43.35 160.549 42.71 160.489 42.07C160.429 41.77 160.269 41.48 160.429 41.17C160.459 41.11 160.399 40.93 160.349 40.87C159.969 40.41 159.749 39.98 159.659 39.37C159.619 39.21 159.439 39.04 159.349 38.86C159.239 38.61 159.049 38.43 158.849 38.28C158.649 38.13 158.459 37.98 158.249 37.84C158.059 37.7 157.919 37.5 157.739 37.33C157.559 37.17 157.349 37.04 157.099 37.04C157.029 37.04 156.859 36.9 156.819 36.83C156.359 35.81 154.949 36.05 154.339 35.19C153.869 35.29 153.649 34.82 153.349 34.73C152.909 34.61 152.479 34.52 152.039 34.33C151.669 34.18 151.309 34.04 150.909 33.96C150.189 33.82 149.429 33.56 148.639 33.75C148.379 33.81 147.899 33.84 147.589 33.58C147.539 33.53 147.359 33.54 147.249 33.55C146.389 33.62 145.349 33.4 145.099 32.98C144.959 32.73 144.929 32.41 145.019 32.13C145.059 31.99 145.459 31.88 145.709 31.77C146.139 31.58 146.569 31.34 147.059 31.28C147.639 31.21 148.279 31.29 149.039 31.37L148.999 31.31Z" fill="#A6843B"/>
<path d="M14.9209 39.29C14.9209 39.29 13.3809 34.74 15.0509 30.41C18.2809 22.07 28.5009 13.77 39.6009 16.31C64.2609 21.97 57.6909 7.52 69.2609 4.63C81.2109 1.65 85.5309 11.3 91.4409 12.21C98.2409 13.26 107.351 8.57 114.871 15.05C122.221 21.39 119.711 25 128.051 25.32C136.391 25.64 143.791 25.48 148.361 37.35" fill="white"/>
<path d="M13.2117 36.46C12.9817 35.54 13.3517 34.54 13.3817 33.5C13.4117 32.45 13.6717 31.39 14.0417 30.39C14.2117 29.87 14.3817 29.43 14.4817 28.91C14.5617 28.4 15.0617 28.02 15.0017 27.46C15.0017 27.41 15.0617 27.34 15.1017 27.27C15.3917 26.71 15.7117 26.16 16.0517 25.63C16.3717 25.08 16.7717 24.59 17.2117 24.17C18.2217 23.17 19.0617 22.07 20.1417 21.17C21.5617 19.34 23.6317 18.19 25.6217 17.07C26.2617 16.75 26.8817 16.34 27.6617 16.28C28.3217 16.26 28.9117 15.62 29.6517 15.77C29.7117 15.78 29.8117 15.68 29.9017 15.64C30.1117 15.54 30.3317 15.39 30.5517 15.37C31.2117 15.28 31.5417 15.27 31.8417 15.23C32.1417 15.18 32.4017 15.1 32.9317 14.93C33.0617 14.89 33.2317 15.01 33.3817 14.99C33.9917 14.97 34.5917 14.96 35.1917 14.9C35.7417 14.83 36.3017 15.11 36.8417 14.8C36.9617 14.74 37.1917 14.81 37.3717 14.82C37.9517 14.85 38.5117 15.01 39.0817 15.07C39.7517 15.15 40.3317 15.42 40.9617 15.28C41.2417 15.22 41.5417 15.61 41.7117 15.57C42.0117 15.51 42.2817 15.52 42.5517 15.59C42.8217 15.66 43.0617 15.83 43.3317 15.88C43.5617 15.92 43.8217 15.82 44.0617 15.85C44.6517 15.91 45.2617 16.12 45.8217 16.05C46.4117 15.95 46.9517 16.03 47.5217 16.07C48.1017 16.07 48.6817 16.15 49.2617 16.12C49.7017 16.08 50.1017 16.21 50.5317 16.27C50.9517 16.3 51.3917 16.05 51.8017 16.33C51.8217 16.34 51.8617 16.33 51.8917 16.32C52.7417 16.25 53.6217 16.19 54.4217 15.91C55.8317 15.48 57.0417 14.66 58.0917 13.65C58.3817 13.35 58.6017 12.96 59.0617 12.82C59.1617 12.79 59.2117 12.6 59.3117 12.54C59.6917 12.29 59.4917 11.72 59.9217 11.53C60.3117 11.36 60.4417 10.96 60.6717 10.66C60.9417 10.31 61.1717 9.93001 61.4417 9.57001C61.6217 9.32001 61.7617 9.07001 61.8017 8.77001C62.2517 8.68001 62.4017 8.16001 62.7717 7.94001C63.0317 7.80001 63.3617 7.54001 63.4217 7.33001C63.5617 6.85001 63.9617 6.61001 64.2917 6.31001C64.7717 5.84001 65.3817 5.55001 65.8417 5.02001C66.0317 4.78001 66.4117 4.68001 66.7117 4.55001C66.9917 4.43001 67.3217 4.45001 67.6017 4.35001C68.1217 4.15001 68.6517 4.02001 69.1417 3.71001C69.5717 3.48001 70.1917 3.65001 70.5917 3.24001C70.6417 3.19001 70.8017 3.17001 70.9017 3.18001C71.4217 3.18001 71.9017 3.29001 72.4617 3.04001C72.9217 2.85001 73.5317 2.92001 74.0817 2.97001C74.6617 3.01001 75.2717 2.92001 75.8217 3.12001C76.1717 3.23001 76.4217 2.84001 76.8017 3.18001C77.0017 3.35001 77.4617 3.38001 77.8017 3.50001C78.1517 3.61001 78.5417 3.66001 78.8517 3.82001C80.4317 4.75001 82.1317 5.36001 83.5417 6.44001C84.1317 6.89001 84.9117 7.13001 85.2417 7.84001C85.8217 7.91001 86.1717 8.48001 86.6817 8.62001C87.0017 8.70001 87.2017 8.86001 87.4317 9.02001C88.9217 10.05 90.3717 11.02 91.9517 11.13C93.0617 11.27 94.2317 11.12 95.4017 11.03C95.7317 10.99 96.0617 10.93 96.4417 11.07C96.7217 11.18 97.2117 11.14 97.5517 10.87C97.6217 10.82 97.7617 10.77 97.8117 10.79C98.5417 11.13 99.1917 10.62 99.8717 10.53C101.222 10.36 102.582 10.48 103.972 10.43C104.262 10.41 104.612 10.53 104.842 10.27C105.072 10.51 105.242 10.4 105.532 10.3C105.832 10.19 106.322 10.21 106.572 10.37C106.912 10.58 107.242 10.55 107.572 10.6L108.642 10.8C109.392 10.94 110.122 11.24 110.842 11.48L111.892 11.97C112.242 12.13 112.582 12.31 112.902 12.53C113.152 12.69 113.352 12.93 113.582 13.12C113.822 13.3 114.152 13.39 114.232 13.75C114.262 13.88 114.542 14.01 114.712 14.14C115.332 14.58 115.772 15.23 116.392 15.53C117.002 15.84 117.302 16.51 117.972 16.71C118.152 16.77 118.292 17.08 118.462 17.25C119.192 17.94 119.572 18.93 120.432 19.49C120.442 19.91 120.712 20.22 120.952 20.53C121.122 20.75 121.192 21.1 121.542 21.14C121.582 21.14 121.642 21.22 121.662 21.27C121.802 21.57 121.842 21.91 122.102 22.14C122.312 22.35 122.592 22.39 122.792 22.59C122.962 22.79 123.172 22.92 123.352 23.11C123.552 23.27 123.762 23.41 123.982 23.57C124.222 23.69 124.462 23.82 124.722 23.91C124.992 23.99 125.272 24.05 125.562 24.09C125.842 24.35 126.232 24.36 126.592 24.42C127.262 24.49 127.882 24.28 128.592 24.36C129.262 24.44 129.982 24.54 130.622 24.43C131.742 24.23 132.852 24.45 133.972 24.52C134.262 24.52 134.602 24.49 134.832 24.77C134.882 24.84 135.202 24.85 135.302 24.79C135.512 24.66 135.712 24.78 135.902 24.76C136.452 24.7 136.812 25.41 137.412 25.08C137.972 25.25 138.532 25.35 139.082 25.58C139.632 25.78 140.192 25.97 140.702 26.26C140.942 26.39 141.212 26.46 141.382 26.73C141.492 26.92 141.852 27.18 142.072 27.19C142.582 27.22 142.922 27.56 143.262 27.85L144.062 28.49C144.312 28.72 144.542 28.97 144.782 29.21C145.282 29.68 145.682 30.22 146.092 30.75C146.472 31.21 146.672 31.76 146.942 32.28C147.222 32.79 147.672 33.23 147.722 33.85C147.722 33.89 147.762 33.94 147.792 33.98C147.932 34.17 148.102 34.33 148.202 34.54C148.332 34.8 148.282 35.24 148.432 35.36C148.732 35.59 148.632 35.86 148.702 36.1C148.932 36.78 148.662 37.35 148.092 37.48C147.972 37.51 147.802 37.48 147.682 37.43C146.872 37.1 146.892 37.09 146.492 36.22C145.942 35.15 145.712 33.92 144.922 32.99C144.852 32.56 144.632 32.22 144.372 31.91C144.102 31.6 143.852 31.28 143.592 30.98C143.322 30.66 143.092 30.3 142.832 29.96C142.542 29.66 142.222 29.38 141.852 29.2C141.082 28.89 140.452 28.43 139.722 28.1C139.192 27.8 138.642 27.53 138.072 27.27C137.452 27.08 136.812 26.95 136.192 26.77C135.812 26.64 135.432 26.35 135.032 26.43C134.172 26.57 133.342 26.27 132.512 26.34C131.362 26.46 130.212 26.28 129.052 26.36C128.432 26.41 127.812 26.46 127.152 26.4C126.852 26.37 126.572 26.38 126.262 26.2C125.942 26.02 125.482 25.98 125.032 26.05C124.842 26.08 124.542 26.06 124.412 25.96C123.872 25.54 123.202 25.41 122.602 25.07C122.202 24.88 121.992 24.35 121.722 24.29C121.302 24.13 121.042 23.8 120.792 23.52C120.612 23.32 120.332 23.13 120.382 22.8C120.392 22.71 120.262 22.5 120.172 22.47C119.662 22.29 119.522 21.8 119.262 21.43C118.642 20.54 118.022 19.71 117.372 18.89C117.092 18.56 116.762 18.29 116.432 18.02C116.092 17.76 115.762 17.49 115.502 17.14C114.912 16.99 114.562 16.51 114.152 16.12C113.832 15.85 113.572 15.54 113.272 15.24C112.992 14.92 112.612 14.77 112.302 14.44C112.112 14.24 111.852 14.07 111.582 13.94C111.292 13.83 111.002 13.74 110.732 13.6C110.442 13.45 110.052 13.47 109.852 13.13C109.822 13.08 109.672 13.04 109.612 13.06C109.112 13.21 108.632 12.99 108.262 12.82C107.972 12.67 107.672 12.58 107.362 12.52C107.052 12.48 106.742 12.47 106.432 12.42C105.922 12.32 105.382 12.38 104.862 12.33C104.482 12.29 104.112 12.38 103.712 12.26C103.402 12.18 103.002 12.34 102.642 12.39C102.282 12.44 101.912 12.45 101.542 12.48L100.342 12.6L99.1317 12.73C98.6917 12.78 98.2517 12.85 97.8117 12.87C97.3917 12.89 96.9717 12.81 96.5517 12.83C95.3817 12.91 94.2217 13.28 92.9917 13.12C92.6517 13.34 92.3317 13.12 91.9917 13.06C91.6717 12.99 91.3217 12.87 90.9417 12.99C90.8317 13.03 90.6617 12.97 90.5117 12.95C90.1717 12.92 89.9917 12.62 89.6017 12.62C89.3217 12.62 88.9717 12.39 88.6917 12.24C88.3817 12.1 88.1217 11.78 87.7217 11.87C87.4517 11.2 86.6217 11.43 86.2617 10.93C86.1517 10.78 86.0017 10.64 85.8717 10.5C85.8017 10.43 85.7517 10.32 85.6717 10.29C84.2417 9.69001 83.2317 8.55001 81.9617 7.85001C81.8017 7.77001 81.6217 7.75001 81.4517 7.69001C81.3717 7.66001 81.2817 7.62001 81.2217 7.56001C80.6417 7.02001 80.6117 7.05001 79.9117 6.85001C79.7317 6.80001 79.5817 6.68001 79.4017 6.62001C78.9417 6.48001 78.5417 6.23001 78.0217 6.22001C77.5017 6.26001 77.1017 5.80001 76.6217 5.55001C76.2017 5.36001 75.7717 5.16001 75.2717 5.08001L73.3617 5.01001C72.7217 5.07001 72.0817 5.09001 71.4417 5.16001C71.2817 5.19001 71.0517 5.17001 70.9817 5.26001C70.6617 5.63001 70.4017 5.88001 69.9517 5.45001C69.9317 5.43001 69.8017 5.45001 69.7717 5.49001C69.5217 5.84001 69.1317 5.84001 68.7917 5.91001C67.5117 6.28001 66.5917 7.19001 65.5817 7.92001C65.4117 8.04001 65.2517 8.28001 65.1017 8.30001C64.7617 8.33001 64.9217 8.66001 64.7117 8.78001C64.5317 8.88001 64.4417 9.18001 64.2717 9.24001C63.6417 9.49001 63.3017 10.1 63.0517 10.64C62.8117 11.14 62.5817 11.68 62.2017 12.04C61.4517 12.75 60.9217 13.64 60.1917 14.43C59.4517 15.24 58.6017 16 57.6617 16.63C57.2817 16.91 56.7817 17 56.5317 17.46C56.4717 17.55 56.2717 17.6 56.1217 17.64C55.7817 17.74 55.4217 17.77 55.1017 17.87C54.7817 17.97 54.4917 18.21 54.1617 18.32C53.9017 18.42 53.6417 18.45 53.3917 18.66C53.2117 18.81 52.8317 18.77 52.4817 18.68C51.8017 18.5 51.1417 18.23 50.3517 18.33C49.6517 18.39 48.9517 18.37 48.2517 18.34C47.9617 18.34 47.6817 18.31 47.3617 18.43C47.0717 18.53 46.6017 18.43 46.2717 18.31C45.7517 18.12 45.2717 18.03 44.7317 18.13C44.5417 18.16 44.3317 18.13 44.1317 18.11C42.9317 17.93 41.7417 17.72 40.5717 17.46C40.2917 17.4 39.9717 17.39 39.7917 17.13C39.5417 17.33 39.2717 17.19 39.0517 17.14C38.7017 17.05 38.3717 16.88 38.0117 16.8C37.5917 16.68 37.1617 16.68 36.7217 16.82C36.3217 16.94 35.8517 16.67 35.4217 16.87C35.3417 16.91 35.1717 16.78 35.0517 16.8C34.5717 16.88 34.0117 16.67 33.6017 17.05C33.5717 17.08 33.4617 17.1 33.4217 17.08C32.8217 16.83 32.3017 17.17 31.7817 17.35C31.2217 17.6 30.6217 17.47 30.0417 17.63C29.4017 17.87 28.7817 18.21 28.1217 18.32C27.5717 18.46 27.0517 18.67 26.5417 18.91C26.0517 19.18 25.5817 19.49 25.0917 19.76C24.1117 20.36 23.1717 21.03 22.3117 21.8C21.9217 22.12 21.6517 22.56 21.3117 22.92C20.9317 23.32 20.5117 23.69 20.1517 24.12C19.8117 24.51 19.4417 24.89 19.1317 25.31C18.9817 25.5 18.8917 25.77 18.5917 25.82C18.5317 25.82 18.4217 25.94 18.4117 26.01C18.3217 26.5 18.1017 26.86 17.6717 27.12C17.5517 27.2 17.4917 27.39 17.3817 27.5C17.0717 27.82 17.0917 28.26 16.9517 28.63C16.8317 28.97 16.4317 29.24 16.6117 29.67C16.6317 29.73 16.5617 29.89 16.5017 29.92C16.1217 30.14 16.0117 30.54 15.9817 30.92C15.9417 31.3 15.9317 31.66 15.6117 31.94C15.8317 32.27 15.4517 32.48 15.4517 32.71C15.4517 33.03 15.5217 33.35 15.4617 33.68C15.4417 33.99 15.3917 34.3 15.4217 34.61C15.4417 35.18 15.3417 35.77 15.6417 36.32C15.7517 36.5 15.8417 36.84 15.6417 37.11C15.6017 37.16 15.6317 37.28 15.6517 37.36C15.8417 37.96 15.7817 38.75 15.4017 39.03C15.1717 39.19 14.8717 39.3 14.5917 39.3C14.4517 39.3 14.2817 39.03 14.1417 38.86C13.8917 38.57 13.5917 38.3 13.4517 37.94C13.2817 37.51 13.2717 37.02 13.2217 36.43L13.2117 36.46Z" fill="#A6843B"/>
<path d="M67.8698 53.42C67.6498 53.41 66.9798 53.51 66.7498 53.51C66.4198 53.52 65.9698 53.54 65.6298 53.55C64.6898 53.56 64.2398 53.59 63.2998 53.6C62.8598 53.6 61.5598 53.83 61.0798 53.63C60.6598 53.46 61.0598 53.35 60.6898 53.16C60.5998 53.11 60.7598 52.8 60.9498 52.73C61.3598 52.57 61.8698 52.41 62.3398 52.4C63.3498 52.38 64.2898 52.55 65.2998 52.59C66.3298 52.63 67.3898 52.69 68.4098 52.77C68.6898 52.79 69.1798 52.89 69.1798 52.93C69.1598 53.17 69.1098 53.28 68.6298 53.31C68.5498 53.31 67.9598 53.42 67.8698 53.42Z" fill="#B09151"/>
<path d="M80.4383 57.04C80.4383 57.16 80.1783 57.25 79.6883 57.32C78.5783 57.47 77.0883 57.4 75.9083 57.4C74.0683 57.4 72.1183 57.53 70.2883 57.54C70.0083 57.54 69.7083 57.59 69.4683 57.64C68.6983 57.82 67.5883 57.52 67.1083 57.28C65.8483 56.65 67.0183 56.34 67.8583 56.18C68.0783 56.14 68.9383 56.09 69.4883 56.12C70.7983 56.19 72.2383 56.16 73.5383 56.24C75.4983 56.36 77.4883 56.43 79.4183 56.6C79.8583 56.64 80.1383 56.72 80.2883 56.83C80.3683 56.89 80.4483 56.99 80.4483 57.04H80.4383Z" fill="#B09151"/>
<path d="M27.5681 27.7C28.9381 27.64 32.0281 27.73 30.2581 27.07C28.7481 26.51 26.8681 26.49 25.0081 26.52C23.9081 26.54 22.6181 26.52 22.0781 26.94C22.0781 27.55 23.8181 27.93 25.3281 27.84C26.0781 27.79 26.8181 27.73 27.5781 27.7H27.5681Z" fill="#B09151"/>
<path d="M42.4303 22.68C40.1403 22.77 36.3003 22.83 34.6803 22.89C33.1003 22.95 31.5203 23.06 29.9503 23.05C29.1703 23.05 28.3203 22.83 27.7203 22.66C27.5403 22.61 28.0703 22.37 28.2803 22.22C29.1803 21.58 31.1503 21.81 32.8503 21.81C34.6503 21.81 39.4503 22.02 41.2503 21.99C43.3603 21.96 43.6203 22.09 42.8403 22.62C42.7303 22.69 42.1903 22.72 42.4303 22.69V22.68Z" fill="#B09151"/>
<path d="M32.4617 32.28C32.4617 32.4 32.2017 32.49 31.7117 32.56C30.6017 32.71 29.1117 32.64 27.9317 32.64C26.0917 32.64 24.1417 32.77 22.3117 32.78C22.0317 32.78 21.7317 32.83 21.4917 32.88C20.7217 33.06 19.6117 32.76 19.1317 32.52C17.8717 31.89 19.0417 31.58 19.8817 31.42C20.1017 31.38 20.9617 31.33 21.5117 31.36C22.8217 31.43 24.2617 31.4 25.5617 31.48C27.5217 31.6 29.5117 31.67 31.4417 31.84C31.8817 31.88 32.1617 31.96 32.3117 32.07C32.3917 32.13 32.4717 32.23 32.4717 32.28H32.4617Z" fill="#B09151"/>
<path d="M147.081 44.62C147.221 44.62 147.361 44.62 147.511 44.62C147.961 44.62 148.391 44.58 148.841 44.58C150.281 44.58 151.721 44.55 153.161 44.54C154.501 44.54 155.841 44.54 157.171 44.58C157.411 44.58 157.781 44.8 157.741 44.9C157.671 45.08 157.461 45.33 157.061 45.39C156.451 45.48 155.631 45.47 154.901 45.45C152.611 45.41 151.611 45.29 149.321 45.25C148.691 45.24 146.871 45.15 146.241 45.14C145.771 45.14 145.351 45.14 144.881 45.1C144.821 45.1 144.561 45.02 144.571 45.02C144.641 44.83 144.471 44.95 144.681 44.78C144.811 44.67 145.741 44.66 145.991 44.65C146.351 44.63 146.721 44.62 147.081 44.62Z" fill="#B09151"/>
<path d="M150.079 48.93C149.229 48.97 147.319 48.91 148.409 49.39C149.349 49.8 150.509 49.82 151.659 49.79C152.339 49.77 153.139 49.79 153.479 49.48C153.479 49.04 152.399 48.75 151.469 48.82C151.009 48.86 150.549 48.9 150.079 48.93Z" fill="#B09151"/>
<path d="M147.129 40.63C147.129 40.55 147.289 40.49 147.579 40.44C148.249 40.34 149.139 40.39 149.859 40.39C150.969 40.39 152.139 40.31 153.249 40.3C153.419 40.3 153.599 40.27 153.739 40.23C154.199 40.11 154.869 40.31 155.159 40.47C155.919 40.88 155.209 41.09 154.709 41.2C154.569 41.23 154.059 41.26 153.729 41.24C152.939 41.2 152.079 41.22 151.289 41.16C150.109 41.08 148.909 41.03 147.749 40.92C147.479 40.9 147.319 40.84 147.229 40.77C147.179 40.73 147.129 40.66 147.129 40.63Z" fill="#B09151"/>
</svg>
