<svg width="318" height="68" viewBox="0 0 318 68" fill="none" xmlns="http://www.w3.org/2000/svg">
<path d="M2 12C2 7.58172 5.58172 4 10 4H174C178.418 4 182 7.58172 182 12V56C182 60.4183 178.418 64 174 64H10C5.58172 64 2 60.4183 2 56V12Z" fill="white"/>
<path d="M165.17 65.3413C162.74 65.5313 160.16 65.0013 157.42 65.0913C154.68 65.1813 151.9 65.1313 149.14 65.1013C147.75 65.0913 146.43 65.1713 145.08 65.3313C143.78 65.4813 142.27 65.1413 141.03 65.5713C140.92 65.6113 140.66 65.5713 140.47 65.5713C137.14 65.5713 133.73 65.7513 130.5 65.5213C126.73 65.2613 123.02 65.4413 119.29 65.3313C113.21 65.8313 107.07 65.4613 100.96 65.5513C99.05 65.5813 97.13 65.6713 95.17 65.3713C93.5 65.1113 91.46 65.5813 89.71 65.1213C89.57 65.0813 89.22 65.1813 88.96 65.2013C88.34 65.2513 87.69 65.3713 87.11 65.3313C83.61 65.0713 83.62 65.0713 80.69 65.3013C80.34 65.3313 79.92 65.1413 79.52 65.1313C77.91 65.1013 76.29 65.0713 74.68 65.1213C73.23 65.1613 71.7 64.9013 70.32 65.3313C70.02 65.4213 69.39 65.3413 68.92 65.3413C67.4 65.3413 65.87 65.3113 64.35 65.3413C62.61 65.3813 60.84 65.1813 59.14 65.5513C58.4 65.7113 57.32 65.2813 56.88 65.3813C56.06 65.5513 55.3 65.5913 54.5 65.5613C53.71 65.5313 52.94 65.3613 52.16 65.3513C51.48 65.3513 50.8 65.5413 50.11 65.5613C48.4 65.5913 46.57 65.4213 45 65.6113C43.32 65.8213 41.71 65.7713 40.07 65.7913C38.36 65.8213 36.64 65.7613 34.93 65.8113C33.6 65.8513 32.41 65.6713 31.17 65.5713C29.93 65.4713 28.53 65.7713 27.4 65.3413C27.35 65.3213 27.21 65.3413 27.12 65.3413C24.53 65.2613 21.95 65.1413 19.36 65.1213L12.65 65.1013C11.51 65.1013 10.45 65.1213 9.25 65.0913C7.96 65.0513 6.66 64.7313 5.5 64.1613C4.19 63.5413 2.84 62.5813 2.32 61.2713C2.2 61.0113 1.78 60.5613 1.64 60.2113C1.4 59.5513 1.05 59.0313 0.77 58.4613C0.5 57.8913 0.28 57.2713 0.38 56.5713C0.48 55.9213 0.51 55.4013 0.51 54.8513C0.51 54.3013 0.48 53.7513 0.49 53.2013C0.52 51.9713 0.49 50.7213 0.5 49.4913C0.51 48.6413 0.46 47.8613 0.26 47.1613C0.67 46.2213 0.39 44.8813 0.59 43.7813C0.72 43.0513 0.84 41.9313 0.7 41.4013C0.39 40.2213 0.54 39.0413 0.5 37.8813C0.45 36.1413 0.58 34.3913 0.28 32.6713C0.16 31.9413 0.23 30.9713 0.27 30.1213C0.31 29.3313 0.47 28.5713 0.48 27.7813C0.51 26.3213 0.5 24.8813 0.28 23.4313C0.09 22.1713 0.47 20.6413 0.04 19.3813C-0.02 19.2113 0 18.8013 0.04 18.5413C0.22 17.1713 0.32 15.9313 0.08 14.4013C0 13.7813 0 13.0813 0 12.3513L0.02 11.8013L0.07 11.1413C0.09 10.7013 0.2 10.2713 0.26 9.86128C0.45 8.97128 0.76 8.10128 1.17 7.29128C1.61 6.49128 2.16 5.76128 2.81 5.17128C3.24 4.81128 3.46 4.43128 3.78 4.10128C4.08 3.75128 4.48 3.44128 5.16 3.28128C5.87 3.09128 7.17 2.52128 8.28 2.41128C8.56 2.36128 8.84 2.35128 9.13 2.33128L9.56 2.30128H9.92C10.4 2.28128 10.87 2.28128 11.32 2.33128C16.07 2.79128 20.89 2.41128 25.65 2.56128C27.67 2.62128 29.78 2.28128 31.7 2.78128C33.12 2.40128 34.87 2.73128 36.24 2.47128C37.1 2.31128 37.86 2.32128 38.66 2.32128L54.37 2.30128C57.82 2.27128 61.26 2.14128 64.7 2.09128C65.67 2.08128 66.61 2.03128 67.67 2.26128C68.44 2.43128 69.85 2.45128 70.88 2.15128C71.08 2.09128 71.49 2.04128 71.64 2.08128C73.6 2.63128 75.54 2.06128 77.46 2.04128C81.23 2.00128 84.91 2.34128 88.65 2.30128C89.45 2.30128 90.38 2.46128 91 2.09128C91.61 2.40128 92.08 2.25128 92.83 2.11128C93.61 1.97128 94.9 1.95128 95.58 2.12128C96.51 2.36128 97.37 2.27128 98.27 2.30128C99.22 2.33128 100.17 2.30128 101.12 2.30128C105.13 2.38128 109.15 2.46128 113.16 2.54128C113.95 2.56128 114.71 2.70128 115.5 2.76128C116.29 2.82128 117.14 2.65128 117.89 2.96128C118.17 3.08128 118.98 2.99128 119.54 2.99128C121.54 2.99128 123.7 3.19128 125.49 2.94128C127.26 2.69128 129.16 3.00128 130.81 2.55128C131.27 2.42128 132.12 2.55128 132.78 2.53128C135.46 2.42128 138.22 2.80128 140.83 2.30128C141.79 2.61128 142.93 2.55128 144.02 2.52128C144.82 2.50128 145.74 2.68128 146.4 2.33128C146.48 2.29128 146.76 2.29128 146.93 2.30128C147.9 2.38128 148.76 2.60128 149.84 2.54128C150.74 2.49128 151.47 2.27128 152.46 2.28128C156.01 2.30128 159.5 2.70128 163.07 2.53128C164.05 2.81128 165.16 2.76128 166.26 2.77128C168.21 2.78128 170.03 2.44128 172.02 2.52128C172.49 2.54128 172.97 2.56128 173.45 2.58128C173.97 2.61128 174.55 2.64128 175.09 2.75128C176.18 2.94128 177.22 3.30128 178.17 3.72128C179.82 4.47128 181.18 5.82128 182.02 7.44128C182.45 8.25128 182.72 9.13128 182.9 10.0213C183.07 10.9013 183.07 11.8913 183.09 12.5913C183.11 13.3813 183.23 14.2613 182.89 14.9813C182.81 15.1513 182.85 16.0113 182.95 16.2513C183.16 16.7513 183.03 17.3413 183.11 17.8313C183.33 19.2213 182.47 20.5713 183.11 21.9313V31.0713C183.1 31.7813 183.17 32.4713 182.94 33.2113C182.79 33.7013 182.76 34.8713 182.9 35.3613C183.23 36.5213 183.09 37.7113 183.1 38.8813C183.12 42.4013 183.13 45.9213 183.1 49.4513C183.09 50.9913 182.95 52.5313 182.88 54.0713C182.86 54.4613 182.86 54.8513 182.87 55.2513V55.8413V56.5313C182.8 57.4413 182.6 58.3613 182.13 59.1113C182.07 59.2213 182.02 59.4013 181.96 59.5313C181.71 60.1913 181.45 60.8813 181 61.4213C180.43 62.1513 179.37 62.7613 179.02 63.1213C178.34 63.9313 177.58 64.0013 176.87 64.2513C175.83 64.6213 174.9 64.5613 174.33 64.3513C173.75 64.1213 173.53 63.7813 173.63 63.3913C173.68 63.2213 173.89 63.0213 174.12 62.8813C174.85 62.4113 175.13 62.1113 175.54 61.9013C175.93 61.6413 176.48 61.4913 177.35 60.8213C178.45 59.9713 179.34 58.8413 179.78 57.4913C179.9 57.1613 179.97 56.8113 180.04 56.4613L180.09 55.9213C180.11 55.7413 180.11 55.4913 180.11 55.2813C180.13 54.4013 180.13 53.5113 180.08 52.6213C180.51 50.2913 180.23 47.8313 180.32 45.4313C180.41 42.9413 180.77 40.4113 180.52 37.9813C180.27 35.5613 180.33 33.1713 180.33 30.7713C180.33 28.9413 180.5 27.1213 180.54 25.2913C180.58 23.3913 180.47 21.4513 180.58 19.5913C180.65 18.4413 180.92 17.2113 180.76 16.1213C180.58 14.9213 180.57 13.7113 180.58 12.5013C180.58 11.8713 180.6 11.3613 180.51 10.8413C180.44 10.3213 180.29 9.82128 180.06 9.36128C179.45 8.09128 178.52 7.00128 177.38 6.21128C176.22 5.45128 174.87 5.04128 173.48 5.13128C171.74 5.22128 170.02 5.32128 168.28 5.31128C167.48 5.31128 166.73 5.31128 165.87 5.15128C165 4.98128 163.73 4.98128 162.64 5.21128C162.19 5.31128 161.44 5.38128 161.06 5.30128C159.46 4.94128 157.77 5.09128 156.13 5.10128C155.09 5.10128 153.92 4.78128 153.3 4.91128C152.25 5.14128 151.3 5.04128 150.32 5.07128C149.62 5.09128 148.83 5.20128 148.21 4.90128C148.04 4.82128 147.36 4.80128 147.16 4.86128C145.99 5.26128 144.64 5.06128 143.37 5.07128C140.33 5.10128 137.28 5.10128 134.23 5.07128C131.71 5.05128 129.29 5.48128 126.76 5.31128C125.22 5.71128 123.5 5.53128 121.86 5.53128C120.6 5.53128 119.35 5.39128 118.1 5.31128C116.85 5.23128 115.62 5.31128 114.3 5.13128C112.67 4.91128 110.72 5.11128 108.92 5.07128C107.94 5.05128 106.84 5.27128 105.96 4.89128C105.84 4.84128 105.39 4.85128 105.22 4.89128C103.93 5.29128 102.3 5.18128 101.15 5.02128C99.27 4.77128 97.47 4.88128 95.64 4.84128C94.12 4.84128 92.59 4.83128 91.07 4.82128C89.98 4.79128 88.91 4.88128 87.77 4.71128C86.89 4.58128 85.73 4.80128 84.69 4.82128C83.65 4.85128 82.6 4.82128 81.55 4.82128H74.7C73.46 4.82128 72.22 4.85128 70.99 4.82128C69.82 4.78128 68.68 4.62128 67.51 4.61128C64.25 4.56128 61.04 4.99128 57.75 4.83128C56.86 5.12128 56 4.91128 55.07 4.85128C54.22 4.80128 53.22 4.68128 52.36 4.97128C52.12 5.05128 51.67 5.03128 51.31 5.05128C50.52 5.09128 49.83 4.82128 48.89 5.02128C48.23 5.17128 47.21 5.02128 46.36 5.05128C45.47 5.08128 44.45 4.88128 43.7 5.24128C42.13 4.70128 40.63 5.53128 39.07 5.28128C38.58 5.20128 38.04 5.17128 37.52 5.12128C37.26 5.09128 36.97 5.02128 36.75 5.05128C32.59 5.54128 28.33 5.14128 24.13 5.28128C23.61 5.30128 23.12 5.40128 22.6 5.45128C22.35 5.47128 22.07 5.49128 21.83 5.46128C19.53 5.26128 19.54 5.27128 17.39 5.46128C16.85 5.51128 16.26 5.46128 15.7 5.49128C14.25 5.55128 12.83 5.45128 11.33 5.68128C10.95 5.74128 10.57 5.75128 10.18 5.75128C9.99 5.75128 9.79 5.73128 9.59 5.72128C9.43 5.72128 9.29 5.70128 9.13 5.68128C8.53 5.64128 7.87 5.60128 7.26 5.76128C6.17 6.00128 5.08 6.56128 4.29 7.57128C3.8 8.20128 3.41 8.92128 3.18 9.68128C2.93 10.4713 2.86 11.1913 2.86 12.1013V17.8113C2.86 18.2913 2.77 18.9413 2.86 19.2113C3.26 20.3013 3.53 21.2713 2.86 22.3113C2.83 22.3613 2.83 22.7613 2.86 22.8413C3.28 23.7813 3.08 25.0013 3.06 26.0513C3.01 30.0913 3.48 34.0513 3.31 38.0913C3.28 38.7413 3.39 39.6213 3.25 40.0113C2.96 40.8213 3.43 41.2113 3.32 41.9213C3.23 42.5113 3.4 43.3813 3.28 43.8813C2.85 45.6713 2.98 47.6713 3.12 49.3513C3.25 50.9313 3.4 52.5613 3.26 53.9813L3.17 55.0313C3.15 55.3713 3.12 55.7613 3.13 56.0113C3.1 56.5813 3.23 57.1313 3.36 57.6813C3.71 58.7513 4.32 59.7413 5.15 60.5013C5.98 61.3113 7.05 61.8513 8.18 62.1113C8.47 62.1513 8.75 62.2213 9.04 62.2313C9.32 62.2413 9.61 62.2613 10 62.2513L12.14 62.2313C13.31 62.2213 14.56 62.3913 15.64 62.0213C15.86 61.9413 16.39 61.9913 16.76 62.0213C17.64 62.0813 18.51 62.2313 19.38 62.2313C20.25 62.2313 21.12 62.0813 22 62.0213C22.71 61.9713 23.38 62.0213 24.11 61.8213C24.64 61.6713 25.58 61.7913 26.42 61.9913C28.09 62.3913 29.82 62.7913 31.96 62.7213C33.85 62.6613 35.77 62.7213 37.67 62.7013C38.47 62.7013 39.22 62.7213 40.08 62.5313C40.85 62.3613 42.14 62.4313 43.07 62.5613C44.54 62.7613 45.89 62.7813 47.33 62.5613C47.82 62.4813 48.41 62.4813 48.96 62.4813H58.95C59.75 62.4813 60.61 62.4113 61.26 62.6913C61.79 62.3613 62.63 62.4713 63.33 62.4913C64.4 62.5313 65.45 62.6713 66.52 62.7013C67.79 62.7313 69.03 62.7013 70.3 62.5013C71.47 62.3113 72.88 62.6213 74.14 62.3413C74.38 62.2913 74.87 62.4813 75.22 62.4613C76.67 62.3913 78.23 62.7013 79.57 62.2413C79.68 62.2013 79.99 62.2013 80.12 62.2413C81.78 62.7013 83.43 62.3513 85.08 62.2413C86.88 62.1113 88.51 62.4913 90.27 62.4813C92.27 62.4713 94.35 62.3313 96.25 62.5113C99.52 62.8213 102.77 62.6713 106.03 62.7013C109.36 62.7413 112.69 62.7313 116.02 62.7013C117.47 62.6913 118.9 62.5213 120.35 62.4913C121.96 62.4513 123.59 62.4913 125.2 62.4913H129.77C130.48 62.5013 131.27 62.3713 131.9 62.6613C132.03 62.7213 132.46 62.7413 132.64 62.6913C133.94 62.3813 135.2 62.4013 136.53 62.6813C136.91 62.7613 137.46 62.6813 137.91 62.7313C139.16 62.8413 140.23 62.5713 141.39 62.4913C142.45 62.4113 143.66 62.7013 144.61 62.2713C144.74 62.2113 145.26 62.2113 145.43 62.2713C147.56 62.9913 150 61.7913 152.12 62.4613C152.97 62.0513 153.85 62.5213 154.52 62.4613C155.49 62.3713 156.43 62.2613 157.45 62.2713C158.4 62.2713 159.36 62.3013 160.3 62.2713C162.03 62.2213 163.79 62.4113 165.52 62.0713C166.1 61.9613 167.19 61.8813 167.9 62.2113C168.03 62.2713 168.41 62.2613 168.65 62.2413C170.55 62.1113 172.87 62.4713 173.35 63.0713C173.63 63.4213 173.6 63.8513 173.38 64.2113C173.27 64.3913 172.44 64.5013 171.92 64.6313C171.01 64.8613 170.14 65.1713 169.15 65.2613C167.97 65.3713 166.69 65.2913 165.15 65.2913L165.17 65.3413Z" fill="#9C7625"/>
<g clip-path="url(#clip0_533_1573)">
<path d="M156.02 10.001C156.02 5.5827 159.601 2.00098 164.02 2.00098H308.02C312.438 2.00098 316.02 5.5827 316.02 10.001V58.001C316.02 62.4193 312.438 66.001 308.02 66.001H164.02C159.601 66.001 156.02 62.4193 156.02 58.001V10.001Z" fill="#B09151"/>
<path d="M299.769 67.3513C297.509 67.5413 295.109 67.0113 292.549 67.1013C289.989 67.1913 287.409 67.1413 284.839 67.1113C283.539 67.1013 282.309 67.1813 281.059 67.3413C279.849 67.4913 278.449 67.1513 277.289 67.5813C277.189 67.6213 276.949 67.5813 276.769 67.5813C273.669 67.5813 270.489 67.7613 267.479 67.5313C263.969 67.2713 260.509 67.4513 257.039 67.3413C251.379 67.8413 245.659 67.4713 239.969 67.5613C238.189 67.5913 236.399 67.6813 234.579 67.3813C233.019 67.1213 231.119 67.5913 229.489 67.1313C229.359 67.0913 229.039 67.1913 228.799 67.2113C228.229 67.2613 227.619 67.3813 227.069 67.3413C223.809 67.0813 223.819 67.0813 221.089 67.3113C220.769 67.3413 220.369 67.1513 219.999 67.1413C218.499 67.1113 216.989 67.0813 215.489 67.1313C214.139 67.1713 212.709 66.9113 211.429 67.3413C211.149 67.4313 210.569 67.3513 210.119 67.3513C208.699 67.3513 207.279 67.3213 205.869 67.3513C204.249 67.3913 202.599 67.1913 201.019 67.5613C200.329 67.7213 199.329 67.2913 198.909 67.3913C198.149 67.5613 197.439 67.6013 196.689 67.5713C195.959 67.5413 195.239 67.3713 194.509 67.3613C193.879 67.3613 193.239 67.5513 192.599 67.5713C191.009 67.6013 189.299 67.4313 187.839 67.6213C186.269 67.8313 184.779 67.7813 183.249 67.8013C181.659 67.8313 180.049 67.7713 178.469 67.8213C177.229 67.8613 176.129 67.6813 174.959 67.5813C173.799 67.4813 172.499 67.7813 171.449 67.3513C171.399 67.3313 171.279 67.3513 171.189 67.3513C168.779 67.2713 166.369 67.1513 163.959 67.1313H163.569L163.119 67.1013C162.819 67.0913 162.519 67.0613 162.219 67.0113C161.619 66.9313 161.029 66.7813 160.459 66.5713C159.319 66.1613 158.269 65.5313 157.369 64.7213C155.569 63.1213 154.429 60.7713 154.319 58.3513L154.289 57.8413V57.3913L154.269 56.4913C154.269 55.8913 154.329 55.3113 154.509 54.7613C154.579 54.5313 154.479 54.0313 154.529 53.7213C154.729 52.5713 154.049 51.6513 154.359 50.5513C154.639 49.5613 154.479 48.5213 154.509 47.5013C154.539 46.3513 154.509 45.1913 154.519 44.0413C154.529 43.2513 154.479 42.5313 154.279 41.8713C154.689 40.9913 154.409 39.7513 154.609 38.7213C154.739 38.0413 154.859 37.0013 154.719 36.5013C154.409 35.4013 154.559 34.3113 154.519 33.2213C154.469 31.6013 154.599 29.9713 154.299 28.3713C154.179 27.6913 154.249 26.7913 154.289 26.0013C154.329 25.2613 154.489 24.5513 154.499 23.8213C154.529 22.4613 154.519 21.1213 154.299 19.7713C154.109 18.6013 154.489 17.1713 154.059 16.0013C153.999 15.8513 154.019 15.4613 154.059 15.2213C154.239 13.9413 154.339 12.7913 154.099 11.3713C154.049 11.0813 154.019 10.7713 154.009 10.4513C153.999 10.1313 153.989 9.82128 154.029 9.39128C154.059 8.58128 154.279 7.76128 154.489 7.00128C154.999 5.40128 155.899 3.82128 157.199 2.82128C157.999 2.20128 158.149 1.39128 159.449 1.14128C160.129 1.01128 161.339 0.48128 162.369 0.39128C162.629 0.34128 162.899 0.34128 163.159 0.32128C163.439 0.30128 163.689 0.29128 163.899 0.29128C164.349 0.29128 164.789 0.29128 165.209 0.33128C169.629 0.79128 174.119 0.41128 178.559 0.56128C180.439 0.62128 182.409 0.28128 184.189 0.78128C185.509 0.40128 187.139 0.73128 188.419 0.47128C189.229 0.31128 189.929 0.32128 190.669 0.32128L205.299 0.30128C208.509 0.27128 211.709 0.14128 214.919 0.0912802C215.819 0.0812802 216.699 0.0312802 217.679 0.26128C218.399 0.43128 219.709 0.45128 220.669 0.15128C220.859 0.0912802 221.239 0.0412802 221.379 0.0812802C223.199 0.63128 225.009 0.0612802 226.799 0.0412802C230.309 0.00128021 233.739 0.34128 237.219 0.30128C237.959 0.30128 238.829 0.46128 239.409 0.0912802C239.979 0.40128 240.409 0.25128 241.119 0.11128C241.849 -0.0287198 243.039 -0.0487198 243.679 0.12128C244.549 0.36128 245.349 0.27128 246.179 0.30128C247.059 0.33128 247.949 0.30128 248.839 0.30128C252.579 0.38128 256.319 0.46128 260.059 0.54128C260.789 0.56128 261.509 0.70128 262.239 0.76128C262.969 0.82128 263.769 0.65128 264.469 0.96128C264.729 1.08128 265.479 0.99128 266.009 0.99128C267.869 0.99128 269.889 1.19128 271.549 0.94128C273.199 0.69128 274.969 1.00128 276.499 0.55128C276.929 0.42128 277.719 0.55128 278.329 0.53128C280.819 0.42128 283.389 0.80128 285.819 0.30128C286.719 0.61128 287.779 0.55128 288.789 0.52128C289.529 0.50128 290.389 0.68128 290.999 0.33128C291.069 0.29128 291.329 0.29128 291.489 0.30128C292.389 0.38128 293.189 0.60128 294.199 0.54128C295.039 0.49128 295.719 0.27128 296.639 0.28128C299.949 0.30128 303.199 0.70128 306.529 0.53128C307.379 0.80128 308.599 0.73128 309.729 1.03128C311.689 1.51128 313.629 2.35128 314.929 4.12128C316.159 5.77128 316.719 7.93128 316.909 9.84128C317.229 12.7113 317.029 15.5613 317.099 18.4213C317.119 19.1513 317.239 19.9813 316.899 20.6413C316.819 20.8013 316.859 21.6013 316.959 21.8213C317.169 22.2913 317.039 22.8413 317.119 23.2913C317.339 24.5813 316.479 25.8413 317.119 27.1113V35.6213C317.109 36.2813 317.179 36.9213 316.949 37.6113C316.799 38.0713 316.769 39.1613 316.909 39.6213C317.239 40.7013 317.099 41.8113 317.109 42.9013C317.129 46.1813 317.139 49.4613 317.109 52.7413C317.099 54.1813 316.959 55.6113 316.889 57.0413C316.849 57.7213 316.909 58.6213 316.749 59.4613C316.609 60.3013 316.329 61.1313 315.829 61.7913C315.759 61.8813 315.699 62.0413 315.639 62.1713C315.359 62.7613 315.069 63.3813 314.619 63.8713C314.059 64.5413 312.999 64.9813 312.689 65.3513C312.009 66.0613 311.319 66.1313 310.649 66.3213C309.669 66.6313 308.809 66.5713 308.279 66.3413C307.739 66.1013 307.529 65.7713 307.629 65.3813C307.669 65.2113 307.869 65.0113 308.089 64.8713C308.769 64.4113 309.029 64.1213 309.419 63.9213C309.789 63.6813 310.299 63.5613 311.139 62.9713C312.179 62.2013 313.099 61.2413 313.619 60.0213C313.889 59.4213 314.069 58.7713 314.109 58.1013C314.149 57.8013 314.139 57.3213 314.139 56.9313C314.139 56.5213 314.119 56.1013 314.099 55.6913C314.529 53.5213 314.249 51.2213 314.339 49.0013C314.429 46.6813 314.789 44.3213 314.539 42.0613C314.289 39.8013 314.349 37.5813 314.349 35.3513C314.349 33.6513 314.519 31.9513 314.559 30.2513C314.599 28.4813 314.489 26.6813 314.599 24.9413C314.669 23.8613 314.939 22.7313 314.779 21.7113C314.419 19.4813 314.729 17.1913 314.549 15.0113C314.419 13.4913 314.399 11.9713 314.389 10.4513V9.88128L314.359 9.39128C314.359 9.07128 314.269 8.76128 314.229 8.44128C314.079 7.82128 313.839 7.23128 313.519 6.69128C312.789 5.54128 311.759 4.66128 310.599 4.05128C310.069 3.76128 309.529 3.60128 308.919 3.29128C308.599 3.15128 308.189 3.05128 307.739 3.05128C307.259 3.05128 306.679 3.11128 306.189 3.23128C305.769 3.33128 305.069 3.40128 304.719 3.32128C303.229 2.96128 301.659 3.11128 300.129 3.12128C299.159 3.12128 298.079 2.80128 297.499 2.93128C296.519 3.16128 295.629 3.06128 294.719 3.09128C294.069 3.11128 293.329 3.22128 292.749 2.92128C292.589 2.84128 291.959 2.82128 291.769 2.88128C290.679 3.28128 289.419 3.08128 288.239 3.09128C285.399 3.12128 282.569 3.12128 279.729 3.09128C277.389 3.07128 275.129 3.50128 272.769 3.33128C271.329 3.73128 269.729 3.55128 268.199 3.55128C267.029 3.55128 265.859 3.41128 264.699 3.33128C263.529 3.25128 262.389 3.33128 261.159 3.15128C259.639 2.93128 257.829 3.13128 256.149 3.09128C255.239 3.07128 254.219 3.29128 253.389 2.91128C253.279 2.86128 252.859 2.87128 252.699 2.91128C251.499 3.31128 249.979 3.20128 248.909 3.04128C247.159 2.79128 245.479 2.90128 243.769 2.86128C242.359 2.86128 240.929 2.85128 239.519 2.84128C238.499 2.81128 237.509 2.90128 236.439 2.73128C235.619 2.60128 234.539 2.82128 233.569 2.84128C232.599 2.87128 231.619 2.84128 230.649 2.84128H224.269C223.119 2.84128 221.959 2.87128 220.809 2.84128C219.719 2.80128 218.649 2.64128 217.569 2.63128C214.529 2.58128 211.539 3.01128 208.479 2.85128C207.649 3.14128 206.849 2.93128 205.989 2.87128C205.189 2.82128 204.259 2.70128 203.469 2.99128C203.249 3.07128 202.829 3.05128 202.499 3.07128C201.759 3.11128 201.119 2.84128 200.249 3.04128C199.629 3.19128 198.679 3.04128 197.889 3.07128C197.059 3.10128 196.119 2.90128 195.419 3.26128C193.959 2.72128 192.559 3.55128 191.099 3.30128C190.639 3.22128 190.139 3.19128 189.659 3.14128C189.419 3.11128 189.149 3.04128 188.939 3.07128C185.059 3.56128 181.099 3.16128 177.189 3.30128C176.709 3.32128 176.249 3.42128 175.769 3.47128C175.539 3.49128 175.279 3.51128 175.049 3.48128C172.909 3.28128 172.909 3.29128 170.909 3.48128C170.409 3.53128 169.859 3.48128 169.339 3.51128C167.989 3.57128 166.669 3.47128 165.269 3.70128C164.919 3.76128 164.559 3.77128 164.199 3.77128C164.019 3.77128 163.839 3.75128 163.649 3.74128C163.509 3.74128 163.369 3.72128 163.229 3.70128C162.659 3.64128 162.059 3.61128 161.479 3.73128C160.459 3.93128 159.409 4.37128 158.629 5.28128C157.639 6.40128 157.039 7.84128 156.949 9.33128C156.919 9.67128 156.919 10.1313 156.919 10.5813V11.9113V14.5713C156.919 15.0113 156.839 15.6313 156.929 15.8713C157.329 16.8913 157.599 17.7913 156.929 18.7613C156.899 18.8113 156.899 19.1713 156.929 19.2613C157.349 20.1313 157.149 21.2713 157.129 22.2513C157.079 26.0113 157.549 29.7013 157.379 33.4713C157.349 34.0813 157.459 34.9013 157.319 35.2513C157.029 36.0113 157.499 36.3713 157.389 37.0313C157.299 37.5813 157.469 38.3913 157.349 38.8513C156.919 40.5213 157.049 42.3813 157.189 43.9513C157.319 45.4213 157.469 46.9413 157.329 48.2613C157.039 50.8613 157.169 53.4513 157.139 56.0413C157.139 56.6813 157.119 57.4213 157.139 57.9913C157.139 58.5313 157.239 59.0713 157.379 59.5913C157.669 60.6313 158.259 61.5813 159.019 62.3413C159.619 62.9613 160.389 63.6513 161.279 63.6013C161.459 63.5813 161.789 63.7713 162.049 63.8413C162.349 63.9713 162.659 64.0513 162.979 64.1513C163.309 64.2013 163.599 64.2713 164.039 64.2613C164.849 64.2613 165.659 64.1113 166.479 64.0513C167.139 64.0013 167.759 64.0513 168.439 63.8513C168.939 63.7013 169.809 63.8213 170.589 64.0213C172.139 64.4213 173.759 64.8213 175.749 64.7513C177.509 64.6913 179.289 64.7513 181.069 64.7313C181.809 64.7313 182.509 64.7513 183.309 64.5613C184.029 64.3913 185.229 64.4613 186.089 64.5913C187.459 64.7913 188.719 64.8113 190.059 64.5913C190.519 64.5113 191.069 64.5113 191.579 64.5113H200.889C201.639 64.5113 202.429 64.4413 203.039 64.7213C203.529 64.3913 204.309 64.5013 204.969 64.5213C205.969 64.5613 206.949 64.7013 207.939 64.7313C209.119 64.7613 210.279 64.7313 211.459 64.5313C212.549 64.3413 213.859 64.6513 215.039 64.3713C215.259 64.3213 215.719 64.5113 216.049 64.4913C217.399 64.4213 218.849 64.7313 220.099 64.2713C220.199 64.2313 220.489 64.2313 220.609 64.2713C222.159 64.7313 223.699 64.3813 225.229 64.2713C226.899 64.1413 228.429 64.5213 230.059 64.5113C231.919 64.5013 233.859 64.3613 235.629 64.5413C238.679 64.8513 241.699 64.7013 244.739 64.7313C247.839 64.7713 250.949 64.7613 254.049 64.7313C255.399 64.7213 256.739 64.5513 258.089 64.5213C259.589 64.4813 261.099 64.5213 262.609 64.5213H266.869C267.529 64.5313 268.269 64.4013 268.849 64.6913C268.969 64.7513 269.379 64.7713 269.539 64.7213C270.759 64.4113 271.929 64.4313 273.159 64.7113C273.509 64.7913 274.029 64.7113 274.449 64.7613C275.609 64.8713 276.609 64.6013 277.689 64.5213C278.679 64.4413 279.799 64.7313 280.689 64.3013C280.809 64.2413 281.299 64.2413 281.449 64.3013C283.429 65.0213 285.709 63.8213 287.679 64.4913C288.469 64.0813 289.289 64.5513 289.909 64.4913C290.819 64.4013 291.689 64.2913 292.639 64.3013C293.529 64.3013 294.419 64.3313 295.299 64.3013C296.919 64.2513 298.549 64.4413 300.169 64.1013C300.709 63.9913 301.719 63.9113 302.379 64.2413C302.499 64.3013 302.849 64.2913 303.079 64.2713C304.849 64.1413 307.009 64.5013 307.449 65.1013C307.709 65.4513 307.679 65.8813 307.479 66.2413C307.379 66.4213 306.609 66.5313 306.119 66.6613C305.269 66.8913 304.459 67.2013 303.539 67.2913C302.449 67.4013 301.249 67.3213 299.819 67.3213L299.769 67.3513Z" fill="#9C7625"/>
</g>
<defs>
<clipPath id="clip0_533_1573">
<rect width="164" height="68" fill="white" transform="translate(154)"/>
</clipPath>
</defs>
</svg>
