<svg width="318" height="68" viewBox="0 0 318 68" fill="none" xmlns="http://www.w3.org/2000/svg">
<path d="M136 12C136 7.58172 139.582 4 144 4H308C312.418 4 316 7.58172 316 12V56C316 60.4183 312.418 64 308 64H144C139.582 64 136 60.4183 136 56V12Z" fill="white"/>
<path d="M299.17 65.3413C296.74 65.5313 294.16 65.0013 291.42 65.0913C288.68 65.1813 285.9 65.1313 283.14 65.1013C281.75 65.0913 280.43 65.1713 279.08 65.3313C277.78 65.4813 276.27 65.1413 275.03 65.5713C274.92 65.6113 274.66 65.5713 274.47 65.5713C271.14 65.5713 267.73 65.7513 264.5 65.5213C260.73 65.2613 257.02 65.4413 253.29 65.3313C247.21 65.8313 241.07 65.4613 234.96 65.5513C233.05 65.5813 231.13 65.6713 229.17 65.3713C227.5 65.1113 225.46 65.5813 223.71 65.1213C223.57 65.0813 223.22 65.1813 222.96 65.2013C222.34 65.2513 221.69 65.3713 221.11 65.3313C217.61 65.0713 217.62 65.0713 214.69 65.3013C214.34 65.3313 213.92 65.1413 213.52 65.1313C211.91 65.1013 210.29 65.0713 208.68 65.1213C207.23 65.1613 205.7 64.9013 204.32 65.3313C204.02 65.4213 203.39 65.3413 202.92 65.3413C201.4 65.3413 199.87 65.3113 198.35 65.3413C196.61 65.3813 194.84 65.1813 193.14 65.5513C192.4 65.7113 191.32 65.2813 190.88 65.3813C190.06 65.5513 189.3 65.5913 188.5 65.5613C187.71 65.5313 186.94 65.3613 186.16 65.3513C185.48 65.3513 184.8 65.5413 184.11 65.5613C182.4 65.5913 180.57 65.4213 179 65.6113C177.32 65.8213 175.71 65.7713 174.07 65.7913C172.36 65.8213 170.64 65.7613 168.93 65.8113C167.6 65.8513 166.41 65.6713 165.17 65.5713C163.93 65.4713 162.53 65.7713 161.4 65.3413C161.35 65.3213 161.21 65.3413 161.12 65.3413C158.53 65.2613 155.95 65.1413 153.36 65.1213L146.65 65.1013C145.51 65.1013 144.45 65.1213 143.25 65.0913C141.96 65.0513 140.66 64.7313 139.5 64.1613C138.19 63.5413 136.84 62.5813 136.32 61.2713C136.2 61.0113 135.78 60.5613 135.64 60.2113C135.4 59.5513 135.05 59.0313 134.77 58.4613C134.5 57.8913 134.28 57.2713 134.38 56.5713C134.48 55.9213 134.51 55.4013 134.51 54.8513C134.51 54.3013 134.48 53.7513 134.49 53.2013C134.52 51.9713 134.49 50.7213 134.5 49.4913C134.51 48.6413 134.46 47.8613 134.26 47.1613C134.67 46.2213 134.39 44.8813 134.59 43.7813C134.72 43.0513 134.84 41.9313 134.7 41.4013C134.39 40.2213 134.54 39.0413 134.5 37.8813C134.45 36.1413 134.58 34.3913 134.28 32.6713C134.16 31.9413 134.23 30.9713 134.27 30.1213C134.31 29.3313 134.47 28.5713 134.48 27.7813C134.51 26.3213 134.5 24.8813 134.28 23.4313C134.09 22.1713 134.47 20.6413 134.04 19.3813C133.98 19.2113 134 18.8013 134.04 18.5413C134.22 17.1713 134.32 15.9313 134.08 14.4013C134 13.7813 134 13.0813 134 12.3513L134.02 11.8013L134.07 11.1413C134.09 10.7013 134.2 10.2713 134.26 9.86128C134.45 8.97128 134.76 8.10128 135.17 7.29128C135.61 6.49128 136.16 5.76128 136.81 5.17128C137.24 4.81128 137.46 4.43128 137.78 4.10128C138.08 3.75128 138.48 3.44128 139.16 3.28128C139.87 3.09128 141.17 2.52128 142.28 2.41128C142.56 2.36128 142.84 2.35128 143.13 2.33128L143.56 2.30128H143.92C144.4 2.28128 144.87 2.28128 145.32 2.33128C150.07 2.79128 154.89 2.41128 159.65 2.56128C161.67 2.62128 163.78 2.28128 165.7 2.78128C167.12 2.40128 168.87 2.73128 170.24 2.47128C171.1 2.31128 171.86 2.32128 172.66 2.32128L188.37 2.30128C191.82 2.27128 195.26 2.14128 198.7 2.09128C199.67 2.08128 200.61 2.03128 201.67 2.26128C202.44 2.43128 203.85 2.45128 204.88 2.15128C205.08 2.09128 205.49 2.04128 205.64 2.08128C207.6 2.63128 209.54 2.06128 211.46 2.04128C215.23 2.00128 218.91 2.34128 222.65 2.30128C223.45 2.30128 224.38 2.46128 225 2.09128C225.61 2.40128 226.08 2.25128 226.83 2.11128C227.61 1.97128 228.9 1.95128 229.58 2.12128C230.51 2.36128 231.37 2.27128 232.27 2.30128C233.22 2.33128 234.17 2.30128 235.12 2.30128C239.13 2.38128 243.15 2.46128 247.16 2.54128C247.95 2.56128 248.71 2.70128 249.5 2.76128C250.29 2.82128 251.14 2.65128 251.89 2.96128C252.17 3.08128 252.98 2.99128 253.54 2.99128C255.54 2.99128 257.7 3.19128 259.49 2.94128C261.26 2.69128 263.16 3.00128 264.81 2.55128C265.27 2.42128 266.12 2.55128 266.78 2.53128C269.46 2.42128 272.22 2.80128 274.83 2.30128C275.79 2.61128 276.93 2.55128 278.02 2.52128C278.82 2.50128 279.74 2.68128 280.4 2.33128C280.48 2.29128 280.76 2.29128 280.93 2.30128C281.9 2.38128 282.76 2.60128 283.84 2.54128C284.74 2.49128 285.47 2.27128 286.46 2.28128C290.01 2.30128 293.5 2.70128 297.07 2.53128C298.05 2.81128 299.16 2.76128 300.26 2.77128C302.21 2.78128 304.03 2.44128 306.02 2.52128C306.49 2.54128 306.97 2.56128 307.45 2.58128C307.97 2.61128 308.55 2.64128 309.09 2.75128C310.18 2.94128 311.22 3.30128 312.17 3.72128C313.82 4.47128 315.18 5.82128 316.02 7.44128C316.45 8.25128 316.72 9.13128 316.9 10.0213C317.07 10.9013 317.07 11.8913 317.09 12.5913C317.11 13.3813 317.23 14.2613 316.89 14.9813C316.81 15.1513 316.85 16.0113 316.95 16.2513C317.16 16.7513 317.03 17.3413 317.11 17.8313C317.33 19.2213 316.47 20.5713 317.11 21.9313V31.0713C317.1 31.7813 317.17 32.4713 316.94 33.2113C316.79 33.7013 316.76 34.8713 316.9 35.3613C317.23 36.5213 317.09 37.7113 317.1 38.8813C317.12 42.4013 317.13 45.9213 317.1 49.4513C317.09 50.9913 316.95 52.5313 316.88 54.0713C316.86 54.4613 316.86 54.8513 316.87 55.2513V55.8413V56.5313C316.8 57.4413 316.6 58.3613 316.13 59.1113C316.07 59.2213 316.02 59.4013 315.96 59.5313C315.71 60.1913 315.45 60.8813 315 61.4213C314.43 62.1513 313.37 62.7613 313.02 63.1213C312.34 63.9313 311.58 64.0013 310.87 64.2513C309.83 64.6213 308.9 64.5613 308.33 64.3513C307.75 64.1213 307.53 63.7813 307.63 63.3913C307.68 63.2213 307.89 63.0213 308.12 62.8813C308.85 62.4113 309.13 62.1113 309.54 61.9013C309.93 61.6413 310.48 61.4913 311.35 60.8213C312.45 59.9713 313.34 58.8413 313.78 57.4913C313.9 57.1613 313.97 56.8113 314.04 56.4613L314.09 55.9213C314.11 55.7413 314.11 55.4913 314.11 55.2813C314.13 54.4013 314.13 53.5113 314.08 52.6213C314.51 50.2913 314.23 47.8313 314.32 45.4313C314.41 42.9413 314.77 40.4113 314.52 37.9813C314.27 35.5613 314.33 33.1713 314.33 30.7713C314.33 28.9413 314.5 27.1213 314.54 25.2913C314.58 23.3913 314.47 21.4513 314.58 19.5913C314.65 18.4413 314.92 17.2113 314.76 16.1213C314.58 14.9213 314.57 13.7113 314.58 12.5013C314.58 11.8713 314.6 11.3613 314.51 10.8413C314.44 10.3213 314.29 9.82128 314.06 9.36128C313.45 8.09128 312.52 7.00128 311.38 6.21128C310.22 5.45128 308.87 5.04128 307.48 5.13128C305.74 5.22128 304.02 5.32128 302.28 5.31128C301.48 5.31128 300.73 5.31128 299.87 5.15128C299 4.98128 297.73 4.98128 296.64 5.21128C296.19 5.31128 295.44 5.38128 295.06 5.30128C293.46 4.94128 291.77 5.09128 290.13 5.10128C289.09 5.10128 287.92 4.78128 287.3 4.91128C286.25 5.14128 285.3 5.04128 284.32 5.07128C283.62 5.09128 282.83 5.20128 282.21 4.90128C282.04 4.82128 281.36 4.80128 281.16 4.86128C279.99 5.26128 278.64 5.06128 277.37 5.07128C274.33 5.10128 271.28 5.10128 268.23 5.07128C265.71 5.05128 263.29 5.48128 260.76 5.31128C259.22 5.71128 257.5 5.53128 255.86 5.53128C254.6 5.53128 253.35 5.39128 252.1 5.31128C250.85 5.23128 249.62 5.31128 248.3 5.13128C246.67 4.91128 244.72 5.11128 242.92 5.07128C241.94 5.05128 240.84 5.27128 239.96 4.89128C239.84 4.84128 239.39 4.85128 239.22 4.89128C237.93 5.29128 236.3 5.18128 235.15 5.02128C233.27 4.77128 231.47 4.88128 229.64 4.84128C228.12 4.84128 226.59 4.83128 225.07 4.82128C223.98 4.79128 222.91 4.88128 221.77 4.71128C220.89 4.58128 219.73 4.80128 218.69 4.82128C217.65 4.85128 216.6 4.82128 215.55 4.82128H208.7C207.46 4.82128 206.22 4.85128 204.99 4.82128C203.82 4.78128 202.68 4.62128 201.51 4.61128C198.25 4.56128 195.04 4.99128 191.75 4.83128C190.86 5.12128 190 4.91128 189.07 4.85128C188.22 4.80128 187.22 4.68128 186.36 4.97128C186.12 5.05128 185.67 5.03128 185.31 5.05128C184.52 5.09128 183.83 4.82128 182.89 5.02128C182.23 5.17128 181.21 5.02128 180.36 5.05128C179.47 5.08128 178.45 4.88128 177.7 5.24128C176.13 4.70128 174.63 5.53128 173.07 5.28128C172.58 5.20128 172.04 5.17128 171.52 5.12128C171.26 5.09128 170.97 5.02128 170.75 5.05128C166.59 5.54128 162.33 5.14128 158.13 5.28128C157.61 5.30128 157.12 5.40128 156.6 5.45128C156.35 5.47128 156.07 5.49128 155.83 5.46128C153.53 5.26128 153.54 5.27128 151.39 5.46128C150.85 5.51128 150.26 5.46128 149.7 5.49128C148.25 5.55128 146.83 5.45128 145.33 5.68128C144.95 5.74128 144.57 5.75128 144.18 5.75128C143.99 5.75128 143.79 5.73128 143.59 5.72128C143.43 5.72128 143.29 5.70128 143.13 5.68128C142.53 5.64128 141.87 5.60128 141.26 5.76128C140.17 6.00128 139.08 6.56128 138.29 7.57128C137.8 8.20128 137.41 8.92128 137.18 9.68128C136.93 10.4713 136.86 11.1913 136.86 12.1013V17.8113C136.86 18.2913 136.77 18.9413 136.86 19.2113C137.26 20.3013 137.53 21.2713 136.86 22.3113C136.83 22.3613 136.83 22.7613 136.86 22.8413C137.28 23.7813 137.08 25.0013 137.06 26.0513C137.01 30.0913 137.48 34.0513 137.31 38.0913C137.28 38.7413 137.39 39.6213 137.25 40.0113C136.96 40.8213 137.43 41.2113 137.32 41.9213C137.23 42.5113 137.4 43.3813 137.28 43.8813C136.85 45.6713 136.98 47.6713 137.12 49.3513C137.25 50.9313 137.4 52.5613 137.26 53.9813L137.17 55.0313C137.15 55.3713 137.12 55.7613 137.13 56.0113C137.1 56.5813 137.23 57.1313 137.36 57.6813C137.71 58.7513 138.32 59.7413 139.15 60.5013C139.98 61.3113 141.05 61.8513 142.18 62.1113C142.47 62.1513 142.75 62.2213 143.04 62.2313C143.32 62.2413 143.61 62.2613 144 62.2513L146.14 62.2313C147.31 62.2213 148.56 62.3913 149.64 62.0213C149.86 61.9413 150.39 61.9913 150.76 62.0213C151.64 62.0813 152.51 62.2313 153.38 62.2313C154.25 62.2313 155.12 62.0813 156 62.0213C156.71 61.9713 157.38 62.0213 158.11 61.8213C158.64 61.6713 159.58 61.7913 160.42 61.9913C162.09 62.3913 163.82 62.7913 165.96 62.7213C167.85 62.6613 169.77 62.7213 171.67 62.7013C172.47 62.7013 173.22 62.7213 174.08 62.5313C174.85 62.3613 176.14 62.4313 177.07 62.5613C178.54 62.7613 179.89 62.7813 181.33 62.5613C181.82 62.4813 182.41 62.4813 182.96 62.4813H192.95C193.75 62.4813 194.61 62.4113 195.26 62.6913C195.79 62.3613 196.63 62.4713 197.33 62.4913C198.4 62.5313 199.45 62.6713 200.52 62.7013C201.79 62.7313 203.03 62.7013 204.3 62.5013C205.47 62.3113 206.88 62.6213 208.14 62.3413C208.38 62.2913 208.87 62.4813 209.22 62.4613C210.67 62.3913 212.23 62.7013 213.57 62.2413C213.68 62.2013 213.99 62.2013 214.12 62.2413C215.78 62.7013 217.43 62.3513 219.08 62.2413C220.88 62.1113 222.51 62.4913 224.27 62.4813C226.27 62.4713 228.35 62.3313 230.25 62.5113C233.52 62.8213 236.77 62.6713 240.03 62.7013C243.36 62.7413 246.69 62.7313 250.02 62.7013C251.47 62.6913 252.9 62.5213 254.35 62.4913C255.96 62.4513 257.59 62.4913 259.2 62.4913H263.77C264.48 62.5013 265.27 62.3713 265.9 62.6613C266.03 62.7213 266.46 62.7413 266.64 62.6913C267.94 62.3813 269.2 62.4013 270.53 62.6813C270.91 62.7613 271.46 62.6813 271.91 62.7313C273.16 62.8413 274.23 62.5713 275.39 62.4913C276.45 62.4113 277.66 62.7013 278.61 62.2713C278.74 62.2113 279.26 62.2113 279.43 62.2713C281.56 62.9913 284 61.7913 286.12 62.4613C286.97 62.0513 287.85 62.5213 288.52 62.4613C289.49 62.3713 290.43 62.2613 291.45 62.2713C292.4 62.2713 293.36 62.3013 294.3 62.2713C296.03 62.2213 297.79 62.4113 299.52 62.0713C300.1 61.9613 301.19 61.8813 301.9 62.2113C302.03 62.2713 302.41 62.2613 302.65 62.2413C304.55 62.1113 306.87 62.4713 307.35 63.0713C307.63 63.4213 307.6 63.8513 307.38 64.2113C307.27 64.3913 306.44 64.5013 305.92 64.6313C305.01 64.8613 304.14 65.1713 303.15 65.2613C301.97 65.3713 300.69 65.2913 299.15 65.2913L299.17 65.3413Z" fill="#9C7625"/>
<g clip-path="url(#clip0_533_1562)">
<path d="M2.01953 10.001C2.01953 5.5827 5.60125 2.00098 10.0195 2.00098H154.02C158.438 2.00098 162.02 5.5827 162.02 10.001V58.001C162.02 62.4193 158.438 66.001 154.02 66.001H10.0195C5.60126 66.001 2.01953 62.4193 2.01953 58.001V10.001Z" fill="#B09151"/>
<path d="M145.769 67.3513C143.509 67.5413 141.109 67.0113 138.549 67.1013C135.989 67.1913 133.409 67.1413 130.839 67.1113C129.539 67.1013 128.309 67.1813 127.059 67.3413C125.849 67.4913 124.449 67.1513 123.289 67.5813C123.189 67.6213 122.949 67.5813 122.769 67.5813C119.669 67.5813 116.489 67.7613 113.479 67.5313C109.969 67.2713 106.509 67.4513 103.039 67.3413C97.3789 67.8413 91.6589 67.4713 85.9689 67.5613C84.1889 67.5913 82.3989 67.6813 80.5789 67.3813C79.0189 67.1213 77.1189 67.5913 75.4889 67.1313C75.3589 67.0913 75.0389 67.1913 74.7989 67.2113C74.2289 67.2613 73.6189 67.3813 73.0689 67.3413C69.8089 67.0813 69.8189 67.0813 67.0889 67.3113C66.7689 67.3413 66.3689 67.1513 65.9989 67.1413C64.4989 67.1113 62.9889 67.0813 61.4889 67.1313C60.1389 67.1713 58.7089 66.9113 57.4289 67.3413C57.1489 67.4313 56.5689 67.3513 56.1189 67.3513C54.6989 67.3513 53.2789 67.3213 51.8689 67.3513C50.2489 67.3913 48.5989 67.1913 47.0189 67.5613C46.3289 67.7213 45.3289 67.2913 44.9089 67.3913C44.1489 67.5613 43.4389 67.6013 42.6889 67.5713C41.9589 67.5413 41.2389 67.3713 40.5089 67.3613C39.8789 67.3613 39.2389 67.5513 38.5989 67.5713C37.0089 67.6013 35.2989 67.4313 33.8389 67.6213C32.2689 67.8313 30.7789 67.7813 29.2489 67.8013C27.6589 67.8313 26.0489 67.7713 24.4689 67.8213C23.2289 67.8613 22.1289 67.6813 20.9589 67.5813C19.7989 67.4813 18.4989 67.7813 17.4489 67.3513C17.3989 67.3313 17.2789 67.3513 17.1889 67.3513C14.7789 67.2713 12.3689 67.1513 9.95894 67.1313H9.56894L9.11895 67.1013C8.81894 67.0913 8.51894 67.0613 8.21894 67.0113C7.61894 66.9313 7.02894 66.7813 6.45894 66.5713C5.31894 66.1613 4.26894 65.5313 3.36894 64.7213C1.56894 63.1213 0.428944 60.7713 0.318944 58.3513L0.288944 57.8413V57.3913L0.268944 56.4913C0.268944 55.8913 0.328944 55.3113 0.508944 54.7613C0.578944 54.5313 0.478944 54.0313 0.528944 53.7213C0.728944 52.5713 0.0489443 51.6513 0.358944 50.5513C0.638944 49.5613 0.478944 48.5213 0.508944 47.5013C0.538944 46.3513 0.508944 45.1913 0.518944 44.0413C0.528944 43.2513 0.478944 42.5313 0.278944 41.8713C0.688944 40.9913 0.408944 39.7513 0.608944 38.7213C0.738944 38.0413 0.858944 37.0013 0.718944 36.5013C0.408944 35.4013 0.558944 34.3113 0.518944 33.2213C0.468944 31.6013 0.598944 29.9713 0.298944 28.3713C0.178944 27.6913 0.248944 26.7913 0.288944 26.0013C0.328944 25.2613 0.488944 24.5513 0.498944 23.8213C0.528944 22.4613 0.518944 21.1213 0.298944 19.7713C0.108944 18.6013 0.488944 17.1713 0.0589443 16.0013C-0.00105573 15.8513 0.0189443 15.4613 0.0589443 15.2213C0.238944 13.9413 0.338944 12.7913 0.0989443 11.3713C0.0489443 11.0813 0.0189443 10.7713 0.00894427 10.4513C-0.00105573 10.1313 -0.0110557 9.82128 0.0289443 9.39128C0.0589443 8.58128 0.278944 7.76128 0.488944 7.00128C0.998944 5.40128 1.89894 3.82128 3.19894 2.82128C3.99894 2.20128 4.14894 1.39128 5.44894 1.14128C6.12894 1.01128 7.33895 0.48128 8.36895 0.39128C8.62895 0.34128 8.89894 0.34128 9.15895 0.32128C9.43894 0.30128 9.68894 0.29128 9.89894 0.29128C10.3489 0.29128 10.7889 0.29128 11.2089 0.33128C15.6289 0.79128 20.1189 0.41128 24.5589 0.56128C26.4389 0.62128 28.4089 0.28128 30.1889 0.78128C31.5089 0.40128 33.1389 0.73128 34.4189 0.47128C35.2289 0.31128 35.9289 0.32128 36.6689 0.32128L51.2989 0.30128C54.5089 0.27128 57.7089 0.14128 60.9189 0.0912802C61.8189 0.0812802 62.6989 0.0312802 63.6789 0.26128C64.3989 0.43128 65.7089 0.45128 66.6689 0.15128C66.8589 0.0912802 67.2389 0.0412802 67.3789 0.0812802C69.1989 0.63128 71.0089 0.0612802 72.7989 0.0412802C76.3089 0.00128021 79.7389 0.34128 83.2189 0.30128C83.9589 0.30128 84.8289 0.46128 85.4089 0.0912802C85.9789 0.40128 86.4089 0.25128 87.1189 0.11128C87.8489 -0.0287198 89.0389 -0.0487198 89.6789 0.12128C90.549 0.36128 91.3489 0.27128 92.1789 0.30128C93.0589 0.33128 93.9489 0.30128 94.8389 0.30128C98.5789 0.38128 102.319 0.46128 106.059 0.54128C106.789 0.56128 107.509 0.70128 108.239 0.76128C108.969 0.82128 109.769 0.65128 110.469 0.96128C110.729 1.08128 111.479 0.99128 112.009 0.99128C113.869 0.99128 115.889 1.19128 117.549 0.94128C119.199 0.69128 120.969 1.00128 122.499 0.55128C122.929 0.42128 123.719 0.55128 124.329 0.53128C126.819 0.42128 129.389 0.80128 131.819 0.30128C132.719 0.61128 133.779 0.55128 134.789 0.52128C135.529 0.50128 136.389 0.68128 136.999 0.33128C137.069 0.29128 137.329 0.29128 137.489 0.30128C138.389 0.38128 139.189 0.60128 140.199 0.54128C141.039 0.49128 141.719 0.27128 142.639 0.28128C145.949 0.30128 149.199 0.70128 152.529 0.53128C153.379 0.80128 154.599 0.73128 155.729 1.03128C157.689 1.51128 159.629 2.35128 160.929 4.12128C162.159 5.77128 162.719 7.93128 162.909 9.84128C163.229 12.7113 163.029 15.5613 163.099 18.4213C163.119 19.1513 163.239 19.9813 162.899 20.6413C162.819 20.8013 162.859 21.6013 162.959 21.8213C163.169 22.2913 163.039 22.8413 163.119 23.2913C163.339 24.5813 162.479 25.8413 163.119 27.1113V35.6213C163.109 36.2813 163.179 36.9213 162.949 37.6113C162.799 38.0713 162.769 39.1613 162.909 39.6213C163.239 40.7013 163.099 41.8113 163.109 42.9013C163.129 46.1813 163.139 49.4613 163.109 52.7413C163.099 54.1813 162.959 55.6113 162.889 57.0413C162.849 57.7213 162.909 58.6213 162.749 59.4613C162.609 60.3013 162.329 61.1313 161.829 61.7913C161.759 61.8813 161.699 62.0413 161.639 62.1713C161.359 62.7613 161.069 63.3813 160.619 63.8713C160.059 64.5413 158.999 64.9813 158.689 65.3513C158.009 66.0613 157.319 66.1313 156.649 66.3213C155.669 66.6313 154.809 66.5713 154.279 66.3413C153.739 66.1013 153.529 65.7713 153.629 65.3813C153.669 65.2113 153.869 65.0113 154.089 64.8713C154.769 64.4113 155.029 64.1213 155.419 63.9213C155.789 63.6813 156.299 63.5613 157.139 62.9713C158.179 62.2013 159.099 61.2413 159.619 60.0213C159.889 59.4213 160.069 58.7713 160.109 58.1013C160.149 57.8013 160.139 57.3213 160.139 56.9313C160.139 56.5213 160.119 56.1013 160.099 55.6913C160.529 53.5213 160.249 51.2213 160.339 49.0013C160.429 46.6813 160.789 44.3213 160.539 42.0613C160.289 39.8013 160.349 37.5813 160.349 35.3513C160.349 33.6513 160.519 31.9513 160.559 30.2513C160.599 28.4813 160.489 26.6813 160.599 24.9413C160.669 23.8613 160.939 22.7313 160.779 21.7113C160.419 19.4813 160.729 17.1913 160.549 15.0113C160.419 13.4913 160.399 11.9713 160.389 10.4513V9.88128L160.359 9.39128C160.359 9.07128 160.269 8.76128 160.229 8.44128C160.079 7.82128 159.839 7.23128 159.519 6.69128C158.789 5.54128 157.759 4.66128 156.599 4.05128C156.069 3.76128 155.529 3.60128 154.919 3.29128C154.599 3.15128 154.189 3.05128 153.739 3.05128C153.259 3.05128 152.679 3.11128 152.189 3.23128C151.769 3.33128 151.069 3.40128 150.719 3.32128C149.229 2.96128 147.659 3.11128 146.129 3.12128C145.159 3.12128 144.079 2.80128 143.499 2.93128C142.519 3.16128 141.629 3.06128 140.719 3.09128C140.069 3.11128 139.329 3.22128 138.749 2.92128C138.589 2.84128 137.959 2.82128 137.769 2.88128C136.679 3.28128 135.419 3.08128 134.239 3.09128C131.399 3.12128 128.569 3.12128 125.729 3.09128C123.389 3.07128 121.129 3.50128 118.769 3.33128C117.329 3.73128 115.729 3.55128 114.199 3.55128C113.029 3.55128 111.859 3.41128 110.699 3.33128C109.529 3.25128 108.389 3.33128 107.159 3.15128C105.639 2.93128 103.829 3.13128 102.149 3.09128C101.239 3.07128 100.219 3.29128 99.3889 2.91128C99.2789 2.86128 98.8589 2.87128 98.6989 2.91128C97.4989 3.31128 95.9789 3.20128 94.9089 3.04128C93.1589 2.79128 91.4789 2.90128 89.7689 2.86128C88.3589 2.86128 86.9289 2.85128 85.5189 2.84128C84.4989 2.81128 83.5089 2.90128 82.4389 2.73128C81.6189 2.60128 80.5389 2.82128 79.5689 2.84128C78.5989 2.87128 77.6189 2.84128 76.6489 2.84128H70.2689C69.1189 2.84128 67.9589 2.87128 66.8089 2.84128C65.7189 2.80128 64.6489 2.64128 63.5689 2.63128C60.5289 2.58128 57.5389 3.01128 54.4789 2.85128C53.6489 3.14128 52.8489 2.93128 51.9889 2.87128C51.1889 2.82128 50.2589 2.70128 49.4689 2.99128C49.2489 3.07128 48.8289 3.05128 48.4989 3.07128C47.7589 3.11128 47.1189 2.84128 46.2489 3.04128C45.6289 3.19128 44.6789 3.04128 43.8889 3.07128C43.0589 3.10128 42.1189 2.90128 41.4189 3.26128C39.9589 2.72128 38.5589 3.55128 37.0989 3.30128C36.6389 3.22128 36.1389 3.19128 35.6589 3.14128C35.4189 3.11128 35.1489 3.04128 34.9389 3.07128C31.0589 3.56128 27.0989 3.16128 23.1889 3.30128C22.7089 3.32128 22.2489 3.42128 21.7689 3.47128C21.5389 3.49128 21.2789 3.51128 21.0489 3.48128C18.9089 3.28128 18.9089 3.29128 16.9089 3.48128C16.4089 3.53128 15.8589 3.48128 15.3389 3.51128C13.9889 3.57128 12.6689 3.47128 11.2689 3.70128C10.9189 3.76128 10.5589 3.77128 10.1989 3.77128C10.0189 3.77128 9.83894 3.75128 9.64894 3.74128C9.50894 3.74128 9.36895 3.72128 9.22894 3.70128C8.65895 3.64128 8.05894 3.61128 7.47894 3.73128C6.45894 3.93128 5.40894 4.37128 4.62894 5.28128C3.63894 6.40128 3.03894 7.84128 2.94894 9.33128C2.91894 9.67128 2.91894 10.1313 2.91894 10.5813V11.9113V14.5713C2.91894 15.0113 2.83894 15.6313 2.92894 15.8713C3.32894 16.8913 3.59894 17.7913 2.92894 18.7613C2.89894 18.8113 2.89894 19.1713 2.92894 19.2613C3.34894 20.1313 3.14894 21.2713 3.12894 22.2513C3.07894 26.0113 3.54894 29.7013 3.37894 33.4713C3.34894 34.0813 3.45894 34.9013 3.31894 35.2513C3.02894 36.0113 3.49894 36.3713 3.38894 37.0313C3.29894 37.5813 3.46894 38.3913 3.34894 38.8513C2.91894 40.5213 3.04894 42.3813 3.18894 43.9513C3.31894 45.4213 3.46894 46.9413 3.32894 48.2613C3.03894 50.8613 3.16894 53.4513 3.13894 56.0413C3.13894 56.6813 3.11894 57.4213 3.13894 57.9913C3.13894 58.5313 3.23894 59.0713 3.37894 59.5913C3.66894 60.6313 4.25894 61.5813 5.01894 62.3413C5.61894 62.9613 6.38894 63.6513 7.27894 63.6013C7.45894 63.5813 7.78894 63.7713 8.04894 63.8413C8.34894 63.9713 8.65895 64.0513 8.97894 64.1513C9.30894 64.2013 9.59895 64.2713 10.0389 64.2613C10.8489 64.2613 11.6589 64.1113 12.4789 64.0513C13.1389 64.0013 13.7589 64.0513 14.4389 63.8513C14.9389 63.7013 15.8089 63.8213 16.5889 64.0213C18.1389 64.4213 19.7589 64.8213 21.7489 64.7513C23.5089 64.6913 25.2889 64.7513 27.0689 64.7313C27.8089 64.7313 28.5089 64.7513 29.3089 64.5613C30.0289 64.3913 31.2289 64.4613 32.0889 64.5913C33.4589 64.7913 34.7189 64.8113 36.0589 64.5913C36.5189 64.5113 37.0689 64.5113 37.5789 64.5113H46.8889C47.6389 64.5113 48.4289 64.4413 49.0389 64.7213C49.5289 64.3913 50.3089 64.5013 50.9689 64.5213C51.9689 64.5613 52.9489 64.7013 53.9389 64.7313C55.1189 64.7613 56.2789 64.7313 57.4589 64.5313C58.5489 64.3413 59.8589 64.6513 61.0389 64.3713C61.2589 64.3213 61.7189 64.5113 62.0489 64.4913C63.3989 64.4213 64.8489 64.7313 66.0989 64.2713C66.1989 64.2313 66.4889 64.2313 66.6089 64.2713C68.1589 64.7313 69.6989 64.3813 71.2289 64.2713C72.8989 64.1413 74.4289 64.5213 76.0589 64.5113C77.9189 64.5013 79.8589 64.3613 81.6289 64.5413C84.6789 64.8513 87.6989 64.7013 90.7389 64.7313C93.8389 64.7713 96.9489 64.7613 100.049 64.7313C101.399 64.7213 102.739 64.5513 104.089 64.5213C105.589 64.4813 107.099 64.5213 108.609 64.5213H112.869C113.529 64.5313 114.269 64.4013 114.849 64.6913C114.969 64.7513 115.379 64.7713 115.539 64.7213C116.759 64.4113 117.929 64.4313 119.159 64.7113C119.509 64.7913 120.029 64.7113 120.449 64.7613C121.609 64.8713 122.609 64.6013 123.689 64.5213C124.679 64.4413 125.799 64.7313 126.689 64.3013C126.809 64.2413 127.299 64.2413 127.449 64.3013C129.429 65.0213 131.709 63.8213 133.679 64.4913C134.469 64.0813 135.289 64.5513 135.909 64.4913C136.819 64.4013 137.689 64.2913 138.639 64.3013C139.529 64.3013 140.419 64.3313 141.299 64.3013C142.919 64.2513 144.549 64.4413 146.169 64.1013C146.709 63.9913 147.719 63.9113 148.379 64.2413C148.499 64.3013 148.849 64.2913 149.079 64.2713C150.849 64.1413 153.009 64.5013 153.449 65.1013C153.709 65.4513 153.679 65.8813 153.479 66.2413C153.379 66.4213 152.609 66.5313 152.119 66.6613C151.269 66.8913 150.459 67.2013 149.539 67.2913C148.449 67.4013 147.249 67.3213 145.819 67.3213L145.769 67.3513Z" fill="#9C7625"/>
</g>
<defs>
<clipPath id="clip0_533_1562">
<rect width="164" height="68" fill="white"/>
</clipPath>
</defs>
</svg>
