<svg width="252" height="56" viewBox="0 0 252 56" fill="none" xmlns="http://www.w3.org/2000/svg">
<path d="M110 14C110 9.58172 113.582 6 118 6H242C246.418 6 250 9.58172 250 14V42C250 46.4183 246.418 50 242 50H118C113.582 50 110 46.4183 110 42V14Z" fill="white"/>
<path d="M235.318 51.3313C233.518 51.5213 231.598 50.9913 229.568 51.0813C227.538 51.1713 225.468 51.1213 223.418 51.0913C222.378 51.0813 221.408 51.1613 220.408 51.3213C219.438 51.4713 218.328 51.1313 217.398 51.5613C217.318 51.6013 217.128 51.5613 216.978 51.5613C214.508 51.5613 211.978 51.7413 209.568 51.5113C206.768 51.2513 204.008 51.4313 201.248 51.3213C196.738 51.8213 192.178 51.4513 187.638 51.5413C186.218 51.5613 184.798 51.6613 183.338 51.3613C182.098 51.1013 180.578 51.5713 179.288 51.1113C179.178 51.0713 178.928 51.1713 178.738 51.1913C178.278 51.2413 177.798 51.3613 177.358 51.3213C174.758 51.0713 174.768 51.0613 172.588 51.2913C172.328 51.3213 172.008 51.1313 171.718 51.1213C170.518 51.0913 169.318 51.0613 168.128 51.1113C167.048 51.1513 165.918 50.8913 164.888 51.3213C164.668 51.4113 164.198 51.3313 163.848 51.3313C162.718 51.3313 161.588 51.3013 160.458 51.3313C159.168 51.3713 157.848 51.1713 156.588 51.5413C156.038 51.7013 155.238 51.2713 154.908 51.3713C154.298 51.5413 153.738 51.5813 153.138 51.5513C152.548 51.5213 151.978 51.3513 151.398 51.3413C150.898 51.3413 150.388 51.5313 149.878 51.5513C148.608 51.5813 147.248 51.4113 146.088 51.6013C144.838 51.8113 143.648 51.7613 142.428 51.7913C141.158 51.8213 139.878 51.7613 138.618 51.8113C137.628 51.8513 136.748 51.6713 135.818 51.5713C134.898 51.4713 133.858 51.7713 133.018 51.3413C132.978 51.3213 132.878 51.3413 132.808 51.3413C130.888 51.2613 126.968 51.1413 125.048 51.1213L120.068 51.1013C119.678 51.1013 119.188 51.0913 118.708 51.0613C118.228 51.0013 117.748 50.9513 117.288 50.8113C116.348 50.5813 115.448 50.2013 114.638 49.6713C113.728 49.1013 112.748 48.3913 112.408 47.3713C112.348 47.1613 111.978 46.8713 111.888 46.5913C111.538 45.6413 110.568 45.1113 110.618 44.0113C110.618 43.5413 110.618 43.0813 110.558 42.6313C110.528 42.1713 110.478 41.7013 110.498 41.3213C110.528 40.4013 110.498 39.4813 110.508 38.5613C110.518 37.9313 110.468 37.3513 110.268 36.8313C110.678 36.1313 110.398 35.1413 110.598 34.3213C110.728 33.7813 110.848 32.9513 110.708 32.5513C110.398 31.6713 110.548 30.8013 110.508 29.9313C110.458 28.6413 110.588 27.3413 110.288 26.0613C110.168 25.5213 110.238 24.8013 110.278 24.1713C110.318 23.5813 110.478 23.0213 110.488 22.4313C110.518 21.3413 110.508 20.2813 110.288 19.2013C110.098 18.2713 110.478 17.1213 110.038 16.2013C109.978 16.0813 109.998 15.7713 110.038 15.5813C110.128 15.0713 110.198 14.5913 110.218 14.0913C110.248 13.5913 110.218 12.9413 110.218 12.2813C110.188 11.1613 110.818 9.84128 111.498 8.79128C112.208 7.65128 113.138 6.57128 114.288 5.95128C115.018 5.59128 115.138 4.84128 116.228 4.81128C116.788 4.77128 117.778 4.45128 118.598 4.36128C119.488 4.31128 120.198 4.24128 120.868 4.33128C124.398 4.79128 129.968 4.41128 133.508 4.56128C135.008 4.62128 136.578 4.27128 137.998 4.78128C139.058 4.40128 140.358 4.73128 141.368 4.47128C142.008 4.31128 142.578 4.32128 143.158 4.32128L154.818 4.30128C157.378 4.28128 159.928 4.14128 162.488 4.09128C163.208 4.08128 163.908 4.03128 164.688 4.26128C165.258 4.43128 166.308 4.45128 167.068 4.15128C167.218 4.09128 167.518 4.04128 167.638 4.08128C169.088 4.63128 170.538 4.06128 171.958 4.04128C174.758 4.00128 177.488 4.34128 180.268 4.30128C180.858 4.30128 181.558 4.46128 182.008 4.09128C182.468 4.40128 182.808 4.25128 183.368 4.11128C183.948 3.97128 184.898 3.95128 185.408 4.12128C186.098 4.36128 186.738 4.27128 187.398 4.30128C188.098 4.33128 188.808 4.30128 189.518 4.30128L198.458 4.54128C199.038 4.56128 199.608 4.70128 200.188 4.76128C200.778 4.82128 201.408 4.65128 201.968 4.96128C202.178 5.08128 202.778 4.99128 203.198 4.99128C204.678 4.99128 206.288 5.19128 207.618 4.94128C208.938 4.69128 210.348 5.00128 211.568 4.55128C211.908 4.42128 212.538 4.55128 213.028 4.53128C215.018 4.42128 217.068 4.80128 219.008 4.30128C219.718 4.61128 220.568 4.55128 221.378 4.52128C221.968 4.50128 222.658 4.68128 223.138 4.33128C223.198 4.29128 223.408 4.29128 223.528 4.30128C224.248 4.38128 224.888 4.60128 225.688 4.54128C226.358 4.49128 226.898 4.27128 227.628 4.28128C230.268 4.30128 232.858 4.70128 235.508 4.53128C236.228 4.81128 237.058 4.76128 237.878 4.76128C238.598 4.76128 239.298 4.68128 240.008 4.61128C240.738 4.55128 241.348 4.44128 242.258 4.55128C243.888 4.74128 245.478 5.44128 246.838 6.16128C248.028 6.79128 249.008 7.80128 249.698 8.96128C250.388 10.1313 250.798 11.4413 250.978 12.7813C251.018 13.1213 251.068 13.5013 251.068 13.8513C251.068 14.1513 251.008 14.4513 250.838 14.7213C250.758 14.8513 250.798 15.4813 250.898 15.6613C251.108 16.0313 250.978 16.4713 251.058 16.8313C251.278 17.8613 250.418 18.8613 251.058 19.8813V26.6713C251.048 27.2013 251.118 27.7113 250.888 28.2613C250.738 28.6313 250.708 29.4913 250.848 29.8613C251.178 30.7213 251.038 31.6113 251.048 32.4713C251.068 35.0813 251.078 37.7013 251.048 40.3213C251.038 40.9113 251.018 41.4313 250.948 42.0713C250.888 42.7413 250.748 43.4013 250.548 44.0313C250.168 45.3013 249.718 46.7113 248.658 47.5513C248.588 47.6113 248.508 47.7213 248.438 47.8113C248.138 48.2413 247.818 48.6813 247.408 49.0113C246.858 49.4213 245.968 49.6513 245.688 49.9113C245.118 50.4713 244.528 50.4013 243.988 50.5213C243.588 50.6113 243.218 50.6413 242.888 50.6013C242.568 50.5713 242.288 50.4913 242.078 50.3613C241.648 50.1213 241.478 49.7813 241.558 49.3913C241.598 49.2213 241.748 49.0313 241.918 48.8913C242.468 48.4513 242.678 48.2013 242.988 48.0313C243.288 47.8413 243.698 47.7713 244.418 47.3713C245.318 46.8713 246.158 46.2513 246.838 45.4413C247.498 44.6313 247.958 43.6013 247.998 42.5113C248.268 41.8913 248.278 40.8913 248.278 40.0213C248.278 39.1213 248.228 38.2213 248.278 37.3313C248.368 35.4813 248.728 33.6013 248.478 31.7913C248.228 29.9913 248.288 28.2213 248.288 26.4413C248.288 25.0813 248.458 23.7313 248.498 22.3713C248.538 20.9613 248.428 19.5213 248.538 18.1413C248.608 17.2813 248.878 16.3813 248.718 15.5713C248.538 14.6913 248.548 13.7413 248.488 13.0013C248.418 12.2213 248.198 11.4513 247.788 10.8113C246.688 9.05128 244.998 7.58128 242.978 7.30128C242.708 7.27128 242.438 7.26128 242.178 7.24128C241.888 7.26128 241.678 7.24128 241.348 7.27128C240.708 7.31128 240.058 7.33128 239.418 7.32128C238.828 7.32128 238.268 7.32128 237.628 7.16128C236.978 6.99128 236.038 6.99128 235.228 7.22128C234.898 7.32128 234.338 7.39128 234.058 7.31128C232.868 6.95128 231.618 7.10128 230.398 7.11128C229.628 7.11128 228.758 6.79128 228.298 6.92128C227.518 7.15128 226.808 7.05128 226.078 7.08128C225.558 7.10128 224.968 7.21128 224.508 6.91128C224.388 6.83128 223.878 6.81128 223.728 6.87128C222.858 7.27128 221.858 7.07128 220.918 7.08128C218.658 7.11128 216.398 7.11128 214.128 7.08128C212.258 7.06128 210.458 7.49128 208.578 7.32128C207.428 7.72128 206.158 7.54128 204.938 7.54128C204.008 7.54128 203.078 7.40128 202.148 7.32128C201.218 7.24128 200.308 7.32128 199.328 7.14128C198.118 6.92128 196.668 7.12128 195.328 7.08128C194.598 7.06128 193.788 7.28128 193.128 6.90128C193.038 6.85128 192.698 6.86128 192.578 6.90128C191.618 7.30128 190.408 7.19128 189.558 7.03128C188.168 6.78128 186.818 6.89128 185.468 6.85128C184.338 6.82128 183.208 6.87128 182.078 6.83128C181.268 6.81128 180.478 6.89128 179.628 6.72128C178.978 6.59128 178.118 6.81128 177.338 6.83128C176.568 6.86128 175.788 6.83128 175.008 6.83128H169.918C168.998 6.83128 168.078 6.86128 167.158 6.83128C166.288 6.79128 165.438 6.63128 164.578 6.62128C162.158 6.57128 159.768 7.00128 157.328 6.84128C156.668 7.13128 156.028 6.92128 155.338 6.86128C154.708 6.81128 153.958 6.69128 153.328 6.98128C153.148 7.06128 152.818 7.04128 152.548 7.06128C151.958 7.10128 151.448 6.83128 150.748 7.03128C150.258 7.18128 149.498 7.03128 148.868 7.07128C148.208 7.10128 147.458 6.90128 146.898 7.26128C145.728 6.72128 144.618 7.55128 143.458 7.30128C143.088 7.22128 142.688 7.19128 142.308 7.14128C142.118 7.11128 141.898 7.04128 141.728 7.07128C138.638 7.56128 135.478 7.16128 132.358 7.30128C131.978 7.32128 131.608 7.42128 131.218 7.47128C131.038 7.49128 130.828 7.51128 130.648 7.48128C128.938 7.28128 126.948 7.29128 125.348 7.48128C124.948 7.53128 124.508 7.48128 124.098 7.51128C123.018 7.57128 121.968 7.47128 120.848 7.70128C120.568 7.76128 120.288 7.77128 119.998 7.76128C119.858 7.76128 119.708 7.74128 119.558 7.73128C119.438 7.73128 119.338 7.71128 119.218 7.69128C118.768 7.61128 118.278 7.55128 117.808 7.59128C116.978 7.66128 116.108 7.89128 115.368 8.49128C114.458 9.25128 113.718 10.2313 113.298 11.3413C113.068 11.8913 112.958 12.4813 112.868 13.0613C112.858 13.3713 112.828 13.6213 112.828 13.9913V15.0513C112.828 15.4013 112.748 15.8913 112.838 16.0913C113.238 16.9013 113.508 17.6213 112.838 18.3913C112.808 18.4313 112.808 18.7213 112.838 18.7913C113.258 19.4813 113.058 20.3913 113.038 21.1713C112.988 24.1713 113.458 27.1113 113.288 30.1113C113.258 30.5913 113.368 31.2513 113.228 31.5313C112.938 32.1313 113.408 32.4213 113.298 32.9513C113.208 33.3913 113.378 34.0413 113.258 34.4013C112.828 35.7313 112.958 37.2113 113.098 38.4613C113.238 39.6213 113.378 40.8713 113.248 41.8713C112.978 43.5513 113.808 45.2113 114.988 46.3813C116.208 47.6213 117.898 48.3013 119.678 48.2513C120.548 48.2413 121.478 48.4213 122.278 48.0413C122.438 47.9613 122.838 48.0113 123.108 48.0413C123.758 48.1013 124.408 48.2513 125.058 48.2513C125.708 48.2513 126.348 48.1013 127.008 48.0413C127.538 47.9913 130.028 48.0413 130.568 47.8413C130.968 47.6913 131.658 47.8113 132.278 48.0113C133.518 48.4113 134.808 48.8113 136.398 48.7413C137.798 48.6813 139.228 48.7413 140.638 48.7213C141.228 48.7213 141.788 48.7413 142.428 48.5513C142.998 48.3813 143.958 48.4513 144.648 48.5813C145.738 48.7813 146.748 48.8013 147.808 48.5813C148.178 48.5013 148.618 48.5013 149.018 48.5013H156.438C157.038 48.5013 157.668 48.4313 158.158 48.7113C158.548 48.3813 159.178 48.4913 159.698 48.5113C160.498 48.5513 161.278 48.6913 162.068 48.7213C163.008 48.7513 163.938 48.7213 164.878 48.5213C165.748 48.3313 166.798 48.6413 167.728 48.3613C167.908 48.3113 168.268 48.5013 168.528 48.4813C169.598 48.4113 170.768 48.7213 171.758 48.2613C171.838 48.2213 172.068 48.2213 172.168 48.2613C173.398 48.7213 174.628 48.3713 175.848 48.2613C177.178 48.1313 178.398 48.5113 179.698 48.5013C181.178 48.4913 182.728 48.3513 184.138 48.5313C186.568 48.8413 188.978 48.6913 191.398 48.7213C193.868 48.7613 196.348 48.7513 198.818 48.7213C199.898 48.7113 200.958 48.5413 202.038 48.5113C203.238 48.4713 204.438 48.5113 205.638 48.5113H209.028C209.558 48.5213 210.148 48.3913 210.608 48.6813C210.698 48.7413 211.028 48.7613 211.158 48.7113C212.128 48.4013 213.058 48.4213 214.048 48.7013C214.328 48.7813 214.738 48.7013 215.068 48.7513C215.998 48.8613 216.788 48.5913 217.648 48.5113C218.438 48.4313 219.338 48.7213 220.038 48.2913C220.138 48.2313 220.518 48.2313 220.648 48.2913C222.228 49.0113 224.038 47.8113 225.618 48.4813C226.248 48.0713 226.898 48.5413 227.398 48.4813C228.118 48.3913 228.818 48.2813 229.568 48.2913C230.278 48.2913 230.988 48.3113 231.688 48.2913C232.978 48.2413 234.278 48.4313 235.568 48.0913C235.998 47.9813 236.808 47.9013 237.328 48.2313C237.418 48.2913 237.708 48.2813 237.888 48.2613C239.298 48.1313 241.018 48.4913 241.378 49.0913C241.588 49.4413 241.558 49.8713 241.398 50.2313C241.318 50.4113 240.698 50.5213 240.308 50.6513C239.628 50.8813 238.988 51.1913 238.248 51.2813C237.378 51.3913 236.418 51.3113 235.278 51.3113L235.318 51.3313Z" fill="#9C7625"/>
<path d="M2 11.9912C2 7.57293 5.58172 3.99121 10 3.99121H120C124.418 3.99121 128 7.57293 128 11.9912V43.9912C128 48.4095 124.418 51.9912 120 51.9912H10C5.58172 51.9912 2 48.4095 2 43.9912V11.9912Z" fill="#B09151"/>
<path d="M113.52 53.3413C111.78 53.5313 109.93 53.0013 107.97 53.0913C106 53.1813 104.01 53.1313 102.04 53.1013C101.04 53.0913 100.1 53.1713 99.1296 53.3313C98.1996 53.4813 97.1196 53.1413 96.2296 53.5713C96.1496 53.6113 95.9596 53.5713 95.8296 53.5713C93.4396 53.5713 90.9996 53.7513 88.6796 53.5213C85.9796 53.2613 83.3196 53.4413 80.6496 53.3313C76.2896 53.8313 71.8896 53.4613 67.5096 53.5513C66.1396 53.5713 64.7596 53.6713 63.3596 53.3713C62.1596 53.1113 60.6996 53.5813 59.4496 53.1213C59.3496 53.0813 59.0996 53.1813 58.9096 53.2013C58.4696 53.2513 57.9996 53.3713 57.5796 53.3313C55.0696 53.0813 55.0796 53.0713 52.9796 53.3013C52.7296 53.3313 52.4196 53.1413 52.1396 53.1313C50.9796 53.1013 49.8196 53.0713 48.6696 53.1213C47.6296 53.1613 46.5296 52.9013 45.5396 53.3313C45.3296 53.4213 44.8796 53.3413 44.5396 53.3413C43.4496 53.3413 42.3496 53.3113 41.2696 53.3413C40.0296 53.3813 38.7596 53.1813 37.5296 53.5513C36.9996 53.7113 36.2296 53.2813 35.9096 53.3813C35.3196 53.5513 34.7796 53.5913 34.1996 53.5613C33.6296 53.5313 33.0796 53.3613 32.5296 53.3513C32.0396 53.3513 31.5596 53.5413 31.0596 53.5613C29.8296 53.5913 28.5196 53.4213 27.3996 53.6113C26.1896 53.8213 25.0396 53.7713 23.8596 53.8013C22.6296 53.8313 21.3996 53.7713 20.1796 53.8213C19.2296 53.8613 18.3796 53.6813 17.4796 53.5813C16.5896 53.4813 15.5896 53.7813 14.7796 53.3513C14.7396 53.3313 14.6496 53.3513 14.5796 53.3513L8.92959 53.1013C7.06959 52.9713 5.25959 52.2613 3.80959 51.1113C2.34959 49.9613 1.24959 48.3613 0.699587 46.5813C0.559587 46.0713 0.399587 45.5513 0.349587 45.0213C0.289587 44.5113 0.329587 43.9213 0.509587 43.5313C0.579587 43.3513 0.479587 42.9713 0.529587 42.7313C0.729587 41.8413 0.0495866 41.1413 0.359587 40.2913C0.639587 39.5313 0.479587 38.7313 0.509587 37.9413C0.539587 37.0613 0.509587 36.1713 0.519587 35.2813C0.529587 34.6713 0.479587 34.1113 0.279587 33.6113C0.689587 32.9413 0.409587 31.9813 0.609587 31.1913C0.739587 30.6713 0.859587 29.8613 0.719587 29.4813C0.409587 28.6313 0.559587 27.7913 0.519587 26.9513C0.469587 25.7013 0.599587 24.4513 0.299587 23.2213C0.179587 22.7013 0.249587 22.0013 0.289587 21.3913C0.329587 20.8213 0.489587 20.2813 0.499587 19.7113C0.529587 18.6613 0.519587 17.6313 0.299587 16.5913C0.109587 15.6913 0.489587 14.5913 0.0495866 13.6913C-0.0104134 13.5713 0.00958657 13.2813 0.0495866 13.0913C0.139587 12.5813 0.199587 12.1613 0.239587 11.6213C0.269587 11.0613 0.299587 10.4913 0.309587 9.83128C0.319587 8.74128 0.999587 7.50128 1.67959 6.51128C2.39959 5.44128 3.33959 4.43128 4.45959 3.85128C4.81959 3.67128 5.00959 3.40128 5.26959 3.19128C5.51959 2.97128 5.81959 2.76128 6.34959 2.77128C6.88959 2.75128 7.84959 2.44128 8.63959 2.36128C9.49959 2.31128 10.1796 2.24128 10.8296 2.33128C14.2396 2.79128 17.6896 2.41128 21.0996 2.56128C22.5396 2.62128 24.0596 2.27128 25.4396 2.78128C26.4596 2.40128 27.7096 2.73128 28.6896 2.47128C29.3096 2.31128 29.8496 2.32128 30.4196 2.32128L41.6796 2.30128C44.1496 2.28128 46.6196 2.14128 49.0896 2.09128C49.7796 2.08128 50.4596 2.03128 51.2196 2.26128C51.7696 2.43128 52.7796 2.45128 53.5196 2.15128C53.6596 2.09128 53.9596 2.04128 54.0696 2.08128C55.4696 2.63128 56.8696 2.06128 58.2396 2.04128C60.9396 2.00128 63.5796 2.34128 66.2596 2.30128C66.8296 2.30128 67.4996 2.46128 67.9396 2.09128C68.3796 2.40128 68.7096 2.25128 69.2596 2.11128C69.8196 1.97128 70.7396 1.95128 71.2296 2.12128C71.8996 2.36128 72.5196 2.27128 73.1596 2.30128C73.8396 2.33128 74.5296 2.30128 75.2096 2.30128L83.8396 2.54128C84.3996 2.56128 84.9496 2.70128 85.5096 2.76128C86.0696 2.82128 86.6896 2.65128 87.2196 2.96128C87.4196 3.08128 87.9996 2.99128 88.4096 2.99128C89.8396 2.99128 91.3896 3.19128 92.6796 2.94128C93.9496 2.69128 95.3096 3.00128 96.4896 2.55128C96.8196 2.42128 97.4296 2.55128 97.8996 2.53128C99.8196 2.42128 101.8 2.80128 103.67 2.30128C104.36 2.61128 105.18 2.55128 105.96 2.52128C106.53 2.50128 107.19 2.68128 107.66 2.33128C107.72 2.29128 107.92 2.29128 108.04 2.30128C108.73 2.38128 109.35 2.60128 110.13 2.54128C110.77 2.49128 111.3 2.27128 112.01 2.28128C114.56 2.30128 117.05 2.69128 119.62 2.53128C120.42 2.83128 121.31 2.87128 122.17 3.14128C123.65 3.60128 125.18 4.11128 126.29 5.38128C127.33 6.57128 128.06 8.07128 128.59 9.47128C128.72 9.77128 128.82 10.0813 128.88 10.4013C128.96 10.7213 129.01 11.0413 129.03 11.3613L129.07 11.8413V12.2513L129.09 13.0813C129.09 14.1813 129.05 15.2813 129.09 16.3813C129.11 16.9413 129.23 17.5813 128.89 18.0913C128.81 18.2113 128.85 18.8313 128.95 19.0013C129.16 19.3613 129.03 19.7813 129.11 20.1313C129.33 21.1213 128.47 22.0913 129.11 23.0713V29.6213C129.1 30.1313 129.17 30.6213 128.94 31.1513C128.79 31.5013 128.76 32.3413 128.9 32.6913C129.23 33.5213 129.09 34.3813 129.1 35.2113C129.12 37.7313 129.13 40.2613 129.1 42.7813C129.1 43.3313 129.07 43.8613 128.98 44.5513C128.89 45.1913 128.71 45.8213 128.5 46.4313C128.08 47.6413 127.6 48.9913 126.53 49.7513C126.45 49.8013 126.38 49.9113 126.31 49.9913C126.02 50.4013 125.69 50.8213 125.29 51.1213C124.75 51.5213 123.88 51.7113 123.61 51.9613C123.34 52.2313 123.05 52.3513 122.77 52.4013C122.49 52.4613 122.23 52.4813 121.96 52.5313C121.58 52.6213 121.22 52.6413 120.9 52.5913C120.59 52.5613 120.32 52.4713 120.12 52.3513C119.71 52.1113 119.54 51.7713 119.62 51.3813C119.65 51.2113 119.8 51.0213 119.97 50.8813C120.5 50.4513 120.7 50.1813 121 50.0313C121.29 49.8513 121.69 49.7813 122.38 49.4013C123.26 48.9413 124.09 48.3613 124.76 47.6013C125.44 46.8513 125.93 45.8713 126 44.8313C126.17 44.5113 126.23 44.1613 126.29 43.8013C126.33 43.3713 126.33 42.9413 126.33 42.5113C126.33 41.6413 126.28 40.7713 126.33 39.9213C126.42 38.1413 126.78 36.3213 126.53 34.5813C126.28 32.8413 126.34 31.1313 126.34 29.4113C126.34 28.1013 126.51 26.8013 126.55 25.4813C126.59 24.1213 126.48 22.7313 126.59 21.3913C126.66 20.5613 126.93 19.6913 126.77 18.9013C126.42 17.1913 126.72 15.4213 126.54 13.7413C126.48 13.1613 126.44 12.5713 126.42 11.9913C126.39 11.4413 126.35 10.9813 126.25 10.4813C126.05 9.51128 125.63 8.59128 124.99 7.86128C124.3 7.08128 123.46 6.48128 122.56 6.02128C122.14 5.81128 121.74 5.65128 121.29 5.37128C120.82 5.04128 120.07 4.97128 119.34 5.21128C119.02 5.31128 118.48 5.38128 118.21 5.30128C117.06 4.94128 115.85 5.09128 114.68 5.10128C113.93 5.10128 113.1 4.78128 112.65 4.91128C111.9 5.14128 111.21 5.04128 110.51 5.07128C110.01 5.09128 109.44 5.20128 109 4.90128C108.88 4.82128 108.39 4.80128 108.25 4.86128C107.41 5.26128 106.44 5.06128 105.54 5.07128C103.36 5.10128 101.17 5.10128 98.9896 5.07128C97.1896 5.05128 95.4496 5.48128 93.6296 5.31128C92.5196 5.71128 91.2896 5.53128 90.1096 5.53128C89.2096 5.53128 88.3096 5.39128 87.4096 5.31128C86.5096 5.23128 85.6296 5.31128 84.6796 5.13128C83.5096 4.91128 82.1096 5.11128 80.8196 5.07128C80.1196 5.05128 79.3296 5.27128 78.6996 4.89128C78.6096 4.84128 78.2896 4.85128 78.1696 4.89128C77.2396 5.29128 76.0796 5.18128 75.2496 5.02128C73.8996 4.77128 72.6096 4.88128 71.2996 4.84128C70.2096 4.81128 69.1096 4.86128 68.0296 4.82128C67.2496 4.80128 66.4796 4.88128 65.6596 4.71128C65.0296 4.58128 64.1996 4.80128 63.4496 4.82128C62.6996 4.85128 61.9496 4.82128 61.1996 4.82128H56.2896C55.3996 4.82128 54.5096 4.85128 53.6296 4.82128C52.7896 4.78128 51.9696 4.62128 51.1396 4.61128C48.7996 4.56128 46.4996 4.99128 44.1396 4.83128C43.4996 5.12128 42.8896 4.91128 42.2196 4.85128C41.6096 4.80128 40.8896 4.68128 40.2796 4.97128C40.1096 5.05128 39.7896 5.03128 39.5296 5.05128C38.9596 5.09128 38.4696 4.82128 37.7996 5.02128C37.3196 5.17128 36.5896 5.02128 35.9896 5.06128C35.3496 5.09128 34.6196 4.89128 34.0896 5.25128C32.9696 4.71128 31.8896 5.54128 30.7696 5.29128C30.4196 5.21128 30.0296 5.18128 29.6596 5.13128C29.4696 5.10128 29.2596 5.03128 29.0996 5.06128C26.1196 5.55128 23.0596 5.15128 20.0596 5.29128C19.6896 5.31128 19.3296 5.41128 18.9596 5.46128C18.7796 5.48128 18.5796 5.50128 18.4096 5.47128C16.7596 5.27128 16.7596 5.28128 15.2296 5.47128C14.8396 5.52128 14.4196 5.47128 14.0196 5.50128C12.9796 5.56128 11.9696 5.46128 10.8896 5.69128C10.6196 5.75128 10.3496 5.76128 10.0696 5.75128C9.92959 5.75128 9.78959 5.73128 9.64959 5.72128C9.53959 5.72128 9.42959 5.70128 9.31959 5.68128C9.09959 5.63128 8.87959 5.60128 8.64959 5.58128C8.41959 5.54128 8.18959 5.54128 7.95959 5.56128C7.15959 5.62128 6.30959 5.81128 5.57959 6.38128C4.65959 7.08128 3.95959 8.02128 3.47959 9.06128C3.25959 9.59128 3.07959 10.1313 2.99959 10.7013C2.88959 11.2613 2.90959 11.8213 2.90959 12.5413C2.90959 12.8813 2.82959 13.3513 2.91959 13.5413C3.31959 14.3213 3.58959 15.0213 2.91959 15.7613C2.88959 15.8013 2.88959 16.0813 2.91959 16.1413C3.33959 16.8113 3.13959 17.6913 3.11959 18.4413C3.06959 21.3313 3.53959 24.1713 3.36959 27.0713C3.33959 27.5413 3.44959 28.1713 3.30959 28.4413C3.01959 29.0213 3.48959 29.3013 3.37959 29.8113C3.28959 30.2313 3.45959 30.8613 3.33959 31.2113C2.90959 32.4913 3.03959 33.9213 3.17959 35.1313C3.30959 36.2613 3.45959 37.4313 3.31959 38.4513C3.17959 39.4513 3.13959 40.4513 3.12959 41.4513V42.9513V43.7013L3.14959 44.3113C3.25959 45.9713 4.08959 47.5613 5.35959 48.6313C5.86959 49.0613 6.43959 49.6113 7.15959 49.5113C7.30959 49.4813 7.55959 49.6213 7.74959 49.7213C8.19959 49.9113 8.66959 50.1713 9.17959 50.1913C9.62959 50.2313 10.3596 50.0513 10.9596 50.0013C11.4696 49.9513 11.9496 50.0013 12.4696 49.8013C12.8496 49.6513 13.5196 49.7713 14.1196 49.9713C15.3096 50.3713 16.5596 50.7713 18.0896 50.7013C19.4496 50.6413 20.8196 50.7013 22.1796 50.6813C22.7496 50.6813 23.2896 50.7013 23.8996 50.5113C24.4496 50.3413 25.3696 50.4113 26.0396 50.5413C27.0896 50.7413 28.0596 50.7613 29.0896 50.5413C29.4396 50.4613 29.8696 50.4613 30.2596 50.4613H37.4296C38.0096 50.4613 38.6196 50.3913 39.0896 50.6713C39.4696 50.3413 40.0696 50.4513 40.5696 50.4713C41.3396 50.5113 42.0896 50.6513 42.8596 50.6813C43.7696 50.7113 44.6596 50.6813 45.5696 50.4813C46.4096 50.2913 47.4196 50.6013 48.3296 50.3213C48.4996 50.2713 48.8596 50.4613 49.1096 50.4413C50.1496 50.3713 51.2696 50.6813 52.2296 50.2213C52.3096 50.1813 52.5296 50.1813 52.6296 50.2213C53.8196 50.6813 55.0096 50.3313 56.1896 50.2213C57.4796 50.0913 58.6496 50.4713 59.9096 50.4613C61.3396 50.4513 62.8396 50.3113 64.1996 50.4913C66.5396 50.8013 68.8796 50.6513 71.2096 50.6813C73.5996 50.7213 75.9896 50.7113 78.3696 50.6813C79.4096 50.6713 80.4396 50.5013 81.4796 50.4713C82.6396 50.4313 83.7996 50.4713 84.9596 50.4713H88.2396C88.7496 50.4813 89.3196 50.3513 89.7596 50.6413C89.8496 50.7013 90.1596 50.7213 90.2896 50.6713C91.2296 50.3613 92.1296 50.3813 93.0796 50.6613C93.3496 50.7413 93.7496 50.6613 94.0696 50.7113C94.9696 50.8213 95.7296 50.5513 96.5596 50.4713C97.3196 50.3913 98.1896 50.6813 98.8696 50.2513C98.9596 50.1913 99.3396 50.1913 99.4496 50.2513C100.98 50.9713 102.73 49.7713 104.25 50.4413C104.86 50.0313 105.49 50.5013 105.97 50.4413C106.67 50.3513 107.34 50.2413 108.07 50.2513C108.75 50.2513 109.44 50.2713 110.12 50.2513C111.36 50.2013 112.62 50.3913 113.86 50.0513C114.28 49.9413 115.05 49.8613 115.56 50.1913C115.65 50.2513 115.92 50.2413 116.1 50.2213C117.46 50.0913 119.13 50.4513 119.47 51.0513C119.67 51.4013 119.65 51.8313 119.49 52.1913C119.41 52.3713 118.82 52.4813 118.44 52.6113C117.79 52.8413 117.16 53.1513 116.45 53.2413C115.61 53.3513 114.69 53.2713 113.58 53.2713L113.52 53.3413Z" fill="#9C7625"/>
</svg>
