<svg width="280" height="320" viewBox="0 0 280 320" fill="none" xmlns="http://www.w3.org/2000/svg">
<g clip-path="url(#clip0_1005_109286)">
<g clip-path="url(#clip1_1005_109286)">
<path d="M263.104 67.2541C254.317 47.1723 230.335 38.4684 209.56 42.6255C201.136 23.1809 180.277 8.43619 158.756 12.7198C176.288 20.3643 188.775 33.9919 194.969 51.1232L181.431 57.1762L213.632 74.0036L211.45 59.7779C228.816 55.3256 247.079 57.3365 263.1 67.244L263.104 67.2541Z" fill="white"/>
<path d="M262.629 68.0165C262.828 68.0014 262.892 67.7225 262.484 67.5566L261.985 67.7819L262.622 68.0133L262.629 68.0165Z" fill="white"/>
<path d="M260.531 65.8313C259.984 65.7501 259.278 65.8283 259.373 66.3402C260.026 66.1956 260.036 66.4254 260.753 66.2522C261.157 66.4249 261.336 66.7588 261.186 66.864C261.379 66.8457 261.716 67.2874 262.058 67.1639C261.751 66.5862 261.128 66.2024 260.348 66.0794C260.259 65.9125 260.448 65.8841 260.521 65.835L260.531 65.8313Z" fill="white"/>
<path d="M219.287 57.6056L219.572 57.6223C219.497 57.6038 219.399 57.5995 219.287 57.6056Z" fill="white"/>
<path d="M210.42 71.3387C210.53 71.3902 210.584 71.3652 210.596 71.3209C210.497 71.2996 210.412 71.2848 210.42 71.3387Z" fill="white"/>
<path d="M206.798 68.8899C206.88 68.9454 206.943 68.9912 207.019 69.0435C206.949 68.9606 206.872 68.8915 206.798 68.8899Z" fill="white"/>
<path d="M219.289 57.6064L218.562 57.5667C218.533 57.7197 218.937 57.6252 219.289 57.6064Z" fill="white"/>
<path d="M254.834 64.1987C254.974 64.2392 255.104 64.2496 255.222 64.2467C255.103 64.2158 254.993 64.1812 254.877 64.1435C254.867 64.164 254.851 64.1813 254.828 64.1955L254.834 64.1987Z" fill="white"/>
<path d="M231.014 56.5795L231.231 56.5809C231.295 56.5354 231.357 56.4729 231.42 56.4105C231.286 56.4646 231.152 56.5186 231.014 56.5795Z" fill="white"/>
<path d="M240.044 57.4195C239.842 57.3669 239.713 57.7321 239.609 57.8835C239.747 57.7482 239.905 57.6969 240.088 57.6992C240.104 57.6312 240.088 57.5402 240.044 57.4195Z" fill="white"/>
<path d="M253.622 61.9854L253.877 62.0299C253.809 62.0147 253.7 61.997 253.622 61.9854Z" fill="white"/>
<path d="M224.517 56.6068C224.502 56.5496 224.464 56.5066 224.426 56.4805C224.427 56.5312 224.466 56.5742 224.517 56.6068Z" fill="white"/>
<path d="M259.096 57.3392C259.096 57.3392 259.066 57.3673 259.042 57.3815C259.108 57.4039 259.139 57.3929 259.096 57.3392Z" fill="white"/>
<path d="M263.009 67.2934L262.924 67.1703C262.85 67.1857 262.776 67.201 262.713 67.2297L263.002 67.2902L263.009 67.2934Z" fill="white"/>
<path d="M199.704 64.6318C199.704 64.6318 199.725 64.6415 199.735 64.6547C199.947 64.7206 199.837 64.6691 199.704 64.6318Z" fill="white"/>
<path d="M171.026 17.6975C171.561 18.4658 169.595 17.2692 170.48 18.3097C170.461 18.1174 171.813 18.4834 171.026 17.6975Z" fill="white"/>
<path d="M254.649 64.0612C254.539 64.0098 254.423 63.9721 254.323 63.917C254.471 63.9946 254.57 64.0327 254.649 64.0612Z" fill="white"/>
<path d="M170.477 18.3164L170.568 18.4258C170.529 18.3828 170.508 18.3562 170.477 18.3164Z" fill="white"/>
<path d="M185.309 57.3646C185.181 57.3711 185.097 57.3901 185.023 57.4055C185.1 57.4002 185.174 57.3848 185.309 57.3646Z" fill="white"/>
<path d="M195.047 63.0688L194.76 62.8594C194.867 62.9515 194.961 63.0202 195.047 63.0688Z" fill="white"/>
<path d="M188.025 55.4233C188.209 55.368 188.291 55.3897 188.504 55.239C188.477 55.2261 188.45 55.2302 188.416 55.231C188.35 55.3172 188.247 55.3941 188.025 55.4233Z" fill="white"/>
<path d="M195.743 51.9684C195.655 51.9773 195.564 51.9931 195.473 52.0088C195.376 52.0552 195.265 52.112 195.172 52.1685L195.75 51.9716L195.743 51.9684Z" fill="white"/>
<path d="M239.53 43.6351C239.656 43.7944 239.711 43.9453 239.746 44.0865C239.734 43.7891 240.851 44.1202 239.53 43.6351Z" fill="white"/>
<path d="M254.922 63.9975C254.839 64.0672 254.765 64.0826 254.652 64.0549C254.731 64.0834 254.81 64.1119 254.888 64.1404C254.934 64.0953 254.957 64.0474 254.922 63.9975Z" fill="white"/>
<path d="M187.068 52.5547L188.198 52.1075C187.872 52.2136 187.463 52.3725 187.068 52.5547Z" fill="white"/>
<path d="M195.62 21.6307L195.871 21.7734C195.791 21.6941 195.705 21.6455 195.62 21.6307Z" fill="white"/>
<path d="M191.471 50.5868C191.723 50.6212 191.966 50.6017 192.202 50.5452C192.235 50.4936 192.278 50.4554 192.289 50.3942L191.468 50.5768L191.471 50.5868Z" fill="white"/>
<path d="M247.588 46.924C246.548 46.3034 246.846 47.0606 246.483 47.1744C245.179 46.5805 246.096 46.5174 245.796 46.0512C244.956 45.6997 244.107 45.8694 243.529 45.5487C243.523 45.4541 243.419 45.3721 243.601 45.3406C243.086 45.316 242.454 45.0203 241.806 44.725C241.154 44.4196 240.441 44.2274 239.845 44.2488C239.785 44.1792 239.76 44.1257 239.756 44.0818C239.828 44.3744 239.76 44.6264 239.663 44.781C239.17 44.6003 238.641 44.7283 238.567 44.3512C238.868 44.4758 238.937 44.3658 239.115 44.3242L238.551 44.2603C238.246 43.6419 239.316 44.3768 239.436 44.0491C238.366 43.798 237.069 43.708 236.311 43.3782C236.281 42.8884 238.22 43.788 237.286 43.0836C237.684 43.2532 238.056 43.4944 238.441 43.6913C237.763 42.6558 239.154 44.0256 238.571 42.9675C237.798 42.5805 237.311 42.5113 236.831 42.4284C236.351 42.3454 235.878 42.2657 235.077 41.9572C234.637 42.0932 235.098 42.3593 234.658 42.4953C233.451 42.3558 233.062 42.0067 232.734 41.6528C232.41 41.309 232.148 40.994 231.219 41.1014C230.699 41.3171 230.435 41.8108 229.252 41.2986L229.762 40.853C228.134 40.5581 228.717 41.4572 227.065 40.8753C227.393 40.7116 228.367 40.8839 228.127 40.7883C227.075 40.2289 227.305 40.9709 226.458 40.8496L226.333 40.3655C225.459 40.2483 224.527 40.3456 223.578 40.3689C222.631 40.426 221.662 40.4058 220.702 40.4903C220.81 40.349 221.145 40.2054 220.69 40.0677C219.461 40.2096 218.158 40.1502 216.854 40.1653C215.557 40.2006 214.251 40.1481 213.058 40.1402L212.212 40.6785C212.006 40.7073 211.799 40.5601 212.016 40.4533C211.081 40.4492 212.006 40.7073 211.592 40.9306C211.079 41.0413 210.867 40.8164 211.181 40.6463C210.825 40.7633 210.86 40.8132 210.743 40.8838C210.643 40.9539 210.507 41.0316 210.346 41.1066C210.263 41.0343 210.162 40.9285 210.077 40.8054C210.028 40.7322 210 40.7024 209.932 40.5789C209.846 40.4051 209.757 40.2382 209.668 40.0712C209.324 39.3929 209.089 38.7153 208.932 38.1576C209.022 38.2332 209.119 38.312 209.199 38.3912C208.678 37.1456 207.742 37.4832 207.448 36.2354L207.628 36.4034C207.021 35.0923 206.101 33.8767 205.3 32.692C204.536 31.4828 203.695 30.4378 203.256 29.3728C202.904 29.3916 202.509 28.789 202.108 28.2339C201.67 27.7034 201.227 27.2204 200.866 27.4187C200.457 26.6845 200.35 26.3759 200.185 26.0146C200.003 25.6706 199.801 25.2087 199.022 24.3348C198.59 23.8819 197.995 24.0623 197.382 23.6003L197.648 23.2826L196.591 22.8958C196.564 22.6495 196.544 22.3896 196.507 22.1469L195.87 21.7735C196.079 21.9714 196.226 22.2993 196.113 22.3629C195.119 21.8055 194.157 20.4286 194.264 20.2365C193.512 19.7509 192.698 19.3447 191.888 18.9485C192.031 18.8401 192.436 19.0466 192.791 19.1631C191.366 18.7042 192.829 18.6547 191.516 18.2404C191.609 18.4174 191.3 18.3979 191.227 18.4471C191.026 18.1611 190.617 17.8024 190.144 17.4554C189.657 17.119 189.067 16.8425 188.566 16.6079L188.894 16.4611C188.036 15.951 187.124 15.4153 186.126 14.9729C185.119 14.5511 184.085 14.1334 183.069 13.6576C183.749 14.1179 183.379 14.4958 182.773 14.2704L182.705 13.7545C182.216 13.8342 183.266 14.1839 182.343 14.1525C181.586 13.8226 182 13.4911 182.51 13.5293L181.501 13.324C181.494 13.1787 181.745 13.1962 181.86 13.0581C181.372 13.1716 180.345 12.0398 179.62 12.2843L179.606 12.1358C179.082 11.9322 178.601 11.8154 178.168 11.7212C177.735 11.6269 177.347 11.5451 176.969 11.4597C176.216 11.3158 175.52 11.1401 174.618 10.9762C174.505 11.3409 173.819 11.1446 173.232 11.362C172.584 11.1919 171.904 10.982 171.18 10.7765C170.46 10.581 169.682 10.5088 168.874 10.4643C167.729 10.5872 168.523 10.7673 168.006 10.9593C167.936 10.6092 166.328 10.5404 167.166 10.3405C167.044 10.3334 166.929 10.3294 166.821 10.3287C166.695 10.3284 166.499 10.3535 166.351 10.3673C166.036 10.3954 165.746 10.4262 165.472 10.4566C164.931 10.5206 164.441 10.5665 163.928 10.6264C162.929 10.7592 161.854 10.8567 160.317 11.1718C160.931 11.2176 161.41 11.2329 161.375 11.342C160.897 11.4688 159.798 11.4214 159.561 11.2851L159.668 11.2351C158.989 11.4514 158.139 11.5873 157.081 11.7012C156.554 11.7548 155.979 11.8027 155.361 11.8551L154.891 11.8937C154.742 11.9075 154.539 11.9125 154.472 11.9311L153.854 12.0342C154.675 12.5519 155.619 13.1444 156.773 13.7352C157.917 14.3126 159.239 14.9567 160.53 15.3614L160.277 15.2763L164.16 16.7777C164.504 16.9722 164.615 17.0743 164.609 17.1049C164.596 17.1323 164.442 17.0853 164.282 17.0521C163.965 16.9787 163.508 16.8647 164.057 17.2639C164.681 17.5226 164.828 17.5664 165.095 17.6749C165.342 17.7737 165.565 17.8866 165.775 17.9931C166.197 18.2161 166.577 18.4605 166.935 18.6953C167.646 19.1785 168.27 19.7044 169.171 20.068C169.831 21.679 173.446 23.0719 174.537 24.8685L174.608 24.6096C175.158 24.7585 174.998 25.1008 175.233 25.4028C175.316 25.2249 174.964 24.8681 175.289 24.9786C178.772 27.6197 181.484 31.4773 183.923 35.1318C184.806 36.4802 185.482 35.1443 186.189 37.1533C185.96 37.071 185.724 37.0023 185.492 36.9268C187.783 39.3435 189.042 42.5873 190.841 45.2663C190.658 45.1389 190.541 45.1925 190.395 44.9153C190.438 45.645 191.428 47.1937 191.683 47.0961C191.858 47.562 191.512 47.2999 191.514 47.6348C191.561 47.9821 191.834 48.3272 192.07 48.6462C192.292 48.9756 192.479 49.2721 192.397 49.5008C192.369 49.5793 192.228 49.3628 192.161 49.2562C192.237 49.3423 192.32 49.506 192.406 49.6967L192.46 49.8307L192.475 49.8541L192.503 49.9007C192.538 49.9506 192.615 50.0198 192.804 49.9914C192.785 50.0663 192.797 50.1303 192.826 50.1939C192.864 50.2369 192.817 50.2482 192.791 50.2692L192.721 50.3284C192.668 50.3703 192.615 50.4122 192.541 50.4444C192.508 50.4622 192.471 50.4699 192.434 50.4775C192.407 50.4816 192.41 50.4747 192.366 50.4792L192.177 50.5244C191.764 51.1739 190.162 51.1998 190.22 51.8276C190.048 51.2296 188.042 52.2599 187.444 52.8396C187.607 52.565 186.742 52.9448 186.919 52.5852C186.109 52.9569 185.409 53.397 185.683 53.6169C185.053 53.4971 183.403 54.3935 182.452 54.9581C181.408 55.5623 180.714 55.9717 179.1 56.1839C178.549 56.485 178.008 56.7824 177.547 57.0339C179.43 57.8909 181.238 58.7126 182.997 59.5117C183.388 59.6949 183.779 59.8781 184.167 60.0513L184.73 60.3149L185.127 60.4844C185.6 60.6893 186.07 60.901 186.536 61.1027C186.36 61.354 185.77 61.0606 185.196 60.7838C185.052 60.7163 184.908 60.6488 184.778 60.5877C184.606 60.5074 184.366 60.3949 184.185 60.335C183.815 60.1953 183.529 60.1448 183.455 60.2853C183.695 60.3978 183.928 60.4902 184.154 60.5963C184.363 60.6858 184.648 60.8108 184.73 60.8325C184.976 60.9144 185.215 60.9931 185.441 61.0653C185.899 61.2131 186.33 61.348 186.767 61.4861C187.622 61.7696 188.454 62.1009 189.411 62.683C189.888 63.0231 188.997 62.7642 188.77 62.7664C190.893 63.5938 192.617 64.8437 194.555 65.4761C194.526 65.5208 194.304 65.4755 194.103 65.4229C194.46 65.5901 194.879 65.9282 194.97 65.6621L194.594 65.5529C194.221 64.9024 196.383 65.5395 196.541 65.38C195.579 65.7723 198.211 66.479 196.795 66.8757C197.051 66.954 197.404 66.9859 197.436 66.7923C197.757 67.0179 197.812 67.1688 197.365 67.1764C198.694 67.6985 198.382 67.2021 199.523 67.8033C199.459 67.9233 199.203 67.845 199.015 67.9241C199.711 67.9915 200.415 68.0622 201.326 68.6724C201.232 68.712 201.293 68.8661 201.005 68.7142C202.684 69.5423 204.152 69.5705 205.854 70.7432C205.047 70.9829 206.385 71.2342 206.243 71.735L207.289 72.1085L207.01 71.6857C207.873 72.1483 208.762 72.1975 209.472 72.7552C209.179 72.6846 208.968 72.6525 208.719 72.5944L210.819 73.578L209.593 72.7285C210.228 72.9091 210.206 72.7236 210.248 72.6177C210.296 72.515 210.339 72.4768 210.97 72.8808C210.727 72.8089 211.88 73.3658 212.628 74.0917C213.043 74.1356 213.317 74.1052 214.075 74.5941C214.074 74.5602 214.073 74.5264 214.076 74.4858C214.246 74.5323 214.825 75.6548 214.934 75.6893C214.61 74.9699 214.46 74.182 214.303 73.374C214.146 72.5659 213.982 71.7378 213.681 71.2715C213.831 71.5588 214.131 71.7409 214.173 71.6688C214.021 71.4222 213.866 71.1993 213.718 70.9966C213.752 70.4782 213.79 70.3792 214.02 70.5122C213.904 69.5645 213.773 69.7368 213.65 69.8379C213.59 69.8935 213.534 69.9254 213.494 69.8316C213.472 69.7882 213.456 69.6972 213.443 69.5825C213.434 69.4779 213.43 69.3258 213.431 69.1261C213.475 69.2468 213.517 69.1748 213.609 69.4262C213.508 67.8184 212.925 66.4018 212.865 64.9215C213.302 64.4169 213.183 66.1722 213.534 65.6189C213.327 64.5786 213.014 63.5139 212.721 62.4589C212.598 62.0086 212.481 61.5616 212.36 61.1213C212.318 60.9431 212.28 60.758 212.248 60.5761L212.213 60.3097C212.188 60.2562 212.242 60.2481 212.286 60.2436L212.421 60.2234L212.266 60.234C212.208 60.232 212.15 60.23 212.165 60.2872C211.905 60.0737 211.992 60.0309 212.113 59.9874C212.248 59.9502 212.472 59.9549 212.699 59.9696C212.926 59.9843 213.154 60.0159 213.341 60.0113C213.442 60.0089 213.503 60.004 213.634 59.9737C213.759 59.9402 213.883 59.8898 214 59.8192C213.765 59.9265 213.765 60.2851 213.816 60.1925C214.505 60.0809 215.187 59.8916 215.961 59.6696C216.731 59.4545 217.58 59.1258 218.61 58.8738L218.382 59.0925C219.22 59.143 220.535 58.8908 221.418 58.8623C221.657 58.6569 222.168 58.6376 221.833 58.4056C223.254 58.8206 224.517 58.519 225.775 58.3325C226.403 58.2257 227.023 58.1157 227.643 58.0802C228.258 58.0516 228.871 58.138 229.48 58.3565C229.188 58.3535 228.789 58.5088 229.02 58.5166L231.083 58.3645C230.929 58.0503 230.82 58.1747 230.386 57.9215C230.656 57.739 231.245 57.5892 231.761 57.6306C230.82 57.7823 231.751 58.1349 232.142 58.3351C232.079 58.2385 232.218 58.137 232.189 58.0396C233.239 58.6566 232.403 57.4221 233.869 57.8833L233.778 58.0412C234.335 57.9768 234.87 57.8182 235.459 57.9356C235.67 58.3263 234.859 58.0383 234.789 58.331C235.617 58.402 236.507 57.8253 237.227 58.2711C236.863 58.3342 236.353 58.279 235.982 58.3389C236.754 58.851 236.86 58.7503 237.457 58.8879L237.402 58.8622C237.856 58.983 238.307 59.1444 238.765 59.2753L238.428 59.1008C239.598 58.3549 240.563 59.2243 242.06 58.9406C240.597 59.2235 241.776 59.225 241.589 59.6051C241.92 59.7932 242.421 60.0278 242.247 60.1133C242.967 59.9332 243.262 60.589 244.286 60.3338C244.296 60.4723 244.965 60.5269 244.739 60.8132C245.593 60.9377 244.6 60.5392 244.708 60.3979C245.408 60.3502 246.128 60.6878 246.917 61.0236C247.709 61.3695 248.543 61.7685 249.549 61.7641C250.379 61.8858 250.895 61.9103 251.4 61.9216C251.905 61.9329 252.4 61.9478 253.164 62.1219C253.57 62.5043 252.585 62.4101 252.585 62.4101C252.941 62.6517 253.271 62.8229 253.606 62.9466C253.942 63.0872 254.277 63.194 254.669 63.2858C254.473 63.3278 254.586 63.4807 254.751 63.7168C255.34 63.9425 255.334 63.4556 256.012 63.9734C255.817 64.0492 255.553 64.1843 255.212 64.1994C255.932 64.3949 256.723 64.4566 257.455 64.716C257.534 65.0118 256.888 64.8179 256.584 64.8254C257.395 65.1302 258.663 65.6573 259.071 65.4646L258.634 65.093C258.922 65.228 258.637 65.4448 258.398 65.3999C257.61 65.3144 257.501 64.7961 257.524 64.6568L258.051 64.8367C257.971 64.3651 257.463 64.1272 256.855 63.9595C256.231 63.809 255.517 63.7251 255.016 63.4735L255.668 63.153L254.434 63.1089C254.275 62.876 254.242 62.5182 254.781 62.6708C254.156 62.0941 254.06 62.5498 253.537 62.0213C253.488 61.9481 253.528 61.9336 253.599 61.942L252.806 61.8126C252.991 61.7574 252.833 61.3993 253.253 61.6461C252.042 60.8368 250.981 61.2079 250.62 60.6383L250.742 60.6455C248.82 60.2123 250.419 60.9782 248.877 60.9822L248.247 59.702L247.941 60.0343C247.755 59.9475 247.379 59.8045 247.497 59.6765C246.693 59.7504 247.567 59.8845 247.073 60.0286C246.24 59.413 244.45 59.501 244.398 58.8088C243.987 59.0252 245.24 59.2786 244.182 59.2335C244.057 58.4822 242.982 59.0973 242.189 58.5924C242.53 58.2931 243.32 58.6627 242.513 58.1514C241.868 58.6341 240.839 57.6512 240.064 57.6635C239.948 58.1603 238.418 57.5686 237.141 57.5966C237.239 57.4589 234.815 57.0245 233.647 56.8029L233.685 56.7207C233.424 57.2075 232.223 57.0374 231.344 57.0929C231.39 56.7974 231.55 56.6886 232.035 56.582L231.203 56.5347C231.004 56.6919 230.739 56.7762 230.198 56.8233L230.412 56.4561C229.294 56.4835 228.178 56.8289 226.748 56.6679C226.686 57.0144 227.897 57.5902 226.421 57.8836C226.358 57.6957 226.289 57.3794 226.676 57.2853C226.545 57.3156 226.227 57.4587 225.967 57.3873L226.551 57.0516C225.901 56.939 226.223 57.3235 225.708 57.3159C225.707 57.0486 225.317 57.1326 225.379 56.9281C225.51 56.8978 225.839 57.0183 226.025 56.9055C225.442 56.8826 224.727 56.7479 224.481 56.5578C224.546 56.705 224.504 56.9192 224.079 56.9871C222.978 57.1055 223.678 56.6993 223.022 56.6173C222.774 56.8264 222.049 56.6953 222.069 57.0974C221.748 57.1222 221.665 56.9415 221.534 56.8466C220.981 57.0632 218.885 57.25 219.578 57.5747L219.724 57.5846C219.724 57.5846 219.664 57.6064 219.633 57.6173C218.737 57.9404 217.77 58.0047 216.807 58.113C215.848 58.2143 214.862 58.2453 213.976 58.5478L213.952 58.4199C213.677 58.5247 213.449 58.6014 213.092 58.7015C212.736 58.8016 212.376 58.9085 212.029 59.005C211.69 59.1047 211.377 59.2003 211.112 59.3015L210.928 59.3737C210.877 59.375 210.919 59.4281 210.927 59.4651L210.964 59.5826C211.019 59.7335 211.067 59.8811 211.124 60.0083C211.178 60.3588 211.004 60.8198 210.808 60.6114C210.945 61.1764 211.058 61.4713 211.129 61.8214C211.194 62.0938 211.226 62.4178 211.212 63.0372C210.852 62.2342 211.054 63.3557 210.912 62.2124C210.962 63.3039 210.789 63.5821 211.327 64.6853C210.928 64.3399 211.025 65.5621 211.204 66.055L211.332 65.2636C211.469 65.8286 211.514 66.3417 211.565 66.858L211.078 66.6467C210.976 67.7927 211.357 68.7474 211.687 69.6527C211.779 69.938 211.823 69.9505 211.878 70.0844C211.925 70.1983 211.969 70.319 211.985 70.4269C212.022 70.6526 211.969 70.8535 211.73 70.7917C211.931 71.0608 211.98 71.0088 212.025 70.8961C212.07 70.8003 212.116 70.6469 212.35 70.9152C212.369 71.2327 212.214 71.3854 212.04 71.3626C211.864 71.3466 211.673 71.1822 211.685 71.2292C211.678 71.226 211.668 71.2297 211.658 71.2333C211.408 71.0161 211.516 71.2672 211.521 71.4531C211.537 71.6524 211.435 71.78 211.051 71.4918C211.152 71.7227 211.512 72.4006 210.641 72.1175C209.78 71.5974 210.081 71.0623 210.417 71.0946C210.53 71.1392 210.576 71.2192 210.568 71.2736C210.755 71.3028 210.918 71.3123 210.758 71.0287C210.735 71.0766 210.713 71.1246 210.69 71.1725C210.641 71.0993 210.564 71.0301 210.495 70.9641C210.405 70.8885 210.408 70.8648 210.204 70.7277C209.897 70.5086 209.678 70.3313 209.891 70.2889C209.133 70.0673 209.476 70.3701 209.946 70.707C208.88 69.8908 208.121 69.7437 206.989 68.9799C207.14 69.1589 207.228 69.4172 207.039 69.3203C205.37 68.2213 206.124 69.1838 204.889 68.6221C204.321 68.0474 205.407 68.2305 204.101 67.7856C203.446 67.2537 204.139 67.328 204.5 67.3631C203.258 67.0654 202.542 66.1121 201.942 65.7311L202.581 65.9217C202.198 65.8093 201.916 65.6607 201.628 65.5087L201.806 65.9678C201.495 65.7387 201.206 65.5868 201.274 65.4768C200.827 65.4844 201.297 66.0886 200.468 65.9838C200.095 65.6005 199.009 65.4174 199.048 64.9598C200.406 65.8297 199.09 64.4953 200.328 65.0671C200.072 64.9888 199.79 64.8401 199.479 64.6109C199.453 64.5405 199.569 64.5613 199.675 64.5858C198.492 63.5391 198.824 64.6879 197.418 63.9376C197.709 63.8154 197.301 63.3654 197.045 63.2871C197.615 63.5877 197.129 63.7857 196.52 63.6755C195.706 63.0358 195.472 63.2851 195.011 63.019L195.512 63.3789C195.214 63.4978 194.78 63.2277 194.115 62.9666C194.147 62.773 194.747 63.1541 194.562 62.959C193.665 62.9642 193.181 61.7446 192.073 61.4843C191.7 61.101 192.238 61.0608 191.895 60.758C190.653 60.4603 190.864 59.8496 189.593 59.4715C189.772 59.9306 189.872 59.8943 188.913 59.7453L190.913 60.5318L189.484 60.3131C190.054 60.6137 190.78 60.7617 191.101 60.9872C190.398 60.9165 190.498 60.8802 190.647 61.2588C190.093 60.4233 188.969 60.6979 188.22 59.9382L188.622 59.2416C188.025 58.7285 187.375 58.5077 186.664 58.2748C186.49 58.2182 186.309 58.1584 186.121 58.0953C186.008 58.0507 185.995 58.0612 185.943 58.0456L185.807 58.0151C185.623 57.9621 185.417 57.8657 185.284 57.737C185.313 57.8006 185.346 57.8742 185.392 57.9542C185.184 58.0236 185.005 57.9401 184.84 57.846C184.671 57.7419 184.546 57.6333 184.27 57.5623C184.746 57.51 184.747 57.4017 185 57.3448C184.8 57.3598 184.69 57.2915 184.437 57.2064C184.466 57.1448 184.436 57.0643 184.001 56.9938C184.382 56.9472 184.724 56.9321 185.019 56.9282C185.743 56.7582 184.836 56.1749 186.302 55.618C186.152 55.8483 186.256 55.9303 186.29 56.0377C186.308 56.088 186.306 56.1456 186.251 56.2281C186.205 56.3071 186.026 56.44 185.994 56.5085C186.027 56.4907 186.346 56.3645 186.489 56.2899C186.653 56.2081 186.743 56.1247 186.706 56.041C187.053 56.0697 187.861 55.1297 188.394 55.1708C188.545 54.9742 188.493 54.6913 189.03 54.4752C189.112 54.4969 189.081 54.5991 189.081 54.5991C189.03 54.4752 189.832 54.0664 189.251 54.0029C190.144 54.0622 191.151 53.5909 192.125 53.1204C192.372 53.0027 192.61 52.8886 192.847 52.7745C193.102 52.66 193.279 52.5846 193.611 52.4479C194.215 52.2132 194.8 52.0365 195.448 51.9394C195.625 51.847 195.802 51.7547 195.979 51.6624L196.113 51.5915C196.113 51.5915 196.156 51.5701 196.18 51.556L196.147 51.4824L196.007 51.1746C195.827 50.7731 195.65 50.3647 195.473 49.9563C195.18 49.2768 194.898 48.6105 194.646 48.0416C194.748 48.0729 194.77 47.9912 194.812 48.1864C194.524 46.7659 193.762 47.6777 193.374 46.0938C193.434 45.1621 193.938 46.7836 193.88 46.2472C194.576 45.6888 193.003 44.4927 192.941 43.3203L193.109 43.5327C192.984 42.6562 191.919 41.84 191.287 40.6343C191.287 40.6343 191.386 40.6555 191.407 40.5738C190.544 39.9861 189.574 38.5214 188.733 37.5103C189.246 37.6668 189.208 37.908 189.374 37.5182C189.016 37.05 188.989 37.9641 188.277 37.0377C188.232 36.616 187.912 35.8153 188.155 35.5116L188.769 36.4336C188.871 35.6801 187.975 35.2353 187.69 34.7179L187.909 34.6618C187.379 33.9881 187.009 33.7231 186.639 33.4413C186.272 33.1526 185.902 32.8539 185.341 32.1403L185.334 32.3874C184.305 31.9391 185.047 31.5521 184.122 31.0268L184.35 30.4495C183.844 30.012 182.436 29.052 181.591 28.2473C182.322 28.4729 183.39 29.3736 184.148 29.8625C183.718 29.369 182.641 28.2215 182.215 28.1474C182.426 28.3046 182.749 28.4726 182.86 28.7168C182.433 28.5582 182.009 28.3182 181.591 27.997C181.159 27.6862 180.709 27.3082 180.256 26.8458C180.706 26.5641 180.156 25.9145 179.486 25.1833C178.776 24.4836 177.942 23.7091 177.858 23.0853C175.883 21.8348 174.445 19.9926 172.208 18.444C172.505 19.6681 171.569 17.9861 171.214 18.7796C170.667 18.4818 170.477 18.3343 170.461 18.2602L169.155 16.7971C168.906 16.3465 169.749 16.9753 169.805 16.7845C168.686 15.9764 169.524 16.152 168.852 15.4953C168.858 15.8402 168.212 15.6125 167.595 15.1067L168.348 16.0016C167.401 15.7001 167.144 15.3377 166.87 14.9757C166.736 14.7963 166.596 14.6137 166.378 14.4363C166.301 14.3503 166.325 14.37 166.129 14.3951C166.247 14.3584 166.337 14.3088 166.414 14.2528C166.32 14.2923 166.234 14.2437 166.033 14.208C165.818 14.1659 165.444 14.1074 164.43 13.9666C164.603 13.9556 165.163 13.9926 165.401 14.0374C165.356 13.9912 165.144 13.9254 164.789 13.8258L164.598 13.7696C164.54 13.7508 164.434 13.7263 164.447 13.7158C164.42 13.6861 164.398 13.6595 164.384 13.6362C164.352 13.5795 164.364 13.5183 164.431 13.4659C164.56 13.368 164.913 13.2747 165.398 13.4184L165.661 13.6082C165.663 13.5506 165.4 13.2357 165.849 13.4209C165.929 13.5001 166.017 13.6164 166.082 13.6216C166.074 13.5845 166.072 13.5 166.144 13.434C166.21 13.3647 166.358 13.3171 166.482 13.3749C166.446 13.4502 166.418 13.5287 166.417 13.6032C166.512 13.6313 166.58 13.6465 166.648 13.6449C166.682 13.644 166.709 13.64 166.743 13.6391C166.851 13.6399 166.953 13.6374 167.061 13.6381C167.501 13.6273 167.913 13.5698 168.315 13.499C169.111 13.3712 169.894 13.1456 170.827 13.1735C170.758 13.7672 172.421 14.2372 173.243 14.4639L173.205 14.546C173.505 14.603 173.808 14.653 174.1 14.6898C174.393 14.7435 174.669 14.7976 174.945 14.8518C175.493 14.9499 176.023 15.0147 176.56 15.0658C177.09 15.1306 177.626 15.1479 178.167 15.2428C178.705 15.3446 179.254 15.4597 179.831 15.6046C180.415 16.1619 181.569 16.6106 182.768 17.2476C183.372 17.5473 184.007 17.8531 184.619 18.1561C185.224 18.4728 185.756 18.8724 186.233 19.2294C185.975 18.9584 186.511 18.8505 186.905 19.0099C187.322 19.3887 188.461 19.4217 188.099 19.8365L187.931 19.7324C188.036 20.3658 189.013 20.9237 189.751 21.4197L190.273 20.913C190.606 21.4698 191.123 21.9036 191.657 22.354C192.187 22.8112 192.792 23.2361 193.371 23.6244C194.557 24.3802 195.548 25.1948 195.697 25.9658C196.232 26.2165 196.743 26.6979 197.279 26.9486L196.984 27.2028C197.991 28.3925 198.475 29.0031 199.84 30.36C199.693 30.3162 199.533 30.283 199.376 30.2428C200.049 31.0754 201.083 30.6001 201.748 31.3788L201.489 31.967C201.783 32.3386 202.061 32.7276 202.326 33.1271L203.04 34.3713C203.516 35.1952 204.082 35.9527 204.791 36.6186C204.707 36.6376 204.539 36.6755 204.366 36.4193C204.803 37.2002 205.745 39.5857 206.276 38.9333C206.046 39.0675 206.311 39.4838 206.647 39.9999C206.982 40.516 207.456 41.1133 207.782 41.5248L207.372 41.5416C207.469 41.6205 207.531 41.6325 207.635 41.7483C207.733 41.844 207.816 41.9333 207.903 42.0157C208.063 42.1742 208.192 42.2928 208.314 42.4251C208.555 42.6797 208.766 42.9621 209.088 43.4887C209.179 43.456 209.347 43.418 209.525 43.3764C209.905 43.3705 209.777 43.6443 209.241 43.627C209.912 43.6241 210.24 43.4773 210.548 43.3378C210.839 43.1987 211.272 43.0426 211.811 43.0531L211.416 43.3605C212.395 43.2349 212.3 43.1155 212.806 42.7512C213.398 42.4694 214.7 42.637 214.875 42.9609C214.984 42.7451 215.504 42.4211 216.102 42.4673C216.187 42.5904 215.982 42.6867 215.879 42.7299C217.538 42.8143 218.326 42.1488 219.481 42.5061C219.505 42.634 219.578 42.6931 219.677 42.7313C218.359 42.74 217.301 42.7118 217.399 42.6993C217.421 43.0269 218.47 43.0925 217.656 43.5793C218.476 43.3122 219.928 42.7319 220.962 42.8824C221.014 42.915 221.058 42.9443 221.097 43.0043L220.987 43.0442C221.221 43.079 221.434 43.0366 221.636 42.9978C221.96 43.0744 222.168 43.1302 222.481 43.1597C222.587 43.4514 223.676 43.3942 224.199 43.4389C224.186 43.057 224.873 43.1619 224.253 42.805C224.336 42.8435 224.153 42.8413 223.797 42.8331C223.719 42.8384 223.621 42.834 223.567 42.859C223.573 42.8453 223.594 42.8381 223.607 42.8276C223.261 42.8158 222.806 42.7864 222.287 42.7687C222.716 42.6025 223.164 42.4698 223.733 42.7196C224.022 42.496 224.341 42.2615 224.524 42.1556C225.216 42.6967 226.568 43.2048 226.713 43.5565C227.52 43.5671 228.471 43.6452 229.35 43.698C230.22 43.7883 231.033 43.8022 231.616 43.5578C232.091 43.5631 232.089 43.871 232.232 44.0129C231.957 44.0264 231.65 43.9494 231.483 44.0212C231.954 44.0333 232.628 44.1486 233.213 44.2391C233.796 44.3534 234.309 44.4017 234.49 44.1943C235.548 44.74 233.734 44.4496 235.289 44.8275L235.041 44.9114C235.73 45.3343 236.412 45.5205 237.064 45.7007C237.716 45.8809 238.369 45.9697 239.043 46.0682C239.707 46.1872 240.417 46.2442 241.075 46.5528C241.747 46.834 242.432 47.2299 243.102 47.8359C242.911 47.6714 242.814 47.5926 242.808 47.4981C243.232 47.7718 243.676 48.0045 244.109 48.2577C244.534 48.5315 244.964 48.7915 245.408 49.0411C245.852 49.2907 246.298 49.5334 246.742 49.783C246.969 49.906 247.199 50.0221 247.416 50.1487L248.058 50.566C248.909 51.1236 249.765 51.6912 250.567 52.3007C251.321 52.9791 252.027 53.6857 252.654 54.4551C253.411 55.2687 253.669 55.1643 254.328 55.4729L254.205 55.9326L255.357 56.4388C255.706 56.6772 255.961 56.972 256.179 57.2914C256.388 57.6144 256.513 57.9902 256.675 58.3584C256.99 59.0983 257.348 59.8337 258.263 60.454L258.321 60.0805C258.549 60.3793 258.904 60.8544 259.172 61.2639C259.441 61.6734 259.622 62.0004 259.457 62.0316C259.539 62.0701 259.835 62.0832 259.867 62.4072L259.698 62.5365C260.12 62.993 260.582 63.4349 260.995 63.9119C261.498 65.2663 260.15 64.1255 261.036 65.9846C261.45 66.6206 262.582 67.6686 262.584 67.3607C262.451 67.073 262.344 66.5885 262.53 66.4757L262.953 67.0742C263.583 66.9268 264.44 67.2035 264.019 65.3701L263.102 64.3981L263.19 63.8885L263.69 64.8403C263.672 64.1642 263.272 63.927 262.919 63.6279C263.016 63.4563 263.034 63.2394 262.976 62.9871C262.626 62.698 262.2 62.4649 261.81 62.2072C261.939 61.9503 262.534 62.4296 262.198 61.6462C261.643 61.2945 262.025 62.4083 261.352 61.6839C261.27 61.0195 261.562 61.0394 260.97 60.5702C261.05 60.3991 261.218 60.4694 261.434 60.6704C260.914 60.2434 260.468 59.2666 259.972 59.2179C259.861 58.5068 258.566 57.5914 259.069 57.2678C258.827 57.1959 258.006 56.6782 257.625 56.241C258.891 56.5583 256.146 54.6298 256.889 54.3105C256.376 54.2453 255.825 53.7785 255.251 53.2344C254.651 52.7112 253.969 52.1664 253.327 51.8405C253.422 51.8517 253.602 51.8777 253.679 51.9807C253.112 51.4229 253.06 51.1231 252.747 50.7011C252.542 50.872 252.19 50.7825 251.79 50.6367C251.38 50.5115 250.928 50.3331 250.564 50.271C250.081 49.3018 251.41 50.1082 251.459 49.5386C251.242 49.9127 249.83 48.9088 249.89 49.3877C249.468 48.6978 249.46 48.8942 249.39 48.3107C248.912 48.796 248.772 47.9876 248.014 48.0333C247.267 47.216 248.101 47.3647 246.978 46.9389C246.593 46.4748 247.625 46.808 247.625 46.808L247.588 46.924ZM220.691 40.6191C220.935 40.5996 221.138 40.5946 221.267 40.5881C221.145 40.5978 220.982 40.6052 220.698 40.6223L220.691 40.6191ZM218.371 40.6423C218.649 40.6557 219.002 40.6539 219.381 40.6479C219.462 40.7779 219.374 40.9119 219.147 40.9141C219.274 40.8231 218.73 40.7519 218.378 40.6455L218.371 40.6423ZM223.11 43.3709C222.761 43.3998 222.647 43.3214 222.601 43.2413C222.767 43.244 222.96 43.2427 223.214 43.2364C223.221 43.2227 223.244 43.2086 223.261 43.1913C223.225 43.2666 223.18 43.3286 223.11 43.3709Z" fill="white"/>
<path d="M223.782 42.9178C223.833 42.9165 223.866 42.8988 223.931 42.904C223.862 42.8718 223.794 42.8397 223.725 42.8075C223.682 42.8458 223.632 42.8809 223.589 42.9191C223.653 42.9243 223.721 42.9226 223.779 42.9246L223.782 42.9178Z" fill="white"/>
<path d="M219.613 57.6248L219.563 57.626C219.607 57.6384 219.645 57.6477 219.669 57.6674C219.634 57.6513 219.631 57.6412 219.61 57.6316L219.613 57.6248Z" fill="white"/>
<path d="M197.708 23.2108L197.649 23.2833L197.854 23.3628L197.708 23.2108Z" fill="white"/>
<path d="M232.158 58.375C232.158 58.375 232.225 58.4478 232.317 58.4827C232.313 58.4558 232.247 58.4168 232.158 58.375Z" fill="white"/>
<path d="M237.471 58.9288C237.716 58.9938 237.956 59.0894 238.199 59.1782C237.891 59.0504 237.661 58.9681 237.471 58.9288Z" fill="white"/>
<path d="M241.487 59.7902C241.553 59.7379 241.576 59.69 241.595 59.6489L241.588 59.6457L241.487 59.7902Z" fill="white"/>
<path d="M194.121 65.4568C194.073 65.4343 194.018 65.4086 193.974 65.3962C193.605 65.2902 193.848 65.379 194.121 65.4568Z" fill="white"/>
<path d="M212.636 74.1281C212.446 74.1057 212.242 74.0769 212.002 73.9982C212.433 74.2583 212.773 74.4427 212.636 74.1281Z" fill="white"/>
<path d="M186.943 52.6056C186.987 52.5842 187.027 52.5697 187.071 52.5483L186.947 52.5987L186.943 52.6056Z" fill="white"/>
<path d="M210.909 73.4208C211.327 73.7251 211.698 73.8987 212.002 73.9995C211.644 73.7816 211.251 73.5308 210.909 73.4208Z" fill="white"/>
<path d="M258.107 65.8057L258.276 65.9098C258.276 65.9098 258.302 65.872 258.322 65.8647L258.107 65.8057Z" fill="white"/>
<path d="M258.322 65.8643L258.537 65.9233C258.448 65.8815 258.365 65.8429 258.322 65.8643Z" fill="white"/>
<path d="M258.995 66.0555L258.544 65.9278C258.688 65.9953 258.857 66.0994 258.995 66.0555Z" fill="white"/>
<path d="M253.275 63.3506L253.166 63.4582C253.166 63.4582 253.246 63.4122 253.275 63.3506Z" fill="white"/>
<path d="M251.724 62.8004C252.081 62.9675 252.534 63.43 253.072 63.5487L253.162 63.4653C252.849 63.561 252.156 62.7187 251.724 62.8004Z" fill="white"/>
<path d="M245.613 59.0363L246.954 59.5142C246.758 59.3058 246.494 59.0316 247.124 59.1683C245.508 58.2777 247.393 59.5778 245.613 59.0363Z" fill="white"/>
<path d="M241.37 57.8418C242.128 57.9382 241.402 57.6312 241.454 57.5555C240.95 57.595 240.832 57.6148 241.37 57.8418Z" fill="white"/>
<path d="M210.767 61.0591L210.39 60.8992C210.576 61.7878 210.532 60.916 210.767 61.0591Z" fill="white"/>
<path d="M213.489 66.9658L213.616 66.3741L213.258 66.1562L213.489 66.9658Z" fill="white"/>
<path d="M211.489 70.2203L211.426 70.1406C211.482 70.234 211.54 70.3442 211.604 70.4745L211.489 70.2203Z" fill="white"/>
<path d="M194.055 53.09C193.891 53.0129 193.742 52.9184 193.601 52.8272C193.364 52.9751 193.368 53.1272 193.409 53.2379C193.492 53.3271 193.552 53.3967 194.062 53.0933L194.055 53.09Z" fill="white"/>
<path d="M185.688 32.2192C185.7 31.8908 185.399 31.2994 184.984 31.1134C185.287 31.539 185.484 32.0483 185.688 32.2192Z" fill="white"/>
<path d="M190.868 22.0359L190.42 21.9014L191.183 22.2751L190.868 22.0359Z" fill="white"/>
</g>
<path d="M196.626 241.095C184.335 226.898 162.504 225.871 146.563 234.551C134.731 220.783 113.919 214.021 97.4003 222.993C113.686 224.793 127.365 232.769 136.785 245.211L127.247 253.603L157.868 259.187L152.468 248.103C165.544 240.048 180.996 237.053 196.62 241.088L196.626 241.095Z" fill="white"/>
<path d="M196.432 241.839C196.591 241.776 196.572 241.532 196.197 241.5L195.846 241.811L196.425 241.838L196.432 241.839Z" fill="white"/>
<path d="M194.159 240.585C193.69 240.658 193.133 240.902 193.34 241.296C193.838 241.012 193.904 241.197 194.447 240.874C194.822 240.912 195.053 241.14 194.957 241.264C195.11 241.2 195.498 241.476 195.746 241.288C195.349 240.893 194.741 240.738 194.072 240.835C193.957 240.721 194.104 240.65 194.152 240.591L194.159 240.585Z" fill="white"/>
<path d="M158.327 244.334L158.565 244.275C158.499 244.279 158.417 244.301 158.327 244.334Z" fill="white"/>
<path d="M154.563 257.822C154.666 257.836 154.703 257.802 154.702 257.763C154.616 257.77 154.543 257.78 154.563 257.822Z" fill="white"/>
<path d="M150.975 256.741C151.057 256.765 151.12 256.787 151.195 256.81C151.117 256.76 151.037 256.723 150.975 256.741Z" fill="white"/>
<path d="M158.328 244.335L157.724 244.487C157.739 244.619 158.045 244.44 158.328 244.335Z" fill="white"/>
<path d="M189.084 240.697C189.209 240.695 189.317 240.671 189.413 240.638C189.308 240.643 189.21 240.643 189.105 240.641C189.102 240.661 189.093 240.679 189.078 240.696L189.084 240.697Z" fill="white"/>
<path d="M167.661 240.516L167.839 240.462C167.879 240.409 167.915 240.342 167.95 240.275C167.854 240.353 167.758 240.431 167.661 240.516Z" fill="white"/>
<path d="M175.261 238.91C175.083 238.918 175.07 239.249 175.023 239.4C175.102 239.254 175.218 239.172 175.369 239.127C175.364 239.068 175.328 238.997 175.261 238.91Z" fill="white"/>
<path d="M187.529 239.194L187.749 239.166C187.69 239.171 187.596 239.184 187.529 239.194Z" fill="white"/>
<path d="M162.351 242.189C162.324 242.147 162.282 242.121 162.244 242.109C162.258 242.151 162.3 242.176 162.351 242.189Z" fill="white"/>
<path d="M190.827 234.002C190.827 234.002 190.809 234.032 190.794 234.049C190.852 234.051 190.874 234.034 190.827 234.002Z" fill="white"/>
<path d="M196.558 241.151L196.458 241.072C196.401 241.104 196.344 241.135 196.3 241.175L196.552 241.151L196.558 241.151Z" fill="white"/>
<path d="M144.09 255.061C144.09 255.061 144.109 255.063 144.121 255.071C144.311 255.071 144.208 255.057 144.09 255.061Z" fill="white"/>
<path d="M108.704 223.949C109.337 224.441 107.424 223.962 108.413 224.588C108.348 224.436 109.547 224.392 108.704 223.949Z" fill="white"/>
<path d="M188.898 240.631C188.795 240.617 188.69 240.616 188.595 240.596C188.735 240.622 188.826 240.628 188.898 240.631Z" fill="white"/>
<path d="M108.412 224.594L108.514 224.66C108.472 224.635 108.448 224.618 108.412 224.594Z" fill="white"/>
<path d="M130.468 252.771C130.364 252.809 130.3 252.845 130.243 252.877C130.305 252.853 130.362 252.821 130.468 252.771Z" fill="white"/>
<path d="M139.884 254.964L139.596 254.865C139.707 254.913 139.801 254.946 139.884 254.964Z" fill="white"/>
<path d="M132.197 250.492C132.334 250.4 132.407 250.397 132.543 250.219C132.517 250.216 132.496 250.226 132.468 250.235C132.437 250.322 132.372 250.412 132.197 250.492Z" fill="white"/>
<path d="M137.634 245.707C137.565 245.736 137.494 245.772 137.424 245.808C137.356 245.871 137.28 245.946 137.218 246.015L137.641 245.708L137.634 245.707Z" fill="white"/>
<path d="M171.339 227.762C171.483 227.86 171.566 227.97 171.63 228.076C171.545 227.836 172.543 227.823 171.339 227.762Z" fill="white"/>
<path d="M189.104 240.51C189.054 240.588 188.998 240.62 188.899 240.625C188.97 240.629 189.042 240.632 189.113 240.635C189.14 240.587 189.146 240.542 189.104 240.51Z" fill="white"/>
<path d="M130.684 248.389L131.495 247.736C131.255 247.906 130.961 248.14 130.684 248.389Z" fill="white"/>
<path d="M129.823 220.917L130.064 220.97C129.979 220.926 129.896 220.908 129.823 220.917Z" fill="white"/>
<path d="M133.787 245.66C134.002 245.624 134.196 245.547 134.375 245.441C134.388 245.39 134.414 245.348 134.408 245.295L133.782 245.653L133.787 245.66Z" fill="white"/>
<path d="M178.766 228.405C177.758 228.162 178.194 228.705 177.926 228.891C176.709 228.736 177.443 228.452 177.078 228.146C176.302 228.072 175.651 228.427 175.096 228.311C175.067 228.235 174.962 228.195 175.103 228.123C174.674 228.234 174.083 228.152 173.477 228.075C172.866 227.991 172.234 228.015 171.752 228.184C171.686 228.142 171.652 228.105 171.637 228.07C171.77 228.291 171.779 228.514 171.738 228.666C171.289 228.643 170.889 228.882 170.732 228.592C171.011 228.618 171.039 228.51 171.174 228.431L170.696 228.522C170.29 228.094 171.352 228.423 171.367 228.124C170.427 228.191 169.344 228.447 168.64 228.37C168.491 227.976 170.305 228.22 169.363 227.881C169.731 227.919 170.097 228.021 170.462 228.085C169.644 227.41 171.13 228.177 170.384 227.459C169.653 227.339 169.238 227.406 168.824 227.46C168.41 227.514 168.003 227.569 167.269 227.521C166.944 227.744 167.389 227.844 167.063 228.067C166.04 228.26 165.633 228.073 165.275 227.867C164.923 227.668 164.628 227.477 163.895 227.801C163.525 228.109 163.434 228.58 162.336 228.462L162.64 227.968C161.234 228.14 161.939 228.727 160.44 228.671C160.666 228.454 161.506 228.348 161.286 228.33C160.283 228.14 160.66 228.688 159.936 228.804L159.711 228.44C158.966 228.566 158.228 228.883 157.458 229.143C156.698 229.43 155.9 229.66 155.136 229.973C155.188 229.83 155.426 229.627 155.019 229.63C154.049 230.059 152.968 230.341 151.905 230.685C150.853 231.043 149.771 231.332 148.793 231.629L148.238 232.284C148.076 232.36 147.87 232.292 148.02 232.15C147.254 232.384 148.076 232.36 147.794 232.648C147.403 232.869 147.172 232.739 147.386 232.52C147.124 232.706 147.166 232.738 147.088 232.825C147.025 232.908 146.932 233.006 146.82 233.109C146.733 233.071 146.624 233.01 146.523 232.93C146.464 232.883 146.434 232.866 146.347 232.782C146.233 232.662 146.117 232.548 146.002 232.434C145.549 231.966 145.184 231.471 144.914 231.055C145.007 231.094 145.106 231.134 145.192 231.178C144.449 230.292 143.769 230.806 143.211 229.86L143.402 229.951C142.571 229.033 141.51 228.272 140.554 227.507C139.621 226.711 138.668 226.07 138.038 225.31C137.755 225.415 137.278 225.023 136.809 224.67C136.316 224.348 135.831 224.065 135.586 224.319C135.065 223.822 134.899 223.597 134.672 223.343C134.436 223.108 134.153 222.782 133.294 222.265C132.825 222.004 132.384 222.303 131.766 222.08L131.903 221.753L130.94 221.705C130.855 221.51 130.772 221.303 130.68 221.114L130.065 220.97C130.286 221.079 130.49 221.31 130.413 221.39C129.458 221.187 128.321 220.305 128.36 220.121C127.621 219.914 126.852 219.789 126.089 219.671C126.178 219.546 126.562 219.612 126.883 219.616C125.6 219.603 126.784 219.191 125.605 219.186C125.726 219.307 125.468 219.369 125.421 219.428C125.184 219.245 124.758 219.056 124.283 218.892C123.799 218.741 123.246 218.664 122.776 218.6L123.007 218.396C122.176 218.197 121.294 217.99 120.365 217.882C119.434 217.793 118.481 217.714 117.53 217.583C118.203 217.787 117.996 218.19 117.444 218.159L117.257 217.754C116.877 217.944 117.824 217.963 117.062 218.172C116.358 218.095 116.613 217.718 117.04 217.62L116.162 217.708C116.119 217.591 116.329 217.542 116.388 217.399C116.018 217.616 114.89 216.951 114.359 217.336L114.31 217.218C113.83 217.184 113.406 217.211 113.028 217.244C112.65 217.277 112.312 217.308 111.98 217.335C111.328 217.408 110.714 217.441 109.934 217.536C109.935 217.863 109.324 217.877 108.899 218.204C108.325 218.23 107.715 218.231 107.071 218.246C106.432 218.27 105.777 218.408 105.105 218.577C104.199 218.969 104.895 218.914 104.521 219.202C104.375 218.934 103.042 219.286 103.677 218.91C103.575 218.935 103.48 218.961 103.391 218.988C103.288 219.019 103.134 219.09 103.016 219.139C102.766 219.242 102.536 219.341 102.32 219.435C101.894 219.625 101.505 219.787 101.1 219.966C100.316 220.329 99.4613 220.682 98.2841 221.33C98.7985 221.211 99.1936 221.102 99.1932 221.2C98.8346 221.426 97.9233 221.666 97.6944 221.615L97.7693 221.547C97.269 221.896 96.6079 222.223 95.7717 222.585C95.354 222.763 94.896 222.948 94.4031 223.148L94.0284 223.299C93.9103 223.348 93.7453 223.404 93.695 223.436L93.2161 223.678C94.0188 223.893 94.9418 224.138 96.0362 224.328C97.1187 224.509 98.3637 224.701 99.5232 224.703L99.2946 224.698L102.852 224.94C103.183 225.012 103.3 225.067 103.303 225.094C103.3 225.119 103.162 225.12 103.022 225.133C102.744 225.154 102.341 225.177 102.892 225.364C103.468 225.417 103.6 225.415 103.846 225.436C104.073 225.454 104.284 225.49 104.482 225.524C104.885 225.599 105.257 225.703 105.61 225.804C106.315 226.018 106.959 226.29 107.788 226.359C108.737 227.509 112.049 227.73 113.398 228.922L113.391 228.693C113.878 228.675 113.834 228.995 114.103 229.183C114.126 229.016 113.748 228.814 114.041 228.821C117.562 230.097 120.761 232.564 123.684 234.934C124.75 235.813 124.963 234.548 126.052 236.012C125.844 236.003 125.634 236.007 125.424 236.004C127.913 237.399 129.767 239.733 131.92 241.468C131.738 241.41 131.655 241.484 131.465 241.294C131.686 241.88 132.889 242.895 133.073 242.751C133.335 243.087 132.985 242.961 133.072 243.234C133.198 243.507 133.51 243.719 133.784 243.921C134.049 244.134 134.278 244.329 134.269 244.536C134.266 244.608 134.095 244.467 134.013 244.397C134.098 244.447 134.207 244.561 134.326 244.695L134.404 244.79L134.422 244.806L134.457 244.837C134.498 244.869 134.578 244.906 134.726 244.835C134.73 244.901 134.756 244.95 134.795 244.995C134.838 245.02 134.802 245.041 134.786 245.065L134.744 245.131C134.711 245.179 134.678 245.227 134.626 245.272C134.603 245.295 134.575 245.311 134.547 245.326C134.526 245.337 134.526 245.33 134.492 245.345L134.349 245.43C134.176 246.066 132.872 246.494 133.078 246.993C132.786 246.548 131.407 247.9 131.065 248.526C131.128 248.261 130.517 248.791 130.571 248.452C130.002 248.962 129.542 249.5 129.821 249.61C129.275 249.672 128.153 250.825 127.519 251.528C126.818 252.288 126.354 252.799 125.088 253.383C124.714 253.769 124.346 254.15 124.033 254.473C125.792 254.695 127.479 254.908 129.122 255.115C129.488 255.166 129.855 255.216 130.216 255.259L130.743 255.332L131.112 255.37C131.551 255.417 131.989 255.471 132.422 255.517C132.341 255.768 131.784 255.678 131.244 255.597C131.109 255.578 130.974 255.56 130.852 255.543C130.691 255.521 130.466 255.49 130.303 255.487C129.965 255.467 129.718 255.498 129.693 255.632C129.918 255.663 130.132 255.679 130.344 255.708C130.538 255.729 130.803 255.758 130.875 255.755C131.097 255.76 131.313 255.763 131.516 255.765C131.928 255.77 132.315 255.771 132.708 255.773C133.479 255.787 134.244 255.847 135.175 256.08C135.652 256.237 134.857 256.252 134.672 256.311C136.619 256.449 138.347 257.033 140.093 257.058C140.08 257.102 139.888 257.121 139.71 257.129C140.044 257.175 140.473 257.346 140.48 257.105L140.145 257.111C139.674 256.673 141.605 256.645 141.694 256.475C141.006 257.04 143.339 256.95 142.281 257.634C142.511 257.633 142.808 257.569 142.785 257.403C143.105 257.506 143.188 257.615 142.824 257.735C144.044 257.825 143.663 257.498 144.749 257.699C144.727 257.814 144.497 257.815 144.364 257.927C144.951 257.806 145.544 257.685 146.444 257.953C146.378 258.009 146.467 258.119 146.193 258.068C147.777 258.319 148.985 257.969 150.675 258.496C150.076 258.897 151.235 258.763 151.245 259.209L152.197 259.248L151.861 258.973C152.684 259.133 153.424 258.947 154.146 259.223C153.889 259.24 153.708 259.267 153.489 259.283L155.457 259.554L154.239 259.17C154.804 259.157 154.739 259.01 154.746 258.913C154.759 258.817 154.785 258.775 155.404 258.945C155.187 258.948 156.272 259.111 157.068 259.514C157.419 259.445 157.635 259.351 158.38 259.558C158.37 259.53 158.361 259.503 158.352 259.469C158.504 259.464 159.263 260.235 159.361 260.235C158.913 259.729 158.59 259.123 158.256 258.502C157.923 257.88 157.578 257.245 157.213 256.94C157.409 257.136 157.7 257.209 157.717 257.14C157.529 256.977 157.346 256.834 157.174 256.705C157.069 256.273 157.075 256.182 157.298 256.232C156.961 255.486 156.898 255.661 156.823 255.775C156.789 255.835 156.75 255.876 156.694 255.809C156.665 255.779 156.629 255.709 156.589 255.618C156.555 255.535 156.513 255.412 156.463 255.248C156.53 255.336 156.546 255.266 156.685 255.448C156.194 254.159 155.357 253.148 154.932 251.952C155.161 251.428 155.51 252.894 155.657 252.352C155.223 251.554 154.696 250.763 154.189 249.974C153.973 249.637 153.764 249.301 153.554 248.971C153.474 248.836 153.395 248.694 153.323 248.554L153.227 248.344C153.193 248.307 153.235 248.287 153.27 248.272L153.375 248.221L153.25 248.269C153.203 248.282 153.155 248.295 153.182 248.338C152.915 248.23 152.975 248.173 153.063 248.106C153.164 248.042 153.348 247.989 153.538 247.943C153.728 247.897 153.922 247.865 154.073 247.814C154.156 247.786 154.204 247.767 154.304 247.709C154.397 247.649 154.486 247.577 154.564 247.489C154.399 247.637 154.49 247.93 154.509 247.841C155.043 247.575 155.554 247.247 156.13 246.869C156.706 246.497 157.316 246.012 158.095 245.544L157.964 245.781C158.663 245.61 159.674 245.069 160.39 244.821C160.533 244.593 160.946 244.447 160.613 244.342C161.881 244.321 162.837 243.753 163.82 243.281C164.306 243.034 164.786 242.787 165.283 242.6C165.78 242.42 166.303 242.335 166.857 242.359C166.617 242.431 166.33 242.659 166.521 242.607L168.17 241.959C167.964 241.741 167.907 241.87 167.488 241.773C167.662 241.555 168.106 241.283 168.539 241.186C167.807 241.549 168.658 241.601 169.03 241.665C168.953 241.602 169.042 241.484 168.992 241.412C170.008 241.65 169.011 240.852 170.327 240.857L170.293 241.009C170.733 240.815 171.13 240.549 171.642 240.496C171.913 240.762 171.177 240.732 171.194 240.99C171.89 240.837 172.471 240.139 173.173 240.321C172.891 240.465 172.46 240.55 172.172 240.693C172.934 240.916 172.995 240.806 173.518 240.767L173.466 240.76C173.868 240.744 174.279 240.761 174.686 240.752L174.367 240.695C175.134 239.787 176.144 240.253 177.297 239.641C176.172 240.244 177.137 239.946 177.081 240.304C177.399 240.374 177.869 240.439 177.748 240.553C178.292 240.222 178.7 240.684 179.472 240.215C179.516 240.326 180.077 240.2 179.965 240.492C180.695 240.377 179.781 240.303 179.834 240.16C180.394 239.943 181.07 240.036 181.8 240.111C182.536 240.193 183.319 240.307 184.141 240.048C184.851 239.936 185.28 239.826 185.696 239.706C186.112 239.587 186.521 239.474 187.19 239.422C187.62 239.632 186.79 239.805 186.79 239.805C187.142 239.912 187.455 239.968 187.761 239.984C188.072 240.014 188.373 240.016 188.717 239.992C188.568 240.076 188.698 240.172 188.894 240.323C189.433 240.359 189.304 239.962 189.99 240.213C189.851 240.325 189.669 240.502 189.393 240.601C190.032 240.578 190.695 240.428 191.36 240.454C191.499 240.676 190.922 240.681 190.675 240.765C191.416 240.808 192.587 240.917 192.872 240.656L192.42 240.463C192.69 240.5 192.512 240.75 192.305 240.774C191.638 240.904 191.418 240.508 191.401 240.388L191.878 240.401C191.692 240.036 191.217 239.97 190.677 239.987C190.128 240.023 189.523 240.136 189.049 240.057L189.501 239.629L188.479 239.907C188.29 239.757 188.172 239.472 188.652 239.46C187.994 239.147 188.031 239.545 187.47 239.245C187.411 239.198 187.44 239.175 187.501 239.164L186.819 239.26C186.956 239.168 186.735 238.915 187.142 239.01C185.945 238.656 185.172 239.229 184.732 238.855L184.834 238.829C183.151 238.964 184.654 239.184 183.393 239.579L182.552 238.692L182.386 239.041C182.213 239.017 181.868 238.996 181.933 238.861C181.293 239.126 182.043 239.014 181.675 239.257C180.837 238.965 179.395 239.492 179.176 238.939C178.895 239.22 179.985 239.109 179.108 239.341C178.814 238.758 178.091 239.535 177.315 239.323C177.518 238.991 178.257 239.093 177.467 238.88C177.063 239.439 175.971 238.896 175.34 239.103C175.371 239.539 173.969 239.444 172.931 239.791C172.977 239.653 170.883 239.914 169.871 240.03L169.882 239.953C169.791 240.417 168.766 240.583 168.06 240.852C168.023 240.598 168.126 240.469 168.496 240.258L167.804 240.431C167.681 240.61 167.485 240.747 167.055 240.923L167.136 240.568C166.229 240.874 165.404 241.44 164.192 241.672C164.23 241.971 165.367 242.135 164.234 242.75C164.135 242.612 163.998 242.371 164.291 242.195C164.191 242.254 163.967 242.451 163.737 242.459L164.129 242.036C163.569 242.109 163.93 242.342 163.506 242.466C163.438 242.248 163.14 242.416 163.139 242.233C163.238 242.175 163.538 242.19 163.662 242.05C163.179 242.179 162.56 242.251 162.31 242.158C162.401 242.262 162.421 242.448 162.09 242.611C161.219 242.988 161.69 242.478 161.132 242.577C160.982 242.811 160.355 242.888 160.474 243.212C160.218 243.314 160.104 243.187 159.973 243.143C159.575 243.461 157.908 244.146 158.557 244.236L158.679 244.207C158.679 244.207 158.635 244.24 158.613 244.256C157.962 244.748 157.187 245.047 156.427 245.38C155.668 245.707 154.87 245.982 154.221 246.455L154.169 246.357C153.971 246.512 153.804 246.633 153.537 246.805C153.271 246.978 153.004 247.157 152.745 247.324C152.493 247.492 152.261 247.649 152.07 247.799L151.938 247.905C151.896 247.919 151.944 247.952 151.96 247.98L152.02 248.067C152.103 248.177 152.18 248.285 152.26 248.375C152.392 248.648 152.367 249.069 152.154 248.948C152.41 249.376 152.577 249.588 152.724 249.857C152.846 250.063 152.955 250.32 153.101 250.83C152.602 250.265 153.053 251.131 152.646 250.232C152.964 251.112 152.894 251.384 153.614 252.149C153.2 251.968 153.589 252.943 153.861 253.301L153.765 252.621C154.021 253.049 154.187 253.457 154.36 253.867L153.908 253.817C154.116 254.781 154.671 255.465 155.17 256.122C155.318 256.332 155.357 256.331 155.436 256.427C155.503 256.508 155.57 256.595 155.611 256.68C155.698 256.855 155.706 257.033 155.495 257.043C155.728 257.212 155.755 257.157 155.763 257.053C155.775 256.964 155.774 256.826 156.034 256.986C156.13 257.241 156.042 257.406 155.894 257.431C155.745 257.463 155.548 257.377 155.569 257.412C155.562 257.411 155.555 257.417 155.548 257.422C155.288 257.308 155.441 257.486 155.492 257.637C155.555 257.796 155.505 257.926 155.117 257.788C155.259 257.951 155.726 258.414 154.941 258.404C154.104 258.197 154.214 257.683 154.498 257.624C154.602 257.632 154.66 257.686 154.666 257.732C154.827 257.709 154.963 257.675 154.76 257.484C154.753 257.529 154.747 257.574 154.741 257.619C154.682 257.571 154.602 257.534 154.528 257.498C154.435 257.459 154.432 257.439 154.23 257.378C153.923 257.277 153.699 257.187 153.862 257.099C153.186 257.11 153.544 257.271 154.014 257.427C152.935 257.03 152.276 257.102 151.156 256.765C151.325 256.873 151.462 257.062 151.283 257.031C149.638 256.556 150.5 257.152 149.347 257.006C148.736 256.68 149.671 256.554 148.49 256.522C147.819 256.253 148.405 256.138 148.708 256.075C147.617 256.147 146.789 255.549 146.201 255.39L146.772 255.383C146.431 255.389 146.162 255.339 145.888 255.288L146.15 255.618C145.837 255.509 145.563 255.459 145.59 255.351C145.227 255.471 145.765 255.846 145.059 255.971C144.657 255.752 143.722 255.878 143.638 255.494C144.97 255.861 143.554 255.103 144.712 255.256C144.483 255.258 144.214 255.207 143.902 255.099C143.863 255.048 143.963 255.036 144.056 255.029C142.821 254.473 143.385 255.329 142.044 255.072C142.252 254.898 141.803 254.633 141.574 254.635C142.117 254.735 141.77 255.021 141.243 255.086C140.415 254.769 140.287 255.032 139.842 254.932L140.343 255.099C140.129 255.272 139.706 255.161 139.096 255.117C139.073 254.95 139.66 255.109 139.46 254.997C138.726 255.229 138.021 254.354 137.048 254.423C136.646 254.204 137.076 254.034 136.718 253.874C135.627 253.946 135.644 253.393 134.508 253.406C134.771 253.736 134.844 253.681 134.021 253.803L135.857 253.938L134.632 254.123C135.175 254.224 135.807 254.16 136.127 254.263C135.533 254.384 135.607 254.329 135.825 254.601C135.159 254.058 134.309 254.568 133.503 254.137L133.655 253.465C133.036 253.197 132.449 253.181 131.808 253.171C131.651 253.169 131.487 253.166 131.318 253.163C131.214 253.155 131.206 253.167 131.16 253.167L131.04 253.177C130.876 253.18 130.683 253.154 130.542 253.082C130.582 253.127 130.627 253.179 130.685 253.232C130.533 253.342 130.365 253.319 130.206 253.284C130.042 253.242 129.912 253.185 129.668 253.197C130.044 253.033 130.017 252.944 130.21 252.834C130.05 252.897 129.943 252.869 129.714 252.863C129.722 252.806 129.678 252.747 129.303 252.8C129.604 252.665 129.879 252.566 130.12 252.488C130.669 252.165 129.779 251.918 130.836 251.09C130.772 251.316 130.878 251.357 130.933 251.436C130.961 251.473 130.974 251.52 130.949 251.602C130.932 251.678 130.819 251.833 130.81 251.897C130.833 251.874 131.062 251.689 131.16 251.592C131.274 251.483 131.326 251.392 131.275 251.333C131.565 251.269 131.988 250.294 132.435 250.192C132.508 249.993 132.394 249.775 132.778 249.462C132.85 249.459 132.851 249.55 132.851 249.55C132.778 249.462 133.33 248.924 132.839 249.019C133.584 248.841 134.288 248.199 134.965 247.567C135.138 247.408 135.303 247.254 135.469 247.1C135.648 246.942 135.774 246.835 136.011 246.639C136.445 246.294 136.878 246.001 137.384 245.756C137.505 245.636 137.627 245.515 137.748 245.395L137.84 245.303C137.84 245.303 137.87 245.274 137.885 245.257L137.84 245.205L137.647 244.989C137.398 244.706 137.149 244.417 136.901 244.128C136.489 243.646 136.088 243.173 135.737 242.771C135.829 242.771 135.826 242.699 135.91 242.848C135.313 241.759 134.922 242.698 134.202 241.501C134.014 240.724 134.839 241.922 134.655 241.498C135.083 240.864 133.491 240.285 133.143 239.342L133.335 239.473C133.01 238.788 131.931 238.391 131.107 237.565C131.107 237.565 131.194 237.557 131.19 237.485C130.335 237.223 129.169 236.272 128.224 235.658C128.684 235.656 128.714 235.863 128.751 235.502C128.339 235.209 128.549 235.964 127.731 235.387C127.587 235.054 127.122 234.48 127.243 234.17L127.98 234.768C127.872 234.126 127.026 233.989 126.661 233.638L126.826 233.537C126.221 233.12 125.852 232.998 125.477 232.861C125.104 232.718 124.725 232.568 124.084 232.127L124.142 232.331C123.186 232.225 123.695 231.72 122.804 231.525L122.844 230.995C122.319 230.766 120.923 230.338 120.027 229.894C120.683 229.893 121.785 230.359 122.53 230.566C122.053 230.272 120.88 229.607 120.513 229.654C120.725 229.729 121.032 229.784 121.185 229.956C120.795 229.935 120.388 229.846 119.964 229.69C119.532 229.545 119.067 229.35 118.579 229.087C118.876 228.742 118.261 228.35 117.527 227.922C116.769 227.53 115.89 227.109 115.662 226.62C113.729 226.098 112.084 224.957 109.86 224.258C110.414 225.184 109.221 224.046 109.132 224.785C108.609 224.681 108.416 224.608 108.384 224.552L106.944 223.687C106.626 223.381 107.476 223.681 107.473 223.511C106.352 223.134 107.082 223.065 106.366 222.698C106.458 222.979 105.871 222.957 105.238 222.7L106.081 223.241C105.23 223.235 104.928 223.004 104.612 222.777C104.457 222.664 104.296 222.55 104.072 222.461C103.987 222.41 104.012 222.42 103.858 222.49C103.945 222.43 104.006 222.367 104.055 222.302C103.988 222.358 103.905 222.34 103.732 222.362C103.546 222.382 103.225 222.429 102.36 222.571C102.498 222.518 102.966 222.406 103.172 222.383C103.123 222.356 102.933 222.356 102.617 222.365L102.447 222.368C102.394 222.367 102.302 222.374 102.31 222.362C102.279 222.345 102.255 222.328 102.238 222.313C102.197 222.274 102.192 222.221 102.233 222.162C102.314 222.049 102.579 221.883 103.012 221.877L103.275 221.965C103.262 221.918 102.967 221.727 103.382 221.764C103.467 221.809 103.569 221.882 103.623 221.87C103.607 221.841 103.584 221.773 103.626 221.7C103.663 221.627 103.772 221.55 103.887 221.566C103.878 221.637 103.874 221.708 103.892 221.769C103.978 221.768 104.037 221.763 104.092 221.745C104.12 221.735 104.141 221.725 104.168 221.716C104.257 221.689 104.34 221.661 104.429 221.634C104.786 221.513 105.108 221.362 105.419 221.202C106.038 220.895 106.621 220.511 107.391 220.297C107.486 220.8 108.965 220.762 109.696 220.739L109.686 220.816C109.945 220.786 110.206 220.75 110.454 220.706C110.708 220.676 110.947 220.65 111.186 220.624C111.66 220.565 112.11 220.483 112.562 220.389C113.013 220.307 113.455 220.185 113.922 220.125C114.388 220.072 114.867 220.026 115.375 219.998C115.994 220.306 117.052 220.38 118.196 220.596C118.766 220.688 119.364 220.777 119.941 220.869C120.516 220.975 121.053 221.166 121.534 221.337C121.254 221.181 121.665 220.957 122.028 220.987C122.465 221.191 123.406 220.928 123.215 221.36L123.051 221.317C123.297 221.809 124.239 222.017 124.969 222.235L125.267 221.688C125.681 222.059 126.214 222.283 126.765 222.515C127.315 222.755 127.918 222.949 128.491 223.119C129.653 223.436 130.67 223.851 130.988 224.444C131.49 224.513 132.03 224.777 132.532 224.846L132.355 225.129C133.482 225.846 134.033 226.223 135.494 226.986C135.363 226.988 135.223 227.001 135.085 227.008C135.847 227.518 136.572 226.867 137.314 227.335L137.251 227.882C137.587 228.111 137.913 228.359 138.231 228.618L139.132 229.455C139.731 230.008 140.386 230.484 141.135 230.848C141.071 230.885 140.943 230.959 140.736 230.793C141.293 231.321 142.669 233.033 142.938 232.365C142.784 232.533 143.107 232.806 143.512 233.143C143.918 233.48 144.457 233.848 144.829 234.102L144.498 234.22C144.597 234.26 144.65 234.254 144.765 234.322C144.869 234.376 144.961 234.428 145.053 234.473C145.224 234.562 145.359 234.626 145.493 234.704C145.754 234.851 145.998 235.028 146.396 235.377C146.462 235.327 146.59 235.253 146.725 235.174C147.034 235.073 146.999 235.329 146.556 235.451C147.104 235.278 147.335 235.075 147.552 234.883C147.755 234.695 148.069 234.457 148.513 234.329L148.268 234.681C149.037 234.329 148.929 234.255 149.25 233.829C149.663 233.448 150.771 233.254 150.996 233.475C151.031 233.27 151.374 232.873 151.875 232.759C151.975 232.838 151.833 232.969 151.759 233.031C153.138 232.678 153.614 231.933 154.649 231.932C154.701 232.031 154.776 232.061 154.867 232.067C153.791 232.409 152.918 232.655 152.995 232.619C153.096 232.882 153.971 232.669 153.429 233.274C154.032 232.847 155.072 232.004 155.956 231.864C156.007 231.877 156.051 231.89 156.098 231.929L156.018 231.99C156.218 231.959 156.381 231.87 156.537 231.787C156.822 231.767 157.006 231.76 157.269 231.705C157.43 231.917 158.307 231.593 158.746 231.497C158.638 231.188 159.227 231.099 158.629 230.964C158.707 230.975 158.556 231.02 158.263 231.103C158.201 231.127 158.119 231.149 158.082 231.183C158.083 231.17 158.098 231.159 158.106 231.147C157.82 231.225 157.441 231.317 157.012 231.434C157.321 231.189 157.653 230.967 158.182 231.027C158.361 230.77 158.563 230.498 158.686 230.364C159.39 230.631 160.625 230.703 160.833 230.954C161.495 230.758 162.293 230.58 163.026 230.4C163.76 230.253 164.43 230.057 164.844 229.709C165.234 229.593 165.311 229.846 165.463 229.925C165.243 230.006 164.972 230.021 164.853 230.122C165.242 230.012 165.822 229.936 166.324 229.861C166.83 229.806 167.262 229.716 167.357 229.5C168.361 229.678 166.804 229.901 168.172 229.815L167.99 229.947C168.661 230.118 169.267 230.096 169.846 230.078C170.425 230.06 170.982 229.967 171.558 229.876C172.132 229.805 172.727 229.671 173.344 229.756C173.965 229.816 174.626 229.965 175.328 230.291C175.13 230.205 175.031 230.165 175.002 230.089C175.419 230.205 175.84 230.283 176.26 230.38C176.676 230.496 177.094 230.6 177.521 230.691C177.947 230.783 178.375 230.868 178.801 230.959C179.018 231.002 179.236 231.039 179.445 231.087L180.076 231.265C180.915 231.505 181.759 231.752 182.57 232.047C183.359 232.41 184.116 232.809 184.825 233.279C185.651 233.752 185.836 233.601 186.453 233.686L186.469 234.094L187.54 234.215C187.886 234.322 188.17 234.498 188.43 234.704C188.682 234.915 188.88 235.191 189.107 235.451C189.552 235.976 190.032 236.487 190.938 236.762L190.89 236.442C191.153 236.628 191.564 236.927 191.887 237.193C192.211 237.46 192.443 237.682 192.316 237.749C192.393 237.76 192.637 237.695 192.746 237.952L192.641 238.101C193.102 238.367 193.593 238.611 194.051 238.897C194.808 239.877 193.414 239.286 194.612 240.582C195.112 240.997 196.305 241.567 196.228 241.314C196.046 241.113 195.835 240.744 195.959 240.604L196.457 240.986C196.935 240.706 197.707 240.714 196.896 239.321L195.899 238.759L195.841 238.32L196.492 238.972C196.305 238.423 195.918 238.33 195.553 238.176C195.589 238.011 195.548 237.828 195.437 237.637C195.077 237.489 194.669 237.407 194.285 237.295C194.325 237.052 194.934 237.293 194.46 236.737C193.917 236.591 194.512 237.405 193.778 236.983C193.542 236.46 193.785 236.403 193.182 236.169C193.204 236.009 193.359 236.024 193.587 236.133C193.053 235.916 192.44 235.23 192.022 235.316C191.751 234.763 190.458 234.343 190.788 233.95C190.571 233.953 189.768 233.738 189.346 233.477C190.462 233.415 187.726 232.535 188.253 232.085C187.816 232.162 187.247 231.92 186.639 231.621C186.015 231.345 185.319 231.073 184.711 230.969C184.791 230.954 184.946 230.93 185.035 230.994C184.429 230.682 184.31 230.45 183.947 230.184C183.823 230.376 183.512 230.392 183.148 230.375C182.781 230.377 182.365 230.345 182.052 230.387C181.41 229.717 182.703 230.039 182.598 229.561C182.516 229.922 181.105 229.459 181.276 229.836C180.755 229.379 180.799 229.541 180.593 229.082C180.325 229.6 180.005 228.975 179.397 229.204C178.578 228.726 179.298 228.635 178.271 228.572C177.838 228.29 178.768 228.301 178.768 228.301L178.766 228.405ZM155.16 230.081C155.354 230.003 155.519 229.948 155.623 229.909C155.526 229.948 155.395 229.996 155.166 230.082L155.16 230.081ZM153.267 230.69C153.498 230.63 153.786 230.539 154.095 230.438C154.195 230.523 154.157 230.655 153.972 230.715C154.052 230.608 153.589 230.688 153.274 230.69L153.267 230.69ZM157.838 231.718C157.56 231.83 157.447 231.795 157.389 231.741C157.525 231.701 157.683 231.651 157.889 231.581C157.891 231.568 157.906 231.551 157.915 231.533C157.906 231.603 157.884 231.666 157.838 231.718Z" fill="white"/>
<path d="M158.272 231.176C158.313 231.162 158.336 231.139 158.39 231.127C158.326 231.118 158.261 231.11 158.197 231.101C158.172 231.143 158.14 231.184 158.114 231.226C158.168 231.214 158.223 231.196 158.271 231.183L158.272 231.176Z" fill="white"/>
<path d="M158.599 244.267L158.558 244.281C158.597 244.28 158.63 244.278 158.655 244.288C158.623 244.283 158.618 244.276 158.598 244.273L158.599 244.267Z" fill="white"/>
<path d="M131.933 221.678L131.903 221.753L132.092 221.766L131.933 221.678Z" fill="white"/>
<path d="M169.051 241.695C169.051 241.695 169.124 241.738 169.208 241.743C169.198 241.722 169.134 241.707 169.051 241.695Z" fill="white"/>
<path d="M173.539 240.797C173.757 240.788 173.977 240.805 174.198 240.816C173.914 240.79 173.705 240.781 173.539 240.797Z" fill="white"/>
<path d="M177.044 240.482C177.085 240.422 177.091 240.377 177.097 240.338L177.09 240.338L177.044 240.482Z" fill="white"/>
<path d="M139.732 257.152C139.687 257.146 139.636 257.139 139.596 257.14C139.268 257.147 139.489 257.158 139.732 257.152Z" fill="white"/>
<path d="M157.085 259.542C156.923 259.572 156.749 259.601 156.533 259.597C156.951 259.7 157.277 259.765 157.085 259.542Z" fill="white"/>
<path d="M130.595 248.461C130.625 248.432 130.654 248.41 130.685 248.382L130.596 248.454L130.595 248.461Z" fill="white"/>
<path d="M155.492 259.402C155.912 259.545 156.259 259.593 156.533 259.598C156.185 259.511 155.8 259.405 155.492 259.402Z" fill="white"/>
<path d="M192.171 241.181L192.336 241.223C192.336 241.223 192.348 241.185 192.362 241.174L192.171 241.181Z" fill="white"/>
<path d="M192.361 241.175L192.552 241.168C192.468 241.157 192.391 241.146 192.361 241.175Z" fill="white"/>
<path d="M192.961 241.158L192.56 241.168C192.695 241.186 192.859 241.229 192.961 241.158Z" fill="white"/>
<path d="M187.592 240.399L187.53 240.514C187.53 240.514 187.584 240.457 187.592 240.399Z" fill="white"/>
<path d="M186.184 240.343C186.519 240.389 187.006 240.652 187.477 240.612L187.529 240.522C187.298 240.679 186.516 240.166 186.184 240.343Z" fill="white"/>
<path d="M180.227 238.816L181.446 238.866C181.233 238.745 180.947 238.588 181.497 238.54C179.949 238.222 181.821 238.807 180.227 238.816Z" fill="white"/>
<path d="M176.453 238.917C177.098 238.803 176.426 238.737 176.449 238.661C176.047 238.822 175.955 238.868 176.453 238.917Z" fill="white"/>
<path d="M152.234 249.326L151.885 249.291C152.263 249.97 152.006 249.268 152.234 249.326Z" fill="white"/>
<path d="M155.962 253.467L155.915 252.951L155.566 252.863L155.962 253.467Z" fill="white"/>
<path d="M155.152 256.635L155.08 256.586C155.15 256.648 155.225 256.724 155.311 256.814L155.152 256.635Z" fill="white"/>
<path d="M136.536 247.052C136.382 247.03 136.237 246.991 136.098 246.952C135.942 247.133 135.984 247.256 136.045 247.337C136.136 247.389 136.202 247.43 136.543 247.052L136.536 247.052Z" fill="white"/>
<path d="M124.388 232.103C124.314 231.831 123.918 231.424 123.531 231.377C123.887 231.648 124.177 232.015 124.388 232.103Z" fill="white"/>
<path d="M126.039 222.454L125.639 222.458L126.357 222.57L126.039 222.454Z" fill="white"/>
<path d="M97.0455 286.442C86.0483 275.459 67.965 275.92 55.3264 284.041C44.7336 273.385 27.148 269.05 14.0501 277.447C27.6019 277.956 39.3718 283.721 47.8937 293.426L40.5234 300.926L66.1354 303.7L61.0135 294.874C71.3247 287.441 83.901 284.042 97.0404 286.436L97.0455 286.442Z" fill="white"/>
<path d="M96.9292 287.067C97.057 287.005 97.0269 286.804 96.7148 286.8L96.4439 287.078L96.9238 287.066L96.9292 287.067Z" fill="white"/>
<path d="M94.9792 286.167C94.5966 286.255 94.1508 286.489 94.346 286.803C94.7399 286.538 94.8057 286.687 95.2342 286.387C95.5459 286.397 95.75 286.571 95.6785 286.679C95.8009 286.617 96.1377 286.821 96.3318 286.651C95.9797 286.349 95.4688 286.257 94.9225 286.378C94.8205 286.291 94.9379 286.223 94.9735 286.172L94.9792 286.167Z" fill="white"/>
<path d="M65.6241 291.41L65.8158 291.348C65.7617 291.355 65.6959 291.378 65.6241 291.41Z" fill="white"/>
<path d="M63.3245 302.771C63.41 302.777 63.4387 302.747 63.4355 302.714C63.365 302.726 63.3053 302.738 63.3245 302.771Z" fill="white"/>
<path d="M60.3002 302.093C60.369 302.108 60.4217 302.122 60.4851 302.137C60.4177 302.1 60.3497 302.074 60.3002 302.093Z" fill="white"/>
<path d="M65.6237 291.41L65.1341 291.571C65.154 291.68 65.3963 291.513 65.6237 291.41Z" fill="white"/>
<path d="M90.7967 286.562C90.8996 286.553 90.9875 286.526 91.065 286.494C90.9781 286.504 90.897 286.51 90.8105 286.515C90.8095 286.531 90.8031 286.547 90.7914 286.562L90.7967 286.562Z" fill="white"/>
<path d="M73.1005 287.698L73.2434 287.643C73.2732 287.597 73.2983 287.539 73.3235 287.482C73.2493 287.552 73.175 287.622 73.1005 287.698Z" fill="white"/>
<path d="M79.2781 285.917C79.1316 285.935 79.1408 286.209 79.1111 286.336C79.1676 286.211 79.2586 286.136 79.38 286.09C79.3724 286.041 79.3383 285.986 79.2781 285.917Z" fill="white"/>
<path d="M89.4227 285.417L89.602 285.381C89.5532 285.388 89.4771 285.405 89.4227 285.417Z" fill="white"/>
<path d="M68.8173 289.399C68.7926 289.366 68.7563 289.347 68.7246 289.34C68.7386 289.373 68.7749 289.391 68.8173 289.399Z" fill="white"/>
<path d="M91.8339 280.933C91.8339 280.933 91.8215 280.959 91.8098 280.974C91.8582 280.972 91.8752 280.957 91.8339 280.933Z" fill="white"/>
<path d="M96.9919 286.491L96.9046 286.431C96.8598 286.461 96.815 286.49 96.7806 286.525L96.9866 286.49L96.9919 286.491Z" fill="white"/>
<path d="M54.5149 301.117C54.5149 301.117 54.5309 301.118 54.5412 301.124C54.6975 301.113 54.612 301.107 54.5149 301.117Z" fill="white"/>
<path d="M23.4377 277.557C23.99 277.926 22.3821 277.645 23.2356 278.103C23.1735 277.981 24.1604 277.872 23.4377 277.557Z" fill="white"/>
<path d="M90.6368 286.52C90.551 286.515 90.4645 286.52 90.3844 286.509C90.502 286.522 90.5775 286.522 90.6368 286.52Z" fill="white"/>
<path d="M23.2363 278.107L23.3244 278.156C23.288 278.137 23.2673 278.125 23.2363 278.107Z" fill="white"/>
<path d="M43.1318 300.044C43.049 300.082 42.9985 300.116 42.9537 300.145C43.0035 300.122 43.0483 300.092 43.1318 300.044Z" fill="white"/>
<path d="M51.0365 301.291L50.793 301.227C50.8878 301.26 50.9672 301.281 51.0365 301.291Z" fill="white"/>
<path d="M44.4226 298.061C44.5303 297.977 44.59 297.97 44.6915 297.815C44.67 297.814 44.6532 297.823 44.6311 297.833C44.6102 297.907 44.5621 297.984 44.4226 298.061Z" fill="white"/>
<path d="M48.624 293.783C48.5683 293.812 48.5123 293.846 48.4562 293.88C48.4042 293.936 48.3461 294.002 48.299 294.063L48.6294 293.784L48.624 293.783Z" fill="white"/>
<path d="M75.3713 276.95C75.4958 277.022 75.5711 277.107 75.6302 277.192C75.5458 276.998 76.3687 276.928 75.3713 276.95Z" fill="white"/>
<path d="M90.7994 286.408C90.7629 286.476 90.7181 286.505 90.637 286.516C90.6961 286.514 90.7551 286.513 90.8142 286.511C90.833 286.469 90.8354 286.432 90.7994 286.408Z" fill="white"/>
<path d="M43.0475 296.415L43.6777 295.827C43.4901 295.981 43.2611 296.192 43.0475 296.415Z" fill="white"/>
<path d="M40.6908 273.788L40.8927 273.817C40.8197 273.786 40.7506 273.776 40.6908 273.788Z" fill="white"/>
<path d="M45.4445 293.975C45.6195 293.932 45.7751 293.857 45.9161 293.758C45.9242 293.716 45.9427 293.679 45.9347 293.636L45.4394 293.969L45.4445 293.975Z" fill="white"/>
<path d="M81.5417 277.036C80.6947 276.895 81.0874 277.318 80.8773 277.487C79.8632 277.432 80.4519 277.153 80.1329 276.923C79.4877 276.909 78.971 277.24 78.5065 277.178C78.4782 277.117 78.3884 277.09 78.5004 277.022C78.1537 277.139 77.6604 277.107 77.156 277.08C76.6466 277.047 76.126 277.105 75.7382 277.274C75.681 277.243 75.6505 277.214 75.6362 277.186C75.7595 277.361 75.78 277.545 75.7556 277.672C75.3835 277.68 75.0678 277.902 74.921 277.672C75.1523 277.676 75.1689 277.586 75.2759 277.512L74.8869 277.616C74.5259 277.287 75.4224 277.495 75.4168 277.247C74.6451 277.359 73.7658 277.635 73.1803 277.613C73.0337 277.298 74.5462 277.39 73.7475 277.167C74.0539 277.176 74.3621 277.238 74.667 277.269C73.9514 276.761 75.2247 277.305 74.5654 276.758C73.9552 276.702 73.6162 276.782 73.2779 276.852C72.9396 276.921 72.6066 276.991 71.998 276.995C71.7425 277.198 72.1158 277.255 71.8604 277.458C71.0277 277.679 70.6807 277.549 70.3727 277.4C70.0696 277.257 69.8148 277.117 69.2294 277.428C68.9423 277.705 68.8953 278.099 67.982 278.067L68.2034 277.641C67.0527 277.868 67.6702 278.31 66.429 278.354C66.603 278.161 67.2903 278.023 67.1073 278.022C66.2683 277.925 66.612 278.355 66.0215 278.494L65.8139 278.207C65.2067 278.356 64.6162 278.661 63.9964 278.922C63.3858 279.205 62.7406 279.442 62.1287 279.747C62.1634 279.625 62.3474 279.444 62.0119 279.471C61.2369 279.882 60.3615 280.18 59.5046 280.528C58.6576 280.887 57.7819 281.19 56.9924 281.494L56.5731 282.068C56.4446 282.14 56.2697 282.097 56.3855 281.97C55.7671 282.209 56.4446 282.14 56.2289 282.395C55.9195 282.601 55.7209 282.507 55.8842 282.314C55.6794 282.483 55.7156 282.507 55.6568 282.584C55.6091 282.656 55.5388 282.742 55.4522 282.834C55.3785 282.807 55.2844 282.764 55.1967 282.704C55.1452 282.669 55.119 282.656 55.0424 282.592C54.9407 282.5 54.8386 282.413 54.7365 282.326C54.3343 281.967 54.0039 281.58 53.7558 281.253C53.8349 281.279 53.9193 281.306 53.9926 281.338C53.3262 280.65 52.7955 281.116 52.2783 280.368L52.4411 280.432C51.7007 279.724 50.7787 279.16 49.9435 278.585C49.1261 277.984 48.3005 277.512 47.7354 276.923C47.508 277.026 47.0909 276.731 46.6825 276.468C46.2563 276.231 45.8387 276.027 45.6519 276.251C45.1918 275.872 45.0416 275.696 44.8389 275.501C44.6297 275.321 44.3768 275.068 43.6364 274.693C43.2339 274.506 42.8878 274.779 42.3642 274.632L42.4576 274.354L41.6595 274.372C41.578 274.216 41.4972 274.05 41.41 273.899L40.893 273.818C41.0819 273.894 41.2642 274.073 41.2058 274.144C40.4053 274.033 39.4141 273.373 39.4348 273.219C38.813 273.093 38.1706 273.035 37.5332 272.983C37.5994 272.875 37.9204 272.906 38.1852 272.891C37.1257 272.957 38.0783 272.546 37.1048 272.612C37.2119 272.705 37.003 272.772 36.9674 272.823C36.7608 272.687 36.3977 272.556 35.9954 272.449C35.587 272.353 35.1259 272.323 34.7344 272.298L34.9131 272.116C34.2151 272.001 33.4743 271.884 32.7011 271.85C31.9269 271.832 31.136 271.824 30.3424 271.773C30.9103 271.901 30.7642 272.246 30.306 272.254L30.1276 271.931C29.8253 272.11 30.6086 272.07 29.9915 272.287C29.406 272.266 29.594 271.94 29.9401 271.833L29.2213 271.959C29.1789 271.865 29.3492 271.811 29.3893 271.69C29.0964 271.891 28.1259 271.41 27.7104 271.759L27.6626 271.665C27.2641 271.666 26.9164 271.713 26.6063 271.763C26.2962 271.813 26.0186 271.859 25.7467 271.901C25.2126 272.001 24.7077 272.065 24.0697 272.19C24.09 272.46 23.5861 272.508 23.2548 272.803C22.7828 272.859 22.2796 272.896 21.7486 272.948C21.2226 273.005 20.6904 273.159 20.1458 273.339C19.4215 273.716 19.9924 273.63 19.701 273.89C19.564 273.677 18.4848 274.048 18.9865 273.699C18.904 273.726 18.8268 273.753 18.7551 273.781C18.6722 273.813 18.5494 273.88 18.4548 273.928C18.2545 274.028 18.0707 274.123 17.8979 274.214C17.5577 274.396 17.2461 274.553 16.9227 274.726C16.2973 275.072 15.6129 275.415 14.68 276.02C15.0976 275.891 15.4172 275.778 15.4227 275.859C15.1401 276.066 14.4023 276.319 14.2103 276.291L14.2681 276.23C13.876 276.548 13.3499 276.858 12.6813 277.207C12.3471 277.379 11.9801 277.559 11.5853 277.754L11.2851 277.901C11.1905 277.949 11.0576 278.005 11.018 278.034L10.6372 278.262C11.3127 278.392 12.0893 278.538 13.0041 278.629C13.9086 278.715 14.9478 278.798 15.9051 278.731L15.7161 278.74L18.6676 278.726C18.945 278.766 19.0448 278.804 19.0488 278.826C19.0474 278.847 18.9338 278.856 18.8195 278.876C18.5912 278.909 18.2599 278.952 18.7259 279.074C19.2045 279.083 19.3128 279.074 19.5173 279.076C19.7056 279.078 19.8822 279.095 20.0481 279.111C20.3849 279.149 20.6985 279.212 20.996 279.274C21.5903 279.409 22.1383 279.595 22.8271 279.601C23.6794 280.494 26.4265 280.478 27.612 281.381L27.5919 281.192C27.9932 281.148 27.9759 281.416 28.2093 281.554C28.2182 281.415 27.8937 281.271 28.1367 281.26C31.1192 282.102 33.9077 283.946 36.4635 285.728C37.3954 286.389 37.4958 285.332 38.4828 286.475C38.3102 286.48 38.1369 286.496 37.9639 286.506C40.1014 287.509 41.7719 289.324 43.6532 290.627C43.4994 290.59 43.4359 290.656 43.2676 290.511C43.485 290.982 44.5393 291.748 44.6823 291.617C44.9185 291.879 44.6224 291.796 44.7104 292.016C44.831 292.234 45.1009 292.391 45.3389 292.54C45.5709 292.7 45.7714 292.847 45.7764 293.02C45.778 293.079 45.6287 292.972 45.5568 292.92C45.6298 292.956 45.7265 293.043 45.8329 293.147L45.9034 293.221L45.9188 293.233L45.9496 293.256C45.9858 293.28 46.0541 293.306 46.1715 293.238C46.1788 293.293 46.2032 293.332 46.2387 293.366C46.2752 293.385 46.247 293.404 46.2349 293.425L46.2043 293.482C46.1801 293.524 46.1559 293.565 46.1156 293.605C46.0981 293.626 46.0756 293.64 46.0531 293.655C46.0364 293.665 46.0367 293.659 46.0089 293.674L45.8961 293.752C45.7916 294.288 44.7407 294.72 44.9411 295.119C44.6729 294.769 43.6156 295.968 43.371 296.505C43.4069 296.282 42.9348 296.757 42.9584 296.473C42.5199 296.929 42.1718 297.4 42.4093 297.474C41.9623 297.558 41.1051 298.577 40.6237 299.196C40.0906 299.865 39.7385 300.315 38.728 300.873C38.4421 301.214 38.162 301.55 37.9228 301.836C39.3877 301.914 40.7935 301.989 42.1619 302.061C42.4675 302.081 42.7732 302.1 43.0738 302.114L43.5135 302.143L43.8198 302.152C44.1851 302.164 44.5501 302.183 44.91 302.195C44.8587 302.407 44.3929 302.366 43.9428 302.331C43.8302 302.324 43.7176 302.317 43.6157 302.31C43.4817 302.302 43.294 302.29 43.1589 302.297C42.8787 302.3 42.6769 302.341 42.6643 302.453C42.8519 302.465 43.0296 302.466 43.2065 302.477C43.3677 302.482 43.5879 302.491 43.6476 302.484C43.8313 302.475 44.0096 302.465 44.1772 302.454C44.5178 302.433 44.8369 302.411 45.1614 302.389C45.7989 302.354 46.434 302.358 47.2167 302.494C47.6194 302.595 46.9641 302.655 46.8148 302.715C48.4303 302.712 49.892 303.091 51.335 303.007C51.3272 303.044 51.1693 303.071 51.0228 303.089C51.3016 303.107 51.6657 303.222 51.6571 303.022L51.3808 303.047C50.9662 302.715 52.5581 302.576 52.6214 302.429C52.0879 302.937 54.0078 302.723 53.1758 303.351C53.3652 303.337 53.6066 303.266 53.5777 303.13C53.8481 303.196 53.9233 303.281 53.6302 303.402C54.6424 303.403 54.3083 303.156 55.2171 303.257C55.2055 303.353 55.0161 303.368 54.9127 303.469C55.3899 303.333 55.8725 303.198 56.6316 303.365C56.5799 303.415 56.6605 303.501 56.4307 303.475C57.7534 303.587 58.7297 303.226 60.1565 303.56C59.686 303.927 60.6345 303.746 60.67 304.114L61.4577 304.089L61.1641 303.883C61.8534 303.965 62.4531 303.767 63.0657 303.952C62.8539 303.981 62.7063 304.014 62.527 304.04L64.1677 304.146L63.1389 303.903C63.6049 303.857 63.5424 303.741 63.5422 303.66C63.5474 303.58 63.5659 303.543 64.0869 303.647C63.9082 303.662 64.8137 303.731 65.4952 304.017C65.7803 303.939 65.953 303.848 66.5802 303.974C66.5709 303.952 66.5616 303.93 66.5526 303.903C66.6773 303.889 67.3499 304.48 67.431 304.475C67.0308 304.084 66.7281 303.602 66.4152 303.11C66.1024 302.617 65.7796 302.113 65.4606 301.883C65.6339 302.034 65.8789 302.076 65.888 302.018C65.7237 301.894 65.5637 301.787 65.4137 301.692C65.3017 301.341 65.3012 301.266 65.4878 301.294C65.1655 300.698 65.1236 300.846 65.0688 300.945C65.0439 300.997 65.0147 301.032 64.9642 300.981C64.9388 300.958 64.9047 300.902 64.8663 300.829C64.8329 300.763 64.7908 300.663 64.7401 300.531C64.8003 300.6 64.8095 300.541 64.9349 300.683C64.4525 299.648 63.7008 298.864 63.2782 297.902C63.4362 297.456 63.8118 298.646 63.9005 298.189C63.4944 297.556 63.0122 296.935 62.5461 296.314C62.3479 296.049 62.155 295.784 61.9617 295.524C61.8878 295.417 61.8143 295.305 61.7461 295.194L61.6546 295.027C61.6241 294.998 61.6577 294.978 61.6855 294.964L61.7694 294.916L61.6695 294.963C61.6309 294.977 61.5923 294.99 61.6171 295.024C61.3903 294.95 61.4366 294.9 61.5051 294.84C61.5843 294.78 61.7332 294.725 61.8872 294.676C62.0411 294.627 62.1997 294.589 62.3215 294.538C62.3879 294.51 62.4268 294.491 62.5057 294.437C62.5792 294.383 62.648 294.317 62.7068 294.241C62.5798 294.372 62.6722 294.609 62.6824 294.534C63.1079 294.283 63.5096 293.981 63.9628 293.634C64.4155 293.293 64.8906 292.856 65.5054 292.423L65.4115 292.627C65.9779 292.443 66.7806 291.936 67.3565 291.689C67.4608 291.492 67.7932 291.346 67.5121 291.28C68.5573 291.186 69.3127 290.66 70.0955 290.212C70.482 289.979 70.8632 289.745 71.2627 289.562C71.6619 289.384 72.0884 289.282 72.547 289.269C72.3538 289.342 72.1305 289.548 72.2848 289.493L73.6072 288.859C73.4241 288.692 73.3847 288.802 73.0329 288.747C73.1636 288.557 73.5137 288.305 73.8651 288.199C73.283 288.543 73.9888 288.535 74.2991 288.565C74.2322 288.518 74.2981 288.415 74.2533 288.358C75.106 288.494 74.2347 287.895 75.3218 287.821L75.3028 287.948C75.654 287.761 75.9658 287.518 76.3853 287.443C76.6252 287.647 76.0155 287.667 76.0449 287.878C76.6103 287.71 77.0482 287.1 77.6389 287.207C77.4147 287.343 77.064 287.439 76.8345 287.574C77.4771 287.713 77.5208 287.619 77.9503 287.555L77.9074 287.552C78.2383 287.515 78.5781 287.504 78.914 287.472L78.6466 287.444C79.2256 286.649 80.0877 286.973 81.0024 286.399C80.1098 286.964 80.8886 286.66 80.864 286.959C81.1307 286.998 81.5221 287.023 81.4294 287.124C81.8583 286.819 82.223 287.176 82.8324 286.742C82.8752 286.831 83.3309 286.694 83.2557 286.941C83.8516 286.803 83.0928 286.797 83.1275 286.675C83.5774 286.463 84.1404 286.499 84.7477 286.517C85.36 286.54 86.0138 286.588 86.6769 286.324C87.2563 286.19 87.6031 286.073 87.9395 285.949C88.2759 285.826 88.6066 285.708 89.1557 285.625C89.5231 285.772 88.8484 285.965 88.8484 285.965C89.1456 286.032 89.4076 286.06 89.661 286.055C89.9191 286.061 90.1678 286.045 90.4504 286.004C90.3323 286.082 90.4461 286.154 90.6165 286.267C91.0636 286.264 90.9335 285.944 91.5151 286.11C91.4063 286.211 91.2669 286.368 91.0452 286.466C91.5712 286.409 92.1094 286.245 92.6598 286.227C92.7885 286.402 92.3121 286.441 92.1129 286.525C92.7273 286.516 93.7006 286.536 93.9202 286.303L93.5357 286.171C93.7609 286.185 93.6284 286.402 93.4594 286.434C92.9169 286.582 92.711 286.268 92.6904 286.17L93.0846 286.152C92.9095 285.862 92.5127 285.836 92.0682 285.883C91.6173 285.945 91.1243 286.074 90.7282 286.038L91.0758 285.658L90.2494 285.948C90.0844 285.835 89.9699 285.608 90.3654 285.569C89.8034 285.35 89.8578 285.676 89.3762 285.462C89.3247 285.426 89.3475 285.406 89.3968 285.394L88.8399 285.513C88.9476 285.429 88.7502 285.234 89.0913 285.288C88.0825 285.067 87.4783 285.587 87.0927 285.304L87.1752 285.277C85.7939 285.489 87.0479 285.58 86.0313 285.982L85.2838 285.3L85.1676 285.599C85.0229 285.589 84.7373 285.592 84.7824 285.477C84.2705 285.734 84.8824 285.596 84.5934 285.819C83.8842 285.629 82.7253 286.15 82.5116 285.707C82.2963 285.956 83.1894 285.799 82.4791 286.043C82.2021 285.579 81.6519 286.263 80.9979 286.135C81.1455 285.849 81.7621 285.889 81.0974 285.76C80.7969 286.246 79.8631 285.863 79.3543 286.072C79.4066 286.43 78.2432 286.436 77.4077 286.784C77.4367 286.668 75.7241 287.009 74.8956 287.165L74.8998 287.101C74.8531 287.49 74.0165 287.688 73.4503 287.952C73.4044 287.745 73.4817 287.632 73.7743 287.436L73.2133 287.62C73.1225 287.775 72.9691 287.9 72.6242 288.071L72.6704 287.773C71.9398 288.08 71.2927 288.597 70.3064 288.861C70.3553 289.106 71.304 289.172 70.4054 289.748C70.3154 289.64 70.1877 289.45 70.419 289.287C70.3401 289.341 70.1672 289.518 69.9774 289.538L70.2761 289.165C69.8177 289.259 70.1298 289.43 69.7877 289.558C69.7183 289.382 69.482 289.538 69.4703 289.387C69.5491 289.333 69.7971 289.328 69.8912 289.205C69.5002 289.341 68.9932 289.437 68.7818 289.375C68.8628 289.455 68.8907 289.608 68.6276 289.762C67.9312 290.126 68.2886 289.676 67.8342 289.792C67.7243 289.994 67.2116 290.095 67.3295 290.355C67.1238 290.455 67.0224 290.357 66.9112 290.328C66.602 290.614 65.2668 291.28 65.8084 291.315L65.9073 291.284C65.9073 291.284 65.8731 291.314 65.856 291.329C65.348 291.774 64.7261 292.067 64.1185 292.388C63.5113 292.703 62.869 292.978 62.3621 293.407L62.3133 293.329C62.1589 293.469 62.0279 293.579 61.8185 293.738C61.6091 293.896 61.3993 294.06 61.1956 294.213C60.9972 294.367 60.8156 294.511 60.6669 294.646L60.5638 294.741C60.5306 294.755 60.5721 294.779 60.5868 294.802L60.6417 294.87C60.7169 294.955 60.7868 295.04 60.8578 295.109C60.9837 295.327 60.9881 295.676 60.8053 295.589C61.0419 295.927 61.1928 296.092 61.3298 296.305C61.4431 296.468 61.5484 296.674 61.6994 297.086C61.2538 296.649 61.6779 297.337 61.288 296.619C61.6031 297.327 61.5615 297.555 62.2019 298.144C61.8492 298.02 62.2295 298.801 62.4754 299.08L62.3551 298.525C62.5917 298.862 62.7537 299.19 62.921 299.517L62.545 299.504C62.7745 300.286 63.2732 300.818 63.7248 301.33C63.8595 301.495 63.8921 301.492 63.9627 301.566C64.0232 301.629 64.0834 301.697 64.1222 301.764C64.2047 301.904 64.2222 302.05 64.0485 302.071C64.2504 302.197 64.2696 302.15 64.2698 302.064C64.2746 301.989 64.2657 301.875 64.4898 301.992C64.5842 302.197 64.5213 302.338 64.4009 302.368C64.2802 302.403 64.1117 302.343 64.1314 302.372C64.1261 302.371 64.1204 302.376 64.1147 302.381C63.8936 302.303 64.0301 302.44 64.0815 302.562C64.1433 302.689 64.1092 302.8 63.7812 302.709C63.9077 302.835 64.321 303.189 63.6724 303.228C62.9694 303.108 63.0295 302.676 63.2599 302.611C63.346 302.611 63.3972 302.652 63.4056 302.69C63.5367 302.661 63.6467 302.625 63.4676 302.479C63.4652 302.517 63.4628 302.554 63.4604 302.591C63.4088 302.556 63.3405 302.53 63.2775 302.504C63.1985 302.478 63.1942 302.462 63.0243 302.424C62.7647 302.359 62.5747 302.298 62.7039 302.215C62.1461 302.265 62.4512 302.376 62.8486 302.477C61.934 302.214 61.3946 302.313 60.4498 302.102C60.5955 302.181 60.7205 302.329 60.5707 302.314C59.1844 302.02 59.9313 302.46 58.9708 302.409C58.4474 302.177 59.2115 302.017 58.2341 302.061C57.6643 301.879 58.1412 301.749 58.388 301.679C57.4915 301.804 56.7717 301.36 56.2772 301.264L56.7482 301.224C56.4666 301.249 56.2421 301.224 56.0122 301.198L56.2487 301.455C55.984 301.384 55.7541 301.359 55.7707 301.268C55.4776 301.389 55.9443 301.666 55.3696 301.812C55.0243 301.655 54.2602 301.815 54.1672 301.503C55.2889 301.726 54.0746 301.186 55.0401 301.243C54.8507 301.257 54.6262 301.232 54.3616 301.161C54.3264 301.122 54.4083 301.105 54.4844 301.094C53.4323 300.709 53.9489 301.382 52.8267 301.25C52.9875 301.094 52.6014 300.903 52.412 300.918C52.8664 300.968 52.5968 301.225 52.166 301.31C51.4635 301.098 51.3736 301.323 51.0003 301.267L51.4241 301.375C51.2579 301.531 50.9014 301.465 50.3953 301.464C50.3664 301.328 50.8609 301.424 50.6885 301.343C50.0972 301.579 49.4626 300.899 48.6637 301.014C48.3184 300.858 48.6629 300.692 48.3578 300.581C47.4613 300.706 47.4424 300.248 46.5058 300.327C46.7423 300.584 46.7994 300.534 46.1274 300.684L47.6511 300.686L46.6512 300.911C47.1056 300.962 47.6229 300.872 47.8933 300.938C47.4107 301.073 47.4678 301.023 47.6642 301.234C47.082 300.826 46.4108 301.298 45.72 300.991L45.8048 300.427C45.2782 300.243 44.7922 300.265 44.2626 300.295C44.1329 300.303 43.9978 300.31 43.8573 300.317C43.7712 300.317 43.7652 300.328 43.7273 300.331L43.6294 300.346C43.4939 300.358 43.3331 300.348 43.2125 300.297C43.248 300.332 43.2885 300.372 43.3397 300.413C43.2202 300.513 43.0808 300.504 42.9474 300.484C42.809 300.459 42.6985 300.42 42.4977 300.445C42.7986 300.287 42.7709 300.215 42.9229 300.112C42.7951 300.174 42.7047 300.157 42.5156 300.166C42.5187 300.118 42.4786 300.073 42.1728 300.139C42.4127 300.009 42.6344 299.911 42.8279 299.832C43.2618 299.533 42.5124 299.382 43.3359 298.635C43.2967 298.826 43.3864 298.853 43.4363 298.916C43.4613 298.944 43.475 298.982 43.4598 299.051C43.4503 299.115 43.3663 299.249 43.3628 299.303C43.3803 299.282 43.5579 299.117 43.6335 299.03C43.7204 298.934 43.7578 298.856 43.7123 298.81C43.9484 298.739 44.2388 297.909 44.6013 297.798C44.6499 297.63 44.5426 297.456 44.8408 297.175C44.9004 297.168 44.9063 297.244 44.9063 297.244C44.8408 297.175 45.2646 296.697 44.8646 296.806C45.4692 296.614 46.0122 296.042 46.5331 295.48C46.6661 295.338 46.7934 295.201 46.9206 295.064C47.059 294.923 47.1567 294.827 47.3404 294.651C47.6781 294.34 48.0185 294.072 48.4211 293.84C48.5141 293.733 48.6071 293.626 48.7002 293.52L48.77 293.438C48.77 293.438 48.7932 293.413 48.805 293.398L48.7645 293.357L48.5922 293.19C48.3694 292.972 48.1469 292.748 47.9244 292.524C47.5554 292.152 47.1968 291.785 46.883 291.475C46.9587 291.469 46.9518 291.409 47.0303 291.527C46.4722 290.664 46.2053 291.463 45.5394 290.518C45.3377 289.887 46.0901 290.827 45.9128 290.488C46.2282 289.939 44.8798 289.557 44.5357 288.799L44.7017 288.896C44.3924 288.35 43.4779 288.087 42.7487 287.454C42.7487 287.454 42.8194 287.443 42.8125 287.383C42.0909 287.218 41.0709 286.503 40.2546 286.053C40.6334 286.023 40.671 286.192 40.6795 285.892C40.322 285.676 40.5411 286.286 39.831 285.859C39.692 285.592 39.2739 285.146 39.3555 284.883L39.9995 285.333C39.8718 284.809 39.165 284.747 38.8431 284.48L38.973 284.386C38.449 284.078 38.1364 283.999 37.8192 283.909C37.5023 283.813 37.1804 283.712 36.6253 283.386L36.6846 283.551C35.8897 283.521 36.2793 283.074 35.5324 282.966L35.5339 282.526C35.0864 282.368 33.9084 282.099 33.1425 281.787C33.6835 281.746 34.6214 282.065 35.2486 282.191C34.8371 281.976 33.8288 281.498 33.5287 281.559C33.7086 281.608 33.9653 281.636 34.1021 281.768C33.7786 281.774 33.4372 281.725 33.0778 281.621C32.7123 281.528 32.317 281.395 31.8984 281.207C32.1225 280.904 31.5918 280.618 30.9602 280.309C30.3105 280.03 29.5596 279.735 29.3425 279.345C27.7152 279.031 26.2889 278.187 24.4114 277.743C24.9242 278.475 23.8711 277.607 23.8421 278.222C23.4042 278.167 23.2404 278.119 23.2109 278.074L21.97 277.446C21.6889 277.213 22.4084 277.41 22.3959 277.27C21.4479 277.026 22.0467 276.925 21.4335 276.665C21.5266 276.891 21.0409 276.909 20.5029 276.734L21.2312 277.13C20.5282 277.176 20.2648 277.003 19.9903 276.835C19.8557 276.752 19.7157 276.667 19.5258 276.607C19.4528 276.57 19.4739 276.577 19.3511 276.644C19.4192 276.589 19.4659 276.533 19.5019 276.476C19.4502 276.527 19.3808 276.517 19.239 276.545C19.0865 276.573 18.8243 276.631 18.1188 276.801C18.2298 276.749 18.6091 276.628 18.7781 276.596C18.7362 276.577 18.5793 276.589 18.3192 276.615L18.1784 276.627C18.1352 276.63 18.059 276.641 18.0651 276.631C18.039 276.618 18.0182 276.606 18.0028 276.594C17.967 276.565 17.9591 276.522 17.9893 276.47C18.0495 276.372 18.2586 276.219 18.6159 276.188L18.8384 276.246C18.8247 276.207 18.5699 276.067 18.9141 276.073C18.9874 276.105 19.0755 276.159 19.1194 276.146C19.1047 276.123 19.0813 276.068 19.1123 276.005C19.1379 275.943 19.2231 275.873 19.3197 275.879C19.3159 275.938 19.3174 275.997 19.3358 276.047C19.4062 276.04 19.4551 276.033 19.4994 276.014C19.5215 276.005 19.5383 275.995 19.5604 275.986C19.6322 275.958 19.6986 275.93 19.7704 275.903C20.0582 275.782 20.3152 275.637 20.5618 275.487C21.0544 275.196 21.5132 274.845 22.136 274.622C22.2442 275.031 23.4634 274.911 24.0651 274.848L24.061 274.912C24.2736 274.872 24.4865 274.827 24.689 274.776C24.8962 274.735 25.0924 274.7 25.2885 274.664C25.6758 274.587 26.0426 274.492 26.4101 274.387C26.777 274.293 27.1352 274.165 27.5171 274.088C27.8986 274.016 28.2905 273.95 28.7086 273.896C29.2384 274.113 30.1162 274.111 31.0729 274.221C31.5495 274.262 32.0478 274.3 32.5297 274.342C33.0109 274.394 33.4658 274.52 33.8732 274.632C33.6327 274.52 33.9585 274.31 34.2598 274.313C34.633 274.456 35.3936 274.183 35.2622 274.55L35.1239 274.525C35.3571 274.916 36.1465 275.031 36.7623 275.168L36.9757 274.698C37.3398 274.979 37.793 275.132 38.262 275.291C38.7305 275.456 39.2394 275.58 39.7226 275.686C40.7009 275.878 41.5658 276.159 41.8639 276.63C42.2821 276.657 42.744 276.842 43.1622 276.869L43.0334 277.113C44.0064 277.638 44.4839 277.916 45.7357 278.458C45.6274 278.468 45.5131 278.487 45.3991 278.501C46.0587 278.877 46.6185 278.295 47.2587 278.637L47.2401 279.092C47.5307 279.262 47.815 279.446 48.0931 279.642L48.8866 280.278C49.4141 280.699 49.9836 281.052 50.6239 281.308C50.5732 281.343 50.4719 281.411 50.2915 281.287C50.7824 281.689 52.0211 283.02 52.2031 282.452C52.0859 282.6 52.3687 282.806 52.7239 283.06C53.079 283.314 53.5461 283.586 53.8678 283.773L53.6018 283.89C53.6862 283.917 53.7298 283.909 53.829 283.959C53.918 283.997 53.9964 284.034 54.0751 284.066C54.2218 284.129 54.3373 284.174 54.4522 284.23C54.6769 284.335 54.8892 284.467 55.2382 284.731C55.2896 284.686 55.391 284.618 55.498 284.544C55.7469 284.442 55.7331 284.656 55.3749 284.783C55.817 284.608 55.9956 284.426 56.1628 284.254C56.319 284.087 56.5644 283.872 56.9229 283.739L56.7417 284.044C57.3557 283.708 57.2623 283.654 57.5016 283.283C57.8196 282.943 58.7226 282.717 58.9217 282.885C58.9381 282.715 59.1975 282.366 59.604 282.242C59.6917 282.301 59.5819 282.418 59.5245 282.473C60.6416 282.1 60.99 281.456 61.8448 281.393C61.8936 281.471 61.9569 281.492 62.0323 281.491C61.1646 281.838 60.4589 282.093 60.5203 282.06C60.6198 282.27 61.3291 282.042 60.9179 282.574C61.3898 282.185 62.198 281.427 62.9196 281.258C62.9621 281.266 62.9993 281.274 63.0405 281.304L62.9777 281.359C63.1417 281.321 63.2709 281.238 63.3943 281.16C63.628 281.127 63.7799 281.11 63.9938 281.048C64.1393 281.214 64.8437 280.894 65.2006 280.788C65.0927 280.539 65.5736 280.431 65.0723 280.355C65.1367 280.36 65.0152 280.405 64.7781 280.492C64.7281 280.516 64.6621 280.538 64.6332 280.569C64.6339 280.558 64.6453 280.548 64.6513 280.538C64.4199 280.619 64.1121 280.718 63.7649 280.84C64.0053 280.62 64.2661 280.416 64.7065 280.434C64.8393 280.212 64.9892 279.974 65.0829 279.857C65.6799 280.035 66.7038 280.02 66.8905 280.215C67.4258 280.013 68.0737 279.819 68.6676 279.626C69.2652 279.461 69.8058 279.259 70.1275 278.947C70.4421 278.828 70.5205 279.031 70.6514 279.088C70.474 279.168 70.2514 279.197 70.1594 279.287C70.4737 279.173 70.9484 279.075 71.3582 278.983C71.7722 278.908 72.1233 278.807 72.189 278.623C73.0288 278.71 71.7563 278.988 72.8808 278.835L72.7384 278.954C73.3027 279.055 73.8015 279.001 74.2785 278.952C74.7555 278.902 75.2096 278.791 75.6797 278.682C76.1487 278.589 76.632 278.443 77.1467 278.476C77.6629 278.488 78.2174 278.572 78.8166 278.799C78.6481 278.739 78.5637 278.712 78.5353 278.651C78.8861 278.722 79.239 278.761 79.5908 278.816C79.9416 278.887 80.2931 278.947 80.6506 278.997C81.0081 279.047 81.366 279.092 81.7235 279.142C81.9052 279.164 82.0871 279.181 82.263 279.209L82.7944 279.318C83.501 279.466 84.2126 279.619 84.9 279.814C85.5729 280.067 86.2223 280.35 86.8353 280.696C87.5456 281.037 87.689 280.901 88.2037 280.934L88.2413 281.27L89.1328 281.306C89.4246 281.373 89.6694 281.502 89.8963 281.656C90.1176 281.815 90.2975 282.031 90.4999 282.232C90.899 282.639 91.326 283.032 92.0902 283.204L92.0316 282.943C92.2596 283.081 92.6169 283.303 92.9 283.504C93.1832 283.704 93.3877 283.873 93.2867 283.937C93.351 283.941 93.5492 283.873 93.6545 284.079L93.5761 284.208C93.9729 284.4 94.3926 284.572 94.7884 284.78C95.4714 285.544 94.286 285.14 95.3523 286.137C95.7898 286.45 96.8087 286.849 96.7303 286.645C96.568 286.49 96.3714 286.198 96.4655 286.075L96.8994 286.361C97.2769 286.101 97.9148 286.061 97.162 284.96L96.3051 284.556L96.2313 284.196L96.8076 284.695C96.6207 284.254 96.2957 284.201 95.9848 284.095C96.0045 283.956 95.9602 283.808 95.8569 283.657C95.5511 283.556 95.2093 283.513 94.8853 283.444C94.9038 283.241 95.421 283.403 94.9965 282.973C94.5391 282.884 95.0796 283.521 94.4477 283.217C94.2215 282.799 94.4194 282.737 93.9072 282.58C93.9158 282.447 94.0449 282.45 94.2391 282.527C93.7856 282.379 93.2382 281.85 92.8982 281.946C92.6413 281.505 91.5494 281.236 91.7978 280.892C91.6191 280.908 90.9436 280.778 90.579 280.588C91.4966 280.47 89.1853 279.908 89.5936 279.504C89.2378 279.594 88.7531 279.429 88.2337 279.218C87.7021 279.028 87.1109 278.845 86.6025 278.796C86.6682 278.779 86.794 278.749 86.8716 278.797C86.3529 278.576 86.2409 278.391 85.9252 278.194C85.8338 278.36 85.5786 278.392 85.2767 278.399C84.9736 278.422 84.6291 278.422 84.3726 278.475C83.8027 277.96 84.889 278.148 84.7741 277.76C84.7276 278.063 83.5353 277.766 83.699 278.066C83.2421 277.72 83.2874 277.852 83.0904 277.485C82.9002 277.929 82.5984 277.431 82.11 277.658C81.4055 277.311 81.9946 277.194 81.1432 277.203C80.7689 276.997 81.5365 276.949 81.5365 276.949L81.5417 277.036ZM62.1553 279.834C62.311 279.758 62.4438 279.703 62.527 279.665C62.4492 279.703 62.3438 279.75 62.1607 279.835L62.1553 279.834ZM60.6295 280.45C60.8166 280.387 61.0488 280.295 61.2976 280.193C61.385 280.257 61.3617 280.368 61.2124 280.429C61.2722 280.336 60.8947 280.43 60.6349 280.45L60.6295 280.45ZM64.4638 281.025C64.2413 281.134 64.1459 281.112 64.0947 281.071C64.205 281.03 64.3321 280.979 64.4982 280.909C64.4989 280.898 64.5106 280.883 64.517 280.867C64.5132 280.926 64.499 280.979 64.4638 281.025Z" fill="white"/>
<path d="M64.7893 280.551C64.8224 280.538 64.8398 280.517 64.8835 280.504C64.8301 280.501 64.7767 280.497 64.7233 280.494C64.7049 280.53 64.6811 280.566 64.6627 280.602C64.7065 280.589 64.7506 280.57 64.789 280.557L64.7893 280.551Z" fill="white"/>
<path d="M65.8445 291.338L65.8115 291.352C65.8439 291.349 65.8709 291.345 65.8919 291.352C65.8652 291.35 65.8602 291.344 65.8442 291.343L65.8445 291.338Z" fill="white"/>
<path d="M42.477 274.29L42.4568 274.353L42.6124 274.352L42.477 274.29Z" fill="white"/>
<path d="M74.3203 288.588C74.3203 288.588 74.3827 288.619 74.4524 288.618C74.4428 288.601 74.3897 288.592 74.3203 288.588Z" fill="white"/>
<path d="M77.9708 287.578C78.1498 287.558 78.3328 287.559 78.5162 287.554C78.2796 287.55 78.1069 287.555 77.9708 287.578Z" fill="white"/>
<path d="M80.8437 287.107C80.8738 287.055 80.8762 287.018 80.8783 286.986L80.8729 286.986L80.8437 287.107Z" fill="white"/>
<path d="M51.0442 303.106C51.0066 303.103 50.9637 303.101 50.9312 303.104C50.6604 303.129 50.8437 303.125 51.0442 303.106Z" fill="white"/>
<path d="M65.5095 304.038C65.378 304.073 65.2359 304.107 65.0576 304.117C65.409 304.177 65.6815 304.211 65.5095 304.038Z" fill="white"/>
<path d="M42.9796 296.481C43.0026 296.456 43.0254 296.436 43.0485 296.41L42.9799 296.475L42.9796 296.481Z" fill="white"/>
<path d="M64.1868 304.019C64.5415 304.112 64.8311 304.131 65.058 304.118C64.7652 304.067 64.4409 304.003 64.1868 304.019Z" fill="white"/>
<path d="M93.3733 286.777L93.5111 286.802C93.5111 286.802 93.5185 286.77 93.5299 286.76L93.3733 286.777Z" fill="white"/>
<path d="M93.5295 286.761L93.6861 286.744C93.6167 286.74 93.5526 286.736 93.5295 286.761Z" fill="white"/>
<path d="M94.0224 286.713L93.6919 286.745C93.8045 286.752 93.9428 286.777 94.0224 286.713Z" fill="white"/>
<path d="M89.5471 286.407L89.5032 286.505C89.5032 286.505 89.544 286.455 89.5471 286.407Z" fill="white"/>
<path d="M88.3811 286.445C88.66 286.463 89.0786 286.651 89.4648 286.59L89.5021 286.512C89.3206 286.656 88.6449 286.279 88.3811 286.445Z" fill="white"/>
<path d="M83.3736 285.542L84.3825 285.51C84.1996 285.423 83.9538 285.311 84.4054 285.238C83.108 285.068 84.6886 285.439 83.3736 285.542Z" fill="white"/>
<path d="M80.2625 285.852C80.788 285.72 80.229 285.705 80.2438 285.641C79.9214 285.798 79.8486 285.842 80.2625 285.852Z" fill="white"/>
<path d="M60.893 295.896L60.6028 295.888C60.9557 296.427 60.7014 295.862 60.893 295.896Z" fill="white"/>
<path d="M64.2179 299.09L64.1483 298.666L63.8555 298.615L64.2179 299.09Z" fill="white"/>
<path d="M63.7398 301.755L63.6777 301.719C63.7391 301.765 63.805 301.823 63.881 301.892L63.7398 301.755Z" fill="white"/>
<path d="M47.7987 294.96C47.67 294.952 47.5477 294.928 47.4308 294.904C47.3128 295.063 47.3549 295.163 47.4101 295.225C47.4884 295.263 47.5457 295.293 47.8041 294.961L47.7987 294.96Z" fill="white"/>
<path d="M36.8758 283.349C36.7984 283.129 36.4471 282.816 36.125 282.801C36.435 283.003 36.6966 283.289 36.8758 283.349Z" fill="white"/>
<path d="M37.6591 275.285L37.3289 275.312L37.9288 275.361L37.6591 275.285Z" fill="white"/>
</g>
<defs>
<clipPath id="clip0_1005_109286">
<rect width="280" height="320" fill="white"/>
</clipPath>
<clipPath id="clip1_1005_109286">
<rect width="143.984" height="72.559" fill="white" transform="translate(156.777 -16) rotate(25.0979)"/>
</clipPath>
</defs>
</svg>
