<svg width="220" height="128" viewBox="0 0 220 128" fill="none" xmlns="http://www.w3.org/2000/svg">
<g clip-path="url(#clip0_1273_43272)">
<g clip-path="url(#clip1_1273_43272)">
<path d="M192.13 22.6179C175.696 13.5311 154.85 20.0963 142.881 33.7413C127.027 24.8992 105.159 25.7292 92.7489 39.8485C108.656 35.9205 124.246 38.6896 137.379 47.1192L131.321 58.2858L161.989 52.9671L153.098 44.4255C162.594 32.3551 176.065 24.2141 192.122 22.6129L192.13 22.6179Z" fill="white"/>
<path d="M192.204 23.3841C192.332 23.2699 192.23 23.047 191.867 23.1464L191.645 23.5594L192.198 23.3854L192.204 23.3841Z" fill="white"/>
<path d="M189.64 22.9896C189.225 23.2195 188.785 23.6404 189.116 23.9392C189.485 23.5005 189.612 23.6519 190.009 23.1607C190.374 23.0676 190.669 23.2019 190.622 23.3514C190.744 23.2387 191.203 23.3636 191.372 23.1014C190.862 22.8682 190.238 22.9317 189.644 23.2538C189.497 23.1866 189.61 23.0689 189.635 22.9974L189.64 22.9896Z" fill="white"/>
<path d="M157.3 38.8679L157.502 38.7308C157.442 38.7573 157.372 38.8056 157.3 38.8679Z" fill="white"/>
<path d="M158.417 52.8267C158.519 52.8045 158.542 52.7596 158.528 52.7231C158.449 52.7601 158.384 52.7943 158.417 52.8267Z" fill="white"/>
<path d="M154.678 53.048C154.763 53.0427 154.829 53.0414 154.908 53.0375C154.818 53.0175 154.73 53.0102 154.678 53.048Z" fill="white"/>
<path d="M157.3 38.8678L156.785 39.2189C156.844 39.3385 157.07 39.0638 157.3 38.8678Z" fill="white"/>
<path d="M184.914 24.8449C185.031 24.7996 185.124 24.7395 185.203 24.6758C185.106 24.717 185.013 24.7504 184.914 24.7852C184.919 24.8042 184.916 24.8246 184.908 24.8463L184.914 24.8449Z" fill="white"/>
<path d="M164.744 32.0642L164.892 31.9523C164.912 31.8884 164.922 31.8133 164.932 31.7382C164.869 31.8447 164.806 31.9513 164.744 32.0642Z" fill="white"/>
<path d="M171.323 27.9354C171.159 28.0044 171.261 28.3201 171.269 28.4775C171.293 28.3132 171.373 28.1961 171.499 28.1024C171.474 28.0482 171.416 27.9947 171.323 27.9354Z" fill="white"/>
<path d="M182.937 23.9712L183.134 23.8686C183.08 23.8937 182.997 23.9384 182.937 23.9712Z" fill="white"/>
<path d="M160.338 35.466C160.298 35.435 160.249 35.4257 160.21 35.4277C160.237 35.4615 160.286 35.4708 160.338 35.466Z" fill="white"/>
<path d="M184.241 17.96C184.241 17.96 184.235 17.9944 184.227 18.0162C184.283 17.9974 184.297 17.9742 184.241 17.96Z" fill="white"/>
<path d="M192.086 22.6933L191.965 22.6536C191.922 22.7026 191.88 22.7517 191.851 22.8043L192.08 22.6947L192.086 22.6933Z" fill="white"/>
<path d="M147.636 53.8448C147.636 53.8448 147.655 53.8407 147.669 53.8442C147.847 53.7787 147.746 53.8009 147.636 53.8448Z" fill="white"/>
<path d="M103.69 36.8473C104.454 37.0912 102.493 37.3011 103.637 37.5481C103.524 37.427 104.634 36.9723 103.69 36.8473Z" fill="white"/>
<path d="M184.716 24.8487C184.615 24.8708 184.516 24.9057 184.419 24.9201C184.56 24.896 184.648 24.8702 184.716 24.8487Z" fill="white"/>
<path d="M103.638 37.5544L103.757 37.5815C103.708 37.5722 103.68 37.5651 103.638 37.5544Z" fill="white"/>
<path d="M134.058 56.3946C133.974 56.466 133.927 56.5228 133.885 56.5718C133.935 56.5277 133.977 56.4787 134.058 56.3946Z" fill="white"/>
<path d="M143.653 55.2061L143.349 55.2129C143.47 55.2196 143.569 55.2177 143.653 55.2061Z" fill="white"/>
<path d="M134.896 53.6605C134.993 53.5267 135.06 53.4988 135.126 53.2854C135.101 53.291 135.085 53.3078 135.062 53.326C135.062 53.4187 135.032 53.5247 134.896 53.6605Z" fill="white"/>
<path d="M138.348 47.2918C138.293 47.3436 138.239 47.4018 138.185 47.4599C138.143 47.542 138.098 47.6381 138.064 47.7251L138.354 47.2904L138.348 47.2918Z" fill="white"/>
<path d="M163.796 18.8233C163.965 18.866 164.081 18.94 164.178 19.0183C164.015 18.8219 164.947 18.4656 163.796 18.8233Z" fill="white"/>
<path d="M184.869 24.6622C184.849 24.7527 184.807 24.8018 184.716 24.8416C184.784 24.82 184.853 24.7984 184.921 24.7768C184.929 24.7221 184.919 24.6778 184.869 24.6622Z" fill="white"/>
<path d="M132.752 52.2071L133.287 51.3145C133.121 51.5564 132.925 51.8775 132.752 52.2071Z" fill="white"/>
<path d="M122.467 26.7179L122.712 26.6842C122.617 26.672 122.533 26.6837 122.467 26.7179Z" fill="white"/>
<path d="M134.721 48.575C134.91 48.4673 135.065 48.3273 135.196 48.1662C135.192 48.1142 135.201 48.0657 135.177 48.0179L134.713 48.57L134.721 48.575Z" fill="white"/>
<path d="M170.991 16.8664C169.96 16.9856 170.557 17.3456 170.369 17.6119C169.174 17.8866 169.764 17.3665 169.317 17.2057C168.563 17.4037 168.073 17.9614 167.513 18.044C167.46 17.9828 167.347 17.9811 167.454 17.8648C167.091 18.1166 166.507 18.2441 165.912 18.3808C165.31 18.5125 164.725 18.7531 164.33 19.0779C164.254 19.0615 164.209 19.0382 164.183 19.0107C164.384 19.1721 164.469 19.3789 164.483 19.5349C164.054 19.6685 163.761 20.0308 163.514 19.813C163.784 19.7407 163.773 19.6304 163.873 19.5092L163.456 19.7595C162.927 19.4973 164.037 19.4401 163.948 19.1547C163.089 19.5413 162.16 20.1554 161.473 20.3254C161.198 20.0079 162.985 19.6106 161.983 19.6175C162.342 19.5258 162.721 19.496 163.085 19.4297C162.084 19.0784 163.744 19.2855 162.796 18.8697C162.069 19.0088 161.702 19.2149 161.333 19.4084C160.963 19.6019 160.599 19.794 159.894 20.0013C159.665 20.323 160.117 20.2639 159.889 20.5856C158.995 21.119 158.549 21.084 158.142 21.014C157.742 20.9489 157.399 20.8713 156.823 21.428C156.582 21.8453 156.659 22.3189 155.588 22.5862L155.703 22.0176C154.442 22.6644 155.307 22.9724 153.88 23.4368C154.018 23.1548 154.77 22.7651 154.557 22.8248C153.55 22.9919 154.093 23.377 153.454 23.7355L153.117 23.4711C152.461 23.8464 151.877 24.3981 151.244 24.9077C150.63 25.4397 149.96 25.9308 149.35 26.4882C149.35 26.3357 149.504 26.0636 149.123 26.2065C148.36 26.9432 147.443 27.5812 146.564 28.2705C145.7 28.9696 144.784 29.6139 143.968 30.2296L143.673 31.0365C143.548 31.1633 143.33 31.1711 143.422 30.9852C142.784 31.4694 143.548 31.1633 143.382 31.5308C143.092 31.8728 142.83 31.8306 142.955 31.5514C142.774 31.8164 142.823 31.832 142.781 31.9407C142.749 32.0404 142.697 32.1645 142.627 32.2992C142.532 32.2933 142.408 32.274 142.287 32.2343C142.215 32.2102 142.181 32.2045 142.07 32.1557C141.921 32.0822 141.774 32.015 141.626 31.9479C141.039 31.6652 140.527 31.3266 140.129 31.029C140.23 31.0335 140.337 31.0367 140.433 31.0489C139.43 30.4728 138.968 31.19 138.119 30.4943L138.329 30.5146C137.233 29.9389 135.974 29.5911 134.813 29.2021C133.663 28.7774 132.547 28.5044 131.694 28.0082C131.464 28.2042 130.882 28.0002 130.32 27.8314C129.746 27.6984 129.193 27.6005 129.051 27.9232C128.39 27.6368 128.157 27.4823 127.856 27.3227C127.553 27.1835 127.175 26.9745 126.19 26.7855C125.661 26.7025 125.35 27.1349 124.693 27.1394L124.708 26.7847L123.788 27.0721C123.641 26.9186 123.492 26.7524 123.34 26.6065L122.713 26.6841C122.958 26.7101 123.229 26.8563 123.185 26.9587C122.218 27.097 120.847 26.6611 120.82 26.4749C120.055 26.5359 119.29 26.6833 118.533 26.8356C118.573 26.6875 118.957 26.617 119.259 26.5111C118.051 26.941 119.02 26.1459 117.912 26.5472C118.067 26.6193 117.847 26.7669 117.822 26.8385C117.537 26.7484 117.072 26.7176 116.569 26.7281C116.063 26.7526 115.517 26.8718 115.054 26.973L115.201 26.7023C114.352 26.8017 113.453 26.9122 112.543 27.1308C111.639 27.3684 110.717 27.6228 109.779 27.828C110.481 27.7872 110.426 28.2365 109.897 28.3986L109.582 28.0831C109.291 28.392 110.187 28.0834 109.543 28.5423C108.856 28.7124 108.965 28.2709 109.331 28.0318L108.539 28.4172C108.458 28.3221 108.638 28.2032 108.644 28.0494C108.371 28.3809 107.084 28.1453 106.717 28.6893L106.63 28.5957C106.168 28.7299 105.78 28.9008 105.437 29.0621C105.093 29.2234 104.786 29.37 104.484 29.5089C103.897 29.8029 103.332 30.0457 102.633 30.404C102.747 30.7105 102.178 30.9343 101.891 31.388C101.362 31.6098 100.79 31.8209 100.191 32.058C99.5989 32.3 99.0321 32.6559 98.4595 33.0462C97.7443 33.7261 98.3784 33.4351 98.1268 33.8347C97.8967 33.6331 96.767 34.4236 97.2333 33.8511C97.1465 33.9098 97.066 33.9672 96.9918 34.0232C96.9064 34.0882 96.7862 34.2073 96.6922 34.2941C96.4929 34.4769 96.3113 34.6491 96.141 34.8123C95.8066 35.1372 95.4971 35.4236 95.179 35.7317C94.5683 36.3424 93.8877 36.9684 93.0064 37.9829C93.4483 37.6941 93.7816 37.4556 93.815 37.5477C93.556 37.8827 92.7836 38.4227 92.5511 38.4536L92.5979 38.3638C92.2488 38.8643 91.7411 39.3995 91.081 40.0276C90.7503 40.3385 90.3842 40.6704 89.9906 41.0281L89.691 41.2991C89.597 41.3859 89.4614 41.4951 89.4253 41.5428L89.059 41.9343C89.8866 41.8595 90.8375 41.7709 91.9303 41.5718C93.009 41.3691 94.2435 41.1192 95.3329 40.722L95.1165 40.7958L98.5394 39.7957C98.8748 39.7489 99.0036 39.7605 99.0154 39.7844C99.021 39.8097 98.8919 39.8578 98.7656 39.9185C98.5117 40.0337 98.1414 40.1942 98.7231 40.1797C99.282 40.031 99.4047 39.9843 99.6429 39.919C99.8621 39.8578 100.073 39.8184 100.271 39.7817C100.674 39.7134 101.06 39.6822 101.426 39.6551C102.161 39.6137 102.859 39.6467 103.662 39.4249C104.949 40.1774 108.134 39.2426 109.812 39.8965L109.725 39.6834C110.177 39.4986 110.246 39.8149 110.563 39.898C110.527 39.7335 110.102 39.674 110.381 39.58C114.125 39.5635 117.978 40.7757 121.54 41.9921C122.843 42.4496 122.607 41.1888 124.135 42.1871C123.936 42.2505 123.74 42.3265 123.542 42.3961C126.359 42.8475 128.904 44.3988 131.523 45.2843C131.333 45.2929 131.281 45.3904 131.037 45.278C131.446 45.7519 132.926 46.29 133.049 46.0909C133.41 46.3167 133.039 46.3184 133.214 46.5451C133.427 46.7572 133.793 46.8495 134.119 46.9439C134.442 47.0523 134.724 47.1564 134.787 47.3546C134.808 47.4228 134.6 47.3492 134.498 47.3117C134.595 47.3302 134.737 47.3987 134.895 47.4835L135.002 47.5463L135.023 47.5548L135.067 47.5718C135.117 47.5874 135.205 47.5947 135.319 47.477C135.345 47.5375 135.387 47.5748 135.439 47.6031C135.488 47.6123 135.462 47.6446 135.454 47.6726L135.438 47.7492C135.424 47.8053 135.409 47.8615 135.376 47.9218C135.362 47.9512 135.341 47.9757 135.32 48.0003C135.304 48.0171 135.302 48.0108 135.275 48.0367L135.17 48.1656C135.227 48.8225 134.151 49.6742 134.517 50.0714C134.089 49.7541 133.261 51.4992 133.156 52.2048C133.123 51.9336 132.733 52.6419 132.666 52.3052C132.308 52.9799 132.061 53.6436 132.362 53.6508C131.871 53.8974 131.215 55.3663 130.863 56.2453C130.467 57.2001 130.208 57.84 129.22 58.8247C129.002 59.3164 128.789 59.8004 128.606 60.2115C130.334 59.814 131.991 59.4318 133.604 59.0593C133.966 58.9803 134.327 58.9013 134.681 58.8173L135.201 58.7036L135.56 58.612C135.988 58.505 136.418 58.4044 136.84 58.2989C136.851 58.5616 136.297 58.6696 135.763 58.7797C135.629 58.8088 135.496 58.838 135.376 58.8643C135.217 58.899 134.995 58.9475 134.841 59.0011C134.516 59.0985 134.296 59.2131 134.318 59.3473C134.54 59.2988 134.747 59.2404 134.956 59.1946C135.145 59.1467 135.404 59.0835 135.471 59.0556C135.681 58.9832 135.885 58.9121 136.076 58.8439C136.464 58.7059 136.827 58.5735 137.197 58.4397C137.926 58.1876 138.664 57.9797 139.619 57.8771C140.12 57.8603 139.379 58.1482 139.226 58.2679C141.101 57.7255 142.925 57.6781 144.572 57.0992C144.576 57.1449 144.401 57.2293 144.237 57.2984C144.567 57.2263 145.028 57.2382 144.951 57.0097L144.639 57.131C144.046 56.8827 145.849 56.1905 145.874 55.9995C145.423 56.7673 147.581 55.878 146.825 56.8852C147.04 56.805 147.297 56.6428 147.218 56.4944C147.554 56.4806 147.67 56.5547 147.369 56.7926C148.545 56.4561 148.075 56.2805 149.164 56.0955C149.183 56.2107 148.967 56.2908 148.881 56.4423C149.39 56.1256 149.905 55.8075 150.842 55.7484C150.799 55.8242 150.921 55.8969 150.646 55.9438C152.219 55.633 153.233 54.8879 155.001 54.7996C154.577 55.3828 155.618 54.8569 155.782 55.2718L156.689 54.9808L156.279 54.8385C157.107 54.7039 157.737 54.2745 158.51 54.2844C158.274 54.3891 158.114 54.4771 157.914 54.5672L159.855 54.1429L158.579 54.2031C159.105 53.9954 158.993 53.8805 158.966 53.787C158.945 53.6922 158.955 53.6437 159.594 53.5901C159.392 53.6675 160.466 53.4458 161.353 53.5502C161.658 53.3643 161.828 53.2011 162.599 53.1387C162.581 53.1162 162.562 53.0937 162.543 53.0648C162.683 53.0076 163.661 53.4699 163.754 53.4364C163.159 53.1158 162.647 52.6578 162.119 52.1898C161.591 51.7219 161.048 51.2441 160.601 51.0834C160.853 51.2007 161.152 51.1686 161.143 51.0976C160.911 51.0091 160.689 50.9382 160.483 50.8772C160.236 50.5071 160.21 50.4199 160.436 50.3903C159.864 49.8064 159.864 49.9918 159.833 50.1245C159.822 50.1933 159.8 50.2445 159.724 50.2014C159.687 50.1831 159.629 50.1295 159.56 50.0584C159.499 49.9922 159.417 49.8908 159.314 49.7542C159.407 49.8135 159.398 49.7425 159.591 49.866C158.685 48.8246 157.551 48.1645 156.74 47.1887C156.774 46.6177 157.607 47.8739 157.558 47.3147C156.875 46.7149 156.108 46.1536 155.36 45.5881C155.041 45.3463 154.729 45.103 154.418 44.8661C154.296 44.7668 154.174 44.661 154.057 44.5539L153.895 44.3905C153.85 44.3672 153.883 44.3336 153.91 44.3077L153.992 44.2236L153.891 44.3118C153.851 44.3405 153.811 44.3692 153.851 44.4002C153.563 44.3902 153.6 44.3159 153.659 44.2234C153.731 44.128 153.886 44.0147 154.048 43.9063C154.211 43.7979 154.382 43.7008 154.507 43.6007C154.574 43.5461 154.613 43.5111 154.687 43.4221C154.754 43.3345 154.812 43.2356 154.855 43.1269C154.751 43.3218 154.938 43.5661 154.925 43.4762C155.335 43.0419 155.701 42.5576 156.111 42.0039C156.523 41.4565 156.929 40.7911 157.499 40.0834L157.458 40.3509C158.054 39.9487 158.817 39.0926 159.404 38.6132C159.459 38.3492 159.797 38.07 159.448 38.0865C160.631 37.6292 161.333 36.7666 162.092 35.9842C162.463 35.5849 162.828 35.187 163.231 34.8405C163.635 34.5003 164.096 34.2404 164.624 34.0719C164.424 34.2217 164.234 34.5351 164.395 34.4204L165.719 33.2428C165.451 33.1092 165.442 33.2504 165.015 33.3039C165.103 33.0394 165.426 32.6308 165.798 32.3903C165.237 32.9836 166.054 32.7387 166.425 32.671C166.331 32.6384 166.373 32.4966 166.302 32.4459C167.338 32.3189 166.126 31.9143 167.364 31.4649L167.384 31.6195C167.73 31.2854 168.011 30.8992 168.473 30.6723C168.819 30.8285 168.118 31.0548 168.223 31.2904C168.823 30.9072 169.128 30.0519 169.85 29.9802C169.635 30.2128 169.26 30.4407 169.038 30.6746C169.831 30.6207 169.85 30.4972 170.328 30.2801L170.277 30.2912C170.649 30.1371 171.04 30.0118 171.419 29.8626L171.099 29.9192C171.507 28.8029 172.616 28.8918 173.486 27.9194C172.638 28.8736 173.441 28.2607 173.513 28.6163C173.835 28.5723 174.298 28.4711 174.224 28.6197C174.621 28.1222 175.163 28.4146 175.726 27.7082C175.805 27.7969 176.289 27.4858 176.284 27.7983C176.93 27.4384 176.047 27.6845 176.047 27.5321C176.498 27.1352 177.164 26.9896 177.875 26.8076C178.594 26.6306 179.369 26.4678 180.051 25.9409C180.679 25.5915 181.043 25.3397 181.393 25.0843C181.742 24.829 182.087 24.5813 182.697 24.3022C183.173 24.3506 182.453 24.7994 182.453 24.7994C182.821 24.7787 183.134 24.7235 183.427 24.633C183.729 24.5538 184.012 24.4521 184.327 24.3104C184.216 24.4407 184.372 24.4861 184.607 24.5606C185.125 24.4075 184.868 24.0795 185.598 24.0788C185.506 24.2316 185.396 24.461 185.172 24.6493C185.763 24.4073 186.334 24.0374 186.967 23.8327C187.175 23.9928 186.634 24.197 186.431 24.3608C187.142 24.1458 188.278 23.8442 188.456 23.5006L187.965 23.4753C188.232 23.4171 188.15 23.7132 187.965 23.8068C187.384 24.1591 187.04 23.8631 186.983 23.7562L187.435 23.6044C187.135 23.3254 186.666 23.428 186.165 23.6302C185.662 23.8528 185.133 24.1673 184.661 24.2573L184.937 23.6997L184.075 24.3125C183.845 24.2367 183.636 24.0106 184.083 23.8335C183.357 23.7667 183.529 24.1269 182.899 24.0393C182.827 24.0153 182.847 23.9844 182.9 23.953L182.293 24.2778C182.39 24.1439 182.095 23.9829 182.51 23.9322C181.264 24.0121 180.736 24.8169 180.194 24.6173L180.281 24.5585C178.747 25.2649 180.234 24.9532 179.188 25.7586L178.092 25.2159L178.057 25.6015C177.885 25.6389 177.555 25.7377 177.569 25.5888C177.06 26.0579 177.725 25.6939 177.464 26.0493C176.576 26.0642 175.404 27.0561 175.008 26.6125C174.841 26.9737 175.826 26.4933 175.083 27.0138C174.606 26.5678 174.196 27.5457 173.393 27.615C173.47 27.2338 174.199 27.0744 173.384 27.1465C173.197 27.8104 171.985 27.6777 171.464 28.0899C171.644 28.4879 170.295 28.8823 169.441 29.566C169.436 29.4213 167.56 30.388 166.65 30.8454L166.634 30.7695C166.709 31.2368 165.804 31.7462 165.234 32.2419C165.112 32.0167 165.164 31.8596 165.439 31.5345L164.848 31.9352C164.795 32.1458 164.658 32.3413 164.315 32.655L164.269 32.2939C163.523 32.8943 162.944 33.7102 161.887 34.3456C162.025 34.6137 163.149 34.3746 162.297 35.3428C162.157 35.2476 161.945 35.0686 162.159 34.803C162.086 34.892 161.944 35.155 161.73 35.2414L161.953 34.709C161.452 34.9709 161.871 35.0648 161.516 35.3279C161.377 35.1463 161.155 35.4069 161.091 35.2354C161.164 35.1464 161.451 35.0573 161.519 34.8833C161.11 35.1715 160.553 35.4523 160.287 35.4508C160.408 35.5172 160.491 35.6846 160.237 35.9521C159.55 36.6062 159.815 35.965 159.326 36.2508C159.266 36.5225 158.704 36.8109 158.928 37.0736C158.722 37.2577 158.572 37.1779 158.433 37.1817C158.169 37.6171 156.841 38.8354 157.481 38.6954L157.586 38.6262C157.586 38.6262 157.556 38.6724 157.541 38.6956C157.1 39.3819 156.475 39.9294 155.877 40.5043C155.276 41.0729 154.622 41.6069 154.177 42.2743L154.094 42.1996C153.962 42.4142 153.846 42.5852 153.656 42.8389C153.465 43.0927 153.276 43.3527 153.091 43.5987C152.912 43.8433 152.749 44.0711 152.621 44.2779L152.533 44.4231C152.499 44.4504 152.556 44.4646 152.58 44.4857L152.667 44.5464C152.782 44.6205 152.892 44.6959 152.997 44.7524C153.216 44.9631 153.338 45.3673 153.096 45.3273C153.484 45.6403 153.714 45.7821 153.944 45.9837C154.13 46.1352 154.321 46.3388 154.634 46.7674C153.971 46.4087 154.693 47.0661 154.001 46.3624C154.602 47.0792 154.63 47.3581 155.57 47.8287C155.119 47.8014 155.822 48.5823 156.2 48.8244L155.875 48.2194C156.262 48.5324 156.56 48.8584 156.863 49.1831L156.422 49.2928C156.95 50.1253 157.706 50.5763 158.401 51.0208C158.613 51.1668 158.649 51.1522 158.756 51.215C158.847 51.2679 158.94 51.3272 159.007 51.392C159.15 51.5266 159.219 51.6904 159.024 51.7728C159.301 51.8515 159.307 51.7904 159.279 51.6906C159.259 51.6021 159.211 51.4734 159.51 51.534C159.688 51.7403 159.662 51.9249 159.532 51.9997C159.404 52.0808 159.188 52.0682 159.221 52.0943C159.214 52.0957 159.209 52.1034 159.204 52.1111C158.922 52.0935 159.126 52.2078 159.226 52.3317C159.34 52.4592 159.338 52.599 158.927 52.6027C159.116 52.7072 159.714 52.9808 158.973 53.242C158.117 53.3365 158.043 52.8158 158.288 52.6627C158.388 52.6342 158.462 52.6646 158.484 52.7061C158.626 52.6285 158.742 52.5502 158.486 52.4406C158.495 52.4849 158.505 52.5291 158.515 52.5734C158.443 52.5493 158.355 52.542 158.273 52.5334C158.173 52.5289 158.162 52.5113 157.952 52.524C157.629 52.535 157.388 52.528 157.511 52.3886C156.88 52.6326 157.271 52.6597 157.766 52.6443C156.616 52.6438 156.023 52.9392 154.855 53.0088C155.051 53.0522 155.245 53.182 155.066 53.2145C153.359 53.336 154.373 53.5981 153.24 53.8589C152.555 53.7635 153.389 53.3227 152.269 53.7002C151.546 53.6791 152.057 53.3687 152.32 53.2051C151.321 53.649 150.337 53.3736 149.73 53.4266L150.264 53.2238C149.945 53.3465 149.676 53.392 149.401 53.439L149.761 53.6585C149.43 53.6646 149.155 53.7115 149.144 53.6012C148.844 53.8392 149.478 54.0054 148.859 54.366C148.406 54.2994 147.572 54.7401 147.36 54.4087C148.737 54.2933 147.147 54.0709 148.287 53.8151C148.072 53.8952 147.803 53.9408 147.472 53.9469C147.418 53.9123 147.507 53.8662 147.592 53.8278C146.242 53.7319 147.066 54.3404 145.719 54.562C145.854 54.3271 145.341 54.2336 145.126 54.3137C145.671 54.2212 145.443 54.6089 144.971 54.8513C144.085 54.8396 144.056 55.131 143.603 55.1901L144.131 55.1741C143.99 55.4104 143.554 55.4526 142.967 55.6209C142.888 55.4725 143.494 55.4195 143.267 55.383C142.659 55.8539 141.695 55.2759 140.806 55.6757C140.352 55.6091 140.697 55.3018 140.306 55.2746C139.306 55.7185 139.132 55.1933 138.071 55.5976C138.431 55.8171 138.48 55.7399 137.75 56.1382L139.52 55.632L138.434 56.2273C138.979 56.1347 139.55 55.8575 139.885 55.8438C139.37 56.1619 139.42 56.0847 139.718 56.2647C138.906 55.9849 138.284 56.7571 137.379 56.6302L137.29 55.9472C136.617 55.9087 136.06 56.0968 135.455 56.3085C135.307 56.3608 135.152 56.4144 134.992 56.4694C134.892 56.4979 134.888 56.512 134.845 56.528L134.736 56.5783C134.583 56.6382 134.393 56.6798 134.236 56.6611C134.289 56.6894 134.349 56.7225 134.422 56.753C134.317 56.9086 134.152 56.9446 133.991 56.9666C133.822 56.9837 133.68 56.9749 133.455 57.0704C133.752 56.7868 133.696 56.7129 133.838 56.5427C133.71 56.6568 133.6 56.6677 133.383 56.7415C133.371 56.6846 133.309 56.6451 132.976 56.8239C133.211 56.5935 133.436 56.4052 133.634 56.2492C134.038 55.7566 133.118 55.8318 133.825 54.6897C133.843 54.9244 133.957 54.9261 134.035 54.9818C134.074 55.0065 134.103 55.0466 134.108 55.1316C134.118 55.2089 134.065 55.3928 134.079 55.4561C134.093 55.4266 134.244 55.1749 134.303 55.0493C134.371 54.9083 134.389 54.8051 134.321 54.767C134.571 54.6062 134.632 53.5457 135.016 53.2961C135.016 53.084 134.833 52.9184 135.086 52.4921C135.153 52.4642 135.185 52.55 135.185 52.55C135.086 52.4921 135.419 51.7963 134.99 52.0556C135.629 51.6311 136.069 50.786 136.486 49.9591C136.593 49.7501 136.695 49.5488 136.797 49.3475C136.911 49.1371 136.992 48.9934 137.147 48.7276C137.435 48.2537 137.741 47.8289 138.132 47.4254C138.204 47.2704 138.276 47.1154 138.349 46.9604L138.403 46.8425C138.403 46.8425 138.421 46.8054 138.43 46.7836L138.369 46.7504L138.114 46.6141C137.782 46.4348 137.449 46.2491 137.116 46.0634C136.563 45.7534 136.024 45.447 135.557 45.1914C135.643 45.1593 135.615 45.0925 135.745 45.2032C134.809 44.3871 134.766 45.404 133.677 44.5285C133.233 43.8635 134.42 44.7042 134.101 44.3696C134.284 43.627 132.591 43.6326 131.939 42.8672L132.164 42.9241C131.622 42.3929 130.473 42.3924 129.415 41.9011C129.415 41.9011 129.493 41.8641 129.465 41.7973C128.572 41.8467 127.149 41.3558 126.051 41.1054C126.481 40.9451 126.581 41.1287 126.491 40.7773C126.004 40.6452 126.462 41.2808 125.495 41.0216C125.244 40.7582 124.61 40.3799 124.617 40.047L125.515 40.3544C125.192 39.7887 124.351 39.9528 123.887 39.7491L124.007 39.5971C123.296 39.4145 122.907 39.4267 122.508 39.4276C122.108 39.4223 121.701 39.412 120.947 39.2187L121.071 39.3905C120.138 39.6209 120.441 38.9714 119.538 39.0959L119.393 38.5842C118.821 38.5502 117.363 38.6303 116.369 38.5227C116.984 38.2955 118.18 38.3524 118.95 38.29C118.401 38.1781 117.07 37.9586 116.742 38.1298C116.967 38.1269 117.275 38.073 117.478 38.1811C117.104 38.2959 116.691 38.353 116.239 38.3524C115.784 38.3658 115.28 38.3433 114.731 38.2644C114.891 37.8385 114.179 37.6826 113.342 37.5341C112.495 37.4277 111.525 37.335 111.142 36.9546C109.148 37.1321 107.21 36.6278 104.882 36.739C105.721 37.4172 104.209 36.7602 104.38 37.4849C103.854 37.567 103.647 37.5657 103.598 37.5234L101.948 37.2081C101.544 37.0314 102.445 37.0199 102.383 36.861C101.201 36.8941 101.863 36.5771 101.064 36.48C101.248 36.7116 100.689 36.8933 100.006 36.8703L100.984 37.0873C100.183 37.3751 99.8197 37.2624 99.4449 37.1587C99.2606 37.1062 99.07 37.0551 98.8293 37.0481C98.7322 37.0295 98.7589 37.0303 98.6388 37.1494C98.6997 37.0631 98.7352 36.9825 98.758 36.9046C98.7148 36.9803 98.631 36.992 98.4757 37.0723C98.3078 37.1554 98.0228 37.3105 97.2599 37.7424C97.3716 37.6451 97.7718 37.3786 97.9574 37.285C97.9025 37.2772 97.7241 37.3427 97.4308 37.4598L97.2714 37.5212C97.222 37.5386 97.1374 37.577 97.141 37.5629C97.1065 37.5572 97.0784 37.5501 97.0566 37.5416C97.0053 37.5197 96.9815 37.4719 96.9994 37.4017C97.0365 37.2676 97.2283 37.0202 97.6331 36.8655L97.9105 36.8579C97.8818 36.8177 97.5393 36.7402 97.941 36.6325C98.0367 36.6447 98.157 36.6781 98.2036 36.648C98.179 36.6269 98.1335 36.5705 98.1486 36.4877C98.1574 36.4062 98.2331 36.2969 98.3473 36.2719C98.3625 36.3415 98.384 36.4097 98.4219 36.4611C98.5015 36.4304 98.5559 36.4053 98.6011 36.3689C98.6237 36.3507 98.6399 36.3339 98.6625 36.3157C98.7367 36.2597 98.8045 36.2051 98.8786 36.1491C99.1725 35.9126 99.4227 35.6591 99.6589 35.402C100.134 34.9004 100.55 34.339 101.199 33.8724C101.461 34.3122 102.837 33.7662 103.514 33.4921L103.531 33.568C103.764 33.4507 103.997 33.327 104.215 33.1998C104.442 33.0839 104.658 32.9771 104.874 32.8702C105.298 32.6516 105.692 32.4196 106.084 32.1749C106.478 31.9428 106.852 31.6756 107.27 31.4584C107.689 31.2475 108.122 31.0401 108.589 30.8385C109.277 30.9135 110.295 30.6179 111.443 30.4267C112.01 30.316 112.602 30.1934 113.175 30.0813C113.751 29.9818 114.322 29.9764 114.832 29.9709C114.516 29.9208 114.824 29.5684 115.175 29.4718C115.656 29.5125 116.448 28.9416 116.418 29.4122L116.249 29.4292C116.65 29.8055 117.605 29.6762 118.366 29.6292L118.457 29.0128C118.974 29.218 119.551 29.2442 120.149 29.2727C120.748 29.3074 121.38 29.2819 121.977 29.2443C123.177 29.141 124.275 29.1793 124.778 29.6261C125.273 29.5179 125.871 29.5794 126.365 29.4712L126.297 29.7976C127.602 30.0824 128.249 30.2458 129.884 30.4585C129.761 30.5052 129.635 30.5659 129.507 30.6203C130.399 30.8364 130.855 29.9745 131.712 30.1582L131.842 30.6931C132.236 30.7926 132.628 30.9124 133.016 31.0463L134.15 31.5209C134.903 31.8336 135.682 32.0543 136.511 32.1381C136.464 32.1949 136.369 32.3084 136.118 32.2241C136.822 32.5275 138.704 33.6603 138.726 32.9397C138.639 33.1508 139.037 33.296 139.534 33.4723C140.031 33.6487 140.664 33.8085 141.1 33.9187L140.83 34.1434C140.937 34.1465 140.985 34.1227 141.117 34.147C141.233 34.1614 141.336 34.1785 141.438 34.1894C141.63 34.2138 141.779 34.2276 141.931 34.254C142.227 34.3019 142.517 34.3843 143.011 34.5746C143.056 34.5052 143.15 34.3917 143.25 34.2705C143.505 34.0689 143.56 34.322 143.187 34.5892C143.642 34.2379 143.789 33.9672 143.925 33.7119C144.051 33.4658 144.264 33.1342 144.636 32.8606L144.528 33.2754C145.129 32.6801 145.002 32.6481 145.156 32.1372C145.412 31.6372 146.386 31.0732 146.673 31.2025C146.635 30.9987 146.82 30.5076 147.251 30.2279C147.372 30.2676 147.284 30.4394 147.235 30.5229C148.408 29.7164 148.598 28.853 149.57 28.4948C149.653 28.5695 149.733 28.5718 149.82 28.5461C148.928 29.2382 148.194 29.7699 148.254 29.7103C148.44 29.9216 149.187 29.4202 148.887 30.1751C149.306 29.5666 149.991 28.416 150.773 27.9799C150.825 27.9752 150.871 27.9718 150.929 27.9923L150.874 28.0772C151.052 27.9786 151.174 27.8392 151.292 27.7075C151.552 27.591 151.723 27.5205 151.951 27.3779C152.175 27.5211 152.886 26.9149 153.265 26.673C153.057 26.4202 153.579 26.1338 152.972 26.2135C153.048 26.1969 152.922 26.2906 152.676 26.4704C152.626 26.5145 152.556 26.5628 152.533 26.6077C152.53 26.595 152.54 26.5796 152.544 26.5656C152.302 26.7376 151.978 26.9544 151.615 27.2126C151.821 26.876 152.056 26.5529 152.573 26.4266C152.653 26.1241 152.748 25.7984 152.818 25.6308C153.571 25.6386 154.755 25.2803 155.036 25.444C155.591 25.0312 156.278 24.5893 156.904 24.1676C157.543 23.7761 158.103 23.3619 158.373 22.8921C158.698 22.6486 158.857 22.8591 159.028 22.8814C158.849 23.0333 158.6 23.1407 158.523 23.2768C158.85 23.0396 159.369 22.7672 159.814 22.524C160.27 22.2985 160.644 22.0643 160.659 21.829C161.663 21.6493 160.278 22.3961 161.533 21.8435L161.407 22.03C162.096 21.9589 162.657 21.7301 163.195 21.5133C163.732 21.2964 164.223 21.0168 164.732 20.7332C165.246 20.4684 165.758 20.1377 166.367 20.0046C166.97 19.8462 167.642 19.759 168.414 19.8223C168.198 19.8097 168.091 19.8066 168.038 19.7454C168.469 19.7108 168.892 19.6383 169.319 19.5847C169.75 19.5501 170.178 19.5029 170.61 19.4417C171.042 19.3804 171.472 19.3128 171.904 19.2516C172.122 19.2171 172.339 19.1763 172.553 19.1495L173.206 19.0994C174.076 19.0352 174.954 18.9759 175.817 18.9728C176.683 19.0421 177.531 19.1548 178.359 19.3518C179.297 19.5111 179.418 19.3057 180.027 19.1726L180.183 19.5495L181.23 19.2941C181.591 19.2748 181.918 19.3424 182.233 19.4459C182.543 19.5571 182.824 19.7475 183.126 19.9135C183.726 20.2531 184.352 20.5667 185.297 20.5126L185.142 20.2284C185.453 20.3129 185.942 20.4512 186.338 20.5901C186.733 20.7289 187.027 20.8569 186.931 20.964C187.007 20.9474 187.215 20.8026 187.405 21.0062L187.358 21.1823C187.882 21.273 188.427 21.3329 188.956 21.4426C190.004 22.1017 188.493 22.0278 190.064 22.831C190.676 23.0484 191.992 23.1716 191.833 22.9611C191.593 22.8347 191.267 22.5612 191.336 22.3872L191.935 22.5744C192.286 22.1463 193.014 21.8878 191.773 20.8601L190.643 20.6763L190.437 20.2838L191.273 20.6711C190.909 20.2205 190.513 20.2671 190.117 20.2477C190.094 20.0805 189.993 19.9236 189.823 19.7819C189.434 19.7674 189.022 19.8308 188.623 19.8585C188.577 19.6167 189.232 19.6327 188.595 19.2747C188.035 19.3244 188.874 19.8831 188.039 19.7409C187.637 19.3316 187.846 19.1932 187.199 19.1822C187.165 19.024 187.316 18.9844 187.567 19.009C186.991 18.9891 186.179 18.5569 185.816 18.782C185.371 18.3558 184.013 18.4073 184.187 17.9253C183.984 18.0026 183.157 18.0775 182.67 17.9785C183.696 17.5354 180.825 17.6528 181.164 17.0483C180.781 17.2713 180.163 17.2407 179.49 17.1692C178.809 17.1258 178.061 17.1103 177.455 17.223C177.525 17.1811 177.661 17.1049 177.768 17.1347C177.091 17.0506 176.9 16.8737 176.467 16.7495C176.416 16.9728 176.131 17.0948 175.782 17.2041C175.438 17.3324 175.038 17.4464 174.758 17.5938C173.925 17.1861 175.249 17.0424 174.986 16.6293C175.033 16.9968 173.549 17.0494 173.839 17.3439C173.193 17.094 173.29 17.232 172.939 16.8714C172.866 17.4506 172.35 16.9736 171.858 17.3992C170.924 17.2322 171.569 16.899 170.584 17.1939C170.08 17.0787 170.956 16.768 170.956 16.768L170.991 16.8664ZM149.411 26.581C149.566 26.441 149.702 26.3318 149.786 26.2604C149.708 26.3304 149.601 26.42 149.417 26.5797L149.411 26.581ZM147.844 27.805C148.04 27.6693 148.279 27.4845 148.534 27.283C148.657 27.329 148.667 27.466 148.514 27.5857C148.552 27.4579 148.145 27.6928 147.85 27.8036L147.844 27.805ZM152.488 27.194C152.267 27.395 152.148 27.4009 152.075 27.3705C152.19 27.2859 152.32 27.1844 152.49 27.0479C152.487 27.0353 152.496 27.0135 152.498 26.9932C152.513 27.0628 152.514 27.1288 152.488 27.194Z" fill="white"/>
<path d="M152.71 26.5355C152.744 26.5082 152.758 26.4788 152.804 26.4487C152.741 26.4626 152.678 26.4764 152.614 26.4903C152.605 26.5387 152.589 26.5885 152.58 26.637C152.626 26.6069 152.672 26.5705 152.712 26.5418L152.71 26.5355Z" fill="white"/>
<path d="M157.53 38.7109L157.496 38.7382C157.533 38.7236 157.563 38.7103 157.59 38.7111C157.558 38.718 157.551 38.7131 157.532 38.7172L157.53 38.7109Z" fill="white"/>
<path d="M124.711 26.7046L124.709 26.7846L124.89 26.7318L124.711 26.7046Z" fill="white"/>
<path d="M166.455 32.6907C166.455 32.6907 166.538 32.7057 166.619 32.6813C166.602 32.6651 166.538 32.6727 166.455 32.6907Z" fill="white"/>
<path d="M170.359 30.2996C170.56 30.2159 170.773 30.1561 170.984 30.09C170.708 30.1636 170.509 30.2269 170.359 30.2996Z" fill="white"/>
<path d="M173.539 28.7961C173.557 28.7259 173.547 28.6817 173.539 28.6437L173.532 28.6451L173.539 28.7961Z" fill="white"/>
<path d="M144.266 57.312C144.222 57.3217 144.171 57.3328 144.134 57.3475C143.828 57.4674 144.04 57.4013 144.266 57.312Z" fill="white"/>
<path d="M161.378 53.571C161.237 53.6548 161.083 53.7415 160.879 53.8125C161.307 53.7653 161.635 53.7136 161.378 53.571Z" fill="white"/>
<path d="M132.693 52.3058C132.712 52.2687 132.731 52.2378 132.75 52.2006L132.692 52.2995L132.693 52.3058Z" fill="white"/>
<path d="M159.834 53.9881C160.277 53.9774 160.619 53.9025 160.879 53.8127C160.522 53.851 160.124 53.8849 159.834 53.9881Z" fill="white"/>
<path d="M187.979 24.235L188.148 24.2179C188.148 24.2179 188.146 24.1786 188.156 24.1632L187.979 24.235Z" fill="white"/>
<path d="M188.155 24.1627L188.332 24.0909C188.25 24.1089 188.174 24.1256 188.155 24.1627Z" fill="white"/>
<path d="M188.712 23.942L188.339 24.0899C188.472 24.0608 188.641 24.0437 188.712 23.942Z" fill="white"/>
<path d="M183.412 25.0799L183.393 25.2098C183.393 25.2098 183.424 25.1368 183.412 25.0799Z" fill="white"/>
<path d="M182.07 25.5132C182.4 25.4411 182.949 25.52 183.377 25.3203L183.394 25.2171C183.231 25.4449 182.321 25.233 182.07 25.5132Z" fill="white"/>
<path d="M175.953 26.1341L177.114 25.761C176.873 25.721 176.55 25.6723 177.05 25.437C175.487 25.6727 177.446 25.5758 175.953 26.1341Z" fill="white"/>
<path d="M172.444 27.5307C173.01 27.2015 172.356 27.371 172.352 27.2923C172.03 27.5815 171.96 27.6564 172.444 27.5307Z" fill="white"/>
<path d="M153.302 45.6534L152.962 45.7409C153.551 46.2483 153.068 45.678 153.302 45.6534Z" fill="white"/>
<path d="M158.229 48.2553L158.007 47.7869L157.649 47.8252L158.229 48.2553Z" fill="white"/>
<path d="M158.561 51.5096L158.477 51.4883C158.564 51.5222 158.66 51.5675 158.772 51.6226L158.561 51.5096Z" fill="white"/>
<path d="M137.784 48.9332C137.632 48.9664 137.482 48.9794 137.338 48.9909C137.254 49.2147 137.336 49.3161 137.421 49.3704C137.524 49.3876 137.601 49.4039 137.79 48.9318L137.784 48.9332Z" fill="white"/>
<path d="M121.225 39.0915C121.062 38.8621 120.55 38.6161 120.171 38.7057C120.598 38.8375 120.997 39.0817 121.225 39.0915Z" fill="white"/>
<path d="M119.446 29.4657L119.072 29.6072L119.785 29.4646L119.446 29.4657Z" fill="white"/>
</g>
<g clip-path="url(#clip2_1273_43272)">
<path d="M103.882 76.3246C89.2853 70.9883 73.0742 79.0147 65.0255 91.6992C50.9326 86.4893 33.1554 89.9557 24.8062 103.084C37.3143 97.8442 50.417 98.1214 62.2315 103.341L58.7006 113.245L83.1026 104.986L74.7426 99.1343C80.9694 88.0527 90.9483 79.6779 103.875 76.3215L103.882 76.3246Z" fill="white"/>
<path d="M104.04 76.9418C104.13 76.8321 104.019 76.6628 103.734 76.7904L103.605 77.1565L104.035 76.9437L104.04 76.9418Z" fill="white"/>
<path d="M101.892 76.9462C101.582 77.1871 101.276 77.5873 101.585 77.7895C101.831 77.3837 101.953 77.4914 102.216 77.039C102.503 76.9164 102.761 76.9886 102.742 77.1168C102.827 77.0091 103.218 77.0528 103.323 76.8168C102.876 76.691 102.374 76.8225 101.929 77.1616C101.8 77.1255 101.878 77.0148 101.889 76.9532L101.892 76.9462Z" fill="white"/>
<path d="M77.4694 94.0533L77.617 93.9159C77.571 93.9452 77.5207 93.9933 77.4694 94.0533Z" fill="white"/>
<path d="M80.1621 105.327C80.2419 105.296 80.2553 105.256 80.2387 105.228C80.1796 105.268 80.1305 105.305 80.1621 105.327Z" fill="white"/>
<path d="M77.133 105.985C77.2017 105.969 77.2555 105.96 77.3192 105.947C77.2427 105.942 77.1702 105.947 77.133 105.985Z" fill="white"/>
<path d="M77.4693 94.0535L77.0932 94.4062C77.157 94.4964 77.3065 94.243 77.4693 94.0535Z" fill="white"/>
<path d="M98.2655 79.0656C98.3549 79.0137 98.4234 78.9526 98.48 78.8904C98.4056 78.9365 98.3344 78.9756 98.2581 79.0167C98.2639 79.0317 98.2647 79.0486 98.2605 79.0675L98.2655 79.0656Z" fill="white"/>
<path d="M82.6894 87.5399L82.796 87.4299C82.8036 87.3754 82.8023 87.313 82.801 87.2505C82.7632 87.3453 82.7253 87.4401 82.6894 87.5399Z" fill="white"/>
<path d="M87.5443 83.3255C87.4187 83.4029 87.5426 83.648 87.569 83.7757C87.5676 83.6383 87.6187 83.5323 87.7096 83.4396C87.6821 83.3985 87.6277 83.3621 87.5443 83.3255Z" fill="white"/>
<path d="M96.5359 78.6031L96.6832 78.4945C96.6421 78.5219 96.58 78.5689 96.5359 78.6031Z" fill="white"/>
<path d="M79.5192 90.8848C79.4827 90.8646 79.442 90.8632 79.4102 90.8699C79.4367 90.8939 79.4774 90.8953 79.5192 90.8848Z" fill="white"/>
<path d="M96.8364 73.5211C96.8364 73.5211 96.836 73.5498 96.8318 73.5686C96.8748 73.5462 96.884 73.5255 96.8364 73.5211Z" fill="white"/>
<path d="M103.855 76.3928L103.751 76.3759C103.723 76.4212 103.695 76.4666 103.678 76.513L103.85 76.3947L103.855 76.3928Z" fill="white"/>
<path d="M71.4748 107.534C71.4748 107.534 71.4898 107.528 71.5017 107.529C71.6387 107.453 71.5588 107.484 71.4748 107.534Z" fill="white"/>
<path d="M33.3701 99.2352C34.0263 99.3372 32.4494 99.7588 33.4163 99.8151C33.3085 99.7304 34.1583 99.217 33.3701 99.2352Z" fill="white"/>
<path d="M98.1036 79.093C98.0235 79.1241 97.9472 79.1652 97.8701 79.1893C97.9823 79.1516 98.0505 79.1194 98.1036 79.093Z" fill="white"/>
<path d="M33.418 99.8208L33.5182 99.8277C33.4775 99.8263 33.4537 99.8241 33.418 99.8208Z" fill="white"/>
<path d="M60.6968 111.351C60.6374 111.42 60.606 111.472 60.5776 111.517C60.6129 111.475 60.6412 111.429 60.6968 111.351Z" fill="white"/>
<path d="M68.3924 109.154L68.1445 109.199C68.2444 109.189 68.3254 109.175 68.3924 109.154Z" fill="white"/>
<path d="M61.0334 109.007C61.0957 108.885 61.1469 108.854 61.1739 108.671C61.1539 108.678 61.1427 108.694 61.1266 108.712C61.1387 108.788 61.1276 108.878 61.0334 109.007Z" fill="white"/>
<path d="M63.0453 103.359C63.0069 103.408 62.9703 103.463 62.9338 103.517C62.91 103.589 62.8851 103.674 62.8682 103.749L63.0503 103.357L63.0453 103.359Z" fill="white"/>
<path d="M80.2268 76.833C80.3703 76.8464 80.4745 76.8922 80.5637 76.9438C80.4057 76.8039 81.1227 76.3938 80.2268 76.833Z" fill="white"/>
<path d="M98.2033 78.9227C98.1984 78.999 98.1701 79.0443 98.101 79.0882C98.154 79.062 98.2069 79.0357 98.2599 79.0095C98.2594 78.9639 98.2459 78.929 98.2033 78.9227Z" fill="white"/>
<path d="M59.0938 108.092L59.4183 107.294C59.313 107.513 59.194 107.8 59.0938 108.092Z" fill="white"/>
<path d="M47.4349 88.558L47.6303 88.4994C47.5508 88.5016 47.484 88.5218 47.4349 88.558Z" fill="white"/>
<path d="M60.2422 104.871C60.3831 104.759 60.4924 104.624 60.5789 104.476C60.5684 104.434 60.5699 104.393 60.5444 104.357L60.2352 104.868L60.2422 104.871Z" fill="white"/>
<path d="M85.8611 74.3159C85.0335 74.5448 85.5676 74.763 85.4481 75.0048C84.5051 75.3819 84.9219 74.8812 84.5357 74.8067C83.9442 75.0648 83.6151 75.5833 83.1676 75.7223C83.1162 75.6789 83.0233 75.692 83.0964 75.5832C82.8311 75.8354 82.3702 76.0141 81.9012 76.2017C81.4253 76.3862 80.9773 76.6576 80.6963 76.9735C80.6315 76.9698 80.5918 76.9565 80.5671 76.9373C80.7524 77.0437 80.8483 77.2019 80.8798 77.3277C80.5457 77.4917 80.3523 77.8253 80.1226 77.6787C80.3342 77.5852 80.3112 77.4963 80.3774 77.3845L80.0682 77.6423C79.602 77.4954 80.5029 77.3071 80.3938 77.085C79.7405 77.5107 79.059 78.1312 78.5188 78.3579C78.2531 78.1333 79.6639 77.5806 78.8454 77.714C79.1271 77.5933 79.4332 77.5206 79.7226 77.4199C78.8597 77.2602 80.2436 77.2179 79.4153 76.9988C78.8383 77.2052 78.5645 77.4206 78.2869 77.6259C78.0092 77.8313 77.7365 78.0347 77.1859 78.2942C77.0399 78.5864 77.4022 78.4805 77.2562 78.7727C76.5935 79.3228 76.2241 79.351 75.882 79.3457C75.5469 79.3434 75.2568 79.3237 74.8567 79.8524C74.7128 80.2243 74.8361 80.6018 73.9941 80.957L74.0156 80.4774C73.067 81.167 73.8135 81.3087 72.7058 81.8703C72.7824 81.6222 73.3478 81.2076 73.1814 81.2836C72.3793 81.5485 72.8722 81.7943 72.3951 82.1689L72.0859 81.9957C71.5976 82.3861 71.1905 82.9118 70.7379 83.4092C70.303 83.9226 69.8176 84.4097 69.3905 84.9431C69.371 84.8185 69.4616 84.5764 69.1684 84.7418C68.6386 85.4415 67.9699 86.0801 67.3387 86.7559C66.7213 87.4378 66.0546 88.0814 65.466 88.689L65.3273 89.3865C65.2411 89.5061 65.0642 89.5402 65.1159 89.3765C64.6555 89.8538 65.2411 89.5061 65.1526 89.8278C64.9584 90.1445 64.739 90.1433 64.8056 89.8991C64.6912 90.1389 64.734 90.1453 64.7129 90.2397C64.7 90.3251 64.6728 90.4334 64.6325 90.5525C64.5546 90.5597 64.4509 90.5597 64.3463 90.5427C64.2846 90.5322 64.2557 90.5319 64.1592 90.506C64.0281 90.4649 63.8988 90.4288 63.7695 90.3927C63.2537 90.2364 62.7913 90.0248 62.4284 89.8321C62.5113 89.8229 62.5992 89.8118 62.6791 89.8096C61.7853 89.4664 61.4995 90.1117 60.7159 89.6511L60.8905 89.6409C59.9208 89.3098 58.847 89.1859 57.8475 89.0158C56.8533 88.815 55.9057 88.7341 55.1451 88.4369C54.9823 88.6265 54.4796 88.534 53.9986 88.4676C53.5122 88.432 53.0475 88.4224 52.9725 88.7045C52.3957 88.5545 52.1853 88.4578 51.919 88.3656C51.6536 88.2904 51.3179 88.1676 50.4883 88.1386C50.0444 88.1383 49.8454 88.5316 49.3087 88.6189L49.2762 88.3269L48.5599 88.6793C48.4205 88.5724 48.2772 88.4556 48.1347 88.3556L47.6314 88.499C47.835 88.4891 48.0754 88.574 48.0524 88.6634C47.2796 88.8998 46.1027 88.7181 46.0565 88.5693C45.4394 88.7166 44.8324 88.9347 44.2323 89.1558C44.2468 89.0295 44.5512 88.923 44.7851 88.7978C43.8516 89.3034 44.5428 88.5296 43.6875 88.9992C43.8237 89.0383 43.6624 89.1871 43.6517 89.2487C43.4068 89.2115 43.0224 89.2455 42.6126 89.3182C42.2016 89.4028 41.7708 89.5698 41.4051 89.7116L41.4906 89.4715C40.8091 89.661 40.0876 89.866 39.372 90.1607C38.6622 90.4703 37.9412 90.7958 37.1998 91.0833C37.7688 90.9604 37.7814 91.3349 37.3691 91.5349L37.0714 91.317C36.8725 91.6067 37.566 91.2402 37.0979 91.6975C36.5577 91.9242 36.5909 91.5492 36.8601 91.307L36.2607 91.7232C36.1827 91.6558 36.3148 91.5356 36.3003 91.409C36.1192 91.7149 35.0363 91.6864 34.8062 92.1779L34.7231 92.1124C34.3621 92.2811 34.0666 92.4704 33.8063 92.6461C33.5459 92.8217 33.3136 92.9807 33.0844 93.1328C32.6419 93.4481 32.2109 93.7186 31.6848 94.1008C31.8167 94.337 31.3798 94.5926 31.2035 95C30.7987 95.249 30.3579 95.4946 29.898 95.7648C29.445 96.0382 29.0268 96.4015 28.6083 96.7936C28.1101 97.4408 28.5915 97.122 28.4368 97.4809C28.2229 97.3454 27.3998 98.1358 27.7081 97.6082C27.6446 97.6673 27.5861 97.7244 27.5326 97.7797C27.471 97.8438 27.3879 97.9565 27.3221 98.0395C27.1824 98.2143 27.0559 98.3783 26.9374 98.5335C26.7054 98.8418 26.4887 99.1155 26.2679 99.408C25.8463 99.9853 25.3695 100.584 24.7781 101.526C25.1027 101.233 25.3448 100.996 25.3839 101.067C25.2148 101.374 24.6519 101.914 24.4658 101.969L24.4926 101.89C24.2709 102.343 23.924 102.846 23.4642 103.444C23.2334 103.74 22.9763 104.058 22.7 104.401L22.4896 104.661C22.4238 104.744 22.3268 104.85 22.3033 104.894L22.0537 105.261C22.7209 105.094 23.4873 104.9 24.3556 104.598C25.2119 104.295 26.1896 103.933 27.0299 103.469L26.8623 103.557L29.5341 102.303C29.8023 102.222 29.9091 102.215 29.9219 102.233C29.9296 102.253 29.8303 102.309 29.7347 102.375C29.5417 102.501 29.2594 102.68 29.7332 102.594C30.1713 102.401 30.2657 102.347 30.4522 102.263C30.6237 102.185 30.7909 102.126 30.9482 102.071C31.2696 101.964 31.5807 101.889 31.8767 101.82C32.4727 101.693 33.048 101.631 33.6757 101.347C34.8245 101.798 37.3098 100.628 38.7654 100.949L38.6676 100.785C39.0131 100.577 39.11 100.827 39.3799 100.854C39.3296 100.724 38.9744 100.73 39.1902 100.617C42.2501 100.126 45.556 100.627 48.6239 101.167C49.7477 101.375 49.3942 100.374 50.7705 100.996C50.616 101.073 50.4653 101.16 50.3128 101.242C52.6737 101.253 54.953 102.197 57.2077 102.587C57.0528 102.618 57.0228 102.705 56.8091 102.644C57.2042 102.979 58.483 103.231 58.5579 103.052C58.8825 103.191 58.5787 103.24 58.7514 103.403C58.9522 103.549 59.263 103.578 59.5419 103.613C59.8197 103.661 60.0635 103.71 60.1405 103.864C60.1668 103.917 59.9867 103.883 59.8991 103.866C59.9808 103.868 60.1051 103.907 60.2452 103.956L60.3405 103.993L60.3594 103.998L60.3972 104.006C60.44 104.012 60.5129 104.007 60.591 103.896C60.6204 103.942 60.659 103.968 60.7057 103.984C60.7465 103.985 60.7292 104.015 60.727 104.039L60.7232 104.104C60.7187 104.151 60.7142 104.199 60.6946 104.253C60.6873 104.279 60.6731 104.301 60.6588 104.324C60.6477 104.34 60.6458 104.335 60.6265 104.36L60.5573 104.478C60.6878 105.008 59.9161 105.842 60.266 106.12C59.8754 105.915 59.4207 107.448 59.4249 108.038C59.3636 107.821 59.1349 108.45 59.0372 108.183C58.8308 108.78 58.7134 109.355 58.9602 109.322C58.59 109.586 58.241 110.871 58.0646 111.635C57.8625 112.466 57.7324 113.023 57.0503 113.954C56.9346 114.384 56.822 114.807 56.7251 115.166C58.0869 114.621 59.3937 114.097 60.6654 113.587C60.951 113.476 61.2365 113.365 61.5151 113.252L61.9259 113.092L62.2076 112.972C62.5444 112.83 62.8832 112.693 63.2149 112.552C63.2574 112.766 62.8176 112.925 62.3949 113.083C62.2897 113.124 62.1845 113.165 62.0893 113.202C61.964 113.25 61.7887 113.318 61.6692 113.382C61.4165 113.503 61.2505 113.624 61.2862 113.731C61.4615 113.663 61.6229 113.589 61.7883 113.525C61.9366 113.462 62.1401 113.377 62.1913 113.346C62.3539 113.26 62.5115 113.176 62.659 113.096C62.9592 112.933 63.2393 112.779 63.5243 112.622C64.0884 112.323 64.666 112.059 65.4334 111.853C65.8413 111.776 65.2719 112.106 65.1618 112.223C66.626 111.54 68.1114 111.269 69.3851 110.586C69.3937 110.623 69.262 110.714 69.1364 110.791C69.3969 110.69 69.7755 110.641 69.6838 110.464L69.4438 110.603C68.9276 110.476 70.3133 109.68 70.3091 109.52C70.0389 110.206 71.6903 109.203 71.1999 110.124C71.3656 110.031 71.555 109.865 71.4715 109.754C71.7444 109.7 71.8486 109.746 71.6335 109.978C72.5521 109.553 72.1451 109.47 73.0123 109.18C73.0421 109.271 72.8765 109.364 72.825 109.499C73.2008 109.175 73.5816 108.85 74.3407 108.682C74.315 108.749 74.4242 108.793 74.2049 108.867C75.452 108.412 76.1857 107.673 77.6205 107.376C77.348 107.907 78.1326 107.344 78.3194 107.662L79.0237 107.309L78.6704 107.245C79.3302 107.029 79.791 106.597 80.4245 106.507C80.2446 106.623 80.1248 106.715 79.9731 106.814L81.5061 106.22L80.4702 106.432C80.874 106.195 80.7682 106.115 80.7341 106.042C80.705 105.967 80.7065 105.926 81.2227 105.801C81.067 105.89 81.9176 105.572 82.656 105.544C82.8817 105.353 83.0002 105.198 83.6223 105.049C83.6045 105.033 83.5868 105.017 83.5671 104.996C83.6745 104.931 84.5334 105.184 84.6047 105.145C84.0772 104.959 83.6 104.649 83.1089 104.334C82.6178 104.019 82.1128 103.697 81.7266 103.623C81.9473 103.687 82.1875 103.622 82.1712 103.565C81.9702 103.523 81.78 103.493 81.6037 103.469C81.3545 103.198 81.3224 103.13 81.5035 103.077C80.9606 102.672 80.9848 102.824 80.9765 102.936C80.9758 102.994 80.9643 103.039 80.8968 103.013C80.864 103.003 80.8096 102.967 80.7443 102.917C80.686 102.871 80.606 102.798 80.5044 102.7C80.5878 102.736 80.5715 102.68 80.7452 102.756C79.8719 102.02 78.8601 101.625 78.0721 100.93C78.0277 100.459 78.8689 101.38 78.7574 100.929C78.1227 100.525 77.4237 100.164 76.7396 99.7969C76.4482 99.6397 76.1618 99.4806 75.8773 99.3265C75.7653 99.2607 75.6514 99.1899 75.5426 99.1172L75.3893 99.0042C75.3495 98.9909 75.3718 98.9592 75.3911 98.9345L75.4468 98.8554L75.376 98.9403C75.3468 98.9689 75.3175 98.9975 75.3542 99.0178C75.1175 99.0463 75.1382 98.9808 75.175 98.8976C75.2219 98.8104 75.3339 98.698 75.4529 98.5887C75.5719 98.4793 75.6997 98.378 75.7886 98.2803C75.8371 98.227 75.8645 98.1935 75.9133 98.1113C75.9571 98.0311 75.992 97.9428 76.0131 97.8484C75.9532 98.0211 76.1367 98.1971 76.1146 98.1252C76.3946 97.7178 76.6322 97.2751 76.8974 96.7699C77.1645 96.2698 77.4118 95.6739 77.7874 95.0224L77.7878 95.2464C78.2244 94.8415 78.7393 94.0441 79.1577 93.5773C79.1692 93.3544 79.4097 93.083 79.1268 93.141C80.0356 92.6162 80.4996 91.8213 81.0208 91.0847C81.2735 90.7108 81.5212 90.3389 81.8064 90.0042C82.0935 89.6745 82.4378 89.4031 82.8481 89.198C82.7038 89.3459 82.5878 89.6266 82.7048 89.5122L83.6376 88.3804C83.4011 88.3054 83.4117 88.422 83.0694 88.5202C83.1079 88.2926 83.3198 87.9173 83.5939 87.6731C83.2104 88.2299 83.8473 87.9255 84.1418 87.8228C84.0612 87.8081 84.0775 87.6868 84.0131 87.6543C84.8437 87.4185 83.8014 87.2421 84.756 86.7168L84.7925 86.8406C85.0326 86.5233 85.2132 86.1717 85.5622 85.9272C85.8654 86.0108 85.3206 86.2852 85.4363 86.4646C85.8787 86.0746 86.0189 85.3363 86.6001 85.1857C86.454 85.4033 86.176 85.6375 86.0248 85.857C86.6659 85.712 86.6661 85.6084 87.0289 85.3701L86.9888 85.3856C87.2731 85.2122 87.5771 85.0598 87.8684 84.8894L87.614 84.9765C87.8047 84.0117 88.7232 83.943 89.3112 83.0368C88.7393 83.9253 89.3179 83.3216 89.4213 83.6034C89.6796 83.5263 90.0453 83.3845 90.0039 83.5155C90.2645 83.0581 90.7453 83.228 91.1159 82.5786C91.192 82.641 91.5478 82.3249 91.5837 82.5811C92.0659 82.2045 91.375 82.5184 91.3555 82.3937C91.6741 82.0116 92.2001 81.8076 92.7585 81.5682C93.3238 81.3318 93.937 81.0998 94.4277 80.5819C94.8968 80.2161 95.162 79.9639 95.4153 79.7105C95.6686 79.4571 95.9188 79.2106 96.3822 78.9046C96.7775 78.8835 96.2465 79.3423 96.2465 79.3423C96.5445 79.2785 96.7938 79.1933 97.0215 79.082C97.2581 78.9788 97.477 78.8595 97.7162 78.7035C97.642 78.8243 97.7754 78.8415 97.9776 78.8723C98.3818 78.6811 98.1291 78.4457 98.7267 78.352C98.6703 78.4888 98.6101 78.6903 98.4504 78.873C98.9034 78.5996 99.3227 78.2244 99.8143 77.9763C100.005 78.0807 99.5889 78.3166 99.4434 78.4765C99.9971 78.2101 100.888 77.8186 100.99 77.5149L100.585 77.5568C100.796 77.4752 100.767 77.7278 100.627 77.828C100.197 78.1901 99.878 77.9919 99.818 77.9117L100.168 77.7299C99.8872 77.54 99.5165 77.6837 99.1328 77.9129C98.7499 78.1591 98.3571 78.4838 97.9825 78.6175L98.1378 78.1262L97.5103 78.7374C97.3132 78.7046 97.1135 78.5463 97.456 78.3446C96.8541 78.3825 97.0405 78.6551 96.5137 78.6639C96.452 78.6534 96.4643 78.6256 96.5035 78.5931L96.0487 78.9361C96.111 78.8143 95.8497 78.7202 96.182 78.6258C95.1739 78.85 94.8443 79.5755 94.3756 79.4813L94.4391 79.4222C93.2751 80.1953 94.4513 79.7509 93.698 80.5429L92.733 80.2388L92.7532 80.5586C92.618 80.6111 92.3602 80.734 92.3526 80.6105C91.9963 81.059 92.4935 80.6765 92.3252 81.0004C91.6016 81.1258 90.7695 82.0864 90.3891 81.774C90.2987 82.0907 91.0428 81.5723 90.5011 82.0927C90.0548 81.7887 89.8434 82.6408 89.1962 82.7998C89.2099 82.4783 89.7861 82.255 89.1288 82.4178C89.0604 82.9846 88.0525 83.0305 87.6787 83.4341C87.8767 83.7367 86.8236 84.2311 86.2124 84.8992C86.1899 84.7815 84.7795 85.811 84.0935 86.3011L84.0703 86.2412C84.1917 86.6137 83.5162 87.1457 83.1137 87.6236C82.985 87.4551 83.0075 87.32 83.1905 87.0191L82.7589 87.4221C82.7419 87.6011 82.6551 87.7785 82.4142 88.0788L82.3308 87.7892C81.7973 88.3754 81.4276 89.1165 80.644 89.7709C80.7913 89.9724 81.68 89.6336 81.107 90.534C80.98 90.474 80.7839 90.3546 80.9254 90.1101C80.8766 90.1923 80.7941 90.4254 80.6303 90.5234L80.7444 90.0596C80.3682 90.3376 80.723 90.361 80.4666 90.6213C80.3295 90.4906 80.1811 90.732 80.1068 90.5999C80.1556 90.5177 80.3783 90.4084 80.412 90.2574C80.1144 90.5452 79.695 90.8458 79.4771 90.8785C79.5844 90.9174 79.6737 91.0437 79.5003 91.2949C79.0213 91.9174 79.1564 91.3592 78.7929 91.6553C78.7782 91.8851 78.3557 92.1926 78.572 92.3789C78.4274 92.5557 78.2942 92.5096 78.1813 92.5304C78.0212 92.9201 77.09 94.0858 77.596 93.8896L77.6726 93.8197C77.6726 93.8197 77.6542 93.8613 77.6449 93.8821C77.3715 94.4997 76.9305 95.027 76.5142 95.5735C76.096 96.115 75.6291 96.6351 75.3498 97.2377L75.2726 97.1871C75.1916 97.3795 75.119 97.5341 74.9956 97.7658C74.8722 97.9976 74.7508 98.2344 74.6305 98.4592C74.5152 98.6821 74.4111 98.8891 74.3331 99.0745L74.2797 99.2044C74.2555 99.2311 74.3033 99.2355 74.3261 99.2497L74.4045 99.2883C74.5087 99.3341 74.6079 99.3818 74.7012 99.4146C74.907 99.559 75.058 99.8741 74.8555 99.8721C75.2122 100.079 75.4187 100.165 75.6326 100.301C75.804 100.401 75.9859 100.543 76.2965 100.854C75.7084 100.645 76.3825 101.091 75.7269 100.603C76.3105 101.113 76.3687 101.337 77.1975 101.602C76.8251 101.638 77.499 102.187 77.8394 102.336L77.4965 101.883C77.8532 102.09 78.1379 102.318 78.4275 102.545L78.0807 102.691C78.6182 103.305 79.2943 103.577 79.9196 103.852C80.111 103.944 80.1391 103.928 80.2344 103.966C80.3159 103.997 80.3992 104.034 80.4626 104.078C80.5962 104.17 80.6735 104.295 80.5248 104.387C80.7609 104.417 80.7585 104.366 80.7225 104.288C80.6954 104.218 80.6396 104.119 80.8919 104.13C81.0637 104.276 81.066 104.431 80.9693 104.508C80.8746 104.591 80.6968 104.608 80.7265 104.625C80.7215 104.627 80.7185 104.634 80.7154 104.641C80.4817 104.663 80.6635 104.73 80.7612 104.819C80.8709 104.909 80.8865 105.023 80.5507 105.079C80.7186 105.14 81.2426 105.288 80.6704 105.596C79.982 105.782 79.8552 105.366 80.0365 105.209C80.1147 105.173 80.1784 105.189 80.202 105.22C80.3087 105.138 80.3934 105.059 80.1696 105.002C80.1831 105.037 80.1967 105.072 80.2103 105.107C80.1485 105.097 80.0757 105.102 80.0078 105.105C79.9249 105.114 79.9141 105.101 79.7441 105.138C79.4812 105.189 79.2834 105.214 79.3657 105.084C78.8807 105.364 79.2042 105.336 79.607 105.261C78.6667 105.407 78.2192 105.724 77.2732 105.93C77.4386 105.94 77.6142 106.022 77.472 106.071C76.0908 106.388 76.9537 106.473 76.0608 106.831C75.4881 106.84 76.114 106.373 75.2459 106.825C74.6525 106.9 75.0303 106.581 75.2247 106.414C74.464 106.904 73.6243 106.804 73.1351 106.925L73.5458 106.691C73.3008 106.832 73.0865 106.903 72.8672 106.977L73.1898 107.11C72.9199 107.158 72.7006 107.231 72.6777 107.142C72.4626 107.375 73.0026 107.43 72.5424 107.804C72.1633 107.807 71.5375 108.274 71.3219 108.03C72.4332 107.76 71.1043 107.781 72.0041 107.426C71.8385 107.519 71.6242 107.591 71.3543 107.638C71.3057 107.617 71.3731 107.568 71.4374 107.525C70.3212 107.619 71.0727 108.012 69.9993 108.365C70.0796 108.155 69.6488 108.144 69.4831 108.237C69.9167 108.092 69.78 108.438 69.4249 108.697C68.6986 108.8 68.7117 109.042 68.3494 109.148L68.7793 109.068C68.694 109.279 68.3429 109.369 67.8836 109.581C67.8001 109.47 68.2892 109.349 68.0987 109.349C67.6615 109.811 66.7997 109.461 66.1233 109.902C65.7442 109.905 65.9871 109.61 65.6636 109.637C64.9028 110.128 64.693 109.721 63.8767 110.186C64.1993 110.32 64.2301 110.251 63.6836 110.669L65.0665 110.03L64.2543 110.655C64.6879 110.51 65.1193 110.211 65.3922 110.156C65.0114 110.482 65.0421 110.413 65.3092 110.522C64.6094 110.397 64.1992 111.108 63.443 111.119L63.2827 110.572C62.7275 110.626 62.296 110.851 61.8283 111.101C61.7139 111.163 61.5944 111.226 61.47 111.292C61.3918 111.328 61.3906 111.34 61.3575 111.359L61.2751 111.414C61.1576 111.482 61.0073 111.54 60.8765 111.545C60.9232 111.561 60.9769 111.581 61.0405 111.596C60.9741 111.737 60.8438 111.788 60.7147 111.826C60.5786 111.862 60.4618 111.873 60.29 111.979C60.4966 111.71 60.4414 111.656 60.5359 111.499C60.4459 111.609 60.3569 111.632 60.1893 111.72C60.1718 111.675 60.1162 111.65 59.8667 111.839C60.0298 111.62 60.1895 111.438 60.3319 111.285C60.5995 110.831 59.8563 111.009 60.2891 109.985C60.3338 110.175 60.4267 110.162 60.4981 110.197C60.5329 110.213 60.5615 110.242 60.5766 110.311C60.5949 110.372 60.5751 110.53 60.5945 110.58C60.6017 110.554 60.6931 110.329 60.7253 110.218C60.7637 110.094 60.7647 110.008 60.7041 109.985C60.8885 109.822 60.8029 108.947 61.0851 108.694C61.0582 108.52 60.8879 108.408 61.0399 108.027C61.0912 107.996 61.1283 108.062 61.1283 108.062C61.0399 108.027 61.2236 107.416 60.9063 107.683C61.3741 107.254 61.6261 106.507 61.8619 105.777C61.9229 105.593 61.9808 105.415 62.0388 105.238C62.1048 105.051 62.1531 104.923 62.2456 104.686C62.4211 104.262 62.6171 103.875 62.8848 103.496C62.9243 103.36 62.9638 103.224 63.0032 103.088L63.0324 102.984C63.0324 102.984 63.0427 102.952 63.0469 102.933L62.9933 102.913L62.7668 102.834C62.4727 102.73 62.1768 102.621 61.8808 102.511C61.3891 102.328 60.9095 102.146 60.4943 101.997C60.5605 101.96 60.5292 101.909 60.65 101.982C59.7806 101.434 59.8746 102.272 58.8729 101.694C58.4246 101.207 59.5027 101.743 59.1992 101.51C59.2543 100.88 57.8703 101.1 57.2392 100.557L57.4305 100.575C56.92 100.21 55.9797 100.356 55.0522 100.089C55.0522 100.089 55.1115 100.049 55.0801 99.9977C54.3562 100.152 53.1298 99.9319 52.1999 99.8671C52.5313 99.6812 52.6364 99.8186 52.5179 99.5427C52.1025 99.4968 52.558 99.9582 51.7341 99.8695C51.4958 99.686 50.9289 99.4575 50.8922 99.1843L51.6656 99.3213C51.3294 98.8999 50.6623 99.1413 50.2575 99.0338L50.3359 98.8942C49.7312 98.8355 49.4143 98.8951 49.0885 98.9467C48.7608 98.9933 48.4261 99.0368 47.7855 98.9748L47.9087 99.0995C47.175 99.4069 47.3402 98.8371 46.6175 99.054L46.4336 98.654C45.9613 98.6992 44.7794 98.9505 43.953 98.9892C44.4269 98.725 45.4116 98.6191 46.0338 98.4699C45.5702 98.4485 44.4541 98.4386 44.2076 98.6203C44.3915 98.5893 44.6359 98.506 44.8157 98.5685C44.5248 98.71 44.1945 98.8094 43.8248 98.8665C43.4539 98.9355 43.0394 98.9813 42.5805 98.9868C42.6566 98.6181 42.0545 98.5814 41.3515 98.5666C40.645 98.5876 39.8395 98.6355 39.4785 98.3731C37.8699 98.7725 36.221 98.6071 34.3313 98.9949C35.1041 99.4425 33.7835 99.0981 34.0163 99.6688C33.5958 99.8031 33.4269 99.8283 33.3814 99.8L31.9914 99.7526C31.6384 99.6595 32.374 99.5353 32.3036 99.4131C31.3409 99.5909 31.8417 99.2474 31.1761 99.2697C31.3557 99.4358 30.9223 99.6555 30.3609 99.7237L31.1882 99.7766C30.5698 100.114 30.2582 100.068 29.9384 100.031C29.781 100.012 29.6186 99.9942 29.4208 100.019C29.3391 100.016 29.3611 100.014 29.278 100.126C29.3168 100.048 29.3355 99.9775 29.3443 99.9109C29.3186 99.9784 29.2515 99.9986 29.1348 100.084C29.0081 100.173 28.7947 100.337 28.226 100.787C28.3049 100.693 28.5982 100.424 28.738 100.324C28.6921 100.325 28.5546 100.401 28.3296 100.534L28.2071 100.605C28.169 100.625 28.1047 100.667 28.1058 100.655C28.0769 100.655 28.053 100.653 28.0341 100.649C27.9893 100.637 27.9638 100.601 27.9695 100.542C27.9828 100.427 28.1081 100.201 28.4193 100.022L28.6453 99.9808C28.6167 99.9516 28.3266 99.9319 28.6414 99.7926C28.7213 99.7904 28.8239 99.8023 28.8581 99.7718C28.8354 99.7576 28.7909 99.7174 28.7927 99.6477C28.7895 99.58 28.8376 99.4809 28.9277 99.4459C28.949 99.5009 28.9754 99.5539 29.0128 99.5911C29.0741 99.5559 29.1153 99.5284 29.1476 99.4929C29.1638 99.4751 29.175 99.4593 29.1911 99.4415C29.2446 99.3863 29.2931 99.333 29.3466 99.2778C29.5568 99.0469 29.7291 98.8076 29.8895 98.5673C30.2141 98.0965 30.4824 97.5845 30.9536 97.1201C31.2241 97.4463 32.2797 96.8245 32.7989 96.5139L32.8222 96.5739C32.9982 96.4482 33.1723 96.3175 33.3344 96.1856C33.5054 96.0619 33.6683 95.947 33.8312 95.8321C34.1501 95.5993 34.4432 95.3592 34.7323 95.1091C35.0254 94.8691 35.2968 94.6029 35.6107 94.372C35.9265 94.1461 36.2543 93.9214 36.611 93.6969C37.1828 93.6706 37.9781 93.299 38.8923 92.9963C39.3421 92.8335 39.8099 92.6578 40.2647 92.493C40.7233 92.3382 41.189 92.2611 41.6058 92.1915C41.3405 92.1909 41.5477 91.8634 41.8225 91.7397C42.2208 91.7117 42.7959 91.1438 42.8313 91.5325L42.6953 91.568C43.0713 91.8245 43.836 91.597 44.452 91.4617L44.448 90.9459C44.8967 91.0479 45.3721 90.9958 45.8645 90.9428C46.3588 90.8949 46.8727 90.7934 47.3557 90.6866C48.324 90.4491 49.227 90.3405 49.6953 90.6417C50.086 90.4902 50.5831 90.4642 50.9739 90.3127L50.9597 90.5883C52.0631 90.6548 52.6132 90.706 53.9771 90.6715C53.8827 90.7254 53.7872 90.7911 53.6897 90.8519C54.4461 90.915 54.7093 90.152 55.434 90.1929L55.6086 90.6138C55.9434 90.6449 56.279 90.693 56.6135 90.753L57.6012 90.9966C58.2566 91.1563 58.922 91.2375 59.6107 91.2004C59.5792 91.2528 59.5161 91.3577 59.3001 91.3208C59.9147 91.4791 61.5985 92.1655 61.5245 91.5735C61.4805 91.7572 61.8239 91.8253 62.2528 91.9061C62.6818 91.987 63.2199 92.037 63.5905 92.0715L63.3985 92.2896C63.4864 92.2785 63.5226 92.253 63.6333 92.2561C63.7301 92.253 63.8168 92.2539 63.9017 92.2497C64.0613 92.2453 64.1851 92.2376 64.3127 92.2398C64.5611 92.2412 64.8091 92.2715 65.237 92.3643C65.2646 92.3019 65.3277 92.1969 65.3938 92.0851C65.5766 91.8878 65.6541 92.0876 65.3827 92.3538C65.7099 92.0085 65.7955 91.7684 65.8749 91.5422C65.9462 91.3249 66.0783 91.0265 66.3478 90.7554L66.3118 91.1084C66.7273 90.545 66.6197 90.535 66.6806 90.0976C66.8263 89.656 67.5503 89.0707 67.8019 89.1398C67.7449 88.978 67.8336 88.5528 68.1501 88.2691C68.2546 88.2861 68.204 88.4379 68.1752 88.5123C69.0314 87.7033 69.0768 86.973 69.8257 86.5562C69.9029 86.6067 69.9689 86.5984 70.0371 86.5662C69.3958 87.2459 68.863 87.7743 68.9046 87.718C69.0834 87.8671 69.6309 87.3617 69.4816 88.0173C69.7464 87.4663 70.1602 86.438 70.744 85.9817C70.7861 85.9712 70.8231 85.9626 70.8728 85.9721L70.839 86.0484C70.9719 85.9451 71.0542 85.8155 71.1334 85.6929C71.3314 85.5644 71.462 85.485 71.6302 85.3393C71.8317 85.4279 72.3362 84.8414 72.6154 84.5953C72.413 84.4151 72.8035 84.1143 72.3171 84.2569C72.3772 84.2335 72.2863 84.3262 72.1077 84.5047C72.0723 84.5472 72.0219 84.5955 72.0085 84.6351C72.0046 84.6252 72.0107 84.6113 72.0119 84.5993C71.8363 84.7709 71.5984 84.9895 71.3351 85.2468C71.4602 84.9454 71.6113 84.6512 72.0182 84.4819C72.0451 84.2243 72.0813 83.9459 72.1169 83.7999C72.7334 83.7104 73.6562 83.2664 73.9074 83.3644C74.3081 82.9562 74.814 82.5071 75.2718 82.0825C75.7443 81.6809 76.15 81.2707 76.3104 80.8522C76.5456 80.6116 76.7025 80.7634 76.8452 80.7598C76.7178 80.9069 76.5279 81.0265 76.4826 81.1475C76.7197 80.9119 77.1091 80.623 77.4422 80.3674C77.7861 80.1249 78.0622 79.8857 78.0445 79.6913C78.8427 79.4164 77.8052 80.2037 78.7609 79.5918L78.6821 79.7603C79.2364 79.6144 79.6663 79.3557 80.0781 79.1099C80.4899 78.864 80.8554 78.5729 81.2359 78.2759C81.6221 77.994 81.9991 77.6582 82.48 77.4717C82.9532 77.2653 83.4917 77.1082 84.1306 77.0617C83.9529 77.0789 83.865 77.09 83.8136 77.0467C84.1617 76.9635 84.4981 76.8503 84.8404 76.752C85.1885 76.6688 85.5327 76.5756 85.878 76.4705C86.2234 76.3653 86.5668 76.2552 86.9121 76.15C87.0863 76.094 87.2586 76.033 87.4298 75.9839L87.9579 75.8596C88.661 75.6962 89.371 75.5359 90.0766 75.4233C90.7934 75.3696 91.5018 75.3536 92.2033 75.4092C92.9912 75.4199 93.0642 75.2364 93.5451 75.0499L93.7203 75.3384L94.5442 74.996C94.8372 74.9341 95.1133 74.9478 95.3841 74.9922C95.6519 75.0436 95.9058 75.1636 96.174 75.2608C96.7073 75.4621 97.2599 75.6387 98.0259 75.474L97.8627 75.2613C98.1277 75.2908 98.5451 75.3416 98.8865 75.4047C99.2279 75.4678 99.4845 75.535 99.4195 75.6349C99.4796 75.6116 99.6309 75.4667 99.8128 75.6089L99.7961 75.759C100.237 75.7663 100.69 75.7459 101.137 75.7681C102.077 76.1735 100.832 76.3058 102.219 76.7623C102.748 76.862 103.84 76.795 103.683 76.6432C103.47 76.5704 103.169 76.3883 103.203 76.2373L103.717 76.314C103.95 75.919 104.512 75.6149 103.366 74.9327L102.418 74.9264L102.2 74.6316L102.933 74.8419C102.577 74.5198 102.26 74.6083 101.934 74.643C101.893 74.5092 101.791 74.3937 101.633 74.2996C101.314 74.3373 100.985 74.4416 100.662 74.5151C100.594 74.3233 101.131 74.2528 100.565 74.0412C100.113 74.1533 100.871 74.5032 100.17 74.4933C99.789 74.2099 99.9423 74.07 99.4118 74.1435C99.3633 74.0186 99.4816 73.967 99.6902 73.955C99.2168 74.0122 98.4975 73.7622 98.2295 73.9926C97.811 73.7008 96.7073 73.916 96.7879 73.4996C96.6322 73.5887 95.965 73.7554 95.5543 73.7365C96.337 73.2434 94.0035 73.7054 94.2043 73.1678C93.9193 73.399 93.41 73.4527 92.8501 73.4801C92.2879 73.5314 91.6745 73.614 91.1928 73.7835C91.2451 73.7402 91.3468 73.6606 91.4374 73.6714C90.8737 73.6888 90.6945 73.5686 90.325 73.5222C90.3118 73.7112 90.0938 73.8475 89.8229 73.9812C89.5579 74.13 89.245 74.2743 89.0347 74.4305C88.3012 74.2033 89.3658 73.917 89.098 73.6128C89.1834 73.9073 87.9768 74.1394 88.2517 74.3432C87.6915 74.2213 87.7881 74.3218 87.4549 74.0716C87.4692 74.5546 86.9862 74.2303 86.6383 74.6411C85.8535 74.6235 86.3384 74.2688 85.5701 74.6356C85.1435 74.6056 85.8201 74.2399 85.8201 74.2399L85.8611 74.3159ZM69.4516 85.0114C69.5608 84.8771 69.6578 84.7705 69.7175 84.7014C69.6628 84.7686 69.587 84.8554 69.4566 85.0095L69.4516 85.0114ZM68.3265 86.212C68.4697 86.076 68.6414 85.8945 68.8242 85.6972C68.9307 85.7191 68.9563 85.8299 68.8462 85.9473C68.8615 85.8379 68.5584 86.0819 68.3315 86.2101L68.3265 86.212ZM72.0467 85.1204C71.8909 85.313 71.7949 85.3329 71.7312 85.3174C71.814 85.2336 71.9079 85.1339 72.0292 85.0007C72.0253 84.9907 72.0295 84.9718 72.0287 84.9549C72.05 85.0099 72.0594 85.0637 72.0467 85.1204Z" fill="white"/>
<path d="M72.1438 84.5534C72.168 84.5268 72.1752 84.5011 72.2093 84.4707C72.1594 84.4901 72.1095 84.5094 72.0597 84.5288C72.0582 84.5694 72.0517 84.612 72.0503 84.6526C72.0844 84.6222 72.1166 84.5868 72.1457 84.5583L72.1438 84.5534Z" fill="white"/>
<path d="M77.6383 93.8961L77.6142 93.9226C77.6422 93.9061 77.6652 93.8914 77.6871 93.8887C77.6621 93.8983 77.6552 93.8953 77.6403 93.9011L77.6383 93.8961Z" fill="white"/>
<path d="M49.2669 88.2613L49.2751 88.3268L49.4159 88.2608L49.2669 88.2613Z" fill="white"/>
<path d="M84.1699 87.8347C84.1699 87.8347 84.2394 87.8364 84.3024 87.8063C84.2866 87.7952 84.2348 87.8096 84.1699 87.8347Z" fill="white"/>
<path d="M87.0565 85.3816C87.2102 85.2875 87.3766 85.2115 87.5412 85.1305C87.3246 85.2259 87.1701 85.3031 87.0565 85.3816Z" fill="white"/>
<path d="M89.4653 83.747C89.4709 83.6876 89.4574 83.6528 89.4458 83.6229L89.4409 83.6248L89.4653 83.747Z" fill="white"/>
<path d="M69.1617 110.798C69.1266 110.812 69.0866 110.827 69.0584 110.844C68.8235 110.981 68.988 110.9 69.1617 110.798Z" fill="white"/>
<path d="M82.6795 105.558C82.5747 105.645 82.46 105.735 82.3024 105.819C82.6466 105.726 82.9079 105.642 82.6795 105.558Z" fill="white"/>
<path d="M59.0592 108.18C59.0695 108.147 59.0818 108.12 59.0921 108.087L59.0573 108.175L59.0592 108.18Z" fill="white"/>
<path d="M81.4699 106.096C81.8308 106.031 82.1013 105.926 82.302 105.819C82.0149 105.896 81.6938 105.975 81.4699 106.096Z" fill="white"/>
<path d="M100.692 78.176L100.828 78.1406C100.828 78.1406 100.821 78.1089 100.827 78.095L100.692 78.176Z" fill="white"/>
<path d="M100.828 78.0949L100.963 78.014C100.898 78.0391 100.838 78.0623 100.828 78.0949Z" fill="white"/>
<path d="M101.255 77.8432L100.969 78.0116C101.074 77.9708 101.21 77.9353 101.255 77.8432Z" fill="white"/>
<path d="M97.0662 79.4498L97.0679 79.5579C97.0679 79.5579 97.0835 79.4946 97.0662 79.4498Z" fill="white"/>
<path d="M96.0242 79.9743C96.2848 79.8733 96.7437 79.8679 97.0684 79.65L97.0694 79.5634C96.9652 79.7705 96.1938 79.7132 96.0242 79.9743Z" fill="white"/>
<path d="M91.1006 81.2622L92.0025 80.8091C91.8001 80.8071 91.5297 80.8085 91.9087 80.5523C90.6603 80.9443 92.2501 80.6154 91.1006 81.2622Z" fill="white"/>
<path d="M88.4098 82.8514C88.8307 82.51 88.3174 82.732 88.3042 82.6682C88.0775 82.9457 88.0299 83.0159 88.4098 82.8514Z" fill="white"/>
<path d="M75.0637 100.113L74.7971 100.228C75.3437 100.567 74.8756 100.163 75.0637 100.113Z" fill="white"/>
<path d="M79.4249 101.612L79.1836 101.257L78.8965 101.334L79.4249 101.612Z" fill="white"/>
<path d="M80.1134 104.231L80.042 104.225C80.1173 104.241 80.2014 104.266 80.2994 104.297L80.1134 104.231Z" fill="white"/>
<path d="M62.7917 104.773C62.6715 104.819 62.5504 104.849 62.4344 104.877C62.3943 105.07 62.4742 105.143 62.5506 105.176C62.6374 105.177 62.7022 105.181 62.7967 104.771L62.7917 104.773Z" fill="white"/>
<path d="M47.9966 98.836C47.8339 98.6691 47.3836 98.5333 47.085 98.6549C47.4514 98.7082 47.8088 98.857 47.9966 98.836Z" fill="white"/>
<path d="M45.3154 91.1906L45.0272 91.3541L45.5922 91.1465L45.3154 91.1906Z" fill="white"/>
</g>
</g>
<defs>
<clipPath id="clip0_1273_43272">
<rect width="220" height="128" fill="white"/>
</clipPath>
<clipPath id="clip1_1273_43272">
<rect width="123.347" height="62.159" fill="white" transform="translate(76.4502 21.3411) rotate(-12.3307)"/>
</clipPath>
<clipPath id="clip2_1273_43272">
<rect width="102.09" height="51.447" fill="white" transform="translate(9.11719 90.0266) rotate(-21.1906)"/>
</clipPath>
</defs>
</svg>
