<svg width="1000" height="506" viewBox="0 0 1000 506" fill="none" xmlns="http://www.w3.org/2000/svg">
<path d="M981 2H19C10.1634 2 3 9.16344 3 18V488C3 496.837 10.1634 504 19 504H981C989.837 504 997 496.837 997 488V18C997 9.16344 989.837 2 981 2Z" fill="#F5F1E9"/>
<path d="M927.559 505.52C912.119 505.71 895.739 505.18 878.299 505.27C860.859 505.36 843.219 505.31 825.669 505.28C816.799 505.27 808.419 505.35 799.879 505.51C791.599 505.66 782.029 505.32 774.139 505.75C773.439 505.79 771.789 505.75 770.579 505.75C749.399 505.75 727.729 505.93 707.159 505.7C683.219 505.44 659.599 505.62 635.909 505.51C597.279 506.01 558.219 505.64 519.389 505.73C507.249 505.76 495.029 505.85 482.589 505.55C471.949 505.29 458.979 505.76 447.879 505.3C446.969 505.26 444.779 505.36 443.139 505.38C439.219 505.43 435.049 505.55 431.359 505.51C409.079 505.25 409.139 505.25 390.539 505.48C388.319 505.51 385.619 505.32 383.089 505.31C372.839 505.31 362.539 505.31 352.329 505.3C343.119 505.34 333.369 505.08 324.609 505.51C322.709 505.6 318.719 505.52 315.699 505.52C306.019 505.52 296.309 505.52 286.659 505.52C275.619 505.56 264.359 505.36 253.529 505.73C248.799 505.89 241.959 505.46 239.159 505.56C233.959 505.73 229.119 505.77 224.009 505.74C218.989 505.71 214.119 505.54 209.149 505.53C204.829 505.53 200.509 505.72 196.129 505.74C185.259 505.77 173.609 505.6 163.659 505.79C152.959 506 142.739 505.95 132.299 505.97C121.419 505.97 110.469 505.98 99.6291 505.99C91.1791 506.03 83.6191 505.85 75.6891 505.75C67.7791 505.65 58.9091 505.95 51.7491 505.52C51.4291 505.5 50.5691 505.52 49.9691 505.52C41.7491 505.48 33.5291 505.43 25.3091 505.39L19.1391 505.36C16.9291 505.35 14.6891 504.93 12.6291 504.09C8.48906 502.43 5.05906 499.12 3.25906 495.05C2.48906 493.29 2.00906 491.41 1.82906 489.5L1.75906 488.06V486.72V484.05V473.38V452.05C1.75906 437.83 1.75906 423.6 1.75906 409.38C1.75906 401.33 1.61906 392.87 1.97906 385.34C2.04906 383.77 1.94906 380.34 1.99906 378.25C2.19906 370.39 1.51906 364.15 1.82906 356.61C2.10906 349.87 1.94906 342.74 1.97906 335.81C1.97906 327.97 1.97906 320.07 1.98906 312.22C1.99906 306.8 1.94906 301.88 1.74906 297.38C2.15906 291.4 1.87906 282.88 2.07906 275.88C2.20906 271.27 2.32906 264.13 2.18906 260.75C1.87906 253.25 2.02906 245.77 1.98906 238.34C1.93906 227.28 2.06906 216.15 1.76906 205.22C1.64906 200.6 1.71906 194.41 1.75906 189.03C1.79906 184.01 1.95906 179.17 1.96906 174.17C1.99906 164.87 1.98906 155.73 1.76906 146.52C1.57906 138.53 1.95906 128.75 1.51906 120.8C1.45906 119.75 1.47906 117.13 1.51906 115.48C1.69906 106.75 1.79906 98.88 1.55906 89.17C1.35906 81.31 1.51906 71.26 1.51906 62.18C1.51906 52.5 1.43906 42.57 1.54906 33.22C1.58906 30.21 1.45906 27.96 1.36906 25.57C1.32906 24.37 1.28906 23.14 1.28906 21.77C1.28906 21.08 1.30906 20.36 1.31906 19.58C1.33906 18.8 1.34906 18.01 1.45906 17C1.66906 14.92 2.28906 11.77 4.11906 8.87999C5.84906 5.94999 8.73906 3.43999 11.6791 2.11999C13.1791 1.42999 14.7991 0.909991 16.4591 0.689991C17.2891 0.529991 18.1291 0.529991 18.9691 0.479991C19.7391 0.479991 20.5091 0.479991 21.2691 0.469991C24.3291 0.469991 27.3391 0.469991 30.1991 0.509991C60.4091 0.969991 91.0291 0.589991 121.329 0.739991C134.149 0.799991 147.599 0.459991 159.779 0.959991C168.819 0.579991 179.949 0.909991 188.619 0.649991C194.119 0.489991 198.939 0.499991 203.979 0.499991C237.269 0.499991 270.559 0.489991 303.839 0.479991C325.749 0.409991 347.619 0.339991 369.519 0.269991C375.669 0.259991 381.689 0.209991 388.369 0.439991C393.279 0.609991 402.219 0.629991 408.759 0.329991C410.029 0.269991 412.649 0.219991 413.609 0.259991C426.059 0.809991 438.399 0.239991 450.619 0.219991C474.579 0.179991 497.969 0.519991 521.759 0.479991C526.829 0.479991 532.769 0.639991 536.689 0.269991C540.589 0.579991 543.539 0.429991 548.349 0.289991C553.309 0.149991 561.489 0.129991 565.849 0.299991C571.789 0.539991 577.249 0.449991 582.929 0.479991C588.949 0.479991 595.039 0.479991 601.079 0.479991C626.609 0.559991 652.139 0.639991 677.639 0.719991C682.639 0.739991 687.509 0.879991 692.489 0.939991C697.499 0.999991 702.919 0.829991 707.699 1.13999C709.479 1.25999 714.609 1.16999 718.219 1.16999C730.929 1.16999 744.679 1.36999 756.059 1.11999C767.329 0.869991 779.409 1.17999 789.859 0.729991C792.779 0.599991 798.169 0.729991 802.359 0.709991C819.379 0.599991 836.929 0.979991 853.519 0.479991C859.639 0.789991 866.869 0.729991 873.799 0.699991C878.879 0.679991 884.719 0.859991 888.899 0.509991C889.389 0.469991 891.179 0.469991 892.259 0.479991C898.399 0.559991 903.899 0.779991 910.769 0.719991C916.479 0.669991 921.129 0.449991 927.399 0.459991C938.689 0.459991 949.889 0.569991 961.099 0.649991C966.709 0.679991 972.319 0.709991 977.939 0.739991H980.049H981.109L982.249 0.799991C983.009 0.799991 983.749 0.999991 984.509 1.08999C985.239 1.29999 985.999 1.41999 986.699 1.70999C988.159 2.16999 989.499 2.92999 990.779 3.74999C992.029 4.62999 993.189 5.62999 994.189 6.79999C995.209 8.12999 996.109 9.61999 996.779 11.25C997.429 12.89 997.859 14.66 998.019 16.47L998.079 17.84C998.089 18.29 998.079 18.71 998.079 19.14C998.079 20.01 998.079 20.88 998.079 21.75C998.079 23.49 998.079 25.25 998.079 27C998.059 39.37 998.409 50.97 998.329 63.65C998.249 75.63 998.159 88.45 998.349 99.8C998.669 119.41 998.469 138.88 998.539 158.36C998.559 163.36 998.679 169 998.339 173.53C998.259 174.61 998.299 180.08 998.399 181.58C998.609 184.78 998.479 188.51 998.559 191.6C998.779 200.42 997.919 209.01 998.559 217.69V246.74C998.559 256.42 998.559 266.11 998.559 275.79C998.559 280.31 998.619 284.7 998.399 289.38C998.249 292.52 998.219 299.95 998.359 303.07C998.689 310.44 998.549 318.02 998.559 325.44C998.559 347.83 998.559 370.23 998.559 392.61C998.549 402.42 998.409 412.19 998.339 421.98C998.259 431.91 998.499 442.21 998.189 451.89C998.169 452.57 998.189 453.6 998.189 454.43C998.239 458.35 998.339 462.32 998.319 466.16C998.299 471.17 998.009 477.79 998.139 480.65C998.259 483.49 998.259 485.83 998.219 488.01C998.169 490.34 997.659 492.46 996.769 494.57C995.439 497.59 993.419 499.91 991.309 501.38C989.209 502.88 987.119 503.62 985.449 503.94C985.029 504.01 984.639 504.09 984.269 504.13C983.899 504.15 983.559 504.16 983.259 504.17C982.649 504.21 982.149 504.12 981.789 504.06C981.069 503.93 980.869 503.76 981.209 503.55C981.359 503.46 981.789 503.35 982.379 503.24C982.679 503.2 982.999 503.07 983.359 502.99C983.719 502.89 984.109 502.82 984.499 502.66C986.999 501.83 988.619 500.7 989.899 499.59C991.169 498.46 992.119 497.34 993.009 495.96C993.869 494.57 994.689 492.89 995.099 490.51C995.329 489.31 995.319 488.03 995.319 486.22C995.319 484.48 995.319 482.52 995.299 480.29C995.239 457.62 995.719 435.5 995.539 412.79C995.969 397.99 995.689 382.31 995.779 367.09C995.869 351.27 996.229 335.17 995.979 319.69C995.729 304.27 995.789 289.12 995.789 273.86C995.859 262.25 995.929 250.68 995.999 239.04C996.039 226.97 995.929 214.65 996.039 202.8C996.109 195.46 996.379 187.7 996.219 180.76C995.869 165.56 996.169 149.9 995.989 135C995.729 114.3 995.899 93.42 995.739 72.97C995.649 61.93 995.549 51 995.559 39.9C995.559 34.84 995.559 30.04 995.719 24.6C995.749 23.21 995.779 21.67 995.809 20.02C995.809 19.21 995.849 18.31 995.809 17.52C995.779 17.12 995.789 16.71 995.739 16.31C995.679 15.91 995.619 15.5 995.549 15.09C994.899 11.85 992.979 8.74999 990.479 6.82999C989.449 6.02999 987.969 5.10999 986.399 4.51999C984.839 3.88999 983.219 3.63999 982.119 3.51999C981.019 3.38999 979.659 3.38999 978.389 3.34999C977.099 3.32999 975.809 3.29999 974.509 3.27999C971.909 3.25999 969.289 3.23999 966.659 3.22999C961.399 3.23999 956.109 3.25999 950.899 3.26999C944.289 3.26999 936.879 2.94999 932.929 3.07999C926.259 3.30999 920.189 3.20999 913.949 3.23999C909.519 3.25999 904.469 3.36999 900.509 3.06999C899.449 2.98999 895.119 2.96999 893.819 3.02999C886.359 3.42999 877.769 3.22999 869.749 3.23999C850.389 3.23999 831.009 3.23999 811.649 3.23999C795.649 3.21999 780.259 3.64999 764.129 3.47999C754.319 3.87999 743.379 3.69999 732.949 3.69999C724.969 3.69999 716.999 3.55999 709.029 3.47999C701.059 3.39999 693.279 3.47999 684.849 3.29999C674.449 3.07999 662.089 3.27999 650.619 3.23999C644.379 3.21999 637.409 3.43999 631.789 3.05999C631.029 3.00999 628.139 3.01999 627.069 3.05999C618.859 3.45999 608.509 3.34999 601.209 3.18999C589.279 2.93999 577.789 3.04999 566.149 3.00999C556.499 3.00999 546.769 2.99999 537.109 2.98999C530.179 2.95999 523.389 3.04999 516.109 2.87999C510.539 2.74999 503.139 2.96999 496.529 2.98999C489.899 2.98999 483.219 2.98999 476.559 2.98999H432.979C425.109 2.98999 417.209 2.98999 409.389 2.98999C401.969 2.91999 394.679 2.84999 387.269 2.77999C366.519 2.72999 346.129 3.15999 325.229 2.99999C319.579 3.28999 314.109 3.07999 308.209 3.01999C302.779 2.96999 296.419 2.84999 290.999 3.13999C289.489 3.21999 286.619 3.19999 284.349 3.21999C279.309 3.25999 274.949 2.98999 268.969 3.18999C264.749 3.33999 258.279 3.18999 252.879 3.21999C247.199 3.24999 240.769 3.04999 235.989 3.40999C226.009 2.86999 216.479 3.69999 206.519 3.44999C203.389 3.39999 199.959 3.33999 196.659 3.28999C195.009 3.25999 193.149 3.18999 191.729 3.21999C165.249 3.70999 138.189 3.30999 111.509 3.44999C108.219 3.46999 105.059 3.56999 101.789 3.61999C100.219 3.63999 98.4491 3.65999 96.8991 3.62999C82.2691 3.42999 82.3091 3.43999 68.6591 3.62999C65.2291 3.67999 61.4891 3.62999 57.9291 3.65999C48.7091 3.71999 39.6991 3.61999 30.1491 3.84999C27.7591 3.90999 25.3191 3.91999 22.8491 3.91999C21.6091 3.90999 20.3691 3.89999 19.1191 3.88999C18.5491 3.90999 18.0091 3.90999 17.4591 3.95999C16.9191 4.04999 16.3591 4.06999 15.8191 4.21999C13.6591 4.68999 11.5691 5.62999 9.81906 7.04999C8.07906 8.46999 6.65906 10.29 5.72906 12.33C4.91906 14.16 4.50906 16.11 4.47906 18.16C4.43906 20.36 4.40906 22.58 4.36906 24.81C4.30906 29.28 4.26906 33.86 4.27906 38.67C4.27906 62.86 4.27906 87.08 4.28906 111.29C4.28906 114.32 4.20906 118.49 4.29906 120.17C4.69906 127.12 4.96906 133.27 4.29906 139.88C4.26906 140.2 4.26906 142.71 4.29906 143.26C4.71906 149.21 4.51906 156.98 4.49906 163.67C4.44906 189.33 4.91906 214.53 4.74906 240.25C4.71906 244.39 4.82906 250.01 4.68906 252.43C4.39906 257.59 4.86906 260.09 4.75906 264.57C4.66906 268.31 4.83906 273.88 4.71906 277.01C4.28906 288.39 4.41906 301.08 4.55906 311.8C4.68906 321.83 4.83906 332.18 4.69906 341.21C4.40906 358.99 4.53906 376.63 4.50906 394.32C4.50906 412.46 4.50906 430.64 4.50906 448.78C4.51906 456.2 4.33906 464.17 4.71906 471.03C4.79906 472.42 4.74906 475.78 4.71906 478.13C4.67906 480.92 4.62906 483.7 4.58906 486.48C4.58906 487.16 4.54906 487.9 4.58906 488.5L4.62906 489.44L4.75906 490.37C4.80906 491 5.03906 491.59 5.15906 492.2C5.38906 492.78 5.53906 493.4 5.83906 493.95C7.88906 498.58 12.6191 501.69 17.5791 502.11C18.0891 502.13 18.5891 502.15 19.0891 502.17C19.6491 502.17 20.1991 502.17 20.7491 502.17C21.8491 502.17 22.9491 502.16 24.0491 502.15C26.2491 502.13 28.4691 502.09 30.7891 501.99C34.1891 501.84 40.1291 501.96 45.4591 502.16C56.0491 502.56 67.0991 502.96 80.6891 502.89C92.7191 502.89 104.889 502.88 116.979 502.87C122.049 502.87 126.839 502.89 132.269 502.7C137.159 502.53 145.349 502.6 151.269 502.73C160.609 502.93 169.209 502.95 178.349 502.73C181.499 502.65 185.249 502.65 188.719 502.65H252.269C257.379 502.65 262.799 502.58 266.959 502.86C270.329 502.53 275.659 502.64 280.119 502.66C286.929 502.73 293.619 502.8 300.429 502.87C308.519 502.9 316.409 502.87 324.479 502.67C331.909 502.48 340.889 502.79 348.919 502.51C350.419 502.46 353.579 502.65 355.799 502.63C364.989 502.56 374.939 502.87 383.429 502.41C384.139 502.37 386.119 502.37 386.949 502.41C397.519 502.87 408.019 502.52 418.479 502.41C429.889 502.28 440.309 502.66 451.479 502.65C464.189 502.64 477.429 502.5 489.489 502.68C510.279 502.99 530.949 502.84 551.659 502.87C572.829 502.87 594.029 502.87 615.199 502.87C624.409 502.8 633.539 502.73 642.759 502.66C653.009 502.66 663.329 502.66 673.619 502.66C683.299 502.66 692.989 502.66 702.669 502.66C707.209 502.66 712.229 502.54 716.189 502.82C716.999 502.88 719.779 502.9 720.919 502.85C729.219 502.54 737.209 502.56 745.649 502.84C748.049 502.92 751.569 502.84 754.419 502.89C762.359 503 769.179 502.73 776.529 502.65C783.289 502.57 790.959 502.86 796.979 502.43C797.799 502.37 801.109 502.37 802.169 502.43C815.719 503.15 831.229 501.95 844.709 502.62C850.099 502.21 855.689 502.68 859.959 502.62C866.149 502.53 872.129 502.42 878.579 502.43C884.629 502.43 890.709 502.43 896.729 502.43C907.759 502.38 918.929 502.57 929.939 502.23C933.619 502.12 940.529 502.04 945.049 502.37C945.849 502.43 948.269 502.42 949.839 502.4C961.939 502.27 976.669 502.63 979.699 503.23C981.479 503.58 981.269 504.01 979.879 504.37C979.189 504.55 973.909 504.66 970.579 504.79C964.789 505.02 959.259 505.33 952.959 505.42C945.489 505.53 937.319 505.45 927.539 505.45L927.559 505.52Z" fill="#C3AD7C"/>
<path d="M41.6504 376.52C41.3304 376.52 41.0104 376.52 40.6904 376.52C39.6904 376.52 38.7004 376.67 37.6904 376.67C34.4504 376.67 31.2204 376.8 27.9804 376.81C24.9704 376.82 21.9504 376.81 18.9604 376.67C18.4204 376.64 17.6004 375.88 17.6904 375.5C17.8404 374.86 18.3104 373.94 19.2104 373.71C20.5804 373.37 22.4404 373.42 24.0704 373.47C29.2104 373.62 31.4704 374.03 36.6104 374.2C38.0204 374.24 42.1304 374.56 43.5504 374.59C44.6104 374.61 45.5604 374.62 46.6104 374.75C46.7404 374.77 47.3204 375.02 47.3104 375.05C47.1404 375.75 47.5404 375.29 47.0704 375.93C46.7904 376.32 44.6804 376.36 44.1104 376.41C43.2904 376.48 42.4704 376.51 41.6504 376.52Z" fill="#BA9F67"/>
<path d="M39.6402 405.99C35.2902 404.78 27.5202 405 22.9302 405.28C22.8402 405.28 20.8802 405.3 20.5202 405.44C19.0402 406.04 16.0502 406.94 17.2702 407.27C19.9502 407.98 24.6702 408.81 28.8702 408.88C34.0302 408.96 46.0802 409.22 45.4102 406.95C45.3002 406.57 40.5302 406.24 39.6302 405.99H39.6402Z" fill="#BA9F67"/>
<path d="M32.7394 397.31C32.2794 397.27 30.9094 397.54 30.4494 397.56C29.7694 397.59 28.8394 397.65 28.1594 397.66C26.2294 397.7 25.3194 397.76 23.3894 397.81C22.4794 397.83 19.8394 398.42 18.8394 397.9C17.9894 397.45 18.7894 397.16 18.0494 396.64C17.8594 396.51 18.1894 395.69 18.5794 395.49C19.4194 395.07 20.4594 394.62 21.4294 394.6C23.4894 394.55 25.4094 394.99 27.4694 395.1C29.5694 395.21 31.7394 395.37 33.8294 395.56C34.3894 395.61 35.4094 395.88 35.4094 396C35.3694 396.64 35.2694 396.92 34.2794 397C34.1094 397.02 32.8994 397.3 32.7294 397.29L32.7394 397.31Z" fill="#BA9F67"/>
<path d="M19.7899 334.57C19.0599 334.55 18.4499 334.4 18.2099 334.03C17.9399 333.61 17.8999 332.77 18.2099 332.43C18.8599 331.73 19.7299 330.93 20.6499 330.77C21.7799 330.57 23.0499 330.98 24.2599 331.1C24.6699 331.14 25.0999 331.13 25.5199 331.15C26.4199 331.19 28.0199 331.58 28.9499 332.03C29.6099 332.35 31.7899 332.52 32.6099 332.6C32.7099 332.6 32.8899 332.67 32.8899 332.72C33.0099 333.6 33.4499 333.22 32.6299 333.97C32.5299 334.06 30.1899 334.45 30.0299 334.44C28.0399 334.37 25.9199 334.21 23.8799 334.22C23.1199 334.22 21.2099 334.62 19.7999 334.57H19.7899Z" fill="#BA9F67"/>
<path d="M25.3099 365.87C27.2199 365.71 31.5199 365.93 29.0599 364.2C26.9499 362.72 24.3299 362.66 21.7499 362.76C20.2299 362.82 18.4299 362.76 17.6699 363.89C17.6799 365.5 20.0899 366.53 22.1899 366.27C23.2299 366.14 24.2599 365.97 25.3199 365.88L25.3099 365.87Z" fill="#BA9F67"/>
<path d="M36.2708 343.55C36.2708 343.84 35.9408 344.06 35.3008 344.22C33.8608 344.58 31.9508 344.41 30.4208 344.42C28.0508 344.44 25.5308 344.73 23.1608 344.77C22.8008 344.77 22.4108 344.88 22.1008 345.02C21.1108 345.46 19.6808 344.74 19.0508 344.16C17.4208 342.67 18.9408 341.91 20.0208 341.52C20.3108 341.41 21.4108 341.3 22.1208 341.37C23.8108 341.53 25.6708 341.45 27.3508 341.64C29.8808 341.92 32.4508 342.1 34.9508 342.49C35.5208 342.58 35.8808 342.78 36.0808 343.05C36.1908 343.2 36.2908 343.43 36.2808 343.55H36.2708Z" fill="#BA9F67"/>
<path d="M33.251 354.59C30.911 354.83 26.991 354.99 25.341 355.16C23.731 355.32 22.111 355.63 20.511 355.59C19.721 355.57 18.851 355.01 18.241 354.55C18.051 354.41 18.591 353.78 18.811 353.37C19.731 351.66 21.741 352.28 23.471 352.26C25.311 352.24 30.211 352.8 32.041 352.73C34.191 352.64 34.461 353 33.661 354.4C33.551 354.6 33.001 354.68 33.241 354.58L33.251 354.59Z" fill="#BA9F67"/>
<path d="M36.4305 386.04C36.4305 386.33 36.0805 386.55 35.4105 386.71C33.9005 387.07 31.8905 386.9 30.2905 386.91C27.8005 386.93 25.1605 387.22 22.6705 387.26C22.2905 387.26 21.8905 387.37 21.5605 387.51C20.5205 387.94 19.0205 387.23 18.3605 386.65C16.6505 385.15 18.2405 384.4 19.3705 384.01C19.6805 383.9 20.8305 383.79 21.5805 383.86C23.3505 384.02 25.3005 383.94 27.0605 384.13C29.7205 384.42 32.4105 384.59 35.0305 384.98C35.6305 385.07 36.0005 385.27 36.2105 385.54C36.3205 385.69 36.4305 385.92 36.4205 386.04H36.4305Z" fill="#BA9F67"/>
<path d="M44.1693 461.59C43.8193 461.59 43.4593 461.59 43.1093 461.59C41.9993 461.59 40.9193 461.74 39.8093 461.74C36.2393 461.74 32.6693 461.87 29.1093 461.88C25.7893 461.89 22.4593 461.88 19.1693 461.74C18.5793 461.71 17.6693 460.95 17.7693 460.57C17.9393 459.93 18.4593 459.01 19.4493 458.78C20.9593 458.44 23.0093 458.49 24.7993 458.54C30.4593 458.69 32.9593 459.1 38.6193 459.27C40.1793 459.31 44.6993 459.63 46.2693 459.66C47.4393 459.68 48.4793 459.69 49.6393 459.82C49.7793 459.84 50.4193 460.09 50.4193 460.12C50.2393 460.82 50.6793 460.36 50.1493 461C49.8393 461.39 47.5093 461.43 46.8893 461.48C45.9893 461.55 45.0893 461.58 44.1793 461.59H44.1693Z" fill="#BA9F67"/>
<path d="M73.6092 491.06C62.7492 489.85 43.3192 490.07 31.8392 490.35C31.6192 490.35 26.7192 490.37 25.8192 490.51C22.1192 491.11 14.6492 492.01 17.6992 492.34C24.3892 493.05 36.1992 493.88 46.6992 493.95C59.5992 494.03 89.7292 494.29 88.0492 492.02C87.7592 491.64 75.8592 491.31 73.6092 491.06Z" fill="#BA9F67"/>
<path d="M67.3696 482.38C65.9096 482.34 61.5296 482.61 60.0596 482.63C57.8896 482.66 54.9196 482.72 52.7496 482.73C46.5896 482.77 43.6596 482.83 37.5096 482.88C34.5996 482.9 26.1596 483.49 22.9596 482.97C20.2296 482.52 22.8096 482.23 20.4196 481.71C19.7996 481.58 20.8496 480.76 22.1196 480.56C24.8196 480.14 28.1196 479.69 31.2296 479.67C37.8096 479.62 43.9596 480.06 50.5596 480.17C57.2696 480.28 64.2296 480.44 70.8896 480.63C72.6896 480.68 75.9496 480.95 75.9296 481.07C75.8096 481.71 75.4696 481.99 72.3196 482.07C71.7596 482.09 67.9096 482.37 67.3696 482.36V482.38Z" fill="#BA9F67"/>
<path d="M22.09 419.64C20.46 419.62 19.13 419.47 18.58 419.1C17.98 418.68 17.89 417.84 18.58 417.5C20.01 416.8 21.94 416 23.98 415.84C26.48 415.64 29.29 416.05 31.97 416.17C32.89 416.21 33.82 416.2 34.75 416.22C36.75 416.26 40.29 416.65 42.35 417.1C43.82 417.42 48.64 417.59 50.46 417.67C50.69 417.67 51.07 417.74 51.09 417.79C51.35 418.67 52.32 418.29 50.52 419.04C50.3 419.13 45.12 419.52 44.75 419.51C40.35 419.44 35.65 419.28 31.13 419.29C29.44 419.29 25.22 419.69 22.08 419.64H22.09Z" fill="#BA9F67"/>
<path d="M32.4083 450.94C36.0783 450.78 44.3283 451 39.5983 449.27C35.5583 447.79 30.5283 447.73 25.5683 447.83C22.6383 447.89 19.1883 447.83 17.7383 448.96C17.7583 450.57 22.3883 451.6 26.4083 451.34C28.4083 451.21 30.3883 451.04 32.4183 450.95L32.4083 450.94Z" fill="#BA9F67"/>
<path d="M47.6489 428.05C47.6389 428.27 47.1089 428.43 46.0689 428.55C43.7289 428.82 40.6089 428.69 38.1289 428.7C34.2689 428.71 30.1689 428.93 26.3089 428.96C25.7289 428.96 25.0889 429.04 24.5889 429.14C22.9689 429.46 20.6489 428.93 19.6189 428.51C16.9789 427.41 19.4389 426.85 21.1989 426.56C21.6689 426.48 23.4589 426.4 24.6189 426.45C27.3589 426.57 30.3889 426.51 33.1289 426.65C37.2489 426.86 41.4289 426.99 45.4889 427.28C46.4189 427.35 46.9989 427.49 47.3189 427.69C47.4989 427.8 47.6489 427.97 47.6489 428.06V428.05Z" fill="#BA9F67"/>
<path d="M34.9083 439.66C32.3283 439.9 28.0083 440.06 26.1883 440.23C24.4183 440.39 22.6283 440.7 20.8683 440.66C19.9983 440.64 19.0383 440.08 18.3583 439.62C18.1483 439.48 18.7483 438.85 18.9883 438.44C19.9983 436.73 22.2083 437.35 24.1183 437.33C26.1483 437.31 31.5483 437.87 33.5683 437.8C35.9383 437.71 36.2283 438.07 35.3583 439.47C35.2383 439.67 34.6283 439.75 34.8983 439.65L34.9083 439.66Z" fill="#BA9F67"/>
<path d="M38.4187 471.12C38.4187 471.41 38.0387 471.63 37.2987 471.79C35.6387 472.15 33.4187 471.98 31.6587 471.99C28.9187 472.01 26.0087 472.3 23.2587 472.34C22.8487 472.34 22.3987 472.45 22.0387 472.59C20.8887 473.02 19.2387 472.31 18.5087 471.73C16.6287 470.23 18.3787 469.48 19.6287 469.09C19.9687 468.98 21.2387 468.87 22.0587 468.94C24.0087 469.1 26.1587 469.02 28.0987 469.21C31.0287 469.5 33.9987 469.67 36.8887 470.06C37.5487 470.15 37.9587 470.35 38.1887 470.62C38.3187 470.77 38.4287 471 38.4287 471.12H38.4187Z" fill="#BA9F67"/>
<path d="M32.8202 225.78C32.6102 225.78 32.4102 225.78 32.2002 225.78C31.5602 225.78 30.9302 225.94 30.2802 225.94C28.2102 225.95 26.1302 226.08 24.0602 226.1C22.1302 226.11 20.2002 226.1 18.2902 225.95C17.9402 225.92 17.4202 225.09 17.4702 224.67C17.5702 223.97 17.8702 222.96 18.4402 222.71C19.3202 222.33 20.5102 222.39 21.5502 222.44C24.8402 222.6 26.2902 223.06 29.5802 223.23C30.4902 223.28 33.1102 223.62 34.0202 223.65C34.7002 223.68 35.3102 223.68 35.9802 223.82C36.0602 223.84 36.4302 224.12 36.4302 224.15C36.3202 224.92 36.5802 224.41 36.2802 225.12C36.1002 225.55 34.7502 225.59 34.3902 225.65C33.8702 225.72 33.3402 225.76 32.8202 225.77V225.78Z" fill="#BA9F67"/>
<path d="M23.3604 258.13C22.1404 256.8 19.9704 257.05 18.6904 257.36C18.6704 257.36 18.1204 257.38 18.0204 257.54C17.6104 258.2 16.7704 259.19 17.1104 259.54C17.8604 260.32 19.1804 261.23 20.3504 261.3C21.7904 261.39 25.1604 261.67 24.9704 259.18C24.9404 258.76 23.6104 258.4 23.3604 258.13Z" fill="#BA9F67"/>
<path d="M27.12 248.6C26.83 248.56 25.95 248.86 25.66 248.88C25.23 248.91 24.63 248.98 24.2 249C22.97 249.04 22.38 249.11 21.15 249.17C20.57 249.2 18.88 249.85 18.24 249.28C17.69 248.79 18.21 248.46 17.73 247.9C17.61 247.75 17.82 246.86 18.07 246.64C18.61 246.18 19.27 245.69 19.89 245.66C21.21 245.61 22.44 246.09 23.76 246.21C25.1 246.33 26.5 246.5 27.83 246.71C28.19 246.77 28.84 247.06 28.84 247.19C28.82 247.89 28.75 248.2 28.12 248.29C28.01 248.31 27.24 248.62 27.13 248.61L27.12 248.6Z" fill="#BA9F67"/>
<path d="M19.9798 179.77C19.0398 179.74 18.2598 179.59 17.9398 179.18C17.5898 178.72 17.5398 177.79 17.9398 177.43C18.7698 176.67 19.8898 175.78 21.0798 175.6C22.5298 175.38 24.1598 175.83 25.7198 175.96C26.2498 176.01 26.7998 176 27.3398 176.01C28.4998 176.05 30.5598 176.48 31.7598 176.97C32.6098 177.32 35.4098 177.51 36.4698 177.59C36.5998 177.6 36.8298 177.66 36.8398 177.72C36.9898 178.68 37.5598 178.27 36.5098 179.1C36.3898 179.2 33.3798 179.62 33.1598 179.62C30.5998 179.54 27.8698 179.37 25.2498 179.38C24.2698 179.38 21.8198 179.82 19.9898 179.77H19.9798Z" fill="#BA9F67"/>
<path d="M22.3607 214.11C23.5807 213.94 26.3407 214.17 24.7607 212.27C23.4107 210.65 21.7307 210.58 20.0807 210.69C19.1007 210.76 17.9507 210.69 17.4707 211.93C17.4707 213.7 19.0207 214.83 20.3607 214.54C21.0307 214.4 21.6907 214.21 22.3607 214.12V214.11Z" fill="#BA9F67"/>
<path d="M29.3708 189.62C29.3708 189.94 29.1608 190.18 28.7508 190.36C27.8308 190.76 26.6008 190.57 25.6308 190.59C24.1108 190.61 22.5008 190.93 20.9808 190.98C20.7508 190.98 20.5008 191.1 20.3008 191.25C19.6608 191.73 18.7508 190.94 18.3408 190.31C17.3008 188.67 18.2708 187.84 18.9608 187.41C19.1508 187.29 19.8508 187.17 20.3108 187.24C21.3908 187.41 22.5808 187.33 23.6608 187.53C25.2808 187.84 26.9308 188.03 28.5308 188.46C28.8908 188.56 29.1208 188.77 29.2508 189.07C29.3208 189.23 29.3808 189.49 29.3808 189.62H29.3708Z" fill="#BA9F67"/>
<path d="M27.4396 201.73C25.9396 201.99 23.4296 202.17 22.3696 202.36C21.3396 202.54 20.2996 202.87 19.2796 202.84C18.7696 202.82 18.2196 202.21 17.8196 201.7C17.6996 201.54 18.0496 200.85 18.1796 200.41C18.7696 198.54 20.0496 199.21 21.1596 199.19C22.3396 199.17 25.4696 199.78 26.6496 199.7C28.0296 199.6 28.1996 199.99 27.6896 201.54C27.6196 201.76 27.2696 201.84 27.4196 201.74L27.4396 201.73Z" fill="#BA9F67"/>
<path d="M29.481 236.24C29.481 236.56 29.261 236.8 28.831 236.98C27.871 237.38 26.581 237.19 25.551 237.2C23.961 237.22 22.261 237.54 20.671 237.59C20.431 237.59 20.171 237.71 19.961 237.86C19.291 238.34 18.331 237.55 17.911 236.92C16.821 235.28 17.831 234.45 18.561 234.02C18.761 233.9 19.491 233.78 19.971 233.85C21.101 234.02 22.351 233.94 23.481 234.15C25.181 234.46 26.911 234.65 28.581 235.08C28.961 235.18 29.201 235.4 29.341 235.69C29.411 235.85 29.481 236.11 29.481 236.24Z" fill="#BA9F67"/>
<path d="M32.8202 321.43C32.6102 321.43 32.4102 321.43 32.2002 321.43C31.5602 321.43 30.9302 321.59 30.2802 321.59C28.2102 321.6 26.1302 321.73 24.0602 321.75C22.1302 321.76 20.2002 321.75 18.2902 321.6C17.9402 321.57 17.4202 320.74 17.4702 320.32C17.5702 319.62 17.8702 318.61 18.4402 318.36C19.3202 317.98 20.5102 318.04 21.5502 318.1C24.8402 318.26 26.2902 318.72 29.5802 318.89C30.4902 318.94 33.1102 319.28 34.0202 319.31C34.7002 319.34 35.3102 319.34 35.9802 319.48C36.0602 319.5 36.4302 319.78 36.4302 319.81C36.3202 320.58 36.5802 320.07 36.2802 320.78C36.1002 321.21 34.7502 321.25 34.3902 321.3C33.8702 321.37 33.3402 321.41 32.8202 321.42V321.43Z" fill="#BA9F67"/>
<path d="M19.9798 275.41C19.0398 275.38 18.2598 275.23 17.9398 274.82C17.5898 274.36 17.5398 273.43 17.9398 273.07C18.7698 272.31 19.8898 271.42 21.0798 271.24C22.5298 271.02 24.1598 271.47 25.7198 271.6C26.2498 271.65 26.7998 271.64 27.3398 271.65C28.4998 271.69 30.5598 272.12 31.7598 272.61C32.6098 272.96 35.4098 273.15 36.4698 273.23C36.5998 273.24 36.8298 273.3 36.8398 273.36C36.9898 274.32 37.5598 273.91 36.5098 274.74C36.3898 274.84 33.3798 275.26 33.1598 275.26C30.5998 275.18 27.8698 275.01 25.2498 275.02C24.2698 275.02 21.8198 275.46 19.9898 275.41H19.9798Z" fill="#BA9F67"/>
<path d="M22.3607 309.75C23.5807 309.58 26.3407 309.81 24.7607 307.91C23.4107 306.29 21.7307 306.22 20.0807 306.33C19.1007 306.4 17.9507 306.33 17.4707 307.57C17.4707 309.34 19.0207 310.47 20.3607 310.18C21.0307 310.04 21.6907 309.85 22.3607 309.76V309.75Z" fill="#BA9F67"/>
<path d="M29.3708 285.26C29.3708 285.58 29.1608 285.82 28.7508 286C27.8308 286.4 26.6008 286.21 25.6308 286.23C24.1108 286.25 22.5008 286.57 20.9808 286.62C20.7508 286.62 20.5008 286.74 20.3008 286.89C19.6608 287.37 18.7508 286.58 18.3408 285.95C17.3008 284.31 18.2708 283.48 18.9608 283.05C19.1508 282.93 19.8508 282.81 20.3108 282.88C21.3908 283.05 22.5808 282.97 23.6608 283.17C25.2808 283.48 26.9308 283.67 28.5308 284.1C28.8908 284.2 29.1208 284.42 29.2508 284.71C29.3208 284.87 29.3808 285.13 29.3808 285.26H29.3708Z" fill="#BA9F67"/>
<path d="M27.4396 297.37C25.9396 297.63 23.4296 297.81 22.3696 297.99C21.3396 298.17 20.2996 298.5 19.2796 298.47C18.7696 298.45 18.2196 297.84 17.8196 297.33C17.6996 297.17 18.0496 296.48 18.1796 296.04C18.7696 294.17 20.0496 294.84 21.1596 294.82C22.3396 294.8 25.4696 295.41 26.6496 295.33C28.0296 295.23 28.1996 295.62 27.6896 297.17C27.6196 297.39 27.2696 297.47 27.4196 297.37H27.4396Z" fill="#BA9F67"/>
<path d="M41.8895 57.5701C41.5795 57.5701 41.2595 57.5701 40.9495 57.5701C39.9695 57.5701 38.9995 57.7101 38.0095 57.7101C34.8395 57.7101 31.6595 57.8301 28.4895 57.8401C25.5395 57.8501 22.5695 57.8401 19.6495 57.7001C19.1195 57.6801 18.3095 56.9601 18.3995 56.6001C18.5495 56.0001 19.0095 55.1301 19.8895 54.9201C21.2295 54.6001 23.0595 54.6501 24.6495 54.7001C29.6895 54.8401 31.9095 55.2301 36.9495 55.3901C38.3395 55.4301 42.3595 55.7301 43.7495 55.7601C44.7895 55.7801 45.7195 55.7901 46.7495 55.9101C46.8795 55.9201 47.4495 56.1701 47.4395 56.1901C47.2795 56.8501 47.6695 56.4101 47.1995 57.0201C46.9195 57.3901 44.8495 57.4301 44.2995 57.4701C43.4995 57.5301 42.6995 57.5601 41.8895 57.5701Z" fill="#BA9F67"/>
<path d="M35.73 85.28C32.15 84.14 25.74 84.35 21.95 84.61C21.88 84.61 20.26 84.63 19.96 84.76C18.74 85.33 16.27 86.17 17.28 86.48C19.49 87.15 23.38 87.93 26.85 87.99C31.1 88.07 41.04 88.31 40.49 86.18C40.4 85.82 36.47 85.51 35.73 85.28Z" fill="#BA9F67"/>
<path d="M53.7206 77.1101C52.6406 77.0801 49.4106 77.3301 48.3306 77.3501C46.7306 77.3801 44.5506 77.4301 42.9406 77.4501C38.4006 77.4901 36.2406 77.5501 31.7006 77.5901C29.5606 77.6101 23.3306 78.1701 20.9806 77.6801C18.9706 77.2601 20.8706 76.9801 19.1106 76.5001C18.6506 76.3701 19.4306 75.6101 20.3606 75.4201C22.3506 75.0301 24.7806 74.6101 27.0806 74.5901C31.9306 74.5401 36.4606 74.9601 41.3306 75.0601C46.2806 75.1601 51.4106 75.3101 56.3206 75.4901C57.6506 75.5401 60.0506 75.7901 60.0406 75.9001C59.9506 76.5001 59.7006 76.7601 57.3806 76.8401C56.9706 76.8501 54.1306 77.1301 53.7306 77.1101H53.7206Z" fill="#BA9F67"/>
<path d="M23.9408 18.1301C21.9208 18.1101 20.2608 17.9701 19.5908 17.6201C18.8408 17.2301 18.7308 16.4301 19.5908 16.1201C21.3708 15.4701 23.7608 14.7101 26.2908 14.5601C29.3908 14.3701 32.8808 14.7601 36.2108 14.8801C37.3508 14.9201 38.5108 14.9101 39.6608 14.9301C42.1408 14.9601 46.5408 15.3301 49.1008 15.7601C50.9208 16.0601 56.9108 16.2201 59.1708 16.3001C59.4508 16.3001 59.9308 16.3601 59.9508 16.4101C60.2808 17.2401 61.4808 16.8801 59.2408 17.5901C58.9708 17.6701 52.5408 18.0401 52.0808 18.0301C46.6208 17.9601 40.7908 17.8101 35.1708 17.8201C33.0808 17.8201 27.8408 18.1901 23.9408 18.1501V18.1301Z" fill="#BA9F67"/>
<path d="M32.7996 47.5502C36.4096 47.4002 44.5396 47.6102 39.8696 45.9802C35.8896 44.5902 30.9496 44.5302 26.0596 44.6202C23.1796 44.6702 19.7896 44.6202 18.3496 45.6802C18.3696 47.1902 22.9196 48.1602 26.8796 47.9202C28.8496 47.8002 30.7996 47.6402 32.7996 47.5602V47.5502Z" fill="#BA9F67"/>
<path d="M39.1295 26.5801C39.1295 26.8501 38.7696 27.0601 38.0795 27.2101C36.5196 27.5501 34.4295 27.3901 32.7695 27.4001C30.1895 27.4201 27.4495 27.6901 24.8695 27.7301C24.4795 27.7301 24.0595 27.8401 23.7195 27.9601C22.6395 28.3701 21.0895 27.7001 20.3995 27.1501C18.6295 25.7401 20.2795 25.0401 21.4495 24.6601C21.7695 24.5601 22.9595 24.4501 23.7395 24.5201C25.5695 24.6701 27.5995 24.6001 29.4295 24.7801C32.1895 25.0501 34.9795 25.2101 37.6995 25.5801C38.3195 25.6601 38.7095 25.8501 38.9195 26.1001C39.0395 26.2401 39.1395 26.4601 39.1395 26.5701L39.1295 26.5801Z" fill="#BA9F67"/>
<path d="M47.8098 36.9501C43.3898 37.1701 35.9898 37.3201 32.8698 37.4801C29.8298 37.6301 26.7798 37.9201 23.7498 37.8901C22.2598 37.8801 20.6098 37.3501 19.4598 36.9101C19.0998 36.7801 20.1298 36.1801 20.5398 35.8001C22.2798 34.2001 26.0698 34.7701 29.3398 34.7601C32.8098 34.7501 42.0698 35.2701 45.5298 35.2001C49.5998 35.1201 50.0998 35.4501 48.5998 36.7701C48.3898 36.9601 47.3498 37.0301 47.8198 36.9401L47.8098 36.9501Z" fill="#BA9F67"/>
<path d="M53.7908 66.5301C53.7808 66.8001 53.1308 67.0101 51.8708 67.1601C49.0208 67.5001 45.2208 67.3401 42.2008 67.3501C37.5008 67.3601 32.5108 67.6401 27.8108 67.6801C27.1008 67.6801 26.3308 67.7901 25.7108 67.9101C23.7408 68.3201 20.9108 67.6501 19.6608 67.1001C16.4408 65.6901 19.4308 64.9801 21.5808 64.6101C22.1608 64.5101 24.3308 64.4001 25.7408 64.4701C29.0808 64.6201 32.7608 64.5501 36.1008 64.7301C41.1208 65.0001 46.2008 65.1601 51.1608 65.5301C52.2908 65.6101 52.9908 65.8001 53.3908 66.0501C53.6008 66.1901 53.8008 66.4101 53.7908 66.5201V66.5301Z" fill="#BA9F67"/>
<path d="M31.8596 137.55C31.6696 137.55 31.4796 137.55 31.2796 137.55C30.6796 137.55 30.0896 137.69 29.4796 137.69C27.5396 137.69 25.5896 137.81 23.6496 137.82C21.8396 137.83 20.0296 137.82 18.2396 137.68C17.9196 137.66 17.4196 136.94 17.4796 136.58C17.5696 135.98 17.8496 135.11 18.3896 134.9C19.2096 134.58 20.3296 134.63 21.2996 134.68C24.3796 134.82 25.7396 135.21 28.8296 135.37C29.6796 135.41 32.1396 135.71 32.9896 135.74C33.6296 135.76 34.1896 135.77 34.8196 135.89C34.8996 135.9 35.2496 136.15 35.2396 136.17C35.1396 136.83 35.3796 136.39 35.0996 137C34.9296 137.37 33.6596 137.41 33.3196 137.45C32.8296 137.51 32.3396 137.54 31.8396 137.55H31.8596Z" fill="#BA9F67"/>
<path d="M22.9899 165.26C21.8499 164.12 19.8099 164.33 18.6099 164.59C18.5899 164.59 18.0699 164.61 17.9799 164.74C17.5899 165.31 16.8099 166.15 17.1299 166.46C17.8299 167.13 19.0699 167.91 20.1699 167.97C21.5199 168.05 24.6799 168.29 24.4999 166.16C24.4699 165.8 23.2199 165.49 22.9899 165.26Z" fill="#BA9F67"/>
<path d="M26.5099 157.1C26.2399 157.07 25.4099 157.32 25.1399 157.34C24.7299 157.37 24.1799 157.42 23.7699 157.44C22.6099 157.48 22.0599 157.54 20.9099 157.58C20.3599 157.6 18.7799 158.16 18.1799 157.67C17.6699 157.25 18.1499 156.97 17.6999 156.49C17.5799 156.36 17.7799 155.6 18.0199 155.41C18.5299 155.02 19.1499 154.6 19.7299 154.58C20.9699 154.53 22.1199 154.95 23.3599 155.05C24.6199 155.15 25.9299 155.3 27.1799 155.48C27.5199 155.53 28.1299 155.78 28.1299 155.89C28.1099 156.49 28.0399 156.75 27.4499 156.83C27.3499 156.84 26.6199 157.12 26.5199 157.1H26.5099Z" fill="#BA9F67"/>
<path d="M19.8406 98.1101C18.9506 98.0901 18.2306 97.9501 17.9306 97.6001C17.6006 97.2101 17.5506 96.4101 17.9306 96.1001C18.7106 95.4501 19.7606 94.6901 20.8706 94.5401C22.2306 94.3501 23.7606 94.7401 25.2206 94.8601C25.7206 94.9001 26.2306 94.8901 26.7306 94.9101C27.8206 94.9401 29.7506 95.3101 30.8706 95.7401C31.6706 96.0401 34.2906 96.2001 35.2906 96.2801C35.4106 96.2801 35.6206 96.3401 35.6306 96.3901C35.7706 97.2201 36.3006 96.8601 35.3206 97.5701C35.2006 97.6501 32.3806 98.0201 32.1806 98.0101C29.7806 97.9401 27.2306 97.7901 24.7606 97.8001C23.8406 97.8001 21.5406 98.1701 19.8306 98.1301L19.8406 98.1101Z" fill="#BA9F67"/>
<path d="M22.0607 127.54C23.2107 127.39 25.7907 127.6 24.3107 125.97C23.0507 124.58 21.4707 124.52 19.9207 124.61C19.0107 124.66 17.9307 124.61 17.4707 125.67C17.4707 127.18 18.9207 128.15 20.1807 127.91C20.8107 127.79 21.4307 127.63 22.0607 127.55V127.54Z" fill="#BA9F67"/>
<path d="M74.1108 18.42C76.1908 18.27 80.8608 18.48 78.1808 16.85C75.8908 15.46 73.0508 15.4 70.2308 15.49C68.5708 15.54 66.6208 15.49 65.8008 16.55C65.8108 18.06 68.4308 19.03 70.7108 18.79C71.8408 18.67 72.9608 18.51 74.1108 18.43V18.42Z" fill="#BA9F67"/>
<path d="M28.6398 106.56C28.6398 106.83 28.4398 107.04 28.0598 107.19C27.1998 107.53 26.0498 107.37 25.1298 107.38C23.7098 107.4 22.1898 107.67 20.7698 107.71C20.5598 107.71 20.3198 107.82 20.1298 107.94C19.5298 108.35 18.6798 107.68 18.2998 107.13C17.3198 105.72 18.2298 105.01 18.8798 104.64C19.0498 104.54 19.7098 104.43 20.1398 104.5C21.1498 104.65 22.2698 104.58 23.2798 104.76C24.7998 105.03 26.3398 105.19 27.8398 105.56C28.1798 105.64 28.3998 105.83 28.5198 106.08C28.5798 106.22 28.6398 106.44 28.6398 106.55V106.56Z" fill="#BA9F67"/>
<path d="M26.8295 116.93C25.4295 117.15 23.0695 117.3 22.0795 117.46C21.1095 117.61 20.1395 117.9 19.1795 117.87C18.7095 117.86 18.1795 117.33 17.8195 116.89C17.7095 116.76 18.0295 116.16 18.1595 115.78C18.7095 114.18 19.9195 114.75 20.9595 114.74C22.0595 114.73 24.9995 115.25 26.1095 115.18C27.3995 115.1 27.5595 115.43 27.0795 116.75C27.0095 116.94 26.6795 117.01 26.8295 116.92V116.93Z" fill="#BA9F67"/>
<path d="M28.7309 146.51C28.7309 146.78 28.5209 146.99 28.1209 147.14C27.2209 147.48 26.0109 147.32 25.0509 147.33C23.5609 147.34 21.9709 147.62 20.4809 147.66C20.2509 147.66 20.0109 147.77 19.8109 147.89C19.1809 148.3 18.2809 147.63 17.8909 147.08C16.8709 145.67 17.8209 144.96 18.5009 144.59C18.6809 144.49 19.3709 144.38 19.8209 144.45C20.8809 144.6 22.0509 144.53 23.1109 144.71C24.7109 144.98 26.3209 145.14 27.8909 145.51C28.2509 145.59 28.4709 145.78 28.6009 146.03C28.6709 146.17 28.7309 146.39 28.7309 146.5V146.51Z" fill="#BA9F67"/>
<path d="M961.32 131.98C961.64 131.98 961.96 131.98 962.28 131.98C963.28 131.98 964.27 131.83 965.28 131.83C968.52 131.83 971.75 131.7 974.99 131.69C978 131.68 981.02 131.69 984.01 131.83C984.55 131.86 985.37 132.62 985.28 133C985.13 133.64 984.66 134.56 983.76 134.79C982.39 135.13 980.53 135.08 978.9 135.03C973.76 134.88 971.5 134.47 966.36 134.3C964.95 134.26 960.84 133.94 959.42 133.91C958.36 133.89 957.41 133.88 956.36 133.75C956.23 133.73 955.65 133.48 955.66 133.45C955.83 132.75 955.43 133.21 955.9 132.57C956.18 132.18 958.29 132.14 958.86 132.09C959.68 132.02 960.5 131.99 961.32 131.98Z" fill="#BA9F67"/>
<path d="M963.33 102.51C967.68 103.72 975.45 103.5 980.04 103.22C980.13 103.22 982.09 103.2 982.45 103.06C983.93 102.46 986.92 101.56 985.7 101.23C983.02 100.52 978.3 99.69 974.1 99.62C968.94 99.54 956.89 99.28 957.56 101.55C957.67 101.93 962.44 102.26 963.34 102.51H963.33Z" fill="#BA9F67"/>
<path d="M970.231 111.2C970.691 111.24 972.061 110.97 972.521 110.95C973.201 110.92 974.131 110.86 974.811 110.85C976.741 110.81 977.651 110.75 979.581 110.7C980.491 110.68 983.131 110.09 984.131 110.61C984.981 111.06 984.181 111.35 984.921 111.87C985.111 112 984.781 112.82 984.391 113.02C983.551 113.44 982.511 113.89 981.541 113.91C979.481 113.96 977.561 113.52 975.501 113.41C973.401 113.3 971.231 113.14 969.141 112.95C968.581 112.9 967.561 112.63 967.561 112.51C967.601 111.87 967.701 111.59 968.691 111.51C968.861 111.49 970.071 111.21 970.241 111.22L970.231 111.2Z" fill="#BA9F67"/>
<path d="M983.181 173.93C983.911 173.95 984.521 174.1 984.761 174.47C985.031 174.89 985.071 175.73 984.761 176.07C984.111 176.77 983.241 177.57 982.321 177.73C981.191 177.93 979.921 177.52 978.711 177.4C978.301 177.36 977.871 177.37 977.451 177.35C976.551 177.31 974.951 176.92 974.021 176.47C973.361 176.15 971.181 175.98 970.361 175.9C970.261 175.9 970.081 175.83 970.081 175.78C969.961 174.9 969.521 175.28 970.341 174.53C970.441 174.44 972.781 174.05 972.941 174.06C974.931 174.13 977.051 174.29 979.091 174.28C979.851 174.28 981.761 173.88 983.171 173.93H983.181Z" fill="#BA9F67"/>
<path d="M977.66 142.63C975.75 142.79 971.45 142.57 973.91 144.3C976.02 145.78 978.64 145.84 981.22 145.74C982.74 145.68 984.54 145.74 985.3 144.61C985.29 143 982.88 141.97 980.78 142.23C979.74 142.36 978.71 142.53 977.65 142.62L977.66 142.63Z" fill="#BA9F67"/>
<path d="M966.7 164.95C966.7 164.66 967.03 164.44 967.67 164.28C969.11 163.92 971.02 164.09 972.55 164.08C974.92 164.06 977.44 163.77 979.81 163.73C980.17 163.73 980.56 163.62 980.87 163.48C981.86 163.04 983.29 163.76 983.92 164.34C985.55 165.83 984.03 166.59 982.95 166.98C982.66 167.09 981.56 167.2 980.85 167.13C979.16 166.97 977.3 167.05 975.62 166.86C973.09 166.58 970.52 166.4 968.02 166.01C967.45 165.92 967.09 165.72 966.89 165.45C966.78 165.3 966.68 165.07 966.69 164.95H966.7Z" fill="#BA9F67"/>
<path d="M969.72 153.91C972.06 153.67 975.98 153.51 977.63 153.34C979.24 153.18 980.86 152.87 982.46 152.91C983.25 152.93 984.12 153.49 984.73 153.95C984.92 154.09 984.38 154.72 984.16 155.13C983.24 156.84 981.23 156.22 979.5 156.24C977.66 156.26 972.76 155.7 970.93 155.77C968.78 155.86 968.51 155.5 969.31 154.1C969.42 153.9 969.97 153.82 969.73 153.92L969.72 153.91Z" fill="#BA9F67"/>
<path d="M966.541 122.46C966.541 122.17 966.891 121.95 967.561 121.79C969.071 121.43 971.081 121.6 972.681 121.59C975.171 121.57 977.811 121.28 980.301 121.24C980.681 121.24 981.081 121.13 981.411 120.99C982.451 120.56 983.951 121.27 984.611 121.85C986.321 123.35 984.731 124.1 983.601 124.49C983.291 124.6 982.141 124.71 981.391 124.64C979.621 124.48 977.671 124.56 975.911 124.37C973.251 124.08 970.561 123.91 967.941 123.52C967.341 123.43 966.971 123.23 966.761 122.96C966.651 122.81 966.541 122.58 966.551 122.46H966.541Z" fill="#BA9F67"/>
<path d="M958.801 46.91C959.151 46.91 959.511 46.91 959.861 46.91C960.971 46.91 962.051 46.76 963.161 46.76C966.731 46.76 970.301 46.63 973.861 46.62C977.181 46.61 980.511 46.62 983.801 46.76C984.391 46.79 985.301 47.55 985.201 47.93C985.031 48.57 984.511 49.49 983.521 49.72C982.011 50.06 979.961 50.01 978.171 49.96C972.511 49.81 970.011 49.4 964.351 49.23C962.791 49.19 958.271 48.87 956.701 48.84C955.531 48.82 954.491 48.81 953.331 48.68C953.191 48.66 952.551 48.41 952.551 48.38C952.731 47.68 952.291 48.14 952.821 47.5C953.131 47.11 955.461 47.07 956.081 47.02C956.981 46.95 957.881 46.92 958.791 46.91H958.801Z" fill="#BA9F67"/>
<path d="M929.371 17.4399C940.231 18.6499 959.661 18.4299 971.141 18.1499C971.361 18.1499 976.261 18.1299 977.161 17.9899C980.861 17.3899 988.331 16.4899 985.281 16.1599C978.591 15.4499 966.781 14.6199 956.281 14.5499C943.381 14.4699 913.251 14.2099 914.931 16.4799C915.221 16.8599 927.121 17.1899 929.371 17.4399Z" fill="#BA9F67"/>
<path d="M935.601 26.1199C937.061 26.1599 941.441 25.8899 942.911 25.8699C945.081 25.8399 948.051 25.7799 950.221 25.7699C956.381 25.7299 959.311 25.6699 965.461 25.6199C968.371 25.5999 976.811 25.0099 980.011 25.5299C982.741 25.9799 980.161 26.2699 982.551 26.7899C983.171 26.9199 982.121 27.7399 980.851 27.9399C978.151 28.3599 974.851 28.8099 971.741 28.8299C965.161 28.8799 959.011 28.4399 952.411 28.3299C945.701 28.2199 938.741 28.0599 932.081 27.8699C930.281 27.8199 927.021 27.5499 927.041 27.4299C927.161 26.7899 927.501 26.5099 930.651 26.4299C931.211 26.4099 935.061 26.1299 935.601 26.1399V26.1199Z" fill="#BA9F67"/>
<path d="M980.881 88.86C982.511 88.88 983.841 89.03 984.391 89.4C984.991 89.82 985.081 90.66 984.391 91C982.961 91.7 981.031 92.5 978.991 92.66C976.491 92.86 973.681 92.45 971.001 92.33C970.081 92.29 969.151 92.3 968.221 92.28C966.221 92.24 962.681 91.85 960.621 91.4C959.151 91.08 954.331 90.91 952.511 90.83C952.281 90.83 951.901 90.76 951.881 90.71C951.621 89.83 950.651 90.21 952.451 89.46C952.671 89.37 957.851 88.98 958.221 88.99C962.621 89.06 967.321 89.22 971.841 89.21C973.531 89.21 977.751 88.81 980.891 88.86H980.881Z" fill="#BA9F67"/>
<path d="M970.561 57.5599C966.891 57.7199 958.641 57.4999 963.371 59.2299C967.411 60.7099 972.441 60.7699 977.401 60.6699C980.331 60.6099 983.781 60.6699 985.231 59.5399C985.211 57.9299 980.581 56.8999 976.561 57.1599C974.561 57.2899 972.581 57.4599 970.551 57.5499L970.561 57.5599Z" fill="#BA9F67"/>
<path d="M955.32 80.45C955.33 80.23 955.86 80.07 956.9 79.95C959.24 79.68 962.36 79.81 964.84 79.8C968.7 79.79 972.8 79.57 976.66 79.54C977.24 79.54 977.88 79.46 978.38 79.36C980 79.04 982.32 79.57 983.35 79.99C985.99 81.09 983.53 81.65 981.77 81.94C981.3 82.02 979.51 82.1 978.35 82.05C975.61 81.93 972.58 81.99 969.84 81.85C965.72 81.64 961.54 81.51 957.48 81.22C956.55 81.15 955.97 81.01 955.65 80.81C955.47 80.7 955.32 80.53 955.32 80.44V80.45Z" fill="#BA9F67"/>
<path d="M968.061 68.84C970.641 68.6 974.961 68.44 976.781 68.27C978.551 68.11 980.341 67.8 982.101 67.84C982.971 67.86 983.931 68.42 984.611 68.88C984.821 69.02 984.221 69.65 983.981 70.06C982.971 71.77 980.761 71.15 978.851 71.17C976.821 71.19 971.421 70.63 969.401 70.7C967.031 70.79 966.741 70.43 967.611 69.03C967.731 68.83 968.341 68.75 968.071 68.85L968.061 68.84Z" fill="#BA9F67"/>
<path d="M964.561 37.38C964.561 37.09 964.941 36.87 965.681 36.71C967.341 36.35 969.561 36.52 971.321 36.51C974.061 36.49 976.971 36.2 979.721 36.16C980.131 36.16 980.581 36.05 980.941 35.91C982.091 35.48 983.741 36.19 984.471 36.77C986.351 38.27 984.601 39.02 983.351 39.41C983.011 39.52 981.741 39.63 980.921 39.56C978.971 39.4 976.821 39.48 974.881 39.29C971.951 39 968.981 38.83 966.091 38.44C965.431 38.35 965.021 38.15 964.791 37.88C964.661 37.73 964.551 37.5 964.551 37.38H964.561Z" fill="#BA9F67"/>
<path d="M968.64 287.3C968.84 287.3 969.05 287.3 969.26 287.29C969.9 287.29 970.53 287.11 971.18 287.11C973.25 287.1 975.33 286.95 977.4 286.93C979.33 286.91 981.26 286.92 983.17 287.1C983.52 287.13 984.04 288.06 983.99 288.53C983.89 289.31 983.59 290.44 983.02 290.72C982.14 291.14 980.95 291.07 979.91 291.02C976.62 290.84 975.17 290.34 971.88 290.14C970.97 290.09 968.35 289.71 967.44 289.67C966.76 289.64 966.15 289.63 965.48 289.48C965.4 289.46 965.03 289.15 965.03 289.12C965.14 288.26 964.88 288.83 965.18 288.04C965.36 287.56 966.71 287.51 967.07 287.45C967.59 287.37 968.12 287.33 968.64 287.31V287.3Z" fill="#BA9F67"/>
<path d="M978.11 251.2C979.32 252.68 981.5 252.4 982.78 252.06C982.8 252.06 983.35 252.04 983.45 251.86C983.86 251.12 984.7 250.02 984.36 249.62C983.61 248.75 982.29 247.73 981.12 247.66C979.68 247.56 976.31 247.25 976.5 250.02C976.53 250.49 977.86 250.89 978.11 251.19V251.2Z" fill="#BA9F67"/>
<path d="M974.351 261.84C974.641 261.88 975.521 261.55 975.811 261.53C976.241 261.5 976.841 261.42 977.271 261.4C978.501 261.35 979.091 261.27 980.321 261.21C980.901 261.18 982.591 260.45 983.231 261.09C983.781 261.64 983.261 262 983.741 262.63C983.861 262.79 983.651 263.79 983.401 264.03C982.861 264.54 982.201 265.09 981.581 265.12C980.261 265.18 979.031 264.64 977.711 264.51C976.371 264.38 974.971 264.19 973.641 263.95C973.281 263.89 972.631 263.56 972.631 263.42C972.651 262.64 972.721 262.3 973.351 262.19C973.461 262.17 974.231 261.82 974.341 261.83L974.351 261.84Z" fill="#BA9F67"/>
<path d="M981.45 338.65C982.39 338.68 983.17 338.85 983.49 339.31C983.84 339.82 983.89 340.86 983.49 341.27C982.66 342.12 981.54 343.11 980.35 343.31C978.9 343.56 977.26 343.06 975.71 342.91C975.18 342.86 974.63 342.87 974.09 342.85C972.93 342.81 970.87 342.33 969.67 341.78C968.82 341.39 966.02 341.18 964.96 341.09C964.83 341.08 964.6 341.01 964.59 340.95C964.44 339.87 963.87 340.34 964.92 339.42C965.04 339.31 968.05 338.83 968.27 338.84C970.83 338.92 973.56 339.11 976.18 339.1C977.16 339.1 979.61 338.61 981.44 338.66L981.45 338.65Z" fill="#BA9F67"/>
<path d="M979.1 300.33C977.88 300.52 975.12 300.26 976.7 302.38C978.05 304.19 979.72 304.27 981.38 304.14C982.36 304.07 983.51 304.14 983.99 302.76C983.99 300.79 982.44 299.53 981.1 299.85C980.43 300.01 979.77 300.22 979.1 300.32V300.33Z" fill="#BA9F67"/>
<path d="M972.081 327.66C972.081 327.3 972.291 327.03 972.701 326.83C973.621 326.39 974.851 326.59 975.821 326.58C977.341 326.56 978.951 326.2 980.471 326.15C980.701 326.15 980.951 326.01 981.151 325.84C981.791 325.31 982.701 326.18 983.101 326.89C984.141 328.72 983.171 329.64 982.481 330.13C982.291 330.26 981.591 330.4 981.131 330.32C980.051 330.13 978.861 330.22 977.781 329.99C976.161 329.64 974.511 329.44 972.911 328.96C972.551 328.85 972.321 328.61 972.191 328.28C972.121 328.1 972.061 327.81 972.061 327.66H972.081Z" fill="#BA9F67"/>
<path d="M974.01 314.15C975.51 313.86 978.02 313.66 979.08 313.45C980.11 313.25 981.15 312.88 982.17 312.91C982.68 312.93 983.23 313.61 983.63 314.18C983.75 314.35 983.4 315.13 983.26 315.62C982.67 317.71 981.39 316.96 980.28 316.98C979.1 317 975.97 316.33 974.79 316.42C973.41 316.53 973.24 316.09 973.75 314.37C973.82 314.13 974.17 314.03 974.02 314.15H974.01Z" fill="#BA9F67"/>
<path d="M971.98 275.63C971.98 275.27 972.2 275 972.63 274.8C973.59 274.36 974.88 274.56 975.91 274.55C977.5 274.53 979.2 274.17 980.79 274.12C981.03 274.12 981.29 273.98 981.5 273.81C982.17 273.28 983.13 274.15 983.55 274.86C984.64 276.69 983.631 277.61 982.901 278.1C982.701 278.23 981.97 278.37 981.49 278.29C980.36 278.1 979.11 278.19 977.98 277.96C976.28 277.61 974.56 277.4 972.88 276.92C972.5 276.81 972.26 276.57 972.12 276.24C972.05 276.06 971.98 275.77 971.98 275.62V275.63Z" fill="#BA9F67"/>
<path d="M970.152 187.07C970.362 187.07 970.562 187.07 970.772 187.07C971.412 187.07 972.042 186.91 972.692 186.91C974.762 186.9 976.842 186.77 978.912 186.75C980.842 186.74 982.772 186.75 984.682 186.9C985.032 186.93 985.552 187.76 985.502 188.18C985.402 188.88 985.102 189.89 984.532 190.14C983.652 190.52 982.462 190.46 981.422 190.4C978.132 190.24 976.682 189.78 973.392 189.61C972.482 189.56 969.862 189.22 968.952 189.19C968.272 189.16 967.662 189.16 966.992 189.02C966.912 189 966.542 188.72 966.542 188.69C966.652 187.92 966.392 188.43 966.692 187.72C966.872 187.29 968.222 187.25 968.582 187.2C969.102 187.13 969.632 187.09 970.152 187.08V187.07Z" fill="#BA9F67"/>
<path d="M982.991 233.09C983.931 233.12 984.711 233.27 985.031 233.68C985.381 234.14 985.431 235.07 985.031 235.43C984.201 236.19 983.081 237.08 981.891 237.26C980.441 237.48 978.811 237.03 977.251 236.9C976.721 236.85 976.171 236.86 975.631 236.85C974.471 236.81 972.411 236.38 971.211 235.89C970.361 235.54 967.561 235.35 966.501 235.27C966.371 235.26 966.141 235.2 966.131 235.14C965.981 234.18 965.411 234.59 966.461 233.76C966.581 233.66 969.591 233.24 969.811 233.24C972.371 233.32 975.101 233.49 977.721 233.48C978.701 233.48 981.151 233.04 982.981 233.09H982.991Z" fill="#BA9F67"/>
<path d="M980.61 198.75C979.39 198.92 976.63 198.69 978.21 200.59C979.56 202.21 981.24 202.28 982.89 202.17C983.87 202.1 985.02 202.17 985.5 200.93C985.5 199.16 983.95 198.03 982.61 198.32C981.94 198.46 981.28 198.65 980.61 198.74V198.75Z" fill="#BA9F67"/>
<path d="M973.612 223.24C973.612 222.92 973.822 222.68 974.232 222.5C975.152 222.1 976.382 222.29 977.352 222.27C978.872 222.25 980.482 221.93 982.002 221.88C982.232 221.88 982.482 221.76 982.682 221.61C983.322 221.13 984.232 221.92 984.642 222.55C985.682 224.19 984.712 225.02 984.022 225.45C983.832 225.57 983.132 225.69 982.672 225.62C981.592 225.45 980.402 225.53 979.322 225.33C977.702 225.02 976.052 224.83 974.452 224.4C974.092 224.3 973.862 224.08 973.732 223.79C973.662 223.63 973.602 223.37 973.602 223.24H973.612Z" fill="#BA9F67"/>
<path d="M975.531 211.13C977.031 210.87 979.541 210.69 980.601 210.51C981.631 210.33 982.671 210 983.691 210.03C984.201 210.05 984.751 210.66 985.151 211.17C985.271 211.33 984.921 212.02 984.791 212.46C984.201 214.33 982.921 213.66 981.811 213.68C980.631 213.7 977.501 213.09 976.321 213.17C974.941 213.27 974.771 212.88 975.281 211.33C975.351 211.11 975.701 211.03 975.551 211.13H975.531Z" fill="#BA9F67"/>
<path d="M961.081 450.93C961.391 450.93 961.711 450.93 962.021 450.93C963.001 450.93 963.971 450.79 964.961 450.79C968.131 450.79 971.311 450.67 974.481 450.66C977.431 450.65 980.401 450.66 983.321 450.8C983.851 450.82 984.661 451.54 984.571 451.9C984.421 452.5 983.961 453.37 983.081 453.58C981.741 453.9 979.911 453.85 978.321 453.8C973.281 453.66 971.061 453.27 966.021 453.11C964.631 453.07 960.611 452.77 959.221 452.74C958.181 452.72 957.251 452.71 956.221 452.59C956.091 452.58 955.521 452.33 955.531 452.31C955.691 451.65 955.301 452.09 955.771 451.48C956.051 451.11 958.121 451.07 958.671 451.03C959.471 450.97 960.271 450.94 961.081 450.93Z" fill="#BA9F67"/>
<path d="M967.241 423.22C970.821 424.36 977.231 424.15 981.021 423.89C981.091 423.89 982.711 423.87 983.011 423.74C984.231 423.17 986.701 422.33 985.691 422.02C983.481 421.35 979.591 420.57 976.121 420.51C971.871 420.43 961.931 420.19 962.481 422.32C962.571 422.68 966.501 422.99 967.241 423.22Z" fill="#BA9F67"/>
<path d="M949.25 431.39C950.33 431.42 953.56 431.17 954.64 431.15C956.24 431.12 958.42 431.07 960.03 431.05C964.57 431.01 966.73 430.95 971.27 430.91C973.41 430.89 979.64 430.33 981.99 430.82C984 431.24 982.1 431.52 983.86 432C984.32 432.13 983.54 432.89 982.61 433.08C980.62 433.47 978.19 433.89 975.89 433.91C971.04 433.96 966.51 433.54 961.64 433.44C956.69 433.34 951.56 433.19 946.65 433.01C945.32 432.96 942.92 432.71 942.93 432.6C943.02 432 943.27 431.74 945.59 431.66C946 431.65 948.84 431.37 949.24 431.39H949.25Z" fill="#BA9F67"/>
<path d="M979.031 490.37C981.051 490.39 982.711 490.53 983.381 490.88C984.131 491.27 984.241 492.07 983.381 492.38C981.601 493.03 979.211 493.79 976.681 493.94C973.581 494.13 970.091 493.74 966.761 493.62C965.621 493.58 964.461 493.59 963.311 493.57C960.831 493.54 956.431 493.17 953.871 492.74C952.051 492.44 946.061 492.28 943.801 492.2C943.521 492.2 943.041 492.14 943.021 492.09C942.691 491.26 941.491 491.62 943.731 490.91C944.001 490.83 950.431 490.46 950.891 490.47C956.351 490.54 962.181 490.69 967.801 490.68C969.891 490.68 975.131 490.31 979.031 490.35V490.37Z" fill="#BA9F67"/>
<path d="M970.171 460.95C966.561 461.1 958.431 460.89 963.101 462.52C967.081 463.91 972.021 463.97 976.911 463.88C979.791 463.83 983.181 463.88 984.621 462.82C984.601 461.31 980.051 460.34 976.091 460.58C974.121 460.7 972.171 460.86 970.171 460.94V460.95Z" fill="#BA9F67"/>
<path d="M963.84 481.92C963.84 481.65 964.2 481.44 964.89 481.29C966.45 480.95 968.54 481.11 970.2 481.1C972.78 481.08 975.52 480.81 978.1 480.77C978.49 480.77 978.91 480.66 979.25 480.54C980.33 480.13 981.88 480.8 982.57 481.35C984.34 482.76 982.69 483.46 981.52 483.84C981.2 483.94 980.01 484.05 979.23 483.98C977.4 483.83 975.37 483.9 973.54 483.72C970.78 483.45 967.99 483.29 965.27 482.92C964.65 482.84 964.26 482.65 964.05 482.4C963.93 482.26 963.83 482.04 963.83 481.93L963.84 481.92Z" fill="#BA9F67"/>
<path d="M955.171 471.55C959.591 471.33 966.991 471.18 970.111 471.02C973.151 470.87 976.201 470.58 979.231 470.61C980.721 470.62 982.371 471.15 983.521 471.59C983.881 471.72 982.851 472.32 982.441 472.7C980.701 474.3 976.911 473.73 973.641 473.74C970.171 473.75 960.911 473.23 957.451 473.3C953.381 473.38 952.881 473.05 954.381 471.73C954.591 471.54 955.631 471.47 955.161 471.56L955.171 471.55Z" fill="#BA9F67"/>
<path d="M949.18 441.97C949.19 441.7 949.84 441.49 951.1 441.34C953.95 441 957.75 441.16 960.77 441.15C965.47 441.14 970.46 440.86 975.16 440.82C975.87 440.82 976.64 440.71 977.26 440.59C979.23 440.18 982.06 440.85 983.31 441.4C986.53 442.81 983.54 443.52 981.39 443.89C980.81 443.99 978.64 444.1 977.23 444.03C973.89 443.88 970.21 443.95 966.87 443.77C961.85 443.5 956.77 443.34 951.81 442.97C950.68 442.89 949.98 442.7 949.58 442.45C949.37 442.31 949.17 442.09 949.18 441.98V441.97Z" fill="#BA9F67"/>
<path d="M971.11 370.95C971.3 370.95 971.49 370.95 971.69 370.95C972.29 370.95 972.88 370.81 973.49 370.81C975.43 370.81 977.38 370.69 979.32 370.68C981.13 370.67 982.94 370.68 984.73 370.82C985.05 370.84 985.55 371.56 985.49 371.92C985.4 372.52 985.12 373.39 984.58 373.6C983.76 373.92 982.64 373.87 981.67 373.82C978.59 373.68 977.23 373.29 974.14 373.13C973.29 373.09 970.83 372.79 969.98 372.76C969.34 372.74 968.78 372.73 968.15 372.61C968.07 372.6 967.72 372.35 967.73 372.33C967.83 371.67 967.59 372.11 967.87 371.5C968.04 371.13 969.31 371.09 969.65 371.05C970.14 370.99 970.63 370.96 971.13 370.95H971.11Z" fill="#BA9F67"/>
<path d="M979.98 343.24C981.12 344.38 983.16 344.17 984.36 343.91C984.38 343.91 984.9 343.89 984.99 343.76C985.38 343.19 986.16 342.35 985.84 342.04C985.14 341.37 983.9 340.59 982.8 340.53C981.45 340.45 978.29 340.21 978.47 342.34C978.5 342.7 979.75 343.01 979.98 343.24Z" fill="#BA9F67"/>
<path d="M976.46 351.4C976.73 351.43 977.56 351.18 977.83 351.16C978.24 351.13 978.79 351.08 979.2 351.06C980.36 351.02 980.91 350.96 982.06 350.92C982.61 350.9 984.19 350.34 984.79 350.83C985.3 351.25 984.82 351.53 985.27 352.01C985.39 352.14 985.19 352.9 984.95 353.09C984.44 353.48 983.82 353.9 983.24 353.92C982 353.97 980.85 353.55 979.61 353.45C978.35 353.35 977.04 353.2 975.79 353.02C975.45 352.97 974.84 352.72 974.84 352.61C974.86 352.01 974.93 351.75 975.52 351.67C975.62 351.66 976.35 351.38 976.45 351.4H976.46Z" fill="#BA9F67"/>
<path d="M983.131 410.39C984.021 410.41 984.741 410.55 985.041 410.9C985.371 411.29 985.421 412.09 985.041 412.4C984.261 413.05 983.211 413.81 982.101 413.96C980.741 414.15 979.211 413.76 977.751 413.64C977.251 413.6 976.741 413.61 976.241 413.59C975.151 413.56 973.221 413.19 972.101 412.76C971.301 412.46 968.681 412.3 967.681 412.22C967.561 412.22 967.351 412.16 967.341 412.11C967.201 411.28 966.671 411.64 967.651 410.93C967.771 410.85 970.591 410.48 970.791 410.49C973.191 410.56 975.741 410.71 978.211 410.7C979.131 410.7 981.431 410.33 983.141 410.37L983.131 410.39Z" fill="#BA9F67"/>
<path d="M980.911 380.96C979.761 381.11 977.181 380.9 978.661 382.53C979.921 383.92 981.501 383.98 983.051 383.89C983.961 383.84 985.041 383.89 985.501 382.83C985.501 381.32 984.051 380.35 982.791 380.59C982.161 380.71 981.541 380.87 980.911 380.95V380.96Z" fill="#BA9F67"/>
<path d="M928.861 490.08C926.781 490.23 922.111 490.02 924.791 491.65C927.081 493.04 929.921 493.1 932.741 493.01C934.401 492.96 936.351 493.01 937.171 491.95C937.161 490.44 934.541 489.47 932.261 489.71C931.131 489.83 930.011 489.99 928.861 490.07V490.08Z" fill="#BA9F67"/>
<path d="M974.33 401.94C974.33 401.67 974.53 401.46 974.91 401.31C975.77 400.97 976.92 401.13 977.84 401.12C979.26 401.1 980.78 400.83 982.2 400.79C982.41 400.79 982.65 400.68 982.84 400.56C983.44 400.15 984.29 400.82 984.67 401.37C985.65 402.78 984.74 403.49 984.09 403.86C983.92 403.96 983.26 404.07 982.83 404C981.82 403.85 980.7 403.92 979.69 403.74C978.17 403.47 976.63 403.31 975.13 402.94C974.79 402.86 974.57 402.67 974.45 402.42C974.39 402.28 974.33 402.06 974.33 401.95V401.94Z" fill="#BA9F67"/>
<path d="M976.141 391.57C977.541 391.35 979.901 391.2 980.891 391.04C981.861 390.89 982.831 390.6 983.791 390.63C984.261 390.64 984.791 391.17 985.151 391.61C985.261 391.74 984.941 392.34 984.811 392.72C984.261 394.32 983.051 393.75 982.011 393.76C980.911 393.77 977.971 393.25 976.861 393.32C975.571 393.4 975.411 393.07 975.891 391.75C975.961 391.56 976.291 391.49 976.141 391.58V391.57Z" fill="#BA9F67"/>
<path d="M974.24 361.99C974.24 361.72 974.45 361.51 974.85 361.36C975.75 361.02 976.96 361.18 977.92 361.17C979.41 361.16 981 360.88 982.49 360.84C982.72 360.84 982.96 360.73 983.16 360.61C983.79 360.2 984.69 360.87 985.08 361.42C986.1 362.83 985.15 363.54 984.47 363.91C984.29 364.01 983.6 364.12 983.15 364.05C982.09 363.9 980.92 363.97 979.86 363.79C978.26 363.52 976.65 363.36 975.08 362.99C974.72 362.91 974.5 362.72 974.37 362.47C974.3 362.33 974.24 362.11 974.24 362V361.99Z" fill="#BA9F67"/>
</svg>
