<svg width="308" height="120" viewBox="0 0 308 120" fill="none" xmlns="http://www.w3.org/2000/svg">
<g clip-path="url(#clip0_1275_93207)">
<path d="M256 2H52C24.3858 2 2 24.3858 2 52C2 79.6142 24.3858 102 52 102H256C283.614 102 306 79.6142 306 52C306 24.3858 283.614 2 256 2Z" fill="#A32244"/>
<path d="M242.979 103.52C239.219 103.71 235.229 103.18 230.979 103.27C226.729 103.36 222.429 103.31 218.159 103.28C215.999 103.27 213.959 103.35 211.879 103.51C209.859 103.66 207.529 103.32 205.609 103.75C205.439 103.79 205.039 103.75 204.739 103.75C199.579 103.75 194.299 103.93 189.289 103.7C183.459 103.44 177.709 103.62 171.939 103.51C162.529 104.01 153.019 103.64 143.559 103.73C140.599 103.75 137.629 103.85 134.599 103.55C132.009 103.29 128.849 103.76 126.139 103.3C125.919 103.26 125.389 103.36 124.979 103.38C124.019 103.43 123.009 103.55 122.109 103.51C116.679 103.26 116.699 103.25 112.169 103.48C111.629 103.51 110.969 103.32 110.359 103.31C107.859 103.28 105.349 103.25 102.869 103.3C100.629 103.34 98.2495 103.08 96.1195 103.51C95.6595 103.6 94.6894 103.52 93.9494 103.52C91.5894 103.52 89.2294 103.49 86.8794 103.52C84.1894 103.56 81.4494 103.36 78.8094 103.73C77.6594 103.89 75.9894 103.46 75.3094 103.56C74.0395 103.73 72.8695 103.77 71.6195 103.74C70.3995 103.71 69.2094 103.54 67.9995 103.53C66.9494 103.53 65.8995 103.72 64.8295 103.74C62.1795 103.77 59.3395 103.6 56.9195 103.79C54.3095 104 51.8595 104 49.1795 103.83L47.1095 103.73C46.4195 103.71 45.7395 103.54 45.0595 103.45C43.6995 103.21 42.3195 103.08 40.9795 102.79C39.9395 102.54 38.9595 102.26 38.0095 101.96C37.5395 101.81 37.0695 101.66 36.5995 101.5C36.1495 101.3 35.6895 101.11 35.2295 100.91C34.3095 100.52 33.2995 100.21 32.3195 99.86C31.3495 99.51 30.4695 98.97 29.7495 98.41C29.6895 98.36 29.4795 98.28 29.3495 98.21C27.4695 97.35 25.7795 96.15 24.0295 95.06C23.1395 94.54 22.3695 93.85 21.5395 93.24C20.7395 92.6 19.8895 92.01 19.1095 91.34C13.6995 86.74 9.18945 81.06 6.05945 74.68C5.62945 73.77 5.13945 72.86 4.71945 71.94C4.37945 70.98 4.07945 70.02 3.92945 69.08C3.86945 68.69 3.46945 67.92 3.33945 67.42C2.99945 65.49 1.97945 64.14 1.81945 62.25C1.83945 60.54 1.40945 58.82 1.19945 57.1C1.14945 56.13 1.10945 55.15 1.05945 54.17L0.979453 52.7L0.949453 51.97L0.989453 51.24C1.06945 49.89 1.06945 48.67 0.939453 47.53C1.13945 46.8 1.34945 45.92 1.48945 44.99C1.63945 44.07 1.75945 43.11 1.98945 42.27C2.28945 41.16 2.91945 39.5 2.96945 38.65C3.05945 36.74 3.93945 35.06 4.51945 33.31C4.90945 31.99 5.61945 30.79 6.17945 29.53C6.46945 28.91 6.75945 28.28 7.02945 27.65C7.34945 27.05 7.66945 26.44 7.95945 25.82C8.20945 25.29 8.54945 24.71 8.91945 24.12C9.10945 23.83 9.28945 23.52 9.49945 23.23C9.71945 22.95 9.93945 22.68 10.1495 22.42C10.9295 21.44 11.7795 20.57 12.5395 19.58C13.3095 18.72 14.0995 17.89 14.8395 17.02C15.2195 16.59 15.5695 16.14 15.9595 15.71C16.3595 15.3 16.7595 14.89 17.1395 14.46C17.8195 13.72 18.6595 12.99 19.5095 12.29C20.4095 11.64 21.2795 10.97 21.9495 10.19C22.1295 9.97996 22.6695 9.60996 23.0195 9.38996C23.9795 8.85996 24.9195 8.39996 25.8395 7.85996C26.2995 7.58996 26.7595 7.30996 27.2295 6.99996C27.6895 6.67996 28.2195 6.42996 28.7295 6.09996C29.5695 5.57996 30.5795 5.07996 31.6395 4.59996C32.7195 4.15996 33.8695 3.81996 34.9395 3.41996C35.5095 3.20996 36.0795 2.98996 36.6595 2.77996L38.4295 2.29996C39.6095 1.99996 40.7795 1.65996 41.9395 1.48996C43.4395 1.32996 44.0995 0.649962 45.9195 0.739962C46.1595 0.759962 46.4595 0.729962 46.7995 0.709962C47.1395 0.709962 47.5095 0.699962 47.8995 0.679962C48.6795 0.639962 49.5195 0.589962 50.2595 0.549962C51.7895 0.459962 53.3295 0.389962 54.7195 0.479962C62.0795 0.939962 69.5395 0.559962 76.9194 0.709962C80.0395 0.769962 83.3195 0.419962 86.2895 0.929962C88.4894 0.549962 91.1994 0.879962 93.3195 0.619962C94.6594 0.459962 95.8294 0.469962 97.0594 0.469962C105.169 0.469962 113.279 0.459962 121.379 0.449962C126.719 0.379962 132.039 0.309962 137.379 0.239962C138.879 0.229962 140.349 0.179962 141.969 0.409962C143.169 0.579962 145.339 0.599962 146.939 0.299962C147.249 0.239962 147.889 0.189962 148.119 0.229962C151.149 0.779962 154.159 0.209962 157.139 0.189962C162.969 0.149962 168.669 0.489962 174.469 0.449962C175.699 0.449962 177.149 0.609962 178.109 0.239962C179.059 0.549962 179.779 0.399962 180.949 0.259962C182.159 0.119962 184.149 0.0999619 185.209 0.269962C186.659 0.509962 187.989 0.419962 189.369 0.449962C190.839 0.449962 192.319 0.449962 193.789 0.449962C200.009 0.529962 206.229 0.609962 212.439 0.689962C213.659 0.709962 214.839 0.849962 216.059 0.909962C217.279 0.969962 218.599 0.799962 219.759 1.10996C220.189 1.22996 221.439 1.13996 222.319 1.13996C225.419 1.13996 228.759 1.33996 231.539 1.08996C234.289 0.839962 237.229 1.14996 239.769 0.699962C240.479 0.569962 241.789 0.699962 242.819 0.679962C246.969 0.569962 251.239 0.949962 255.279 0.449962C256.769 0.759962 258.599 0.839962 260.319 0.889962C260.639 0.899962 260.969 0.919962 261.289 0.959962C261.619 1.01996 261.949 1.06996 262.269 1.12996C262.919 1.22996 263.539 1.27996 264.089 1.17996C264.219 1.15996 264.659 1.21996 264.929 1.27996C266.449 1.52996 267.719 2.17996 269.399 2.51996C270.099 2.67996 270.749 2.75996 271.399 2.88996C272.039 3.05996 272.709 3.24996 273.439 3.51996C278.769 5.46996 283.539 8.46996 288.009 11.93C288.559 12.48 289.109 13.11 289.729 13.69C290.339 14.28 290.999 14.86 291.639 15.45C292.749 16.51 293.759 17.61 294.839 18.66C295.099 18.93 295.379 19.19 295.629 19.47L296.349 20.36C296.829 20.96 297.299 21.58 297.749 22.22C298.669 23.4 299.349 24.81 300.159 26.11C300.999 27.39 301.629 28.76 302.329 29.99L303.219 31.61C303.519 32.15 303.699 32.73 303.939 33.3C304.379 34.44 304.819 35.59 305.229 36.74C305.809 39.12 306.529 41.46 306.829 43.89C306.929 44.51 307.069 45.16 307.159 45.81C307.199 46.13 307.239 46.45 307.239 46.77C307.219 47.08 307.179 47.39 307.109 47.68C307.039 47.96 307.149 49.32 307.269 49.69C307.519 50.48 307.459 51.42 307.529 52.19C307.589 53.3 307.369 54.39 307.209 55.46C307.129 56 307.059 56.53 307.039 57.07C306.999 57.61 306.959 58.15 307.039 58.71L306.489 62.31L305.589 65.84C305.419 66.42 305.319 67.03 305.109 67.6L304.489 69.31L303.859 71.02C303.659 71.59 303.439 72.16 303.159 72.7C302.659 73.72 302.249 74.75 301.539 75.7C301.119 76.37 300.059 77.89 299.799 78.64C299.449 79.5 299.049 80.37 298.489 81.13C297.919 81.88 297.349 82.63 296.789 83.37C293.369 87.82 289.219 91.72 284.549 94.84C283.489 95.47 282.429 96.08 281.359 96.68L280.559 97.13L279.719 97.5L278.039 98.24C277.469 98.49 276.909 98.76 276.349 99.04C275.789 99.33 275.179 99.51 274.599 99.75C273.419 100.18 272.249 100.62 271.059 100.85C270.889 100.87 270.639 100.95 270.449 101.01C269.519 101.3 268.579 101.65 267.649 101.87C266.439 102.22 264.749 102.12 264.069 102.36C262.699 102.79 261.759 102.74 260.699 102.77C257.609 102.85 255.719 102.31 256.079 101.53C256.159 101.36 256.499 101.16 256.919 101C258.239 100.52 258.879 100.29 259.739 100.15C260.159 100.07 260.649 100.06 261.269 99.95C261.899 99.85 262.679 99.72 263.709 99.54C264.369 99.44 265.029 99.34 265.679 99.24L267.609 98.79L269.539 98.35C269.859 98.27 270.189 98.22 270.509 98.13L271.449 97.82C272.699 97.39 273.969 97.02 275.209 96.52C276.409 95.96 277.609 95.38 278.799 94.76C279.629 94.47 280.399 94.01 281.189 93.59C281.969 93.14 282.769 92.71 283.519 92.19L285.699 90.53C286.429 89.98 287.169 89.45 287.829 88.83C289.249 87.6 290.779 86.45 292.039 85.04C292.689 84.36 293.369 83.69 293.969 82.97C294.529 82.22 295.069 81.45 295.569 80.68C296.639 79.18 297.429 77.54 298.389 76C298.889 75.24 299.239 74.41 299.639 73.6L300.829 71.16L302.359 67.32C302.479 67 302.629 66.68 302.739 66.36L303.029 65.37L303.589 63.37C304.029 61.99 304.179 60.54 304.389 59.11C304.499 58.39 304.609 57.68 304.719 56.97C304.759 56.25 304.809 55.54 304.869 54.84C304.949 53.97 305.079 53.07 305.179 52.18C305.229 51.29 305.179 50.41 305.069 49.58C304.929 48.68 304.849 47.77 304.759 46.85C304.599 45.95 304.459 45.04 304.319 44.13L304.119 42.77L304.019 42.09L303.849 41.43C303.619 40.55 303.379 39.68 303.119 38.84C302.919 38.26 302.789 37.65 302.549 37.08L301.869 35.36C301.399 34.22 301.049 33.03 300.459 31.94C299.919 30.84 299.389 29.72 298.839 28.63C298.189 27.59 297.539 26.56 296.879 25.54L296.339 24.72L295.729 23.96L294.509 22.43C294.099 21.93 293.719 21.39 293.289 20.91L291.959 19.47C291.139 18.59 290.439 17.71 289.559 16.76C289.129 16.26 288.559 15.68 287.929 15.11C287.609 14.83 287.289 14.54 286.939 14.29C286.579 14.06 286.209 13.84 285.839 13.64C285.239 13.31 284.299 12.7 283.879 12.28C283.669 12.06 283.439 11.85 283.219 11.64C282.979 11.45 282.729 11.28 282.469 11.1C281.959 10.75 281.439 10.41 280.909 10.09L279.299 9.12996C278.729 8.85996 278.169 8.59996 277.609 8.33996C276.899 7.99996 276.189 7.56996 275.529 7.17996C274.889 6.75996 274.239 6.55996 273.779 6.43996C272.989 6.27996 272.269 6.04996 271.569 5.79996C271.219 5.66996 270.879 5.53996 270.529 5.41996L269.459 5.14996C268.429 4.90996 267.249 4.71996 266.409 4.18996C266.189 4.01996 265.169 3.82996 264.849 3.85996C263.019 4.00996 261.059 3.38996 259.139 3.38996C257.989 3.34996 256.849 3.26996 255.689 3.24996H252.149L245.069 3.23996C241.169 3.21996 237.419 3.64996 233.499 3.47996C231.109 3.87996 228.449 3.69996 225.909 3.69996C223.969 3.69996 222.029 3.55996 220.079 3.47996C218.139 3.39996 216.239 3.47996 214.189 3.29996C211.659 3.07996 208.649 3.27996 205.849 3.23996C204.329 3.21996 202.629 3.43996 201.259 3.05996C201.069 3.00996 200.369 3.01996 200.109 3.05996C198.109 3.45996 195.589 3.34996 193.809 3.18996C190.899 2.93996 188.109 3.04996 185.269 3.00996C182.919 3.00996 180.549 2.99996 178.199 2.98996C176.509 2.96996 174.859 3.04996 173.089 2.87996C171.729 2.74996 169.929 2.96996 168.319 2.98996C166.699 3.01996 165.079 2.98996 163.459 2.98996H152.849C150.929 2.98996 149.009 3.01996 147.099 2.98996C145.289 2.94996 143.519 2.78996 141.709 2.77996C136.649 2.72996 131.689 3.15996 126.599 2.99996C125.219 3.28996 123.889 3.07996 122.449 3.01996C121.129 2.96996 119.579 2.84996 118.259 3.13996C117.889 3.21996 117.189 3.19996 116.639 3.21996C115.409 3.25996 114.349 2.98996 112.889 3.18996C111.859 3.33996 110.289 3.18996 108.969 3.22996C107.589 3.25996 106.019 3.05996 104.859 3.41996C102.429 2.87996 100.109 3.70996 97.6795 3.45996C96.9194 3.37996 96.0795 3.34996 95.2794 3.29996C94.8794 3.26996 94.4295 3.19996 94.0795 3.22996C87.6295 3.71996 81.0395 3.31996 74.5395 3.45996C73.7394 3.47996 72.9695 3.57996 72.1694 3.62996C71.7895 3.64996 71.3595 3.66996 70.9795 3.63996C67.4195 3.43996 67.4295 3.44996 64.0995 3.63996C63.2595 3.68996 62.3495 3.63996 61.4895 3.66996C59.2395 3.72996 57.0495 3.62996 54.7195 3.85996C52.3495 4.03996 49.9495 3.78996 47.5895 3.72996C46.5395 3.69996 45.5195 3.84996 44.4595 3.92996C43.4095 4.04996 42.3095 4.08996 41.2095 4.42996C39.8295 4.81996 38.4195 5.10996 37.0595 5.56996L33.0195 7.05996L29.1395 8.92996C27.8795 9.60996 26.6695 10.4 25.4395 11.13C24.7995 11.47 23.9895 12.03 23.7195 12.34C23.1795 13 22.6595 13.59 22.0695 14.07C21.7795 14.32 21.4495 14.51 21.1295 14.71C20.8095 14.92 20.4495 15.09 20.0495 15.23C19.9695 15.26 19.5295 15.66 19.4595 15.78C19.0795 16.41 18.5195 16.99 17.8995 17.55C17.3195 18.14 16.7195 18.75 16.1795 19.33C12.0495 23.81 9.28945 29.17 6.97945 34.72C6.61945 35.62 6.26945 36.9 5.93945 37.39C5.31945 38.47 5.64945 39.18 5.27945 40.17C4.98945 41.01 4.76945 42.29 4.59945 43.01C4.18945 44.29 3.88945 45.69 3.68945 47.08C3.61945 48.48 3.61945 49.87 3.61945 51.14C3.61945 51.44 3.61945 51.73 3.62945 52.03L3.71945 52.92C3.77945 53.51 3.82945 54.1 3.88945 54.69C3.98945 55.86 4.00945 56.99 4.13945 58.05C4.22945 59.09 4.33945 60.13 4.46945 61.17C4.59945 62.21 4.91945 63.21 5.15945 64.23C5.57945 66.28 6.41945 68.2 7.09945 70.18C8.76945 74.11 10.7695 77.96 13.4895 81.3C14.4795 82.74 15.6895 84.21 17.0395 85.16C17.3295 85.34 17.7895 85.99 18.1995 86.36C19.1295 87.29 19.9895 88.27 20.9595 89.16C21.9795 89.99 23.1395 90.61 24.2195 91.37C25.0695 92.01 25.9295 92.51 26.9595 92.91C27.3395 93.05 27.8095 93.33 28.2995 93.68C28.5495 93.85 28.7995 94.04 29.0595 94.24C29.3295 94.42 29.5995 94.6 29.8595 94.77C30.8895 95.48 31.9495 96.23 33.1495 96.94C34.3895 97.54 35.7395 98.13 37.2695 98.65C38.6595 99 40.0595 99.36 41.4595 99.72C42.1495 99.94 42.8695 100.01 43.5895 100.13L45.7295 100.45C46.9195 100.67 48.0695 100.72 49.3695 100.6C49.9495 100.54 50.7295 100.56 51.5295 100.61C52.3295 100.67 53.2095 100.69 53.9295 100.76C56.2095 100.96 58.2995 100.98 60.5295 100.76C61.2995 100.68 62.2095 100.68 63.0595 100.68H78.5395C79.7895 100.68 81.0995 100.61 82.1195 100.89C82.9395 100.56 84.2394 100.67 85.3195 100.69C86.9795 100.73 88.6094 100.87 90.2694 100.9C92.2394 100.93 94.1594 100.9 96.1294 100.7C97.9394 100.51 100.129 100.82 102.079 100.54C102.449 100.49 103.219 100.68 103.759 100.66C105.999 100.59 108.419 100.9 110.489 100.44C110.659 100.4 111.139 100.4 111.349 100.44C113.929 100.9 116.479 100.55 119.029 100.44C121.809 100.31 124.349 100.69 127.069 100.68C130.169 100.67 133.389 100.53 136.329 100.71C141.389 101.02 146.429 100.87 151.469 100.9C156.629 100.94 161.789 100.93 166.949 100.9C169.189 100.89 171.419 100.72 173.659 100.69C176.159 100.65 178.669 100.69 181.179 100.69C183.539 100.69 185.899 100.69 188.259 100.69C189.359 100.69 190.589 100.57 191.549 100.85C191.749 100.91 192.419 100.93 192.699 100.88C194.719 100.57 196.669 100.59 198.719 100.87C199.299 100.95 200.159 100.87 200.859 100.92C202.799 101.03 204.459 100.76 206.249 100.68C207.899 100.6 209.769 100.89 211.229 100.46C211.429 100.4 212.239 100.4 212.489 100.46C215.789 101.18 219.569 99.98 222.849 100.65C224.159 100.24 225.519 100.71 226.559 100.65C228.069 100.56 229.519 100.45 231.089 100.46C232.559 100.46 234.049 100.48 235.509 100.46C238.199 100.41 240.919 100.6 243.599 100.26C244.499 100.15 246.179 100.07 247.279 100.4C247.479 100.46 248.059 100.45 248.449 100.43C251.399 100.3 254.989 100.66 255.719 101.26C256.149 101.61 256.099 102.04 255.759 102.4C255.589 102.58 254.309 102.69 253.489 102.82C252.079 103.05 250.729 103.36 249.199 103.45C247.379 103.56 245.389 103.48 243.009 103.48L242.979 103.52Z" fill="#9A0036"/>
<path d="M167.311 96.9399L163.371 105.47L159.431 114C157.021 119.23 150.981 119.23 148.571 114L144.631 105.47L140.691 96.9399" fill="#A32244"/>
<path d="M168.291 98.42C168.351 98.74 167.751 98.78 167.701 99.1C167.651 99.42 167.481 99.67 167.331 99.94C167.251 100.08 167.271 100.24 167.351 100.44C167.421 100.63 167.051 100.64 167.381 100.95C167.411 100.98 167.371 100.99 167.361 101.01C167.211 101.35 167.211 101.76 166.851 102C166.431 102.27 166.431 102.72 166.161 103.05C166.341 103.87 165.711 104.34 165.501 104.99C165.431 105.19 165.431 105.43 165.061 105.5C164.741 105.56 165.071 105.96 164.571 105.94C164.531 105.94 164.601 106.02 164.611 106.05C164.631 106.13 164.701 106.25 164.641 106.29C164.251 106.54 164.241 106.53 164.321 106.93C164.321 106.98 164.131 106.93 164.111 106.98C164.011 107.13 163.911 107.28 163.881 107.46C163.851 107.62 163.541 107.67 163.871 107.99C163.941 108.06 163.841 108.09 163.821 108.14C163.751 108.29 163.651 108.44 163.611 108.6C163.571 108.79 163.311 108.89 163.561 109.21C163.671 109.35 163.231 109.28 163.301 109.36C163.411 109.51 163.421 109.61 163.351 109.68C163.291 109.75 163.101 109.75 163.061 109.83C163.021 109.9 163.171 110.05 163.151 110.12C163.101 110.31 162.851 110.42 162.961 110.66C163.071 110.92 162.961 111.06 162.901 111.23C162.841 111.41 162.711 111.56 162.681 111.76C162.651 111.91 162.431 111.95 162.291 112.04C162.141 112.12 162.351 112.39 161.901 112.32C161.881 112.32 161.901 112.34 161.881 112.35C161.691 112.58 161.461 112.79 161.321 113.04C161.081 113.48 160.901 113.94 160.681 114.39C160.621 114.51 160.681 114.72 160.281 114.7C160.201 114.7 160.261 114.8 160.201 114.81C159.951 114.85 160.491 115.28 160.141 115.27C159.831 115.25 159.911 115.45 159.811 115.55C159.691 115.66 159.641 115.81 159.531 115.93C159.461 116.01 159.451 116.12 159.551 116.31C159.151 116.16 159.281 116.47 159.031 116.45C158.871 116.44 158.691 116.45 158.741 116.6C158.861 116.92 158.651 116.93 158.571 117.06C158.461 117.27 158.181 117.29 158.201 117.67C158.201 117.83 158.051 117.85 157.941 117.89C157.831 117.93 157.671 117.86 157.571 117.89C157.391 117.96 157.241 118.07 157.181 118.36C157.121 118.62 156.771 118.38 156.791 118.83C156.791 118.89 156.731 118.89 156.681 118.88C156.431 118.79 156.241 118.75 156.121 119.06C156.021 119.32 155.741 119.21 155.551 119.26C155.341 119.3 155.131 119.45 154.911 119.36C154.771 119.3 154.761 119.88 154.561 119.53C154.461 119.34 154.301 119.46 154.161 119.45C154.021 119.45 153.881 119.53 153.751 119.43C153.121 118.94 152.421 119.19 151.821 118.82C151.601 118.66 151.161 118.87 151.161 118.3C150.821 118.54 150.771 118.14 150.481 118.26C150.291 118.34 150.211 118.26 150.111 118.21C149.821 118 149.541 117.76 149.261 117.53L148.511 116.77C148.211 116.43 147.821 116.13 147.531 115.76C147.461 115.65 147.351 115.56 147.491 115.33C147.591 115.16 147.521 114.99 147.191 115.01C147.131 115.01 147.061 114.99 147.081 114.95C147.441 114.47 146.861 114.54 146.741 114.35C146.531 113.99 146.671 113.47 146.461 113.11C146.421 113.03 146.521 112.87 146.161 112.96C146.411 112.77 146.251 112.78 146.091 112.77C145.921 112.75 145.851 112.63 145.971 112.49C146.141 112.3 146.031 112.24 146.011 112.14C145.991 112.03 145.911 111.95 145.891 111.85C145.771 111.42 145.651 110.98 145.551 110.54C145.531 110.45 145.621 110.32 145.641 110.21C145.661 110.1 145.461 110.09 145.711 109.88C145.801 109.8 145.691 109.76 145.661 109.7C145.571 109.5 145.641 109.2 145.331 109.12C145.021 109.05 145.211 108.73 144.731 108.75C144.591 108.75 144.671 108.62 144.621 108.56C144.401 108.34 144.611 107.9 144.041 107.84C144.271 107.61 144.171 107.53 144.101 107.42C144.051 107.35 144.161 107.18 143.811 107.26C143.771 107.26 143.751 107.24 143.761 107.22C143.791 107.09 143.951 106.91 143.841 106.83C143.751 106.76 143.521 106.78 143.481 106.68C143.331 106.32 143.531 105.8 143.211 105.51C143.421 105.3 143.321 105.2 143.271 105.09C143.191 104.89 142.791 104.85 142.771 104.61C142.751 104.39 142.741 104.15 142.491 104.04C142.051 103.87 142.091 103.47 141.891 103.19C141.841 103.12 141.691 103.08 141.961 102.87C142.021 102.82 141.961 102.75 141.851 102.77C141.631 102.81 141.731 102.69 141.631 102.68C141.361 102.63 142.081 102.14 141.451 102.26L141.241 101.8C141.171 101.65 141.091 101.5 141.031 101.34C141.001 101.26 140.911 101.23 141.081 101.06C141.191 100.95 141.171 100.82 141.021 100.83C140.671 100.85 140.741 100.67 140.681 100.56C140.491 100.22 140.321 99.86 140.191 99.49C140.131 99.33 140.181 99.12 140.181 98.93C140.181 98.74 139.891 98.68 140.101 98.39C140.111 98.37 140.101 98.36 140.081 98.35C140.011 98.31 139.881 98.29 139.871 98.22C139.851 98.13 140.061 97.91 139.931 97.91C139.671 97.92 139.881 97.75 139.881 97.67C139.861 97.44 140.381 97.06 141.081 96.76C141.241 96.69 141.411 96.64 141.541 96.61C142.371 96.44 142.331 96.46 142.511 96.72C142.731 97.05 142.461 97.6 142.781 97.89C142.501 98.3 142.871 98.43 142.901 98.71C142.931 99 142.731 99.4 143.071 99.54C143.411 99.68 143.471 99.94 143.571 100.19C143.651 100.38 143.581 100.63 143.631 100.83C143.681 101.04 143.871 101.19 143.861 101.42C143.861 101.57 143.661 101.8 143.861 101.85C144.291 101.94 144.131 102.32 144.411 102.48C144.801 102.7 144.791 103.1 145.091 103.36C145.251 103.5 145.431 103.63 145.501 103.81C145.531 103.89 145.581 103.96 145.471 104.12C145.361 104.28 145.411 104.41 145.681 104.42C145.791 104.42 145.891 104.47 145.831 104.54C145.581 104.85 145.791 104.96 145.881 105.12C145.931 105.22 145.691 105.48 145.841 105.48C146.101 105.48 146.051 105.63 146.121 105.71C146.171 105.77 146.311 105.81 146.061 106C145.991 106.05 146.001 106.13 146.081 106.12C146.491 106.07 146.381 106.29 146.451 106.41C146.621 106.71 146.761 107.01 146.881 107.33C146.981 107.59 147.481 107.66 147.441 107.98C147.871 107.97 147.791 108.22 147.871 108.38C147.921 108.51 147.861 108.69 147.851 108.85C147.841 109.01 147.961 109.1 147.861 109.31C147.741 109.57 148.001 109.68 148.051 109.88C148.081 109.99 148.331 110.01 148.031 110.25C147.991 110.28 148.021 110.33 148.071 110.32C148.491 110.28 148.471 110.49 148.381 110.67C148.241 110.96 148.431 111.1 148.471 111.3C148.511 111.47 148.631 111.6 148.671 111.77C148.701 111.89 148.821 111.96 148.721 112.15C148.641 112.29 148.891 112.32 148.971 112.41C149.051 112.5 149.071 112.62 149.121 112.72L149.281 113.07L149.441 113.42C149.501 113.55 149.581 113.64 149.611 113.76C149.631 113.88 149.541 114.05 149.581 114.16C149.681 114.49 150.241 114.5 150.281 114.84C150.561 114.74 150.441 114.93 150.451 115.03C150.471 115.12 150.451 115.27 150.721 115.13C150.801 115.09 150.811 115.13 150.851 115.14C150.931 115.16 150.771 115.4 150.981 115.32C151.121 115.26 151.081 115.43 151.161 115.46C151.241 115.48 151.181 115.7 151.461 115.46C151.231 115.97 151.841 115.4 151.791 115.68C151.781 115.77 151.801 115.81 151.811 115.88C151.811 115.91 151.801 115.98 151.831 115.97C152.121 115.84 152.261 115.93 152.411 116.01C152.561 116.09 152.691 116.21 152.871 116.22C152.911 116.22 152.981 116.12 153.041 116.08C153.061 116.06 153.091 116.05 153.101 116.08C153.221 116.31 153.231 116.31 153.421 116.15C153.471 116.11 153.501 116.15 153.551 116.14C153.661 116.09 153.761 116.19 153.881 115.97C153.991 115.76 154.091 116.15 154.231 116.32C154.351 116.47 154.481 116.64 154.611 116.61C154.911 116.49 155.231 116.46 155.531 116.32C155.571 116.31 155.651 116.36 155.631 116.26C155.561 115.86 155.481 115.6 155.871 116.15C155.891 116.18 155.921 116.15 155.911 116.12C155.771 115.71 155.951 115.84 156.041 115.81C156.201 115.76 156.271 115.56 156.341 115.39C156.411 115.21 156.491 115.09 156.661 115.01C156.721 114.99 156.691 114.86 156.811 114.93C157.071 115.08 156.751 114.73 156.861 114.76C156.961 114.78 156.881 114.62 157.001 114.67C157.441 114.84 157.431 114.58 157.401 114.39C157.371 114.2 157.331 114.01 157.521 113.98C157.881 113.91 157.901 113.61 158.041 113.41C158.201 113.16 158.331 112.85 158.441 112.56C158.481 112.44 158.701 112.39 158.411 112.12C158.351 112.07 158.411 112.03 158.461 112C158.561 111.94 158.731 111.91 158.771 111.82C158.811 111.73 158.711 111.58 158.701 111.47C158.701 111.38 158.761 111.33 158.621 111.17C158.511 111.05 158.661 111.01 158.891 111.01C159.331 111.01 159.781 111.01 159.811 110.76C159.841 110.54 159.991 110.38 160.061 110.18C160.091 110.1 160.151 110.03 160.021 109.87C159.901 109.72 160.021 109.62 160.181 109.58C160.431 109.51 160.511 109.39 160.381 109.15C160.331 109.07 160.361 109.01 160.381 108.95L160.841 107.94C160.881 107.86 160.851 107.74 161.141 107.79C160.861 107.6 161.001 107.56 161.061 107.5C161.141 107.41 161.331 107.36 161.401 107.27C161.491 107.16 161.521 107.02 161.401 106.81C161.281 106.61 161.631 106.6 161.441 106.36C161.401 106.31 161.601 106.34 161.601 106.3C161.601 106.13 161.951 106.1 161.601 105.77C161.571 105.74 161.591 105.71 161.631 105.71C162.131 105.74 161.891 105.42 161.851 105.21C161.811 104.97 162.231 104.97 162.311 104.79C162.391 104.58 162.361 104.32 162.621 104.2C163.051 104 163.061 103.61 163.251 103.3C163.441 102.98 163.591 102.64 163.711 102.29C163.761 102.14 163.681 101.92 163.711 101.76C163.751 101.58 163.851 101.43 163.931 101.27C164.001 101.12 164.061 100.96 164.151 100.81C164.191 100.74 164.111 100.61 164.401 100.66C164.461 100.67 164.501 100.64 164.471 100.6C164.251 100.34 164.321 100.22 164.641 100.2C164.731 100.2 164.691 100.11 164.751 100.08C164.911 100 164.721 99.78 164.691 99.63C164.671 99.49 164.981 99.49 164.641 99.21C164.591 99.17 164.621 99.12 164.671 99.13C165.431 99.22 164.451 98.47 165.151 98.53C164.821 98.27 165.281 98.38 165.261 98.29C165.221 98.15 165.171 98.01 165.221 97.91C165.271 97.82 165.331 97.73 165.351 97.62C165.381 97.42 165.641 97.33 165.411 97.01C165.341 96.91 165.321 96.76 165.651 96.83C165.711 96.84 165.721 96.8 165.721 96.77C165.691 96.53 166.131 96.44 166.691 96.64C167.021 96.76 167.411 96.94 167.731 97.12C167.891 97.21 167.951 97.34 168.051 97.45C168.211 97.64 168.461 97.86 168.501 97.99C168.551 98.15 168.411 98.25 168.341 98.4L168.291 98.42Z" fill="#9A0036"/>
</g>
<defs>
<clipPath id="clip0_1275_93207">
<rect width="308" height="120" fill="white"/>
</clipPath>
</defs>
</svg>
