<svg width="308" height="120" viewBox="0 0 308 120" fill="none" xmlns="http://www.w3.org/2000/svg">
<path d="M256 2H52C24.3858 2 2 24.3858 2 52C2 79.6142 24.3858 102 52 102H256C283.614 102 306 79.6142 306 52C306 24.3858 283.614 2 256 2Z" fill="#EBCFCF"/>
<path d="M242.979 103.52C239.219 103.71 235.229 103.18 230.979 103.27C226.729 103.36 222.429 103.31 218.159 103.28C215.999 103.27 213.959 103.35 211.879 103.51C209.859 103.66 207.529 103.32 205.609 103.75C205.439 103.79 205.039 103.75 204.739 103.75C199.579 103.75 194.299 103.93 189.289 103.7C183.459 103.44 177.709 103.62 171.939 103.51C162.529 104.01 153.019 103.64 143.559 103.73C140.599 103.75 137.629 103.85 134.599 103.55C132.009 103.29 128.849 103.76 126.139 103.3C125.919 103.26 125.389 103.36 124.979 103.38C124.019 103.43 123.009 103.55 122.109 103.51C116.679 103.26 116.699 103.25 112.169 103.48C111.629 103.51 110.969 103.32 110.359 103.31C107.859 103.28 105.349 103.25 102.869 103.3C100.629 103.34 98.2495 103.08 96.1195 103.51C95.6595 103.6 94.6894 103.52 93.9494 103.52C91.5894 103.52 89.2294 103.49 86.8794 103.52C84.1894 103.56 81.4494 103.36 78.8094 103.73C77.6594 103.89 75.9894 103.46 75.3094 103.56C74.0395 103.73 72.8695 103.77 71.6195 103.74C70.3995 103.71 69.2094 103.54 67.9995 103.53C66.9494 103.53 65.8995 103.72 64.8295 103.74C62.1795 103.77 59.3395 103.6 56.9195 103.79C54.3095 104 51.8595 104 49.1795 103.83L47.1095 103.73C46.4195 103.71 45.7395 103.54 45.0595 103.45C43.6995 103.21 42.3195 103.08 40.9795 102.79C39.9395 102.54 38.9595 102.26 38.0095 101.96C37.5395 101.81 37.0695 101.66 36.5995 101.5C36.1495 101.3 35.6895 101.11 35.2295 100.91C34.3095 100.52 33.2995 100.21 32.3195 99.8602C31.3495 99.5102 30.4695 98.9702 29.7495 98.4102C29.6895 98.3602 29.4795 98.2802 29.3495 98.2102C27.4695 97.3502 25.7795 96.1502 24.0295 95.0602C23.1395 94.5402 22.3695 93.8502 21.5395 93.2402C20.7395 92.6002 19.8895 92.0102 19.1095 91.3402C13.6995 86.7402 9.18945 81.0602 6.05945 74.6802C5.62945 73.7702 5.13945 72.8602 4.71945 71.9402C4.37945 70.9802 4.07945 70.0202 3.92945 69.0802C3.86945 68.6902 3.46945 67.9202 3.33945 67.4202C2.99945 65.4902 1.97945 64.1402 1.81945 62.2502C1.83945 60.5402 1.40945 58.8202 1.19945 57.1002C1.14945 56.1302 1.10945 55.1502 1.05945 54.1702L0.979453 52.7002L0.949453 51.9702L0.989453 51.2402C1.06945 49.8902 1.06945 48.6702 0.939453 47.5302C1.13945 46.8002 1.34945 45.9202 1.48945 44.9902C1.63945 44.0702 1.75945 43.1102 1.98945 42.2702C2.28945 41.1602 2.91945 39.5002 2.96945 38.6502C3.05945 36.7402 3.93945 35.0602 4.51945 33.3102C4.90945 31.9902 5.61945 30.7902 6.17945 29.5302C6.46945 28.9102 6.75945 28.2802 7.02945 27.6502C7.34945 27.0502 7.66945 26.4402 7.95945 25.8202C8.20945 25.2902 8.54945 24.7102 8.91945 24.1202C9.10945 23.8302 9.28945 23.5202 9.49945 23.2302C9.71945 22.9502 9.93945 22.6802 10.1495 22.4202C10.9295 21.4402 11.7795 20.5702 12.5395 19.5802C13.3095 18.7202 14.0995 17.8902 14.8395 17.0202C15.2195 16.5902 15.5695 16.1402 15.9595 15.7102C16.3595 15.3002 16.7595 14.8902 17.1395 14.4602C17.8195 13.7202 18.6595 12.9902 19.5095 12.2902C20.4095 11.6402 21.2795 10.9702 21.9495 10.1902C22.1295 9.98021 22.6695 9.61021 23.0195 9.39021C23.9795 8.86021 24.9195 8.40021 25.8395 7.86021C26.2995 7.59021 26.7595 7.31021 27.2295 7.00021C27.6895 6.68021 28.2195 6.43021 28.7295 6.10021C29.5695 5.58021 30.5795 5.08021 31.6395 4.60021C32.7195 4.16021 33.8695 3.82021 34.9395 3.42021C35.5095 3.21021 36.0795 2.99021 36.6595 2.78021L38.4295 2.30021C39.6095 2.00021 40.7795 1.66021 41.9395 1.49021C43.4395 1.33021 44.0995 0.650206 45.9195 0.740206C46.1595 0.760206 46.4595 0.730206 46.7995 0.710206C47.1395 0.710206 47.5095 0.700206 47.8995 0.680206C48.6795 0.640206 49.5195 0.590206 50.2595 0.550206C51.7895 0.460206 53.3295 0.390206 54.7195 0.480206C62.0795 0.940206 69.5395 0.560206 76.9194 0.710206C80.0395 0.770206 83.3195 0.420206 86.2895 0.930206C88.4894 0.550206 91.1994 0.880206 93.3195 0.620206C94.6594 0.460206 95.8294 0.470206 97.0594 0.470206C105.169 0.470206 113.279 0.460206 121.379 0.450206C126.719 0.380206 132.039 0.310206 137.379 0.240206C138.879 0.230206 140.349 0.180206 141.969 0.410206C143.169 0.580206 145.339 0.600206 146.939 0.300206C147.249 0.240206 147.889 0.190206 148.119 0.230206C151.149 0.780206 154.159 0.210206 157.139 0.190206C162.969 0.150206 168.669 0.490206 174.469 0.450206C175.699 0.450206 177.149 0.610206 178.109 0.240206C179.059 0.550206 179.779 0.400206 180.949 0.260206C182.159 0.120206 184.149 0.100206 185.209 0.270206C186.659 0.510206 187.989 0.420206 189.369 0.450206C190.839 0.450206 192.319 0.450206 193.789 0.450206C200.009 0.530206 206.229 0.610206 212.439 0.690206C213.659 0.710206 214.839 0.850206 216.059 0.910206C217.279 0.970206 218.599 0.800206 219.759 1.11021C220.189 1.23021 221.439 1.14021 222.319 1.14021C225.419 1.14021 228.759 1.34021 231.539 1.09021C234.289 0.840206 237.229 1.15021 239.769 0.700206C240.479 0.570206 241.789 0.700206 242.819 0.680206C246.969 0.570206 251.239 0.950206 255.279 0.450206C256.769 0.760206 258.599 0.840206 260.319 0.890206C260.639 0.900206 260.969 0.920206 261.289 0.960206C261.619 1.02021 261.949 1.07021 262.269 1.13021C262.919 1.23021 263.539 1.28021 264.089 1.18021C264.219 1.16021 264.659 1.22021 264.929 1.28021C266.449 1.53021 267.719 2.18021 269.399 2.52021C270.099 2.68021 270.749 2.76021 271.399 2.89021C272.039 3.06021 272.709 3.25021 273.439 3.52021C278.769 5.47021 283.539 8.47021 288.009 11.9302C288.559 12.4802 289.109 13.1102 289.729 13.6902C290.339 14.2802 290.999 14.8602 291.639 15.4502C292.749 16.5102 293.759 17.6102 294.839 18.6602C295.099 18.9302 295.379 19.1902 295.629 19.4702L296.349 20.3602C296.829 20.9602 297.299 21.5802 297.749 22.2202C298.669 23.4002 299.349 24.8102 300.159 26.1102C300.999 27.3902 301.629 28.7602 302.329 29.9902L303.219 31.6102C303.519 32.1502 303.699 32.7302 303.939 33.3002C304.379 34.4402 304.819 35.5902 305.229 36.7402C305.809 39.1202 306.529 41.4602 306.829 43.8902C306.929 44.5102 307.069 45.1602 307.159 45.8102C307.199 46.1302 307.239 46.4502 307.239 46.7702C307.219 47.0802 307.179 47.3902 307.109 47.6802C307.039 47.9602 307.149 49.3202 307.269 49.6902C307.519 50.4802 307.459 51.4202 307.529 52.1902C307.589 53.3002 307.369 54.3902 307.209 55.4602C307.129 56.0002 307.059 56.5302 307.039 57.0702C306.999 57.6102 306.959 58.1502 307.039 58.7102L306.489 62.3102L305.589 65.8402C305.419 66.4202 305.319 67.0302 305.109 67.6002L304.489 69.3102L303.859 71.0202C303.659 71.5902 303.439 72.1602 303.159 72.7002C302.659 73.7202 302.249 74.7502 301.539 75.7002C301.119 76.3702 300.059 77.8902 299.799 78.6402C299.449 79.5002 299.049 80.3702 298.489 81.1302C297.919 81.8802 297.349 82.6302 296.789 83.3702C293.369 87.8202 289.219 91.7202 284.549 94.8402C283.489 95.4702 282.429 96.0802 281.359 96.6802L280.559 97.1302L279.719 97.5002L278.039 98.2402C277.469 98.4902 276.909 98.7602 276.349 99.0402C275.789 99.3302 275.179 99.5102 274.599 99.7502C273.419 100.18 272.249 100.62 271.059 100.85C270.889 100.87 270.639 100.95 270.449 101.01C269.519 101.3 268.579 101.65 267.649 101.87C266.439 102.22 264.749 102.12 264.069 102.36C262.699 102.79 261.759 102.74 260.699 102.77C257.609 102.85 255.719 102.31 256.079 101.53C256.159 101.36 256.499 101.16 256.919 101C258.239 100.52 258.879 100.29 259.739 100.15C260.159 100.07 260.649 100.06 261.269 99.9502C261.899 99.8502 262.679 99.7202 263.709 99.5402C264.369 99.4402 265.029 99.3402 265.679 99.2402L267.609 98.7902L269.539 98.3502C269.859 98.2702 270.189 98.2202 270.509 98.1302L271.449 97.8202C272.699 97.3902 273.969 97.0202 275.209 96.5202C276.409 95.9602 277.609 95.3802 278.799 94.7602C279.629 94.4702 280.399 94.0102 281.189 93.5902C281.969 93.1402 282.769 92.7102 283.519 92.1902L285.699 90.5302C286.429 89.9802 287.169 89.4502 287.829 88.8302C289.249 87.6002 290.779 86.4502 292.039 85.0402C292.689 84.3602 293.369 83.6902 293.969 82.9702C294.529 82.2202 295.069 81.4502 295.569 80.6802C296.639 79.1802 297.429 77.5402 298.389 76.0002C298.889 75.2402 299.239 74.4102 299.639 73.6002L300.829 71.1602L302.359 67.3202C302.479 67.0002 302.629 66.6802 302.739 66.3602L303.029 65.3702L303.589 63.3702C304.029 61.9902 304.179 60.5402 304.389 59.1102C304.499 58.3902 304.609 57.6802 304.719 56.9702C304.759 56.2502 304.809 55.5402 304.869 54.8402C304.949 53.9702 305.079 53.0702 305.179 52.1802C305.229 51.2902 305.179 50.4102 305.069 49.5802C304.929 48.6802 304.849 47.7702 304.759 46.8502C304.599 45.9502 304.459 45.0402 304.319 44.1302L304.119 42.7702L304.019 42.0902L303.849 41.4302C303.619 40.5502 303.379 39.6802 303.119 38.8402C302.919 38.2602 302.789 37.6502 302.549 37.0802L301.869 35.3602C301.399 34.2202 301.049 33.0302 300.459 31.9402C299.919 30.8402 299.389 29.7202 298.839 28.6302C298.189 27.5902 297.539 26.5602 296.879 25.5402L296.339 24.7202L295.729 23.9602L294.509 22.4302C294.099 21.9302 293.719 21.3902 293.289 20.9102L291.959 19.4702C291.139 18.5902 290.439 17.7102 289.559 16.7602C289.129 16.2602 288.559 15.6802 287.929 15.1102C287.609 14.8302 287.289 14.5402 286.939 14.2902C286.579 14.0602 286.209 13.8402 285.839 13.6402C285.239 13.3102 284.299 12.7002 283.879 12.2802C283.669 12.0602 283.439 11.8502 283.219 11.6402C282.979 11.4502 282.729 11.2802 282.469 11.1002C281.959 10.7502 281.439 10.4102 280.909 10.0902L279.299 9.13021C278.729 8.86021 278.169 8.60021 277.609 8.34021C276.899 8.00021 276.189 7.57021 275.529 7.18021C274.889 6.76021 274.239 6.56021 273.779 6.44021C272.989 6.28021 272.269 6.05021 271.569 5.80021C271.219 5.67021 270.879 5.54021 270.529 5.42021L269.459 5.15021C268.429 4.91021 267.249 4.72021 266.409 4.19021C266.189 4.02021 265.169 3.83021 264.849 3.86021C263.019 4.01021 261.059 3.39021 259.139 3.39021C257.989 3.35021 256.849 3.27021 255.689 3.25021H252.149L245.069 3.24021C241.169 3.22021 237.419 3.65021 233.499 3.48021C231.109 3.88021 228.449 3.70021 225.909 3.70021C223.969 3.70021 222.029 3.56021 220.079 3.48021C218.139 3.40021 216.239 3.48021 214.189 3.30021C211.659 3.08021 208.649 3.28021 205.849 3.24021C204.329 3.22021 202.629 3.44021 201.259 3.06021C201.069 3.01021 200.369 3.02021 200.109 3.06021C198.109 3.46021 195.589 3.35021 193.809 3.19021C190.899 2.94021 188.109 3.05021 185.269 3.01021C182.919 3.01021 180.549 3.00021 178.199 2.99021C176.509 2.97021 174.859 3.05021 173.089 2.88021C171.729 2.75021 169.929 2.97021 168.319 2.99021C166.699 3.02021 165.079 2.99021 163.459 2.99021H152.849C150.929 2.99021 149.009 3.02021 147.099 2.99021C145.289 2.95021 143.519 2.79021 141.709 2.78021C136.649 2.73021 131.689 3.16021 126.599 3.00021C125.219 3.29021 123.889 3.08021 122.449 3.02021C121.129 2.97021 119.579 2.85021 118.259 3.14021C117.889 3.22021 117.189 3.20021 116.639 3.22021C115.409 3.26021 114.349 2.99021 112.889 3.19021C111.859 3.34021 110.289 3.19021 108.969 3.23021C107.589 3.26021 106.019 3.06021 104.859 3.42021C102.429 2.88021 100.109 3.71021 97.6795 3.46021C96.9194 3.38021 96.0795 3.35021 95.2794 3.30021C94.8794 3.27021 94.4295 3.20021 94.0795 3.23021C87.6295 3.72021 81.0395 3.32021 74.5395 3.46021C73.7394 3.48021 72.9695 3.58021 72.1694 3.63021C71.7895 3.65021 71.3595 3.67021 70.9795 3.64021C67.4195 3.44021 67.4295 3.45021 64.0995 3.64021C63.2595 3.69021 62.3495 3.64021 61.4895 3.67021C59.2395 3.73021 57.0495 3.63021 54.7195 3.86021C52.3495 4.04021 49.9495 3.79021 47.5895 3.73021C46.5395 3.70021 45.5195 3.85021 44.4595 3.93021C43.4095 4.05021 42.3095 4.09021 41.2095 4.43021C39.8295 4.82021 38.4195 5.11021 37.0595 5.57021L33.0195 7.06021L29.1395 8.93021C27.8795 9.61021 26.6695 10.4002 25.4395 11.1302C24.7995 11.4702 23.9895 12.0302 23.7195 12.3402C23.1795 13.0002 22.6595 13.5902 22.0695 14.0702C21.7795 14.3202 21.4495 14.5102 21.1295 14.7102C20.8095 14.9202 20.4495 15.0902 20.0495 15.2302C19.9695 15.2602 19.5295 15.6602 19.4595 15.7802C19.0795 16.4102 18.5195 16.9902 17.8995 17.5502C17.3195 18.1402 16.7195 18.7502 16.1795 19.3302C12.0495 23.8102 9.28945 29.1702 6.97945 34.7202C6.61945 35.6202 6.26945 36.9002 5.93945 37.3902C5.31945 38.4702 5.64945 39.1802 5.27945 40.1702C4.98945 41.0102 4.76945 42.2902 4.59945 43.0102C4.18945 44.2902 3.88945 45.6902 3.68945 47.0802C3.61945 48.4802 3.61945 49.8702 3.61945 51.1402C3.61945 51.4402 3.61945 51.7302 3.62945 52.0302L3.71945 52.9202C3.77945 53.5102 3.82945 54.1002 3.88945 54.6902C3.98945 55.8602 4.00945 56.9902 4.13945 58.0502C4.22945 59.0902 4.33945 60.1302 4.46945 61.1702C4.59945 62.2102 4.91945 63.2102 5.15945 64.2302C5.57945 66.2802 6.41945 68.2002 7.09945 70.1802C8.76945 74.1102 10.7695 77.9602 13.4895 81.3002C14.4795 82.7402 15.6895 84.2102 17.0395 85.1602C17.3295 85.3402 17.7895 85.9902 18.1995 86.3602C19.1295 87.2902 19.9895 88.2702 20.9595 89.1602C21.9795 89.9902 23.1395 90.6102 24.2195 91.3702C25.0695 92.0102 25.9295 92.5102 26.9595 92.9102C27.3395 93.0502 27.8095 93.3302 28.2995 93.6802C28.5495 93.8502 28.7995 94.0402 29.0595 94.2402C29.3295 94.4202 29.5995 94.6002 29.8595 94.7702C30.8895 95.4802 31.9495 96.2302 33.1495 96.9402C34.3895 97.5402 35.7395 98.1302 37.2695 98.6502C38.6595 99.0002 40.0595 99.3602 41.4595 99.7202C42.1495 99.9402 42.8695 100.01 43.5895 100.13L45.7295 100.45C46.9195 100.67 48.0695 100.72 49.3695 100.6C49.9495 100.54 50.7295 100.56 51.5295 100.61C52.3295 100.67 53.2095 100.69 53.9295 100.76C56.2095 100.96 58.2995 100.98 60.5295 100.76C61.2995 100.68 62.2095 100.68 63.0595 100.68H78.5395C79.7895 100.68 81.0995 100.61 82.1195 100.89C82.9395 100.56 84.2394 100.67 85.3195 100.69C86.9795 100.73 88.6094 100.87 90.2694 100.9C92.2394 100.93 94.1594 100.9 96.1294 100.7C97.9394 100.51 100.129 100.82 102.079 100.54C102.449 100.49 103.219 100.68 103.759 100.66C105.999 100.59 108.419 100.9 110.489 100.44C110.659 100.4 111.139 100.4 111.349 100.44C113.929 100.9 116.479 100.55 119.029 100.44C121.809 100.31 124.349 100.69 127.069 100.68C130.169 100.67 133.389 100.53 136.329 100.71C141.389 101.02 146.429 100.87 151.469 100.9C156.629 100.94 161.789 100.93 166.949 100.9C169.189 100.89 171.419 100.72 173.659 100.69C176.159 100.65 178.669 100.69 181.179 100.69C183.539 100.69 185.899 100.69 188.259 100.69C189.359 100.69 190.589 100.57 191.549 100.85C191.749 100.91 192.419 100.93 192.699 100.88C194.719 100.57 196.669 100.59 198.719 100.87C199.299 100.95 200.159 100.87 200.859 100.92C202.799 101.03 204.459 100.76 206.249 100.68C207.899 100.6 209.769 100.89 211.229 100.46C211.429 100.4 212.239 100.4 212.489 100.46C215.789 101.18 219.569 99.9802 222.849 100.65C224.159 100.24 225.519 100.71 226.559 100.65C228.069 100.56 229.519 100.45 231.089 100.46C232.559 100.46 234.049 100.48 235.509 100.46C238.199 100.41 240.919 100.6 243.599 100.26C244.499 100.15 246.179 100.07 247.279 100.4C247.479 100.46 248.059 100.45 248.449 100.43C251.399 100.3 254.989 100.66 255.719 101.26C256.149 101.61 256.099 102.04 255.759 102.4C255.589 102.58 254.309 102.69 253.489 102.82C252.079 103.05 250.729 103.36 249.199 103.45C247.379 103.56 245.389 103.48 243.009 103.48L242.979 103.52Z" fill="#CA858B"/>
</svg>
