<svg width="400" height="86" viewBox="0 0 400 86" fill="none" xmlns="http://www.w3.org/2000/svg">
<path d="M374.36 42.9999L395 14.9999H353.92H46.0802H5.00024L25.6402 42.9999L5.00024 70.9999H46.0802H353.92H395L374.36 42.9999Z" fill="#F5F1E9"/>
<path d="M382.97 28.7599C384.31 26.7799 385.85 24.8399 387.43 22.8499C388.22 21.8499 389.02 20.8399 389.84 19.8099C390.24 19.2899 390.64 18.7599 391.05 18.2399L391.65 17.4399L391.86 17.1399C392.05 16.8599 392.24 16.5899 392.43 16.2999H391.26H388.33C386.1 16.2899 383.86 16.2799 381.64 16.2699C378.89 16.2599 376.29 16.3399 373.64 16.4999C371.07 16.6499 368.11 16.3099 365.66 16.7399C365.44 16.7799 364.93 16.7399 364.56 16.7399C357.99 16.7399 351.27 16.9199 344.9 16.6899C337.48 16.4299 330.15 16.6099 322.81 16.4999C310.83 16.9999 298.72 16.6299 286.68 16.7199C282.92 16.7399 279.13 16.8399 275.27 16.5399C271.97 16.2799 267.95 16.7499 264.51 16.2899C264.23 16.2499 263.55 16.3499 263.04 16.3699C261.82 16.4199 260.53 16.5399 259.39 16.4999C252.48 16.2499 252.5 16.2399 246.73 16.4699C246.04 16.4999 245.2 16.3099 244.42 16.2999C241.24 16.2699 238.05 16.2399 234.88 16.2899C232.03 16.3299 229 16.0699 226.28 16.4999C225.69 16.5899 224.45 16.5099 223.52 16.5099C220.52 16.5099 217.51 16.4799 214.51 16.5099C211.09 16.5499 207.59 16.3499 204.24 16.7199C202.77 16.8799 200.65 16.4499 199.78 16.5499C198.17 16.7199 196.67 16.7599 195.08 16.7299C193.52 16.6999 192.01 16.5299 190.47 16.5199C189.13 16.5199 187.79 16.7099 186.43 16.7299C183.06 16.7599 179.45 16.5899 176.36 16.7799C173.04 16.9899 169.87 16.9399 166.64 16.9699C163.27 16.9999 159.87 16.9399 156.51 16.9899C153.89 17.0299 151.55 16.8499 149.09 16.7499C146.64 16.6499 143.89 16.9499 141.67 16.5199C141.57 16.4999 141.31 16.5199 141.12 16.5199C136.02 16.4399 130.93 16.3199 125.82 16.2999C117 16.2999 108.18 16.2899 99.3603 16.2799C96.8703 16.2799 94.2403 16.4199 91.9103 16.0599C91.4203 15.9899 90.3603 16.0899 89.7103 16.0399C87.2703 15.8399 85.3403 16.5199 83.0003 16.2099C80.9103 15.9299 78.7003 16.0899 76.5503 16.0599C74.1203 16.0599 71.6703 16.0599 69.2403 16.0499C67.5603 16.0399 66.0303 16.0899 64.6403 16.2899C62.7903 15.8799 60.1403 16.1599 57.9703 15.9599C56.5403 15.8299 54.3303 15.7099 53.2803 15.8499C50.9503 16.1599 48.6403 16.0099 46.3303 16.0499C42.9003 16.0999 39.4503 15.9699 36.0603 16.2699C34.6303 16.3899 32.7103 16.3199 31.0403 16.2799C29.4803 16.2399 27.9803 16.0799 26.4303 16.0699C23.5503 16.0399 20.7103 16.0499 17.8603 16.2699C15.3803 16.4599 12.3503 16.0799 9.89031 16.5199C9.73031 16.5499 9.44031 16.5599 9.13031 16.5599C8.92031 16.5599 8.95031 16.5599 8.90031 16.5499C8.86031 16.5499 8.82031 16.5299 8.79031 16.5299C8.50031 16.4599 8.09031 16.3999 7.68031 16.3699C7.79031 16.5499 7.95031 16.7699 8.13031 16.9899C8.22031 17.0999 8.32031 17.1999 8.41031 17.2999L8.48031 17.3699L8.68031 17.6099C8.82031 17.7799 8.97031 17.9399 9.11031 18.1099C10.7103 19.9499 12.4403 22.5599 14.1103 24.8199C15.8903 27.2399 17.7803 29.6599 19.4203 32.0699C20.4703 33.6099 21.4803 34.0199 22.5003 36.0099C23.0503 37.0799 24.5203 38.9099 25.5903 40.3799C26.2403 41.2499 26.8903 42.1299 27.5503 43.0099C26.9803 43.7899 26.4103 44.5799 25.8403 45.3399C25.4903 45.8099 25.1503 46.2599 24.8003 46.6899C21.8303 50.3199 19.0203 54.0999 16.2403 57.9099L12.0703 63.6299L9.97031 66.4699L8.91031 67.8799L8.38031 68.5799L8.18031 68.8299C7.94031 69.1199 7.72031 69.4399 7.54031 69.7199L8.38031 69.6799H8.76031H9.49031C10.9803 69.6999 12.4403 69.7699 13.8403 69.9599C16.6403 69.5799 20.0903 69.9099 22.7803 69.6499C24.4903 69.4899 25.9803 69.4999 27.5403 69.4999C37.8603 69.4999 48.1803 69.4899 58.5003 69.4799C65.2903 69.4099 72.0703 69.3399 78.8703 69.2699C80.7803 69.2599 82.6403 69.2099 84.7203 69.4399C86.2403 69.6099 89.0203 69.6299 91.0403 69.3299C91.4303 69.2699 92.2503 69.2199 92.5403 69.2599C96.4003 69.8099 100.23 69.2399 104.02 69.2199C111.45 69.1799 118.7 69.5199 126.08 69.4799C127.65 69.4799 129.49 69.6399 130.71 69.2699C131.92 69.5799 132.83 69.4299 134.33 69.2899C135.87 69.1499 138.4 69.1299 139.76 69.2999C141.6 69.5399 143.3 69.4499 145.05 69.4799C146.92 69.4799 148.8 69.4799 150.68 69.4799C158.6 69.5599 166.51 69.6399 174.42 69.7199C175.97 69.7399 177.48 69.8799 179.03 69.9399C180.58 69.9999 182.26 69.8299 183.74 70.1399C184.29 70.2599 185.88 70.1699 187 70.1699C190.94 70.1699 195.2 70.3699 198.73 70.1199C202.23 69.8699 205.97 70.1799 209.21 69.7299C210.11 69.5999 211.79 69.7299 213.09 69.7099C218.37 69.5999 223.81 69.9799 228.95 69.4799C230.85 69.7899 233.09 69.7299 235.24 69.6999C236.81 69.6799 238.63 69.8599 239.92 69.5099C240.07 69.4699 240.63 69.4699 240.96 69.4799C242.86 69.5599 244.57 69.7799 246.7 69.7199C248.47 69.6699 249.91 69.4499 251.86 69.4599C258.86 69.4799 265.75 69.8799 272.78 69.7099C274.7 69.9899 276.9 69.9399 279.07 69.9399C282.9 69.9599 286.5 69.6099 290.43 69.6899C294.15 69.7699 298.12 69.8599 301.64 69.6699C307.72 69.3499 313.76 69.5499 319.8 69.4799C321.35 69.4599 323.1 69.3399 324.5 69.6799C324.83 69.7599 326.53 69.7199 327 69.6199C327.99 69.4099 329.15 69.5399 330.11 69.4599C332.84 69.2399 335.51 70.0999 338.2 69.4599H347.21C350.21 69.4599 353.22 69.4599 356.22 69.4599C357.62 69.4599 358.98 69.3999 360.43 69.6199C361.4 69.7699 363.71 69.7999 364.67 69.6599C366.96 69.3299 369.31 69.4699 371.61 69.4599C378.2 69.4599 384.8 69.4599 391.39 69.4599C391.6 69.4599 391.83 69.4799 392.1 69.4999L391.68 68.7699L391.62 68.6599C391.59 68.6099 391.61 68.6299 391.5 68.4799L391.04 67.8099L390.11 66.4699C388.34 63.9499 386.26 61.5099 384.73 58.9199C384.62 58.7399 384.42 58.4899 384.26 58.2899C383.5 57.3399 382.69 56.4099 381.99 55.4399C381.09 54.1799 380.1 52.3499 379.47 51.7199C378.23 50.4499 377.76 49.3699 376.99 48.2799C374.78 45.1499 373.87 42.8599 374.75 42.7599C374.94 42.7399 375.36 42.9899 375.79 43.3499C378.5 45.6399 378.49 45.6899 381.82 50.1199C383.93 52.9299 385.91 55.7899 387.9 58.6399C388.9 60.0599 389.9 61.4799 390.91 62.8999L392.46 65.0099C393.03 65.7599 393.6 66.5199 394.18 67.2699C395.34 69.0299 396.45 70.6399 397.6 72.2599C396.16 72.2499 394.72 72.2399 393.27 72.2299C392.11 72.2299 390.95 72.2299 389.79 72.2399C388.04 72.2499 386.28 72.2699 384.54 72.2399C379.63 72.1499 374.64 71.7899 369.84 72.0399C365.06 72.2899 360.36 72.2299 355.63 72.2299C352.03 72.2299 348.44 72.0599 344.83 72.0199C341.09 71.9799 337.27 72.0899 333.59 71.9799C331.31 71.9099 328.91 71.6399 326.76 71.7999C322.05 72.1499 317.19 71.8499 312.57 72.0299C306.15 72.2899 299.68 72.1199 293.34 72.2799C289.92 72.3699 286.53 72.4699 283.09 72.4599C281.52 72.4599 280.03 72.4599 278.35 72.2999C276.63 72.1299 274.12 72.1299 271.99 72.3599C271.11 72.4599 269.63 72.5299 268.87 72.4499C265.72 72.0899 262.39 72.2399 259.16 72.2499C257.11 72.2499 254.81 71.9299 253.59 72.0599C251.52 72.2899 249.64 72.1899 247.71 72.2199C246.34 72.2399 244.77 72.3499 243.54 72.0499C243.21 71.9699 241.87 71.9499 241.47 72.0099C239.16 72.4099 236.49 72.2099 234.01 72.2199C228.01 72.2199 222 72.2199 216 72.2199C211.04 72.1999 206.27 72.6299 201.27 72.4599C198.23 72.8599 194.84 72.6799 191.6 72.6799C189.13 72.6799 186.66 72.5399 184.18 72.4599C181.71 72.3799 179.3 72.4599 176.68 72.2799C173.46 72.0599 169.62 72.2599 166.07 72.2199C164.14 72.1999 161.98 72.4199 160.23 72.0399C159.99 71.9899 159.1 71.9999 158.77 72.0399C156.22 72.4399 153.01 72.3299 150.75 72.1699C147.05 71.9199 143.49 72.0299 139.88 71.9899C136.89 71.9899 133.87 71.9799 130.88 71.9699C128.73 71.9499 126.63 72.0299 124.37 71.8599C122.64 71.7299 120.35 71.9499 118.3 71.9699C116.24 71.9699 114.17 71.9699 112.11 71.9699H98.6003C96.1603 71.9699 93.7103 71.9999 91.2903 71.9699C88.9903 71.9299 86.7303 71.7699 84.4303 71.7599C77.9903 71.7099 71.6703 72.1399 65.1903 71.9799C63.4403 72.2699 61.7403 72.0599 59.9103 71.9999C58.2303 71.9499 56.2603 71.8299 54.5703 72.1199C54.1003 72.1999 53.2103 72.1799 52.5103 72.1999C50.9503 72.2399 49.6003 71.9699 47.7403 72.1699C46.4303 72.3199 44.4303 72.1699 42.7503 72.2099C40.9903 72.2399 38.9903 72.0399 37.5103 72.3999C34.4203 71.8599 31.4603 72.6899 28.3703 72.4399C27.4003 72.3599 26.3403 72.3299 25.3103 72.2799C24.8003 72.2499 24.2203 72.1799 23.7803 72.2099C20.6803 72.3999 17.5603 72.4499 14.4303 72.4599C10.3203 72.4399 6.19031 72.4299 2.07031 72.4099L5.24031 68.1199L7.42031 65.1099C8.01031 64.2799 8.51031 63.4299 9.07031 62.5799C9.34031 62.1699 9.66031 61.7299 9.96031 61.3499C11.8603 58.9966 13.5903 56.6466 15.1503 54.2999C15.7403 53.4099 16.4603 52.5099 17.1003 51.5999C18.7503 49.2699 20.4803 47.0699 22.0603 44.5499C22.3603 44.0699 22.6803 43.5999 23.0203 43.1399C23.2703 42.7999 23.1503 42.9599 23.1903 42.9199C23.1903 42.9199 23.2103 42.9199 23.2303 42.9199C23.2503 42.9199 23.2703 42.8899 23.2803 42.8499L22.5103 41.6299C21.9903 40.8099 21.4703 39.9799 20.9503 39.1699C19.4503 36.8699 18.0003 34.6099 16.2103 32.2099C11.6403 26.0199 7.07031 19.8299 2.50031 13.6299H5.69031C6.46031 13.6299 7.38031 13.6499 8.21031 13.6599C9.16031 13.6599 9.42031 13.6599 9.73031 13.6199C11.8803 13.2199 13.7903 12.9499 15.8403 13.6199C15.9403 13.6499 16.7203 13.6499 16.8903 13.6199C18.7403 13.1999 21.1403 13.3999 23.2203 13.4199C31.1803 13.4699 38.9903 12.9999 46.9603 13.1699C48.2403 13.1999 49.9903 13.0899 50.7403 13.2299C52.3403 13.5199 53.1103 13.0499 54.5003 13.1599C55.6603 13.2499 57.3803 13.0799 58.3603 13.1999C61.8903 13.6299 65.8203 13.4999 69.1503 13.3599C72.2603 13.2299 75.4703 13.0799 78.2703 13.2199C83.7803 13.5099 89.2503 13.3799 94.7403 13.4099C100.37 13.4399 106 13.4299 111.63 13.4099C113.93 13.3999 116.4 13.5799 118.53 13.1999C118.96 13.1199 120 13.1699 120.73 13.1999C122.46 13.2599 124.18 13.4099 125.9 13.4099C127.62 13.4099 129.33 13.2599 131.07 13.1999C132.47 13.1499 133.78 13.1999 135.22 12.9999C136.27 12.8499 138.12 12.9699 139.77 13.1699C143.05 13.5699 146.48 13.9699 150.69 13.8999C154.42 13.8399 158.19 13.8999 161.94 13.8799C163.51 13.8799 165 13.8999 166.68 13.7099C168.2 13.5399 170.73 13.6099 172.57 13.7399C175.47 13.9399 178.13 13.9599 180.97 13.7399C181.95 13.6599 183.11 13.6599 184.19 13.6599H203.89C205.47 13.6599 207.15 13.5899 208.44 13.8699C209.49 13.5399 211.14 13.6499 212.52 13.6699C214.63 13.7099 216.7 13.8499 218.82 13.8799C221.33 13.9099 223.78 13.8799 226.28 13.6799C228.59 13.4899 231.37 13.7999 233.86 13.5199C234.33 13.4699 235.31 13.6599 235.99 13.6399C238.84 13.5699 241.92 13.8799 244.56 13.4199C244.78 13.3799 245.39 13.3799 245.65 13.4199C248.93 13.8799 252.18 13.5299 255.43 13.4199C258.97 13.2899 262.2 13.6699 265.66 13.6599C269.6 13.6499 273.71 13.5099 277.45 13.6899C283.9 13.9999 290.31 13.8499 296.72 13.8799C303.28 13.9199 309.86 13.9099 316.42 13.8799C319.27 13.8699 322.11 13.6999 324.96 13.6699C328.14 13.6299 331.34 13.6699 334.53 13.6699C337.53 13.6699 340.54 13.6699 343.54 13.6699C344.95 13.6699 346.5 13.5499 347.73 13.8299C347.98 13.8899 348.84 13.9099 349.2 13.8599C351.77 13.5499 354.25 13.5699 356.87 13.8499C357.61 13.9299 358.71 13.8499 359.59 13.8999C362.05 14.0099 364.17 13.7399 366.44 13.6599C368.54 13.5799 370.92 13.8699 372.78 13.4399C373.03 13.3799 374.06 13.3799 374.39 13.4399C378.59 14.1599 383.4 12.9599 387.58 13.6299C388.42 13.4199 389.27 13.4399 390.07 13.4999C390.27 13.5199 390.47 13.5299 390.67 13.5499C390.89 13.5699 390.98 13.5799 391.36 13.5999C391.99 13.6299 392.56 13.6499 393.12 13.6299C394.73 13.5899 396.31 13.5399 397.9 13.4999C396.97 14.8399 395.95 16.2599 394.86 17.7299L392.77 20.5499C392.22 21.3099 391.66 22.0699 391.11 22.8199C389.12 25.5999 386.92 28.2799 385.16 31.2299C384.57 32.2199 383.36 33.9799 382.27 34.9199C382.08 35.0899 381.64 35.6899 381.36 36.0899C379.24 39.1799 376.24 42.6499 375.2 43.0499C374.59 43.2899 374.28 42.9799 374.25 42.4199C374.23 42.1399 375.11 40.7599 375.62 39.8499C376.5 38.2699 377.27 36.6999 378.35 35.0799C379.64 33.1499 381.21 31.1599 383.01 28.7199L382.97 28.7599Z" fill="#C3AD7C"/>
<path d="M357.871 3H42.1409V83H357.871V3Z" fill="#F5F1E9"/>
<path d="M343.601 84.52C339.481 84.71 335.101 84.18 330.451 84.27C325.791 84.36 321.081 84.31 316.401 84.28C314.031 84.27 311.801 84.35 309.511 84.51C307.301 84.66 304.751 84.32 302.641 84.75C302.451 84.79 302.011 84.75 301.691 84.75C296.031 84.75 290.251 84.93 284.761 84.7C278.371 84.44 272.061 84.62 265.741 84.51C255.431 85.01 245.001 84.64 234.631 84.73C231.391 84.75 228.131 84.85 224.801 84.55C221.961 84.29 218.501 84.76 215.531 84.3C215.291 84.26 214.701 84.36 214.261 84.38C213.211 84.43 212.101 84.55 211.111 84.51C205.161 84.26 205.181 84.25 200.211 84.48C199.621 84.51 198.901 84.32 198.221 84.31C195.481 84.28 192.731 84.25 190.011 84.3C187.551 84.34 184.951 84.08 182.611 84.51C182.101 84.6 181.041 84.52 180.231 84.52C177.641 84.52 175.051 84.49 172.481 84.52C169.531 84.56 166.531 84.36 163.641 84.73C162.381 84.89 160.551 84.46 159.801 84.56C158.411 84.73 157.121 84.77 155.751 84.74C154.411 84.71 153.111 84.54 151.781 84.53C150.631 84.53 149.471 84.72 148.301 84.74C145.401 84.77 142.291 84.6 139.631 84.79C136.771 85 134.051 84.95 131.261 84.98C128.361 85.01 125.431 84.95 122.541 85C120.281 85.04 118.271 84.86 116.151 84.76C114.041 84.66 111.671 84.96 109.761 84.53C109.681 84.51 109.451 84.53 109.291 84.53C104.901 84.45 100.511 84.33 96.1208 84.31C88.5308 84.31 80.9308 84.3 73.3408 84.29C71.1908 84.29 68.9308 84.43 66.9208 84.07C66.5008 84 65.5808 84.1 65.0308 84.05C62.9308 83.85 61.2608 84.53 59.2508 84.22C57.4508 83.94 55.5508 84.1 53.7008 84.07C51.6108 84.07 49.5008 84.07 47.4008 84.06C46.6808 84.06 45.9908 84.06 45.3308 84.1C45.0008 84.12 44.6808 84.14 44.3608 84.18C43.8908 84.22 43.4308 84.26 42.9808 84.3C42.3708 84.2 41.7308 84.14 41.0508 84.1C41.0808 83.53 41.0908 82.97 41.0908 82.4C41.0908 81.87 41.0908 81.33 41.0908 80.79C41.0908 80.03 41.0908 79.27 41.1708 78.57C41.3008 77.34 41.4208 75.43 41.2808 74.53C40.9708 72.53 41.1208 70.53 41.0808 68.55C41.0308 65.6 41.1608 62.63 40.8608 59.71C40.7408 58.48 40.8108 56.82 40.8508 55.39C40.8908 54.05 41.0508 52.76 41.0608 51.42C41.0908 48.94 41.0808 46.5 40.8608 44.04C40.6708 41.91 41.0508 39.3 40.6208 37.17C40.5608 36.89 40.5808 36.19 40.6208 35.75C40.8008 33.42 40.9008 31.32 40.6608 28.73C40.4608 26.63 40.6208 23.95 40.6208 21.52C40.6208 18.93 40.5408 16.29 40.6508 13.79C40.7208 12.19 40.1508 11.38 40.5108 9.49001C40.6108 8.98001 40.6308 8.22001 40.6308 7.39001C40.6308 6.52001 40.6308 5.59001 40.6208 4.77001C40.6208 3.69001 40.6208 2.59001 40.6108 1.50001C42.3208 1.49001 44.5208 1.47001 45.1208 1.53001C53.1808 1.99001 61.3608 1.61001 69.4508 1.76001C72.8708 1.82001 76.4608 1.47001 79.7208 1.98001C82.1308 1.60001 85.1008 1.93001 87.4208 1.67001C88.8908 1.51001 90.1708 1.52001 91.5208 1.52001C100.411 1.52001 109.301 1.51001 118.181 1.50001C124.031 1.43001 129.871 1.36001 135.721 1.29001C137.361 1.28001 138.971 1.23001 140.751 1.46001C142.061 1.63001 144.451 1.65001 146.191 1.35001C146.531 1.29001 147.231 1.24001 147.491 1.28001C150.811 1.83001 154.111 1.26001 157.371 1.24001C163.771 1.20001 170.011 1.54001 176.361 1.50001C177.711 1.50001 179.301 1.66001 180.351 1.29001C181.391 1.60001 182.181 1.45001 183.461 1.31001C184.791 1.17001 186.971 1.15001 188.131 1.32001C189.711 1.56001 191.171 1.47001 192.691 1.50001C194.301 1.50001 195.921 1.50001 197.531 1.50001C204.351 1.58001 211.161 1.66001 217.971 1.74001C219.301 1.76001 220.601 1.90001 221.941 1.96001C223.281 2.02001 224.721 1.85001 226.001 2.16001C226.481 2.28001 227.851 2.19001 228.811 2.19001C232.201 2.19001 235.871 2.39001 238.911 2.14001C241.921 1.89001 245.151 2.20001 247.931 1.75001C248.711 1.62001 250.151 1.75001 251.271 1.73001C255.811 1.62001 260.501 2.00001 264.931 1.50001C266.561 1.81001 268.501 1.75001 270.341 1.72001C271.691 1.70001 273.261 1.88001 274.371 1.53001C274.501 1.49001 274.981 1.49001 275.271 1.50001C276.911 1.58001 278.381 1.80001 280.211 1.74001C281.731 1.69001 282.981 1.47001 284.651 1.48001C290.681 1.50001 296.611 1.90001 302.671 1.73001C304.331 2.01001 306.221 1.96001 308.091 1.96001C311.391 1.98001 314.491 1.63001 317.871 1.71001C321.071 1.79001 324.491 1.88001 327.521 1.69001C332.751 1.37001 337.951 1.57001 343.151 1.50001C344.481 1.48001 345.991 1.36001 347.201 1.70001C347.491 1.78001 348.951 1.74001 349.351 1.64001C350.201 1.43001 351.201 1.56001 352.031 1.48001C353.011 1.39001 353.991 1.48001 354.961 1.58001L355.691 1.65001L355.871 1.67001H356.171L356.771 1.71001C357.561 1.74001 358.331 1.74001 359.181 1.69001C359.221 2.28001 359.281 2.86001 359.381 3.48001V11.9C359.381 14.49 359.381 17.07 359.381 19.66C359.381 20.87 359.441 22.04 359.221 23.29C359.071 24.13 359.041 26.11 359.181 26.94C359.511 28.91 359.371 30.93 359.381 32.91C359.401 38.89 359.411 44.87 359.381 50.84C359.371 53.46 359.231 56.07 359.161 58.68C359.081 61.33 359.321 64.08 359.011 66.66C358.991 66.84 359.011 67.12 359.011 67.34C359.061 68.39 359.161 69.45 359.141 70.47C359.121 71.81 358.831 73.58 358.961 74.34C359.201 75.86 358.941 76.84 358.911 77.99C358.831 81.29 358.201 83.34 357.441 82.96C357.271 82.88 357.091 82.49 356.961 82.02C356.131 79.05 356.171 79.02 356.131 74.24C356.071 68.19 356.551 62.28 356.371 56.22C356.801 52.27 356.521 48.08 356.611 44.02C356.701 39.79 357.061 35.5 356.811 31.37C356.561 27.25 356.621 23.21 356.621 19.14C356.621 16.04 356.791 12.95 356.831 9.84001C356.831 8.70001 356.831 7.56001 356.831 6.42001C356.831 5.63001 356.831 4.85001 356.821 4.07001C356.221 4.05001 355.621 4.04001 355.041 4.02001C353.081 3.95001 351.011 3.68001 349.151 3.84001C345.091 4.19001 340.911 3.89001 336.931 4.07001C331.401 4.33001 325.831 4.16001 320.371 4.32001C317.421 4.41001 314.501 4.51001 311.541 4.50001C310.191 4.50001 308.911 4.50001 307.461 4.34001C305.981 4.17001 303.821 4.17001 301.981 4.40001C301.221 4.50001 299.951 4.57001 299.291 4.49001C296.581 4.13001 293.711 4.28001 290.931 4.29001C289.161 4.29001 287.191 3.97001 286.131 4.10001C284.351 4.33001 282.731 4.23001 281.061 4.26001C279.881 4.28001 278.531 4.39001 277.471 4.09001C277.191 4.01001 276.031 3.99001 275.681 4.05001C273.691 4.45001 271.401 4.25001 269.261 4.26001C264.091 4.29001 258.921 4.29001 253.751 4.26001C249.481 4.24001 245.371 4.67001 241.061 4.50001C238.441 4.90001 235.521 4.72001 232.741 4.72001C230.611 4.72001 228.481 4.58001 226.351 4.50001C224.221 4.42001 222.151 4.50001 219.891 4.32001C217.121 4.10001 213.811 4.30001 210.751 4.26001C209.081 4.24001 207.221 4.46001 205.721 4.08001C205.521 4.03001 204.751 4.04001 204.461 4.08001C202.271 4.48001 199.501 4.37001 197.561 4.21001C194.371 3.96001 191.311 4.07001 188.201 4.03001C185.621 4.03001 183.021 4.02001 180.451 4.01001C178.601 3.99001 176.791 4.07001 174.841 3.90001C173.351 3.77001 171.381 3.99001 169.611 4.01001C167.841 4.04001 166.061 4.01001 164.281 4.01001H152.651C150.551 4.01001 148.441 4.04001 146.351 4.01001C144.371 3.97001 142.421 3.81001 140.451 3.80001C134.911 3.75001 129.471 4.18001 123.891 4.02001C122.381 4.31001 120.921 4.10001 119.351 4.04001C117.901 3.99001 116.201 3.87001 114.761 4.16001C114.361 4.24001 113.591 4.22001 112.981 4.24001C111.631 4.28001 110.471 4.01001 108.871 4.21001C107.741 4.36001 106.021 4.21001 104.571 4.25001C103.051 4.28001 101.341 4.08001 100.061 4.44001C97.4008 3.90001 94.8508 4.73001 92.1908 4.48001C91.3508 4.40001 90.4408 4.37001 89.5608 4.32001C89.1208 4.29001 88.6208 4.22001 88.2508 4.25001C81.1808 4.74001 73.9608 4.34001 66.8309 4.48001C65.9509 4.50001 65.1109 4.60001 64.2309 4.65001C63.8109 4.67001 63.3408 4.69001 62.9208 4.66001C59.0208 4.46001 59.0308 4.47001 55.3808 4.66001C54.4608 4.71001 53.4708 4.66001 52.5108 4.69001C50.0508 4.75001 47.6408 4.65001 45.0908 4.88001C43.6808 4.97001 44.2508 4.96001 44.0908 4.91001C44.0708 4.90001 44.0408 4.89001 44.0108 4.91001C43.9908 4.91001 43.9808 4.93001 43.9608 4.94001C43.9608 4.91001 43.9408 5.03001 43.9308 5.14001L43.9008 5.45001C43.8308 6.29001 43.7608 7.12001 43.6908 7.95001C43.5308 10.31 43.3608 12.62 43.3708 15.19C43.3708 21.65 43.3708 28.11 43.3808 34.58C43.3808 35.39 43.3008 36.5 43.3908 36.95C43.7908 38.8 44.0608 40.45 43.3908 42.21C43.3608 42.29 43.3608 42.97 43.3908 43.11C43.8108 44.7 43.6108 46.77 43.5908 48.56C43.5408 55.41 44.0108 62.14 43.8408 69.01C43.8108 70.11 43.9208 71.62 43.7808 72.26C43.4908 73.64 43.9608 74.3 43.8508 75.5C43.7608 76.5 43.9308 77.98 43.8108 78.82C43.7208 79.49 43.6508 80.17 43.6008 80.86C43.6008 80.98 43.5908 80.95 43.5808 80.99V81.06L43.5408 81.21C43.5308 81.31 43.5208 81.42 43.5108 81.52C43.6308 81.52 43.7608 81.52 43.8908 81.52H44.0808L44.7308 81.49C45.6008 81.45 46.4408 81.42 47.2508 81.39C49.9308 81.26 52.6908 81.11 55.1008 81.25C59.8508 81.54 64.5608 81.41 69.2808 81.44C74.1208 81.47 78.9808 81.46 83.8208 81.44C85.8008 81.43 87.9308 81.61 89.7608 81.23C90.1308 81.15 91.0308 81.2 91.6609 81.23C93.1509 81.29 94.6308 81.44 96.1108 81.44C97.5908 81.44 99.0608 81.29 100.561 81.23C101.771 81.18 102.891 81.23 104.131 81.03C105.041 80.88 106.621 81 108.051 81.2C110.881 81.6 113.831 82 117.461 81.93C120.671 81.87 123.921 81.93 127.151 81.91C128.501 81.91 129.781 81.93 131.231 81.74C132.531 81.57 134.721 81.64 136.301 81.77C138.791 81.97 141.091 81.99 143.531 81.77C144.371 81.69 145.371 81.69 146.301 81.69H163.271C164.631 81.69 166.081 81.62 167.191 81.9C168.091 81.57 169.511 81.68 170.701 81.7C172.521 81.74 174.301 81.88 176.121 81.91C178.281 81.94 180.391 81.91 182.541 81.71C184.521 81.52 186.921 81.83 189.071 81.55C189.471 81.5 190.311 81.69 190.911 81.67C193.361 81.6 196.021 81.91 198.291 81.45C198.481 81.41 199.011 81.41 199.231 81.45C202.051 81.91 204.861 81.56 207.651 81.45C210.701 81.32 213.481 81.7 216.461 81.69C219.851 81.68 223.391 81.54 226.611 81.72C232.161 82.03 237.681 81.88 243.211 81.91C248.861 81.95 254.521 81.94 260.171 81.91C262.631 81.9 265.071 81.73 267.531 81.7C270.271 81.66 273.021 81.7 275.771 81.7C278.361 81.7 280.941 81.7 283.531 81.7C284.741 81.7 286.081 81.58 287.141 81.86C287.361 81.92 288.101 81.94 288.401 81.89C290.611 81.58 292.751 81.6 295.001 81.88C295.641 81.96 296.581 81.88 297.341 81.93C299.461 82.04 301.281 81.77 303.241 81.69C305.051 81.61 307.091 81.9 308.701 81.47C308.921 81.41 309.801 81.41 310.091 81.47C313.711 82.19 317.851 80.99 321.451 81.66C322.891 81.25 324.381 81.72 325.521 81.66C327.171 81.57 328.771 81.46 330.491 81.47C332.111 81.47 333.731 81.49 335.341 81.47C338.291 81.42 341.271 81.61 344.211 81.27C345.191 81.16 347.041 81.08 348.241 81.41C348.451 81.47 349.101 81.46 349.521 81.44C352.751 81.31 356.681 81.67 357.491 82.27C357.961 82.62 357.911 83.05 357.541 83.41C357.361 83.59 355.951 83.7 355.061 83.83C353.521 84.06 352.041 84.37 350.361 84.46C348.371 84.57 346.181 84.49 343.571 84.49L343.601 84.52Z" fill="#C3AD7C"/>
<path d="M65.5904 73.0799C65.3804 73.0799 65.1804 73.0799 64.9704 73.0799C64.3304 73.0799 63.7004 73.2399 63.0504 73.2399C60.9804 73.2499 58.9004 73.3799 56.8304 73.3999C54.9004 73.4099 52.9704 73.3999 51.0604 73.2499C50.7104 73.2199 50.1904 72.3899 50.2404 71.9699C50.3404 71.2699 50.6404 70.2599 51.2104 70.0099C52.0904 69.6299 53.2804 69.6899 54.3204 69.7499C57.6104 69.9099 59.0604 70.3699 62.3504 70.5399C63.2604 70.5899 65.8804 70.9299 66.7904 70.9599C67.4704 70.9899 68.0804 70.9899 68.7504 71.1299C68.8304 71.1499 69.2004 71.4299 69.2004 71.4599C69.0904 72.2299 69.3504 71.7199 69.0504 72.4299C68.8704 72.8599 67.5204 72.8999 67.1604 72.9499C66.6404 73.0199 66.1104 73.0599 65.5904 73.0699V73.0799Z" fill="#C3AD7C"/>
<path d="M52.7505 27.0599C51.8105 27.0299 51.0305 26.8799 50.7105 26.4699C50.3605 26.0099 50.3105 25.0799 50.7105 24.7199C51.5405 23.9599 52.6605 23.0699 53.8505 22.8899C55.3005 22.6699 56.9305 23.1199 58.4905 23.2499C59.0205 23.2999 59.5705 23.2899 60.1105 23.2999C61.2705 23.3399 63.3305 23.7699 64.5305 24.2599C65.3805 24.6099 68.1805 24.7999 69.2405 24.8799C69.3705 24.8899 69.6005 24.9499 69.6105 25.0099C69.7605 25.9699 70.3305 25.5599 69.2805 26.3899C69.1605 26.4899 66.1505 26.9099 65.9305 26.9099C63.3705 26.8299 60.6405 26.6599 58.0205 26.6699C57.0405 26.6699 54.5905 27.1099 52.7605 27.0599H52.7505Z" fill="#C3AD7C"/>
<path d="M55.1205 61.3999C56.3405 61.2299 59.1005 61.4599 57.5205 59.5599C56.1705 57.9399 54.4905 57.8699 52.8405 57.9799C51.8605 58.0499 50.7105 57.9799 50.2305 59.2199C50.2305 60.9899 51.7805 62.1199 53.1205 61.8299C53.7905 61.6899 54.4505 61.4999 55.1205 61.4099V61.3999Z" fill="#C3AD7C"/>
<path d="M62.1306 36.9099C62.1306 37.2299 61.9206 37.4699 61.5106 37.6499C60.5906 38.0499 59.3606 37.8599 58.3906 37.8799C56.8706 37.8999 55.2606 38.2199 53.7406 38.2699C53.5106 38.2699 53.2606 38.3899 53.0606 38.5399C52.4206 39.0199 51.5106 38.2299 51.1006 37.5999C50.0606 35.9599 51.0306 35.1299 51.7206 34.6999C51.9106 34.5799 52.6106 34.4599 53.0706 34.5299C54.1506 34.6999 55.3406 34.6199 56.4206 34.8199C58.0406 35.1299 59.6906 35.3199 61.2906 35.7499C61.6506 35.8499 61.8806 36.0699 62.0106 36.3599C62.0806 36.5199 62.1406 36.7799 62.1406 36.9099H62.1306Z" fill="#C3AD7C"/>
<path d="M60.2106 49.0199C58.7106 49.2799 56.2006 49.4599 55.1406 49.6399C54.1106 49.8199 53.0706 50.1499 52.0506 50.1199C51.5406 50.0999 50.9906 49.4899 50.5906 48.9799C50.4706 48.8199 50.8206 48.1299 50.9506 47.6899C51.5406 45.8199 52.8206 46.4899 53.9306 46.4699C55.1106 46.4499 58.2406 47.0599 59.4206 46.9799C60.8006 46.8799 60.9706 47.2699 60.4606 48.8199C60.3906 49.0399 60.0406 49.1199 60.1906 49.0199H60.2106Z" fill="#C3AD7C"/>
<path d="M60.2106 15.0199C58.7106 15.2799 56.2006 15.4599 55.1406 15.6399C54.1106 15.8199 53.0706 16.1499 52.0506 16.1199C51.5406 16.0999 50.9906 15.4899 50.5906 14.9799C50.4706 14.8199 50.8206 14.1299 50.9506 13.6899C51.5406 11.8199 52.8206 12.4899 53.9306 12.4699C55.1106 12.4499 58.2406 13.0599 59.4206 12.9799C60.8006 12.8799 60.9706 13.2699 60.4606 14.8199C60.3906 15.0399 60.0406 15.1199 60.1906 15.0199H60.2106Z" fill="#C3AD7C"/>
<path d="M333.86 12.71C334.07 12.71 334.27 12.71 334.48 12.71C335.12 12.71 335.75 12.55 336.4 12.55C338.47 12.54 340.55 12.41 342.62 12.39C344.55 12.38 346.48 12.39 348.39 12.54C348.74 12.57 349.26 13.4 349.21 13.82C349.11 14.52 348.81 15.53 348.24 15.78C347.36 16.16 346.17 16.1 345.13 16.04C341.84 15.88 340.39 15.42 337.1 15.25C336.19 15.2 333.57 14.86 332.66 14.83C331.98 14.8 331.37 14.8 330.7 14.66C330.62 14.64 330.25 14.36 330.25 14.33C330.36 13.56 330.1 14.07 330.4 13.36C330.58 12.93 331.93 12.89 332.29 12.84C332.81 12.77 333.34 12.73 333.86 12.72V12.71Z" fill="#C3AD7C"/>
<path d="M346.7 58.73C347.64 58.76 348.42 58.91 348.74 59.32C349.09 59.78 349.14 60.71 348.74 61.07C347.91 61.83 346.79 62.72 345.6 62.9C344.15 63.12 342.52 62.67 340.96 62.54C340.43 62.49 339.88 62.5 339.34 62.49C338.18 62.45 336.12 62.02 334.92 61.53C334.07 61.18 331.27 60.99 330.21 60.91C330.08 60.9 329.85 60.84 329.84 60.78C329.69 59.82 329.12 60.23 330.17 59.4C330.29 59.3 333.3 58.88 333.52 58.88C336.08 58.96 338.81 59.13 341.43 59.12C342.41 59.12 344.86 58.68 346.69 58.73H346.7Z" fill="#C3AD7C"/>
<path d="M344.33 24.39C343.11 24.56 340.35 24.33 341.93 26.23C343.28 27.85 344.96 27.92 346.61 27.81C347.59 27.74 348.74 27.81 349.22 26.57C349.22 24.8 347.67 23.67 346.33 23.96C345.66 24.1 345 24.29 344.33 24.38V24.39Z" fill="#C3AD7C"/>
<path d="M337.32 48.87C337.32 48.55 337.53 48.31 337.94 48.13C338.86 47.73 340.09 47.92 341.06 47.9C342.58 47.88 344.19 47.56 345.71 47.51C345.94 47.51 346.19 47.39 346.39 47.24C347.03 46.76 347.94 47.55 348.35 48.18C349.39 49.82 348.42 50.65 347.73 51.08C347.54 51.2 346.84 51.32 346.38 51.25C345.3 51.08 344.11 51.16 343.03 50.96C341.41 50.65 339.76 50.46 338.16 50.03C337.8 49.93 337.57 49.71 337.44 49.42C337.37 49.26 337.31 49 337.31 48.87H337.32Z" fill="#C3AD7C"/>
<path d="M339.24 36.77C340.74 36.51 343.25 36.33 344.31 36.15C345.34 35.97 346.38 35.64 347.4 35.67C347.91 35.69 348.46 36.3 348.86 36.81C348.98 36.97 348.63 37.66 348.5 38.1C347.91 39.97 346.63 39.3 345.52 39.32C344.34 39.34 341.21 38.73 340.03 38.81C338.65 38.91 338.48 38.52 338.99 36.97C339.06 36.75 339.41 36.67 339.26 36.77H339.24Z" fill="#C3AD7C"/>
<path d="M339.24 70.77C340.74 70.51 343.25 70.33 344.31 70.15C345.34 69.97 346.38 69.64 347.4 69.67C347.91 69.69 348.46 70.3 348.86 70.81C348.98 70.97 348.63 71.66 348.5 72.1C347.91 73.97 346.63 73.3 345.52 73.32C344.34 73.34 341.21 72.73 340.03 72.81C338.65 72.91 338.48 72.52 338.99 70.97C339.06 70.75 339.41 70.67 339.26 70.77H339.24Z" fill="#C3AD7C"/>
</svg>
