<svg width="160" height="64" viewBox="0 0 160 64" fill="none" xmlns="http://www.w3.org/2000/svg">
<g clip-path="url(#clip0_1407_65279)">
<path d="M150 2H10C5.58172 2 2 5.58172 2 10V54C2 58.4183 5.58172 62 10 62H150C154.418 62 158 58.4183 158 54V10C158 5.58172 154.418 2 150 2Z" fill="#A32244"/>
<path d="M142.46 63.52C140.28 63.71 137.97 63.18 135.51 63.27C133.05 63.36 130.56 63.31 128.08 63.28C126.83 63.27 125.65 63.35 124.44 63.51C123.27 63.66 121.92 63.32 120.81 63.75C120.71 63.79 120.48 63.75 120.31 63.75C117.32 63.75 114.26 63.93 111.36 63.7C107.98 63.44 104.65 63.62 101.31 63.51C95.86 64.01 90.35 63.64 84.87 63.73C83.16 63.75 81.43 63.85 79.68 63.55C78.18 63.29 76.35 63.76 74.78 63.3C74.65 63.26 74.34 63.36 74.11 63.38C73.56 63.43 72.9699 63.55 72.45 63.51C69.31 63.26 69.32 63.25 66.69 63.48C66.38 63.51 66 63.32 65.64 63.31C64.19 63.28 62.74 63.25 61.3 63.3C60 63.34 58.63 63.08 57.39 63.51C57.12 63.6 56.56 63.52 56.13 63.52C54.76 63.52 53.39 63.49 52.03 63.52C50.47 63.56 48.88 63.36 47.36 63.73C46.69 63.89 45.73 63.46 45.33 63.56C44.6 63.73 43.91 63.77 43.19 63.74C42.48 63.71 41.79 63.54 41.09 63.53C40.48 63.53 39.87 63.72 39.25 63.74C37.72 63.77 36.07 63.6 34.67 63.79C33.16 64 31.72 63.95 30.24 63.98C28.71 64.01 27.16 63.95 25.63 64C24.44 64.04 23.37 63.86 22.25 63.76C21.13 63.66 19.88 63.96 18.87 63.53C18.83 63.51 18.7 63.53 18.62 63.53C16.3 63.45 13.98 63.33 11.66 63.31H10.16C9.62996 63.29 9.00996 63.27 8.44995 63.16C7.29995 62.97 6.18995 62.56 5.19995 61.95C3.19995 60.75 1.68996 58.78 1.06996 56.53C0.899955 55.9 0.739955 55.23 0.719955 54.56C0.679955 53.85 0.759955 53.37 0.929955 52.82C0.999955 52.6 0.899955 52.11 0.949955 51.82C1.14996 50.71 0.469955 49.83 0.779955 48.77C1.05996 47.82 0.899955 46.81 0.929955 45.84C0.959955 44.73 0.929955 43.62 0.939955 42.51C0.949955 41.75 0.899955 41.05 0.699955 40.42C1.10996 39.58 0.829955 38.37 1.02996 37.39C1.15996 36.74 1.27996 35.73 1.13996 35.26C0.829955 34.2 0.979955 33.15 0.939955 32.1C0.889955 30.54 1.01996 28.97 0.719955 27.43C0.599955 26.78 0.669955 25.91 0.709955 25.15C0.749955 24.44 0.909955 23.76 0.919955 23.05C0.949955 21.74 0.939955 20.45 0.719955 19.15C0.529955 18.02 0.909955 16.64 0.469955 15.52C0.409955 15.37 0.429955 15 0.469955 14.77C0.649955 13.54 0.749955 12.43 0.509955 11.06C0.459955 10.78 0.429955 10.49 0.419955 10.18C0.409955 9.87003 0.439955 9.44003 0.459955 9.07003C0.579955 8.30003 0.769955 7.51003 1.03996 6.80003C1.56995 5.27003 2.51996 3.81003 3.78996 2.87003C4.58996 2.31003 4.71996 1.50003 5.99996 1.29003C6.65996 1.19003 7.82996 0.68003 8.82996 0.60003C9.07996 0.56003 9.33996 0.56003 9.58996 0.54003C9.85996 0.52003 10.1 0.51003 10.3 0.51003C10.73 0.51003 11.16 0.51003 11.56 0.55003C15.82 1.01003 20.14 0.63003 24.42 0.78003C26.23 0.84003 28.13 0.49003 29.85 1.00003C31.13 0.62003 32.7 0.95003 33.92 0.69003C34.7 0.53003 35.38 0.54003 36.09 0.54003L50.18 0.52003C53.27 0.50003 56.36 0.36003 59.45 0.31003C60.32 0.30003 61.17 0.25003 62.11 0.48003C62.8 0.65003 64.06 0.67003 64.99 0.37003C65.17 0.31003 65.54 0.26003 65.67 0.30003C67.43 0.85003 69.17 0.28003 70.89 0.26003C74.27 0.22003 77.57 0.56003 80.93 0.52003C81.64 0.52003 82.48 0.68003 83.04 0.31003C83.59 0.62003 84.01 0.47003 84.69 0.33003C85.39 0.19003 86.54 0.17003 87.16 0.34003C88 0.58003 88.77 0.49003 89.57 0.52003C90.42 0.55003 91.28 0.52003 92.13 0.52003C95.7299 0.60003 99.33 0.68003 102.93 0.76003C103.64 0.78003 104.32 0.92003 105.03 0.98003C105.74 1.04003 106.5 0.87003 107.18 1.18003C107.43 1.30003 108.16 1.21003 108.66 1.21003C110.45 1.21003 112.39 1.41003 114 1.16003C115.59 0.91003 117.29 1.22003 118.77 0.77003C119.18 0.64003 119.94 0.77003 120.53 0.75003C122.93 0.64003 125.41 1.02003 127.75 0.52003C128.61 0.83003 129.63 0.77003 130.61 0.74003C131.33 0.72003 132.15 0.90003 132.74 0.55003C132.81 0.51003 133.06 0.51003 133.21 0.52003C134.08 0.60003 134.85 0.82003 135.82 0.76003C136.63 0.71003 137.28 0.49003 138.17 0.50003C141.36 0.52003 144.49 0.92003 147.69 0.75003C148.13 0.89003 148.6 0.95003 149.08 0.97003C149.56 0.99003 150.04 0.97003 150.62 1.02003C152.55 1.15003 154.54 1.58003 156.1 3.02003C157.56 4.36003 158.53 6.25003 159.1 8.02003C159.22 8.40003 159.31 8.80003 159.38 9.20003C159.43 9.59003 159.47 10.04 159.48 10.36C159.51 11.05 159.52 11.74 159.51 12.43C159.51 13.81 159.47 15.18 159.51 16.55C159.53 17.26 159.65 18.05 159.31 18.69C159.23 18.84 159.27 19.61 159.37 19.83C159.58 20.28 159.45 20.81 159.53 21.24C159.75 22.48 158.89 23.7 159.53 24.92V33.12C159.52 33.76 159.59 34.38 159.36 35.04C159.21 35.48 159.18 36.53 159.32 36.97C159.65 38.01 159.51 39.08 159.52 40.13C159.54 43.29 159.55 46.45 159.52 49.61C159.51 50.99 159.37 52.37 159.3 53.75C159.29 55.25 159.09 57.11 158.07 58.35C158 58.44 157.92 58.58 157.86 58.7C157.72 58.99 157.58 59.28 157.41 59.54C157.25 59.82 157.06 60.08 156.84 60.3C156.28 60.91 155.25 61.34 154.94 61.67C154.29 62.37 153.6 62.38 152.96 62.58C152.01 62.86 151.18 62.8 150.67 62.57C150.15 62.33 149.95 61.99 150.04 61.61C150.08 61.44 150.27 61.24 150.48 61.1C151.14 60.64 151.39 60.37 151.76 60.17C152.12 59.96 152.61 59.82 153.43 59.27C154.46 58.56 155.35 57.65 155.93 56.52C156.21 55.95 156.4 55.33 156.5 54.69C156.56 54.11 156.55 53.23 156.5 52.45C156.93 50.36 156.65 48.15 156.74 46C156.83 43.77 157.19 41.5 156.94 39.31C156.69 37.13 156.75 35 156.75 32.84C156.75 31.2 156.92 29.57 156.96 27.93C157 26.23 156.89 24.49 157 22.82C157.07 21.78 157.34 20.69 157.18 19.71C156.83 17.57 157.13 15.36 156.95 13.25C156.89 12.52 156.85 11.79 156.83 11.06L156.8 9.97003C156.77 9.66003 156.78 9.35003 156.71 9.04003C156.54 7.81003 155.99 6.65003 155.16 5.77003C154.25 4.83003 153.11 4.20003 151.91 3.81003C151.34 3.67003 150.8 3.53003 150.19 3.38003C149.48 3.19003 148.29 3.20003 147.33 3.43003C146.93 3.53003 146.26 3.60003 145.91 3.52003C144.48 3.16003 142.96 3.31003 141.49 3.32003C140.56 3.32003 139.51 3.00003 138.95 3.13003C138.01 3.36003 137.15 3.26003 136.27 3.29003C135.65 3.31003 134.93 3.42003 134.37 3.12003C134.22 3.04003 133.61 3.02003 133.43 3.08003C132.38 3.48003 131.17 3.28003 130.03 3.29003C127.3 3.32003 124.56 3.32003 121.83 3.29003C119.57 3.27003 117.4 3.70003 115.13 3.53003C113.75 3.93003 112.2 3.75003 110.73 3.75003C109.6 3.75003 108.48 3.61003 107.36 3.53003C106.24 3.45003 105.14 3.53003 103.95 3.35003C102.48 3.13003 100.74 3.33003 99.12 3.29003C98.24 3.27003 97.26 3.49003 96.46 3.11003C96.35 3.06003 95.94 3.07003 95.79 3.11003C94.63 3.51003 93.17 3.40003 92.14 3.24003C90.46 2.99003 88.84 3.10003 87.19 3.06003C85.83 3.06003 84.46 3.05003 83.09 3.04003C82.1099 3.02003 81.1499 3.10003 80.13 2.93003C79.34 2.80003 78.3 3.02003 77.37 3.04003C76.43 3.07003 75.49 3.04003 74.55 3.04003H68.4C67.29 3.04003 66.17 3.07003 65.07 3.04003C64.02 3.00003 62.99 2.84003 61.95 2.83003C59.02 2.78003 56.15 3.21003 53.2 3.05003C52.4 3.34003 51.63 3.13003 50.8 3.07003C50.03 3.02003 49.14 2.90003 48.37 3.19003C48.16 3.27003 47.75 3.25003 47.43 3.27003C46.72 3.31003 46.1 3.04003 45.26 3.24003C44.67 3.39003 43.75 3.24003 42.99 3.28003C42.19 3.31003 41.28 3.11003 40.61 3.47003C39.2 2.93003 37.86 3.76003 36.45 3.51003C36.01 3.43003 35.52 3.40003 35.06 3.35003C34.83 3.32003 34.56 3.25003 34.37 3.28003C30.63 3.77003 26.82 3.37003 23.05 3.51003C22.59 3.53003 22.14 3.63003 21.68 3.68003C21.46 3.70003 21.21 3.72003 20.99 3.69003C18.93 3.49003 18.93 3.50003 17.01 3.69003C16.53 3.74003 16 3.69003 15.5 3.72003C14.2 3.78003 12.93 3.68003 11.58 3.91003C11.24 3.97003 10.9 3.98003 10.55 3.97003C10.38 3.97003 10.2 3.95003 10.02 3.94003C9.87996 3.94003 9.74996 3.92003 9.60995 3.90003C9.05995 3.83003 8.47996 3.80003 7.91996 3.90003C6.93996 4.08003 5.90996 4.47003 5.12996 5.32003C4.13996 6.37003 3.51996 7.73003 3.33996 9.15003C3.25996 9.81003 3.28996 10.7 3.27996 11.56V14.12C3.27996 14.55 3.18996 15.14 3.28996 15.37C3.68996 16.35 3.95996 17.22 3.28996 18.15C3.25996 18.19 3.25996 18.55 3.28996 18.63C3.70996 19.47 3.50996 20.57 3.48996 21.51C3.43996 25.13 3.90996 28.69 3.73996 32.31C3.70996 32.89 3.81996 33.69 3.67996 34.03C3.38996 34.76 3.85996 35.11 3.74996 35.74C3.65996 36.27 3.82996 37.05 3.70996 37.49C3.27996 39.09 3.40996 40.89 3.54996 42.4C3.67996 43.82 3.82996 45.28 3.68996 46.55C3.40996 49.05 3.51996 51.56 3.49996 54.03C3.49996 55.07 3.75995 56.11 4.23995 57.03C4.73995 57.95 5.46996 58.73 6.31996 59.32C6.99996 59.79 7.84995 60.32 8.68995 60.1C8.85995 60.04 9.20996 60.16 9.46996 60.2C9.61996 60.22 9.77996 60.25 9.92996 60.28C10.1 60.31 10.32 60.33 10.51 60.35C10.9 60.39 11.29 60.43 11.68 60.43C12.46 60.43 13.24 60.28 14.03 60.22C14.67 60.17 15.26 60.22 15.92 60.02C16.4 59.87 17.24 59.99 17.99 60.19C19.48 60.59 21.04 60.99 22.96 60.92C24.66 60.86 26.37 60.92 28.08 60.9C28.8 60.9 29.47 60.92 30.24 60.73C30.93 60.56 32.09 60.63 32.92 60.76C34.24 60.96 35.45 60.98 36.74 60.76C37.18 60.68 37.71 60.68 38.2 60.68H47.17C47.89 60.68 48.65 60.61 49.24 60.89C49.72 60.56 50.47 60.67 51.1 60.69C52.06 60.73 53 60.87 53.97 60.9C55.11 60.93 56.22 60.9 57.36 60.7C58.41 60.51 59.68 60.82 60.81 60.54C61.02 60.49 61.47 60.68 61.78 60.66C63.08 60.59 64.48 60.9 65.68 60.44C65.78 60.4 66.06 60.4 66.18 60.44C67.67 60.9 69.1499 60.55 70.63 60.44C72.24 60.31 73.71 60.69 75.29 60.68C77.08 60.67 78.95 60.53 80.65 60.71C83.58 61.02 86.5 60.87 89.42 60.9C92.41 60.94 95.3999 60.93 98.38 60.9C99.68 60.89 100.97 60.72 102.27 60.69C103.72 60.65 105.17 60.69 106.62 60.69H110.72C111.36 60.7 112.07 60.57 112.63 60.86C112.74 60.92 113.14 60.94 113.3 60.89C114.47 60.58 115.6 60.6 116.79 60.88C117.13 60.96 117.63 60.88 118.03 60.93C119.15 61.04 120.11 60.77 121.15 60.69C122.1 60.61 123.19 60.9 124.04 60.47C124.16 60.41 124.62 60.41 124.77 60.47C126.68 61.19 128.87 59.99 130.77 60.66C131.53 60.25 132.32 60.72 132.92 60.66C133.79 60.57 134.64 60.46 135.55 60.47C136.4 60.47 137.26 60.49 138.11 60.47C139.67 60.42 141.24 60.61 142.8 60.27C143.32 60.16 144.29 60.08 144.93 60.41C145.04 60.47 145.38 60.46 145.61 60.44C147.32 60.31 149.4 60.67 149.82 61.27C150.07 61.62 150.04 62.05 149.85 62.41C149.75 62.59 149.01 62.7 148.54 62.83C147.72 63.06 146.94 63.37 146.05 63.46C145 63.57 143.84 63.49 142.46 63.49V63.52Z" fill="#9A0036"/>
</g>
<defs>
<clipPath id="clip0_1407_65279">
<rect width="160" height="64" fill="white"/>
</clipPath>
</defs>
</svg>
