<svg width="188" height="88" viewBox="0 0 188 88" fill="none" xmlns="http://www.w3.org/2000/svg">
<g filter="url(#filter0_bd_1382_228206)">
<g clip-path="url(#clip0_1382_228206)">
<path d="M22.672 60.4887C23.4429 60.2935 24.261 60.8379 25.1314 60.7455C26.0019 60.653 26.8827 60.7044 27.759 60.7352C28.202 60.7455 28.6199 60.6633 29.0466 60.4989C29.4601 60.3448 29.9377 60.6941 30.3313 60.2524C30.3666 60.2113 30.4484 60.2524 30.5089 60.2524C31.5665 60.2524 32.6478 60.0675 33.6752 60.3038C34.8707 60.5708 36.0499 60.3859 37.2321 60.4989C39.161 59.9853 41.1104 60.3654 43.0496 60.2729C43.6554 60.2421 44.2657 60.1497 44.887 60.4578C45.4184 60.7249 46.0663 60.2421 46.6198 60.7146C46.6655 60.7557 46.7746 60.653 46.8564 60.6325C47.0524 60.5811 47.2603 60.4578 47.4446 60.4989C48.5567 60.766 48.5538 60.766 49.4825 60.5297C49.593 60.4989 49.7279 60.6941 49.8547 60.7044C50.3662 60.7352 50.8806 60.766 51.3907 60.7146C51.8506 60.6736 52.337 60.9406 52.7748 60.4989C52.8699 60.4065 53.0689 60.4887 53.22 60.4887C53.7035 60.4887 54.1877 60.5195 54.6697 60.4887C55.221 60.4476 55.7834 60.653 56.3237 60.2729C56.5595 60.1086 56.9015 60.5503 57.0415 60.4476C57.301 60.2729 57.5427 60.2318 57.7977 60.2627C58.0483 60.2935 58.2915 60.4681 58.5392 60.4784C58.7551 60.4784 58.9704 60.2832 59.1893 60.2627C59.7317 60.2318 60.314 60.4065 60.81 60.2113C61.3444 59.9956 61.8544 60.0469 62.3755 60.0264C62.9187 59.9956 63.4648 60.0572 64.0065 60.0059C64.4289 59.9648 64.8055 60.1497 65.2013 60.2524C65.5963 60.3551 66.0393 60.0469 66.3968 60.4887C66.413 60.5092 66.4557 60.4887 66.4852 60.4887C67.3063 60.5708 68.1266 60.6941 68.9484 60.7146C70.3679 60.7557 71.7882 60.7146 73.2085 60.7352C73.6102 60.7352 74.0325 60.5914 74.4084 60.9612C74.4865 61.0331 74.6582 60.9304 74.7621 60.9817C75.155 61.1872 75.466 60.4887 75.8426 60.8071C76.1795 61.0947 76.5355 60.9304 76.8811 60.9612C77.2725 60.992 77.6668 60.9612 78.0589 60.9714C78.3294 60.9817 78.5748 60.9304 78.7996 60.7249C79.0981 61.1461 79.5234 60.8585 79.8728 61.0639C80.1027 61.1974 80.4595 61.3207 80.6282 61.1769C81.0027 60.8585 81.3756 61.0125 81.7471 60.9714C82.2991 60.9201 82.8548 61.0536 83.401 60.7455C83.6317 60.6222 83.9405 60.6941 84.2088 60.7352C84.4594 60.7763 84.7011 60.9406 84.951 60.9509C85.4153 60.9817 85.8715 60.9714 86.3314 60.7455C86.7302 60.5503 87.2181 60.9406 87.6154 60.4989C87.6677 60.4373 87.7989 60.4578 87.8807 60.4989C88.3163 60.6838 88.7091 60.7865 89.1941 60.54C89.5862 60.3346 90.0881 60.4989 90.5414 60.4989C91.0249 60.4989 91.5202 60.4167 91.9875 60.5297C92.2874 60.6016 92.4371 60.0161 92.7923 60.3859C92.9832 60.5811 93.3606 60.4784 93.6547 60.4989C93.9561 60.5092 94.273 60.427 94.559 60.5195C96.067 60.992 97.5956 60.6016 99.1087 60.7557C99.7485 60.8174 100.421 60.4681 101.029 60.9817C101.48 60.5914 102.036 60.9304 102.469 60.6633C102.744 60.4989 102.984 60.5092 103.235 60.5092C104.897 60.4887 106.559 60.5297 108.221 60.4887C109.315 60.4578 110.406 60.3243 111.5 60.2729C111.807 60.2627 112.108 60.2113 112.441 60.4476C112.686 60.6222 113.132 60.6427 113.459 60.3346C113.522 60.2729 113.653 60.2216 113.701 60.2627C114.323 60.8276 114.939 60.2421 115.549 60.2216C116.745 60.1805 117.913 60.5297 119.1 60.4887C119.353 60.4887 119.65 60.653 119.845 60.2729C120.04 60.5914 120.187 60.4373 120.428 60.2935C120.675 60.1497 121.084 60.1291 121.302 60.3038C121.598 60.5503 121.871 60.4578 122.154 60.4887C122.455 60.5195 122.759 60.4887 123.06 60.4887C124.335 60.5606 125.609 60.6325 126.883 60.7352C127.132 60.7557 127.375 60.8995 127.624 60.9612C127.874 61.0228 128.144 60.8482 128.383 61.1666C128.472 61.2899 128.728 61.1974 128.908 61.1974C129.543 61.1974 130.229 61.4029 130.797 61.1461C131.36 60.8893 131.963 61.2077 132.484 60.7455C132.63 60.6119 132.899 60.7455 133.108 60.7249C133.958 60.6119 134.834 61.0023 135.662 60.4887C135.968 60.8071 136.329 60.7455 136.674 60.7146C136.928 60.6941 137.22 60.879 137.428 60.5195C137.452 60.4784 137.542 60.4784 137.595 60.4887C137.902 60.5708 138.176 60.7968 138.52 60.7352C138.805 60.6838 139.037 60.4578 139.35 60.4681C140.477 60.4887 141.586 60.8995 142.719 60.7249C143.028 61.0125 143.382 60.9612 143.731 60.9714C144.349 60.9817 144.927 60.6325 145.561 60.7146C146.16 60.7968 146.8 60.8893 147.366 60.6941C148.345 60.3654 149.317 60.5708 150.289 60.4989C150.539 60.4784 150.821 60.3551 151.047 60.7044C151.101 60.7865 151.374 60.7455 151.45 60.6427C151.609 60.427 151.796 60.5606 151.95 60.4784C152.39 60.2524 152.819 61.1358 153.252 60.4784H154.703C155.186 60.4784 155.67 60.4681 156.153 60.4784C156.379 60.4784 156.598 60.4167 156.831 60.6427C156.988 60.7968 157.359 60.8276 157.515 60.6838C157.883 60.3448 158.261 60.4887 158.631 60.4784C159.749 60.4578 160.867 60.4476 161.985 60.4784C162.474 60.4887 162.962 60.6325 163.451 60.7044C163.947 60.7865 164.461 60.54 164.944 60.8585C164.978 60.879 165.029 60.8585 165.071 60.8585C165.267 60.8071 165.465 60.7044 165.657 60.7249C165.907 60.7455 166.237 61.0434 166.38 60.9098C166.663 60.6633 166.848 60.9304 167.062 60.9612C167.679 61.0434 168.062 61.6905 167.992 62.4712C167.976 62.6458 167.903 62.8307 167.815 62.9643C167.26 63.8169 167.255 63.7655 166.361 63.8169C165.23 63.8785 164.125 63.3957 162.992 63.5703C162.252 63.1286 161.47 63.4162 160.71 63.3238C159.92 63.2313 159.117 62.8615 158.344 63.1183C157.574 63.3752 156.818 63.3135 156.056 63.3135C155.477 63.3135 154.899 63.1389 154.318 63.0978C153.715 63.0567 153.101 63.1697 152.509 63.0567C152.142 62.9848 151.755 62.7075 151.408 62.8718C150.65 63.2416 149.868 62.9232 149.124 63.1081C148.091 63.3752 147.049 63.2005 146.027 63.3649C145.476 63.4573 144.93 63.5601 144.376 63.5498C144.123 63.5498 143.884 63.5498 143.613 63.3854C143.336 63.2108 142.932 63.2108 142.588 63.4471C142.446 63.5498 142.208 63.6217 142.086 63.5395C141.579 63.1697 141.043 63.3238 140.522 63.3341C140.192 63.3341 139.822 63.0054 139.624 63.1389C139.291 63.3752 138.988 63.2724 138.677 63.3032C138.456 63.3238 138.204 63.4368 138.007 63.1286C137.954 63.0464 137.738 63.0259 137.673 63.0875C137.3 63.4984 136.872 63.293 136.471 63.3032C135.505 63.3341 134.537 63.3341 133.571 63.3032C132.772 63.2827 132.004 63.7244 131.199 63.5498C130.709 63.9607 130.163 63.7758 129.642 63.7758C129.243 63.7758 128.846 63.632 128.448 63.5498C128.05 63.4676 127.662 63.5498 127.241 63.3649C126.722 63.1389 126.105 63.3443 125.532 63.3032C125.221 63.2827 124.873 63.5087 124.592 63.1183C124.554 63.067 124.41 63.0773 124.357 63.1183C123.947 63.5292 123.43 63.4162 123.065 63.2519C122.47 62.9951 121.896 63.1081 121.315 63.067C120.833 63.0362 120.347 63.0875 119.865 63.0464C119.519 63.0156 119.181 63.1081 118.817 62.9334C118.539 62.7999 118.17 63.0259 117.839 63.0464C117.508 63.0773 117.174 63.0464 116.843 63.0464H114.667C114.274 63.0464 113.88 63.0773 113.489 63.0464C113.119 63.0054 112.754 62.841 112.385 62.8307C111.349 62.7794 110.331 63.2211 109.288 63.0567C109.006 63.3546 108.733 63.1389 108.438 63.0773C108.167 63.0259 107.85 62.9026 107.579 63.2005C107.504 63.2827 107.36 63.2622 107.246 63.2827C106.994 63.3238 106.777 63.0464 106.478 63.2519C106.268 63.406 105.945 63.2519 105.675 63.2827C105.391 63.3135 105.07 63.1081 104.832 63.4779C104.334 62.9232 103.858 63.7758 103.361 63.519C103.204 63.4368 103.033 63.406 102.868 63.3546C102.786 63.3238 102.693 63.2519 102.622 63.2827C101.301 63.786 99.9497 63.3752 98.6171 63.519C98.4528 63.5395 98.2951 63.6422 98.1314 63.6936C98.0533 63.7141 97.9649 63.7347 97.8875 63.7039C97.1571 63.4984 97.1593 63.5087 96.4775 63.7039C96.3065 63.7552 96.1193 63.7039 95.9417 63.7347C95.481 63.7963 95.0314 63.6936 94.5546 63.9299C94.0777 64.1661 93.5588 63.745 93.0636 63.5601C92.6228 63.3957 92.1902 63.2211 91.7096 63.2313C90.5023 63.2724 89.2929 63.2416 88.0841 63.2416C87.933 63.2416 87.7244 63.1594 87.6412 63.2519C87.2948 63.6628 86.9874 63.9401 86.6572 63.2519C86.6417 63.2211 86.5157 63.2211 86.4884 63.2519C86.1914 63.6833 85.8037 63.4779 85.4691 63.4573C84.1881 63.406 82.93 63.8888 81.6461 63.7141C81.4397 63.6833 81.1589 63.7963 81.038 63.6525C80.7801 63.3546 80.6555 63.8374 80.4322 63.7244C80.245 63.632 79.9679 63.8066 79.8109 63.6833C79.2426 63.2416 78.6095 63.3752 78.0737 63.519C77.5732 63.6525 77.0558 63.8066 76.6055 63.6628C75.7181 63.3649 74.8373 63.4984 73.9544 63.4676C73.0485 63.4368 72.1412 63.4471 71.2354 63.4676C70.8647 63.4779 70.4674 63.293 70.1247 63.6833C70.0554 63.7655 69.8874 63.7141 69.7702 63.6833C69.4908 63.6217 69.2152 63.4676 68.9381 63.4676C68.6609 63.4676 68.386 63.6217 68.106 63.6833C67.8804 63.7347 67.6696 63.6833 67.4375 63.8888C67.2679 64.0429 66.9709 63.9196 66.7048 63.7141C66.1756 63.3032 65.6243 62.8924 64.9455 62.9643C64.3448 63.0259 63.7375 62.9643 63.1339 62.9848C62.8803 62.9848 62.6415 62.9643 62.3703 63.1594C62.1264 63.3341 61.7173 63.2622 61.4218 63.1286C60.9552 62.9232 60.5262 62.9026 60.07 63.1286C59.913 63.2108 59.7258 63.2108 59.5519 63.2108C58.4942 63.2108 57.4366 63.2108 56.3797 63.2108C56.1247 63.2108 55.8542 63.2827 55.6463 62.9951C55.4775 63.3341 55.2122 63.2211 54.9896 63.2005C54.6491 63.1594 54.316 63.0156 53.9755 62.9848C53.5716 62.954 53.1772 62.9848 52.7748 63.1903C52.4034 63.3854 51.956 63.067 51.5543 63.3546C51.4791 63.406 51.3214 63.2108 51.2108 63.2313C50.7516 63.3032 50.2556 62.9848 49.8311 63.4573C49.7957 63.4984 49.6969 63.4984 49.6557 63.4573C49.1279 62.9848 48.6039 63.3443 48.0814 63.4573C47.5116 63.5909 46.9913 63.2005 46.4341 63.2108C45.7995 63.2211 45.1384 63.3649 44.5362 63.18C43.4984 62.8615 42.4659 63.0156 41.4325 62.9848C40.3756 62.9437 39.3172 62.954 38.2603 62.9848C37.8004 62.9951 37.3449 63.1697 36.8843 63.2005C36.3728 63.2416 35.8576 63.2005 35.3439 63.2005C34.8604 63.2005 34.3769 63.2108 33.8934 63.2005C33.6671 63.2005 33.4158 63.3238 33.2182 63.0362C33.1777 62.9745 33.0391 62.954 32.9824 63.0054C32.5682 63.3238 32.1687 63.3032 31.7478 63.0156C31.6284 62.9334 31.4523 63.0156 31.31 62.9643C30.9135 62.8513 30.573 63.1286 30.206 63.2108C29.8684 63.293 29.4851 62.9951 29.1852 63.4368C29.1439 63.4984 28.9788 63.4984 28.9257 63.4368C28.2491 62.6972 27.4752 63.9299 26.8016 63.2416C26.5326 63.6628 26.2532 63.18 26.0402 63.2416C25.7307 63.3341 25.4322 63.4471 25.1108 63.4368C24.8086 63.4368 24.505 63.406 24.205 63.4368C23.6544 63.4881 23.0965 63.293 22.5467 63.6422C22.3624 63.7552 22.0182 63.8374 21.7927 63.4984C21.7529 63.4368 21.632 63.4471 21.5539 63.4676C20.9495 63.6011 20.2147 63.2313 20.0636 62.615C19.9751 62.2555 19.9854 61.8138 20.0547 61.444C20.0894 61.2591 20.3525 61.1461 20.5191 61.0125C20.808 60.7763 21.0844 60.4578 21.3983 60.3654C21.7713 60.2524 22.1796 60.3346 22.6675 60.3346L22.672 60.4887Z" fill="#DAE0E8"/>
</g>
</g>
<defs>
<filter id="filter0_bd_1382_228206" x="-80" y="-100" width="348" height="264" filterUnits="userSpaceOnUse" color-interpolation-filters="sRGB">
<feFlood flood-opacity="0" result="BackgroundImageFix"/>
<feGaussianBlur in="BackgroundImageFix" stdDeviation="50"/>
<feComposite in2="SourceAlpha" operator="in" result="effect1_backgroundBlur_1382_228206"/>
<feColorMatrix in="SourceAlpha" type="matrix" values="0 0 0 0 0 0 0 0 0 0 0 0 0 0 0 0 0 0 127 0" result="hardAlpha"/>
<feOffset dy="4"/>
<feGaussianBlur stdDeviation="10"/>
<feComposite in2="hardAlpha" operator="out"/>
<feColorMatrix type="matrix" values="0 0 0 0 0 0 0 0 0 0.0352941 0 0 0 0 0.160784 0 0 0 0.04 0"/>
<feBlend mode="normal" in2="effect1_backgroundBlur_1382_228206" result="effect2_dropShadow_1382_228206"/>
<feBlend mode="normal" in="SourceGraphic" in2="effect2_dropShadow_1382_228206" result="shape"/>
</filter>
<clipPath id="clip0_1382_228206">
<rect width="148" height="4" fill="white" transform="translate(20 60)"/>
</clipPath>
</defs>
</svg>
