<svg width="360" height="240" viewBox="0 0 360 240" fill="none" xmlns="http://www.w3.org/2000/svg">
<path d="M18.38 37.7689C22.27 39.9346 23.93 35.6327 23.03 32.9453C24.79 33.9002 25.71 36.1446 26.36 38.4186C26.99 40.7123 27.38 43.0354 27.87 44.2167C28.14 44.7385 32.96 48.4103 39.01 53.3717C42.04 55.8524 45.36 58.6382 48.7 61.5521C52.05 64.4757 55.41 67.5471 58.63 70.9629C58.91 71.2681 59.2 71.6028 59.51 71.9572C59.82 72.3017 60.15 72.6561 60.47 73.0302C61.12 73.7783 61.76 74.6052 62.34 75.4321C63.54 77.017 64.46 78.7102 64.44 80.108C64.43 80.8463 63.43 80.8463 62.02 80.5018C61.32 80.3345 60.52 80.0785 59.7 79.793C58.9 79.4682 58.08 79.1138 57.31 78.7791C56.23 78.4444 50.61 75.5798 49.22 74.684C48.85 74.4576 48.47 74.241 48.12 74.0146C47.77 73.7685 47.43 73.5322 47.09 73.296C46.41 72.8136 45.75 72.3313 45.12 71.8391C43.88 70.8251 42.73 69.7915 41.66 68.748C40.63 67.6652 39.65 66.6119 38.76 65.529C37.9 64.4265 37.06 63.3535 36.32 62.2707C33.31 57.9098 31.23 53.6375 28.88 49.5817C28.08 48.2331 27.74 47.2388 27.32 46.3923C27.11 45.969 26.89 45.585 26.6 45.2011C26.31 44.8172 25.96 44.4235 25.47 44.01C24.62 43.2914 23.32 42.5334 21.36 41.0765C18.94 39.2947 18.92 38.8124 18 37.9756L18.37 37.7689H18.38Z" fill="#CCEAE6"/>
<path d="M251.201 149.194C253.351 148.908 254.201 147.697 254.161 146.319C254.121 144.941 253.171 143.395 251.921 142.539C252.941 142.431 254.021 142.706 255.091 143.199C255.621 143.445 256.151 143.75 256.671 144.085C256.931 144.252 257.191 144.429 257.441 144.616C257.691 144.813 257.931 145.02 258.171 145.226C260.071 146.9 261.681 148.682 262.671 149.558C262.791 149.656 263.261 149.794 264.031 149.981C264.421 150.08 264.871 150.188 265.401 150.316C265.661 150.385 265.941 150.444 266.241 150.523C266.541 150.591 266.831 150.7 267.151 150.798C268.421 151.202 269.951 151.674 271.641 152.324C272.461 152.678 273.331 153.062 274.241 153.476C274.691 153.692 275.161 153.909 275.631 154.125C276.101 154.352 276.551 154.627 277.021 154.893C277.961 155.435 278.931 156.006 279.921 156.626C280.871 157.295 281.821 158.004 282.801 158.752C283.041 158.939 283.281 159.126 283.531 159.323C283.771 159.52 283.991 159.737 284.231 159.943C284.691 160.367 285.151 160.79 285.621 161.233C286.081 161.676 286.551 162.109 286.991 162.581C287.421 163.064 287.851 163.556 288.271 164.058C291.661 168.045 294.311 173.036 295.321 178.293C295.401 178.755 295.511 179.238 295.571 179.769C295.621 180.291 295.671 180.832 295.701 181.384C295.731 181.935 295.751 182.486 295.741 183.037C295.711 183.598 295.671 184.15 295.601 184.681C295.531 185.213 295.451 185.725 295.341 186.207C295.211 186.699 295.051 187.152 294.881 187.566C294.521 188.392 294.081 189.052 293.521 189.456C292.931 189.879 292.281 189.141 291.641 187.979C291.341 187.388 290.971 186.709 290.621 186C290.451 185.646 290.281 185.282 290.111 184.927C289.941 184.573 289.741 184.228 289.561 183.894C289.441 183.667 289.181 183.195 288.851 182.575C288.531 181.964 288.041 181.246 287.601 180.517C287.371 180.153 287.161 179.779 286.921 179.434C286.681 179.09 286.441 178.765 286.231 178.45C285.811 177.84 285.451 177.328 285.251 177.032C284.781 176.422 284.341 175.822 283.921 175.221C283.711 174.916 283.511 174.621 283.301 174.325C283.081 174.04 282.871 173.754 282.651 173.479C282.231 172.908 281.831 172.347 281.441 171.786C281.041 171.234 280.621 170.713 280.231 170.171C279.841 169.63 279.461 169.098 279.091 168.576C278.691 168.074 278.301 167.563 277.921 167.06C277.541 166.558 277.191 166.037 276.811 165.554C276.421 165.072 276.041 164.599 275.661 164.117C275.291 163.635 274.921 163.152 274.551 162.68C274.171 162.217 273.771 161.774 273.391 161.321C273.001 160.869 272.621 160.416 272.241 159.973C272.051 159.746 271.861 159.52 271.671 159.303C271.471 159.097 271.261 158.89 271.061 158.683C270.251 157.856 269.431 157.029 268.601 156.212C267.741 155.445 266.841 154.726 265.931 154.007C264.731 153.023 263.941 152.354 263.201 151.773C262.451 151.202 261.711 150.769 260.471 150.493C259.361 150.306 257.861 150.316 255.481 150.139C254.761 150.07 254.171 150.07 253.721 150.03C253.261 149.991 252.911 149.942 252.611 149.883C252.021 149.774 251.641 149.656 251.051 149.587L251.221 149.203L251.201 149.194Z" fill="#CCEAE6"/>
<path d="M205.27 65.6064C207.21 64.6811 207.86 63.0765 207.59 61.5211C207.46 60.7435 207.11 59.9855 206.61 59.3358C206.11 58.6959 205.46 58.184 204.77 57.8887C206.74 57.0027 209.18 57.9084 211.26 59.2078C213.36 60.4974 215.15 62.1708 216.28 62.7516C216.55 62.8993 218.2 62.7221 220.81 62.6335C223.42 62.5449 226.99 62.5252 231.06 62.9387C233.09 63.1454 235.25 63.4506 237.47 63.9231C238.03 64.0314 238.58 64.1692 239.15 64.2972C239.43 64.3661 239.71 64.435 240 64.5039C240.3 64.5925 240.59 64.6712 240.89 64.7598C242.09 65.1044 243.27 65.5178 244.43 65.9805C246.75 66.9157 248.96 68.0576 250.97 69.3078C252.99 70.558 254.8 71.8967 256.56 73.2749C257.79 74.2691 259.34 75.5784 260.83 76.8975C261.2 77.2519 261.57 77.5669 261.91 77.9114C262.26 78.2461 262.59 78.6301 262.89 78.9648C263.5 79.6538 263.99 80.3921 264.24 81.16C264.51 81.9672 263.55 82.42 262.01 82.6464C260.49 82.8236 258.4 82.6956 256.65 82.4003C256.05 82.3216 254.11 81.977 252.17 81.4947C250.23 81.0123 248.35 80.4118 247.59 80.1657C244.38 79.0632 241.8 77.8425 239.45 76.6809C238.86 76.3856 238.3 76.11 237.74 75.8147C237.18 75.5292 236.64 75.2536 236.1 74.9681C234.97 74.3873 233.84 73.7868 232.76 73.1962C228.41 70.8041 224.49 68.3627 220.29 66.581C218.88 65.9903 218.02 65.4194 217.18 65.0256C216.35 64.622 215.55 64.3956 214.29 64.4842C213.19 64.5728 211.74 64.9862 209.41 65.508C206.59 66.1774 206.29 65.9017 205.17 66.0789L205.26 65.5966L205.27 65.6064Z" fill="#CCEAE6"/>
<path d="M85.8598 86.7131C87.1198 86.408 88.2198 85.8665 89.0698 85.1085C89.9098 84.3506 90.4998 83.3661 90.8098 82.2931C91.1198 81.2202 91.1498 80.0782 90.9098 79.0052C90.7798 78.4737 90.5898 77.9618 90.3298 77.4991C90.0698 77.0463 89.7398 76.6328 89.3798 76.2883C90.8198 76.1013 92.2798 76.6132 93.4798 77.5188C94.6998 78.4245 95.6898 79.6746 96.5098 80.9741C97.3298 82.2735 98.0098 83.6123 98.6798 84.7738C99.3398 85.9354 100.01 86.9002 100.62 87.4514C100.76 87.5892 101.38 87.6877 102.35 87.7566C102.59 87.7566 102.86 87.7763 103.15 87.7861C103.43 87.796 103.74 87.7861 104.07 87.7861C104.4 87.7763 104.73 87.7664 105.09 87.7369C105.44 87.6975 105.81 87.6581 106.2 87.6188C107.77 87.4416 109.65 87.1463 111.72 86.8214C113.8 86.4966 116.1 86.1323 118.64 85.8567C119.91 85.7189 121.25 85.6106 122.64 85.5515C122.99 85.5417 123.34 85.522 123.7 85.5122C124.05 85.5122 124.41 85.5023 124.77 85.4925C125.43 85.4728 126.09 85.4629 126.76 85.4629C129.44 85.4334 132.19 85.4925 135 85.6894C140.61 86.0831 146.39 87.0183 152.15 89.1151C154.18 89.8731 156.77 90.9953 159.07 92.4424C161.37 93.8894 163.39 95.6515 164.18 97.7483C164.6 98.8607 163.51 99.6383 161.81 100.239C160.11 100.82 157.78 101.204 155.75 101.499C155.41 101.548 154.68 101.666 153.74 101.804C152.8 101.932 151.65 102.109 150.49 102.257C148.15 102.562 145.72 102.838 144.72 102.907C136.24 103.527 129.05 101.962 122.77 99.7368C119.81 98.6145 116.98 97.5514 114.22 96.5079C111.29 95.4152 108.43 94.3521 105.57 93.2791C105.32 93.1806 105.1 93.1019 104.87 92.9936C104.63 92.8853 104.4 92.777 104.19 92.6786C103.76 92.4719 103.36 92.275 103.01 92.0486C102.66 91.832 102.33 91.6253 102.03 91.4284C101.73 91.2217 101.45 91.0248 101.18 90.8378C100.9 90.6606 100.63 90.4834 100.36 90.3259C100.09 90.1585 99.7998 90.0207 99.4998 89.8829C98.9098 89.5974 98.2098 89.3907 97.3498 89.2037C96.9698 89.1249 96.5498 89.0659 96.0898 88.9969C95.6298 88.9379 95.1198 88.8788 94.5598 88.8099C93.9998 88.741 93.3898 88.6622 92.7098 88.5835C92.0598 88.4949 91.3298 88.3965 90.5298 88.2882C88.6298 88.0322 87.7498 87.8846 87.1098 87.6975C86.8098 87.6089 86.5598 87.54 86.3098 87.4711C86.1898 87.4317 86.0598 87.4022 85.9298 87.3727C85.7998 87.353 85.6598 87.3333 85.5098 87.3234L85.8798 86.7328L85.8598 86.7131Z" fill="#CCEAE6"/>
<path d="M128.869 78.6319C134.069 75.0585 131.819 67.3802 128.699 65.6279C133.369 62.3695 139.729 70.2349 142.569 71.554C142.909 71.7115 144.899 70.9929 148.049 70.0479C151.199 69.1127 155.519 67.9216 160.539 67.262C165.559 66.6025 171.319 66.4351 177.149 67.5672C182.969 68.6894 188.869 71.1209 193.719 75.3144C194.149 75.6885 194.589 76.0921 195.039 76.5351C195.489 76.9781 195.939 77.4801 196.389 78.0019C197.279 79.0453 198.139 80.1971 198.859 81.4177C200.279 83.9083 201.129 86.6252 200.699 89.1748C200.469 90.5235 199.149 90.9467 197.469 90.9566C196.629 90.9566 195.689 90.8582 194.739 90.7105C193.779 90.5924 192.799 90.4349 191.889 90.2872C191.589 90.238 190.929 90.1395 190.099 90.0116C189.259 89.9131 188.229 89.7852 187.189 89.6572C186.669 89.5981 186.149 89.5292 185.649 89.4701C185.139 89.4209 184.649 89.3717 184.199 89.3323C183.289 89.2437 182.539 89.165 182.109 89.1158C181.199 88.9878 180.299 88.8598 179.419 88.722C178.549 88.5743 177.699 88.407 176.869 88.2101C175.199 87.8557 173.619 87.4324 172.099 86.9402C170.559 86.4776 169.109 85.9361 167.679 85.375C166.249 84.8238 164.869 84.2134 163.509 83.6031C158.079 81.1519 153.079 78.435 147.789 76.7812C144.249 75.6787 143.359 74.0347 140.269 75.0093C138.929 75.4424 137.179 76.5154 134.249 77.8542C130.679 79.5178 130.219 79.006 128.729 79.4588L128.869 78.6417V78.6319Z" fill="#CCEAE6"/>
<path d="M206.489 96.8332C209.769 95.7011 211.239 93.1712 211.289 90.5035C211.319 89.1746 210.999 87.8161 210.409 86.625C209.819 85.4535 208.959 84.4494 207.979 83.7899C211.249 82.7661 214.859 84.794 217.739 87.4519C220.659 90.0901 222.859 93.3583 224.399 94.6085C224.759 94.9235 227.389 95.1007 231.499 95.7897C235.609 96.4788 241.209 97.7782 247.339 100.131C253.449 102.484 260.039 105.88 266.049 110.3C272.079 114.72 277.519 120.114 281.769 126.483C283.259 128.738 284.989 131.78 286.179 134.88C287.369 137.981 288.039 141.151 287.269 143.72C286.859 145.079 285.199 144.99 283.069 144.252C280.949 143.504 278.379 142.096 276.179 140.846C275.439 140.432 272.979 139.074 270.479 137.637C267.969 136.209 265.419 134.723 264.389 134.103C255.709 128.718 249.759 122.851 244.479 117.269C239.219 111.688 234.599 106.293 228.979 102.08C228.049 101.371 227.299 100.731 226.649 100.16C225.999 99.5797 225.459 99.0481 224.899 98.615C224.339 98.172 223.779 97.7979 223.109 97.5125C222.439 97.227 221.659 97.0498 220.679 96.9612C218.969 96.8234 216.589 97.1679 212.889 97.5223C210.619 97.7881 209.429 97.7782 208.529 97.7389C207.639 97.6896 207.099 97.5321 206.199 97.5912L206.479 96.8135L206.489 96.8332Z" fill="#CCEAE6"/>
<path d="M47.2897 34.8745C47.8897 35.7014 48.5897 36.3018 49.2597 36.6956C49.9497 37.0992 50.6597 37.3059 51.3397 37.365C52.7097 37.493 54.0297 37.0697 55.2097 36.4593C56.3797 35.849 57.4697 35.0615 58.3297 34.2838C58.7797 33.8901 59.1697 33.5061 59.4797 33.1222C59.8097 32.7383 60.0697 32.3642 60.2297 32C61.2197 32.945 61.5497 33.8999 61.6097 34.9729C61.6597 36.0361 61.4397 37.237 61.2597 38.5955C61.0697 39.9441 60.9497 41.4306 61.0297 42.7989C61.0497 43.488 61.1597 44.1278 61.2597 44.7086C61.3997 45.2697 61.5397 45.7718 61.7397 46.136C61.9197 46.4806 64.0597 47.3468 67.2997 47.9079C68.9197 48.1934 70.7997 48.4002 72.8697 48.5084C74.9397 48.6266 77.1797 48.6758 79.5697 48.6856C84.3297 48.725 89.5897 48.6561 95.0897 49.1778C100.59 49.6996 106.31 50.8119 112.08 53.2533C114.11 54.1294 116.72 55.4485 119.08 57.122C121.43 58.7954 123.57 60.8233 124.52 63.2745C125.02 64.5739 123.93 65.5583 122.15 66.3163C120.38 67.0743 117.95 67.5566 115.83 67.9405C115.12 68.0685 112.78 68.5115 110.33 68.8856C107.89 69.2695 105.34 69.5845 104.29 69.6731C95.3997 70.3917 87.7897 68.4131 81.2497 65.3909C77.9697 63.8651 74.9597 62.0735 72.1297 60.1244C69.2997 58.1851 66.6597 56.0982 64.1197 53.8833C62.4097 52.387 61.6197 51.0383 60.8097 49.9457C60.0097 48.8234 59.1997 47.9867 57.4997 46.9925C57.1297 46.766 56.6997 46.5593 56.2397 46.2935C55.7697 46.0376 55.2297 45.7619 54.6497 45.3977C53.4697 44.6988 52.0697 43.7341 50.5197 42.1689C50.0297 41.6964 49.6497 41.2337 49.3097 40.8104C48.9597 40.3871 48.6797 39.9934 48.4497 39.6193C48.2197 39.2551 48.0097 38.9203 47.8497 38.6053C47.6997 38.3002 47.5697 38.0147 47.4497 37.7489C47.2197 37.2173 47.0797 36.7645 46.9397 36.3215C46.7997 35.8785 46.6297 35.4159 46.4297 34.8941L47.2697 34.8449L47.2897 34.8745Z" fill="#CCEAE6"/>
<path d="M112.6 38.6363C113.4 39.8471 114.26 40.3197 114.97 40.3787C115.7 40.4279 116.3 40.0932 116.8 39.601C117.32 39.1088 117.73 38.4788 118.08 37.8488C118.42 37.2188 118.71 36.5888 118.84 35.9883C119.37 36.7069 119.63 37.4649 119.83 38.3016C120.03 39.1384 120.18 40.0834 120.45 41.0875C120.96 43.0858 122.05 45.2417 122.98 46.1276C123.2 46.3344 124.79 46.8561 127.26 47.2105C129.73 47.5845 133.07 47.7617 136.89 47.811C140.72 47.87 145.03 47.8306 149.56 48.0374C154.09 48.2342 158.84 48.6871 163.55 49.7699C165.21 50.1637 167.33 50.7543 169.21 51.5222C171.09 52.2998 172.75 53.2547 173.45 54.4557C173.82 55.0955 172.97 55.6173 171.61 56.0406C170.26 56.4639 168.41 56.769 166.8 57.0151C166.26 57.0939 164.48 57.3793 162.63 57.6156C160.78 57.8617 158.86 58.0684 158.07 58.1373C151.38 58.6788 145.61 57.8223 140.48 56.3654C135.34 54.8888 130.83 52.8708 126.47 50.5377C125.01 49.7404 124.17 48.9922 123.38 48.3819C122.59 47.7519 121.86 47.2597 120.58 46.6986C120.02 46.4426 119.35 46.1965 118.51 45.7831C117.67 45.3795 116.64 44.8184 115.47 43.8044C114.03 42.5542 113.44 41.5206 113.04 40.7823C112.86 40.3984 112.71 40.0736 112.58 39.7487C112.46 39.414 112.33 39.0891 112.16 38.6954L112.58 38.6363H112.6Z" fill="#CCEAE6"/>
<path d="M308.3 133.886C309.98 133.029 311.37 131.435 311.93 129.643C312.21 128.757 312.29 127.842 312.17 127.005C312.05 126.168 311.68 125.459 311.2 124.977C311.7 124.82 312.2 124.8 312.7 124.888C313.19 124.967 313.64 125.203 314.07 125.479C314.93 126.06 315.63 126.966 316.15 127.95C317.21 129.929 317.55 132.153 318.04 133.069C318.1 133.177 318.49 133.315 319.12 133.531C319.76 133.738 320.64 134.034 321.72 134.447C323.86 135.274 326.72 136.652 329.59 138.739C332.46 140.806 335.32 143.563 337.5 146.841C339.69 150.129 341.2 153.918 341.5 158.082C341.7 161.036 341.27 165.83 338.49 168.389C337.01 169.748 334.79 167.119 333.11 165.141C332.54 164.491 329.37 160.839 328.56 159.904C325.29 155.897 323.69 152.028 322.42 148.317C321.15 144.636 320.22 141.033 318.37 138.03C317.75 137.036 317.5 136.229 317.14 135.599C316.79 134.959 316.32 134.506 315.31 134.27C314.86 134.181 314.29 134.162 313.6 134.152C312.89 134.181 312.06 134.201 311.09 134.309C310.52 134.368 310.08 134.408 309.74 134.437C309.41 134.467 309.17 134.447 308.98 134.437C308.6 134.437 308.38 134.358 307.99 134.417L308.28 133.886H308.3Z" fill="#CCEAE6"/>
<path d="M300.329 166.115C302.279 166.509 303.759 165.662 304.599 164.383C305.439 163.113 305.649 161.41 305.159 160.238C306.979 160.662 308.039 162.552 308.599 164.599C308.749 165.111 308.869 165.623 308.979 166.125C309.079 166.627 309.159 167.129 309.239 167.582C309.399 168.497 309.539 169.285 309.739 169.787C309.839 170.023 311.059 170.771 312.929 172.061C313.849 172.711 314.939 173.498 316.099 174.433C317.259 175.369 318.519 176.442 319.769 177.652C322.299 180.064 324.879 183.008 327.039 186.295C329.209 189.593 330.959 193.216 331.999 197.193C332.339 198.62 332.719 200.451 332.769 202.302C332.859 204.113 332.639 205.924 331.759 207.194C331.289 207.864 330.429 207.578 329.419 206.86C328.919 206.505 328.369 206.043 327.839 205.55C327.319 205.048 326.799 204.507 326.319 204.005C325.629 203.355 322.089 199.526 321.239 198.502C317.599 194.141 315.689 189.869 314.199 185.872C312.719 181.875 311.679 178.086 309.969 174.64C309.409 173.479 309.159 172.642 308.859 171.913C308.709 171.549 308.529 171.224 308.279 170.919C308.019 170.614 307.689 170.328 307.229 170.043C306.419 169.541 305.169 169.088 303.229 168.271C302.049 167.769 301.469 167.424 301.039 167.149C300.619 166.873 300.389 166.647 299.949 166.41L300.329 166.115Z" fill="#CCEAE6"/>
<path d="M140.11 116.846C142.39 117.801 143.72 116.866 144.42 115.576C144.77 114.917 144.98 114.159 145.04 113.43C145.11 112.702 145.08 111.973 144.86 111.383C146.6 112.033 147.48 113.785 148.45 115.694C149.38 117.604 150.43 119.632 151.29 120.489C151.39 120.587 151.84 120.715 152.54 120.892C152.89 120.981 153.32 121.04 153.8 121.128C154.28 121.217 154.82 121.296 155.42 121.365C156.6 121.532 158 121.64 159.53 121.739C161.07 121.808 162.74 121.877 164.53 121.886C166.31 121.886 168.19 121.886 170.16 121.896C172.12 121.896 174.16 121.896 176.25 121.975C180.43 122.123 184.82 122.467 189.27 123.53C190.84 123.914 192.85 124.505 194.66 125.302C196.47 126.109 198.07 127.123 198.76 128.433C199.49 129.811 195.63 130.726 192.61 131.317C192.1 131.415 190.43 131.77 188.69 132.075C186.95 132.39 185.12 132.666 184.37 132.764C178 133.522 172.41 132.675 167.51 131.11C162.6 129.535 158.4 127.281 154.4 124.918C153.74 124.505 153.2 124.141 152.76 123.776C152.32 123.412 151.95 123.087 151.58 122.802C150.87 122.192 150.17 121.758 148.94 121.365C147.87 121.01 146.35 120.804 143.92 119.809C143.55 119.652 143.22 119.514 142.93 119.376C142.65 119.229 142.4 119.091 142.17 118.953C141.73 118.687 141.39 118.471 141.12 118.254C140.59 117.821 140.29 117.496 139.73 117.092L140.1 116.827L140.11 116.846Z" fill="#CCEAE6"/>
<path d="M168.8 112.998C170.67 111.728 171.13 109.799 170.79 108.057C170.45 106.314 169.32 104.739 168.07 104.178C169.79 103.026 171.99 103.745 173.99 104.887C176 106.019 177.83 107.564 178.94 107.997C179.2 108.106 180.71 107.594 183.07 106.915C185.43 106.226 188.67 105.379 192.36 104.739C196.05 104.099 200.19 103.676 204.39 103.814C208.61 103.952 212.89 104.631 217.11 106.265C218.6 106.875 220.49 107.732 222.19 108.893C223.88 110.015 225.39 111.423 226.02 113.107C226.35 114.002 225.56 114.632 224.31 115.125C223.68 115.371 222.94 115.587 222.17 115.764C221.4 115.932 220.6 116.07 219.85 116.207C218.85 116.434 213.22 117.32 211.75 117.458C205.56 118.078 200.42 117.044 195.86 115.686C191.29 114.307 187.27 112.555 183.14 111.492C180.37 110.783 179.64 109.671 177.31 110.37C176.3 110.675 174.99 111.413 172.83 112.368C170.19 113.54 169.84 113.225 168.74 113.559L168.81 112.998H168.8Z" fill="#CCEAE6"/>
</svg>
