<svg width="420" height="320" viewBox="0 0 420 320" fill="none" xmlns="http://www.w3.org/2000/svg">
<path d="M175.14 172.23C168.38 170.55 157.63 172.41 150.94 174.2C146.75 175.3 148.81 175.09 146.23 174.95C141.63 174.73 135.94 175.41 132.09 177.96C133.02 178.35 134.38 178.94 135.86 179.65C123.56 185.98 117.1 195.3 109.23 206.45C106.43 207.58 103.81 204.11 90.8501 212.96C94.3201 213.52 98.3901 213.12 101.88 212.56C103.51 212.31 103.27 212.2 103.01 212.66C101.34 215.66 98.5901 221.16 98.2801 224.58C105.76 219.87 108.07 216.29 111.18 208.9C125.62 200.96 131.81 198.48 143.25 196.57C143 201.43 145.36 198.82 148.65 195.99C151.04 193.94 149.34 195.15 155.3 192.29C175.79 182.45 176.31 173.83 175.13 172.21L175.14 172.23Z" fill="#CCEAE6"/>
<path d="M135.01 173.78C137.83 168.97 131.1 164.04 127.5 163.85C128.82 161.54 132.29 161.64 134.95 161.81C144.72 162.54 142.43 163.77 146.91 158.65C156.09 148.25 168.54 133.9 186.87 127.01C195.21 123.95 195.7 125.66 195.22 128.38C194.61 131.81 190.72 138.71 188.83 141.64C179.75 155.58 166.57 159.1 150.54 163.53C148.66 164.04 146.99 164.11 145.8 164.48C143.12 165.32 142.67 167.19 139.65 170.84C137.37 173.59 136.52 173.48 135.36 174.45L135.01 173.78Z" fill="#CCEAE6"/>
<path d="M106.31 170.04C106.83 167.14 102.7 166.35 100.41 167.5C100.75 165.62 103.78 164.44 105.59 163.81C110.97 161.97 107.82 163.64 112.44 157.26C123.18 142.28 138.27 140.22 142.43 142.75C143.03 143.12 142.72 143.73 142.02 144.41C141.77 144.65 134.48 150.24 134.47 150.24C130.93 152.91 127.18 154.88 123.53 156.59C111.45 162.26 114.86 160.96 112.15 162.29C109.17 163.76 109.65 163.99 108.18 167.54C107.43 169.44 107.03 169.52 106.61 170.26L106.3 170.03L106.31 170.04Z" fill="#CCEAE6"/>
<path d="M173.51 126.87C174.71 124.14 170.76 122.42 168.57 122.85C169.63 120.39 175.64 120.85 177.54 120.36C178.42 120.13 185.56 109.04 198.58 105.89C202.57 104.93 209.36 104.66 212.02 107.21C213 108.15 210.48 109.29 209.28 109.91C203.68 112.74 202.31 114.05 196.42 116.09C191.56 117.78 186.44 118.7 182.05 120.31C179.91 121.09 178.86 120.87 177.72 122.15C177.23 122.71 176.77 123.6 175.85 124.94C174.72 126.58 174.31 126.57 173.75 127.18L173.51 126.88V126.87Z" fill="#CCEAE6"/>
<path d="M185.82 171.96C189.25 166.47 180.33 160.58 177.94 160.05C179.26 157.75 182 158 184.95 158.19C193.83 158.74 193.57 158.1 194.09 157.24C198.21 150.4 202.73 130.12 224.1 118.65C228.39 116.37 235.59 113.39 240.46 113.68C244.86 113.94 239.81 123.77 237.81 127.73C228.94 145.24 218.54 147.61 202 157.48C198.38 159.63 196.35 159.09 194.5 162.01C193.59 163.44 191.93 168.22 188.95 170.85C187.95 171.73 187.25 171.95 186.27 172.74L185.83 171.97L185.82 171.96Z" fill="#CCEAE6"/>
<path d="M229.53 163.31C230.76 158.3 224.71 154.12 220.87 154.73C221.88 151 228.32 151.55 232.02 151.92C235.77 152.32 235.35 152.29 236.41 151.15C240.79 146.43 243.18 143.76 249.74 138.69C267.75 124.8 285.2 129.46 289.49 135.69C290.85 137.69 287.42 139.21 285.19 140.32C275.27 145.08 271.34 149.99 250.54 152.53C241.18 153.68 242.95 153.81 240.17 154.02C236.49 154.32 236.14 154.25 233.65 158.77C230.69 164.05 230.92 162.57 229.95 163.93L229.54 163.3L229.53 163.31Z" fill="#CCEAE6"/>
<path d="M256.29 129.92C257.36 125.32 252 122.47 249.83 122.78C250.54 119.73 255.01 120 258.53 118.98C259.75 118.63 259.6 118.73 260.73 115.39C263.13 108.04 265.7 100.29 270.21 94.02C277.17 84.39 286.13 77.43 290.57 80.1C290.57 80.1 290.12 90.1 285.35 96.97C277.62 107.74 271.36 111.27 264.52 117.49C261.93 119.91 260.9 118.73 259.67 123.54C258.17 129.32 257.4 129.11 256.64 130.44L256.3 129.94L256.29 129.92Z" fill="#CCEAE6"/>
<path d="M276.36 118.69C277.69 115.96 273.81 114.15 271.36 114.64C272.65 112 279.1 112.66 281.03 112.27C281.44 112.19 282.28 110.99 288.76 105.44C304.97 91.86 312.73 82.02 310.89 90.71C309.65 96.59 306.69 102.83 301.68 106.22C296.23 110.05 291.08 110.8 285.79 112.43C282.72 113.37 282.07 112.63 280.14 115.17C277.21 119.03 277.49 118.08 276.59 119L276.36 118.7V118.69Z" fill="#CCEAE6"/>
<path d="M66.6501 209.13C68.2301 206.33 64.0301 204.64 61.3701 205.2C62.5001 203.16 67.0001 202.86 69.5201 202.63C72.4901 202.36 71.6601 202.63 74.5001 200.01C91.1801 184.63 107.95 183.25 112.04 185.47C113.45 186.24 109.86 188.43 108.35 189.41C101.9 193.65 98.3501 196.1 89.1801 198.77C84.9101 200.01 80.8401 200.9 77.0401 202.17C74.5001 203.02 73.3301 202.82 71.8901 204.16C71.2701 204.75 70.6601 205.67 69.4701 207.07C68.0301 208.79 67.5701 208.79 66.8801 209.43L66.6301 209.13H66.6501Z" fill="#CCEAE6"/>
<path d="M166.67 203.43C167.41 203.28 168.07 202.87 168.25 202.14C168.61 200.68 166.49 197.24 166.16 196.85C167.08 196.71 167.84 197.13 168.92 197.71C170.48 198.55 173.04 199.53 174.77 199.44C176.93 199.39 186.36 185.87 198.57 180.41C204.93 177.62 208.8 178.29 208.59 179.55C208.44 180.43 206.69 182.15 205.84 183.06C201.3 187.86 198.01 192.97 185.2 197.88C176.25 201.28 176.57 199.93 174.47 201.25C173.56 201.79 172.73 202.67 170.61 203.49C168.89 204.09 168.13 203.9 166.94 203.85C166.65 203.83 166.71 203.93 166.68 203.44L166.67 203.43Z" fill="#CCEAE6"/>
<path d="M369.47 50.26C356.27 66.1 367.43 60.54 351.39 67.36C349.46 68.25 347.61 69.18 345.95 70.55C347.98 69.5 351.15 69.22 352.96 71.34C356.07 74.99 353.67 81.14 355.69 85.91C357.5 80.68 356.59 71.49 363.7 63.99C399.72 60.79 412.18 34.17 412.18 34.17C405.41 29.43 395.66 31.53 389.37 34.29C389.37 34.29 378.22 38.48 369.47 50.26Z" fill="#CCEAE6"/>
<path d="M300.26 76.69C300.98 74.22 297.67 72.18 295.92 72.38C296.56 70.12 301.39 71.15 302.91 70.81C303.88 70.6 308.92 58.25 322.29 54.06C326.13 52.78 326.6 53.74 325.35 56.9C321.64 66.22 315.61 68.61 304.59 71.62C303.11 72.03 303.1 72.94 301.99 75.05C301.22 76.52 300.89 76.47 300.49 77L300.27 76.69H300.26Z" fill="#CCEAE6"/>
<path d="M56.3901 244.18C54.6201 241.94 51.1501 243.19 50.3901 245.69C49.2701 244.18 50.4701 241.35 53.3501 238.92C55.6501 236.97 54.5801 238.44 55.6201 234.77C59.9501 219.58 77.2401 213.28 83.0301 216.32C84.3501 217.02 81.7401 219.13 80.5501 220.16C79.2401 221.3 76.8101 223.54 76.3601 223.94C69.8301 229.63 63.1201 231.57 58.6901 235.76C56.8401 237.52 55.7301 237.66 56.0701 240.23C56.2701 241.76 56.6401 242.62 56.7001 243.84C56.7201 244.31 56.9501 244.23 56.3901 244.18Z" fill="#CCEAE6"/>
<path d="M238.6 72.07C238.07 70.99 236.38 70.77 235.68 71.39C235.16 70.19 237.93 69.4 238.14 69.28C238.21 69.24 238.25 68.87 238.43 68.22C240.07 62.41 246.57 61.22 248.83 63.3C249.3 63.74 248.53 64.35 247.95 64.81C246.12 66.31 245.56 66.94 242.9 67.8C241.79 68.16 240.67 68.46 239.75 69.05C238.67 69.75 238.5 69.27 238.75 71.19C238.87 71.9 238.75 71.9 238.77 72.14L238.6 72.06V72.07Z" fill="#CCEAE6"/>
<path d="M20.6102 287.1C21.4402 284.86 18.3302 283.26 16.6602 283.52C17.4002 281.49 22.0702 282.16 23.5002 281.84C24.1802 281.69 30.3302 271.28 41.8202 269.61C43.8502 269.33 47.2202 269.22 48.9902 270.51C49.9402 271.2 48.4302 272.46 43.2302 276.11C36.3702 280.85 25.1902 281.54 23.6902 283.36C23.3302 283.8 23.0102 284.52 22.3402 285.6C21.5302 286.92 21.2102 286.89 20.8102 287.37L20.6102 287.11V287.1Z" fill="#CCEAE6"/>
<path d="M311.51 48.54C311.89 45.43 307.43 44.32 305.38 45.16C305.71 42.34 311.89 41.79 313.62 40.95C314.45 40.55 319.17 25.38 333.37 19.78C335.88 18.81 340.16 17.65 342.82 18.76C344.25 19.36 342.69 21.43 337.14 27.65C329.79 35.78 315.69 40.04 314.32 42.82C313.99 43.5 313.8 44.51 313.26 46.09C312.62 48.02 312.21 48.07 311.83 48.82L311.5 48.55L311.51 48.54Z" fill="#CCEAE6"/>
</svg>
