<svg width="998" height="650" viewBox="0 0 998 650" fill="none" xmlns="http://www.w3.org/2000/svg">
<path d="M921.37 649.519C904.43 649.709 886.45 649.179 867.32 649.269C848.18 649.359 828.83 649.309 809.58 649.279C799.85 649.269 790.66 649.349 781.28 649.509C772.19 649.659 761.7 649.319 753.04 649.749C752.27 649.789 750.46 649.749 749.13 649.749C725.89 649.749 702.12 649.929 679.55 649.699C653.28 649.439 627.37 649.619 601.38 649.509C559 650.009 516.15 649.639 473.54 649.729C460.22 649.759 446.82 649.849 433.16 649.549C421.48 649.289 407.25 649.759 395.07 649.299C394.07 649.259 391.67 649.359 389.87 649.379C385.57 649.429 381 649.549 376.94 649.509C352.5 649.249 352.57 649.249 332.16 649.479C329.73 649.509 326.76 649.319 323.99 649.309C312.75 649.309 301.44 649.309 290.24 649.299C280.14 649.339 269.44 649.079 259.82 649.509C257.73 649.599 253.36 649.519 250.04 649.519C239.42 649.519 228.77 649.519 218.17 649.519C206.06 649.559 193.7 649.359 181.82 649.729C176.63 649.889 169.13 649.459 166.05 649.559C160.35 649.729 155.04 649.769 149.42 649.739C143.92 649.709 138.56 649.539 133.12 649.529C128.38 649.529 123.64 649.719 118.83 649.739C106.9 649.769 94.1197 649.599 83.1997 649.789C71.4597 649.999 60.2497 649.949 48.7897 649.969C42.8197 649.969 36.8397 649.969 30.8597 649.969C27.8697 649.969 24.8797 649.969 21.8997 649.969H19.6597H18.5397H17.9797L17.3497 649.939C15.6697 649.929 14.0197 649.569 12.4197 649.089C7.42969 647.469 3.56969 643.739 1.64969 639.309C0.679688 637.089 0.189687 634.699 0.179688 632.309C0.199687 630.149 0.229688 627.989 0.249688 625.809C0.349688 617.129 0.0496876 607.399 0.479688 599.539C0.499688 599.189 0.479688 598.249 0.479688 597.589C0.549688 579.549 0.629688 561.519 0.699688 543.459C0.699688 512.259 0.709688 481.039 0.719688 449.839C0.719688 441.009 0.579688 431.729 0.939688 423.459C1.00969 421.739 0.909688 417.969 0.959688 415.679C1.15969 407.049 0.479688 400.209 0.789688 391.939C1.06969 384.539 0.909688 376.719 0.939688 369.119C0.939688 360.519 0.939688 351.849 0.949688 343.229C0.959688 337.279 0.909688 331.889 0.709688 326.949C1.11969 320.389 0.839688 311.039 1.03969 303.359C1.16969 298.299 1.28969 290.459 1.14969 286.759C0.839688 278.529 0.989688 270.329 0.949688 262.169C0.899688 250.039 1.02969 237.829 0.729688 225.829C0.599688 220.759 0.679688 213.969 0.719688 208.069C0.759688 202.559 0.919688 197.249 0.929688 191.769C0.959687 181.569 0.949688 171.539 0.729688 161.429C0.539688 152.659 0.919688 141.939 0.489688 133.209C0.429688 132.049 0.449688 129.179 0.489688 127.369C0.669688 117.789 0.769688 109.159 0.529688 98.4993C0.329688 89.8792 0.489688 78.8493 0.489688 68.8893C0.489688 58.2693 0.409688 47.3792 0.519688 37.1092C0.589688 30.5192 0.0196875 27.2192 0.379688 19.4192C0.409688 18.8792 0.409688 18.3392 0.459688 17.6292C0.509688 16.9292 0.529688 16.1692 0.689688 15.3792C0.919688 13.7892 1.43969 12.0492 2.25969 10.3792C3.06969 8.70925 4.16969 7.07925 5.51969 5.71925C6.86969 4.35925 8.41969 3.23925 9.98969 2.42925C11.5897 1.56925 13.3797 1.02925 15.1897 0.719249C16.0997 0.539249 17.0197 0.509249 17.9397 0.469249C18.7797 0.469249 19.6297 0.469249 20.4697 0.459249C23.8197 0.459249 27.1297 0.459249 30.2697 0.499249C63.4097 0.959249 97.0097 0.579249 130.25 0.729249C144.31 0.789249 159.08 0.449249 172.44 0.949249C182.36 0.569249 194.57 0.899249 204.08 0.639249C210.11 0.479249 215.4 0.489249 220.93 0.489249C257.45 0.489249 293.98 0.479249 330.49 0.469249C354.52 0.399249 378.52 0.329249 402.56 0.259249C409.31 0.249249 415.92 0.199249 423.25 0.429249C428.64 0.599249 438.45 0.619249 445.62 0.319249C447.02 0.259249 449.89 0.209249 450.94 0.249249C464.6 0.799249 478.14 0.229249 491.55 0.209249C517.83 0.299249 543.5 0.379249 569.6 0.469249C575.16 0.469249 581.68 0.629249 585.98 0.259249C590.26 0.569249 593.5 0.419249 598.78 0.279249C604.23 0.139249 613.2 0.119249 617.99 0.289249C624.5 0.529249 630.5 0.439249 636.72 0.469249C643.33 0.469249 650 0.469249 656.63 0.469249C684.64 0.549249 712.65 0.629249 740.63 0.709249C746.12 0.729249 751.45 0.869249 756.93 0.929249C762.43 0.989249 768.37 0.819249 773.61 1.12925C775.57 1.24925 781.19 1.15925 785.15 1.15925C799.09 1.15925 814.18 1.35925 826.66 1.10925C839.03 0.859249 852.28 1.16925 863.74 0.719249C866.94 0.589249 872.86 0.719249 877.46 0.699249C896.13 0.589249 915.39 0.969249 933.59 0.469249C940.31 0.779249 948.24 0.719249 955.84 0.689249C961.41 0.669249 967.82 0.849249 972.41 0.499249C972.95 0.459249 974.91 0.459249 976.09 0.469249C976.93 0.479249 977.76 0.489249 978.59 0.509249L979.82 0.529249C980.23 0.529249 980.7 0.579249 981.13 0.609249C982.89 0.759249 984.64 1.12925 986.29 1.82925C987.94 2.50925 989.52 3.42925 990.96 4.61925C992.39 5.81925 993.69 7.27925 994.76 9.00925C995.23 9.70925 995.57 10.4692 995.94 11.1992C996.22 11.9592 996.57 12.6892 996.75 13.4692C997.23 14.9893 997.38 16.5692 997.46 18.1292C997.52 21.0492 997.57 24.0392 997.57 27.4792C997.55 52.2492 997.15 76.6192 997.32 101.519C997.04 108.319 997.09 116.109 997.08 123.769C997.07 137.339 997.41 150.059 997.33 163.979C997.25 177.129 997.16 191.189 997.35 203.639C997.67 225.149 997.47 246.519 997.54 267.889C997.56 273.369 997.68 279.569 997.34 284.539C997.26 285.719 997.3 291.729 997.4 293.379C997.61 296.889 997.48 300.989 997.56 304.369C997.78 314.039 996.92 323.469 997.56 332.989V364.859C997.56 375.479 997.56 386.119 997.56 396.729C997.56 401.689 997.62 406.499 997.4 411.639C997.25 415.079 997.22 423.229 997.36 426.659C997.69 434.749 997.55 443.069 997.56 451.209C997.56 475.769 997.56 500.349 997.56 524.909C997.55 535.669 997.41 546.389 997.34 557.129C997.26 568.019 997.5 579.329 997.19 589.939C997.17 590.689 997.19 591.819 997.19 592.729C997.24 597.029 997.34 601.389 997.32 605.599C997.3 611.089 997.01 618.359 997.14 621.489C997.26 624.599 997.26 627.179 997.22 629.559C997.19 630.759 997.2 631.859 997.09 633.109C997 634.319 996.75 635.519 996.41 636.719C995.88 638.449 995.13 640.009 994.21 641.349C993.26 642.659 992.25 643.809 991.14 644.689C988.97 646.509 986.68 647.389 984.87 647.819C983.95 647.999 983.15 648.129 982.47 648.129C981.8 648.179 981.26 648.119 980.86 648.049C980.07 647.919 979.85 647.749 980.23 647.539C980.4 647.449 980.86 647.329 981.51 647.219C982.15 647.039 982.98 646.889 983.83 646.569C986.57 645.649 988.29 644.279 989.62 643.009C990.94 641.699 991.89 640.389 992.72 638.779C993.52 637.169 994.19 635.239 994.3 632.589C994.35 631.969 994.32 631.119 994.32 630.299C994.32 629.459 994.32 628.569 994.32 627.619C994.32 625.709 994.32 623.559 994.3 621.109C994.24 596.239 994.71 571.969 994.54 547.059C994.97 530.819 994.69 513.619 994.78 496.919C994.87 479.559 995.23 461.899 994.98 444.919C994.73 428.009 994.79 411.379 994.79 394.639C994.86 381.899 994.93 369.199 995 356.439C995.04 343.189 994.93 329.679 995.04 316.679C995.11 308.619 995.38 300.109 995.22 292.489C994.86 275.819 995.17 258.629 994.99 242.289C994.73 219.579 994.9 196.669 994.74 174.229C994.65 162.119 994.55 150.119 994.56 137.939C994.56 132.389 994.56 127.119 994.72 121.159C994.89 115.079 994.89 106.199 994.66 98.6493C994.56 95.5193 994.49 90.2893 994.57 87.6193C994.93 76.4693 994.78 64.6892 994.77 53.2592C994.77 46.0092 995.09 37.8692 994.96 33.5392C994.84 29.8792 994.81 26.3892 994.8 22.9492C994.8 21.2393 994.8 19.5392 994.8 17.8392C994.79 16.2692 994.5 14.7092 994 13.2192C993.26 11.1093 991.97 9.02925 990.27 7.41925C988.59 5.79925 986.61 4.60925 984.74 3.83925C984.24 3.61925 982.91 3.23925 981.5 3.07925C980.13 2.96925 978.54 3.01925 977.83 3.04925C969.64 3.44925 960.23 3.24925 951.43 3.25925C930.19 3.25925 908.93 3.25925 887.69 3.25925C870.13 3.23925 853.25 3.66925 835.55 3.49925C824.79 3.89925 812.79 3.71925 801.35 3.71925C792.59 3.71925 783.86 3.57925 775.11 3.49925C766.36 3.41925 757.83 3.49925 748.58 3.31925C737.18 3.09925 723.61 3.29925 711.03 3.25925C704.18 3.23925 696.54 3.45925 690.37 3.07925C689.54 3.02925 686.36 3.03925 685.2 3.07925C676.19 3.47925 664.83 3.36925 656.82 3.20925C643.73 2.95925 631.13 3.06925 618.36 3.02925C607.77 3.02925 597.09 3.01925 586.5 3.00925C578.89 2.97925 571.45 3.06925 563.46 2.89925C557.35 2.76925 549.23 2.98925 541.97 3.00925C534.69 3.00925 527.37 3.00925 520.06 3.00925H472.25C463.62 3.00925 454.95 3.00925 446.36 3.00925C438.22 2.93925 430.22 2.86925 422.1 2.79925C399.33 2.74925 376.96 3.17925 354.03 3.01925C347.83 3.30925 341.83 3.09925 335.36 3.03925C329.4 2.98925 322.43 2.86925 316.48 3.15925C314.83 3.23925 311.67 3.21925 309.18 3.23925C303.65 3.27925 298.87 3.00925 292.3 3.20925C287.67 3.35925 280.57 3.20925 274.64 3.23925C268.41 3.26925 261.35 3.06925 256.11 3.42925C245.16 2.88925 234.71 3.71925 223.78 3.46925C220.34 3.41925 216.58 3.35925 212.97 3.30925C211.16 3.27925 209.12 3.20925 207.57 3.23925C178.52 3.72925 148.83 3.32925 119.55 3.46925C115.94 3.48925 112.47 3.58925 108.88 3.63925C107.16 3.65925 105.22 3.67925 103.51 3.64925C87.4597 3.44925 87.5097 3.45925 72.5197 3.64925C68.7597 3.69925 64.6497 3.64925 60.7397 3.67925C50.6197 3.73925 40.7397 3.63925 30.2597 3.86925C27.6397 3.92925 24.9597 3.93925 22.2497 3.93925C20.8897 3.92925 19.5297 3.91925 18.1597 3.90925C16.9297 3.93925 15.7297 3.99925 14.5497 4.30925C12.1697 4.83925 9.94969 6.05925 8.12969 7.71925C6.32969 9.39925 4.94969 11.5492 4.21969 13.8892C3.90969 14.9392 3.66969 16.0092 3.61969 17.0992L3.55969 17.9192L3.53969 18.8192L3.50969 20.6292C3.47969 23.0492 3.43969 25.4792 3.39969 27.9292C3.33969 32.8392 3.29969 37.8492 3.30969 43.1392C3.30969 69.6792 3.30969 96.2493 3.31969 122.819C3.31969 126.139 3.23969 130.719 3.32969 132.559C3.72969 140.179 3.99969 146.929 3.32969 154.189C3.29969 154.539 3.29969 157.289 3.32969 157.899C3.74969 164.429 3.54969 172.949 3.52969 180.299C3.47969 208.449 3.94969 236.099 3.77969 264.319C3.74969 268.859 3.85969 275.029 3.71969 277.689C3.42969 283.349 3.89969 286.089 3.78969 291.009C3.69969 295.119 3.86969 301.219 3.74969 304.659C3.31969 317.139 3.44969 331.069 3.58969 342.829C3.71969 353.829 3.86969 365.199 3.72969 375.089C3.43969 394.589 3.56969 413.949 3.53969 433.359C3.53969 453.269 3.53969 473.199 3.53969 493.119C3.54969 501.259 3.36969 510.009 3.74969 517.529C3.82969 519.059 3.77969 522.749 3.74969 525.319C3.68969 531.449 3.53969 537.509 3.53969 543.599C3.53969 549.689 3.68969 555.739 3.74969 561.879C3.79969 566.829 3.74969 571.469 3.94969 576.569C4.09969 580.299 3.97969 586.819 3.77969 592.669C3.37969 604.289 2.97969 616.419 3.04969 631.329C2.97969 634.499 3.82969 637.549 5.53969 640.149C6.39969 641.429 7.45969 642.589 8.64969 643.579C9.84969 644.559 11.2297 645.319 12.6697 645.889C14.1097 646.469 15.6497 646.779 17.1997 646.859C17.9497 646.919 18.8097 646.899 19.6397 646.909H22.1297C25.4497 646.909 28.7797 646.909 32.0897 646.909C37.6497 646.909 42.9097 646.929 48.8697 646.739C54.2297 646.569 63.2197 646.639 69.7197 646.769C79.9697 646.969 89.3997 646.989 99.4297 646.769C102.88 646.689 107 646.689 110.81 646.689H180.53C186.14 646.689 192.08 646.619 196.64 646.899C200.34 646.569 206.19 646.679 211.07 646.699C218.55 646.769 225.88 646.839 233.35 646.909C242.22 646.939 250.88 646.909 259.74 646.709C267.9 646.519 277.74 646.829 286.56 646.549C288.21 646.499 291.67 646.689 294.11 646.669C304.2 646.599 315.11 646.909 324.42 646.449C325.2 646.409 327.37 646.409 328.28 646.449C339.88 646.909 351.4 646.559 362.87 646.449C375.39 646.319 386.82 646.699 399.08 646.689C413.02 646.679 427.55 646.539 440.78 646.719C463.59 647.029 486.27 646.879 508.98 646.909C532.2 646.909 555.47 646.909 578.69 646.909C588.79 646.839 598.81 646.769 608.93 646.699C620.18 646.699 631.5 646.699 642.79 646.699C653.41 646.699 664.04 646.699 674.66 646.699C679.64 646.699 685.15 646.569 689.5 646.859C690.39 646.919 693.44 646.939 694.69 646.889C703.79 646.579 712.57 646.599 721.83 646.879C724.46 646.959 728.33 646.879 731.46 646.929C740.18 647.039 747.66 646.769 755.72 646.689C763.14 646.609 771.55 646.899 778.15 646.469C779.05 646.409 782.68 646.409 783.85 646.469C798.72 647.189 815.74 645.989 830.53 646.659C836.44 646.249 842.57 646.719 847.26 646.659C854.06 646.569 860.62 646.459 867.69 646.469C874.33 646.469 881 646.469 887.6 646.469C899.7 646.419 911.96 646.609 924.04 646.269C928.08 646.159 935.66 646.079 940.61 646.409C941.49 646.469 944.14 646.459 945.86 646.439C959.14 646.309 975.3 646.669 978.62 647.269C980.57 647.619 980.34 648.049 978.82 648.409C978.06 648.589 972.27 648.699 968.61 648.829C962.26 649.059 956.19 649.369 949.28 649.459C941.08 649.569 932.12 649.489 921.39 649.489L921.37 649.519Z" fill="#C3AD7C"/>
</svg>
