<svg width="320" height="4" viewBox="0 0 320 4" fill="none" xmlns="http://www.w3.org/2000/svg">
<path d="M3.8494 0.488655C5.53714 0.293482 7.32815 0.837911 9.23371 0.745461C11.1393 0.65301 13.0674 0.704372 14.9859 0.735188C15.9556 0.745461 16.8705 0.663283 17.8047 0.498927C18.7099 0.344843 19.7555 0.694099 20.6171 0.252393C20.6945 0.211304 20.8736 0.252393 21.0059 0.252393C23.3213 0.252393 25.6884 0.0674927 27.9376 0.303754C30.5547 0.570833 33.1363 0.385932 35.7244 0.498927C39.947 -0.0146853 44.2148 0.365388 48.4599 0.272938C49.7862 0.242121 51.1222 0.149671 52.4824 0.457838C53.6458 0.724916 55.064 0.242121 56.2758 0.714644C56.3758 0.755733 56.6146 0.65301 56.7937 0.632466C57.2229 0.581105 57.6779 0.457838 58.0813 0.498927C60.5161 0.766005 60.5097 0.766005 62.5427 0.529744C62.7847 0.498927 63.08 0.694099 63.3575 0.704372C64.4773 0.735188 65.6035 0.766005 66.7201 0.714644C67.7269 0.673555 68.7918 0.940633 69.7503 0.498927C69.9584 0.406477 70.3941 0.488655 70.7248 0.488655C71.7833 0.488655 72.8434 0.519471 73.8986 0.488655C75.1055 0.447566 76.3366 0.65301 77.5194 0.272938C78.0357 0.108582 78.7843 0.550288 79.0909 0.447566C79.6589 0.272938 80.1881 0.231849 80.7464 0.262665C81.295 0.293482 81.8274 0.46811 82.3696 0.478382C82.8423 0.478382 83.3135 0.28321 83.7927 0.262665C84.9802 0.231849 86.2549 0.406477 87.3408 0.211304C88.5106 -0.00441302 89.6272 0.0469482 90.7679 0.0264037C91.9571 -0.00441302 93.1527 0.0572204 94.3387 0.00585923C95.2632 -0.0352297 96.0877 0.149671 96.9542 0.252393C97.819 0.355115 98.7887 0.0469482 99.5713 0.488655C99.6068 0.509199 99.7004 0.488655 99.7649 0.488655C101.562 0.570832 103.358 0.694099 105.157 0.714644C108.265 0.755733 111.374 0.714644 114.483 0.735188C115.363 0.735188 116.287 0.591377 117.11 0.961178C117.281 1.03308 117.657 0.930361 117.885 0.981722C118.745 1.18717 119.426 0.488655 120.25 0.807094C120.987 1.09472 121.767 0.930361 122.524 0.961178C123.38 0.991994 124.244 0.961178 125.102 0.97145C125.694 0.981722 126.231 0.930361 126.724 0.724916C127.377 1.14608 128.308 0.858455 129.073 1.0639C129.576 1.19744 130.357 1.32071 130.727 1.17689C131.546 0.858455 132.363 1.01254 133.176 0.97145C134.385 0.920089 135.601 1.05363 136.797 0.745461C137.302 0.622194 137.978 0.694099 138.565 0.735188C139.114 0.776277 139.643 0.940633 140.19 0.950906C141.206 0.981722 142.205 0.97145 143.212 0.745461C144.085 0.550288 145.153 0.940633 146.023 0.498927C146.137 0.437293 146.425 0.457838 146.604 0.498927C147.557 0.683827 148.417 0.78655 149.479 0.540016C150.337 0.334571 151.436 0.498927 152.428 0.498927C153.487 0.498927 154.571 0.416749 155.594 0.529744C156.251 0.601649 156.578 0.0161314 157.356 0.385932C157.774 0.581105 158.6 0.478382 159.244 0.498927C159.904 0.509199 160.598 0.427021 161.224 0.519471C164.525 0.991994 167.871 0.601649 171.184 0.755733C172.585 0.817366 174.056 0.46811 175.387 0.981722C176.375 0.591377 177.591 0.930361 178.54 0.663283C179.142 0.498927 179.668 0.509199 180.218 0.509199C183.857 0.488655 187.495 0.529744 191.132 0.488655C193.526 0.457838 195.916 0.324299 198.31 0.272938C198.983 0.262665 199.642 0.211304 200.371 0.447566C200.907 0.622194 201.884 0.642738 202.599 0.334571C202.738 0.272938 203.024 0.221576 203.13 0.262665C204.49 0.827639 205.839 0.242121 207.175 0.221576C209.794 0.180487 212.35 0.529744 214.949 0.488655C215.502 0.488655 216.153 0.65301 216.58 0.272938C217.006 0.591377 217.329 0.437293 217.855 0.293482C218.397 0.149671 219.291 0.129126 219.769 0.303754C220.417 0.550288 221.014 0.457838 221.635 0.488655C222.294 0.519471 222.959 0.488655 223.618 0.488655C226.408 0.56056 229.198 0.632466 231.986 0.735188C232.533 0.755733 233.064 0.899544 233.609 0.961178C234.156 1.02281 234.748 0.848183 235.271 1.16662C235.467 1.28989 236.026 1.19744 236.42 1.19744C237.809 1.19744 239.312 1.40288 240.556 1.14608C241.788 0.889272 243.108 1.20771 244.249 0.745461C244.568 0.611921 245.157 0.745461 245.616 0.724916C247.476 0.611921 249.394 1.00227 251.206 0.488655C251.876 0.807094 252.667 0.745461 253.422 0.714644C253.977 0.694099 254.616 0.879 255.072 0.519471C255.126 0.478382 255.322 0.478382 255.439 0.488655C256.11 0.570832 256.71 0.796822 257.462 0.735188C258.086 0.683827 258.595 0.457838 259.279 0.46811C261.747 0.488655 264.174 0.899544 266.654 0.724916C267.332 1.01254 268.106 0.961178 268.871 0.97145C270.223 0.981722 271.49 0.632466 272.878 0.714644C274.188 0.796822 275.588 0.889272 276.829 0.694099C278.972 0.365388 281.1 0.570833 283.228 0.498927C283.775 0.478382 284.392 0.355115 284.887 0.704372C285.005 0.78655 285.603 0.745461 285.768 0.642738C286.118 0.427021 286.526 0.56056 286.863 0.478382C287.827 0.252393 288.766 1.13581 289.715 0.478382H292.89C293.948 0.478382 295.007 0.46811 296.065 0.478382C296.559 0.478382 297.038 0.416749 297.55 0.642738C297.893 0.796822 298.705 0.827639 299.046 0.683827C299.852 0.344843 300.68 0.488655 301.49 0.478382C303.936 0.457838 306.385 0.447566 308.832 0.478382C309.903 0.488655 310.971 0.632466 312.041 0.704372C313.127 0.78655 314.253 0.540016 315.31 0.858455C315.384 0.879 315.497 0.858455 315.587 0.858455C316.017 0.807094 316.451 0.704372 316.87 0.724916C317.417 0.745461 318.142 1.04336 318.453 0.909817C319.074 0.663283 319.477 0.930361 319.947 0.961178C321.298 1.04336 322.137 1.69051 321.982 2.4712C321.948 2.64583 321.788 2.83073 321.596 2.96426C320.379 3.81686 320.37 3.7655 318.413 3.81686C315.936 3.87849 313.517 3.3957 311.036 3.57033C309.417 3.12862 307.704 3.41624 306.042 3.32379C304.312 3.23134 302.553 2.86154 300.861 3.11835C299.176 3.37515 297.521 3.31352 295.852 3.31352C294.584 3.31352 293.319 3.13889 292.048 3.0978C290.728 3.05672 289.382 3.16971 288.087 3.05672C287.285 2.98481 286.436 2.70746 285.678 2.87181C284.017 3.24162 282.305 2.92318 280.677 3.10808C278.415 3.37515 276.134 3.20053 273.897 3.36488C272.69 3.45733 271.496 3.56006 270.283 3.54978C269.73 3.54978 269.205 3.54978 268.611 3.38543C268.006 3.2108 267.122 3.2108 266.369 3.44706C266.057 3.54978 265.536 3.62169 265.27 3.53951C264.16 3.16971 262.985 3.32379 261.846 3.33407C261.123 3.33407 260.313 3.00535 259.881 3.13889C259.151 3.37515 258.488 3.27243 257.807 3.30325C257.323 3.32379 256.771 3.43679 256.339 3.12862C256.223 3.04644 255.75 3.0259 255.608 3.08753C254.792 3.49842 253.854 3.29298 252.978 3.30325C250.863 3.33407 248.744 3.33407 246.629 3.30325C244.88 3.2827 243.198 3.72441 241.435 3.54978C240.362 3.96067 239.168 3.77577 238.027 3.77577C237.154 3.77577 236.285 3.63196 235.413 3.54978C234.542 3.4676 233.692 3.54978 232.77 3.36488C231.634 3.13889 230.284 3.34434 229.03 3.30325C228.348 3.2827 227.588 3.50869 226.971 3.11835C226.889 3.06699 226.573 3.07726 226.457 3.11835C225.56 3.52924 224.428 3.41624 223.63 3.25189C222.326 2.99508 221.071 3.10808 219.798 3.06699C218.742 3.03617 217.679 3.08753 216.624 3.04644C215.866 3.01563 215.125 3.10808 214.329 2.93345C213.721 2.79991 212.913 3.0259 212.188 3.04644C211.464 3.07726 210.733 3.04644 210.007 3.04644H205.244C204.384 3.04644 203.52 3.07726 202.665 3.04644C201.855 3.00535 201.057 2.841 200.248 2.83073C197.98 2.77936 195.751 3.22107 193.468 3.05672C192.85 3.35461 192.253 3.13889 191.608 3.07726C191.014 3.0259 190.32 2.90263 189.727 3.20053C189.562 3.2827 189.247 3.26216 188.999 3.2827C188.447 3.32379 187.971 3.04644 187.318 3.25189C186.856 3.40597 186.149 3.25189 185.559 3.2827C184.938 3.31352 184.234 3.10808 183.713 3.47788C182.622 2.92318 181.581 3.77577 180.492 3.51897C180.15 3.43679 179.776 3.40597 179.415 3.35461C179.234 3.32379 179.031 3.25189 178.876 3.2827C175.983 3.78604 173.025 3.37515 170.108 3.51897C169.748 3.53951 169.403 3.64223 169.044 3.69359C168.873 3.71414 168.68 3.73468 168.51 3.70387C166.911 3.49842 166.916 3.50869 165.424 3.70387C165.049 3.75523 164.64 3.70387 164.251 3.73468C163.242 3.79632 162.258 3.69359 161.214 3.92986C160.17 4.16612 159.034 3.74496 157.95 3.56006C156.985 3.3957 156.038 3.22107 154.986 3.23134C152.343 3.27243 149.695 3.24162 147.049 3.24162C146.718 3.24162 146.262 3.15944 146.079 3.25189C145.321 3.66278 144.648 3.94013 143.925 3.25189C143.891 3.22107 143.615 3.22107 143.556 3.25189C142.906 3.68332 142.057 3.47788 141.324 3.45733C138.52 3.40597 135.766 3.88877 132.955 3.71414C132.503 3.68332 131.888 3.79632 131.624 3.6525C131.059 3.35461 130.786 3.83741 130.297 3.72441C129.888 3.63196 129.281 3.80659 128.937 3.68332C127.693 3.24162 126.307 3.37515 125.134 3.51897C124.039 3.65251 122.906 3.80659 121.92 3.66278C119.977 3.36488 118.049 3.49842 116.116 3.4676C114.133 3.43679 112.147 3.44706 110.164 3.4676C109.352 3.47788 108.483 3.29298 107.732 3.68332C107.581 3.7655 107.213 3.71414 106.956 3.68332C106.345 3.62169 105.741 3.4676 105.135 3.4676C104.528 3.4676 103.926 3.62169 103.313 3.68332C102.819 3.73468 102.358 3.68332 101.85 3.88877C101.478 4.04285 100.828 3.91958 100.246 3.71414C99.0872 3.30325 97.8803 2.89236 96.3943 2.96426C95.0793 3.0259 93.7497 2.96426 92.4282 2.98481C91.8732 2.98481 91.3504 2.96426 90.7566 3.15944C90.2226 3.33407 89.3271 3.26216 88.68 3.12862C87.6587 2.92318 86.7196 2.90263 85.7209 3.12862C85.3772 3.2108 84.9673 3.2108 84.5866 3.2108C82.2712 3.2108 79.9558 3.2108 77.642 3.2108C77.0837 3.2108 76.4915 3.2827 76.0365 2.99508C75.667 3.33407 75.0862 3.22107 74.5989 3.20053C73.8534 3.15944 73.1241 3.01563 72.3787 2.98481C71.4945 2.95399 70.6313 2.98481 69.7503 3.19025C68.9371 3.38543 67.9577 3.06699 67.0783 3.35461C66.9137 3.40597 66.5684 3.2108 66.3264 3.23134C65.3212 3.30325 64.2353 2.98481 63.3059 3.45733C63.2284 3.49842 63.0122 3.49842 62.9219 3.45733C61.7666 2.98481 60.6194 3.34434 59.4754 3.45733C58.2281 3.59087 57.089 3.20053 55.8692 3.2108C54.4799 3.22107 53.0326 3.36488 51.7144 3.17998C49.4426 2.86154 47.182 3.01563 44.9199 2.98481C42.6061 2.94372 40.2891 2.95399 37.9753 2.98481C36.9685 2.99508 35.9713 3.16971 34.9628 3.20053C33.8431 3.24162 32.7152 3.20053 31.5906 3.20053C30.5321 3.20053 29.4737 3.2108 28.4152 3.20053C27.9198 3.20053 27.3696 3.32379 26.9372 3.03617C26.8485 2.97454 26.5451 2.95399 26.4209 3.00535C25.5141 3.32379 24.6396 3.30325 23.7183 3.01563C23.4569 2.93345 23.0712 3.01563 22.7598 2.96426C21.8917 2.85127 21.1463 3.12862 20.3428 3.2108C19.6038 3.29298 18.7648 2.99508 18.1081 3.43679C18.0177 3.49842 17.6563 3.49842 17.5401 3.43679C16.0589 2.69719 14.3647 3.92986 12.8899 3.24162C12.301 3.66278 11.6895 3.17998 11.2232 3.24162C10.5455 3.33407 9.89203 3.44706 9.18853 3.43679C8.52699 3.43679 7.86222 3.40597 7.20552 3.43679C6.00022 3.48815 4.77879 3.29298 3.57511 3.64223C3.17173 3.75523 2.41822 3.83741 1.92448 3.49842C1.83735 3.43679 1.57273 3.44706 1.4017 3.4676C0.0786159 3.60114 -1.53006 3.23134 -1.86083 2.61501C-2.05445 2.25548 -2.03186 1.81377 -1.88019 1.44397C-1.80436 1.25907 -1.22833 1.14608 -0.863678 1.01254C-0.231179 0.776277 0.373889 0.457838 1.06125 0.365388C1.87769 0.252393 2.77158 0.334571 3.83972 0.334571L3.8494 0.488655Z" fill="#EDEDEE"/>
</svg>
