<svg width="440" height="78" viewBox="0 0 440 78" fill="none" xmlns="http://www.w3.org/2000/svg">
<g clip-path="url(#clip0_985_55415)">
<path d="M7.94364 74.4757C10.2356 74.2857 12.6679 74.8157 15.2557 74.7257C17.8435 74.6357 20.4619 74.6857 23.0673 74.7157C24.3842 74.7257 25.6266 74.6457 26.8953 74.4857C28.1245 74.3357 29.5444 74.6757 30.7145 74.2457C30.8197 74.2057 31.0629 74.2457 31.2426 74.2457C34.387 74.2457 37.6015 74.0657 40.656 74.2957C44.2101 74.5557 47.716 74.3757 51.2307 74.4857C56.9651 73.9857 62.7608 74.3557 68.5258 74.2657C70.327 74.2357 72.1413 74.1457 73.9885 74.4457C75.5683 74.7057 77.4944 74.2357 79.14 74.6957C79.2758 74.7357 79.6001 74.6357 79.8433 74.6157C80.4262 74.5657 81.0441 74.4457 81.5919 74.4857C84.8984 74.7457 84.8897 74.7457 87.6506 74.5157C87.9792 74.4857 88.3802 74.6757 88.7571 74.6857C90.2778 74.7157 91.8073 74.7457 93.3236 74.6957C94.6909 74.6557 96.1371 74.9157 97.4386 74.4857C97.7213 74.3957 98.3129 74.4757 98.7621 74.4757C100.2 74.4757 101.639 74.5057 103.072 74.4757C104.711 74.4357 106.383 74.6357 107.989 74.2657C108.69 74.1057 109.707 74.5357 110.123 74.4357C110.895 74.2657 111.613 74.2257 112.372 74.2557C113.117 74.2857 113.84 74.4557 114.576 74.4657C115.218 74.4657 115.858 74.2757 116.509 74.2557C118.121 74.2257 119.852 74.3957 121.327 74.2057C122.916 73.9957 124.432 74.0457 125.981 74.0257C127.596 73.9957 129.22 74.0557 130.83 74.0057C132.086 73.9657 133.206 74.1457 134.382 74.2457C135.557 74.3457 136.874 74.0457 137.936 74.4757C137.985 74.4957 138.112 74.4757 138.199 74.4757C140.64 74.5557 143.079 74.6757 145.522 74.6957C149.742 74.7357 153.965 74.6957 158.187 74.7157C159.382 74.7157 160.637 74.5757 161.755 74.9357C161.987 75.0057 162.497 74.9057 162.806 74.9557C163.974 75.1557 164.899 74.4757 166.019 74.7857C167.02 75.0657 168.078 74.9057 169.106 74.9357C170.27 74.9657 171.442 74.9357 172.608 74.9457C173.412 74.9557 174.141 74.9057 174.81 74.7057C175.697 75.1157 176.961 74.8357 178 75.0357C178.684 75.1657 179.744 75.2857 180.246 75.1457C181.359 74.8357 182.468 74.9857 183.572 74.9457C185.214 74.8957 186.866 75.0257 188.489 74.7257C189.175 74.6057 190.093 74.6757 190.891 74.7157C191.636 74.7557 192.355 74.9157 193.097 74.9257C194.478 74.9557 195.834 74.9457 197.202 74.7257C198.387 74.5357 199.838 74.9157 201.019 74.4857C201.174 74.4257 201.564 74.4457 201.807 74.4857C203.102 74.6657 204.27 74.7657 205.712 74.5257C206.878 74.3257 208.37 74.4857 209.718 74.4857C211.155 74.4857 212.628 74.4057 214.017 74.5157C214.909 74.5857 215.353 74.0157 216.41 74.3757C216.977 74.5657 218.099 74.4657 218.973 74.4857C219.87 74.4957 220.812 74.4157 221.662 74.5057C226.145 74.9657 230.69 74.5857 235.188 74.7357C237.09 74.7957 239.088 74.4557 240.896 74.9557C242.237 74.5757 243.889 74.9057 245.178 74.6457C245.995 74.4857 246.709 74.4957 247.457 74.4957C252.398 74.4757 257.339 74.5157 262.278 74.4757C265.53 74.4457 268.775 74.3157 272.027 74.2657C272.94 74.2557 273.834 74.2057 274.825 74.4357C275.552 74.6057 276.88 74.6257 277.851 74.3257C278.039 74.2657 278.427 74.2157 278.572 74.2557C280.419 74.8057 282.251 74.2357 284.065 74.2157C287.621 74.1757 291.092 74.5157 294.622 74.4757C295.374 74.4757 296.257 74.6357 296.837 74.2657C297.416 74.5757 297.854 74.4257 298.568 74.2857C299.305 74.1457 300.519 74.1257 301.167 74.2957C302.048 74.5357 302.859 74.4457 303.702 74.4757C304.596 74.5057 305.499 74.4757 306.395 74.4757C310.184 74.5457 313.973 74.6157 317.759 74.7157C318.502 74.7357 319.223 74.8757 319.963 74.9357C320.706 74.9957 321.51 74.8257 322.22 75.1357C322.485 75.2557 323.246 75.1657 323.78 75.1657C325.667 75.1657 327.707 75.3657 329.396 75.1157C331.07 74.8657 332.863 75.1757 334.412 74.7257C334.846 74.5957 335.646 74.7257 336.268 74.7057C338.794 74.5957 341.4 74.9757 343.86 74.4757C344.77 74.7857 345.843 74.7257 346.869 74.6957C347.623 74.6757 348.49 74.8557 349.111 74.5057C349.183 74.4657 349.45 74.4657 349.608 74.4757C350.52 74.5557 351.335 74.7757 352.356 74.7157C353.204 74.6657 353.894 74.4457 354.823 74.4557C358.176 74.4757 361.471 74.8757 364.839 74.7057C365.759 74.9857 366.811 74.9357 367.85 74.9457C369.686 74.9557 371.406 74.6157 373.29 74.6957C375.07 74.7757 376.972 74.8657 378.657 74.6757C381.567 74.3557 384.457 74.5557 387.347 74.4857C388.09 74.4657 388.927 74.3457 389.599 74.6857C389.759 74.7657 390.572 74.7257 390.796 74.6257C391.271 74.4157 391.826 74.5457 392.284 74.4657C393.592 74.2457 394.867 75.1057 396.156 74.4657H400.468C401.905 74.4657 403.343 74.4557 404.78 74.4657C405.451 74.4657 406.101 74.4057 406.796 74.6257C407.263 74.7757 408.365 74.8057 408.827 74.6657C409.923 74.3357 411.047 74.4757 412.147 74.4657C415.469 74.4457 418.795 74.4357 422.117 74.4657C423.572 74.4757 425.022 74.6157 426.475 74.6857C427.95 74.7657 429.479 74.5257 430.914 74.8357C431.015 74.8557 431.169 74.8357 431.291 74.8357C431.874 74.7857 432.464 74.6857 433.033 74.7057C433.776 74.7257 434.76 75.0157 435.183 74.8857C436.027 74.6457 436.574 74.9057 437.212 74.9357C439.046 75.0157 440.185 75.6457 439.975 76.4057C439.929 76.5757 439.712 76.7557 439.451 76.8857C437.799 77.7157 437.786 77.6657 435.128 77.7157C431.765 77.7757 428.48 77.3057 425.11 77.4757C422.912 77.0457 420.585 77.3257 418.328 77.2357C415.979 77.1457 413.591 76.7857 411.292 77.0357C409.005 77.2857 406.757 77.2257 404.491 77.2257C402.769 77.2257 401.051 77.0557 399.324 77.0157C397.532 76.9757 395.704 77.0857 393.945 76.9757C392.856 76.9057 391.703 76.6357 390.673 76.7957C388.418 77.1557 386.094 76.8457 383.883 77.0257C380.811 77.2857 377.712 77.1157 374.675 77.2757C373.036 77.3657 371.415 77.4657 369.767 77.4557C369.015 77.4557 368.303 77.4557 367.497 77.2957C366.675 77.1257 365.474 77.1257 364.451 77.3557C364.028 77.4557 363.32 77.5257 362.959 77.4457C361.451 77.0857 359.856 77.2357 358.309 77.2457C357.328 77.2457 356.228 76.9257 355.64 77.0557C354.65 77.2857 353.749 77.1857 352.825 77.2157C352.167 77.2357 351.418 77.3457 350.831 77.0457C350.673 76.9657 350.031 76.9457 349.838 77.0057C348.729 77.4057 347.456 77.2057 346.266 77.2157C343.394 77.2457 340.517 77.2457 337.644 77.2157C335.269 77.1957 332.986 77.6257 330.591 77.4557C329.133 77.8557 327.512 77.6757 325.963 77.6757C324.777 77.6757 323.596 77.5357 322.413 77.4557C321.23 77.3757 320.075 77.4557 318.824 77.2757C317.281 77.0557 315.447 77.2557 313.745 77.2157C312.818 77.1957 311.786 77.4157 310.949 77.0357C310.837 76.9857 310.407 76.9957 310.25 77.0357C309.031 77.4357 307.495 77.3257 306.411 77.1657C304.64 76.9157 302.935 77.0257 301.207 76.9857C299.774 76.9557 298.33 77.0057 296.897 76.9657C295.867 76.9357 294.861 77.0257 293.781 76.8557C292.955 76.7257 291.857 76.9457 290.873 76.9657C289.889 76.9957 288.897 76.9657 287.91 76.9657H281.442C280.274 76.9657 279.102 76.9957 277.941 76.9657C276.841 76.9257 275.756 76.7657 274.658 76.7557C271.577 76.7057 268.551 77.1357 265.451 76.9757C264.612 77.2657 263.801 77.0557 262.924 76.9957C262.118 76.9457 261.176 76.8257 260.369 77.1157C260.146 77.1957 259.719 77.1757 259.381 77.1957C258.632 77.2357 257.985 76.9657 257.098 77.1657C256.471 77.3157 255.511 77.1657 254.709 77.1957C253.866 77.2257 252.911 77.0257 252.203 77.3857C250.722 76.8457 249.308 77.6757 247.829 77.4257C247.365 77.3457 246.856 77.3157 246.365 77.2657C246.12 77.2357 245.844 77.1657 245.634 77.1957C241.705 77.6857 237.688 77.2857 233.727 77.4257C233.238 77.4457 232.769 77.5457 232.283 77.5957C232.05 77.6157 231.787 77.6357 231.557 77.6057C229.386 77.4057 229.392 77.4157 227.366 77.6057C226.857 77.6557 226.301 77.6057 225.773 77.6357C224.403 77.6957 223.066 77.5957 221.649 77.8257C220.231 78.0557 218.688 77.6457 217.216 77.4657C215.906 77.3057 214.619 77.1357 213.191 77.1457C209.602 77.1857 206.006 77.1557 202.412 77.1557C201.963 77.1557 201.343 77.0757 201.095 77.1657C200.065 77.5657 199.152 77.8357 198.17 77.1657C198.124 77.1357 197.749 77.1357 197.668 77.1657C196.785 77.5857 195.633 77.3857 194.638 77.3657C190.83 77.3157 187.089 77.7857 183.272 77.6157C182.659 77.5857 181.824 77.6957 181.464 77.5557C180.697 77.2657 180.327 77.7357 179.663 77.6257C179.107 77.5357 178.283 77.7057 177.816 77.5857C176.127 77.1557 174.244 77.2857 172.651 77.4257C171.164 77.5557 169.625 77.7057 168.287 77.5657C165.648 77.2757 163.03 77.4057 160.405 77.3757C157.712 77.3457 155.014 77.3557 152.321 77.3757C151.219 77.3857 150.038 77.2057 149.019 77.5857C148.813 77.6657 148.314 77.6157 147.965 77.5857C147.135 77.5257 146.315 77.3757 145.492 77.3757C144.668 77.3757 143.85 77.5257 143.018 77.5857C142.347 77.6357 141.72 77.5857 141.03 77.7857C140.526 77.9357 139.643 77.8157 138.852 77.6157C137.279 77.2157 135.64 76.8157 133.622 76.8857C131.836 76.9457 130.03 76.8857 128.236 76.9057C127.482 76.9057 126.772 76.8857 125.966 77.0757C125.241 77.2457 124.024 77.1757 123.146 77.0457C121.759 76.8457 120.483 76.8257 119.127 77.0457C118.66 77.1257 118.104 77.1257 117.587 77.1257C114.442 77.1257 111.298 77.1257 108.156 77.1257C107.398 77.1257 106.593 77.1957 105.976 76.9157C105.474 77.2457 104.685 77.1357 104.023 77.1157C103.011 77.0757 102.02 76.9357 101.008 76.9057C99.8073 76.8757 98.635 76.9057 97.4386 77.1057C96.3343 77.2957 95.0042 76.9857 93.81 77.2657C93.5865 77.3157 93.1176 77.1257 92.7889 77.1457C91.4238 77.2157 89.9491 76.9057 88.687 77.3657C88.5818 77.4057 88.2882 77.4057 88.1655 77.3657C86.5966 76.9057 85.0387 77.2557 83.4851 77.3657C81.7913 77.4957 80.2443 77.1157 78.5878 77.1257C76.7012 77.1357 74.7357 77.2757 72.9454 77.0957C69.8603 76.7857 66.7904 76.9357 63.7183 76.9057C60.5762 76.8657 57.4296 76.8757 54.2874 76.9057C52.9201 76.9157 51.566 77.0857 50.1965 77.1157C48.6758 77.1557 47.1441 77.1157 45.6169 77.1157C44.1794 77.1157 42.742 77.1257 41.3046 77.1157C40.6319 77.1157 39.8847 77.2357 39.2975 76.9557C39.1769 76.8957 38.765 76.8757 38.5963 76.9257C37.3648 77.2357 36.1772 77.2157 34.926 76.9357C34.571 76.8557 34.0473 76.9357 33.6244 76.8857C32.4456 76.7757 31.4333 77.0457 30.342 77.1257C29.3385 77.2057 28.199 76.9157 27.3072 77.3457C27.1845 77.4057 26.6937 77.4057 26.5359 77.3457C24.5244 76.6257 22.2237 77.8257 20.2209 77.1557C19.4211 77.5657 18.5907 77.0957 17.9574 77.1557C17.0371 77.2457 16.1497 77.3557 15.1943 77.3457C14.2959 77.3457 13.3931 77.3157 12.5013 77.3457C10.8645 77.3957 9.20576 77.2057 7.57113 77.5457C7.02333 77.6557 6.00004 77.7357 5.32954 77.4057C5.21121 77.3457 4.85186 77.3557 4.61959 77.3757C2.82281 77.5057 0.63819 77.1457 0.188994 76.5457C-0.073949 76.1957 -0.0432723 75.7657 0.1627 75.4057C0.265686 75.2257 1.04794 75.1157 1.54315 74.9857C2.4021 74.7557 3.2238 74.4457 4.15725 74.3557C5.26599 74.2457 6.47992 74.3257 7.93049 74.3257L7.94364 74.4757Z" fill="#C3AD7C"/>
</g>
<defs>
<clipPath id="clip0_985_55415">
<rect width="440" height="4" fill="white" transform="translate(0 74)"/>
</clipPath>
</defs>
</svg>
