<svg width="4" height="564" viewBox="0 0 4 564" fill="none" xmlns="http://www.w3.org/2000/svg">
<g clip-path="url(#clip0_942_31098)">
<path d="M3.5243 12.1101C3.7143 15.0272 3.1843 18.1227 3.2743 21.4163C3.3643 24.7099 3.31429 28.0425 3.28429 31.3583C3.27429 33.0344 3.35429 34.6157 3.51429 36.2304C3.66429 37.7949 3.32429 39.602 3.75429 41.0912C3.79429 41.2251 3.75429 41.5347 3.75429 41.7633C3.75429 45.7653 3.93429 49.8564 3.70429 53.744C3.44429 58.2674 3.62429 62.7295 3.51429 67.2027C4.01429 74.501 3.64429 81.8773 3.73429 89.2147C3.76429 91.5071 3.85429 93.8162 3.55429 96.1671C3.29429 98.1778 3.76429 100.629 3.30429 102.724C3.26429 102.896 3.36429 103.309 3.38429 103.619C3.43429 104.361 3.55429 105.147 3.51429 105.844C3.25429 110.053 3.25429 110.041 3.48429 113.555C3.51429 113.974 3.32429 114.484 3.31429 114.964C3.28429 116.899 3.25429 118.846 3.30429 120.775C3.34429 122.516 3.08429 124.356 3.51429 126.013C3.60429 126.373 3.52429 127.126 3.52429 127.697C3.52429 129.527 3.49429 131.359 3.52429 133.183C3.56429 135.269 3.36429 137.397 3.73429 139.441C3.89429 140.333 3.46429 141.627 3.56429 142.157C3.73429 143.139 3.77429 144.054 3.74429 145.018C3.71429 145.967 3.54429 146.887 3.53429 147.824C3.53429 148.641 3.72429 149.455 3.74429 150.284C3.77429 152.336 3.60429 154.539 3.79429 156.416C4.00429 158.438 3.95429 160.368 3.97429 162.34C4.00429 164.395 3.94429 166.461 3.99429 168.511C4.03429 170.109 3.85429 171.534 3.75429 173.032C3.65429 174.527 3.95429 176.203 3.52429 177.555C3.50429 177.617 3.52429 177.778 3.52429 177.89C3.44429 180.997 3.32429 184.101 3.30429 187.21C3.26429 192.581 3.30429 197.955 3.28429 203.329C3.28429 204.849 3.42429 206.447 3.06429 207.87C2.99429 208.165 3.09429 208.815 3.04429 209.208C2.84429 210.695 3.52429 211.871 3.21429 213.296C2.93429 214.571 3.09429 215.918 3.06429 217.226C3.03429 218.707 3.06429 220.199 3.05429 221.682C3.04429 222.706 3.09429 223.635 3.29429 224.485C2.88429 225.615 3.16429 227.224 2.96429 228.546C2.83429 229.416 2.71429 230.765 2.85429 231.404C3.16429 232.821 3.01429 234.232 3.05429 235.638C3.10429 237.726 2.97429 239.829 3.27429 241.896C3.39429 242.768 3.32429 243.937 3.28429 244.952C3.24429 245.9 3.08429 246.815 3.07429 247.76C3.04429 249.517 3.05429 251.244 3.27429 252.984C3.46429 254.493 3.08428 256.339 3.51428 257.842C3.57428 258.04 3.55428 258.536 3.51428 258.846C3.33428 260.494 3.23428 261.98 3.47428 263.815C3.67428 265.299 3.51428 267.198 3.51428 268.913C3.51428 270.743 3.59428 272.617 3.48428 274.385C3.41428 275.52 3.98428 276.086 3.62428 277.43C3.43428 278.153 3.53428 279.581 3.51428 280.693C3.50428 281.834 3.58428 283.033 3.49428 284.115C3.03428 289.821 3.41428 295.605 3.26428 301.33C3.20428 303.751 3.54428 306.294 3.04428 308.595C3.42428 310.302 3.09428 312.405 3.35428 314.044C3.51428 315.085 3.50428 315.994 3.50428 316.945C3.52428 323.234 3.48428 329.522 3.52428 335.808C3.55428 339.947 3.68428 344.077 3.73428 348.216C3.74428 349.379 3.79428 350.516 3.56428 351.777C3.39428 352.703 3.37428 354.393 3.67428 355.628C3.73428 355.868 3.78428 356.362 3.74428 356.546C3.19428 358.897 3.76428 361.228 3.78428 363.537C3.82428 368.063 3.48428 372.481 3.52428 376.974C3.52428 377.93 3.36428 379.054 3.73428 379.793C3.42428 380.529 3.57428 381.087 3.71428 381.996C3.85428 382.933 3.87428 384.478 3.70428 385.304C3.46428 386.425 3.55428 387.457 3.52428 388.53C3.49428 389.668 3.52428 390.817 3.52428 391.958C3.45428 396.78 3.38428 401.601 3.28428 406.421C3.26428 407.366 3.12428 408.283 3.06428 409.226C3.00428 410.171 3.17428 411.195 2.86428 412.098C2.74428 412.436 2.83428 413.404 2.83428 414.084C2.83428 416.485 2.63428 419.082 2.88428 421.232C3.13428 423.362 2.82428 425.644 3.27428 427.615C3.40428 428.168 3.27428 429.185 3.29428 429.977C3.40428 433.193 3.02428 436.509 3.52428 439.641C3.21428 440.798 3.27428 442.164 3.30428 443.47C3.32428 444.429 3.14428 445.533 3.49428 446.323C3.53428 446.415 3.53428 446.755 3.52428 446.956C3.44428 448.116 3.22428 449.153 3.28428 450.453C3.33428 451.532 3.55428 452.41 3.54428 453.593C3.52428 457.86 3.12428 462.054 3.29428 466.341C3.01428 467.512 3.06428 468.85 3.05428 470.172C3.04428 472.509 3.38428 474.699 3.30428 477.097C3.22428 479.361 3.13428 481.782 3.32427 483.927C3.64427 487.63 3.44427 491.309 3.51427 494.987C3.53427 495.932 3.65427 496.998 3.31427 497.854C3.23427 498.057 3.27427 499.092 3.37427 499.377C3.58427 499.982 3.45427 500.687 3.53427 501.27C3.75427 502.935 2.89427 504.558 3.53427 506.198L3.53427 511.686C3.53427 513.516 3.54427 515.345 3.53427 517.175C3.53427 518.028 3.59427 518.856 3.37427 519.74C3.22427 520.334 3.19427 521.737 3.33427 522.326C3.66427 523.72 3.52427 525.151 3.53427 526.551C3.55427 530.778 3.56427 535.012 3.53427 539.24C3.52427 541.091 3.38427 542.938 3.31427 544.786C3.23427 546.663 3.47427 548.61 3.16427 550.437C3.14427 550.565 3.16427 550.76 3.16427 550.916C3.21427 551.658 3.31427 552.408 3.29427 553.133C3.27427 554.079 2.98427 555.331 3.11427 555.869C3.35427 556.943 3.09427 557.64 3.06427 558.452C2.98427 560.786 2.35427 562.236 1.59427 561.968C1.42427 561.91 1.24427 561.634 1.11427 561.302C0.284272 559.199 0.334272 559.182 0.284272 555.799C0.224272 551.519 0.694272 547.338 0.524272 543.049C0.954273 540.252 0.674273 537.29 0.764273 534.418C0.854273 531.428 1.21427 528.388 0.964273 525.463C0.714273 522.551 0.774273 519.69 0.774274 516.807C0.774274 514.615 0.944274 512.428 0.984274 510.231C1.02427 507.949 0.914274 505.624 1.02427 503.384C1.09427 501.998 1.36427 500.531 1.20427 499.22C0.844274 496.351 1.15427 493.392 0.974275 490.578C0.714275 486.668 0.884275 482.725 0.724275 478.859C0.634275 476.773 0.534275 474.71 0.544275 472.613C0.544275 471.656 0.544276 470.75 0.704276 469.723C0.874276 468.678 0.874276 467.149 0.644276 465.847C0.544276 465.309 0.474276 464.408 0.554276 463.948C0.914276 462.029 0.764276 459.999 0.754276 458.03C0.754276 456.781 1.07428 455.381 0.944276 454.633C0.714276 453.373 0.814276 452.226 0.784276 451.05C0.764276 450.213 0.654277 449.259 0.954277 448.512C1.03428 448.311 1.05428 447.494 0.994277 447.248C0.594277 445.837 0.794277 444.217 0.784277 442.703C0.754277 439.047 0.754277 435.385 0.784277 431.729C0.804277 428.706 0.374277 425.8 0.544278 422.752C0.144278 420.897 0.324278 418.833 0.324278 416.862C0.324278 415.353 0.464278 413.85 0.544278 412.344C0.624278 410.838 0.544278 409.368 0.724278 407.776C0.944278 405.813 0.744279 403.478 0.784279 401.311C0.804279 400.132 0.584279 398.818 0.964279 397.753C1.01428 397.611 1.00428 397.064 0.964279 396.863C0.564279 395.313 0.674279 393.358 0.834279 391.977C1.08428 389.724 0.974279 387.554 1.01428 385.354C1.04428 383.53 0.994279 381.692 1.03428 379.868C1.06428 378.558 0.97428 377.278 1.14428 375.903C1.27428 374.851 1.05428 373.454 1.03428 372.202C1.00428 370.95 1.03428 369.686 1.03428 368.432L1.03428 360.199C1.03428 358.713 1.00428 357.221 1.03428 355.743C1.07428 354.343 1.23428 352.962 1.24428 351.565C1.29428 347.644 0.864281 343.793 1.02428 339.846C0.734281 338.778 0.944281 337.746 1.00428 336.631C1.05428 335.605 1.17428 334.405 0.884282 333.379C0.804282 333.095 0.824282 332.551 0.804282 332.121C0.764282 331.168 1.03428 330.345 0.834282 329.216C0.684282 328.418 0.834282 327.196 0.804282 326.176C0.774282 325.102 0.974282 323.886 0.614282 322.985C1.15428 321.1 0.324282 319.301 0.574282 317.419C0.654282 316.828 0.684282 316.181 0.734282 315.556C0.764282 315.244 0.834282 314.892 0.804282 314.625C0.314283 309.624 0.714283 304.512 0.574283 299.47C0.554283 298.848 0.454283 298.252 0.404283 297.632C0.384283 297.337 0.364283 297.002 0.394283 296.709C0.594283 293.946 0.584283 293.954 0.394284 291.374C0.344284 290.727 0.394283 290.019 0.364283 289.347C0.304284 287.604 0.404284 285.903 0.174284 284.098C-0.0557159 282.294 0.354284 280.331 0.534284 278.457C0.694284 276.789 0.864284 275.152 0.854284 273.334C0.814284 268.766 0.844285 264.189 0.844285 259.616C0.844285 259.044 0.924285 258.255 0.834285 257.94C0.434285 256.629 0.164285 255.466 0.834285 254.216C0.864285 254.158 0.864285 253.681 0.834285 253.578C0.414285 252.454 0.614285 250.987 0.634285 249.721C0.684286 244.874 0.214286 240.114 0.384286 235.255C0.414286 234.475 0.304286 233.412 0.444286 232.955C0.734286 231.979 0.264286 231.507 0.374286 230.662C0.464286 229.954 0.294286 228.905 0.414286 228.311C0.844286 226.161 0.714286 223.766 0.574286 221.738C0.444286 219.845 0.294287 217.887 0.434287 216.183C0.724287 212.825 0.594287 209.493 0.624287 206.152C0.654287 202.724 0.644287 199.291 0.624287 195.864C0.614288 194.461 0.794288 192.958 0.414288 191.661C0.334288 191.399 0.384288 190.763 0.414288 190.32C0.474288 189.263 0.624288 188.22 0.624288 187.171C0.624288 186.122 0.474288 185.082 0.414288 184.023C0.364288 183.169 0.414288 182.372 0.214288 181.493C0.0642882 180.852 0.184288 179.728 0.384288 178.721C0.784289 176.719 1.18429 174.633 1.11429 172.064C1.05429 169.791 1.11429 167.493 1.09429 165.209C1.09429 164.25 1.11429 163.346 0.924289 162.32C0.754289 161.397 0.824289 159.849 0.954289 158.731C1.15429 156.966 1.17429 155.343 0.954289 153.616C0.87429 153.022 0.874289 152.314 0.874289 151.656C0.87429 147.654 0.87429 143.652 0.87429 139.653C0.87429 138.688 0.80429 137.664 1.08429 136.878C0.75429 136.239 0.86429 135.235 0.88429 134.393C0.92429 133.105 1.06429 131.844 1.09429 130.556C1.12429 129.027 1.09429 127.535 0.894291 126.013C0.704291 124.607 1.01429 122.914 0.734291 121.395C0.684291 121.11 0.874291 120.513 0.854291 120.095C0.784291 118.358 1.09429 116.481 0.634291 114.874C0.594291 114.741 0.594291 114.367 0.634291 114.211C1.09429 112.214 0.744291 110.231 0.634292 108.254C0.504292 106.098 0.884291 104.129 0.874292 102.021C0.864292 99.6197 0.724292 97.1181 0.904292 94.8397C1.21429 90.913 1.06429 87.0059 1.09429 83.0961C1.13429 79.0969 1.12429 75.0922 1.09429 71.0931C1.08429 69.3529 0.914293 67.6294 0.884293 65.8864C0.844294 63.951 0.884294 62.0016 0.884294 60.0578C0.884294 58.2284 0.874294 56.3989 0.884294 54.5695C0.884294 53.7133 0.764294 52.7623 1.04429 52.0149C1.10429 51.8616 1.12429 51.3373 1.07429 51.1225C0.764294 49.5552 0.784294 48.0437 1.06429 46.4513C1.14429 45.9995 1.06429 45.333 1.11429 44.7948C1.22429 43.2944 0.954294 42.006 0.874294 40.6171C0.794294 39.3399 1.08429 37.8897 0.654295 36.7547C0.594295 36.5985 0.594295 35.9738 0.654295 35.773C1.37429 33.2129 0.174295 30.2847 0.844295 27.7357C0.434295 26.7178 0.904295 25.6608 0.844295 24.8549C0.754295 23.6836 0.644295 22.5541 0.654295 21.3382C0.654295 20.1948 0.684295 19.0458 0.654295 17.9108C0.604296 15.8275 0.794296 13.7164 0.454296 11.636C0.344296 10.9388 0.264296 9.63642 0.594296 8.78305C0.654296 8.63245 0.644296 8.17509 0.624296 7.87948C0.494296 5.59267 0.854296 2.81224 1.4543 2.24054C1.8043 1.90588 2.2343 1.94493 2.5943 2.20707C2.7743 2.33815 2.8843 3.33375 3.0143 3.96401C3.2443 5.05722 3.5543 6.10302 3.6443 7.29104C3.7543 8.70217 3.6743 10.2472 3.6743 12.0933L3.5243 12.1101Z" fill="#E1D6BE"/>
</g>
<defs>
<clipPath id="clip0_942_31098">
<rect width="564" height="3.99997" fill="white" transform="translate(4) rotate(90)"/>
</clipPath>
</defs>
</svg>
