<svg width="688" height="4" viewBox="0 0 688 4" fill="none" xmlns="http://www.w3.org/2000/svg">
<g clip-path="url(#clip0_1017_77853)">
<path d="M12.421 0.475704C16.0048 0.285704 19.8079 0.815704 23.8543 0.725704C27.9007 0.635704 31.995 0.685704 36.0688 0.715704C38.128 0.725704 40.0707 0.645704 42.0545 0.485704C43.9766 0.335704 46.1968 0.675704 48.0264 0.245704C48.1908 0.205704 48.5711 0.245704 48.8521 0.245704C53.7687 0.245704 58.795 0.0657039 63.5712 0.295704C69.1285 0.555704 74.6105 0.375704 80.1062 0.485704C89.0726 -0.0142961 98.135 0.355704 107.149 0.265704C109.966 0.235704 112.803 0.145704 115.691 0.445704C118.161 0.705704 121.173 0.235704 123.746 0.695704C123.959 0.735704 124.466 0.635704 124.846 0.615704C125.757 0.565704 126.724 0.445704 127.58 0.485704C132.75 0.745704 132.737 0.745704 137.054 0.515704C137.568 0.485704 138.195 0.675704 138.784 0.685704C141.162 0.715704 143.553 0.745704 145.924 0.695704C148.062 0.655704 150.323 0.915704 152.359 0.485704C152.801 0.395704 153.726 0.475704 154.428 0.475704C156.676 0.475704 158.927 0.505704 161.167 0.475704C163.73 0.435704 166.344 0.635704 168.856 0.265704C169.952 0.105704 171.542 0.535704 172.193 0.435704C173.399 0.265704 174.523 0.225704 175.708 0.255704C176.873 0.285704 178.004 0.455704 179.155 0.465704C180.159 0.465704 181.16 0.275704 182.177 0.255704C184.699 0.225704 187.406 0.395704 189.711 0.205704C192.195 -0.00429606 194.566 0.0457039 196.989 0.0257039C199.514 -0.00429606 202.053 0.0557039 204.571 0.00570394C206.534 -0.0342961 208.285 0.145704 210.125 0.245704C211.961 0.345704 214.021 0.0457039 215.682 0.475704C215.758 0.495704 215.956 0.475704 216.093 0.475704C219.91 0.555704 223.724 0.675704 227.544 0.695704C234.143 0.735704 240.745 0.695704 247.347 0.715704C249.215 0.715704 251.178 0.575704 252.925 0.935704C253.289 1.0057 254.087 0.905704 254.57 0.955704C256.396 1.1557 257.842 0.475704 259.593 0.785704C261.159 1.0657 262.814 0.905704 264.42 0.935704C266.24 0.965704 268.073 0.935704 269.896 0.945704C271.153 0.955704 272.294 0.905704 273.339 0.705704C274.727 1.1157 276.703 0.835704 278.327 1.0357C279.396 1.1657 281.055 1.2857 281.839 1.1457C283.58 0.835704 285.314 0.985704 287.04 0.945704C289.607 0.895704 292.19 1.0257 294.729 0.725704C295.801 0.605704 297.237 0.675704 298.484 0.715704C299.649 0.755704 300.773 0.915704 301.934 0.925704C304.093 0.955704 306.214 0.945704 308.352 0.725704C310.205 0.535704 312.473 0.915704 314.32 0.485704C314.563 0.425704 315.173 0.445704 315.553 0.485704C317.578 0.665704 319.405 0.765704 321.659 0.525704C323.482 0.325704 325.815 0.485704 327.922 0.485704C330.17 0.485704 332.472 0.405704 334.644 0.515704C336.039 0.585704 336.734 0.0157039 338.386 0.375704C339.273 0.565704 341.028 0.465704 342.395 0.485704C343.796 0.495704 345.269 0.415704 346.599 0.505704C353.609 0.965704 360.715 0.585704 367.749 0.735704C370.723 0.795704 373.847 0.455704 376.674 0.955704C378.771 0.575704 381.354 0.905704 383.369 0.645704C384.647 0.485704 385.764 0.495704 386.932 0.495704C394.658 0.475704 402.385 0.515704 410.107 0.475704C415.192 0.445704 420.266 0.315704 425.351 0.265704C426.779 0.255704 428.177 0.205704 429.726 0.435704C430.863 0.605704 432.94 0.625704 434.457 0.325704C434.752 0.265704 435.359 0.215704 435.585 0.255704C438.473 0.805704 441.337 0.235704 444.174 0.215704C449.735 0.175704 455.162 0.515704 460.682 0.475704C461.857 0.475704 463.238 0.635704 464.146 0.265704C465.05 0.575704 465.736 0.425704 466.853 0.285704C468.004 0.145704 469.902 0.125704 470.916 0.295704C472.293 0.535704 473.561 0.445704 474.88 0.475704C476.278 0.505704 477.69 0.475704 479.091 0.475704C485.015 0.545704 490.939 0.615704 496.859 0.715704C498.021 0.735704 499.148 0.875704 500.306 0.935704C501.468 0.995704 502.725 0.825704 503.835 1.1357C504.25 1.2557 505.439 1.1657 506.275 1.1657C509.225 1.1657 512.415 1.3657 515.056 1.1157C517.674 0.865704 520.477 1.1757 522.899 0.725704C523.577 0.595704 524.828 0.725704 525.801 0.705704C529.751 0.595704 533.825 0.975704 537.673 0.475704C539.095 0.785704 540.773 0.725704 542.377 0.695704C543.556 0.675704 544.912 0.855704 545.882 0.505704C545.995 0.465704 546.413 0.465704 546.66 0.475704C548.085 0.555704 549.36 0.775704 550.956 0.715704C552.282 0.665704 553.362 0.445704 554.814 0.455704C560.056 0.475704 565.209 0.875704 570.476 0.705704C571.915 0.985704 573.559 0.935704 575.183 0.945704C578.054 0.955704 580.744 0.615704 583.691 0.695704C586.473 0.775704 589.447 0.865704 592.081 0.675704C596.631 0.355704 601.151 0.555704 605.67 0.485704C606.831 0.465704 608.14 0.345704 609.192 0.685704C609.442 0.765704 610.713 0.725704 611.063 0.625704C611.806 0.415704 612.673 0.545704 613.389 0.465704C615.435 0.245704 617.429 1.1057 619.443 0.465704L626.186 0.465704C628.434 0.465704 630.681 0.455704 632.929 0.465704C633.977 0.465704 634.995 0.405704 636.081 0.625704C636.811 0.775704 638.534 0.805704 639.257 0.665704C640.97 0.335704 642.728 0.475704 644.448 0.465704C649.642 0.445704 654.843 0.435704 660.037 0.465704C662.312 0.475704 664.58 0.615704 666.852 0.685704C669.158 0.765704 671.549 0.525704 673.794 0.835704C673.951 0.855704 674.191 0.835704 674.383 0.835704C675.294 0.785704 676.216 0.685704 677.107 0.705704C678.268 0.725704 679.807 1.0157 680.468 0.885704C681.787 0.645704 682.644 0.905704 683.641 0.935704C686.508 1.0157 688.29 1.6457 687.961 2.4057C687.889 2.5757 687.55 2.7557 687.142 2.8857C684.559 3.7157 684.538 3.6657 680.382 3.7157C675.123 3.7757 669.987 3.3057 664.718 3.4757C661.281 3.0457 657.642 3.3257 654.113 3.2357C650.44 3.1457 646.706 2.7857 643.112 3.0357C639.535 3.2857 636.019 3.2257 632.477 3.2257C629.784 3.2257 627.097 3.0557 624.398 3.0157C621.595 2.9757 618.737 3.0857 615.986 2.9757C614.283 2.9057 612.481 2.6357 610.871 2.7957C607.345 3.1557 603.71 2.8457 600.253 3.0257C595.449 3.2857 590.605 3.1157 585.856 3.2757C583.293 3.3657 580.758 3.4657 578.181 3.4557C577.006 3.4557 575.892 3.4557 574.632 3.2957C573.347 3.1257 571.469 3.1257 569.869 3.3557C569.208 3.4557 568.101 3.5257 567.536 3.4457C565.179 3.0857 562.684 3.2357 560.265 3.2457C558.73 3.2457 557.01 2.9257 556.092 3.0557C554.544 3.2857 553.135 3.1857 551.69 3.2157C550.662 3.2357 549.49 3.3457 548.572 3.0457C548.325 2.9657 547.321 2.9457 547.02 3.0057C545.286 3.4057 543.295 3.2057 541.435 3.2157C536.943 3.2457 532.444 3.2457 527.953 3.2157C524.239 3.1957 520.668 3.6257 516.924 3.4557C514.645 3.8557 512.11 3.6757 509.687 3.6757C507.834 3.6757 505.987 3.5357 504.137 3.4557C502.287 3.3757 500.481 3.4557 498.525 3.2757C496.113 3.0557 493.245 3.2557 490.583 3.2157C489.133 3.1957 487.52 3.4157 486.211 3.0357C486.036 2.9857 485.364 2.9957 485.118 3.0357C483.213 3.4357 480.811 3.3257 479.115 3.1657C476.347 2.9157 473.681 3.0257 470.978 2.9857C468.737 2.9557 466.479 3.0057 464.238 2.9657C462.628 2.9357 461.055 3.0257 459.366 2.8557C458.075 2.7257 456.358 2.9457 454.82 2.9657C453.281 2.9957 451.729 2.9657 450.187 2.9657L440.073 2.9657C438.247 2.9657 436.414 2.9957 434.598 2.9657C432.878 2.9257 431.182 2.7657 429.465 2.7557C424.648 2.7057 419.917 3.1357 415.068 2.9757C413.756 3.2657 412.488 3.0557 411.118 2.9957C409.857 2.9457 408.384 2.8257 407.123 3.1157C406.774 3.1957 406.105 3.1757 405.578 3.1957C404.406 3.2357 403.395 2.9657 402.008 3.1657C401.028 3.3157 399.527 3.1657 398.273 3.1957C396.954 3.2257 395.46 3.0257 394.353 3.3857C392.037 2.8457 389.827 3.6757 387.515 3.4257C386.788 3.3457 385.993 3.3157 385.226 3.2657C384.842 3.2357 384.41 3.1657 384.082 3.1957C377.938 3.6857 371.658 3.2857 365.463 3.4257C364.699 3.4457 363.966 3.5457 363.206 3.5957C362.842 3.6157 362.431 3.6357 362.071 3.6057C358.676 3.4057 358.686 3.4157 355.517 3.6057C354.722 3.6557 353.852 3.6057 353.026 3.6357C350.885 3.6957 348.795 3.5957 346.578 3.8257C344.361 4.0557 341.949 3.6457 339.647 3.4657C337.598 3.3057 335.587 3.1357 333.353 3.1457C327.741 3.1857 322.118 3.1557 316.499 3.1557C315.797 3.1557 314.827 3.0757 314.44 3.1657C312.83 3.5657 311.401 3.8357 309.866 3.1657C309.794 3.1357 309.208 3.1357 309.081 3.1657C307.701 3.5857 305.898 3.3857 304.343 3.3657C298.388 3.3157 292.539 3.7857 286.571 3.6157C285.612 3.5857 284.306 3.6957 283.744 3.5557C282.545 3.2657 281.966 3.7357 280.928 3.6257C280.058 3.5357 278.769 3.7057 278.04 3.5857C275.398 3.1557 272.455 3.2857 269.964 3.4257C267.638 3.5557 265.232 3.7057 263.139 3.5657C259.014 3.2757 254.919 3.4057 250.815 3.3757C246.604 3.3457 242.386 3.3557 238.175 3.3757C236.452 3.3857 234.605 3.2057 233.012 3.5857C232.69 3.6657 231.909 3.6157 231.364 3.5857C230.066 3.5257 228.784 3.3757 227.496 3.3757C226.208 3.3757 224.93 3.5257 223.628 3.5857C222.579 3.6357 221.599 3.5857 220.52 3.7857C219.732 3.9357 218.351 3.8157 217.114 3.6157C214.654 3.2157 212.092 2.8157 208.936 2.8857C206.144 2.9457 203.32 2.8857 200.514 2.9057C199.336 2.9057 198.226 2.8857 196.965 3.0757C195.831 3.2457 193.929 3.1757 192.555 3.0457C190.386 2.8457 188.392 2.8257 186.271 3.0457C185.542 3.1257 184.671 3.1257 183.863 3.1257C178.946 3.1257 174.03 3.1257 169.116 3.1257C167.931 3.1257 166.673 3.1957 165.707 2.9157C164.923 3.2457 163.689 3.1357 162.654 3.1157C161.072 3.0757 159.523 2.9357 157.94 2.9057C156.062 2.8757 154.229 2.9057 152.359 3.1057C150.632 3.2957 148.552 2.9857 146.685 3.2657C146.335 3.3157 145.602 3.1257 145.088 3.1457C142.954 3.2157 140.648 2.9057 138.674 3.3657C138.51 3.4057 138.051 3.4057 137.859 3.3657C135.406 2.9057 132.97 3.2557 130.54 3.3657C127.892 3.4957 125.473 3.1157 122.883 3.1257C119.933 3.1357 116.859 3.2757 114.06 3.0957C109.236 2.7857 104.436 2.9357 99.6323 2.9057C94.7191 2.8657 89.799 2.8757 84.8858 2.9057C82.7478 2.9157 80.6304 3.0857 78.489 3.1157C76.1112 3.1557 73.7163 3.1157 71.3282 3.1157C69.0806 3.1157 66.833 3.1257 64.5854 3.1157C63.5335 3.1157 62.3652 3.2357 61.4469 2.9557C61.2585 2.8957 60.6144 2.8757 60.3505 2.9257C58.425 3.2357 56.568 3.2157 54.6116 2.9357C54.0565 2.8557 53.2377 2.9357 52.5764 2.8857C50.7331 2.7757 49.1502 3.0457 47.4439 3.1257C45.8747 3.2057 44.0931 2.9157 42.6986 3.3457C42.5067 3.4057 41.7392 3.4057 41.4925 3.3457C38.3473 2.6257 34.7497 3.8257 31.6181 3.1557C30.3676 3.5657 29.069 3.0957 28.0788 3.1557C26.6398 3.2457 25.2522 3.3557 23.7584 3.3457C22.3536 3.3457 20.942 3.3157 19.5475 3.3457C16.9881 3.3957 14.3945 3.2057 11.8385 3.5457C10.9819 3.6557 9.38189 3.7357 8.33346 3.4057C8.14845 3.3457 7.58654 3.3557 7.22336 3.3757C4.41385 3.5057 0.997896 3.1457 0.295519 2.5457C-0.115629 2.1957 -0.0676621 1.7657 0.254404 1.4057C0.415437 1.2257 1.6386 1.1157 2.41293 0.985704C3.75601 0.755704 5.04085 0.445704 6.50043 0.355704C8.2341 0.245704 10.1322 0.325704 12.4004 0.325704L12.421 0.475704Z" fill="#E1D6BE"/>
</g>
<defs>
<clipPath id="clip0_1017_77853">
<rect width="688" height="3.99997" fill="white"/>
</clipPath>
</defs>
</svg>
