<svg width="100" height="101" viewBox="0 0 100 101" fill="none" xmlns="http://www.w3.org/2000/svg">
<rect x="4" y="4.5" width="92" height="92" rx="46" fill="#A32244"/>
<path d="M42.5011 65.4451C41.4721 66.3702 40.1218 66.9311 38.6433 66.9311C35.4227 66.9311 32.8105 64.2717 32.8105 60.9888C32.8105 58.4949 34.3179 56.3596 36.4553 55.4786" stroke="#F6E8E8" stroke-width="2.2" stroke-linecap="round" stroke-linejoin="round"/>
<path d="M63.0863 60.3239C65.2216 61.2204 66.7283 63.387 66.7283 65.9178C66.7283 69.2499 64.116 71.9525 60.8914 71.9525C57.9142 71.9525 55.4591 69.6496 55.0996 66.6724" stroke="#F6E8E8" stroke-width="2.2" stroke-linecap="round" stroke-linejoin="round"/>
<path d="M50.2549 33.1904V38.811" stroke="#F6E8E8" stroke-width="2.2" stroke-linecap="round" stroke-linejoin="round"/>
<path d="M40.5654 40.7985V43.7056" stroke="#F6E8E8" stroke-width="2.2" stroke-linecap="round" stroke-linejoin="round"/>
<path d="M59.9443 40.7985V43.7056" stroke="#F6E8E8" stroke-width="2.2" stroke-linecap="round" stroke-linejoin="round"/>
<path d="M64.6651 27.8317H53.9329H35.3278C34.6116 27.8317 34.0322 27.2524 34.0322 26.5362V23.795C34.0322 23.0787 34.6116 22.4994 35.3278 22.4994H64.6651C65.3814 22.4994 65.9607 23.0787 65.9607 23.795V26.5362C65.9607 27.2524 65.3814 27.8317 64.6651 27.8317Z" stroke="#F6E8E8" stroke-width="3" stroke-linecap="round" stroke-linejoin="round"/>
<path d="M60.724 32.2411V36.8138C66.8789 36.8138 71.8696 41.8293 71.8696 48.0147V69.4379C71.8696 73.5122 68.5841 76.814 64.53 76.814H34.3377C30.2835 76.814 26.998 73.5122 26.998 69.4379V48.0147C26.998 41.8293 31.9888 36.8138 38.1437 36.8138V32.2411" stroke="#F6E8E8" stroke-width="3" stroke-linecap="round" stroke-linejoin="round"/>
<path d="M50.1822 63.14C55.5338 63.14 59.8722 58.8218 59.8722 53.495C59.8722 48.1682 55.5338 43.85 50.1822 43.85C44.8305 43.85 40.4922 48.1682 40.4922 53.495C40.4922 58.8218 44.8305 63.14 50.1822 63.14Z" fill="#F6E8E8" stroke="#F6E8E8" stroke-width="3" stroke-linecap="round" stroke-linejoin="round"/>
<path d="M47.2773 56.3911C48.0041 57.8378 49.4576 57.8379 49.4576 57.8379H50.9111C52.1099 57.8379 53.0913 56.861 53.0913 55.6677C53.0913 54.4745 52.1099 53.4976 50.9111 53.4976H49.4576C48.2588 53.4976 47.2773 52.5207 47.2773 51.3275C47.2773 50.1342 48.2588 49.1573 49.4576 49.1573H50.9111C50.9111 49.1573 52.3646 49.1573 53.0913 50.6041" stroke="#9A0036" stroke-width="2.2" stroke-linecap="round" stroke-linejoin="round"/>
<path d="M50.3008 47.7081V48.8622" stroke="#9A0036" stroke-width="2.2" stroke-linecap="round" stroke-linejoin="round"/>
<path d="M50.3008 58.4207V59.2862" stroke="#9A0036" stroke-width="2.2" stroke-linecap="round" stroke-linejoin="round"/>
<path d="M97.8007 56.0088C97.7807 56.7888 97.5707 57.5688 97.3507 58.3688C97.1107 59.1688 96.9507 59.9988 96.7407 60.8388C96.5707 61.6988 96.3607 62.5488 96.1307 63.3988L95.7807 64.6788L95.3107 65.9088C94.9907 66.7388 94.7907 67.5588 94.6307 68.4188C94.5207 69.2788 93.7307 69.9788 93.7907 70.8888C93.7907 70.9688 93.6907 71.1088 93.6407 71.2188C93.4107 71.7088 93.1907 72.1988 92.9607 72.6888L92.6307 73.4288L92.2307 74.1288C91.6907 75.0588 91.1207 75.9688 90.4807 76.7988C89.7407 77.7588 88.9407 78.6588 88.2507 79.6288C87.8907 80.0988 87.5507 80.5988 87.1607 81.0488C86.7607 81.4888 86.3507 81.9288 85.9307 82.3488C85.3607 83.1388 84.7907 83.9488 84.1007 84.6588C83.4007 85.3488 82.6807 86.0088 81.9407 86.6688C81.5707 86.9888 81.2107 87.3388 80.8207 87.6288L79.6207 88.4888C78.8207 89.0688 78.0307 89.6488 77.2507 90.2488C76.2207 90.9088 75.2107 91.6388 73.9807 92.0188C73.7207 92.0988 73.4707 92.2288 73.2207 92.3788C72.9607 92.5088 72.7007 92.6488 72.4407 92.7988C71.9107 93.0788 71.3607 93.3488 70.7607 93.3788C70.6607 93.3788 70.5107 93.5688 70.3707 93.6588C70.0407 93.8788 69.7107 94.1688 69.3507 94.2888C67.1707 94.8788 67.1707 94.8288 65.4907 95.6988C65.2907 95.7988 64.9707 95.7088 64.7407 95.7888C63.7407 96.0388 62.7307 96.2588 61.7507 96.5588C60.8607 96.8388 59.8707 96.8288 59.0707 97.3488C58.9007 97.4688 58.4907 97.4488 58.1907 97.4988C57.2307 97.6388 56.2607 97.7888 55.3007 97.9288C54.1907 98.0288 53.0507 97.8888 51.9807 98.3088C51.5007 98.4888 50.8107 98.1088 50.5307 98.1988C50.0107 98.3388 49.5107 98.3588 49.0007 98.2988C48.4907 98.2388 48.0107 98.0488 47.5107 98.0188C47.0807 97.9888 46.6307 98.1688 46.1807 98.1588C45.0807 98.1188 43.9507 97.6988 42.9207 97.7588C41.8107 97.8088 40.7907 97.6188 39.7607 97.3388C38.6807 97.0888 37.6207 96.7588 36.5407 96.5288C35.7107 96.3088 35.0507 95.8488 34.3307 95.4888C33.6207 95.1188 32.6607 95.0888 32.1507 94.4388C32.1307 94.4088 32.0407 94.3888 31.9907 94.3588C30.5407 93.5488 29.0707 92.7888 27.6407 91.9688C26.4407 91.2088 25.2007 90.4888 24.0107 89.7188L20.5907 87.1588C19.9907 86.6288 19.2707 86.1588 18.9507 85.3888C18.8807 85.2288 18.5607 85.0788 18.4407 84.8988C18.0107 84.2188 17.0407 84.3188 16.7707 83.5188C16.5207 82.8288 15.9307 82.4088 15.4807 81.8788C15.0007 81.2688 14.3807 80.7588 13.9507 80.0888C13.6407 79.6488 13.3007 79.2888 12.8707 79.0488C12.8407 78.3288 12.1107 77.8088 11.8507 77.1388C11.6707 76.7088 11.4407 76.0188 11.1407 75.8088C10.4907 75.3388 10.2307 74.6188 9.81072 74.0088C9.15072 73.1088 8.84072 72.0288 8.09072 71.1788C7.78072 70.8188 7.57072 70.2188 7.38072 69.7188C7.29072 69.4888 7.23072 69.2388 7.16072 68.9988C7.12072 68.7488 7.07072 68.4988 7.00072 68.2688C6.71072 67.3888 6.38072 66.5388 5.86072 65.7488C5.64072 65.3988 5.51072 64.9688 5.40072 64.5388C5.30072 64.0988 5.18072 63.6788 4.87072 63.3488C4.79072 63.2588 4.74072 62.9988 4.73072 62.8288C4.68072 61.9288 4.59072 61.1488 4.11072 60.2588C3.78072 59.5188 3.79072 58.4788 3.65072 57.5788C3.53072 56.6188 3.21072 55.6388 3.32072 54.6888C3.36072 54.0788 2.77072 53.8188 3.10072 53.0788C3.27072 52.6788 3.14072 51.9288 3.12072 51.3388C3.08072 50.7288 3.04072 50.0888 3.16072 49.5188C3.31072 48.7588 3.41072 48.0088 3.49072 47.2488C3.56072 46.4888 3.58072 45.7288 3.71072 44.9788L4.02072 42.7088C4.14072 41.9588 4.20072 41.1888 4.46072 40.4688C4.84072 39.2488 4.84072 37.8388 5.63072 36.7988C5.55072 35.8288 6.26072 34.8888 6.31072 33.9888C6.35072 33.4088 6.53072 32.9588 6.70072 32.4888C7.35072 30.9488 8.13072 29.4588 8.85072 27.9488C9.74072 26.5288 10.5507 25.0588 11.4807 23.6688C12.1307 22.7788 12.7607 21.8688 13.3807 20.9588C13.6807 20.4888 14.0207 20.0588 14.3907 19.6488L15.4707 18.3888C15.8807 17.9188 16.2607 17.4388 16.8807 17.0988C17.3507 16.8688 18.0307 16.2888 18.3207 15.6288C18.3807 15.4988 18.5407 15.2888 18.6407 15.2488C19.2907 15.0288 19.7407 14.6088 20.1607 14.1288C20.5807 13.6588 21.0007 13.1988 21.4807 12.8088C22.4507 12.0888 23.4107 11.3588 24.4707 10.8088C25.5307 10.2488 26.5807 9.69878 27.6007 9.06878C28.0207 8.77878 28.6607 8.70878 28.8407 8.18878C29.3407 8.28878 29.5307 8.02878 29.9107 7.68878C30.3007 7.33878 31.0407 6.96878 31.5107 6.93878C32.1407 6.87878 32.6307 6.63878 33.1807 6.45878C33.7607 6.27878 34.3207 6.02878 34.9007 5.83878C35.5107 5.64878 36.1107 5.40878 36.7307 5.24878L38.6107 4.81878C39.8607 4.54878 41.1007 4.20878 42.3807 4.11878C42.8807 4.05878 43.3807 4.11878 43.8807 4.11878C44.3807 4.10878 44.9007 3.84878 45.4007 4.09878C45.5907 4.17878 46.0807 4.03878 46.4407 4.03878C47.7007 3.97878 49.0607 4.09878 50.1907 3.79878C51.3107 3.52878 52.5007 3.94878 53.5707 3.53878C53.8707 3.42878 54.4007 3.58878 54.8207 3.57878C55.6807 3.52878 56.5207 3.81878 57.3707 3.93878C58.2207 4.08878 59.0607 4.18878 59.9407 4.06878C60.4907 4.47878 61.1907 4.62878 61.8707 4.76878C62.3707 4.87878 62.8907 5.19878 63.3907 4.95878C63.4507 4.92878 63.6207 4.97878 63.7207 5.01878C64.3007 5.24878 64.7707 5.59878 65.4207 5.78878C65.9707 5.93878 66.4807 5.88878 67.0807 6.10878C69.2607 6.81878 71.0407 8.27878 73.1607 9.08878C73.5607 9.65878 74.1807 9.97878 74.7807 10.3488C75.8107 11.0188 77.0407 11.2588 77.9907 12.1388C78.9007 12.9288 79.8907 13.7388 80.8907 14.3188C81.7207 14.8588 82.4707 15.4988 83.2007 16.1588C83.5607 16.4888 83.9307 16.8188 84.2707 17.1688C84.6007 17.5388 84.9307 17.8988 85.2707 18.2488C85.6207 18.6088 86.1007 18.9488 86.1507 19.5088C86.1607 19.6388 86.5607 20.0288 86.7407 20.0688C87.1207 20.1688 87.2707 20.5288 87.5107 20.7388C88.2207 21.3188 88.0507 22.5288 89.0807 22.8488L89.9507 24.0188C90.2207 24.4288 90.4607 24.8488 90.7207 25.2588C91.2307 26.0888 91.7407 26.9188 92.2307 27.7588C92.4707 28.1488 92.6907 28.5288 92.7107 29.0488C92.7107 29.3988 93.0107 30.0788 93.2707 30.2988C93.8807 30.8288 94.1007 31.5688 94.4207 32.2488C95.1907 34.3588 96.1007 36.4488 96.5407 38.6688C96.7507 39.6288 96.9307 40.5988 97.0107 41.5888C97.0907 42.5788 97.4707 43.5688 97.3207 44.5688C97.3107 44.6388 97.3407 44.7388 97.3607 44.8188C97.4607 45.1988 97.6407 45.5788 97.6607 45.9688C97.6607 46.4688 97.4107 47.1588 97.5507 47.4288C97.8207 47.9788 97.5707 48.3688 97.5707 48.7888C97.5507 50.0288 96.9607 50.7888 96.1907 50.6388C96.0207 50.6088 95.8307 50.4688 95.6907 50.2988C94.8107 49.2488 94.8507 49.2588 94.7207 47.5788C94.6707 47.0488 94.6907 46.5188 94.6707 45.9888L94.5607 44.4088C94.4707 43.3588 94.4507 42.2788 94.1207 41.2588C94.1707 39.8188 93.5807 38.4188 93.2407 37.0288C92.8007 35.6088 92.6607 34.0088 91.8407 32.7488C90.9607 31.5388 90.4507 30.1988 89.7407 28.9288C89.1707 27.9888 88.7507 26.9588 88.2007 25.9888C87.6307 24.9888 86.7707 24.1588 86.2107 23.1688C85.8407 22.5688 85.6407 21.7788 85.0407 21.4088C84.4207 20.9888 83.9107 20.4488 83.4307 19.9088C82.9407 19.3688 82.5007 18.7788 81.8907 18.3888C81.0707 17.8188 80.3307 17.1688 79.5907 16.5188C79.2407 16.1788 78.8407 15.8888 78.4407 15.6088C78.0407 15.3288 77.6407 15.0488 77.2307 14.7888C76.3407 14.2388 75.4807 13.6688 74.5607 13.1588C74.1507 12.9088 73.7607 12.6788 73.4107 12.2688C73.0407 11.8588 72.4007 11.4288 71.7107 11.3388C71.4207 11.3088 70.9807 11.1788 70.8107 11.0088C70.1107 10.2788 69.1207 9.95878 68.2307 9.53878C67.6607 9.28878 67.1107 8.76878 66.7107 8.75878C66.0307 8.75878 65.5307 8.46878 64.9607 8.28878C64.5607 8.16878 64.0907 8.07878 63.8107 7.69878C63.7407 7.59878 63.3407 7.46878 63.2007 7.50878C62.4007 7.70878 61.6707 7.32878 60.9307 7.14878L59.5907 6.82878L58.2307 6.62878L55.5107 6.18878C54.0007 6.02878 52.5207 6.42878 51.0107 6.16878C50.0907 6.53878 49.0707 6.46878 48.0907 6.49878C47.3407 6.54878 46.5807 6.40878 45.8307 6.41878C45.0807 6.45878 44.3607 6.63878 43.5507 6.58878C43.0507 6.55878 42.5107 6.62878 41.9707 6.72878C41.4207 6.80878 40.9007 7.03878 40.3607 7.13878C39.7807 7.26878 39.2007 7.63878 38.5807 7.40878C38.5007 7.37878 38.2307 7.44878 38.1507 7.52878C37.4907 8.06878 36.5607 8.32878 35.8607 8.41878C34.7207 8.58878 33.7007 9.00878 32.6907 9.43878C31.8507 9.80878 31.0407 10.2588 30.1907 10.6288C29.8907 10.7588 29.6007 10.9188 29.3007 11.0588C29.0107 11.2088 28.7207 11.3788 28.3807 11.4788C27.8607 11.6488 27.3707 12.1988 26.8407 12.5488C26.3207 12.9088 25.7407 13.1788 25.2407 13.5688L23.5807 14.8088C23.0307 15.2288 22.4607 15.6188 21.9307 16.0688C21.3807 16.5788 20.8407 17.0988 20.2607 17.5788C19.7207 18.0288 19.0707 18.3688 18.5607 18.8588C17.2107 20.3288 16.1207 21.9488 14.8807 23.4988C14.7907 24.0988 14.3107 24.3888 13.9307 24.8088C13.7507 24.9988 13.5507 25.1988 13.3807 25.4288C13.2207 25.6588 13.1207 25.9288 13.1107 26.2288C13.1107 26.3988 12.9507 26.6188 12.8507 26.8088C12.6407 27.2388 12.1907 27.4488 12.0707 28.0388C11.9907 28.4588 11.5407 28.8988 11.3107 29.3588C11.1107 29.8588 10.6607 30.3188 10.7907 30.8888C9.89072 31.5088 10.2407 32.6688 9.63072 33.4088C9.46072 33.6588 9.32072 33.9488 9.16072 34.2188C9.08072 34.3588 8.96072 34.4988 8.94072 34.6288C8.84072 35.2588 8.69072 35.8688 8.50072 36.4788C8.41072 36.7788 8.31072 37.0788 8.20072 37.3788L7.96072 38.2988C7.64072 39.5188 7.22072 40.7188 7.03072 41.9688C7.00072 42.2788 7.06072 42.5888 7.06072 42.9088C7.06072 43.0588 7.05072 43.2288 7.01072 43.3688C6.61072 44.6988 6.61072 44.6988 6.62072 45.9888C6.62072 46.3088 6.59072 46.6588 6.59072 46.9988C6.60072 47.8688 6.47072 48.7088 6.65072 49.6088C6.79072 50.4988 6.46072 51.4688 6.33072 52.4088C6.22072 53.2488 6.08072 54.0788 6.14072 54.9888C6.29072 56.1288 6.50072 57.2488 6.66072 58.3888C6.78072 59.5288 7.10072 60.6388 7.38072 61.7488C7.45072 62.0288 7.47072 62.4288 7.60072 62.5588C8.17072 63.0888 8.50072 63.5688 8.10072 64.3588C8.08072 64.3988 8.16072 64.6188 8.22072 64.6588C8.82072 65.0488 8.87072 65.7988 9.08072 66.3988C9.28072 66.9688 9.49072 67.5388 9.75072 68.0788L10.6507 69.6388C11.2607 70.6688 11.7907 71.7388 12.3807 72.7888C12.5607 73.1388 12.9207 73.5288 12.9207 73.7988C12.9207 74.3688 13.4407 74.3188 13.5707 74.7288C13.6807 75.0788 14.0807 75.4288 14.1807 75.7288C14.4707 76.8288 15.3007 77.7188 16.0107 78.4388C16.6607 79.1288 17.4907 79.6888 17.9307 80.4288C18.4007 81.1288 18.8907 81.8188 19.5007 82.3888L21.3507 84.0688L22.2907 84.9488C22.6207 85.2188 22.9707 85.4688 23.3107 85.7288L25.3807 87.2488C25.9307 87.6788 26.5207 88.1588 27.2607 88.1988C27.4107 88.1988 27.6607 88.3988 27.8307 88.5388C28.2407 88.8688 28.6207 89.2588 29.0607 89.5388C29.5007 89.8288 30.0607 89.8788 30.5507 90.0688C30.9507 90.2088 31.2907 90.4288 31.7707 90.4288C32.1207 90.4288 32.5607 90.7788 32.9307 91.1888C33.6607 91.9888 34.5407 92.6588 35.7707 93.0588C36.3207 93.2188 36.8507 93.4388 37.4007 93.6188C37.9607 93.7688 38.5107 93.9188 39.0707 94.0588C39.5407 94.1688 39.9807 94.3188 40.5207 94.2588C41.0107 94.2088 41.7307 94.4888 42.2707 94.6688C43.1107 94.9988 43.9207 95.1488 44.8107 95.0488C45.1207 95.0188 45.4707 95.0688 45.7907 95.1188C46.7907 95.2188 47.7907 95.2288 48.8007 95.2888C49.8007 95.3488 50.8107 95.4188 51.8107 95.3288C52.2907 95.3088 52.8007 95.2088 53.2107 95.4688C53.5107 95.1188 54.0207 95.2088 54.4407 95.2088C55.0907 95.2388 55.7307 95.2788 56.3807 95.2088C57.1507 95.1288 57.8907 94.9788 58.6107 94.6688C58.9407 94.5188 59.3307 94.4988 59.7207 94.4488C60.1107 94.3688 60.5007 94.2788 60.8407 94.0488C60.9707 93.9588 61.3007 94.0788 61.5007 94.0088C62.3207 93.7188 63.3307 93.7988 63.9707 93.1388C64.0207 93.0788 64.2007 93.0188 64.2807 93.0288C65.3607 93.1188 66.1907 92.4488 67.0707 91.9988C68.0507 91.5488 69.0507 91.3988 70.0107 90.9488C70.5407 90.6688 71.0907 90.3888 71.6307 90.1088C72.1707 89.8388 72.6707 89.4988 73.2107 89.2888C74.1307 88.9088 75.0007 88.4388 75.8407 87.9188C76.6307 87.3288 77.4007 86.7188 78.2007 86.1388C78.6007 85.8388 79.0307 85.5688 79.4107 85.2288L80.5307 84.2188C81.2607 83.5288 82.0507 82.8888 82.7207 82.1288C83.3007 81.4688 83.7607 80.7188 84.3207 80.0488C84.6207 79.6688 84.9807 79.3288 85.2707 78.9388L86.1507 77.7688L87.7907 75.5588C88.0207 75.1988 88.1507 74.7188 88.5907 74.5488C88.6807 74.5188 88.8307 74.2988 88.8507 74.1788C88.9907 73.3388 89.4007 72.7088 90.0607 72.1588C90.2407 71.9988 90.3107 71.6588 90.4707 71.4288C90.9007 70.7988 90.9407 70.0888 91.1707 69.4288C91.3607 68.8188 92.0007 68.2888 91.7707 67.5788C91.7407 67.4888 91.8507 67.1888 91.9307 67.1188C92.4907 66.6488 92.6107 65.9588 92.7307 65.2688C92.8307 64.5788 92.9907 63.9188 93.4307 63.3888C93.1607 62.7788 93.7407 62.3988 93.7807 61.9888C93.8407 61.3988 93.8707 60.8288 94.0307 60.2388C94.2007 59.6988 94.2907 59.1288 94.3507 58.5588C94.4507 57.5288 94.8007 56.4988 94.6307 55.4388C94.5907 55.0888 94.5107 54.4388 94.8707 54.0388C94.9307 53.9688 94.9307 53.7388 94.9307 53.5888C94.8607 52.4488 95.2907 51.0788 95.9007 50.7788C96.2607 50.6088 96.6907 50.6288 97.0407 50.7688C97.2207 50.8388 97.3107 51.3588 97.4207 51.6888C97.6207 52.2688 97.9007 52.8288 97.9607 53.4688C98.0107 54.2288 97.9607 55.0488 97.8007 56.0188V56.0088Z" fill="#9A0036"/>
</svg>
