<svg width="100" height="100" viewBox="0 0 100 100" fill="none" xmlns="http://www.w3.org/2000/svg">
<rect x="4" y="4" width="92" height="92" rx="46" fill="white"/>
<path d="M34.6914 39.8467L37.3969 24.1861C37.6158 22.9228 38.7098 22 39.9921 22H60.6719C61.9542 22 63.0482 22.9228 63.267 24.1861L65.9726 39.8467" stroke="#E0B6B7" stroke-width="3" stroke-linecap="round" stroke-linejoin="round"/>
<path d="M41.1523 32.7498L42.1588 26.9277" stroke="#E0B6B7" stroke-width="2.2" stroke-linecap="round" stroke-linejoin="round"/>
<path d="M24.5742 65.0455L26.6105 53.8928" stroke="#E0B6B7" stroke-width="2.2" stroke-linecap="round" stroke-linejoin="round"/>
<path d="M67.186 49.071H76.0428C77.308 49.071 78.3925 49.9691 78.6303 51.2115L81.6194 66.8721C81.9295 68.495 80.6852 70 79.0318 70H55.3383C53.6849 70 52.4406 68.495 52.7507 66.8721L53.6003 62.4218" stroke="#E0B6B7" stroke-width="3" stroke-linecap="round" stroke-linejoin="round"/>
<path d="M33.481 49.071H24.6242C23.359 49.071 22.2745 49.9691 22.0366 51.2115L19.0476 66.8721C18.7375 68.495 19.9818 70 21.6352 70H45.3268C46.9802 70 48.2245 68.495 47.9144 66.8721L47.0648 62.4218" stroke="#E0B6B7" stroke-width="3" stroke-linecap="round" stroke-linejoin="round"/>
<path d="M50.8176 57.2596C57.0422 57.2596 62.0883 52.2136 62.0883 45.989C62.0883 39.7643 57.0422 34.7183 50.8176 34.7183C44.5929 34.7183 39.5469 39.7643 39.5469 45.989C39.5469 52.2136 44.5929 57.2596 50.8176 57.2596Z" fill="white" stroke="#E0B6B7" stroke-width="3" stroke-linecap="round" stroke-linejoin="round"/>
<path d="M48 49.0112C48.7551 50.5214 50.2653 50.5214 50.2653 50.5214H51.7754C53.0217 50.5214 54.0407 49.5024 54.0407 48.2561C54.0407 47.0099 53.0217 45.9909 51.7754 45.9909H50.2653C49.019 45.9909 48 44.9718 48 43.7256C48 42.4793 49.019 41.4603 50.2653 41.4603H51.7754C51.7754 41.4603 53.2856 41.4603 54.0407 42.9705" stroke="#E0B6B7" stroke-width="2.2" stroke-linecap="round" stroke-linejoin="round"/>
<path d="M50.8164 39.007V41.4564" stroke="#E0B6B7" stroke-width="2.2" stroke-linecap="round" stroke-linejoin="round"/>
<path d="M50.8164 50.5211V52.9705" stroke="#E0B6B7" stroke-width="2.2" stroke-linecap="round" stroke-linejoin="round"/>
<path d="M58.3281 65.034L59.3346 59.2119" stroke="#E0B6B7" stroke-width="2.2" stroke-linecap="round" stroke-linejoin="round"/>
<path d="M97.8007 55.5088C97.7807 56.2888 97.5707 57.0688 97.3507 57.8688C97.1107 58.6688 96.9507 59.4988 96.7407 60.3388C96.5707 61.1988 96.3607 62.0488 96.1307 62.8988L95.7807 64.1788L95.3107 65.4088C94.9907 66.2388 94.7907 67.0588 94.6307 67.9188C94.5207 68.7788 93.7307 69.4788 93.7907 70.3888C93.7907 70.4688 93.6907 70.6088 93.6407 70.7188C93.4107 71.2088 93.1907 71.6988 92.9607 72.1888L92.6307 72.9288L92.2307 73.6288C91.6907 74.5588 91.1207 75.4688 90.4807 76.2988C89.7407 77.2588 88.9407 78.1588 88.2507 79.1288C87.8907 79.5988 87.5507 80.0988 87.1607 80.5488C86.7607 80.9888 86.3507 81.4288 85.9307 81.8488C85.3607 82.6388 84.7907 83.4488 84.1007 84.1588C83.4007 84.8488 82.6807 85.5088 81.9407 86.1688C81.5707 86.4888 81.2107 86.8388 80.8207 87.1288L79.6207 87.9888C78.8207 88.5688 78.0307 89.1488 77.2507 89.7488C76.2207 90.4088 75.2107 91.1388 73.9807 91.5188C73.7207 91.5988 73.4707 91.7288 73.2207 91.8788C72.9607 92.0088 72.7007 92.1488 72.4407 92.2988C71.9107 92.5788 71.3607 92.8488 70.7607 92.8788C70.6607 92.8788 70.5107 93.0688 70.3707 93.1588C70.0407 93.3788 69.7107 93.6688 69.3507 93.7888C67.1707 94.3788 67.1707 94.3288 65.4907 95.1988C65.2907 95.2988 64.9707 95.2088 64.7407 95.2888C63.7407 95.5388 62.7307 95.7588 61.7507 96.0588C60.8607 96.3388 59.8707 96.3288 59.0707 96.8488C58.9007 96.9688 58.4907 96.9488 58.1907 96.9988C57.2307 97.1388 56.2607 97.2888 55.3007 97.4288C54.1907 97.5288 53.0507 97.3888 51.9807 97.8088C51.5007 97.9888 50.8107 97.6088 50.5307 97.6988C50.0107 97.8388 49.5107 97.8588 49.0007 97.7988C48.4907 97.7388 48.0107 97.5488 47.5107 97.5188C47.0807 97.4888 46.6307 97.6688 46.1807 97.6588C45.0807 97.6188 43.9507 97.1988 42.9207 97.2588C41.8107 97.3088 40.7907 97.1188 39.7607 96.8388C38.6807 96.5888 37.6207 96.2588 36.5407 96.0288C35.7107 95.8088 35.0507 95.3488 34.3307 94.9888C33.6207 94.6188 32.6607 94.5888 32.1507 93.9388C32.1307 93.9088 32.0407 93.8888 31.9907 93.8588C30.5407 93.0488 29.0707 92.2888 27.6407 91.4688C26.4407 90.7088 25.2007 89.9888 24.0107 89.2188L20.5907 86.6588C19.9907 86.1288 19.2707 85.6588 18.9507 84.8888C18.8807 84.7288 18.5607 84.5788 18.4407 84.3988C18.0107 83.7188 17.0407 83.8188 16.7707 83.0188C16.5207 82.3288 15.9307 81.9088 15.4807 81.3788C15.0007 80.7688 14.3807 80.2588 13.9507 79.5888C13.6407 79.1488 13.3007 78.7888 12.8707 78.5488C12.8407 77.8288 12.1107 77.3088 11.8507 76.6388C11.6707 76.2088 11.4407 75.5188 11.1407 75.3088C10.4907 74.8388 10.2307 74.1188 9.81072 73.5088C9.15072 72.6088 8.84072 71.5288 8.09072 70.6788C7.78072 70.3188 7.57072 69.7188 7.38072 69.2188C7.29072 68.9888 7.23072 68.7388 7.16072 68.4988C7.12072 68.2488 7.07072 67.9988 7.00072 67.7688C6.71072 66.8888 6.38072 66.0388 5.86072 65.2488C5.64072 64.8988 5.51072 64.4688 5.40072 64.0388C5.30072 63.5988 5.18072 63.1788 4.87072 62.8488C4.79072 62.7588 4.74072 62.4988 4.73072 62.3288C4.68072 61.4288 4.59072 60.6488 4.11072 59.7588C3.78072 59.0188 3.79072 57.9788 3.65072 57.0788C3.53072 56.1188 3.21072 55.1388 3.32072 54.1888C3.36072 53.5788 2.77072 53.3188 3.10072 52.5788C3.27072 52.1788 3.14072 51.4288 3.12072 50.8388C3.08072 50.2288 3.04072 49.5888 3.16072 49.0188C3.31072 48.2588 3.41072 47.5088 3.49072 46.7488C3.56072 45.9888 3.58072 45.2288 3.71072 44.4788L4.02072 42.2088C4.14072 41.4588 4.20072 40.6888 4.46072 39.9688C4.84072 38.7488 4.84072 37.3388 5.63072 36.2988C5.55072 35.3288 6.26072 34.3888 6.31072 33.4888C6.35072 32.9088 6.53072 32.4588 6.70072 31.9888C7.35072 30.4488 8.13072 28.9588 8.85072 27.4488C9.74072 26.0288 10.5507 24.5588 11.4807 23.1688C12.1307 22.2788 12.7607 21.3688 13.3807 20.4588C13.6807 19.9888 14.0207 19.5588 14.3907 19.1488L15.4707 17.8888C15.8807 17.4188 16.2607 16.9388 16.8807 16.5988C17.3507 16.3688 18.0307 15.7888 18.3207 15.1288C18.3807 14.9988 18.5407 14.7888 18.6407 14.7488C19.2907 14.5288 19.7407 14.1088 20.1607 13.6288C20.5807 13.1588 21.0007 12.6988 21.4807 12.3088C22.4507 11.5888 23.4107 10.8588 24.4707 10.3088C25.5307 9.74878 26.5807 9.19878 27.6007 8.56878C28.0207 8.27878 28.6607 8.20878 28.8407 7.68878C29.3407 7.78878 29.5307 7.52878 29.9107 7.18878C30.3007 6.83878 31.0407 6.46878 31.5107 6.43878C32.1407 6.37878 32.6307 6.13878 33.1807 5.95878C33.7607 5.77878 34.3207 5.52878 34.9007 5.33878C35.5107 5.14878 36.1107 4.90878 36.7307 4.74878L38.6107 4.31878C39.8607 4.04878 41.1007 3.70878 42.3807 3.61878C42.8807 3.55878 43.3807 3.61878 43.8807 3.61878C44.3807 3.60878 44.9007 3.34878 45.4007 3.59878C45.5907 3.67878 46.0807 3.53878 46.4407 3.53878C47.7007 3.47878 49.0607 3.59878 50.1907 3.29878C51.3107 3.02878 52.5007 3.44878 53.5707 3.03878C53.8707 2.92878 54.4007 3.08878 54.8207 3.07878C55.6807 3.02878 56.5207 3.31878 57.3707 3.43878C58.2207 3.58878 59.0607 3.68878 59.9407 3.56878C60.4907 3.97878 61.1907 4.12878 61.8707 4.26878C62.3707 4.37878 62.8907 4.69878 63.3907 4.45878C63.4507 4.42878 63.6207 4.47878 63.7207 4.51878C64.3007 4.74878 64.7707 5.09878 65.4207 5.28878C65.9707 5.43878 66.4807 5.38878 67.0807 5.60878C69.2607 6.31878 71.0407 7.77878 73.1607 8.58878C73.5607 9.15878 74.1807 9.47878 74.7807 9.84878C75.8107 10.5188 77.0407 10.7588 77.9907 11.6388C78.9007 12.4288 79.8907 13.2388 80.8907 13.8188C81.7207 14.3588 82.4707 14.9988 83.2007 15.6588C83.5607 15.9888 83.9307 16.3188 84.2707 16.6688C84.6007 17.0388 84.9307 17.3988 85.2707 17.7488C85.6207 18.1088 86.1007 18.4488 86.1507 19.0088C86.1607 19.1388 86.5607 19.5288 86.7407 19.5688C87.1207 19.6688 87.2707 20.0288 87.5107 20.2388C88.2207 20.8188 88.0507 22.0288 89.0807 22.3488L89.9507 23.5188C90.2207 23.9288 90.4607 24.3488 90.7207 24.7588C91.2307 25.5888 91.7407 26.4188 92.2307 27.2588C92.4707 27.6488 92.6907 28.0288 92.7107 28.5488C92.7107 28.8988 93.0107 29.5788 93.2707 29.7988C93.8807 30.3288 94.1007 31.0688 94.4207 31.7488C95.1907 33.8588 96.1007 35.9488 96.5407 38.1688C96.7507 39.1288 96.9307 40.0988 97.0107 41.0888C97.0907 42.0788 97.4707 43.0688 97.3207 44.0688C97.3107 44.1388 97.3407 44.2388 97.3607 44.3188C97.4607 44.6988 97.6407 45.0788 97.6607 45.4688C97.6607 45.9688 97.4107 46.6588 97.5507 46.9288C97.8207 47.4788 97.5707 47.8688 97.5707 48.2888C97.5507 49.5288 96.9607 50.2888 96.1907 50.1388C96.0207 50.1088 95.8307 49.9688 95.6907 49.7988C94.8107 48.7488 94.8507 48.7588 94.7207 47.0788C94.6707 46.5488 94.6907 46.0188 94.6707 45.4888L94.5607 43.9088C94.4707 42.8588 94.4507 41.7788 94.1207 40.7588C94.1707 39.3188 93.5807 37.9188 93.2407 36.5288C92.8007 35.1088 92.6607 33.5088 91.8407 32.2488C90.9607 31.0388 90.4507 29.6988 89.7407 28.4288C89.1707 27.4888 88.7507 26.4588 88.2007 25.4888C87.6307 24.4888 86.7707 23.6588 86.2107 22.6688C85.8407 22.0688 85.6407 21.2788 85.0407 20.9088C84.4207 20.4888 83.9107 19.9488 83.4307 19.4088C82.9407 18.8688 82.5007 18.2788 81.8907 17.8888C81.0707 17.3188 80.3307 16.6688 79.5907 16.0188C79.2407 15.6788 78.8407 15.3888 78.4407 15.1088C78.0407 14.8288 77.6407 14.5488 77.2307 14.2888C76.3407 13.7388 75.4807 13.1688 74.5607 12.6588C74.1507 12.4088 73.7607 12.1788 73.4107 11.7688C73.0407 11.3588 72.4007 10.9288 71.7107 10.8388C71.4207 10.8088 70.9807 10.6788 70.8107 10.5088C70.1107 9.77878 69.1207 9.45878 68.2307 9.03878C67.6607 8.78878 67.1107 8.26878 66.7107 8.25878C66.0307 8.25878 65.5307 7.96878 64.9607 7.78878C64.5607 7.66878 64.0907 7.57878 63.8107 7.19878C63.7407 7.09878 63.3407 6.96878 63.2007 7.00878C62.4007 7.20878 61.6707 6.82878 60.9307 6.64878L59.5907 6.32878L58.2307 6.12878L55.5107 5.68878C54.0007 5.52878 52.5207 5.92878 51.0107 5.66878C50.0907 6.03878 49.0707 5.96878 48.0907 5.99878C47.3407 6.04878 46.5807 5.90878 45.8307 5.91878C45.0807 5.95878 44.3607 6.13878 43.5507 6.08878C43.0507 6.05878 42.5107 6.12878 41.9707 6.22878C41.4207 6.30878 40.9007 6.53878 40.3607 6.63878C39.7807 6.76878 39.2007 7.13878 38.5807 6.90878C38.5007 6.87878 38.2307 6.94878 38.1507 7.02878C37.4907 7.56878 36.5607 7.82878 35.8607 7.91878C34.7207 8.08878 33.7007 8.50878 32.6907 8.93878C31.8507 9.30878 31.0407 9.75878 30.1907 10.1288C29.8907 10.2588 29.6007 10.4188 29.3007 10.5588C29.0107 10.7088 28.7207 10.8788 28.3807 10.9788C27.8607 11.1488 27.3707 11.6988 26.8407 12.0488C26.3207 12.4088 25.7407 12.6788 25.2407 13.0688L23.5807 14.3088C23.0307 14.7288 22.4607 15.1188 21.9307 15.5688C21.3807 16.0788 20.8407 16.5988 20.2607 17.0788C19.7207 17.5288 19.0707 17.8688 18.5607 18.3588C17.2107 19.8288 16.1207 21.4488 14.8807 22.9988C14.7907 23.5988 14.3107 23.8888 13.9307 24.3088C13.7507 24.4988 13.5507 24.6988 13.3807 24.9288C13.2207 25.1588 13.1207 25.4288 13.1107 25.7288C13.1107 25.8988 12.9507 26.1188 12.8507 26.3088C12.6407 26.7388 12.1907 26.9488 12.0707 27.5388C11.9907 27.9588 11.5407 28.3988 11.3107 28.8588C11.1107 29.3588 10.6607 29.8188 10.7907 30.3888C9.89072 31.0088 10.2407 32.1688 9.63072 32.9088C9.46072 33.1588 9.32072 33.4488 9.16072 33.7188C9.08072 33.8588 8.96072 33.9988 8.94072 34.1288C8.84072 34.7588 8.69072 35.3688 8.50072 35.9788C8.41072 36.2788 8.31072 36.5788 8.20072 36.8788L7.96072 37.7988C7.64072 39.0188 7.22072 40.2188 7.03072 41.4688C7.00072 41.7788 7.06072 42.0888 7.06072 42.4088C7.06072 42.5588 7.05072 42.7288 7.01072 42.8688C6.61072 44.1988 6.61072 44.1988 6.62072 45.4888C6.62072 45.8088 6.59072 46.1588 6.59072 46.4988C6.60072 47.3688 6.47072 48.2088 6.65072 49.1088C6.79072 49.9988 6.46072 50.9688 6.33072 51.9088C6.22072 52.7488 6.08072 53.5788 6.14072 54.4888C6.29072 55.6288 6.50072 56.7488 6.66072 57.8888C6.78072 59.0288 7.10072 60.1388 7.38072 61.2488C7.45072 61.5288 7.47072 61.9288 7.60072 62.0588C8.17072 62.5888 8.50072 63.0688 8.10072 63.8588C8.08072 63.8988 8.16072 64.1188 8.22072 64.1588C8.82072 64.5488 8.87072 65.2988 9.08072 65.8988C9.28072 66.4688 9.49072 67.0388 9.75072 67.5788L10.6507 69.1388C11.2607 70.1688 11.7907 71.2388 12.3807 72.2888C12.5607 72.6388 12.9207 73.0288 12.9207 73.2988C12.9207 73.8688 13.4407 73.8188 13.5707 74.2288C13.6807 74.5788 14.0807 74.9288 14.1807 75.2288C14.4707 76.3288 15.3007 77.2188 16.0107 77.9388C16.6607 78.6288 17.4907 79.1888 17.9307 79.9288C18.4007 80.6288 18.8907 81.3188 19.5007 81.8888L21.3507 83.5688L22.2907 84.4488C22.6207 84.7188 22.9707 84.9688 23.3107 85.2288L25.3807 86.7488C25.9307 87.1788 26.5207 87.6588 27.2607 87.6988C27.4107 87.6988 27.6607 87.8988 27.8307 88.0388C28.2407 88.3688 28.6207 88.7588 29.0607 89.0388C29.5007 89.3288 30.0607 89.3788 30.5507 89.5688C30.9507 89.7088 31.2907 89.9288 31.7707 89.9288C32.1207 89.9288 32.5607 90.2788 32.9307 90.6888C33.6607 91.4888 34.5407 92.1588 35.7707 92.5588C36.3207 92.7188 36.8507 92.9388 37.4007 93.1188C37.9607 93.2688 38.5107 93.4188 39.0707 93.5588C39.5407 93.6688 39.9807 93.8188 40.5207 93.7588C41.0107 93.7088 41.7307 93.9888 42.2707 94.1688C43.1107 94.4988 43.9207 94.6488 44.8107 94.5488C45.1207 94.5188 45.4707 94.5688 45.7907 94.6188C46.7907 94.7188 47.7907 94.7288 48.8007 94.7888C49.8007 94.8488 50.8107 94.9188 51.8107 94.8288C52.2907 94.8088 52.8007 94.7088 53.2107 94.9688C53.5107 94.6188 54.0207 94.7088 54.4407 94.7088C55.0907 94.7388 55.7307 94.7788 56.3807 94.7088C57.1507 94.6288 57.8907 94.4788 58.6107 94.1688C58.9407 94.0188 59.3307 93.9988 59.7207 93.9488C60.1107 93.8688 60.5007 93.7788 60.8407 93.5488C60.9707 93.4588 61.3007 93.5788 61.5007 93.5088C62.3207 93.2188 63.3307 93.2988 63.9707 92.6388C64.0207 92.5788 64.2007 92.5188 64.2807 92.5288C65.3607 92.6188 66.1907 91.9488 67.0707 91.4988C68.0507 91.0488 69.0507 90.8988 70.0107 90.4488C70.5407 90.1688 71.0907 89.8888 71.6307 89.6088C72.1707 89.3388 72.6707 88.9988 73.2107 88.7888C74.1307 88.4088 75.0007 87.9388 75.8407 87.4188C76.6307 86.8288 77.4007 86.2188 78.2007 85.6388C78.6007 85.3388 79.0307 85.0688 79.4107 84.7288L80.5307 83.7188C81.2607 83.0288 82.0507 82.3888 82.7207 81.6288C83.3007 80.9688 83.7607 80.2188 84.3207 79.5488C84.6207 79.1688 84.9807 78.8288 85.2707 78.4388L86.1507 77.2688L87.7907 75.0588C88.0207 74.6988 88.1507 74.2188 88.5907 74.0488C88.6807 74.0188 88.8307 73.7988 88.8507 73.6788C88.9907 72.8388 89.4007 72.2088 90.0607 71.6588C90.2407 71.4988 90.3107 71.1588 90.4707 70.9288C90.9007 70.2988 90.9407 69.5888 91.1707 68.9288C91.3607 68.3188 92.0007 67.7888 91.7707 67.0788C91.7407 66.9888 91.8507 66.6888 91.9307 66.6188C92.4907 66.1488 92.6107 65.4588 92.7307 64.7688C92.8307 64.0788 92.9907 63.4188 93.4307 62.8888C93.1607 62.2788 93.7407 61.8988 93.7807 61.4888C93.8407 60.8988 93.8707 60.3288 94.0307 59.7388C94.2007 59.1988 94.2907 58.6288 94.3507 58.0588C94.4507 57.0288 94.8007 55.9988 94.6307 54.9388C94.5907 54.5888 94.5107 53.9388 94.8707 53.5388C94.9307 53.4688 94.9307 53.2388 94.9307 53.0888C94.8607 51.9488 95.2907 50.5788 95.9007 50.2788C96.2607 50.1088 96.6907 50.1288 97.0407 50.2688C97.2207 50.3388 97.3107 50.8588 97.4207 51.1888C97.6207 51.7688 97.9007 52.3288 97.9607 52.9688C98.0107 53.7288 97.9607 54.5488 97.8007 55.5188V55.5088Z" fill="#F6E8E8"/>
</svg>
