<svg width="252" height="56" viewBox="0 0 252 56" fill="none" xmlns="http://www.w3.org/2000/svg">
<path d="M0 14C0 9.58172 3.58172 6 8 6H132C136.418 6 140 9.58172 140 14V42C140 46.4183 136.418 50 132 50H8C3.58172 50 0 46.4183 0 42V14Z" fill="white"/>
<path d="M125.318 51.3313C123.518 51.5213 121.598 50.9913 119.568 51.0813C117.538 51.1713 115.468 51.1213 113.418 51.0913C112.378 51.0813 111.408 51.1613 110.408 51.3213C109.438 51.4713 108.328 51.1313 107.398 51.5613C107.318 51.6013 107.128 51.5613 106.978 51.5613C104.508 51.5613 101.978 51.7413 99.5679 51.5113C96.7679 51.2513 94.0079 51.4313 91.2479 51.3213C86.7379 51.8213 82.1779 51.4513 77.6379 51.5413C76.2179 51.5613 74.7979 51.6613 73.3379 51.3613C72.0979 51.1013 70.5779 51.5713 69.2879 51.1113C69.1779 51.0713 68.9279 51.1713 68.7379 51.1913C68.2779 51.2413 67.7979 51.3613 67.3579 51.3213C64.7579 51.0713 64.7679 51.0613 62.5879 51.2913C62.3279 51.3213 62.0079 51.1313 61.7179 51.1213C60.5179 51.0913 59.3179 51.0613 58.1279 51.1113C57.0479 51.1513 55.9179 50.8913 54.8879 51.3213C54.6679 51.4113 54.1979 51.3313 53.8479 51.3313C52.7179 51.3313 51.5879 51.3013 50.4579 51.3313C49.1679 51.3713 47.8479 51.1713 46.5879 51.5413C46.0379 51.7013 45.2379 51.2713 44.9079 51.3713C44.2979 51.5413 43.7379 51.5813 43.1379 51.5513C42.5479 51.5213 41.9779 51.3513 41.3979 51.3413C40.8979 51.3413 40.3879 51.5313 39.8779 51.5513C38.6079 51.5813 37.2479 51.4113 36.0879 51.6013C34.8379 51.8113 33.6479 51.7613 32.4279 51.7913C31.1579 51.8213 29.8779 51.7613 28.6179 51.8113C27.6279 51.8513 26.7479 51.6713 25.8179 51.5713C24.8979 51.4713 23.8579 51.7713 23.0179 51.3413C22.9779 51.3213 22.8779 51.3413 22.8079 51.3413C20.8879 51.2613 16.9679 51.1413 15.0479 51.1213L10.0679 51.1013C9.67787 51.1013 9.18787 51.0913 8.70787 51.0613C8.22787 51.0013 7.74787 50.9513 7.28787 50.8113C6.34787 50.5813 5.44787 50.2013 4.63787 49.6713C3.72787 49.1013 2.74787 48.3913 2.40787 47.3713C2.34787 47.1613 1.97787 46.8713 1.88787 46.5913C1.53787 45.6413 0.567868 45.1113 0.617868 44.0113C0.617868 43.5413 0.617868 43.0813 0.557868 42.6313C0.527868 42.1713 0.477868 41.7013 0.497868 41.3213C0.527868 40.4013 0.497868 39.4813 0.507868 38.5613C0.517868 37.9313 0.467868 37.3513 0.267868 36.8313C0.677868 36.1313 0.397868 35.1413 0.597868 34.3213C0.727868 33.7813 0.847868 32.9513 0.707868 32.5513C0.397868 31.6713 0.547868 30.8013 0.507868 29.9313C0.457868 28.6413 0.587868 27.3413 0.287868 26.0613C0.167868 25.5213 0.237868 24.8013 0.277868 24.1713C0.317868 23.5813 0.477868 23.0213 0.487868 22.4313C0.517868 21.3413 0.507868 20.2813 0.287868 19.2013C0.0978678 18.2713 0.477868 17.1213 0.0378678 16.2013C-0.0221322 16.0813 -0.00213218 15.7713 0.0378678 15.5813C0.127868 15.0713 0.197868 14.5913 0.217868 14.0913C0.247868 13.5913 0.217868 12.9413 0.217868 12.2813C0.187868 11.1613 0.817868 9.84128 1.49787 8.79128C2.20787 7.65128 3.13787 6.57128 4.28787 5.95128C5.01787 5.59128 5.13787 4.84128 6.22787 4.81128C6.78787 4.77128 7.77787 4.45128 8.59787 4.36128C9.48787 4.31128 10.1979 4.24128 10.8679 4.33128C14.3979 4.79128 19.9679 4.41128 23.5079 4.56128C25.0079 4.62128 26.5779 4.27128 27.9979 4.78128C29.0579 4.40128 30.3579 4.73128 31.3679 4.47128C32.0079 4.31128 32.5779 4.32128 33.1579 4.32128L44.8179 4.30128C47.3779 4.28128 49.9279 4.14128 52.4879 4.09128C53.2079 4.08128 53.9079 4.03128 54.6879 4.26128C55.2579 4.43128 56.3079 4.45128 57.0679 4.15128C57.2179 4.09128 57.5179 4.04128 57.6379 4.08128C59.0879 4.63128 60.5379 4.06128 61.9579 4.04128C64.7579 4.00128 67.4879 4.34128 70.2679 4.30128C70.8579 4.30128 71.5579 4.46128 72.0079 4.09128C72.4679 4.40128 72.8079 4.25128 73.3679 4.11128C73.9479 3.97128 74.8979 3.95128 75.4079 4.12128C76.0979 4.36128 76.7379 4.27128 77.3979 4.30128C78.0979 4.33128 78.8079 4.30128 79.5179 4.30128L88.4579 4.54128C89.0379 4.56128 89.6079 4.70128 90.1879 4.76128C90.7779 4.82128 91.4079 4.65128 91.9679 4.96128C92.1779 5.08128 92.7779 4.99128 93.1979 4.99128C94.6779 4.99128 96.2879 5.19128 97.6179 4.94128C98.9379 4.69128 100.348 5.00128 101.568 4.55128C101.908 4.42128 102.538 4.55128 103.028 4.53128C105.018 4.42128 107.068 4.80128 109.008 4.30128C109.718 4.61128 110.568 4.55128 111.378 4.52128C111.968 4.50128 112.658 4.68128 113.138 4.33128C113.198 4.29128 113.408 4.29128 113.528 4.30128C114.248 4.38128 114.888 4.60128 115.688 4.54128C116.358 4.49128 116.898 4.27128 117.628 4.28128C120.268 4.30128 122.858 4.70128 125.508 4.53128C126.228 4.81128 127.058 4.76128 127.878 4.76128C128.598 4.76128 129.298 4.68128 130.008 4.61128C130.738 4.55128 131.348 4.44128 132.258 4.55128C133.888 4.74128 135.478 5.44128 136.838 6.16128C138.028 6.79128 139.008 7.80128 139.698 8.96128C140.388 10.1313 140.798 11.4413 140.978 12.7813C141.018 13.1213 141.068 13.5013 141.068 13.8513C141.068 14.1513 141.008 14.4513 140.838 14.7213C140.758 14.8513 140.798 15.4813 140.898 15.6613C141.108 16.0313 140.978 16.4713 141.058 16.8313C141.278 17.8613 140.418 18.8613 141.058 19.8813V26.6713C141.048 27.2013 141.118 27.7113 140.888 28.2613C140.738 28.6313 140.708 29.4913 140.848 29.8613C141.178 30.7213 141.038 31.6113 141.048 32.4713C141.068 35.0813 141.078 37.7013 141.048 40.3213C141.038 40.9113 141.018 41.4313 140.948 42.0713C140.888 42.7413 140.748 43.4013 140.548 44.0313C140.168 45.3013 139.718 46.7113 138.658 47.5513C138.588 47.6113 138.508 47.7213 138.438 47.8113C138.138 48.2413 137.818 48.6813 137.408 49.0113C136.858 49.4213 135.968 49.6513 135.688 49.9113C135.118 50.4713 134.528 50.4013 133.988 50.5213C133.588 50.6113 133.218 50.6413 132.888 50.6013C132.568 50.5713 132.288 50.4913 132.078 50.3613C131.648 50.1213 131.478 49.7813 131.558 49.3913C131.598 49.2213 131.748 49.0313 131.918 48.8913C132.468 48.4513 132.678 48.2013 132.988 48.0313C133.288 47.8413 133.698 47.7713 134.418 47.3713C135.318 46.8713 136.158 46.2513 136.838 45.4413C137.498 44.6313 137.958 43.6013 137.998 42.5113C138.268 41.8913 138.278 40.8913 138.278 40.0213C138.278 39.1213 138.228 38.2213 138.278 37.3313C138.368 35.4813 138.728 33.6013 138.478 31.7913C138.228 29.9913 138.288 28.2213 138.288 26.4413C138.288 25.0813 138.458 23.7313 138.498 22.3713C138.538 20.9613 138.428 19.5213 138.538 18.1413C138.608 17.2813 138.878 16.3813 138.718 15.5713C138.538 14.6913 138.548 13.7413 138.488 13.0013C138.418 12.2213 138.198 11.4513 137.788 10.8113C136.688 9.05128 134.998 7.58128 132.978 7.30128C132.708 7.27128 132.438 7.26128 132.178 7.24128C131.888 7.26128 131.678 7.24128 131.348 7.27128C130.708 7.31128 130.058 7.33128 129.418 7.32128C128.828 7.32128 128.268 7.32128 127.628 7.16128C126.978 6.99128 126.038 6.99128 125.228 7.22128C124.898 7.32128 124.338 7.39128 124.058 7.31128C122.868 6.95128 121.618 7.10128 120.398 7.11128C119.628 7.11128 118.758 6.79128 118.298 6.92128C117.518 7.15128 116.808 7.05128 116.078 7.08128C115.558 7.10128 114.968 7.21128 114.508 6.91128C114.388 6.83128 113.878 6.81128 113.728 6.87128C112.858 7.27128 111.858 7.07128 110.918 7.08128C108.658 7.11128 106.398 7.11128 104.128 7.08128C102.258 7.06128 100.458 7.49128 98.5779 7.32128C97.4279 7.72128 96.1579 7.54128 94.9379 7.54128C94.0079 7.54128 93.0779 7.40128 92.1479 7.32128C91.2179 7.24128 90.3079 7.32128 89.3279 7.14128C88.1179 6.92128 86.6679 7.12128 85.3279 7.08128C84.5979 7.06128 83.7879 7.28128 83.1279 6.90128C83.0379 6.85128 82.6979 6.86128 82.5779 6.90128C81.6179 7.30128 80.4079 7.19128 79.5579 7.03128C78.1679 6.78128 76.8179 6.89128 75.4679 6.85128C74.3379 6.82128 73.2079 6.87128 72.0779 6.83128C71.2679 6.81128 70.4779 6.89128 69.6279 6.72128C68.9779 6.59128 68.1179 6.81128 67.3379 6.83128C66.5679 6.86128 65.7879 6.83128 65.0079 6.83128H59.9179C58.9979 6.83128 58.0779 6.86128 57.1579 6.83128C56.2879 6.79128 55.4379 6.63128 54.5779 6.62128C52.1579 6.57128 49.7679 7.00128 47.3279 6.84128C46.6679 7.13128 46.0279 6.92128 45.3379 6.86128C44.7079 6.81128 43.9579 6.69128 43.3279 6.98128C43.1479 7.06128 42.8179 7.04128 42.5479 7.06128C41.9579 7.10128 41.4479 6.83128 40.7479 7.03128C40.2579 7.18128 39.4979 7.03128 38.8679 7.07128C38.2079 7.10128 37.4579 6.90128 36.8979 7.26128C35.7279 6.72128 34.6179 7.55128 33.4579 7.30128C33.0879 7.22128 32.6879 7.19128 32.3079 7.14128C32.1179 7.11128 31.8979 7.04128 31.7279 7.07128C28.6379 7.56128 25.4779 7.16128 22.3579 7.30128C21.9779 7.32128 21.6079 7.42128 21.2179 7.47128C21.0379 7.49128 20.8279 7.51128 20.6479 7.48128C18.9379 7.28128 16.9479 7.29128 15.3479 7.48128C14.9479 7.53128 14.5079 7.48128 14.0979 7.51128C13.0179 7.57128 11.9679 7.47128 10.8479 7.70128C10.5679 7.76128 10.2879 7.77128 9.99787 7.76128C9.85787 7.76128 9.70787 7.74128 9.55787 7.73128C9.43787 7.73128 9.33787 7.71128 9.21787 7.69128C8.76787 7.61128 8.27787 7.55128 7.80787 7.59128C6.97787 7.66128 6.10787 7.89128 5.36787 8.49128C4.45787 9.25128 3.71787 10.2313 3.29787 11.3413C3.06787 11.8913 2.95787 12.4813 2.86787 13.0613C2.85787 13.3713 2.82787 13.6213 2.82787 13.9913V15.0513C2.82787 15.4013 2.74787 15.8913 2.83787 16.0913C3.23787 16.9013 3.50787 17.6213 2.83787 18.3913C2.80787 18.4313 2.80787 18.7213 2.83787 18.7913C3.25787 19.4813 3.05787 20.3913 3.03787 21.1713C2.98787 24.1713 3.45787 27.1113 3.28787 30.1113C3.25787 30.5913 3.36787 31.2513 3.22787 31.5313C2.93787 32.1313 3.40787 32.4213 3.29787 32.9513C3.20787 33.3913 3.37787 34.0413 3.25787 34.4013C2.82787 35.7313 2.95787 37.2113 3.09787 38.4613C3.23787 39.6213 3.37787 40.8713 3.24787 41.8713C2.97787 43.5513 3.80787 45.2113 4.98787 46.3813C6.20787 47.6213 7.89787 48.3013 9.67787 48.2513C10.5479 48.2413 11.4779 48.4213 12.2779 48.0413C12.4379 47.9613 12.8379 48.0113 13.1079 48.0413C13.7579 48.1013 14.4079 48.2513 15.0579 48.2513C15.7079 48.2513 16.3479 48.1013 17.0079 48.0413C17.5379 47.9913 20.0279 48.0413 20.5679 47.8413C20.9679 47.6913 21.6579 47.8113 22.2779 48.0113C23.5179 48.4113 24.8079 48.8113 26.3979 48.7413C27.7979 48.6813 29.2279 48.7413 30.6379 48.7213C31.2279 48.7213 31.7879 48.7413 32.4279 48.5513C32.9979 48.3813 33.9579 48.4513 34.6479 48.5813C35.7379 48.7813 36.7479 48.8013 37.8079 48.5813C38.1779 48.5013 38.6179 48.5013 39.0179 48.5013H46.4379C47.0379 48.5013 47.6679 48.4313 48.1579 48.7113C48.5479 48.3813 49.1779 48.4913 49.6979 48.5113C50.4979 48.5513 51.2779 48.6913 52.0679 48.7213C53.0079 48.7513 53.9379 48.7213 54.8779 48.5213C55.7479 48.3313 56.7979 48.6413 57.7279 48.3613C57.9079 48.3113 58.2679 48.5013 58.5279 48.4813C59.5979 48.4113 60.7679 48.7213 61.7579 48.2613C61.8379 48.2213 62.0679 48.2213 62.1679 48.2613C63.3979 48.7213 64.6279 48.3713 65.8479 48.2613C67.1779 48.1313 68.3979 48.5113 69.6979 48.5013C71.1779 48.4913 72.7279 48.3513 74.1379 48.5313C76.5679 48.8413 78.9779 48.6913 81.3979 48.7213C83.8679 48.7613 86.3479 48.7513 88.8179 48.7213C89.8979 48.7113 90.9579 48.5413 92.0379 48.5113C93.2379 48.4713 94.4379 48.5113 95.6379 48.5113H99.0279C99.5579 48.5213 100.148 48.3913 100.608 48.6813C100.698 48.7413 101.028 48.7613 101.158 48.7113C102.128 48.4013 103.058 48.4213 104.048 48.7013C104.328 48.7813 104.738 48.7013 105.068 48.7513C105.998 48.8613 106.788 48.5913 107.648 48.5113C108.438 48.4313 109.338 48.7213 110.038 48.2913C110.138 48.2313 110.518 48.2313 110.648 48.2913C112.228 49.0113 114.038 47.8113 115.618 48.4813C116.248 48.0713 116.898 48.5413 117.398 48.4813C118.118 48.3913 118.818 48.2813 119.568 48.2913C120.278 48.2913 120.988 48.3113 121.688 48.2913C122.978 48.2413 124.278 48.4313 125.568 48.0913C125.998 47.9813 126.808 47.9013 127.328 48.2313C127.418 48.2913 127.708 48.2813 127.888 48.2613C129.298 48.1313 131.018 48.4913 131.378 49.0913C131.588 49.4413 131.558 49.8713 131.398 50.2313C131.318 50.4113 130.698 50.5213 130.308 50.6513C129.628 50.8813 128.988 51.1913 128.248 51.2813C127.378 51.3913 126.418 51.3113 125.278 51.3113L125.318 51.3313Z" fill="#9C7625"/>
<path d="M124 11.9912C124 7.57293 127.582 3.99121 132 3.99121H242C246.418 3.99121 250 7.57293 250 11.9912V43.9912C250 48.4095 246.418 51.9912 242 51.9912H132C127.582 51.9912 124 48.4095 124 43.9912V11.9912Z" fill="#B09151"/>
<path d="M235.52 53.3413C233.78 53.5313 231.93 53.0013 229.97 53.0913C228 53.1813 226.01 53.1313 224.04 53.1013C223.04 53.0913 222.1 53.1713 221.13 53.3313C220.2 53.4813 219.12 53.1413 218.23 53.5713C218.15 53.6113 217.96 53.5713 217.83 53.5713C215.44 53.5713 213 53.7513 210.68 53.5213C207.98 53.2613 205.32 53.4413 202.65 53.3313C198.29 53.8313 193.89 53.4613 189.51 53.5513C188.14 53.5713 186.76 53.6713 185.36 53.3713C184.16 53.1113 182.7 53.5813 181.45 53.1213C181.35 53.0813 181.1 53.1813 180.91 53.2013C180.47 53.2513 180 53.3713 179.58 53.3313C177.07 53.0813 177.08 53.0713 174.98 53.3013C174.73 53.3313 174.42 53.1413 174.14 53.1313C172.98 53.1013 171.82 53.0713 170.67 53.1213C169.63 53.1613 168.53 52.9013 167.54 53.3313C167.33 53.4213 166.88 53.3413 166.54 53.3413C165.45 53.3413 164.35 53.3113 163.27 53.3413C162.03 53.3813 160.76 53.1813 159.53 53.5513C159 53.7113 158.23 53.2813 157.91 53.3813C157.32 53.5513 156.78 53.5913 156.2 53.5613C155.63 53.5313 155.08 53.3613 154.53 53.3513C154.04 53.3513 153.56 53.5413 153.06 53.5613C151.83 53.5913 150.52 53.4213 149.4 53.6113C148.19 53.8213 147.04 53.7713 145.86 53.8013C144.63 53.8313 143.4 53.7713 142.18 53.8213C141.23 53.8613 140.38 53.6813 139.48 53.5813C138.59 53.4813 137.59 53.7813 136.78 53.3513C136.74 53.3313 136.65 53.3513 136.58 53.3513L130.93 53.1013C129.07 52.9713 127.26 52.2613 125.81 51.1113C124.35 49.9613 123.25 48.3613 122.7 46.5813C122.56 46.0713 122.4 45.5513 122.35 45.0213C122.29 44.5113 122.33 43.9213 122.51 43.5313C122.58 43.3513 122.48 42.9713 122.53 42.7313C122.73 41.8413 122.05 41.1413 122.36 40.2913C122.64 39.5313 122.48 38.7313 122.51 37.9413C122.54 37.0613 122.51 36.1713 122.52 35.2813C122.53 34.6713 122.48 34.1113 122.28 33.6113C122.69 32.9413 122.41 31.9813 122.61 31.1913C122.74 30.6713 122.86 29.8613 122.72 29.4813C122.41 28.6313 122.56 27.7913 122.52 26.9513C122.47 25.7013 122.6 24.4513 122.3 23.2213C122.18 22.7013 122.25 22.0013 122.29 21.3913C122.33 20.8213 122.49 20.2813 122.5 19.7113C122.53 18.6613 122.52 17.6313 122.3 16.5913C122.11 15.6913 122.49 14.5913 122.05 13.6913C121.99 13.5713 122.01 13.2813 122.05 13.0913C122.14 12.5813 122.2 12.1613 122.24 11.6213C122.27 11.0613 122.3 10.4913 122.31 9.83128C122.32 8.74128 123 7.50128 123.68 6.51128C124.4 5.44128 125.34 4.43128 126.46 3.85128C126.82 3.67128 127.01 3.40128 127.27 3.19128C127.52 2.97128 127.82 2.76128 128.35 2.77128C128.89 2.75128 129.85 2.44128 130.64 2.36128C131.5 2.31128 132.18 2.24128 132.83 2.33128C136.24 2.79128 139.69 2.41128 143.1 2.56128C144.54 2.62128 146.06 2.27128 147.44 2.78128C148.46 2.40128 149.71 2.73128 150.69 2.47128C151.31 2.31128 151.85 2.32128 152.42 2.32128L163.68 2.30128C166.15 2.28128 168.62 2.14128 171.09 2.09128C171.78 2.08128 172.46 2.03128 173.22 2.26128C173.77 2.43128 174.78 2.45128 175.52 2.15128C175.66 2.09128 175.96 2.04128 176.07 2.08128C177.47 2.63128 178.87 2.06128 180.24 2.04128C182.94 2.00128 185.58 2.34128 188.26 2.30128C188.83 2.30128 189.5 2.46128 189.94 2.09128C190.38 2.40128 190.71 2.25128 191.26 2.11128C191.82 1.97128 192.74 1.95128 193.23 2.12128C193.9 2.36128 194.52 2.27128 195.16 2.30128C195.84 2.33128 196.53 2.30128 197.21 2.30128L205.84 2.54128C206.4 2.56128 206.95 2.70128 207.51 2.76128C208.07 2.82128 208.69 2.65128 209.22 2.96128C209.42 3.08128 210 2.99128 210.41 2.99128C211.84 2.99128 213.39 3.19128 214.68 2.94128C215.95 2.69128 217.31 3.00128 218.49 2.55128C218.82 2.42128 219.43 2.55128 219.9 2.53128C221.82 2.42128 223.8 2.80128 225.67 2.30128C226.36 2.61128 227.18 2.55128 227.96 2.52128C228.53 2.50128 229.19 2.68128 229.66 2.33128C229.72 2.29128 229.92 2.29128 230.04 2.30128C230.73 2.38128 231.35 2.60128 232.13 2.54128C232.77 2.49128 233.3 2.27128 234.01 2.28128C236.56 2.30128 239.05 2.69128 241.62 2.53128C242.42 2.83128 243.31 2.87128 244.17 3.14128C245.65 3.60128 247.18 4.11128 248.29 5.38128C249.33 6.57128 250.06 8.07128 250.59 9.47128C250.72 9.77128 250.82 10.0813 250.88 10.4013C250.96 10.7213 251.01 11.0413 251.03 11.3613L251.07 11.8413V12.2513L251.09 13.0813C251.09 14.1813 251.05 15.2813 251.09 16.3813C251.11 16.9413 251.23 17.5813 250.89 18.0913C250.81 18.2113 250.85 18.8313 250.95 19.0013C251.16 19.3613 251.03 19.7813 251.11 20.1313C251.33 21.1213 250.47 22.0913 251.11 23.0713V29.6213C251.1 30.1313 251.17 30.6213 250.94 31.1513C250.79 31.5013 250.76 32.3413 250.9 32.6913C251.23 33.5213 251.09 34.3813 251.1 35.2113C251.12 37.7313 251.13 40.2613 251.1 42.7813C251.1 43.3313 251.07 43.8613 250.98 44.5513C250.89 45.1913 250.71 45.8213 250.5 46.4313C250.08 47.6413 249.6 48.9913 248.53 49.7513C248.45 49.8013 248.38 49.9113 248.31 49.9913C248.02 50.4013 247.69 50.8213 247.29 51.1213C246.75 51.5213 245.88 51.7113 245.61 51.9613C245.34 52.2313 245.05 52.3513 244.77 52.4013C244.49 52.4613 244.23 52.4813 243.96 52.5313C243.58 52.6213 243.22 52.6413 242.9 52.5913C242.59 52.5613 242.32 52.4713 242.12 52.3513C241.71 52.1113 241.54 51.7713 241.62 51.3813C241.65 51.2113 241.8 51.0213 241.97 50.8813C242.5 50.4513 242.7 50.1813 243 50.0313C243.29 49.8513 243.69 49.7813 244.38 49.4013C245.26 48.9413 246.09 48.3613 246.76 47.6013C247.44 46.8513 247.93 45.8713 248 44.8313C248.17 44.5113 248.23 44.1613 248.29 43.8013C248.33 43.3713 248.33 42.9413 248.33 42.5113C248.33 41.6413 248.28 40.7713 248.33 39.9213C248.42 38.1413 248.78 36.3213 248.53 34.5813C248.28 32.8413 248.34 31.1313 248.34 29.4113C248.34 28.1013 248.51 26.8013 248.55 25.4813C248.59 24.1213 248.48 22.7313 248.59 21.3913C248.66 20.5613 248.93 19.6913 248.77 18.9013C248.42 17.1913 248.72 15.4213 248.54 13.7413C248.48 13.1613 248.44 12.5713 248.42 11.9913C248.39 11.4413 248.35 10.9813 248.25 10.4813C248.05 9.51128 247.63 8.59128 246.99 7.86128C246.3 7.08128 245.46 6.48128 244.56 6.02128C244.14 5.81128 243.74 5.65128 243.29 5.37128C242.82 5.04128 242.07 4.97128 241.34 5.21128C241.02 5.31128 240.48 5.38128 240.21 5.30128C239.06 4.94128 237.85 5.09128 236.68 5.10128C235.93 5.10128 235.1 4.78128 234.65 4.91128C233.9 5.14128 233.21 5.04128 232.51 5.07128C232.01 5.09128 231.44 5.20128 231 4.90128C230.88 4.82128 230.39 4.80128 230.25 4.86128C229.41 5.26128 228.44 5.06128 227.54 5.07128C225.36 5.10128 223.17 5.10128 220.99 5.07128C219.19 5.05128 217.45 5.48128 215.63 5.31128C214.52 5.71128 213.29 5.53128 212.11 5.53128C211.21 5.53128 210.31 5.39128 209.41 5.31128C208.51 5.23128 207.63 5.31128 206.68 5.13128C205.51 4.91128 204.11 5.11128 202.82 5.07128C202.12 5.05128 201.33 5.27128 200.7 4.89128C200.61 4.84128 200.29 4.85128 200.17 4.89128C199.24 5.29128 198.08 5.18128 197.25 5.02128C195.9 4.77128 194.61 4.88128 193.3 4.84128C192.21 4.81128 191.11 4.86128 190.03 4.82128C189.25 4.80128 188.48 4.88128 187.66 4.71128C187.03 4.58128 186.2 4.80128 185.45 4.82128C184.7 4.85128 183.95 4.82128 183.2 4.82128H178.29C177.4 4.82128 176.51 4.85128 175.63 4.82128C174.79 4.78128 173.97 4.62128 173.14 4.61128C170.8 4.56128 168.5 4.99128 166.14 4.83128C165.5 5.12128 164.89 4.91128 164.22 4.85128C163.61 4.80128 162.89 4.68128 162.28 4.97128C162.11 5.05128 161.79 5.03128 161.53 5.05128C160.96 5.09128 160.47 4.82128 159.8 5.02128C159.32 5.17128 158.59 5.02128 157.99 5.06128C157.35 5.09128 156.62 4.89128 156.09 5.25128C154.97 4.71128 153.89 5.54128 152.77 5.29128C152.42 5.21128 152.03 5.18128 151.66 5.13128C151.47 5.10128 151.26 5.03128 151.1 5.06128C148.12 5.55128 145.06 5.15128 142.06 5.29128C141.69 5.31128 141.33 5.41128 140.96 5.46128C140.78 5.48128 140.58 5.50128 140.41 5.47128C138.76 5.27128 138.76 5.28128 137.23 5.47128C136.84 5.52128 136.42 5.47128 136.02 5.50128C134.98 5.56128 133.97 5.46128 132.89 5.69128C132.62 5.75128 132.35 5.76128 132.07 5.75128C131.93 5.75128 131.79 5.73128 131.65 5.72128C131.54 5.72128 131.43 5.70128 131.32 5.68128C131.1 5.63128 130.88 5.60128 130.65 5.58128C130.42 5.54128 130.19 5.54128 129.96 5.56128C129.16 5.62128 128.31 5.81128 127.58 6.38128C126.66 7.08128 125.96 8.02128 125.48 9.06128C125.26 9.59128 125.08 10.1313 125 10.7013C124.89 11.2613 124.91 11.8213 124.91 12.5413C124.91 12.8813 124.83 13.3513 124.92 13.5413C125.32 14.3213 125.59 15.0213 124.92 15.7613C124.89 15.8013 124.89 16.0813 124.92 16.1413C125.34 16.8113 125.14 17.6913 125.12 18.4413C125.07 21.3313 125.54 24.1713 125.37 27.0713C125.34 27.5413 125.45 28.1713 125.31 28.4413C125.02 29.0213 125.49 29.3013 125.38 29.8113C125.29 30.2313 125.46 30.8613 125.34 31.2113C124.91 32.4913 125.04 33.9213 125.18 35.1313C125.31 36.2613 125.46 37.4313 125.32 38.4513C125.18 39.4513 125.14 40.4513 125.13 41.4513V42.9513V43.7013L125.15 44.3113C125.26 45.9713 126.09 47.5613 127.36 48.6313C127.87 49.0613 128.44 49.6113 129.16 49.5113C129.31 49.4813 129.56 49.6213 129.75 49.7213C130.2 49.9113 130.67 50.1713 131.18 50.1913C131.63 50.2313 132.36 50.0513 132.96 50.0013C133.47 49.9513 133.95 50.0013 134.47 49.8013C134.85 49.6513 135.52 49.7713 136.12 49.9713C137.31 50.3713 138.56 50.7713 140.09 50.7013C141.45 50.6413 142.82 50.7013 144.18 50.6813C144.75 50.6813 145.29 50.7013 145.9 50.5113C146.45 50.3413 147.37 50.4113 148.04 50.5413C149.09 50.7413 150.06 50.7613 151.09 50.5413C151.44 50.4613 151.87 50.4613 152.26 50.4613H159.43C160.01 50.4613 160.62 50.3913 161.09 50.6713C161.47 50.3413 162.07 50.4513 162.57 50.4713C163.34 50.5113 164.09 50.6513 164.86 50.6813C165.77 50.7113 166.66 50.6813 167.57 50.4813C168.41 50.2913 169.42 50.6013 170.33 50.3213C170.5 50.2713 170.86 50.4613 171.11 50.4413C172.15 50.3713 173.27 50.6813 174.23 50.2213C174.31 50.1813 174.53 50.1813 174.63 50.2213C175.82 50.6813 177.01 50.3313 178.19 50.2213C179.48 50.0913 180.65 50.4713 181.91 50.4613C183.34 50.4513 184.84 50.3113 186.2 50.4913C188.54 50.8013 190.88 50.6513 193.21 50.6813C195.6 50.7213 197.99 50.7113 200.37 50.6813C201.41 50.6713 202.44 50.5013 203.48 50.4713C204.64 50.4313 205.8 50.4713 206.96 50.4713H210.24C210.75 50.4813 211.32 50.3513 211.76 50.6413C211.85 50.7013 212.16 50.7213 212.29 50.6713C213.23 50.3613 214.13 50.3813 215.08 50.6613C215.35 50.7413 215.75 50.6613 216.07 50.7113C216.97 50.8213 217.73 50.5513 218.56 50.4713C219.32 50.3913 220.19 50.6813 220.87 50.2513C220.96 50.1913 221.34 50.1913 221.45 50.2513C222.98 50.9713 224.73 49.7713 226.25 50.4413C226.86 50.0313 227.49 50.5013 227.97 50.4413C228.67 50.3513 229.34 50.2413 230.07 50.2513C230.75 50.2513 231.44 50.2713 232.12 50.2513C233.36 50.2013 234.62 50.3913 235.86 50.0513C236.28 49.9413 237.05 49.8613 237.56 50.1913C237.65 50.2513 237.92 50.2413 238.1 50.2213C239.46 50.0913 241.13 50.4513 241.47 51.0513C241.67 51.4013 241.65 51.8313 241.49 52.1913C241.41 52.3713 240.82 52.4813 240.44 52.6113C239.79 52.8413 239.16 53.1513 238.45 53.2413C237.61 53.3513 236.69 53.2713 235.58 53.2713L235.52 53.3413Z" fill="#9C7625"/>
</svg>
