<svg width="108" height="103" viewBox="0 0 108 103" fill="none" xmlns="http://www.w3.org/2000/svg">
<path d="M55.2533 64.73C29.3783 64.6627 8.3858 70.9486 8.3633 78.761C8.3408 86.5735 29.2996 92.9604 55.1633 93.0277C81.0383 93.0951 102.031 86.8092 102.053 78.9967C102.076 71.1843 81.1283 64.7974 55.2533 64.73Z" fill="#F9D983"/>
<path d="M55.6132 73.8443C55.4557 73.8443 55.3319 73.8219 55.2307 73.7882L55.2644 60.0266C55.2982 60.0154 55.3319 60.0154 55.3657 60.0042C55.7032 59.8582 56.0069 59.8246 56.3557 59.847C56.9294 59.8807 57.1094 59.6225 57.2444 59.2745C57.4019 59.2745 57.5932 59.2409 57.7394 59.2745C58.0432 59.3531 58.3019 59.6225 58.6282 59.3082C58.6619 59.2746 58.9207 59.3643 59.0782 59.398C59.5844 59.499 60.1132 58.5674 60.5857 58.2643C61.0469 57.9837 61.7782 58.2306 62.2844 57.9388C62.3744 57.8827 62.7007 57.9051 62.7907 57.9725C63.2182 58.298 63.7244 58.0735 64.2644 58.2306C64.1294 57.9949 64.0507 57.849 63.9157 57.6133C65.1307 57.6582 66.1882 57.7031 67.2682 58.0174C68.1457 58.2755 68.9445 58.7358 69.9457 58.7358C70.2945 58.7358 70.6769 58.9041 70.9469 58.6572C71.1944 58.9041 71.5657 58.9041 71.9032 58.9041C72.3307 58.9041 72.927 58.747 73.1407 58.8817C73.6132 59.2072 74.1082 59.0276 74.4907 59.2072C74.7269 59.0837 74.8957 58.9939 75.0757 58.9041C75.132 58.9378 75.1994 58.9715 75.2332 59.0164C75.5369 59.4766 75.9082 59.7348 76.4032 59.6001C77.2807 59.3643 78.102 59.7235 78.9344 59.8133C79.3057 59.8582 79.6432 60.195 80.0369 60.3409C80.3969 60.4756 80.8357 60.498 81.1844 60.6552C81.477 60.7787 81.8144 60.9919 81.9157 61.2052C82.0507 61.4746 82.2307 61.6093 82.5457 61.7889C82.7594 61.9236 82.7032 62.2267 83.2094 62.294C83.4907 62.3389 83.4457 62.7879 83.8844 62.8889C83.7944 62.9338 83.6932 62.9787 83.5582 63.0461C84.1994 63.3379 84.7957 63.6073 85.4032 63.8879C85.5495 63.9441 85.7182 63.9104 85.932 63.9328C86.2357 63.9665 86.7307 63.9665 86.8882 64.0788C87.7657 64.6961 88.8007 64.5951 89.7682 64.842C90.7582 65.0553 91.7707 65.1114 92.7945 65.4482C93.0982 65.538 93.6045 65.6614 93.7732 65.6053C94.5832 65.3359 95.2582 65.7625 95.8207 66.1666C96.2707 66.4921 96.6532 66.7054 97.362 66.8176C97.8682 66.9074 98.4982 67.0645 98.982 67.4125C99.0607 67.4686 99.3757 67.5248 99.4094 67.5023C99.6119 67.3564 99.8257 67.4686 100.107 67.6482C100.771 68.0411 101.502 68.4003 102.064 68.8493C102.694 69.3095 103.156 69.8483 103.718 70.3983C103.673 70.432 103.617 70.4881 103.504 70.5891C104.123 71.2851 104.674 72.0596 105.282 72.8341C106.283 74.1474 106.294 74.1923 106.553 75.4495C106.587 75.8087 106.711 76.0219 106.902 76.3699C107.341 77.1669 107.622 78.0312 107.791 78.9404C107.858 79.8496 107.813 80.8037 107.476 81.6904C107.419 81.9037 107.363 82.1731 107.262 82.2853C106.441 83.1497 106.463 83.8119 106.441 84.5977C106.182 84.6762 106.002 84.7324 105.777 84.7773C105.327 85.6528 105.012 86.5396 104.146 87.3477C103.943 87.5386 103.921 87.8079 103.718 88.01C103.594 88.1447 103.234 88.2794 103.167 88.3916C102.852 88.9529 102.762 88.3355 102.492 88.5825C102.143 89.0427 101.817 89.4355 100.996 89.7835C100.343 90.0305 99.5444 90.5468 99.1507 91.108C99.0832 91.2203 98.6107 91.355 98.3294 91.4784C98.5094 91.5795 98.4082 91.6917 98.2169 91.905C97.6432 92.455 97.0019 92.9826 96.0119 93.3979C95.2582 93.7122 94.3132 93.9367 93.852 94.4867C93.762 94.5989 93.4469 94.7224 93.4019 94.8234C93.1319 95.4408 92.9407 95.6092 92.0857 95.9571C91.0057 96.3725 89.9032 96.6082 88.8457 96.7092C88.0807 96.799 87.3494 96.9561 86.6632 97.147C86.1007 97.2929 85.7182 97.4276 85.2569 97.6072C84.6944 97.8317 84.2219 98.1123 83.6369 97.9102C83.1982 98.1684 82.6357 97.8878 82.1969 98.2245C82.1519 98.2582 81.9832 98.2807 81.9382 98.247C81.4319 97.9551 81.0269 98.1123 80.4082 98.3592C79.7669 98.6062 78.9569 98.7521 78.1582 98.6399C77.6407 98.5725 77.0557 98.5164 76.4594 98.696C76.0319 98.8195 75.6382 98.7184 75.3344 98.4939C75.2444 98.4266 75.042 98.3368 74.9632 98.3705C74.0519 98.696 73.0732 98.8082 72.2182 99.2909C71.4307 99.7287 70.5982 100.324 69.4057 100.099C69.2369 100.065 68.9782 100.234 68.7644 100.256C68.1344 100.301 67.6394 100.66 66.9757 100.638C66.3907 100.615 65.7832 100.716 65.1757 100.773C65.1082 100.66 65.0407 100.559 64.9732 100.458C64.3657 100.817 64.3657 100.829 63.4657 100.896C62.8582 100.941 62.2394 100.963 62.0369 101.48L60.2707 101.996C59.6407 101.603 59.3819 102.153 58.9544 102.265C58.7294 102.322 58.6057 102.546 58.4144 102.703C57.6607 102.647 56.9069 102.658 56.2657 102.49C55.7707 102.355 55.3094 102.4 54.8369 102.344C54.1957 102.277 53.5657 102.153 52.9357 102.063C52.6319 102.019 52.2944 101.94 52.0132 101.996C51.0569 102.164 51.0682 102.176 49.4144 101.962C48.7394 101.873 48.0307 101.917 47.2882 101.895C47.0632 101.592 46.9057 101.199 46.1857 101.278C45.6794 101.334 45.2519 101.109 44.7794 101.042C44.2619 100.963 44.1719 100.716 44.0369 100.436C43.5532 100.402 43.0694 100.38 42.5744 100.346C42.4957 100.458 42.4282 100.559 42.3494 100.694C42.0457 100.672 41.7194 100.627 41.4044 100.638C41.1569 100.638 40.8757 100.672 40.6844 100.761C40.4482 100.862 40.2569 100.986 39.9532 100.896C39.4807 100.761 39.1094 101.031 38.6707 100.963C38.1982 100.896 37.8382 101.098 37.4219 101.109C36.2969 101.143 35.2282 101.469 34.0357 101.21C32.5282 100.885 30.9982 101.053 29.4794 100.739C29.2544 100.694 28.9957 100.795 28.7144 100.829C28.6582 100.66 28.6132 100.548 28.5682 100.413C27.6232 100.122 26.7119 100.11 25.8007 100.245C25.6319 100.267 25.4519 100.279 25.3169 100.335C25.1257 100.413 24.9907 100.593 24.7882 100.604C24.0682 100.66 23.7082 100.672 23.4044 100.66C23.2469 100.649 23.1119 100.627 22.9544 100.593C22.8419 100.571 22.7182 100.537 22.5719 100.503C22.4032 100.458 22.2119 100.402 21.9982 100.346C21.5932 100.234 20.9407 100.11 20.8169 99.9981C19.7144 99.0103 18.1844 99.0776 16.7782 98.7072C16.3169 98.5837 15.8444 98.5276 15.4057 98.3705C14.6069 98.0898 13.6844 97.6072 13.0657 97.5286C12.0982 97.3715 11.8282 96.9 11.1644 96.6306C10.5007 96.3724 9.88194 96.0469 9.31944 95.699C8.75694 95.3398 8.14944 95.0143 7.68819 94.6214C7.35069 94.352 6.59693 93.8693 6.95693 93.5999C7.09193 93.4989 7.02444 93.1846 6.82194 92.9938C6.13569 92.2081 6.36069 91.6917 5.95569 91.0182C5.83194 90.7937 5.51694 90.5243 5.29194 90.2774C5.77569 90.0641 6.5182 90.6141 7.3057 90.7488C7.00195 90.5356 6.84444 90.3223 6.60819 90.1764C6.30444 89.9743 5.78694 89.9743 5.69694 89.5478C5.67444 89.5029 5.49444 88.7845 5.51694 88.7396C5.55069 88.661 5.5957 88.5825 5.6182 88.5039C5.62945 88.4478 5.6182 88.3804 5.6182 88.3916C5.42695 88.2457 5.29194 88.1335 5.15694 88.0212C5.68569 87.7518 5.06694 87.4375 4.67319 87.0334C4.24569 86.5844 3.8407 86.1691 3.3682 85.7987C2.8057 85.3048 2.47945 84.6762 2.0857 84.1374C1.10695 82.8466 0.746946 81.1853 0.218196 79.569C-0.164304 78.7608 0.0606998 77.6271 0.11695 76.6617C0.2632 75.6964 0.701945 74.8321 1.21944 74.0688C1.51195 73.5525 1.91693 73.1035 2.20943 72.5984C2.64818 71.9698 2.9632 71.3636 3.7732 70.9259C4.2907 70.6116 4.9207 69.9156 5.4607 69.3768C5.8207 69.0513 6.18069 68.7483 6.57444 68.4676C6.99069 68.2095 7.42945 67.9625 7.90195 67.7605C8.1607 67.637 8.86944 67.5135 8.84694 67.1094C9.34194 66.885 9.78069 66.6156 10.3207 66.4472C10.6694 66.3237 11.0294 66.3237 11.367 66.2115C11.8619 66.0206 12.3682 65.8074 12.8969 65.6165C13.0769 65.5492 13.3132 65.3808 13.4032 65.3921C14.2807 65.4482 15.0569 65.0104 15.7207 64.7298C16.1707 64.7971 16.4969 64.842 16.6769 64.8757C20.3669 63.7196 24.7207 62.5185 27.1732 62.4624C27.3307 62.2491 27.4882 62.0022 27.6795 61.7664C28.3207 60.947 29.3219 60.5878 30.5144 60.644C30.9419 60.6664 30.8294 60.4307 30.9869 60.3297C30.8069 60.3185 30.6494 60.296 30.4694 60.2848C30.5032 60.2399 30.5369 60.1501 30.5707 60.1501C30.9532 60.1276 31.3582 60.1838 31.7182 60.1052C32.3594 59.9705 33.1019 59.8695 33.5969 59.5776C34.4519 59.095 35.2957 59.3531 36.1282 59.2184C36.6232 59.5103 37.3882 59.3531 37.8719 59.6562C38.0519 59.7684 38.1869 59.9144 38.4007 60.0827C38.8507 59.746 39.4919 59.6562 39.9644 59.9031C40.5269 60.1838 41.1344 59.8246 41.7307 60.0378C42.2032 60.2062 42.9119 59.948 43.3957 59.6225C43.6544 59.4429 43.9582 59.4092 44.2169 59.5888C44.3857 59.7011 44.8694 59.5327 44.7457 59.847C44.6332 60.1389 44.3857 59.9368 44.1494 59.9256C43.8682 59.9031 43.542 60.0603 43.1482 60.1613C43.2157 60.5317 44.5657 60.4307 43.8569 60.7001C44.6444 60.7674 44.7119 61.8226 44.7794 61.3175C44.9032 60.397 45.7132 60.5991 45.7357 60.6328C46.4444 61.3175 46.8269 59.9593 47.6819 60.3072C47.9294 60.4083 48.4357 59.9705 48.8519 59.9368C49.8419 59.8582 50.8319 59.847 51.8219 59.7909C52.5307 59.746 53.1607 60.0491 53.8807 59.9368C54.3532 59.8695 54.7919 59.9817 55.2307 60.094L55.1969 73.8443C54.9044 73.9229 54.6119 74.0127 54.3982 74.2147C54.3195 74.2933 53.8357 74.2484 53.8357 74.2372C53.2169 73.8443 53.0707 74.2933 52.8119 74.5627C52.6882 74.6862 52.5532 74.8097 52.5419 74.8209C51.6757 74.9556 50.9782 75.0229 50.3032 75.1801C48.9419 75.4831 48.6832 75.5056 47.0857 75.3933C46.7707 75.7189 46.4332 75.2811 46.0732 75.427C45.7807 75.5505 45.4319 75.5056 45.0944 75.6852C44.7007 75.8872 44.0594 75.6515 43.6769 76.0331C43.1819 75.9658 43.0244 76.3362 42.6869 76.5944C42.3832 76.3474 41.9782 76.2913 41.8432 75.8872C41.7757 75.674 41.3932 75.5168 41.1344 75.3597C41.0219 75.2923 40.8307 75.3035 40.7294 75.225C40.6394 75.1576 40.5382 75.0005 40.5719 74.9331C40.6169 74.8433 40.8194 74.8096 41.0444 74.7086C40.4819 74.5066 39.9644 74.3158 39.4582 74.1249C39.5032 74.08 39.5482 74.0239 39.6607 73.9117C38.9857 73.7321 38.7269 73.2157 38.2994 72.8341C37.9057 72.4861 37.6919 72.7218 37.3432 72.8116C37.3432 72.6208 37.4444 72.3626 37.3319 72.2953C37.0732 72.1382 36.7019 71.9698 36.4094 72.0035C35.4757 72.1269 34.4407 72.1045 33.7882 72.8565C33.6982 72.9688 33.4619 73.0586 33.2819 73.081C33.0007 73.1147 32.8544 73.227 32.7082 73.4065C32.6294 73.5076 32.4944 73.6086 32.3594 73.6423C31.7294 73.8443 31.0882 74.0015 30.492 74.2372C29.9632 74.4729 29.4794 74.7984 28.9957 75.0903C28.7032 75.2699 28.4107 75.4495 28.1069 75.6066C27.9494 75.6852 27.8032 75.7525 27.6457 75.8199C27.5219 75.876 27.4882 75.9097 27.4432 75.9434C27.3194 76.0332 27.1845 76.0893 27.1507 76.2913C27.1169 76.5944 26.937 76.4597 26.712 76.3811C26.5994 76.3362 26.4532 76.224 26.2957 76.1454C26.3969 76.3699 26.2169 76.2801 26.2169 76.3811C26.2394 76.6393 26.0369 76.6281 25.8907 76.7291C26.0032 76.875 26.1494 77.0658 26.2844 77.2118C26.0144 77.0883 25.8007 77.0209 25.5419 76.9087C25.3169 76.8189 25.0357 76.6842 24.7769 76.5832C24.7207 76.5607 24.6982 76.5832 24.6532 76.5607C23.7419 76.1229 23.7307 76.1229 23.3032 76.1117C23.2807 76.1117 23.2132 76.078 23.2132 76.078C23.1344 75.9209 22.8757 75.7862 22.5944 75.674C22.5382 75.6515 22.4707 75.7189 22.3807 75.6964C21.4919 75.528 20.8282 75.6964 19.6807 75.528C19.5795 75.5168 19.4444 75.427 19.3544 75.3821C18.9607 75.4382 18.5219 75.5168 18.0382 75.6178C17.3182 75.7525 17.1157 76.1229 16.5082 76.3811C15.5632 76.7852 15.3269 77.4811 15.2369 78.1883C15.1919 78.5363 15.4057 78.8842 15.5519 79.2098C15.6982 79.5241 15.8782 79.8159 16.0469 80.1077C16.1594 80.2986 16.0357 80.5343 16.2607 80.669C16.9694 81.0506 17.3294 81.4547 18.0269 81.7129C18.2294 81.7802 18.3082 81.8476 18.4094 81.9598C18.7694 82.3415 19.4557 82.566 20.4007 82.5435C20.8282 82.5211 21.1094 82.6446 21.5369 82.6109C21.6269 82.5997 21.5932 82.7456 21.6157 82.8354C21.9982 82.6894 22.3582 82.5547 22.7069 82.4088C22.5944 82.6221 22.7069 82.7456 23.0894 82.5996C23.9219 82.2966 24.3269 82.2966 24.6307 82.4762C24.8557 82.5996 25.2382 82.5435 25.3619 82.7905C25.4069 82.869 25.6544 82.8241 25.7894 82.6446C26.0819 82.2854 26.2057 82.319 26.3519 82.3639C26.4532 82.3976 26.5544 82.42 26.6557 82.4425C26.7007 82.4537 26.7682 82.4313 26.7794 82.4762C26.8469 82.6109 26.9032 82.8017 27.0044 82.9027C27.0607 82.9588 27.1057 82.9813 27.1957 82.9813C27.2857 82.9813 27.4882 82.9588 27.6907 82.8803C27.7019 82.8803 27.7919 82.9701 27.8257 83.0262C28.1294 83.6099 28.7257 83.4527 29.0857 83.3068C29.502 83.1497 29.8394 83.0935 30.2894 83.2058C30.4469 83.2395 30.6382 83.1497 30.8182 83.1272C31.1332 83.1048 31.3357 83.4527 31.3244 83.464C30.7957 83.9129 31.6619 83.9129 31.7519 84.1823C31.6057 84.1936 31.4594 84.2048 31.1782 84.2385C31.4369 84.4068 31.7069 84.5079 31.8082 84.6538C32.0107 84.9568 32.2019 85.2936 32.0332 85.6191C31.7632 86.1018 32.3707 86.3375 32.6069 86.6742C32.7194 86.8426 33.3269 86.8538 32.8657 87.1681C33.1019 87.3141 33.3157 87.4824 33.5632 87.5947C33.8219 87.7181 34.0919 87.6171 34.2044 87.46C34.3732 87.2355 34.5194 87.0783 34.9244 87.213C35.0257 87.2467 35.1832 87.2579 35.2732 87.2243C36.1619 86.9324 37.0732 87.112 38.0407 87.2243C38.3894 86.8426 38.9857 86.7865 39.5369 86.6294C40.0432 86.4834 40.5494 86.4048 41.0894 86.3599C42.0794 86.2814 43.0244 86.0008 44.0482 86.012C44.3294 86.012 44.5769 85.7875 44.8582 85.6977C45.7469 85.4171 46.6919 85.6528 47.6257 85.6303C47.8282 85.3609 47.9294 85.013 48.5482 85.0915C48.9532 85.1477 49.3807 85.0916 49.7857 85.1365C50.4494 85.2038 51.0007 84.9905 51.6307 84.8334C52.6882 85.4956 52.6882 85.4956 52.8007 85.8773C53.4532 86.0456 53.9032 85.7426 54.4544 85.563C55.6807 85.1701 56.9294 84.7548 58.3357 84.9119C58.5269 85.3048 58.6732 85.7314 58.7969 86.1691C58.8982 86.4946 59.2244 86.8426 59.5169 87.1569C59.6632 87.314 59.3482 87.6396 59.8432 87.662C59.6744 88.0661 60.2144 88.1896 60.4282 88.4029C60.7769 88.762 60.9794 89.2784 61.7332 89.3682C61.9132 89.3906 62.1832 89.559 62.1944 89.6713C62.2394 90.1315 62.7682 89.8845 63.0157 89.9968C62.9482 90.1539 62.8807 90.2998 62.7457 90.6141C63.6232 90.2662 64.3432 90.1764 64.8045 89.5815C65.2882 88.9529 66.1094 88.6049 67.0994 88.4478C67.6057 88.3692 68.1232 87.9988 68.5957 88.1559C69.0682 88.3018 69.4844 88.1559 69.9569 88.1896C70.0469 87.7967 70.1369 87.4263 70.2382 86.9885C70.7444 86.9324 71.2844 86.8987 71.8019 86.7753C72.3195 86.6518 72.8932 86.5844 73.1632 86.0569C73.3544 85.6752 73.827 85.6303 74.2995 85.765C74.412 85.7987 74.6707 85.765 74.7044 85.7089C74.9069 85.3834 75.3232 85.316 75.6607 85.1589C75.8519 85.0691 76.1332 84.9344 76.2907 84.9793C76.7857 85.1252 77.1907 84.9905 77.6182 84.7773C77.6857 84.7436 77.7869 84.766 77.8769 84.7548C78.5182 84.7436 79.1257 84.7099 79.5532 84.1711C79.6657 84.0364 79.9807 83.7221 80.3632 83.9242C80.3969 83.9354 80.5094 83.8793 80.5657 83.8456C80.9032 83.5537 81.1957 83.318 81.792 83.3742C82.1857 83.4078 82.7257 83.1609 83.0969 83.3068C83.3444 83.4527 83.4007 83.3517 83.547 83.3405C83.7945 83.318 83.952 83.1272 84.2895 83.2844C84.4582 83.3629 84.7057 83.2844 84.4694 82.869C84.6719 82.8466 84.6719 82.5772 84.8182 82.5547C84.9532 82.5323 85.2682 82.7343 85.5382 82.8354C85.6057 82.8578 85.6844 82.9252 85.7744 82.9925C85.7632 83.015 85.7407 83.0374 85.7407 83.0599C85.7407 83.0711 85.8082 83.116 85.8419 83.1497C85.8419 83.116 85.8419 83.0823 85.8082 83.015C86.3032 83.1946 86.8432 83.2058 87.5294 83.6772C87.9794 83.7334 88.6994 84.0252 88.9357 83.7782C89.1494 83.5538 89.6557 84.0252 89.802 83.8456C89.892 83.7221 89.3519 83.4976 89.7232 83.4078C90.1619 83.2956 90.0607 82.9364 89.7345 82.6558C89.2845 82.2405 89.3182 81.9711 89.2395 81.7129C89.1832 81.4996 89.0932 81.2751 88.992 81.0731C88.9357 80.9608 88.9695 80.9159 89.2732 80.9272C89.1832 80.871 89.082 80.8261 88.857 80.7027C89.127 80.4782 89.1382 80.119 88.5307 79.771C89.2169 79.5577 87.8669 79.2771 88.1932 79.0526C88.2607 78.9965 87.7995 78.9067 87.5182 78.8281C87.4057 78.7046 87.7094 78.4689 86.7757 78.4689C86.652 78.4689 86.6632 78.4128 86.6182 78.3791C86.3932 78.2444 86.1682 78.1434 85.9207 78.0648C85.8869 78.0536 85.8082 78.0424 85.7069 78.0536C85.2007 78.121 84.9419 78.1659 85.3469 77.9526C85.4594 77.8852 85.2007 77.9414 84.807 78.0648C84.7732 78.0761 84.7282 78.0873 84.6944 78.0873L84.2107 78.2332L84.2332 78.0648C84.2444 78.0087 84.4244 77.8516 84.2557 77.8965C83.8619 77.9975 83.907 77.8852 83.7495 77.8852C83.6932 77.8852 83.6594 77.8628 83.8507 77.7169C84.2782 77.3801 84.0307 77.4475 83.9969 77.4138C83.9407 77.3689 84.1544 77.1893 84.2107 77.122C84.2782 76.9087 83.7832 77.223 84.1882 76.6617C84.1657 76.6617 84.1319 76.6393 84.0869 76.6393C83.8732 76.6393 83.8282 76.4821 83.8844 76.1117C83.9069 75.9658 83.8732 75.8872 83.6932 76.1454C83.6257 76.1566 83.5919 76.0331 83.4569 76.2801C83.4007 76.325 83.3332 76.3699 83.2432 76.4485C83.3782 76.1454 83.502 75.8648 83.6145 75.6066C83.5582 75.5505 83.5357 75.528 83.4907 75.4831C83.5582 75.3709 83.6257 75.2699 83.6932 75.1688C83.6032 75.0454 83.8732 74.6637 83.6594 74.5627C83.5357 74.5066 83.6932 74.2821 83.7945 74.1923C83.7382 73.9678 83.6594 73.7321 83.5357 73.429C83.0294 73.3167 82.3882 73.1821 81.7132 73.0361C81.5895 73.1484 81.4769 73.2606 81.3419 73.3504C81.2069 73.4514 80.9819 73.6423 80.9257 73.6086C80.2282 73.2494 79.6545 73.6759 79.0132 73.6759C78.3945 73.6647 77.7869 73.8331 77.1795 73.9117C76.887 73.9453 76.6844 73.6198 76.2794 73.7545C75.9869 73.8555 75.5594 73.6984 75.1544 73.7882C74.7382 73.8668 74.0969 73.5525 73.7482 73.6984C73.3657 73.8555 72.9607 73.8892 72.5782 73.9902C72.4432 74.0239 72.2182 74.0688 72.1394 74.0127C71.4532 73.5749 70.857 73.9229 70.227 74.0015C69.4845 74.1137 68.7194 74.1586 67.9657 74.1923C67.4707 74.2035 66.9532 74.5627 66.4469 74.1137C66.3907 74.0576 66.0982 74.1698 65.9182 74.2035L64.2982 74.5403C64.2307 74.5515 64.0957 74.5178 64.0844 74.4954C63.8594 73.7657 63.2744 74.226 62.9257 74.3158C62.3069 74.4729 61.8457 74.3831 61.3957 74.0351C61.1595 73.8443 61.1257 73.8668 60.5969 74.0688C60.5407 73.9902 60.4619 73.8892 60.3719 73.7882C59.8432 73.081 59.3819 73.8668 58.5494 74.1362C57.8519 74.3607 57.4357 74.1923 56.9969 73.9004C56.7607 73.7433 56.6819 73.7994 56.4457 73.8892C56.2319 73.9004 55.9057 73.8331 55.6132 73.8443ZM61.5082 89.8621C61.6882 89.9743 61.8232 90.0641 62.0144 90.1876C62.1269 89.7498 61.9357 89.7162 61.5082 89.8621Z" fill="#F9D983"/>
<path d="M86.9223 69.187L87.1811 78.0658C87.4061 85.6313 72.2861 92.1978 53.4198 92.7478C34.5536 93.2979 19.0736 87.6181 18.8486 80.0526L18.5898 71.1738" fill="#FDF4D8"/>
<path d="M88.6776 70.8708C88.9026 71.3647 88.3288 71.9147 88.4413 72.4759C88.5538 73.0372 88.5088 73.6096 88.5088 74.1821C88.5088 74.4739 88.6101 74.7433 88.7901 75.0127C88.9588 75.2821 88.5988 75.5964 89.0825 75.8434C89.1275 75.8658 89.0938 75.9219 89.0938 75.9556C89.1163 76.6515 89.3413 77.3363 89.1051 78.021C88.8351 79.0536 88.835 80.0526 88.3738 80.9394C88.3625 81.7813 87.9913 82.5221 87.53 83.1395C87.0688 83.7681 86.5176 84.262 86.0451 84.8232C85.7413 85.1487 85.4826 85.564 84.9088 85.5865C84.425 85.5977 84.4026 86.3161 83.7613 86.1253C83.7051 86.114 83.7163 86.2487 83.6826 86.3049C83.6038 86.4283 83.5701 86.6304 83.4351 86.6641C82.6251 86.8549 82.6363 86.8661 82.22 87.4161C82.175 87.4835 81.9726 87.3488 81.8938 87.3824C81.5788 87.5396 81.2526 87.6967 80.9713 87.8988C80.7126 88.0896 80.2851 87.9886 80.2401 88.5498C80.2288 88.6733 80.0713 88.6508 79.97 88.6957C79.6663 88.8417 79.3626 88.9764 79.0813 89.1447C78.7551 89.3355 78.3163 89.3019 78.1475 89.8294C78.0688 90.0539 77.6638 89.706 77.6188 89.8407C77.5288 90.0876 77.3938 90.1886 77.2138 90.2223C77.0451 90.256 76.82 90.1437 76.6625 90.1999C76.5275 90.2448 76.4713 90.5029 76.3363 90.5703C75.9988 90.7386 75.5713 90.6937 75.3238 91.008C75.0651 91.3448 74.7163 91.4121 74.3788 91.5468C74.0413 91.6927 73.6588 91.7377 73.3325 91.906C73.0738 92.0407 72.7701 91.906 72.4776 91.8724C72.1963 91.8387 71.9938 92.254 71.6338 91.8387C71.6226 91.8162 71.6 91.8499 71.5775 91.8499C71.0263 91.906 70.4525 91.9173 69.9238 92.0295C68.99 92.2091 68.0788 92.4673 67.145 92.6356C66.8863 92.6918 66.6388 92.8938 66.3126 92.5458C66.2451 92.4785 66.1551 92.6132 66.0763 92.5683C65.7838 92.3887 65.7163 93.1856 65.4013 92.8826C65.1313 92.6132 64.9288 92.8265 64.6926 92.8265C64.4338 92.8377 64.175 92.9163 63.9163 92.9387C63.7363 92.9499 63.5901 93.0397 63.4663 93.2755C63.2076 92.8489 62.9713 93.1969 62.7125 93.0173C62.5438 92.8938 62.2851 92.7928 62.2063 92.9612C62.0038 93.3428 61.7338 93.2081 61.4976 93.2755C61.1376 93.3765 60.7551 93.2755 60.4401 93.6459C60.3051 93.803 60.0913 93.7357 59.9113 93.7132C59.7425 93.6908 59.5625 93.5224 59.3938 93.5224C59.09 93.5112 58.7863 93.5673 58.5051 93.8367C58.2575 94.0724 57.8975 93.6683 57.6725 94.1734C57.6388 94.2408 57.5488 94.2296 57.4926 94.1959C57.1888 94.0163 56.9188 93.9265 56.615 94.2183C56.3675 94.4541 56.0188 94.2969 55.7263 94.3194C55.4113 94.3418 55.085 94.454 54.77 94.3306C54.5675 94.2632 54.4888 94.903 54.2413 94.5102C54.1063 94.2969 53.8588 94.4204 53.6675 94.4092C53.465 94.3979 53.2626 94.4989 53.0713 94.4092C52.0588 93.9153 51.0575 94.353 50.045 94.1734C49.6175 94.0948 49.1676 94.4765 48.7738 93.904C48.4588 94.3194 48.1101 93.9489 47.8063 94.2183C47.6151 94.3979 47.4575 94.3643 47.2888 94.3643C46.1863 94.3418 45.0838 94.2295 43.9701 94.1734C43.2388 94.151 42.4963 94.2296 41.765 94.1959C41.5625 94.1847 41.3488 94.2183 41.1576 93.9265C41.0226 93.7132 40.7301 93.6571 40.4713 93.9602C40.4263 94.0163 40.325 94.0612 40.3025 94.0163C39.9763 93.354 39.4813 93.9265 39.0651 93.8928C38.2551 93.8255 37.5575 93.3091 36.7588 93.2081C36.59 93.1856 36.4326 92.9612 36.2188 93.3428C36.1513 92.9724 36.0276 93.1183 35.8363 93.2418C35.6451 93.3653 35.3638 93.3316 35.2625 93.1071C35.1275 92.804 34.9251 92.8601 34.7451 92.7816C34.5538 92.703 34.3513 92.703 34.1488 92.6356C33.3276 92.3662 32.5175 92.0744 31.73 91.7376C31.5725 91.6703 31.46 91.4795 31.325 91.3672C31.19 91.255 30.9538 91.3785 30.9088 90.9968C30.8863 90.8509 30.695 90.8958 30.5825 90.8621C30.1775 90.7386 29.8176 90.3907 29.3676 90.5254C28.9176 90.6601 28.6588 90.2111 28.1526 90.5478C28.0063 90.6488 27.8938 90.4468 27.7476 90.4243C27.1626 90.3345 26.7913 89.706 26.0375 89.9866C25.9925 89.5825 25.745 89.5376 25.52 89.459C25.3513 89.4029 25.2613 89.1447 24.9575 89.4253C24.9238 89.459 24.8676 89.4253 24.8451 89.4029C24.6988 89.2233 24.6426 88.909 24.4063 88.8641C24.2038 88.8304 23.9451 88.9539 23.7538 88.8416C23.0676 88.4263 22.6626 87.6406 21.9088 87.3151C21.9201 86.9334 21.6838 86.8436 21.5038 86.6753C21.1888 86.3834 20.6038 86.4283 20.3338 86.0242C20.075 85.665 19.8388 85.2497 19.4001 85.0701C18.6463 84.7334 18.3763 83.9589 17.9713 83.2966C17.8701 83.1282 17.6338 82.9711 17.9038 82.6568C17.9713 82.5894 17.8588 82.3986 17.735 82.3762C17.465 82.3313 17.5551 82.1405 17.4313 82.0394C17.0713 81.7364 17.9601 81.1864 17.1838 80.9731L17.1276 80.3669C17.1051 80.1537 17.0938 79.9629 17.0938 79.8169C17.0826 79.5026 17.06 79.1883 17.0713 78.8741C17.0713 78.7281 16.9925 78.5822 17.24 78.4251C17.4088 78.3128 17.4313 78.0771 17.2738 77.9761C16.9026 77.7516 17.0488 77.4934 17.0263 77.2577C16.9813 76.5281 16.9476 75.8097 16.9701 75.0801C16.9813 74.7658 17.1163 74.4403 17.195 74.1147C17.2738 73.7892 17.0038 73.4637 17.33 73.1382C17.3525 73.1157 17.3413 73.0821 17.33 73.0596C17.2738 72.9361 17.15 72.8127 17.1725 72.678C17.195 72.5096 17.51 72.2851 17.3638 72.2065C17.0825 72.0269 17.3863 71.9035 17.4088 71.7575C17.4876 71.3534 18.185 71.084 19.0513 71.1065C19.2425 71.1065 19.445 71.1514 19.6025 71.2075C20.5363 71.5443 20.4913 71.5443 20.57 72.128C20.66 72.8576 20.1425 73.5984 20.3563 74.328C19.895 74.8219 20.2213 75.327 20.1313 75.8209C20.0413 76.3372 19.6588 76.876 19.9513 77.3699C20.2438 77.8638 20.1988 78.3577 20.1988 78.8516C20.1988 79.222 20.0301 79.6149 19.9963 79.9853C19.9851 80.2996 20.1313 80.5914 20.0863 80.917C20.0413 81.119 19.8388 81.4221 20.0638 81.5455C20.5701 81.7813 20.4575 82.2976 20.8625 82.5558C21.4025 82.8701 21.6275 83.4313 22.1788 83.7231C22.4825 83.8691 22.7638 84.0038 23.0113 84.2058C23.1238 84.3068 23.2363 84.3854 23.2363 84.6324C23.2475 84.8793 23.45 85.0252 23.765 84.9354C23.9 84.8905 24.0576 84.913 24.0576 85.0364C24.0801 85.5303 24.4513 85.5752 24.7213 85.7324C24.9013 85.8222 24.9013 86.2599 25.0813 86.1926C25.3963 86.0691 25.4863 86.2712 25.6775 86.3273C25.8125 86.3722 26.0038 86.3385 25.9475 86.6865C25.9363 86.7875 26.0375 86.8661 26.1163 86.8212C26.5213 86.5406 26.6563 86.8436 26.8925 86.9334C27.4438 87.1692 27.995 87.3937 28.5463 87.6631C29.0075 87.8651 29.6151 87.5957 30.0313 87.9324C30.4701 87.6069 30.7175 87.91 31.0213 88.0222C31.2575 88.1008 31.4488 88.3253 31.6625 88.4825C31.8763 88.6396 32.1351 88.6396 32.3376 88.8978C32.5851 89.2233 33.0238 89.1223 33.3613 89.257C33.5525 89.3243 33.8225 89.1447 33.89 89.5937C33.9013 89.6498 33.9913 89.6723 34.0363 89.6162C34.3963 89.2457 34.6776 89.4478 34.8688 89.6611C35.1726 90.0203 35.5663 89.9754 35.915 90.0988C36.2075 90.1999 36.5226 90.1999 36.8151 90.3009C37.0288 90.3682 37.2538 90.3233 37.4563 90.5478C37.6025 90.7162 37.8838 90.5254 38.0975 90.5254C38.3113 90.5366 38.5138 90.5927 38.7275 90.6264L39.4138 90.7274L40.1 90.8284C40.3475 90.8621 40.6063 90.8621 40.8426 90.9407C41.0676 91.008 41.2813 91.2213 41.5175 91.2662C42.1813 91.4009 42.8788 90.9856 43.52 91.2325C43.7338 90.9295 43.88 91.1764 44.0713 91.255C44.24 91.3223 44.4313 91.4795 44.6338 91.1652C44.69 91.0754 44.7801 91.1091 44.8475 91.0866C45.0163 91.0529 45.1288 91.3672 45.3313 91.154C45.4775 90.9968 45.6688 91.1764 45.8488 91.1427C46.0288 91.1203 46.2201 91.3672 46.4001 90.9631C46.6813 91.5917 47.0413 90.6713 47.3451 90.9631C47.4463 91.0529 47.5476 91.0978 47.6488 91.154C47.7051 91.1876 47.7613 91.2662 47.8063 91.2438C48.6726 90.7274 49.5163 91.1876 50.3713 91.0417C50.4726 91.0193 50.5738 90.907 50.6863 90.8509C50.7313 90.8284 50.7876 90.806 50.8438 90.8397C51.305 91.0642 51.3051 91.0529 51.7438 90.8284C51.8563 90.7723 51.9688 90.8172 52.0813 90.7835C52.3738 90.7162 52.6663 90.8172 52.9588 90.5478C53.2513 90.2896 53.6 90.7274 53.9263 90.9182C54.2188 91.0866 54.5 91.2662 54.8038 91.2438C55.58 91.154 56.3563 91.1427 57.1213 91.0866C57.2226 91.0754 57.3576 91.1652 57.4026 91.0529C57.5938 90.5927 57.7513 90.2672 58.0326 91.008C58.0438 91.0417 58.1225 91.0305 58.145 90.9856C58.2913 90.4917 58.5613 90.705 58.7751 90.6937C59.5963 90.6713 60.3388 90.0652 61.1713 90.1437C61.3063 90.155 61.4638 90.0203 61.5651 90.1662C61.7676 90.4693 61.7788 89.9305 61.9363 90.0315C62.0713 90.1101 62.2175 89.8968 62.33 90.0203C62.7575 90.4468 63.14 90.2448 63.455 90.0315C63.7475 89.8294 64.0401 89.6049 64.3551 89.7284C64.9626 89.9641 65.4913 89.706 66.0538 89.6386C66.6275 89.56 67.19 89.4253 67.7413 89.2906C67.9663 89.2233 68.2588 89.358 68.3713 88.8978C68.3938 88.808 68.5063 88.8304 68.585 88.8416C68.7763 88.8753 68.9788 88.9876 69.1588 88.9539C69.3276 88.909 69.4513 88.6957 69.6088 88.5947C69.7325 88.5049 69.8788 88.5274 69.9575 88.2692C70.0138 88.0784 70.2275 88.1682 70.4525 88.3365C70.8913 88.6733 71.3525 89.01 71.7463 88.8192C72.095 88.6508 72.4888 88.5947 72.8488 88.46C72.9951 88.4039 73.1525 88.3927 73.2538 88.1345C73.3438 87.91 73.6138 87.8988 73.8275 87.9661C74.1763 88.0784 74.4463 88.0222 74.6375 87.6743C74.705 87.562 74.8063 87.5171 74.9075 87.4722C75.5375 87.2365 76.1451 86.9783 76.7638 86.7314C76.9101 86.6753 77.0338 86.5181 77.2813 86.7538C77.2251 86.3722 77.4276 86.4171 77.5626 86.3834C77.7763 86.3273 78.0351 86.3947 78.2376 86.3273C78.4851 86.2487 78.6875 86.1028 78.8113 85.7885C78.9238 85.5079 79.3176 85.665 79.3963 85.2722C79.4076 85.2048 79.5988 85.3395 79.655 85.2946C79.8688 85.0926 80.2963 85.2273 80.2625 84.6548C80.2625 84.6099 80.3076 84.5762 80.3526 84.5987C80.9038 84.8793 80.9601 84.363 81.1513 84.0824C81.3538 83.7793 81.8488 83.9364 82.1076 83.7231C82.4226 83.4874 82.6025 83.1058 83.0076 83.0384C83.6938 82.8813 84.0313 82.3201 84.4363 81.8935C84.8638 81.4445 85.2013 80.9394 85.4263 80.4006C85.5275 80.1649 85.4375 79.873 85.4938 79.6373C85.5163 79.3792 85.64 79.1434 85.6625 78.8853C85.7188 78.6495 85.7076 78.4138 85.7301 78.1781C85.7526 78.0883 85.595 77.9087 85.91 77.774C85.9775 77.7403 85.9888 77.6505 85.9438 77.6169C85.5838 77.3587 85.595 77.1005 85.91 76.8087C86 76.7301 85.91 76.6179 85.955 76.5168C86.0788 76.2587 85.7638 76.0454 85.6625 75.8097C85.5725 75.5964 85.8875 75.3382 85.3925 75.1474C85.325 75.125 85.325 75.0127 85.3813 74.9791C86.18 74.5188 84.8188 74.0474 85.5501 73.5872C85.0776 73.43 85.6063 73.228 85.5275 73.0933C85.4263 72.8912 85.2913 72.7004 85.2913 72.4984C85.2913 72.2963 85.3026 72.1055 85.2688 71.9035C85.2013 71.5443 85.4038 71.1738 85.01 70.8259C84.8863 70.7136 84.7963 70.4891 85.1563 70.332C85.2238 70.3095 85.2126 70.231 85.1901 70.1748C85.0326 69.782 85.4263 69.2993 86.09 69.1758C86.4838 69.1085 86.9676 69.0973 87.3726 69.1309C87.5751 69.1422 87.71 69.3105 87.8563 69.4228C88.115 69.6024 88.475 69.7708 88.5875 69.9728C88.7563 70.2871 88.6663 70.5565 88.6776 70.8708Z" fill="#B09151"/>
<path d="M52.111 80.1613C70.9792 79.6133 86.0961 73.0403 85.8755 65.4802C85.6549 57.9201 70.1804 52.2357 51.3123 52.7838C32.4441 53.3318 17.3273 59.9048 17.5478 67.4649C17.7684 75.025 33.2429 80.7094 52.111 80.1613Z" fill="#FDF4D8"/>
<path d="M19.8044 69.3442C20.2769 69.7595 20.2318 70.6912 20.8956 71.2187C21.5256 71.7238 22.1668 72.2851 22.8531 72.7902C23.2131 73.0371 23.6069 73.1831 24.0569 73.2392C24.4844 73.3065 24.7318 73.8453 25.2943 73.6096C25.3393 73.5872 25.3956 73.6545 25.4518 73.6882C26.3968 74.1484 27.4543 74.3841 28.3318 74.979C29.3668 75.675 30.5819 75.8546 31.7181 76.2811C33.7656 76.2587 35.6219 77.0781 37.6244 77.3026C38.2544 77.3587 38.8843 77.3587 39.4806 77.7852C39.9868 78.1444 40.7181 77.7179 41.2356 78.2791C41.2806 78.324 41.4044 78.223 41.4944 78.2118C41.7081 78.1781 41.9331 78.0658 42.1131 78.1332C43.2381 78.5148 43.2381 78.5261 44.2281 78.3352C44.3406 78.3128 44.4756 78.5373 44.5993 78.5485C45.1281 78.6159 45.6681 78.672 46.1968 78.6383C46.6806 78.6159 47.1756 78.9302 47.6481 78.4475C47.7494 78.3465 47.9518 78.4363 48.1093 78.4475C48.6156 78.4587 49.1219 78.4924 49.6169 78.4475C50.1906 78.4138 50.7869 78.6159 51.3381 78.1893C51.5744 78.0097 51.9456 78.4812 52.0919 78.3689C52.3619 78.1669 52.6094 78.1107 52.8681 78.1332C53.1269 78.1556 53.3968 78.3352 53.6443 78.3352C53.8693 78.3352 54.0831 78.0995 54.3081 78.0658C54.8706 77.9985 55.4893 78.1669 55.9843 77.8975C56.5131 77.6169 57.0531 77.6393 57.5818 77.5495C58.1331 77.4597 58.7068 77.4822 59.2581 77.3475C59.6856 77.2464 60.1019 77.4148 60.5181 77.4597C60.9456 77.5158 61.3394 77.1117 61.7781 77.5383C61.8006 77.5607 61.8343 77.5271 61.8681 77.5271C62.7231 77.4709 63.5893 77.4822 64.4331 77.3362C65.8956 77.1005 67.3356 76.7413 68.7644 76.3821C69.1693 76.2811 69.5519 76.0117 70.0356 76.2811C70.1369 76.3372 70.2719 76.1689 70.3956 76.2025C70.8569 76.3148 70.9356 75.4729 71.4081 75.6974C71.8356 75.8882 72.1393 75.6076 72.4881 75.5178C72.8818 75.4168 73.2531 75.2484 73.6468 75.125C73.9168 75.0352 74.1306 74.8892 74.2656 74.6086C74.7269 74.9229 75.0081 74.4627 75.4244 74.53C75.7056 74.5749 76.0994 74.5413 76.1894 74.328C76.4031 73.8565 76.8194 73.8453 77.1344 73.632C77.6181 73.3402 78.1919 73.1943 78.5069 72.633C78.6419 72.3973 78.9456 72.3075 79.1931 72.2065C79.4293 72.1167 79.7331 72.1279 79.9469 72.0045C80.3631 71.78 80.7231 71.4881 80.9369 71.0279C81.1056 70.6238 81.7581 70.6463 81.7019 70.0289C81.6906 69.9503 81.8031 69.883 81.8819 69.8605C82.3206 69.737 82.6581 69.5238 82.7369 69.0074C82.7931 68.6034 83.1869 68.3564 83.3894 68.0309C83.4906 67.8513 83.5581 67.6605 83.6481 67.4809C83.7156 67.3013 83.7944 67.1329 83.9294 66.9758C84.0644 66.7625 83.4906 66.5043 83.9294 66.3472C84.1544 66.2461 84.1206 65.9431 84.1206 65.7298C84.1656 65.5053 84.0306 65.2808 84.1094 65.0563C84.2894 64.4614 84.0869 63.8216 83.7494 63.2716C83.4119 62.7103 82.9168 62.2277 82.5006 61.6664C82.1181 61.1838 81.3981 61.0827 81.2631 60.2858C80.6669 60.3531 80.4081 59.7694 79.9018 59.7694C79.5756 59.7919 79.3843 59.6572 79.1706 59.5337C77.7418 58.7368 76.2119 58.0408 74.6031 57.5133C73.5456 57.1541 72.4319 56.9969 71.3406 56.75C71.0369 56.6826 70.7218 56.6602 70.4519 56.3234C70.2606 56.0653 69.8106 55.953 69.4056 56.2C69.3269 56.2449 69.1806 56.2785 69.1468 56.2112C68.6518 55.4591 67.8868 55.9755 67.2793 55.8744C66.0643 55.7061 64.9281 55.1224 63.7019 55.0101C63.4431 54.9877 63.1619 54.7632 62.9031 55.1448C62.7456 54.7744 62.5656 54.9316 62.3069 55.055C62.0369 55.1897 61.6093 55.1673 61.4068 54.9428C61.1256 54.6509 60.8331 54.7183 60.5406 54.6622C60.2368 54.606 59.9106 54.6173 59.6068 54.5724C58.2906 54.404 56.9631 54.2469 55.6356 54.1234C55.3768 54.1009 55.1293 53.9326 54.8593 53.854C54.6006 53.7754 54.3081 53.9775 54.0606 53.6183C53.9706 53.4836 53.7006 53.5846 53.5093 53.5846C52.8456 53.5734 52.1143 53.3825 51.5181 53.6744C50.9331 53.9662 50.2918 53.6519 49.7631 54.1795C49.6168 54.3254 49.3243 54.2019 49.1106 54.2356C48.2331 54.404 47.2881 54.056 46.4669 54.6846C46.1181 54.3591 45.7468 54.4826 45.3868 54.5387C45.1281 54.5836 44.8019 54.4152 44.6219 54.8305C44.5994 54.8754 44.5093 54.8867 44.4531 54.8867C44.1268 54.8305 43.8119 54.6173 43.4631 54.7295C43.1706 54.8193 42.9681 55.0887 42.6418 55.1336C41.4831 55.2795 40.2681 55.0101 39.1318 55.4142C38.7606 55.1673 38.4006 55.2908 38.0406 55.3581C37.4106 55.4816 36.8931 55.9755 36.2406 56.0428C35.6106 56.0989 34.9356 56.1551 34.4294 56.5143C33.5406 57.1204 32.5281 57.199 31.5944 57.5694C31.3581 57.6592 31.1331 57.8949 30.7844 57.6143C30.7056 57.5469 30.4468 57.6816 30.4131 57.8051C30.3343 58.0857 30.1093 58.0072 29.9856 58.1419C29.6593 58.5347 28.8831 57.7827 28.7481 58.6133C28.2981 58.8041 27.8369 58.9837 27.3981 59.197L26.0706 59.8256C25.8568 59.9154 25.7106 60.095 25.3843 59.9827C25.1706 59.9041 24.8218 60.0613 24.7543 60.2746C24.6306 60.7797 24.2256 60.8358 23.9218 61.0378C23.0106 61.6552 22.1556 62.3175 21.3793 63.0134C21.0418 63.3165 20.6256 63.541 20.2881 63.844C20.1081 63.99 20.0069 64.2032 19.9056 64.3941C19.7819 64.5849 19.6581 64.7533 19.4106 64.8655C19.3768 64.8767 19.3656 64.9328 19.3543 64.9665C19.3093 65.1461 19.3656 65.3482 19.2868 65.4829C19.1743 65.6625 18.7918 65.8308 18.8931 65.9992C19.0843 66.291 18.7806 66.3696 18.7131 66.5492C18.5556 67.0207 17.8693 67.4135 17.0031 67.3798C16.8118 67.3686 16.6094 67.29 16.4631 67.1778C15.5631 66.437 15.5743 66.3472 15.8218 65.1349C16.2156 63.5522 17.4419 62.5981 18.1844 61.4644C19.1294 61.1164 19.5568 60.2746 20.3218 59.8031C21.0981 59.3092 22.0543 59.1296 22.6393 58.4337C23.2243 57.749 24.0006 57.3786 24.7543 57.0081C25.3281 56.7163 25.9919 56.6265 26.5881 56.402C27.2069 56.1887 27.7806 55.7959 28.4331 55.6948C28.8381 55.6275 29.3331 55.7622 29.6256 55.4703C30.2669 54.8193 31.1894 54.8867 31.8981 54.4489C32.8994 53.854 34.0468 53.7417 35.0818 53.304C35.6443 53.0682 36.1956 52.8101 36.7918 52.7091C37.0618 52.6529 37.3206 52.5856 37.6468 52.7091C37.9843 52.8325 38.4118 52.7652 38.7268 52.4284C38.8618 52.2937 39.0981 52.159 39.2444 52.2376C39.8519 52.5407 40.4031 52.2825 40.9543 52.1815C41.3031 52.1254 41.7531 52.4397 41.9443 52.2488C42.2593 51.9345 42.6081 52.0019 42.9344 51.9345C43.1706 51.8784 43.4293 51.7325 43.6768 52.0356C43.7443 52.1141 43.9806 52.1141 44.0368 52.0356C44.3856 51.5417 44.8694 51.7213 45.3081 51.6651C46.3431 51.5304 47.3894 51.4406 48.4356 51.4182C49.3019 51.3845 50.1118 50.8794 50.9893 51.0253C51.5068 50.5651 52.1143 50.7559 52.6768 50.7447C53.1156 50.7335 53.5431 50.9019 53.9706 50.9804C54.3981 51.0702 54.8256 50.9804 55.2756 51.1937C55.8269 51.4519 56.5019 51.2386 57.1206 51.3172C57.4581 51.3509 57.8406 51.1264 58.1219 51.5641C58.1556 51.6203 58.3131 51.6203 58.3806 51.5641C58.8531 51.1488 59.4044 51.306 59.7868 51.508C60.4056 51.8447 61.0356 51.7662 61.6543 51.8672C62.1718 51.957 62.7006 51.957 63.2068 52.0468C63.5781 52.1254 63.9494 52.0805 64.3094 52.3162C64.5906 52.4958 65.0181 52.3162 65.3781 52.3386C65.7381 52.3611 66.0869 52.4397 66.4469 52.4958L67.6056 52.6978L68.7644 52.9223C69.1806 53.0009 69.6081 53.0682 70.0131 53.2029C70.3956 53.3264 70.7444 53.5958 71.1269 53.7081C72.1956 54.0224 73.3994 53.8764 74.4344 54.3928C74.8281 54.1795 75.0419 54.505 75.3231 54.6622C75.5819 54.8193 75.8631 55.055 76.2569 54.853C76.3694 54.7969 76.5043 54.8754 76.6281 54.8979C76.9093 54.954 77.0106 55.3244 77.4043 55.2346C77.6856 55.1785 77.9556 55.4591 78.2369 55.5489C78.5406 55.6387 78.7656 56.0091 79.1819 55.751C79.4181 56.5255 80.3068 55.9642 80.6781 56.4806C80.7906 56.649 80.9369 56.7724 81.0719 56.9183C81.1394 56.9857 81.1843 57.1092 81.2743 57.1316C82.8606 57.4571 83.9068 58.7704 85.0993 59.8705C85.2456 60.0052 85.4706 60.0725 85.6506 60.196C85.7294 60.2633 85.8081 60.3419 85.8531 60.4317C86.2356 61.3185 86.2131 61.296 86.8544 61.992C87.0006 62.1828 87.0794 62.4185 87.1919 62.643C87.4844 63.2267 87.5519 63.8553 87.9006 64.4951C88.2494 65.1798 87.7994 65.988 87.4844 66.6166C87.2256 67.2003 86.8769 67.6941 86.6744 68.2666C86.1344 69.7371 85.1894 70.9157 84.1769 71.8922C84.0531 72.0157 83.8056 72.1167 83.8056 72.2626C83.8168 72.88 83.7043 73.3402 82.9281 73.0035C82.8943 72.9922 82.7818 73.082 82.7818 73.1382C82.8043 73.7219 82.2981 73.8116 81.9831 74.0249C80.7569 74.8219 79.7669 75.978 78.3719 76.4495C78.1469 76.528 77.9219 76.775 77.7306 76.6852C77.3256 76.5056 77.4269 77.0444 77.1456 77.0444C76.9206 77.0444 76.7068 77.3362 76.4931 77.2801C75.7168 77.0781 75.1319 77.4709 74.6368 77.8301C74.1756 78.1669 73.6806 78.5036 73.1631 78.5148C72.1281 78.5148 71.2506 78.9302 70.3169 79.1659L67.4369 79.8955C67.0431 80.0077 66.5818 79.8955 66.3006 80.3894C66.2443 80.4904 66.0531 80.4792 65.9181 80.4792C65.6031 80.4792 65.2769 80.3669 64.9844 80.423C64.6919 80.4792 64.4219 80.7037 64.1294 80.8271C63.8931 80.9169 63.6568 80.9057 63.4431 81.1639C63.2856 81.3547 62.9481 81.2761 62.6219 81.0965C61.9806 80.7373 61.3281 80.3782 60.6194 80.5578C59.9894 80.7037 59.3256 80.7261 58.6844 80.8047C58.4144 80.8384 58.1556 80.8384 57.8856 81.0741C57.6381 81.2986 57.1881 81.2537 56.8618 81.1414C56.3443 80.9618 55.8831 80.9731 55.4106 81.2537C55.2419 81.3547 55.0393 81.3659 54.8593 81.3772C53.7231 81.4557 52.5756 81.5006 51.4281 81.5231C51.1581 81.5231 50.8656 81.6129 50.6294 81.2986C50.4494 81.6802 50.1568 81.5568 49.9206 81.5231C49.5493 81.4782 49.1893 81.321 48.8293 81.2874C48.3906 81.2537 47.9744 81.2649 47.5244 81.4894C47.1194 81.6915 46.6468 81.3323 46.1968 81.6241C46.1181 81.6802 45.9493 81.4557 45.8256 81.467C45.3193 81.5231 44.8131 81.1527 44.3181 81.6353C44.2731 81.6802 44.1719 81.669 44.1269 81.6241C43.5869 81.0741 43.0018 81.4221 42.4168 81.5006C41.7868 81.6017 41.2581 81.119 40.6618 81.0629C39.9756 81.0067 39.2444 81.0629 38.6256 80.7822C37.5569 80.2771 36.4319 80.2771 35.3406 80.0302L31.9768 79.2893C31.4931 79.1883 30.9644 79.2332 30.4694 79.1322C29.9181 79.0312 29.3893 78.8291 28.8493 78.6495C28.3431 78.4924 27.8369 78.3128 27.3419 78.122C27.1056 78.0322 26.8019 78.0658 26.7119 77.6842C26.6894 77.6056 26.5656 77.5271 26.4868 77.5495C25.9356 77.7179 25.5306 77.5046 25.2268 77.0332C25.1368 76.8985 24.9344 76.8985 24.8106 76.7862C24.4731 76.4832 23.9893 76.6066 23.5843 76.4944C23.2018 76.3934 22.9768 75.9219 22.4481 76.1576C22.3806 76.1913 22.2119 76.1015 22.1894 76.0117C21.9644 74.9454 20.4681 75.5627 20.2656 74.4739C19.7256 74.6535 19.8043 74.0137 19.5681 73.9127C19.2193 73.7667 18.8818 73.5872 18.6006 73.3178C18.3418 73.0596 18.1168 72.7453 17.8468 72.4984C17.3631 71.982 17.1381 71.3085 16.4743 70.8371C16.2606 70.6687 15.9456 70.2758 16.2043 69.8381C16.2493 69.7595 16.1818 69.6136 16.1368 69.5238C15.9231 69.1646 15.9118 68.6707 16.0018 68.2778C16.1256 67.8737 16.3731 67.5707 16.6993 67.4696C17.0818 67.3462 17.5656 67.3574 17.9818 67.4135C18.1843 67.436 18.3419 67.6717 18.4994 67.8064C18.7806 68.0309 19.1856 68.1656 19.3431 68.3676C19.4556 68.4911 19.5118 68.6258 19.5456 68.7829C19.6693 68.9962 19.7369 69.1646 19.8044 69.3442Z" fill="#B09151"/>
<path d="M86.9223 44.3008L87.1811 53.1796C87.4061 60.7451 72.2861 67.3116 53.4198 67.8616C34.5536 68.4116 19.0736 62.7319 18.8486 55.1664L18.5898 46.2876" fill="#FDF4D8"/>
<path d="M88.6776 45.9846C88.9026 46.4784 88.3288 47.0285 88.4413 47.5897C88.5538 48.1509 88.5088 48.7234 88.5088 49.2959C88.5088 49.5877 88.6101 49.8571 88.7901 50.1265C88.9588 50.3959 88.5988 50.7102 89.0825 50.9571C89.1275 50.9796 89.0938 51.0357 89.0938 51.0694C89.1163 51.7653 89.3413 52.45 89.1051 53.1347C88.8351 54.1674 88.835 55.1664 88.3738 56.0532C88.3625 56.895 87.9913 57.6359 87.53 58.2532C87.0688 58.8818 86.5176 59.3757 86.0451 59.937C85.7413 60.2625 85.4826 60.6778 84.9088 60.7002C84.425 60.7115 84.4026 61.4298 83.7613 61.239C83.7051 61.2278 83.7163 61.3625 83.6826 61.4186C83.6038 61.5421 83.5701 61.7441 83.4351 61.7778C82.6251 61.9686 82.6363 61.9799 82.22 62.5299C82.175 62.5972 81.9726 62.4625 81.8938 62.4962C81.5788 62.6534 81.2526 62.8105 80.9713 63.0125C80.7126 63.2034 80.2851 63.1023 80.2401 63.6636C80.2288 63.7871 80.0713 63.7646 79.97 63.8095C79.6663 63.9554 79.3626 64.0901 79.0813 64.2585C78.7551 64.4493 78.3163 64.4156 78.1475 64.9432C78.0688 65.1677 77.6638 64.8197 77.6188 64.9544C77.5288 65.2014 77.3938 65.3024 77.2138 65.3361C77.0451 65.3698 76.82 65.2575 76.6625 65.3136C76.5275 65.3585 76.4713 65.6167 76.3363 65.6841C75.9988 65.8524 75.5713 65.8075 75.3238 66.1218C75.0651 66.4586 74.7163 66.5259 74.3788 66.6606C74.0413 66.8065 73.6588 66.8514 73.3325 67.0198C73.0738 67.1545 72.7701 67.0198 72.4776 66.9861C72.1963 66.9524 71.9938 67.3678 71.6338 66.9524C71.6226 66.93 71.6 66.9637 71.5775 66.9637C71.0263 67.0198 70.4525 67.031 69.9238 67.1433C68.99 67.3229 68.0788 67.581 67.145 67.7494C66.8863 67.8055 66.6388 68.0076 66.3126 67.6596C66.2451 67.5923 66.1551 67.727 66.0763 67.6821C65.7838 67.5025 65.7163 68.2994 65.4013 67.9964C65.1313 67.727 64.9288 67.9402 64.6926 67.9402C64.4338 67.9515 64.175 68.03 63.9163 68.0525C63.7363 68.0637 63.5901 68.1535 63.4663 68.3892C63.2076 67.9627 62.9713 68.3106 62.7125 68.131C62.5438 68.0076 62.2851 67.9066 62.2063 68.0862C62.0038 68.4678 61.7338 68.3331 61.4976 68.4004C61.1376 68.5015 60.7551 68.4005 60.4401 68.7709C60.3051 68.928 60.0913 68.8607 59.9113 68.8382C59.7425 68.8158 59.5625 68.6474 59.3938 68.6474C59.09 68.6362 58.7863 68.6923 58.5051 68.9617C58.2575 69.1974 57.8975 68.7933 57.6725 69.2984C57.6388 69.3658 57.5488 69.3546 57.4926 69.3209C57.1888 69.1413 56.9188 69.0515 56.615 69.3433C56.3675 69.579 56.0188 69.4219 55.7263 69.4444C55.4113 69.4668 55.085 69.579 54.77 69.4556C54.5675 69.3882 54.4888 70.028 54.2413 69.6352C54.1063 69.4219 53.8588 69.5454 53.6675 69.5341C53.465 69.5229 53.2626 69.6239 53.0713 69.5341C52.0588 69.0403 51.0575 69.478 50.045 69.2984C49.6175 69.2199 49.1676 69.6015 48.7738 69.029C48.4588 69.4444 48.1101 69.0739 47.8063 69.3433C47.6151 69.5229 47.4575 69.4893 47.2888 69.4893C46.1863 69.4668 45.0838 69.3545 43.9701 69.2984C43.2388 69.276 42.4963 69.3546 41.765 69.3209C41.5625 69.3097 41.3488 69.3433 41.1576 69.0515C41.0226 68.8382 40.7301 68.7821 40.4713 69.0852C40.4263 69.1413 40.325 69.1862 40.3025 69.1413C39.9763 68.479 39.4813 69.0515 39.0651 69.0178C38.2551 68.9505 37.5575 68.4341 36.7588 68.3331C36.59 68.3106 36.4326 68.0862 36.2188 68.4678C36.1513 68.0974 36.0276 68.2433 35.8363 68.3668C35.6451 68.4902 35.3638 68.4566 35.2625 68.2321C35.1275 67.929 34.9251 67.9851 34.7451 67.9066C34.5538 67.828 34.3513 67.828 34.1488 67.7606C33.3276 67.4912 32.5175 67.1994 31.73 66.8626C31.5725 66.7953 31.46 66.6045 31.325 66.4922C31.19 66.38 30.9538 66.5035 30.9088 66.1218C30.8863 65.9759 30.695 66.0208 30.5825 65.9871C30.1775 65.8636 29.8176 65.5157 29.3676 65.6504C28.9176 65.7851 28.6588 65.3361 28.1526 65.6728C28.0063 65.7738 27.8938 65.5718 27.7476 65.5494C27.1626 65.4596 26.7913 64.831 26.0375 65.1116C25.9925 64.7075 25.745 64.6626 25.52 64.584C25.3513 64.5279 25.2613 64.2697 24.9575 64.5503C24.9238 64.584 24.8676 64.5503 24.8451 64.5279C24.6988 64.3483 24.6426 64.034 24.4063 63.9891C24.2038 63.9554 23.9451 64.0789 23.7538 63.9667C23.0676 63.5513 22.6626 62.7656 21.9088 62.4401C21.9201 62.0584 21.6838 61.9686 21.5038 61.8003C21.1888 61.5084 20.6038 61.5533 20.3338 61.1492C20.075 60.79 19.8388 60.3747 19.4001 60.1951C18.6463 59.8584 18.3763 59.0839 17.9713 58.4216C17.8701 58.2532 17.6338 58.0961 17.9038 57.7818C17.9713 57.7145 17.8588 57.5236 17.735 57.5012C17.465 57.4563 17.5551 57.2655 17.4313 57.1644C17.0713 56.8614 17.9601 56.3114 17.1838 56.0981L17.1276 55.4919C17.1051 55.2787 17.0938 55.0878 17.0938 54.9419C17.0826 54.6276 17.06 54.3133 17.0713 53.999C17.0713 53.8531 16.9925 53.7072 17.24 53.5501C17.4088 53.4378 17.4313 53.2021 17.2738 53.1011C16.9026 52.8766 17.0488 52.6184 17.0263 52.3827C16.9813 51.6531 16.9476 50.9347 16.9701 50.2051C16.9813 49.8908 17.1163 49.5653 17.195 49.2397C17.2738 48.9142 17.0038 48.5887 17.33 48.2632C17.3525 48.2407 17.3413 48.2071 17.33 48.1846C17.2738 48.0611 17.15 47.9377 17.1725 47.803C17.195 47.6346 17.51 47.4101 17.3638 47.3315C17.0825 47.1519 17.3863 47.0285 17.4088 46.8825C17.4876 46.4784 18.185 46.2091 19.0513 46.2315C19.2425 46.2315 19.445 46.2764 19.6025 46.3325C20.5363 46.6693 20.4913 46.6693 20.57 47.253C20.66 47.9826 20.1425 48.7234 20.3563 49.453C19.895 49.9469 20.2213 50.452 20.1313 50.9459C20.0413 51.4622 19.6588 52.001 19.9513 52.4949C20.2438 52.9888 20.1988 53.4827 20.1988 53.9766C20.1988 54.347 20.0301 54.7399 19.9963 55.1103C19.9851 55.4246 20.1313 55.7164 20.0863 56.042C20.0413 56.244 19.8388 56.5471 20.0638 56.6705C20.5701 56.9063 20.4575 57.4226 20.8625 57.6808C21.4025 57.9951 21.6275 58.5563 22.1788 58.8482C22.4825 58.9941 22.7638 59.1288 23.0113 59.3308C23.1238 59.4318 23.2363 59.5104 23.2363 59.7574C23.2475 60.0043 23.45 60.1502 23.765 60.0604C23.9 60.0155 24.0576 60.038 24.0576 60.1615C24.0801 60.6553 24.4513 60.7002 24.7213 60.8574C24.9013 60.9472 24.9013 61.385 25.0813 61.3176C25.3963 61.1941 25.4863 61.3962 25.6775 61.4523C25.8125 61.4972 26.0038 61.4635 25.9475 61.8115C25.9363 61.9125 26.0375 61.9911 26.1163 61.9462C26.5213 61.6656 26.6563 61.9686 26.8925 62.0584C27.4438 62.2942 27.995 62.5187 28.5463 62.7881C29.0075 62.9901 29.6151 62.7207 30.0313 63.0574C30.4701 62.7319 30.7175 63.035 31.0213 63.1472C31.2575 63.2258 31.4488 63.4503 31.6625 63.6075C31.8763 63.7646 32.1351 63.7646 32.3376 64.0228C32.5851 64.3483 33.0238 64.2473 33.3613 64.382C33.5525 64.4493 33.8225 64.2697 33.89 64.7187C33.9013 64.7748 33.9913 64.7973 34.0363 64.7412C34.3963 64.3707 34.6776 64.5728 34.8688 64.7861C35.1726 65.1453 35.5663 65.1004 35.915 65.2238C36.2075 65.3249 36.5226 65.3249 36.8151 65.4259C37.0288 65.4932 37.2538 65.4483 37.4563 65.6728C37.6025 65.8412 37.8838 65.6504 38.0975 65.6504C38.3113 65.6616 38.5138 65.7177 38.7275 65.7514L39.4138 65.8524L40.1 65.9534C40.3475 65.9871 40.6063 65.9871 40.8426 66.0657C41.0676 66.133 41.2813 66.3463 41.5175 66.3912C42.1813 66.5259 42.8788 66.1106 43.52 66.3575C43.7338 66.0545 43.88 66.3014 44.0713 66.38C44.24 66.4473 44.4313 66.6045 44.6338 66.2902C44.69 66.2004 44.7801 66.2341 44.8475 66.2116C45.0163 66.1779 45.1288 66.4922 45.3313 66.279C45.4775 66.1218 45.6688 66.3014 45.8488 66.2677C46.0288 66.2453 46.2201 66.4922 46.4001 66.0881C46.6813 66.7167 47.0413 65.7963 47.3451 66.0881C47.4463 66.1779 47.5476 66.2228 47.6488 66.279C47.7051 66.3126 47.7613 66.3912 47.8063 66.3688C48.6726 65.8524 49.5163 66.3126 50.3713 66.1667C50.4726 66.1443 50.5738 66.032 50.6863 65.9759C50.7313 65.9534 50.7876 65.931 50.8438 65.9647C51.305 66.1892 51.3051 66.1779 51.7438 65.9534C51.8563 65.8973 51.9688 65.9422 52.0813 65.9085C52.3738 65.8412 52.6663 65.9422 52.9588 65.6728C53.2513 65.4147 53.6 65.8524 53.9263 66.0432C54.2188 66.2116 54.5 66.3912 54.8038 66.3688C55.58 66.279 56.3563 66.2677 57.1213 66.2116C57.2226 66.2004 57.3576 66.2902 57.4026 66.1779C57.5938 65.7177 57.7513 65.3922 58.0326 66.133C58.0438 66.1667 58.1225 66.1555 58.145 66.1106C58.2913 65.6167 58.5613 65.83 58.7751 65.8187C59.5963 65.7963 60.3388 65.1902 61.1713 65.2687C61.3063 65.28 61.4638 65.1453 61.5651 65.2912C61.7676 65.5942 61.7788 65.0555 61.9363 65.1565C62.0713 65.2351 62.2175 65.0218 62.33 65.1453C62.7575 65.5718 63.14 65.3698 63.455 65.1565C63.7475 64.9544 64.0401 64.7299 64.3551 64.8534C64.9626 65.0891 65.4913 64.831 66.0538 64.7636C66.6275 64.685 67.19 64.5503 67.7413 64.4156C67.9663 64.3483 68.2588 64.483 68.3713 64.0228C68.3938 63.933 68.5063 63.9554 68.585 63.9667C68.7763 64.0003 68.9788 64.1126 69.1588 64.0789C69.3276 64.034 69.4513 63.8207 69.6088 63.7197C69.7325 63.6299 69.8788 63.6524 69.9575 63.3942C70.0138 63.2034 70.2275 63.2932 70.4525 63.4615C70.8913 63.7983 71.3525 64.135 71.7463 63.9442C72.095 63.7758 72.4888 63.7197 72.8488 63.585C72.9951 63.5289 73.1525 63.5177 73.2538 63.2595C73.3438 63.035 73.6138 63.0238 73.8275 63.0911C74.1763 63.2034 74.4463 63.1472 74.6375 62.7993C74.705 62.687 74.8063 62.6421 74.9075 62.5972C75.5375 62.3615 76.1451 62.1033 76.7638 61.8564C76.9101 61.8003 77.0338 61.6431 77.2813 61.8788C77.2251 61.4972 77.4276 61.5421 77.5626 61.5084C77.7763 61.4523 78.0351 61.5197 78.2376 61.4523C78.4851 61.3737 78.6875 61.2278 78.8113 60.9135C78.9238 60.6329 79.3176 60.79 79.3963 60.3972C79.4076 60.3298 79.5988 60.4645 79.655 60.4196C79.8688 60.2176 80.2963 60.3523 80.2625 59.7798C80.2625 59.7349 80.3076 59.7012 80.3526 59.7237C80.9038 60.0043 80.9601 59.488 81.1513 59.2073C81.3538 58.9043 81.8488 59.0614 82.1076 58.8482C82.4226 58.6124 82.6025 58.2308 83.0076 58.1634C83.6938 58.0063 84.0313 57.4451 84.4363 57.0185C84.8638 56.5695 85.2013 56.0644 85.4263 55.5256C85.5275 55.2899 85.4375 54.9981 85.4938 54.7623C85.5163 54.5042 85.64 54.2684 85.6625 54.0103C85.7188 53.7746 85.7076 53.5388 85.7301 53.3031C85.7526 53.2133 85.595 53.0337 85.91 52.899C85.9775 52.8653 85.9888 52.7755 85.9438 52.7419C85.5838 52.4837 85.595 52.2255 85.91 51.9337C86 51.8551 85.91 51.7429 85.955 51.6418C86.0788 51.3837 85.7638 51.1704 85.6625 50.9347C85.5725 50.7214 85.8875 50.4632 85.3925 50.2724C85.325 50.25 85.325 50.1377 85.3813 50.104C86.18 49.6438 84.8188 49.1724 85.5501 48.7122C85.0776 48.555 85.6063 48.353 85.5275 48.2183C85.4263 48.0162 85.2913 47.8254 85.2913 47.6234C85.2913 47.4213 85.3026 47.2305 85.2688 47.0285C85.2013 46.6693 85.4038 46.2988 85.01 45.9509C84.8863 45.8386 84.7963 45.6141 85.1563 45.457C85.2238 45.4345 85.2126 45.356 85.1901 45.2998C85.0326 44.907 85.4263 44.4243 86.09 44.3008C86.4838 44.2335 86.9676 44.2223 87.3726 44.2559C87.5751 44.2672 87.71 44.4355 87.8563 44.5478C88.115 44.7274 88.475 44.8957 88.5875 45.0978C88.7563 45.4009 88.6663 45.6703 88.6776 45.9846Z" fill="#B09151"/>
<path d="M52.113 55.2743C70.9812 54.7263 86.098 48.1533 85.8774 40.5932C85.6569 33.0332 70.1824 27.3488 51.3142 27.8968C32.446 28.4449 17.3292 35.0178 17.5498 42.5779C17.7704 50.138 33.2448 55.8224 52.113 55.2743Z" fill="#FDF4D8"/>
<path d="M19.8044 44.458C20.2769 44.8733 20.2318 45.8049 20.8956 46.3325C21.5256 46.8376 22.1668 47.3988 22.8531 47.904C23.2131 48.1509 23.6069 48.2968 24.0569 48.353C24.4844 48.4203 24.7318 48.9591 25.2943 48.7234C25.3393 48.7009 25.3956 48.7683 25.4518 48.8019C26.3968 49.2622 27.4543 49.4979 28.3318 50.0928C29.3668 50.7887 30.5819 50.9683 31.7181 51.3949C33.7656 51.3724 35.6219 52.1918 37.6244 52.4275C38.2544 52.4837 38.8843 52.4837 39.4806 52.9102C39.9868 53.2694 40.7181 52.8429 41.2356 53.4041C41.2806 53.449 41.4044 53.348 41.4944 53.3368C41.7081 53.3031 41.9331 53.1908 42.1131 53.2582C43.2381 53.6398 43.2381 53.651 44.2281 53.4602C44.3406 53.4378 44.4756 53.6623 44.5993 53.6735C45.1281 53.7409 45.6681 53.797 46.1968 53.7633C46.6806 53.7409 47.1756 54.0551 47.6481 53.5725C47.7494 53.4715 47.9518 53.5613 48.1093 53.5725C48.6156 53.5837 49.1219 53.6174 49.6169 53.5725C50.1906 53.5388 50.7869 53.7409 51.3381 53.3143C51.5744 53.1347 51.9456 53.6062 52.0919 53.4939C52.3619 53.2919 52.6094 53.2357 52.8681 53.2582C53.1269 53.2806 53.3968 53.4602 53.6443 53.4602C53.8693 53.4602 54.0831 53.2245 54.3081 53.1908C54.8706 53.1235 55.4893 53.2919 55.9843 53.0225C56.5131 52.7418 57.0531 52.7643 57.5818 52.6745C58.1331 52.5847 58.7068 52.6071 59.2581 52.4725C59.6856 52.3714 60.1019 52.5398 60.5181 52.5847C60.9456 52.6296 61.3394 52.2367 61.7781 52.6633C61.8006 52.6857 61.8343 52.6521 61.8681 52.6521C62.7231 52.5959 63.5893 52.6071 64.4331 52.4612C65.8956 52.2255 67.3356 51.8663 68.7644 51.5071C69.1693 51.4061 69.5519 51.1367 70.0356 51.4061C70.1369 51.4622 70.2719 51.2939 70.3956 51.3275C70.8569 51.4398 70.9356 50.5979 71.4081 50.8224C71.8356 51.0132 72.1393 50.7326 72.4881 50.6428C72.8818 50.5418 73.2531 50.3734 73.6468 50.2499C73.9168 50.1601 74.1306 50.0142 74.2656 49.7336C74.7269 50.0479 75.0081 49.5877 75.4244 49.655C75.7056 49.6999 76.0994 49.6663 76.1894 49.453C76.4031 48.9815 76.8194 48.9703 77.1344 48.757C77.6181 48.4652 78.1919 48.3193 78.5069 47.758C78.6419 47.5223 78.9456 47.4325 79.1931 47.3315C79.4293 47.2417 79.7331 47.2529 79.9469 47.1294C80.3631 46.905 80.7231 46.6131 80.9369 46.1529C81.1056 45.7488 81.7581 45.7713 81.7019 45.1539C81.6906 45.0753 81.8031 45.008 81.8819 44.9855C82.3206 44.862 82.6581 44.6488 82.7369 44.1324C82.7931 43.7283 83.1869 43.4814 83.3894 43.1559C83.4906 42.9763 83.5581 42.7855 83.6481 42.6059C83.7156 42.4263 83.7944 42.2579 83.9294 42.1008C84.0644 41.8875 83.4906 41.6293 83.9294 41.4722C84.1544 41.3711 84.1206 41.0681 84.1206 40.8548C84.1656 40.6303 84.0306 40.4058 84.1094 40.1813C84.2894 39.5864 84.0869 38.9466 83.7494 38.3966C83.4119 37.8353 82.9168 37.3527 82.5006 36.7914C82.1181 36.3088 81.3981 36.2077 81.2631 35.4108C80.6669 35.4781 80.4081 34.8944 79.9018 34.8944C79.5756 34.9169 79.3843 34.7822 79.1706 34.6587C77.7418 33.8618 76.2119 33.1658 74.6031 32.6383C73.5456 32.2791 72.4319 32.1219 71.3406 31.875C71.0369 31.8076 70.7218 31.7852 70.4519 31.4484C70.2606 31.1903 69.8106 31.078 69.4056 31.325C69.3269 31.3699 69.1806 31.4035 69.1468 31.3362C68.6518 30.5841 67.8868 31.1005 67.2793 30.9994C66.0643 30.8311 64.9281 30.2474 63.7019 30.1351C63.4431 30.1127 63.1619 29.8882 62.9031 30.2698C62.7456 29.8994 62.5656 30.0566 62.3069 30.18C62.0369 30.3147 61.6093 30.2923 61.4068 30.0678C61.1256 29.7759 60.8331 29.8433 60.5406 29.7872C60.2368 29.731 59.9106 29.7423 59.6068 29.6974C58.2906 29.529 56.9631 29.3718 55.6356 29.2484C55.3768 29.2259 55.1293 29.0575 54.8593 28.979C54.6006 28.9004 54.3081 29.1024 54.0606 28.7433C53.9706 28.6086 53.7006 28.7096 53.5093 28.7096C52.8456 28.6984 52.1143 28.5075 51.5181 28.7994C50.9331 29.0912 50.2918 28.7769 49.7631 29.3045C49.6168 29.4504 49.3243 29.3269 49.1106 29.3606C48.2331 29.529 47.2881 29.181 46.4669 29.8096C46.1181 29.4841 45.7468 29.6076 45.3868 29.6637C45.1281 29.7086 44.8019 29.5402 44.6219 29.9555C44.5994 30.0004 44.5093 30.0117 44.4531 30.0117C44.1268 29.9555 43.8119 29.7423 43.4631 29.8545C43.1706 29.9443 42.9681 30.2137 42.6418 30.2586C41.4831 30.4045 40.2681 30.1351 39.1318 30.5392C38.7606 30.2923 38.4006 30.4158 38.0406 30.4831C37.4106 30.6066 36.8931 31.1005 36.2406 31.1678C35.6106 31.2239 34.9356 31.2801 34.4294 31.6393C33.5406 32.2454 32.5281 32.324 31.5944 32.6944C31.3581 32.7842 31.1331 33.0199 30.7844 32.7393C30.7056 32.6719 30.4468 32.8066 30.4131 32.9301C30.3343 33.2107 30.1093 33.1321 29.9856 33.2668C29.6593 33.6597 28.8831 32.9076 28.7481 33.7383C28.2981 33.9291 27.8369 34.1087 27.3981 34.322L26.0706 34.9506C25.8568 35.0404 25.7106 35.22 25.3843 35.1077C25.1706 35.0291 24.8218 35.1863 24.7543 35.3996C24.6306 35.9047 24.2256 35.9608 23.9218 36.1628C23.0106 36.7802 22.1556 37.4425 21.3793 38.1384C21.0418 38.4415 20.6256 38.666 20.2881 38.969C20.1081 39.115 20.0069 39.3282 19.9056 39.519C19.7819 39.7099 19.6581 39.8782 19.4106 39.9905C19.3768 40.0017 19.3656 40.0578 19.3543 40.0915C19.3093 40.2711 19.3656 40.4732 19.2868 40.6079C19.1743 40.7875 18.7918 40.9558 18.8931 41.1242C19.0843 41.416 18.7806 41.4946 18.7131 41.6742C18.5556 42.1456 17.8693 42.5385 17.0031 42.5048C16.8118 42.4936 16.6094 42.415 16.4631 42.3028C15.5631 41.562 15.5743 41.4722 15.8218 40.2599C16.2156 38.6772 17.4419 37.7231 18.1844 36.5894C19.1294 36.2414 19.5568 35.3996 20.3218 34.9281C21.0981 34.4342 22.0543 34.2546 22.6393 33.5587C23.2243 32.874 24.0006 32.5036 24.7543 32.1331C25.3281 31.8413 25.9919 31.7515 26.5881 31.527C27.2069 31.3137 27.7806 30.9209 28.4331 30.8198C28.8381 30.7525 29.3331 30.8872 29.6256 30.5953C30.2669 29.9443 31.1894 30.0117 31.8981 29.5739C32.8994 28.979 34.0468 28.8667 35.0818 28.429C35.6443 28.1932 36.1956 27.9351 36.7918 27.8341C37.0618 27.7779 37.3206 27.7106 37.6468 27.8341C37.9843 27.9575 38.4118 27.8902 38.7268 27.5534C38.8618 27.4187 39.0981 27.284 39.2444 27.3626C39.8519 27.6657 40.4031 27.4075 40.9543 27.3065C41.3031 27.2504 41.7531 27.5647 41.9443 27.3738C42.2593 27.0595 42.6081 27.1269 42.9344 27.0595C43.1706 27.0034 43.4293 26.8575 43.6768 27.1606C43.7443 27.2391 43.9806 27.2391 44.0368 27.1606C44.3856 26.6667 44.8694 26.8463 45.3081 26.7901C46.3431 26.6554 47.3894 26.5656 48.4356 26.5432C49.3019 26.5095 50.1118 26.0044 50.9893 26.1503C51.5068 25.6901 52.1143 25.8809 52.6768 25.8697C53.1156 25.8585 53.5431 26.0269 53.9706 26.1054C54.3981 26.1952 54.8256 26.1054 55.2756 26.3187C55.8269 26.5769 56.5019 26.3636 57.1206 26.4422C57.4581 26.4758 57.8406 26.2514 58.1219 26.6891C58.1556 26.7452 58.3131 26.7452 58.3806 26.6891C58.8531 26.2738 59.4044 26.431 59.7868 26.633C60.4056 26.9697 61.0356 26.8912 61.6543 26.9922C62.1718 27.082 62.7006 27.082 63.2068 27.1718C63.5781 27.2504 63.9494 27.2055 64.3094 27.4412C64.5906 27.6208 65.0181 27.4412 65.3781 27.4636C65.7381 27.4861 66.0869 27.5647 66.4469 27.6208L67.6056 27.8228L68.7644 28.0473C69.1806 28.1259 69.6081 28.1932 70.0131 28.3279C70.3956 28.4514 70.7444 28.7208 71.1269 28.8331C72.1956 29.1474 73.3994 29.0014 74.4344 29.5178C74.8281 29.3045 75.0419 29.63 75.3231 29.7872C75.5819 29.9443 75.8631 30.18 76.2569 29.978C76.3694 29.9219 76.5043 30.0004 76.6281 30.0229C76.9093 30.079 77.0106 30.4494 77.4043 30.3596C77.6856 30.3035 77.9556 30.5841 78.2369 30.6739C78.5406 30.7637 78.7656 31.1341 79.1819 30.876C79.4181 31.6505 80.3068 31.0892 80.6781 31.6056C80.7906 31.774 80.9369 31.8974 81.0719 32.0433C81.1394 32.1107 81.1843 32.2342 81.2743 32.2566C82.8606 32.5821 83.9068 33.8954 85.0993 34.9955C85.2456 35.1302 85.4706 35.1975 85.6506 35.321C85.7294 35.3883 85.8081 35.4669 85.8531 35.5567C86.2356 36.4435 86.2131 36.421 86.8544 37.1169C87.0006 37.3078 87.0794 37.5435 87.1919 37.768C87.4844 38.3517 87.5519 38.9803 87.9006 39.6201C88.2494 40.3048 87.7994 41.113 87.4844 41.7416C87.2256 42.3252 86.8769 42.8191 86.6744 43.3916C86.1344 44.862 85.1894 46.0406 84.1769 47.0172C84.0531 47.1407 83.8056 47.2417 83.8056 47.3876C83.8168 48.005 83.7043 48.4652 82.9281 48.1285C82.8943 48.1172 82.7818 48.207 82.7818 48.2632C82.8043 48.8468 82.2981 48.9366 81.9831 49.1499C80.7569 49.9469 79.7669 51.103 78.3719 51.5745C78.1469 51.653 77.9219 51.9 77.7306 51.8102C77.3256 51.6306 77.4269 52.1694 77.1456 52.1694C76.9206 52.1694 76.7068 52.4612 76.4931 52.4051C75.7168 52.2031 75.1319 52.5959 74.6368 52.9551C74.1756 53.2919 73.6806 53.6286 73.1631 53.6398C72.1281 53.6398 71.2506 54.0551 70.3169 54.2909L67.4369 55.0205C67.0431 55.1327 66.5818 55.0205 66.3006 55.5144C66.2443 55.6154 66.0531 55.6042 65.9181 55.6042C65.6031 55.6042 65.2769 55.4919 64.9844 55.548C64.6919 55.6042 64.4219 55.8287 64.1294 55.9521C63.8931 56.0419 63.6568 56.0307 63.4431 56.2889C63.2856 56.4797 62.9481 56.4011 62.6219 56.2215C61.9806 55.8623 61.3281 55.5031 60.6194 55.6827C59.9894 55.8287 59.3256 55.8511 58.6844 55.9297C58.4144 55.9634 58.1556 55.9634 57.8856 56.1991C57.6381 56.4236 57.1881 56.3787 56.8618 56.2664C56.3443 56.0868 55.8831 56.0981 55.4106 56.3787C55.2419 56.4797 55.0393 56.4909 54.8593 56.5022C53.7231 56.5807 52.5756 56.6256 51.4281 56.6481C51.1581 56.6481 50.8656 56.7379 50.6294 56.4236C50.4494 56.8052 50.1568 56.6817 49.9206 56.6481C49.5493 56.6032 49.1893 56.446 48.8293 56.4124C48.3906 56.3787 47.9744 56.3899 47.5244 56.6144C47.1194 56.8164 46.6468 56.4572 46.1968 56.7491C46.1181 56.8052 45.9493 56.5807 45.8256 56.5919C45.3193 56.6481 44.8131 56.2777 44.3181 56.7603C44.2731 56.8052 44.1719 56.794 44.1269 56.7491C43.5869 56.1991 43.0018 56.547 42.4168 56.6256C41.7868 56.7266 41.2581 56.244 40.6618 56.1879C39.9756 56.1317 39.2444 56.1879 38.6256 55.9072C37.5569 55.4021 36.4319 55.4021 35.3406 55.1552L31.9768 54.4143C31.4931 54.3133 30.9644 54.3582 30.4694 54.2572C29.9181 54.1562 29.3893 53.9541 28.8493 53.7745C28.3431 53.6174 27.8369 53.4378 27.3419 53.247C27.1056 53.1572 26.8019 53.1908 26.7119 52.8092C26.6894 52.7306 26.5656 52.652 26.4868 52.6745C25.9356 52.8429 25.5306 52.6296 25.2268 52.1582C25.1368 52.0235 24.9344 52.0235 24.8106 51.9112C24.4731 51.6081 23.9893 51.7316 23.5843 51.6194C23.2018 51.5183 22.9768 51.0469 22.4481 51.2826C22.3806 51.3163 22.2119 51.2265 22.1894 51.1367C21.9644 50.0703 20.4681 50.6877 20.2656 49.5989C19.7256 49.7785 19.8043 49.1387 19.5681 49.0377C19.2193 48.8917 18.8818 48.7122 18.6006 48.4428C18.3418 48.1846 18.1168 47.8703 17.8468 47.6233C17.3631 47.107 17.1381 46.4335 16.4743 45.9621C16.2606 45.7937 15.9456 45.4008 16.2043 44.9631C16.2493 44.8845 16.1818 44.7386 16.1368 44.6488C15.9231 44.2896 15.9118 43.7957 16.0018 43.4028C16.1256 42.9987 16.3731 42.6957 16.6993 42.5946C17.0818 42.4712 17.5656 42.4824 17.9818 42.5385C18.1843 42.561 18.3419 42.7967 18.4994 42.9314C18.7806 43.1559 19.1856 43.2906 19.3431 43.4926C19.4556 43.6161 19.5118 43.7508 19.5456 43.9079C19.6693 44.11 19.7369 44.2784 19.8044 44.458Z" fill="#B09151"/>
<path d="M86.9223 18.4834L87.1811 27.3622C87.4061 34.9277 72.2861 41.4942 53.4198 42.0442C34.5536 42.5942 19.0736 36.9145 18.8486 29.349L18.5898 20.4702" fill="#FDF4D8"/>
<path d="M88.6776 20.1784C88.9026 20.6723 88.3288 21.2223 88.4413 21.7835C88.5538 22.3448 88.5088 22.9172 88.5088 23.4897C88.5088 23.7816 88.6101 24.0509 88.7901 24.3203C88.9588 24.5897 88.5988 24.904 89.0825 25.151C89.1275 25.1734 89.0938 25.2296 89.0938 25.2632C89.1163 25.9592 89.3413 26.6439 89.1051 27.3286C88.8351 28.3613 88.835 29.3603 88.3738 30.247C88.3625 31.0889 87.9913 31.8297 87.53 32.4471C87.0688 33.0757 86.5176 33.5696 86.0451 34.1308C85.7413 34.4563 85.4826 34.8716 84.9088 34.8941C84.425 34.9053 84.4026 35.6237 83.7613 35.4329C83.7051 35.4217 83.7163 35.5564 83.6826 35.6125C83.6038 35.736 83.5701 35.938 83.4351 35.9717C82.6251 36.1625 82.6363 36.1737 82.22 36.7237C82.175 36.7911 81.9726 36.6564 81.8938 36.6901C81.5788 36.8472 81.2526 37.0044 80.9713 37.2064C80.7126 37.3972 80.2851 37.2962 80.2401 37.8574C80.2288 37.9809 80.0713 37.9585 79.97 38.0034C79.6663 38.1493 79.3626 38.284 79.0813 38.4524C78.7551 38.6432 78.3163 38.6095 78.1475 39.1371C78.0688 39.3616 77.6638 39.0136 77.6188 39.1483C77.5288 39.3952 77.3938 39.4963 77.2138 39.5299C77.0451 39.5636 76.82 39.4514 76.6625 39.5075C76.5275 39.5524 76.4713 39.8105 76.3363 39.8779C75.9988 40.0463 75.5713 40.0014 75.3238 40.3157C75.0651 40.6524 74.7163 40.7198 74.3788 40.8545C74.0413 41.0004 73.6588 41.0453 73.3325 41.2136C73.0738 41.3483 72.7701 41.2136 72.4776 41.18C72.1963 41.1463 71.9938 41.5616 71.6338 41.1463C71.6226 41.1239 71.6 41.1575 71.5775 41.1575C71.0263 41.2136 70.4525 41.2249 69.9238 41.3371C68.99 41.5167 68.0788 41.7749 67.145 41.9433C66.8863 41.9994 66.6388 42.2014 66.3126 41.8535C66.2451 41.7861 66.1551 41.9208 66.0763 41.8759C65.7838 41.6963 65.7163 42.4933 65.4013 42.1902C65.1313 41.9208 64.9288 42.1341 64.6926 42.1341C64.4338 42.1453 64.175 42.2239 63.9163 42.2463C63.7363 42.2576 63.5901 42.3474 63.4663 42.5831C63.2076 42.1565 62.9713 42.5045 62.7125 42.3249C62.5438 42.2014 62.2851 42.1004 62.2063 42.2688C62.0038 42.6504 61.7338 42.5157 61.4976 42.5831C61.1376 42.6841 60.7551 42.5831 60.4401 42.9535C60.3051 43.1106 60.0913 43.0433 59.9113 43.0208C59.7425 42.9984 59.5625 42.83 59.3938 42.83C59.09 42.8188 58.7863 42.8749 58.5051 43.1443C58.2575 43.38 57.8975 42.9759 57.6725 43.4811C57.6388 43.5484 57.5488 43.5372 57.4926 43.5035C57.1888 43.3239 56.9188 43.2341 56.615 43.5259C56.3675 43.7617 56.0188 43.6045 55.7263 43.627C55.4113 43.6494 55.085 43.7617 54.77 43.6382C54.5675 43.5708 54.4888 44.2107 54.2413 43.8178C54.1063 43.6045 53.8588 43.728 53.6675 43.7168C53.465 43.7055 53.2626 43.8066 53.0713 43.7168C52.0588 43.2229 51.0575 43.6606 50.045 43.4811C49.6175 43.4025 49.1676 43.7841 48.7738 43.2117C48.4588 43.627 48.1101 43.2566 47.8063 43.5259C47.6151 43.7055 47.4575 43.6719 47.2888 43.6719C46.1863 43.6494 45.0838 43.5372 43.9701 43.4811C43.2388 43.4586 42.4963 43.5372 41.765 43.5035C41.5625 43.4923 41.3488 43.526 41.1576 43.2341C41.0226 43.0208 40.7301 42.9647 40.4713 43.2678C40.4263 43.3239 40.325 43.3688 40.3025 43.3239C39.9763 42.6616 39.4813 43.2341 39.0651 43.2004C38.2551 43.1331 37.5575 42.6167 36.7588 42.5157C36.59 42.4933 36.4326 42.2688 36.2188 42.6504C36.1513 42.28 36.0276 42.4259 35.8363 42.5494C35.6451 42.6729 35.3638 42.6392 35.2625 42.4147C35.1275 42.1116 34.9251 42.1678 34.7451 42.0892C34.5538 42.0106 34.3513 42.0106 34.1488 41.9433C33.3276 41.6739 32.5175 41.382 31.73 41.0453C31.5725 40.9779 31.46 40.7871 31.325 40.6749C31.19 40.5626 30.9538 40.6861 30.9088 40.3044C30.8863 40.1585 30.695 40.2034 30.5825 40.1697C30.1775 40.0463 29.8176 39.6983 29.3676 39.833C28.9176 39.9677 28.6588 39.5187 28.1526 39.8554C28.0063 39.9565 27.8938 39.7544 27.7476 39.732C27.1626 39.6422 26.7913 39.0136 26.0375 39.2942C25.9925 38.8901 25.745 38.8452 25.52 38.7666C25.3513 38.7105 25.2613 38.4524 24.9575 38.733C24.9238 38.7666 24.8676 38.733 24.8451 38.7105C24.6988 38.5309 24.6426 38.2166 24.4063 38.1717C24.2038 38.1381 23.9451 38.2615 23.7538 38.1493C23.0676 37.734 22.6626 36.9482 21.9088 36.6227C21.9201 36.2411 21.6838 36.1513 21.5038 35.9829C21.1888 35.691 20.6038 35.736 20.3338 35.3319C20.075 34.9727 19.8388 34.5573 19.4001 34.3777C18.6463 34.041 18.3763 33.2665 17.9713 32.6042C17.8701 32.4359 17.6338 32.2787 17.9038 31.9644C17.9713 31.8971 17.8588 31.7063 17.735 31.6838C17.465 31.6389 17.5551 31.4481 17.4313 31.3471C17.0713 31.044 17.9601 30.494 17.1838 30.2807L17.1276 29.6746C17.1051 29.4613 17.0938 29.2705 17.0938 29.1245C17.0826 28.8103 17.06 28.496 17.0713 28.1817C17.0713 28.0357 16.9925 27.8898 17.24 27.7327C17.4088 27.6204 17.4313 27.3847 17.2738 27.2837C16.9026 27.0592 17.0488 26.801 17.0263 26.5653C16.9813 25.8357 16.9476 25.1173 16.9701 24.3877C16.9813 24.0734 17.1163 23.7479 17.195 23.4224C17.2738 23.0968 17.0038 22.7713 17.33 22.4458C17.3525 22.4234 17.3413 22.3897 17.33 22.3672C17.2738 22.2438 17.15 22.1203 17.1725 21.9856C17.195 21.8172 17.51 21.5927 17.3638 21.5141C17.0825 21.3345 17.3863 21.2111 17.4088 21.0652C17.4876 20.6611 18.185 20.3917 19.0513 20.4141C19.2425 20.4141 19.445 20.459 19.6025 20.5151C20.5363 20.8519 20.4913 20.8519 20.57 21.4356C20.66 22.1652 20.1425 22.906 20.3563 23.6356C19.895 24.1295 20.2213 24.6346 20.1313 25.1285C20.0413 25.6449 19.6588 26.1837 19.9513 26.6776C20.2438 27.1714 20.1988 27.6653 20.1988 28.1592C20.1988 28.5296 20.0301 28.9225 19.9963 29.2929C19.9851 29.6072 20.1313 29.8991 20.0863 30.2246C20.0413 30.4266 19.8388 30.7297 20.0638 30.8532C20.5701 31.0889 20.4575 31.6052 20.8625 31.8634C21.4025 32.1777 21.6275 32.7389 22.1788 33.0308C22.4825 33.1767 22.7638 33.3114 23.0113 33.5134C23.1238 33.6145 23.2363 33.693 23.2363 33.94C23.2475 34.1869 23.45 34.3329 23.765 34.2431C23.9 34.1982 24.0576 34.2206 24.0576 34.3441C24.0801 34.838 24.4513 34.8829 24.7213 35.04C24.9013 35.1298 24.9013 35.5676 25.0813 35.5002C25.3963 35.3768 25.4863 35.5788 25.6775 35.6349C25.8125 35.6798 26.0038 35.6462 25.9475 35.9941C25.9363 36.0951 26.0375 36.1737 26.1163 36.1288C26.5213 35.8482 26.6563 36.1513 26.8925 36.2411C27.4438 36.4768 27.995 36.7013 28.5463 36.9707C29.0075 37.1727 29.6151 36.9033 30.0313 37.2401C30.4701 36.9146 30.7175 37.2176 31.0213 37.3299C31.2575 37.4084 31.4488 37.6329 31.6625 37.7901C31.8763 37.9472 32.1351 37.9472 32.3376 38.2054C32.5851 38.5309 33.0238 38.4299 33.3613 38.5646C33.5525 38.6319 33.8225 38.4524 33.89 38.9013C33.9013 38.9575 33.9913 38.9799 34.0363 38.9238C34.3963 38.5534 34.6776 38.7554 34.8688 38.9687C35.1726 39.3279 35.5663 39.283 35.915 39.4065C36.2075 39.5075 36.5226 39.5075 36.8151 39.6085C37.0288 39.6759 37.2538 39.631 37.4563 39.8554C37.6025 40.0238 37.8838 39.833 38.0975 39.833C38.3113 39.8442 38.5138 39.9003 38.7275 39.934L39.4138 40.035L40.1 40.1361C40.3475 40.1697 40.6063 40.1697 40.8426 40.2483C41.0676 40.3157 41.2813 40.5289 41.5175 40.5738C42.1813 40.7085 42.8788 40.2932 43.52 40.5402C43.7338 40.2371 43.88 40.484 44.0713 40.5626C44.24 40.63 44.4313 40.7871 44.6338 40.4728C44.69 40.383 44.7801 40.4167 44.8475 40.3942C45.0163 40.3606 45.1288 40.6749 45.3313 40.4616C45.4775 40.3044 45.6688 40.484 45.8488 40.4504C46.0288 40.4279 46.2201 40.6749 46.4001 40.2708C46.6813 40.8993 47.0413 39.9789 47.3451 40.2708C47.4463 40.3606 47.5476 40.4055 47.6488 40.4616C47.7051 40.4953 47.7613 40.5738 47.8063 40.5514C48.6726 40.035 49.5163 40.4953 50.3713 40.3493C50.4726 40.3269 50.5738 40.2146 50.6863 40.1585C50.7313 40.1361 50.7876 40.1136 50.8438 40.1473C51.305 40.3718 51.3051 40.3606 51.7438 40.1361C51.8563 40.0799 51.9688 40.1248 52.0813 40.0912C52.3738 40.0238 52.6663 40.1248 52.9588 39.8554C53.2513 39.5973 53.6 40.035 53.9263 40.2259C54.2188 40.3942 54.5 40.5738 54.8038 40.5514C55.58 40.4616 56.3563 40.4504 57.1213 40.3942C57.2226 40.383 57.3576 40.4728 57.4026 40.3606C57.5938 39.9003 57.7513 39.5748 58.0326 40.3157C58.0438 40.3493 58.1225 40.3381 58.145 40.2932C58.2913 39.7993 58.5613 40.0126 58.7751 40.0014C59.5963 39.9789 60.3388 39.3728 61.1713 39.4514C61.3063 39.4626 61.4638 39.3279 61.5651 39.4738C61.7676 39.7769 61.7788 39.2381 61.9363 39.3391C62.0713 39.4177 62.2175 39.2044 62.33 39.3279C62.7575 39.7544 63.14 39.5524 63.455 39.3391C63.7475 39.1371 64.0401 38.9238 64.3551 39.036C64.9626 39.2718 65.4913 39.0136 66.0538 38.9462C66.6275 38.8677 67.19 38.733 67.7413 38.5983C67.9663 38.5309 68.2588 38.6656 68.3713 38.2054C68.3938 38.1156 68.5063 38.1381 68.585 38.1493C68.7763 38.183 68.9788 38.2952 69.1588 38.2615C69.3276 38.2166 69.4513 38.0034 69.6088 37.9023C69.7325 37.8125 69.8788 37.835 69.9575 37.5768C70.0138 37.386 70.2275 37.4758 70.4525 37.6442C70.8913 37.9809 71.3525 38.3177 71.7463 38.1268C72.095 37.9585 72.4888 37.9023 72.8488 37.7676C72.9951 37.7115 73.1525 37.7003 73.2538 37.4421C73.3438 37.2176 73.6138 37.2064 73.8275 37.2737C74.1763 37.386 74.4463 37.3299 74.6375 36.9819C74.705 36.8697 74.8063 36.8248 74.9075 36.7799C75.5375 36.5441 76.1451 36.286 76.7638 36.039C76.9101 35.9829 77.0338 35.8257 77.2813 36.0615C77.2251 35.6798 77.4276 35.7247 77.5626 35.6911C77.7763 35.6349 78.0351 35.7023 78.2376 35.6349C78.4851 35.5564 78.6875 35.4104 78.8113 35.0961C78.9238 34.8155 79.3176 34.9727 79.3963 34.5798C79.4076 34.5124 79.5988 34.6471 79.655 34.6022C79.8688 34.4002 80.2963 34.5349 80.2625 33.9624C80.2625 33.9175 80.3076 33.8839 80.3526 33.9063C80.9038 34.1869 80.9601 33.6706 81.1513 33.39C81.3538 33.0869 81.8488 33.244 82.1076 33.0308C82.4226 32.7951 82.6025 32.4134 83.0076 32.3461C83.6938 32.1889 84.0313 31.6277 84.4363 31.2011C84.8638 30.7521 85.2013 30.247 85.4263 29.7082C85.5275 29.4725 85.4375 29.1807 85.4938 28.945C85.5163 28.6868 85.64 28.4511 85.6625 28.1929C85.7188 27.9572 85.7076 27.7215 85.7301 27.4857C85.7526 27.3959 85.595 27.2163 85.91 27.0816C85.9775 27.048 85.9888 26.9582 85.9438 26.9245C85.5838 26.6663 85.595 26.4082 85.91 26.1163C86 26.0377 85.91 25.9255 85.955 25.8245C86.0788 25.5663 85.7638 25.353 85.6625 25.1173C85.5725 24.904 85.8875 24.6459 85.3925 24.455C85.325 24.4326 85.325 24.3203 85.3813 24.2867C86.18 23.8265 84.8188 23.355 85.5501 22.8948C85.0776 22.7377 85.6063 22.5356 85.5275 22.4009C85.4263 22.1989 85.2913 22.008 85.2913 21.806C85.2913 21.6039 85.3026 21.4131 85.2688 21.2223C85.2013 20.8631 85.4038 20.4927 85.01 20.1447C84.8863 20.0325 84.7963 19.808 85.1563 19.6508C85.2238 19.6284 85.2126 19.5498 85.1901 19.4937C85.0326 19.1008 85.4263 18.6182 86.09 18.4947C86.4838 18.4273 86.9676 18.4161 87.3726 18.4498C87.5751 18.461 87.71 18.6294 87.8563 18.7416C88.115 18.9212 88.475 19.0896 88.5875 19.2916C88.7563 19.5835 88.6663 19.8529 88.6776 20.1784Z" fill="#B09151"/>
<path d="M52.113 29.4565C70.9812 28.9084 86.098 22.3355 85.8774 14.7754C85.6569 7.21528 70.1824 1.5309 51.3142 2.07895C32.446 2.62701 17.3292 9.19996 17.5498 16.76C17.7704 24.3201 33.2448 30.0045 52.113 29.4565Z" fill="#FDF4D8"/>
<path d="M19.8044 18.6406C20.2769 19.0559 20.2318 19.9875 20.8956 20.5151C21.5256 21.0202 22.1668 21.5815 22.8531 22.0866C23.2131 22.3335 23.6069 22.4794 24.0569 22.5356C24.4844 22.6029 24.7318 23.1417 25.2943 22.906C25.3393 22.8835 25.3956 22.9509 25.4518 22.9846C26.3968 23.4448 27.4543 23.6805 28.3318 24.2754C29.3668 24.9713 30.5819 25.1509 31.7181 25.5775C33.7656 25.555 35.6219 26.3744 37.6244 26.5989C38.2544 26.6551 38.8843 26.6551 39.4806 27.0816C39.9868 27.4408 40.7181 27.0143 41.2356 27.5755C41.2806 27.6204 41.4044 27.5194 41.4944 27.5081C41.7081 27.4745 41.9331 27.3622 42.1131 27.4296C43.2381 27.8112 43.2381 27.8224 44.2281 27.6316C44.3406 27.6092 44.4756 27.8337 44.5993 27.8449C45.1281 27.9122 45.6681 27.9684 46.1968 27.9347C46.6806 27.9122 47.1756 28.2265 47.6481 27.7439C47.7494 27.6428 47.9518 27.7326 48.1093 27.7439C48.6156 27.7551 49.1219 27.7888 49.6169 27.7439C50.1906 27.7102 50.7869 27.9122 51.3381 27.4857C51.5744 27.3061 51.9456 27.7775 52.0919 27.6653C52.3619 27.4632 52.6094 27.4071 52.8681 27.4296C53.1269 27.452 53.3968 27.6316 53.6443 27.6316C53.8693 27.6316 54.0831 27.3959 54.3081 27.3622C54.8706 27.2949 55.4893 27.4632 55.9843 27.1939C56.5131 26.9132 57.0531 26.9357 57.5818 26.8459C58.1331 26.7561 58.7068 26.7785 59.2581 26.6438C59.6856 26.5428 60.1019 26.7112 60.5181 26.7561C60.9456 26.8122 61.3394 26.4081 61.7781 26.8347C61.8006 26.8571 61.8343 26.8234 61.8681 26.8234C62.7231 26.7673 63.5893 26.7785 64.4331 26.6326C65.8956 26.3969 67.3356 26.0377 68.7644 25.6785C69.1693 25.5775 69.5519 25.3081 70.0356 25.5775C70.1369 25.6336 70.2719 25.4652 70.3956 25.4989C70.8569 25.6112 70.9356 24.7693 71.4081 24.9938C71.8356 25.1846 72.1393 24.904 72.4881 24.8142C72.8818 24.7132 73.2531 24.5448 73.6468 24.4213C73.9168 24.3315 74.1306 24.1856 74.2656 23.905C74.7269 24.2193 75.0081 23.7591 75.4244 23.8264C75.7056 23.8713 76.0994 23.8376 76.1894 23.6244C76.4031 23.1529 76.8194 23.1417 77.1344 22.9284C77.6181 22.6366 78.1919 22.4907 78.5069 21.9294C78.6419 21.6937 78.9456 21.6039 79.1931 21.5029C79.4293 21.4131 79.7331 21.4243 79.9469 21.3008C80.3631 21.0763 80.7231 20.7845 80.9369 20.3243C81.1056 19.9202 81.7581 19.9426 81.7019 19.3253C81.6906 19.2467 81.8031 19.1794 81.8819 19.1569C82.3206 19.0334 82.6581 18.8202 82.7369 18.3038C82.7931 17.8997 83.1869 17.6528 83.3894 17.3273C83.4906 17.1477 83.5581 16.9568 83.6481 16.7772C83.7156 16.5977 83.7944 16.4293 83.9294 16.2721C84.0644 16.0589 83.4906 15.8007 83.9294 15.6435C84.1544 15.5425 84.1206 15.2395 84.1206 15.0262C84.1656 14.8017 84.0306 14.5772 84.1094 14.3527C84.2894 13.7578 84.0869 13.118 83.7494 12.568C83.4119 12.0067 82.9168 11.5241 82.5006 10.9628C82.1181 10.4802 81.3981 10.3791 81.2631 9.58216C80.6669 9.64951 80.4081 9.06583 79.9018 9.06583C79.5756 9.08828 79.3843 8.95358 79.1706 8.83011C77.7418 8.03315 76.2119 7.33721 74.6031 6.80964C73.5456 6.45045 72.4319 6.2933 71.3406 6.04636C71.0369 5.97901 70.7218 5.95656 70.4519 5.61982C70.2606 5.36165 69.8106 5.2494 69.4056 5.49634C69.3269 5.54124 69.1806 5.57492 69.1468 5.50757C68.6518 4.75551 67.8868 5.27185 67.2793 5.17082C66.0643 5.00245 64.9281 4.41876 63.7019 4.30652C63.4431 4.28407 63.1619 4.05957 62.9031 4.44121C62.7456 4.07079 62.5656 4.22794 62.3069 4.35142C62.0369 4.48611 61.6093 4.46366 61.4068 4.23916C61.1256 3.94732 60.8331 4.01467 60.5406 3.95855C60.2368 3.90242 59.9106 3.91365 59.6068 3.86875C58.2906 3.70038 56.9631 3.54323 55.6356 3.41976C55.3768 3.39731 55.1293 3.22894 54.8593 3.15036C54.6006 3.07179 54.3081 3.27384 54.0606 2.91464C53.9706 2.77995 53.7006 2.88097 53.5093 2.88097C52.8456 2.86974 52.1143 2.67892 51.5181 2.97077C50.9331 3.26261 50.2918 2.94832 49.7631 3.47588C49.6168 3.62181 49.3243 3.49833 49.1106 3.53201C48.2331 3.70038 47.2881 3.35241 46.4669 3.981C46.1181 3.65548 45.7468 3.77895 45.3868 3.83508C45.1281 3.87998 44.8019 3.7116 44.6219 4.12692C44.5994 4.17182 44.5093 4.18304 44.4531 4.18304C44.1268 4.12692 43.8119 3.91365 43.4631 4.0259C43.1706 4.11569 42.9681 4.38509 42.6418 4.42999C41.4831 4.57591 40.2681 4.30652 39.1318 4.71061C38.7606 4.46366 38.4006 4.58714 38.0406 4.65449C37.4106 4.77796 36.8931 5.27185 36.2406 5.3392C35.6106 5.39532 34.9356 5.45144 34.4294 5.81064C33.5406 6.41677 32.5281 6.49535 31.5944 6.86576C31.3581 6.95556 31.1331 7.19128 30.7844 6.91066C30.7056 6.84332 30.4468 6.97802 30.4131 7.10149C30.3343 7.38211 30.1093 7.30353 29.9856 7.43823C29.6593 7.8311 28.8831 7.07904 28.7481 7.90967C28.2981 8.10049 27.8369 8.28009 27.3981 8.49336L26.0706 9.12194C25.8568 9.21174 25.7106 9.39135 25.3843 9.2791C25.1706 9.20053 24.8218 9.35767 24.7543 9.57094C24.6306 10.0761 24.2256 10.1322 23.9218 10.3342C23.0106 10.9516 22.1556 11.6139 21.3793 12.3098C21.0418 12.6129 20.6256 12.8373 20.2881 13.1404C20.1081 13.2863 20.0069 13.4996 19.9056 13.6904C19.7819 13.8813 19.6581 14.0496 19.4106 14.1619C19.3768 14.1731 19.3656 14.2292 19.3543 14.2629C19.3093 14.4425 19.3656 14.6445 19.2868 14.7792C19.1743 14.9588 18.7918 15.1272 18.8931 15.2844C19.0843 15.5762 18.7806 15.6548 18.7131 15.8344C18.5556 16.3058 17.8693 16.6987 17.0031 16.665C16.8118 16.6538 16.6094 16.5752 16.4631 16.463C15.5631 15.7221 15.5743 15.6323 15.8218 14.42C16.2156 12.8373 17.4419 11.8832 18.1844 10.7495C19.1294 10.4016 19.5568 9.55971 20.3218 9.08827C21.0981 8.59438 22.0543 8.41479 22.6393 7.71885C23.2243 7.03414 24.0006 6.66372 24.7543 6.2933C25.3281 6.00146 25.9919 5.91166 26.5881 5.68716C27.2069 5.47389 27.7806 5.08103 28.4331 4.98C28.8381 4.91266 29.3331 5.04735 29.6256 4.75551C30.2669 4.10447 31.1894 4.17182 31.8981 3.73405C32.8994 3.13914 34.0468 3.02689 35.0818 2.58912C35.6443 2.3534 36.1956 2.09523 36.7918 1.99421C37.0618 1.93808 37.3206 1.87074 37.6468 1.99421C37.9843 2.11768 38.4118 2.05033 38.7268 1.71359C38.8618 1.57889 39.0981 1.4442 39.2444 1.52277C39.8519 1.82584 40.4031 1.56767 40.9543 1.46665C41.3031 1.41052 41.7531 1.72481 41.9443 1.53399C42.2593 1.2197 42.6081 1.28705 42.9344 1.2197C43.1706 1.16358 43.4293 1.01765 43.6768 1.32072C43.7443 1.3993 43.9806 1.3993 44.0368 1.32072C44.3856 0.826833 44.8694 1.00643 45.3081 0.950307C46.3431 0.81561 47.3894 0.72581 48.4356 0.703361C49.3019 0.669686 50.1118 0.164569 50.9893 0.310491C51.5068 -0.149725 52.1143 0.041096 52.6768 0.0298712C53.1156 0.0186465 53.5431 0.187021 53.9706 0.265595C54.3981 0.355393 54.8256 0.265593 55.2756 0.478864C55.8269 0.737034 56.5019 0.523764 57.1206 0.602338C57.4581 0.636012 57.8406 0.411518 58.1219 0.849284C58.1556 0.905408 58.3131 0.905408 58.3806 0.849284C58.8531 0.433967 59.4044 0.591111 59.7868 0.793157C60.4056 1.1299 61.0356 1.05133 61.6543 1.15235C62.1718 1.24215 62.7006 1.24215 63.2068 1.33195C63.5781 1.41052 63.9494 1.36562 64.3094 1.60134C64.5906 1.78094 65.0181 1.60134 65.3781 1.62379C65.7381 1.64624 66.0869 1.72482 66.4469 1.78094L67.6056 1.98299L68.7644 2.20748C69.1806 2.28606 69.6081 2.3534 70.0131 2.4881C70.3956 2.61157 70.7444 2.88097 71.1269 2.99322C72.1956 3.30751 73.3994 3.16159 74.4344 3.67793C74.8281 3.46465 75.0419 3.79018 75.3231 3.94732C75.5819 4.10447 75.8631 4.34019 76.2569 4.13815C76.3694 4.08202 76.5043 4.16059 76.6281 4.18304C76.9093 4.23917 77.0106 4.60958 77.4043 4.51978C77.6856 4.46366 77.9556 4.74428 78.2369 4.83408C78.5406 4.92388 78.7656 5.2943 79.1819 5.03613C79.4181 5.81064 80.3068 5.2494 80.6781 5.76574C80.7906 5.93411 80.9369 6.05758 81.0719 6.2035C81.1394 6.27085 81.1843 6.39433 81.2743 6.41678C82.8606 6.74229 83.9068 8.0556 85.0993 9.15563C85.2456 9.29032 85.4706 9.35767 85.6506 9.48114C85.7294 9.54849 85.8081 9.62707 85.8531 9.71687C86.2356 10.6036 86.2131 10.5812 86.8544 11.2771C87.0006 11.4679 87.0794 11.7036 87.1919 11.9281C87.4844 12.5118 87.5519 13.1404 87.9006 13.7802C88.2494 14.4649 87.7994 15.2731 87.4844 15.9017C87.2256 16.4854 86.8769 16.9793 86.6744 17.5518C86.1344 19.0222 85.1894 20.2008 84.1769 21.1774C84.0531 21.3008 83.8056 21.4019 83.8056 21.5478C83.8168 22.1651 83.7043 22.6254 82.9281 22.2886C82.8943 22.2774 82.7818 22.3672 82.7818 22.4233C82.8043 23.007 82.2981 23.0968 81.9831 23.3101C80.7569 24.107 79.7669 25.2632 78.3719 25.7346C78.1469 25.8132 77.9219 26.0601 77.7306 25.9703C77.3256 25.7908 77.4269 26.3295 77.1456 26.3295C76.9206 26.3295 76.7068 26.6214 76.4931 26.5653C75.7168 26.3632 75.1319 26.7561 74.6368 27.1153C74.1756 27.452 73.6806 27.7888 73.1631 27.8C72.1281 27.8 71.2506 28.2153 70.3169 28.451L67.4369 29.1806C67.0431 29.2929 66.5818 29.1806 66.3006 29.6745C66.2443 29.7756 66.0531 29.7643 65.9181 29.7643C65.6031 29.7643 65.2769 29.6521 64.9844 29.7082C64.6919 29.7643 64.4219 29.9888 64.1294 30.1123C63.8931 30.2021 63.6568 30.1909 63.4431 30.449C63.2856 30.6399 62.9481 30.5613 62.6219 30.3817C61.9806 30.0225 61.3281 29.6633 60.6194 29.8429C59.9894 29.9888 59.3256 30.0113 58.6844 30.0898C58.4144 30.1235 58.1556 30.1235 57.8856 30.3592C57.6381 30.5837 57.1881 30.5388 56.8618 30.4266C56.3443 30.247 55.8831 30.2582 55.4106 30.5388C55.2419 30.6399 55.0393 30.6511 54.8593 30.6623C53.7231 30.7409 52.5756 30.7858 51.4281 30.8082C51.1581 30.8082 50.8656 30.898 50.6294 30.5837C50.4494 30.9654 50.1568 30.8419 49.9206 30.8082C49.5493 30.7633 49.1893 30.6062 48.8293 30.5725C48.3906 30.5388 47.9744 30.5501 47.5244 30.7746C47.1194 30.9766 46.6468 30.6174 46.1968 30.9093C46.1181 30.9654 45.9493 30.7409 45.8256 30.7521C45.3193 30.8082 44.8131 30.4378 44.3181 30.9205C44.2731 30.9654 44.1719 30.9542 44.1269 30.9093C43.5869 30.3592 43.0018 30.7072 42.4168 30.7858C41.7868 30.8868 41.2581 30.4041 40.6618 30.348C39.9756 30.2919 39.2444 30.348 38.6256 30.0674C37.5569 29.5735 36.4319 29.5623 35.3406 29.3153L31.9768 28.5745C31.4931 28.4735 30.9644 28.5184 30.4694 28.4173C29.9181 28.3163 29.3893 28.1143 28.8493 27.9347C28.3431 27.7775 27.8369 27.5979 27.3419 27.4071C27.1056 27.3173 26.8019 27.351 26.7119 26.9694C26.6894 26.8908 26.5656 26.8122 26.4868 26.8347C25.9356 27.003 25.5306 26.7898 25.2268 26.3183C25.1368 26.1836 24.9344 26.1836 24.8106 26.0714C24.4731 25.7683 23.9893 25.8918 23.5843 25.7795C23.2018 25.6785 22.9768 25.2071 22.4481 25.4428C22.3806 25.4765 22.2119 25.3867 22.1894 25.2969C21.9644 24.2305 20.4681 24.8479 20.2656 23.7591C19.7256 23.9387 19.8043 23.2988 19.5681 23.1978C19.2193 23.0519 18.8818 22.8723 18.6006 22.6029C18.3418 22.3447 18.1168 22.0305 17.8468 21.7835C17.3631 21.2672 17.1381 20.5937 16.4743 20.1222C16.2606 19.9539 15.9456 19.561 16.2043 19.1232C16.2493 19.0447 16.1818 18.8987 16.1368 18.8089C15.9231 18.4497 15.9118 17.9559 16.0018 17.563C16.1256 17.1589 16.3731 16.8558 16.6993 16.7548C17.0818 16.6313 17.5656 16.6425 17.9818 16.6987C18.1843 16.7211 18.3419 16.9569 18.4994 17.0915C18.7806 17.316 19.1856 17.4507 19.3431 17.6528C19.4556 17.765 19.5118 17.911 19.5456 18.0569C19.6693 18.3038 19.7369 18.461 19.8044 18.6406Z" fill="#B09151"/>
<path d="M58.9429 9.80649C55.7313 7.5458 51.4586 8.29859 47.9717 9.42979C46.2063 10.0062 44.4567 10.7175 43.0687 11.9692C41.6807 13.2208 40.381 15.4826 41.9274 17.1206C43.1878 18.4665 45.6483 18.4515 47.3478 18.3397C49.2615 18.2111 51.1769 17.8633 53.06 17.544C54.2479 17.339 56.6282 16.5701 57.5958 17.6358C58.5634 18.7015 58.07 19.7661 56.9549 20.3593C55.1021 21.3563 52.6811 21.7086 50.5913 21.7348C48.7694 21.7597 47.0008 21.4227 45.4134 20.5309C43.826 19.6392 42.3799 22.0987 43.9791 22.9973C47.3115 24.8881 51.2213 24.8673 54.8777 24.0391C56.6317 23.6446 58.5976 23.0748 59.8701 21.7245C61.1425 20.3743 61.2419 18.6089 60.5112 16.9738C58.7182 12.9763 53.8344 14.5367 50.4837 15.0556C48.6885 15.3318 46.8016 15.7117 44.994 15.4149C44.6927 15.3654 44.3308 15.3121 44.0519 15.197C44.0754 15.2107 44.0844 15.3574 44.0961 15.3642C44.0666 15.2528 44.2814 14.9376 44.3224 14.8671C44.7947 14.136 45.5099 13.6089 46.2477 13.205C48.0145 12.2208 50.1457 11.6371 52.1315 11.3303C54.0127 11.0413 55.9296 11.1503 57.5271 12.2679C58.1624 12.716 59.1155 12.3744 59.4775 11.7519C59.8941 11.0355 59.5967 10.2496 58.9615 9.80158L58.9429 9.80649Z" fill="#9C7625"/>
<path d="M48.6414 7.79219C49.0161 10.8233 49.2793 13.884 49.7888 16.8993C50.2984 19.9146 51.2707 23.0262 52.5361 25.931C52.8441 26.6445 53.8555 26.824 54.4868 26.4682C55.2129 26.0575 55.3321 25.231 55.0241 24.5175C53.8597 21.8443 53.0502 19.0475 52.5565 16.1671C52.0627 13.2867 51.844 10.582 51.5029 7.79037C51.4109 7.02965 50.9172 6.3653 50.0712 6.36055C49.3769 6.36538 48.5563 7.01972 48.6414 7.79219Z" fill="#9C7625"/>
</svg>
