<svg width="148" height="90" viewBox="0 0 148 90" fill="none" xmlns="http://www.w3.org/2000/svg">
<path d="M18.4914 20.5079C21.2922 22.4047 22.4874 18.6371 21.8394 16.2834C23.1066 17.1197 23.769 19.0854 24.237 21.077C24.6906 23.0858 24.9714 25.1204 25.3242 26.155C25.5186 26.6119 28.9889 29.8277 33.3449 34.1729C35.5265 36.3455 37.9169 38.7854 40.3217 41.3373C42.7337 43.8979 45.1529 46.5878 47.4713 49.5794C47.6729 49.8467 47.8817 50.1398 48.1049 50.4502C48.3281 50.7519 48.5657 51.0623 48.7961 51.3899C49.2641 52.0451 49.7249 52.7693 50.1425 53.4935C51.0065 54.8816 51.6689 56.3645 51.6545 57.5887C51.6473 58.2353 50.9273 58.2353 49.9121 57.9336C49.4081 57.787 48.8321 57.5629 48.2417 57.3128C47.6657 57.0283 47.0753 56.718 46.5209 56.4248C45.7433 56.1317 41.6969 53.6229 40.6961 52.8383C40.4297 52.64 40.1561 52.4504 39.9041 52.2521C39.6521 52.0365 39.4073 51.8296 39.1625 51.6227C38.6729 51.2002 38.1977 50.7778 37.7441 50.3467C36.8513 49.4587 36.0233 48.5535 35.2529 47.6396C34.5113 46.6912 33.8057 45.7687 33.1649 44.8204C32.5457 43.8548 31.9409 42.9151 31.4081 41.9667C29.2409 38.1474 27.7434 34.4057 26.0514 30.8537C25.4754 29.6725 25.2306 28.8018 24.9282 28.0603C24.777 27.6896 24.6186 27.3534 24.4098 27.0171C24.201 26.6809 23.949 26.336 23.5962 25.9739C22.9842 25.3446 22.0482 24.6807 20.637 23.4048C18.8946 21.8443 18.8802 21.4218 18.2178 20.689L18.4842 20.5079H18.4914Z" fill="#CCEAE6"/>
<path d="M67.0772 63.373C67.9844 63.1057 68.7764 62.6315 69.3884 61.9677C69.9932 61.3038 70.418 60.4417 70.6412 59.502C70.8644 58.5622 70.886 57.5621 70.7132 56.6224C70.6196 56.1569 70.4828 55.7085 70.2956 55.3033C70.1084 54.9067 69.8708 54.5446 69.6116 54.2429C70.6484 54.0791 71.6996 54.5274 72.5636 55.3206C73.442 56.1137 74.1548 57.2087 74.7452 58.3467C75.3356 59.4847 75.8252 60.6572 76.3076 61.6746C76.7828 62.6919 77.2652 63.5368 77.7044 64.0196C77.8052 64.1403 78.2516 64.2265 78.95 64.2869C79.1228 64.2869 79.3172 64.3041 79.526 64.3127C79.7276 64.3213 79.9508 64.3127 80.1884 64.3127C80.426 64.3041 80.6636 64.2955 80.9228 64.2696C81.1748 64.2351 81.4412 64.2006 81.722 64.1662C82.8524 64.011 84.206 63.7523 85.6964 63.4678C87.1939 63.1833 88.8499 62.8643 90.6787 62.6229C91.5931 62.5022 92.5579 62.4074 93.5587 62.3557C93.8107 62.347 94.0627 62.3298 94.3219 62.3212C94.5739 62.3212 94.8331 62.3125 95.0923 62.3039C95.5675 62.2867 96.0427 62.2781 96.5251 62.2781C98.4547 62.2522 100.435 62.3039 102.458 62.4764C106.497 62.8212 110.659 63.6403 114.806 65.4766C116.267 66.1405 118.132 67.1233 119.788 68.3907C121.444 69.658 122.899 71.2013 123.467 73.0376C123.77 74.0118 122.985 74.6929 121.761 75.2188C120.537 75.7275 118.859 76.0637 117.398 76.3224C117.153 76.3655 116.627 76.4689 115.951 76.5896C115.274 76.7017 114.446 76.8569 113.611 76.9862C111.926 77.2535 110.176 77.4949 109.456 77.5552C103.351 78.0984 98.1739 76.7276 93.6523 74.7791C91.5211 73.7963 89.4835 72.8652 87.4963 71.9513C85.3868 70.9943 83.3276 70.0632 81.2684 69.1235C81.0884 69.0373 80.93 68.9683 80.7644 68.8735C80.5916 68.7786 80.426 68.6838 80.2748 68.5976C79.9652 68.4165 79.6772 68.2441 79.4252 68.0458C79.1732 67.8561 78.9356 67.6751 78.7196 67.5026C78.5036 67.3216 78.302 67.1492 78.1076 66.9854C77.906 66.8302 77.7116 66.675 77.5172 66.5371C77.3228 66.3905 77.114 66.2698 76.898 66.1491C76.4732 65.8991 75.9692 65.718 75.35 65.5542C75.0764 65.4852 74.774 65.4335 74.4428 65.3732C74.1116 65.3214 73.7444 65.2697 73.3412 65.2094C72.938 65.149 72.4988 65.08 72.0092 65.0111C71.5412 64.9335 71.0156 64.8473 70.4396 64.7524C69.0716 64.5283 68.438 64.3989 67.9772 64.2351C67.7612 64.1575 67.5812 64.0972 67.4012 64.0368C67.3148 64.0024 67.2212 63.9765 67.1276 63.9506C67.034 63.9334 66.9332 63.9161 66.8252 63.9075L67.0916 63.3902L67.0772 63.373Z" fill="#CCEAE6"/>
<path d="M39.3047 17.973C39.7367 18.6972 40.2407 19.2231 40.7231 19.5679C41.2199 19.9214 41.7311 20.1025 42.2207 20.1542C43.2071 20.2663 44.1575 19.8955 45.0071 19.361C45.8495 18.8265 46.6343 18.1368 47.2535 17.4557C47.5775 17.1108 47.8583 16.7746 48.0815 16.4383C48.3191 16.1021 48.5063 15.7745 48.6215 15.4555C49.3343 16.2832 49.5719 17.1194 49.6151 18.0592C49.6511 18.9903 49.4927 20.0421 49.3631 21.2319C49.2263 22.413 49.1399 23.7148 49.1975 24.9132C49.2119 25.5167 49.2911 26.0771 49.3631 26.5858C49.4639 27.0772 49.5647 27.5169 49.7087 27.8359C49.8383 28.1376 51.3791 28.8963 53.7119 29.3877C54.8783 29.6378 56.2319 29.8188 57.7223 29.9136C59.2127 30.0171 60.8255 30.0602 62.5463 30.0688C65.9735 30.1033 69.7607 30.043 73.7207 30.4999C77.6807 30.9568 81.799 31.9311 85.9534 34.0692C87.415 34.8365 89.2942 35.9918 90.9934 37.4574C92.6854 38.923 94.2262 40.6991 94.9102 42.8458C95.2702 43.9838 94.4854 44.846 93.2038 45.5098C91.9294 46.1737 90.1798 46.5961 88.6534 46.9324C88.1422 47.0444 86.4574 47.4324 84.6934 47.76C82.9366 48.0962 81.1006 48.3721 80.3447 48.4497C73.9439 49.0791 68.4647 47.3462 63.7559 44.6994C61.3943 43.3631 59.2271 41.794 57.1895 40.0869C55.1519 38.3885 53.2511 36.5608 51.4223 34.6209C50.1911 33.3105 49.6223 32.1294 49.0391 31.1724C48.4631 30.1895 47.8799 29.4567 46.6559 28.5859C46.3895 28.3877 46.0799 28.2066 45.7487 27.9738C45.4103 27.7497 45.0215 27.5083 44.6039 27.1893C43.7543 26.5772 42.7463 25.7323 41.6303 24.3614C41.2775 23.9476 41.0039 23.5424 40.7591 23.1717C40.5071 22.801 40.3055 22.4561 40.1399 22.1285C39.9743 21.8095 39.8231 21.5164 39.7079 21.2405C39.5999 20.9732 39.5063 20.7232 39.4199 20.4904C39.2543 20.0249 39.1535 19.6283 39.0527 19.2403C38.9519 18.8523 38.8295 18.4471 38.6855 17.9902L39.2903 17.9471L39.3047 17.973Z" fill="#CCEAE6"/>
<path d="M86.3295 21.2666C86.9055 22.3271 87.5247 22.7409 88.0359 22.7926C88.5615 22.8357 88.9935 22.5426 89.3535 22.1115C89.7279 21.6804 90.0231 21.1287 90.2751 20.5769C90.5199 20.0251 90.7287 19.4734 90.8223 18.9474C91.2039 19.5768 91.3911 20.2407 91.5351 20.9735C91.6791 21.7063 91.7871 22.534 91.9815 23.4134C92.3487 25.1635 93.1335 27.0516 93.8031 27.8275C93.9615 28.0086 95.1063 28.4655 96.8847 28.7759C98.6631 29.1035 101.068 29.2587 103.818 29.3018C106.576 29.3535 109.679 29.319 112.941 29.5001C116.202 29.6725 119.622 30.0691 123.013 31.0175C124.209 31.3623 125.735 31.8796 127.089 32.5521C128.442 33.2332 129.637 34.0694 130.141 35.1213C130.408 35.6817 129.796 36.1386 128.817 36.5093C127.845 36.88 126.513 37.1473 125.353 37.3628C124.965 37.4318 123.683 37.6818 122.351 37.8887C121.019 38.1043 119.637 38.2853 119.068 38.3457C114.251 38.8198 110.097 38.0698 106.403 36.7938C102.702 35.5006 99.4551 33.7332 96.3159 31.6899C95.2647 30.9916 94.6599 30.3364 94.0911 29.8018C93.5223 29.2501 92.9967 28.819 92.0751 28.3276C91.6719 28.1034 91.1895 27.8879 90.5847 27.5258C89.9799 27.1723 89.2383 26.6809 88.3959 25.7929C87.3591 24.6979 86.9343 23.7927 86.6463 23.1461C86.5167 22.8099 86.4087 22.5253 86.3151 22.2408C86.2287 21.9477 86.1351 21.6632 86.0127 21.3183L86.3151 21.2666H86.3295Z" fill="#CCEAE6"/>
</svg>
