<svg width="1024" height="2016" viewBox="0 0 1024 2016" fill="none" xmlns="http://www.w3.org/2000/svg">
<g clip-path="url(#clip0_1307_106726)">
<path d="M509.994 2077.5C150.534 2116.71 -481.101 2001.25 -834.938 2136.45L-1123.62 574.605C-1147.8 528.549 -1171 431.841 -1070.36 413.446C-944.569 390.452 -820.563 264.72 -458.705 122.623C-96.8472 -19.4743 318.597 36.255 509.994 118.773C701.391 201.29 863.149 183.274 977.792 172.291C1092.43 161.308 1343.67 122.622 1540.13 273.574C1656.89 363.289 1775.86 453 1972.4 465.434C1921.31 476.279 2080.5 2112.55 1972.4 2135.5C1837.28 2164.18 869.454 2038.29 509.994 2077.5Z" fill="#CCEAE6"/>
</g>
<defs>
<clipPath id="clip0_1307_106726">
<rect width="1024" height="2016" fill="white"/>
</clipPath>
</defs>
</svg>
