<svg width="1980" height="1501" viewBox="0 0 1980 1501" fill="none" xmlns="http://www.w3.org/2000/svg">
<g clip-path="url(#clip0_1005_109315)">
<path d="M628.992 1635.5C269.532 1674.71 -362.103 1559.25 -715.94 1694.45L-1004.62 574.603C-1028.8 528.548 -1052 431.839 -951.364 413.444C-825.571 390.451 -701.565 264.719 -339.707 122.622C22.1509 -19.4756 437.595 36.2539 628.992 118.772C820.39 201.289 982.147 183.273 1096.79 172.29C1211.43 161.307 1462.66 122.622 1659.12 273.573C1775.89 363.288 1894.86 453 2091.4 465.433C2040.31 476.278 2199.5 1670.55 2091.4 1693.5C1956.27 1722.18 988.452 1596.29 628.992 1635.5Z" fill="#CCEAE6"/>
</g>
<defs>
<clipPath id="clip0_1005_109315">
<rect width="1980" height="1600" fill="white"/>
</clipPath>
</defs>
</svg>
