<svg width="360" height="240" viewBox="0 0 360 240" fill="none" xmlns="http://www.w3.org/2000/svg">
<path d="M354.374 164.483C354.165 164.264 334.19 143.88 308.059 152.049C308.401 149.608 308.667 146.331 308.382 142.769C307.603 132.862 303.016 125.643 295.113 121.891C294.21 121.464 293.128 121.644 292.425 122.356C291.864 122.917 279.165 135.987 286.526 157.102C284.123 158.888 279.811 161.281 276.724 159.781C275.812 159.334 274.71 158.403 273.722 156.504C273.428 155.877 273.39 155.791 273.105 155.145C271.49 151.08 270.369 143.757 271.252 130.611C273.143 102.599 269.182 79.5845 259.484 62.1927C248.427 42.3692 229.934 29.9166 204.516 25.1009C205.608 19.9432 203.832 14.2915 199.51 10.2356C189.176 0.518639 175.621 5.15393 168.554 9.73223C162.494 4.18508 150.222 -2.29293 138.596 5.83782C132.308 10.2356 129.829 17.863 132.564 24.379C133.78 27.276 136.155 30.0686 139.774 31.7783C122.99 40.3175 111.781 53.7675 104.885 68.3572C103.841 67.9868 97.1726 65.7356 88.206 64.6908C75.4019 63.1995 64.0037 64.9283 55.265 69.706C44.7691 75.4432 37.8257 85.4451 34.6437 99.446C27.0828 132.7 23.3404 137.222 18.6101 142.949C16.2355 145.818 13.5474 149.066 10.1089 155.82C4.03938 167.75 3.34599 180.659 8.19974 191.24C11.7047 198.877 19.8165 208.926 38.5476 213.485C63.8707 219.65 72.4479 220.752 75.117 220.932C78.9639 223.886 98.4834 237.099 139.565 237.099C155.456 237.099 174.567 235.123 197.24 229.804C198.769 229.719 207.175 229.158 215.714 226.233C227.683 222.139 234.389 215.262 235.253 206.267C268.982 199.912 293.621 181.751 299.33 177.23C305.742 180.222 331.844 190.243 354.308 167.769C355.22 166.857 355.229 165.385 354.346 164.464L354.374 164.483ZM136.934 22.5648C135.072 18.1099 136.867 12.8288 141.312 9.72273C153.765 1.01256 166.056 13.8641 166.578 14.415C167.405 15.2984 168.773 15.4124 169.732 14.6905C169.77 14.662 173.769 11.6699 179.117 10.1217C185.908 8.15547 191.683 9.36178 196.28 13.6836C200.232 17.3976 201.258 22.8877 198.769 27.0291C195.502 32.4717 188.539 32.4432 183.115 30.6005C180.959 29.8691 175.222 27.9219 171.66 33.887C170.397 36.0052 170.197 38.1899 170.15 40.479C167.367 42.0463 164.698 40.7165 163.349 39.7761C163.605 37.6484 163.7 35.4638 162.779 33.2506C160.11 26.8391 154.154 27.9409 151.913 28.3589C146.28 29.4037 139.384 28.4254 136.934 22.5743V22.5648ZM196.831 225.093C196.679 225.093 196.537 225.121 196.385 225.15C172.04 230.868 136.392 236.092 104.885 228.474C86.1068 223.934 77.6056 216.867 77.5296 216.8C77.0452 216.392 76.5038 216.183 75.8769 216.24C75.6679 216.259 70.0828 216.297 39.6779 208.898C26.304 205.649 16.9099 198.858 12.5026 189.274C8.24723 180.013 8.91213 168.605 14.3263 157.967C17.5273 151.678 19.9304 148.772 22.2576 145.96C27.3868 139.748 31.4427 134.847 39.26 100.5C42.1285 87.8957 48.2646 78.9291 57.5162 73.8759C75.2975 64.1494 99.4333 71.5393 102.967 72.7076C99.2338 81.8167 97.0966 91.2107 96.2512 99.9969C96.1943 100.025 96.1468 100.044 96.0898 100.082C95.4439 100.5 81.0916 109.97 79.2774 122.603C71.631 119.754 65.153 119.763 64.6971 119.763C63.3958 119.782 62.3509 120.846 62.3604 122.147C62.3699 123.449 63.4338 124.484 64.7256 124.484C64.7256 124.484 64.7256 124.484 64.7541 124.484C65.21 124.484 80.9111 124.617 91.0935 136.091L92.6323 170.391C92.6798 171.397 93.3542 172.262 94.3135 172.547C94.4275 172.585 106.196 176.232 113.795 188.713C113.795 188.723 113.814 188.732 113.824 188.742C113.928 188.903 114.052 189.055 114.194 189.188C114.222 189.217 114.251 189.236 114.289 189.264C114.412 189.369 114.545 189.464 114.678 189.54C114.707 189.559 114.726 189.578 114.754 189.587L123.636 194.08C123.636 194.08 123.683 194.089 123.702 194.099C123.816 194.156 123.939 194.194 124.063 194.232C124.11 194.241 124.148 194.26 124.196 194.27C124.367 194.308 124.538 194.327 124.709 194.327C124.88 194.327 125.07 194.298 125.241 194.26C125.288 194.251 125.326 194.232 125.374 194.222C125.497 194.184 125.621 194.137 125.744 194.08C125.763 194.07 125.792 194.061 125.82 194.051C125.896 194.013 129.62 192.104 136.278 190.812C136.307 190.831 136.335 190.86 136.373 190.888C154.924 202.467 179.971 208.527 209.122 208.527C211.317 208.527 213.539 208.489 215.781 208.423C220.796 208.271 225.669 207.796 230.39 207.093C227.274 223.611 197.173 225.083 196.85 225.093H196.831ZM167.576 149.161C162.238 150.615 157.213 151.821 153.993 152.229C149.358 152.818 145.853 156.38 145.055 161.3C143.611 170.22 151.039 177.192 157.84 180.459C160.043 181.513 162.285 182.482 164.546 183.356L164.27 186.434C146.052 182.929 132.954 186.282 127.055 188.419V149.598C137.456 139.938 160.908 142.132 168.108 143.082L167.566 149.171L167.576 149.161ZM124.129 145.856L117.651 143.453C116.208 139.796 110.888 128.075 100.659 123.506C100.706 123.449 100.744 123.392 100.782 123.325L102.216 122.413C103.233 122.755 105.161 123.563 107.536 125.33C110.851 127.809 115.723 132.719 120.15 142.075C120.454 142.702 121.014 143.168 121.688 143.348C121.888 143.396 122.087 143.424 122.287 143.424C122.771 143.424 123.256 143.272 123.655 142.987C123.702 142.959 128.223 139.796 135.851 137.801C143.991 135.673 152.397 135.626 160.917 137.621C150.136 136.965 133.438 137.535 124.129 145.856ZM122.334 150.235V188.134L118.183 186.035V148.696L122.334 150.235ZM113.453 145.713V180.26C107.27 173.145 100.364 169.821 97.2771 168.595L95.3964 126.735C106.738 129.167 112.551 143.348 113.453 145.713ZM94.399 121.787C93.9526 121.739 93.4967 121.701 93.0312 121.673C92.3758 121.644 91.7204 121.891 91.255 122.356C90.7801 122.822 90.5331 123.468 90.5616 124.133L90.7896 129.205C88.5384 127.324 86.1733 125.804 83.8271 124.598C84.1881 116.61 91.6539 109.505 95.8523 106.123C95.8238 106.997 95.8143 107.862 95.8143 108.717C95.8143 112.753 95.9853 116.724 96.3082 120.561L94.399 121.777V121.787ZM300.223 172.404C299.368 171.92 298.295 172.015 297.535 172.651C297.183 172.946 261.763 202.287 215.619 203.712C187.228 204.585 162.627 199.789 143.981 189.825C150.022 189.407 157.403 189.701 165.885 191.601C166.55 191.753 167.243 191.601 167.794 191.202C168.345 190.803 168.697 190.176 168.754 189.502L169.153 184.99C177.853 187.82 186.772 189.283 195.34 189.283C200.289 189.283 205.114 188.799 209.711 187.811C210.984 187.535 211.801 186.282 211.526 184.999C211.25 183.727 209.987 182.919 208.714 183.185C193.687 186.424 175.897 183.879 159.891 176.204C151.362 172.11 149.082 166.031 149.728 162.06C150.184 159.211 152.055 157.245 154.591 156.922C164.964 155.611 191.664 146.882 192.794 146.511C194.039 146.103 194.713 144.773 194.305 143.529C193.896 142.284 192.557 141.61 191.322 142.018C191.161 142.066 182.042 145.048 172.449 147.803L173.028 141.268C173.132 140.043 172.287 138.941 171.081 138.732C171.005 138.722 170.805 138.684 170.53 138.637V137.279C170.53 136.281 169.903 135.379 168.953 135.047C146.214 127.011 129.259 134.344 123.256 137.687C113.871 119.602 102.701 117.598 102.207 117.522C101.741 117.446 101.266 117.522 100.839 117.721C100.649 114.786 100.545 111.775 100.545 108.726C100.545 82.833 112.836 47.6124 147.458 33.4596C149.101 33.4881 150.858 33.3551 152.777 32.9942C156.558 32.3008 157.602 33.0986 158.419 35.0553C158.999 36.4421 158.837 38.0189 158.495 40.441C158.391 41.1914 158.657 41.9513 159.198 42.4737C160.803 44.0125 163.947 45.9312 167.528 45.9312C169.599 45.9312 171.822 45.2948 173.978 43.5755C174.538 43.1291 174.871 42.4547 174.871 41.7328C174.88 39.2252 174.928 37.6199 175.716 36.2997C176.799 34.4854 177.958 33.83 181.596 35.0648C192.443 38.7408 199.605 34.6564 202.739 29.5652C227.179 33.982 244.884 45.7127 255.352 64.4818C264.603 81.0663 268.365 103.198 266.532 130.278C265.658 143.225 266.56 152.419 269.248 158.099C270.065 161.035 273.475 169.431 286.051 172.547C286.241 172.594 286.431 172.613 286.621 172.613C287.685 172.613 288.644 171.891 288.91 170.818C289.224 169.555 288.454 168.272 287.181 167.959C284.17 167.218 281.834 166.126 280.001 164.9C285.624 164.331 290.629 159.847 290.905 159.591C291.627 158.935 291.874 157.9 291.513 156.988C285.377 141.278 291.874 130.563 294.647 126.982C300.004 130.155 303.035 135.531 303.652 142.997C304.184 149.408 302.674 154.993 302.655 155.05C302.417 155.924 302.693 156.855 303.367 157.454C304.051 158.052 305.01 158.213 305.846 157.862C326.895 149.038 343.878 161.443 349.216 166.107C326.534 186.804 301.287 172.984 300.204 172.366L300.223 172.404Z" fill="#4C4948"/>
<path d="M125.868 91.1619C124.111 91.2569 122.696 92.9761 122.183 95.3507L126.219 97.6209L122.43 100.233C123.18 102.57 124.785 104.165 126.561 104.07C128.898 103.947 130.627 100.955 130.437 97.3834C130.247 93.8215 128.195 91.0289 125.868 91.1524V91.1619Z" fill="#4C4948"/>
<path d="M174.434 105.107C172.677 105.202 171.262 106.921 170.749 109.296L174.786 111.566L170.996 114.178C171.746 116.515 173.352 118.111 175.128 118.016C177.464 117.892 179.193 114.9 179.003 111.329C178.813 107.767 176.762 104.974 174.434 105.098V105.107Z" fill="#4C4948"/>
<path d="M163.739 103.14C162.989 102.067 161.516 101.81 160.443 102.561C159.398 103.292 158.135 104.489 157.043 106.056C154.915 104.271 151.315 103.292 145.236 104.631C142.975 105.125 141.18 104.992 140.05 104.252C138.938 103.52 138.682 102.361 138.663 102.257C138.454 100.984 137.267 100.11 135.975 100.31C134.683 100.509 133.8 101.706 133.99 102.998C134.037 103.321 134.55 106.208 137.314 108.108C139.584 109.666 142.595 110.055 146.252 109.248C152.93 107.775 154.364 109.704 154.839 110.863C154.288 113.161 154.316 115.792 155.418 118.661C155.779 119.601 156.672 120.171 157.622 120.171C157.907 120.171 158.192 120.124 158.467 120.01C159.683 119.544 160.291 118.176 159.826 116.951C157.394 110.644 162.894 106.607 163.15 106.417C164.214 105.667 164.47 104.204 163.73 103.131L163.739 103.14Z" fill="#4C4948"/>
<path d="M120.302 103.464C119.856 104.803 117.12 105.088 114.194 104.119C111.269 103.15 109.255 101.269 109.702 99.9301C110.148 98.5908 112.884 98.3059 115.809 99.2747C118.735 100.253 120.748 102.124 120.302 103.464Z" fill="#A32244"/>
<path d="M185.158 123.097C184.996 124.494 182.375 125.339 179.316 124.978C176.248 124.617 173.902 123.192 174.064 121.796C174.225 120.4 176.847 119.554 179.905 119.915C182.973 120.276 185.319 121.701 185.158 123.097Z" fill="#A32244"/>
<path d="M146.261 109.239C142.604 110.046 139.603 109.666 137.323 108.099C136.43 107.481 135.765 106.76 135.281 106.057C133.087 106.741 129.477 108.83 129.221 115.204C129.031 119.982 130.541 123.23 133.714 124.864C139.156 127.666 147.99 125.282 150.26 123.524C152.91 121.473 154.136 118.025 154.677 115.935C154.364 114.111 154.468 112.402 154.839 110.844C154.373 109.676 152.929 107.757 146.252 109.229L146.261 109.239Z" fill="#F3981C"/>
<path d="M155.427 118.652C155.066 117.721 154.839 116.818 154.687 115.944C154.155 118.044 152.92 121.492 150.27 123.534C148 125.291 139.166 127.675 133.723 124.873C130.551 123.239 129.04 119.991 129.23 115.213C129.477 108.83 133.087 106.75 135.291 106.066C134.284 104.603 134.037 103.216 134.008 102.998C133.989 102.874 133.989 102.76 133.989 102.646C130.323 103.891 125.877 107.377 125.573 115.08C125.26 122.954 128.926 126.526 132.051 128.141C134.445 129.375 137.19 129.85 139.888 129.85C145.34 129.85 150.621 127.922 152.521 126.45C154.772 124.702 156.225 122.308 157.147 120.133C156.396 119.972 155.731 119.449 155.427 118.68V118.652Z" fill="#E83828"/>
<path d="M196.831 225.101C197.154 225.092 227.255 223.61 230.37 207.101C225.65 207.804 220.777 208.279 215.762 208.431C213.52 208.498 211.297 208.536 209.103 208.536C179.952 208.536 154.904 202.485 136.354 190.897C136.316 190.878 136.297 190.849 136.259 190.821C129.6 192.113 125.877 194.022 125.801 194.06C125.782 194.069 125.753 194.079 125.725 194.088C125.611 194.145 125.487 194.193 125.354 194.231C125.307 194.24 125.269 194.259 125.221 194.269C125.05 194.307 124.879 194.335 124.689 194.335C124.5 194.335 124.338 194.316 124.177 194.278C124.129 194.269 124.091 194.25 124.044 194.24C123.92 194.202 123.797 194.164 123.683 194.107C123.664 194.098 123.635 194.098 123.616 194.088L114.735 189.596C114.735 189.596 114.688 189.558 114.659 189.548C114.517 189.472 114.384 189.377 114.27 189.273C114.241 189.244 114.203 189.225 114.175 189.197C114.032 189.064 113.909 188.912 113.804 188.75C113.804 188.741 113.785 188.731 113.776 188.722C106.177 176.25 94.4081 172.593 94.2942 172.555C93.3348 172.27 92.6509 171.396 92.6129 170.399L91.0741 136.1C80.8917 124.626 65.1906 124.493 64.7347 124.493C64.6967 124.493 64.7157 124.493 64.7062 124.493C63.4144 124.493 62.3505 123.448 62.341 122.156C62.3316 120.855 63.3764 119.781 64.6777 119.772C65.1336 119.772 71.6116 119.762 79.2579 122.612C81.0817 109.979 95.434 100.509 96.0704 100.091C96.1179 100.062 96.1749 100.034 96.2319 100.005C97.0772 91.2097 99.2144 81.8252 102.947 72.7161C99.4044 71.5478 75.2781 64.1579 57.4968 73.8844C48.2452 78.9376 42.1092 87.9042 39.2406 100.509C31.4328 134.865 27.3769 139.766 22.2382 145.969C19.9111 148.78 17.5079 151.687 14.3069 157.975C8.89274 168.613 8.22785 180.021 12.4832 189.282C16.8905 198.866 26.2846 205.658 39.6585 208.906C70.0634 216.306 75.6485 216.277 75.8575 216.249C76.4844 216.192 77.0353 216.401 77.5102 216.809C77.5862 216.875 86.0969 223.942 104.866 228.483C136.373 236.11 172.011 230.886 196.366 225.158C196.508 225.12 196.66 225.101 196.812 225.101H196.831Z" fill="#EEBAC0"/>
<path d="M179.117 10.1211C173.769 11.6694 169.78 14.6519 169.732 14.6899C168.763 15.4213 167.395 15.3073 166.579 14.4144C166.066 13.8635 153.765 1.01198 141.312 9.72215C136.867 12.8282 135.062 18.1094 136.934 22.5642C139.384 28.4153 146.28 29.3936 151.913 28.3488C154.154 27.9309 160.11 26.829 162.779 33.2405C163.701 35.4537 163.615 37.6384 163.349 39.766C164.698 40.7064 167.367 42.0457 170.15 40.4689C170.188 38.1798 170.387 35.9951 171.66 33.8769C175.222 27.9119 180.959 29.8591 183.116 30.5905C188.539 32.4332 195.502 32.4617 198.769 27.019C201.258 22.8776 200.232 17.397 196.281 13.6735C191.683 9.35171 185.908 8.15489 179.117 10.1116V10.1211Z" fill="white"/>
<path d="M195.758 202.295C190.761 198.411 186.297 193.68 182.45 188.209C181.443 188.048 180.437 187.858 179.43 187.658C183.4 193.671 188.064 198.866 193.336 203.15C194.266 203.226 195.207 203.302 196.157 203.369C196.233 202.979 196.1 202.561 195.767 202.295H195.758Z" fill="#DCDDDD"/>
<path d="M158.638 190.319C157.679 190.196 156.729 190.082 155.798 189.996C157.403 192.494 159.179 194.84 161.127 196.978C162.418 197.395 163.729 197.785 165.049 198.165C165.002 197.956 164.926 197.766 164.764 197.604C162.523 195.42 160.481 192.969 158.638 190.31V190.319Z" fill="#DCDDDD"/>
<path d="M122.42 130.752C122.401 130.838 122.135 132.462 121.888 135.217C122.344 136.015 122.8 136.831 123.246 137.696C123.455 137.582 123.683 137.458 123.92 137.325C124.186 133.507 124.576 131.132 124.576 131.104C124.68 130.505 124.272 129.945 123.673 129.841C123.066 129.736 122.505 130.144 122.41 130.743L122.42 130.752Z" fill="#DCDDDD"/>
<path d="M118.184 186.024L122.334 188.124V150.234L118.184 148.686V186.024Z" fill="#A32244"/>
<path d="M95.4062 126.736L97.287 168.596C100.374 169.812 107.279 173.146 113.463 180.261V145.714C112.57 143.349 106.748 129.168 95.4062 126.736Z" fill="#A32244"/>
<path d="M164.28 186.422L164.555 183.345C162.295 182.471 160.053 181.511 157.85 180.448C151.049 177.19 143.621 170.208 145.064 161.289C145.862 156.369 149.367 152.807 154.003 152.218C157.223 151.809 162.257 150.603 167.586 149.15L168.127 143.061C160.918 142.111 137.475 139.917 127.074 149.577V188.398C132.973 186.251 146.071 182.908 164.29 186.413L164.28 186.422Z" fill="#A32244"/>
<path d="M107.535 125.33C105.161 123.554 103.242 122.747 102.216 122.414L100.782 123.326C100.744 123.383 100.706 123.449 100.658 123.506C110.888 128.075 116.207 139.796 117.651 143.453L124.129 145.856C133.438 137.536 150.136 136.966 160.917 137.621C152.387 135.627 143.981 135.674 135.85 137.802C128.223 139.796 123.702 142.959 123.654 142.988C123.255 143.273 122.771 143.425 122.286 143.425C122.087 143.425 121.887 143.396 121.688 143.349C121.014 143.168 120.444 142.703 120.149 142.076C115.723 132.729 110.85 127.809 107.535 125.33Z" fill="white"/>
<path d="M95.8523 106.133C91.6444 109.514 84.1881 116.619 83.8271 124.607C86.1733 125.814 88.5289 127.334 90.7896 129.214L90.5616 124.142C90.5331 123.477 90.7801 122.831 91.255 122.366C91.7299 121.9 92.3758 121.644 93.0312 121.682C93.4967 121.701 93.9526 121.739 94.399 121.796L96.3082 120.58C95.9853 116.743 95.8143 112.782 95.8143 108.735C95.8143 107.881 95.8238 107.016 95.8523 106.142V106.133Z" fill="#CFD4E0"/>
<path d="M300.213 172.395C301.296 173.012 326.543 186.833 349.226 166.135C343.878 161.472 326.904 149.057 305.855 157.891C305.019 158.242 304.06 158.081 303.376 157.482C302.692 156.884 302.417 155.953 302.664 155.079C302.683 155.022 304.193 149.437 303.661 143.025C303.044 135.56 300.023 130.183 294.656 127.011C291.883 130.592 285.386 141.306 291.522 157.017C291.873 157.929 291.636 158.964 290.914 159.619C290.639 159.866 285.633 164.359 280.01 164.929C281.833 166.154 284.18 167.247 287.191 167.988C288.454 168.301 289.233 169.583 288.919 170.847C288.653 171.92 287.685 172.642 286.63 172.642C286.44 172.642 286.25 172.623 286.06 172.575C273.484 169.46 270.084 161.054 269.257 158.128C266.56 152.448 265.667 143.244 266.541 130.307C268.364 103.226 264.603 81.0854 255.361 64.5104C244.894 45.7413 227.188 34.0106 202.749 29.5938C199.614 34.685 192.452 38.7693 181.605 35.0934C177.967 33.8586 176.808 34.5045 175.725 36.3282C174.937 37.6485 174.889 39.2538 174.88 41.7614C174.88 42.4738 174.547 43.1577 173.987 43.6041C171.831 45.3233 169.608 45.9597 167.537 45.9597C163.947 45.9597 160.812 44.0505 159.207 42.5023C158.656 41.9799 158.4 41.22 158.504 40.4696C158.846 38.0475 159.008 36.4707 158.428 35.0839C157.611 33.1272 156.567 32.3198 152.786 33.0227C150.877 33.3742 149.11 33.5071 147.467 33.4882C112.835 47.641 100.554 82.8616 100.554 108.755C100.554 111.804 100.658 114.815 100.848 117.75C101.276 117.55 101.751 117.474 102.216 117.55C102.529 117.598 107.307 118.462 113.177 123.933C115.257 122.584 117.746 121.473 120.719 120.761C122.324 120.371 124.082 120.086 125.953 119.887C125.658 118.5 125.506 116.914 125.582 115.09C125.886 107.387 130.332 103.901 133.998 102.657C133.998 101.507 134.824 100.5 136.002 100.32C137.285 100.12 138.472 100.994 138.69 102.267C138.709 102.372 138.966 103.53 140.077 104.262C141.207 105.012 143.012 105.145 145.263 104.642C151.333 103.302 154.942 104.281 157.07 106.067C158.172 104.499 159.435 103.302 160.471 102.571C161.544 101.821 163.016 102.087 163.767 103.15C164.507 104.214 164.251 105.687 163.187 106.437C162.931 106.627 157.431 110.664 159.863 116.971C160.328 118.187 159.73 119.554 158.504 120.029C158.229 120.134 157.934 120.191 157.659 120.191C157.488 120.191 157.327 120.162 157.165 120.134C156.624 121.407 155.892 122.755 154.942 124.009C165.41 128.075 174.747 135.142 178.869 145.941C185.756 143.861 191.217 142.085 191.341 142.038C192.576 141.629 193.915 142.303 194.323 143.548C194.732 144.792 194.057 146.122 192.813 146.53C191.683 146.901 164.982 155.63 154.61 156.941C152.074 157.264 150.203 159.23 149.747 162.079C149.101 166.04 151.38 172.129 159.91 176.223C175.906 183.898 193.696 186.443 208.733 183.204C210.005 182.929 211.269 183.736 211.544 185.018C211.82 186.291 211.012 187.555 209.73 187.83C209.54 187.868 209.341 187.896 209.141 187.944C220.311 193.083 236.012 196.113 258.277 194.754C281.919 185.636 297.326 172.879 297.553 172.689C298.313 172.053 299.387 171.958 300.242 172.442L300.213 172.395ZM120.301 103.464C119.855 104.803 117.119 105.088 114.194 104.119C111.268 103.141 109.254 101.27 109.701 99.9305C110.147 98.5912 112.883 98.3062 115.808 99.2751C118.734 100.244 120.748 102.125 120.301 103.464ZM126.561 104.081C124.785 104.176 123.179 102.581 122.429 100.244L126.219 97.6318L122.182 95.3617C122.695 92.9965 124.11 91.2678 125.867 91.1728C128.204 91.0493 130.246 93.8324 130.436 97.4039C130.626 100.966 128.888 103.958 126.561 104.091V104.081ZM170.995 114.178L174.785 111.566L170.748 109.296C171.261 106.931 172.676 105.202 174.433 105.107C176.77 104.984 178.812 107.767 179.002 111.338C179.192 114.91 177.454 117.892 175.127 118.025C173.351 118.12 171.745 116.524 170.995 114.188V114.178ZM185.148 123.097C184.986 124.494 182.365 125.339 179.306 124.978C176.238 124.617 173.892 123.192 174.053 121.796C174.215 120.4 176.837 119.554 179.895 119.915C182.963 120.276 185.309 121.701 185.148 123.097Z" fill="#CFD4E0"/>
<path d="M279.198 86.2541C279.036 86.2541 278.884 86.2351 278.723 86.2066C277.44 85.9407 276.624 84.6964 276.88 83.414C276.928 83.1671 278.191 77.297 283.187 74.7989C286.531 73.1271 290.577 73.3931 295.203 75.5872C297.264 76.5656 298.964 76.7081 300.398 76.0242C303.391 74.5899 304.568 70.0211 304.578 69.9736C304.882 68.7008 306.155 67.9219 307.427 68.2259C308.7 68.5298 309.479 69.8121 309.175 71.0754C309.109 71.3509 307.494 77.8669 302.441 80.289C299.677 81.6093 296.561 81.4668 293.18 79.8616C289.931 78.3228 287.281 78.0474 285.296 79.0352C282.38 80.4885 281.525 84.3354 281.515 84.3734C281.287 85.4942 280.3 86.2636 279.207 86.2636L279.198 86.2541Z" fill="#4C4948"/>
<path d="M331.602 57.1232C333.805 56.9617 336.712 57.3226 338.868 59.6593C339.827 60.7041 341.49 60.5331 342.658 60.2387V56.9047C340.435 56.9427 337.472 56.4868 335.448 54.2071C334.622 53.2763 332.941 53.2953 331.611 53.5042V57.1137L331.602 57.1232Z" fill="white"/>
<path d="M346.466 52.402C345.896 51.9556 345.146 51.7941 344.443 51.9746C343.635 52.1741 340.349 52.611 338.972 51.0722C336.075 47.8142 330.983 48.5171 328.428 49.4385C327.763 49.676 327.279 50.1889 327.041 50.7968C326.88 51.2052 326.87 52.459 326.87 52.6395V61.9956C325.93 61.5491 324.885 61.3022 323.783 61.3022C319.766 61.3022 316.498 64.5697 316.498 68.5876C316.498 72.6054 319.766 75.8729 323.783 75.8729C326.377 75.8729 331.601 74.6001 331.601 70.6962V61.8721C332.807 61.7391 334.412 61.8056 335.391 62.8694C336.996 64.6172 339.076 65.2061 341.042 65.2061C343.008 65.2061 344.823 64.6362 346.048 64.0472C346.865 63.6483 347.378 62.8219 347.378 61.9196V54.2732C347.378 53.5419 347.045 52.858 346.466 52.4115V52.402ZM342.648 60.2383C341.479 60.5328 339.817 60.7038 338.858 59.6589C336.701 57.3223 333.795 56.9613 331.591 57.1228V53.5134C332.921 53.2949 334.602 53.2854 335.429 54.2163C337.452 56.4959 340.425 56.9518 342.638 56.9138V60.2478L342.648 60.2383Z" fill="#4C4948"/>
<path d="M161.126 196.975C159.179 194.838 157.412 192.492 155.797 189.994C151.438 189.586 147.477 189.576 143.972 189.814C149.224 192.616 154.971 195 161.117 196.975H161.126Z" fill="white"/>
<path d="M209.113 187.904C204.696 188.816 200.07 189.272 195.33 189.272C191.103 189.272 186.782 188.911 182.45 188.208C186.297 193.679 190.761 198.409 195.758 202.294C196.09 202.56 196.223 202.978 196.147 203.368C202.407 203.786 208.894 203.909 215.61 203.7C231.406 203.216 245.938 199.454 258.249 194.705C235.984 196.063 220.283 193.043 209.113 187.895V187.904Z" fill="white"/>
<path d="M179.429 187.667C175.991 186.983 172.552 186.09 169.152 184.988L168.753 189.5C168.696 190.174 168.345 190.801 167.794 191.2C167.243 191.599 166.549 191.751 165.884 191.599C163.367 191.039 160.964 190.63 158.646 190.326C160.48 192.986 162.531 195.427 164.773 197.621C164.935 197.783 165.02 197.973 165.058 198.182C173.749 200.651 183.219 202.323 193.345 203.168C188.073 198.885 183.409 193.689 179.439 187.676L179.429 187.667Z" fill="white"/>
<path d="M154.924 123.98C154.249 124.863 153.451 125.709 152.52 126.43C150.621 127.903 145.34 129.831 139.887 129.831C137.19 129.831 134.454 129.356 132.051 128.121C129.648 126.886 126.941 124.483 125.953 119.857C124.082 120.047 122.325 120.342 120.719 120.731C117.737 121.453 115.258 122.565 113.168 123.913C115.951 126.506 118.981 130.135 121.897 135.217C122.144 132.471 122.41 130.838 122.429 130.752C122.524 130.154 123.084 129.745 123.692 129.85C124.291 129.945 124.699 130.515 124.595 131.113C124.595 131.142 124.205 133.507 123.939 137.335C130.465 133.858 147.021 127.314 168.962 135.065C169.903 135.397 170.539 136.29 170.539 137.297V138.655C170.815 138.703 171.005 138.731 171.09 138.75C172.296 138.959 173.142 140.061 173.037 141.286L172.458 147.821C174.652 147.194 176.808 146.548 178.85 145.94C174.728 135.131 165.391 128.064 154.933 123.999L154.924 123.98Z" fill="white"/>
<path d="M247.534 228.748C273.332 229.203 297.829 217.482 302.027 215.374C303.566 207.68 297.553 195.617 297.487 195.493C297.392 195.303 297.335 195.085 297.316 194.866C296.917 187.828 294.077 175.622 292.538 169.41L270.777 183.402C265.363 185.263 260.271 185.776 256.339 185.776C251.685 185.776 248.645 185.064 248.598 185.054L235.224 181.017C235.898 192.539 242.044 210.7 242.12 210.909C242.186 211.109 242.215 211.318 242.196 211.536C241.816 216.865 246.147 225.983 247.534 228.748Z" fill="#F7C84D"/>
<path d="M270.511 182.842L292.377 168.765C292.272 168.329 292.168 167.93 292.073 167.578L270.302 180.658C270.188 180.724 270.065 180.781 269.941 180.819C269.542 180.943 260.158 183.735 250.583 182.643C250.479 182.633 250.374 182.605 250.279 182.576L235.186 177.723C235.139 178.539 235.139 179.423 235.186 180.344L248.759 184.438C248.845 184.457 258.942 186.803 270.502 182.833L270.511 182.842Z" fill="#F7C84D"/>
<path d="M240.392 173.278L237.514 175.14L238.682 175.52C238.682 175.52 238.701 175.463 238.729 175.444L240.544 174.256C240.582 174.484 240.62 174.712 240.667 174.931L239.423 175.748L239.974 175.928L240.781 175.396C240.829 175.615 240.876 175.833 240.943 176.051L240.753 176.175L241.009 176.26C240.601 174.779 240.335 173.183 240.249 171.492C240.278 172.1 240.335 172.699 240.411 173.278H240.392Z" fill="#B5B5B6"/>
<path d="M237.143 205.687C238.026 208.66 238.748 210.845 239.014 211.643C238.71 218.89 244.884 230.564 245.15 231.058C245.416 231.561 245.938 231.884 246.508 231.893C247.335 231.912 248.152 231.931 248.978 231.931C277.436 231.931 303.053 218.444 304.155 217.855C304.545 217.646 304.829 217.294 304.943 216.867C307.147 208.67 301.505 196.483 300.479 194.374C299.824 184.287 294.847 165.518 294.628 164.72C294.628 164.691 294.609 164.672 294.6 164.653C294.581 164.577 294.552 164.511 294.514 164.444C294.495 164.406 294.476 164.368 294.457 164.34C294.419 164.273 294.372 164.207 294.324 164.15C294.305 164.121 294.286 164.093 294.258 164.064C294.191 163.988 294.106 163.912 294.02 163.855C294.02 163.855 294.011 163.846 294.001 163.836C293.906 163.77 293.802 163.713 293.697 163.665C293.697 163.665 293.688 163.665 293.678 163.665C293.65 163.656 293.621 163.656 293.602 163.646C293.545 163.627 293.479 163.599 293.422 163.589C292.833 163.466 278.993 160.512 275.764 160.379C275.726 160.379 275.678 160.379 275.64 160.379C274.035 160.379 268.688 161.386 262.912 162.564C262.941 162.611 262.969 162.659 262.998 162.706C264.708 163.048 266.455 163.817 268.127 164.748C271.841 164.026 274.662 163.542 275.555 163.542C275.583 163.542 275.612 163.542 275.64 163.542C277.483 163.618 284.009 164.881 288.805 165.86L287.922 166.391L275.821 164.026C275.821 164.026 275.735 164.026 275.697 164.026L269.143 165.337C269.409 165.499 269.675 165.66 269.932 165.831L275.764 164.663L287.105 166.885L286.022 167.541L275.564 165.499C275.564 165.499 275.479 165.499 275.441 165.499L270.825 166.42C271.072 166.591 271.319 166.752 271.556 166.923L275.507 166.135L285.215 168.035L268.877 177.856C267.557 178.227 259.293 180.421 251.134 179.528L240.752 176.194L240.942 176.071C240.885 175.852 240.838 175.634 240.781 175.415L239.973 175.947L239.422 175.767L240.667 174.95C240.619 174.731 240.581 174.503 240.543 174.275L238.729 175.463C238.729 175.463 238.701 175.51 238.682 175.539L237.513 175.159L240.391 173.297C240.239 172.129 240.182 170.913 240.201 169.64L232.973 174.313C232.916 174.351 232.868 174.389 232.821 174.427C232.793 174.456 232.755 174.475 232.736 174.503C232.574 174.655 232.451 174.836 232.375 175.035C232.365 175.064 232.356 175.083 232.356 175.111C232.327 175.187 232.308 175.263 232.289 175.349C232.289 175.349 232.289 175.368 232.289 175.377C231.729 178.616 232.08 183.08 232.859 187.792C232.859 187.792 235.994 201.916 237.162 205.715L237.143 205.687ZM235.196 177.723L250.289 182.577C250.384 182.606 250.488 182.634 250.593 182.643C260.167 183.736 269.552 180.943 269.951 180.82C270.074 180.782 270.198 180.725 270.312 180.658L292.082 167.579C292.177 167.93 292.272 168.339 292.386 168.766L270.521 182.843C258.951 186.813 248.855 184.467 248.779 184.448L235.205 180.354C235.167 179.423 235.167 178.54 235.205 177.733L235.196 177.723ZM302.018 215.375C297.82 217.484 273.323 229.196 247.525 228.749C246.138 225.985 241.807 216.867 242.187 211.538C242.206 211.329 242.177 211.111 242.111 210.911C242.035 210.702 235.889 192.541 235.215 181.019L248.589 185.056C248.646 185.066 251.685 185.778 256.33 185.778C260.262 185.778 265.354 185.275 270.768 183.403L292.529 169.412C294.068 175.624 296.908 187.83 297.307 194.868C297.316 195.087 297.373 195.296 297.478 195.495C297.544 195.619 303.557 207.682 302.018 215.375Z" fill="#4C4948"/>
<path d="M275.545 163.531C274.652 163.531 271.831 164.016 268.117 164.738C267.889 164.614 267.652 164.491 267.424 164.377C268.108 164.738 268.792 165.117 269.447 165.526C269.343 165.459 269.238 165.393 269.134 165.336L275.688 164.025C275.688 164.025 275.773 164.025 275.811 164.025L287.912 166.39L288.796 165.858C283.999 164.88 277.473 163.617 275.631 163.541C275.602 163.541 275.583 163.541 275.545 163.541V163.531Z" fill="#B5B5B6"/>
<path d="M275.498 166.117L271.546 166.905C271.309 166.734 271.062 166.573 270.815 166.402L275.431 165.48C275.431 165.48 275.517 165.48 275.555 165.48L286.013 167.523L287.096 166.867L275.754 164.645L269.922 165.813C269.837 165.756 269.751 165.708 269.656 165.651C271.622 166.886 273.399 168.254 274.728 169.28C275.146 169.603 275.612 169.964 275.878 170.154C277.369 170.353 278.708 170.714 279.943 171.161L285.196 168.007L275.488 166.107L275.498 166.117Z" fill="#B5B5B6"/>
<path d="M266.075 163.723C266.389 163.856 266.693 163.998 267.006 164.15C266.702 163.998 266.389 163.856 266.075 163.723Z" fill="#B5B5B6"/>
<path d="M263.388 179.003C263.435 179.003 263.473 178.984 263.521 178.984C263.473 178.984 263.426 178.994 263.388 179.003Z" fill="#F3981C"/>
<path d="M265.563 178.613C265.439 178.642 265.325 178.661 265.192 178.689C265.316 178.661 265.439 178.642 265.563 178.613Z" fill="#F3981C"/>
<path d="M260.889 179.363C262.846 179.135 264.584 178.822 265.942 178.537C265.648 178.347 265.344 178.157 265.049 177.948C262.447 176.115 258.286 172.353 259.569 167.68C259.787 166.873 260.167 166.274 260.49 166.217C260.699 166.179 260.917 166.16 261.145 166.16C264.66 166.16 270.074 170.34 272.468 172.192C273.987 173.37 274.405 173.683 275.089 173.769C275.232 173.788 275.365 173.807 275.507 173.835L279.952 171.166C278.718 170.71 277.359 170.359 275.868 170.169C275.602 169.979 275.137 169.618 274.719 169.295C273.826 168.611 272.743 167.766 271.527 166.92C271.29 166.749 271.043 166.588 270.796 166.417C270.501 166.217 270.207 166.027 269.903 165.828C269.647 165.666 269.381 165.495 269.115 165.343C268.782 165.144 268.44 164.944 268.098 164.754C267.262 164.289 266.417 163.871 265.553 163.52H265.534C265.135 163.358 264.736 163.216 264.337 163.083C264.289 163.064 264.242 163.054 264.204 163.035C263.795 162.912 263.387 162.798 262.979 162.712C261.905 162.494 260.851 162.437 259.854 162.608C258.049 162.921 256.643 164.422 256.016 166.721C254.8 171.157 256.52 175.583 260.879 179.373L260.889 179.363Z" fill="#E83828"/>
<path d="M262.951 175.004C263.103 175.08 265.867 176.448 270.132 177.056L272.231 175.792C267.111 175.412 263.654 173.703 263.616 173.684C263.255 173.503 262.808 173.646 262.628 174.007C262.447 174.367 262.59 174.814 262.951 174.994V175.004Z" fill="#E83828"/>
<path d="M275.517 173.827C275.375 173.808 275.242 173.78 275.099 173.761C274.415 173.685 274.007 173.362 272.477 172.184C270.084 170.332 264.67 166.152 261.155 166.152C260.927 166.152 260.709 166.171 260.5 166.209C260.177 166.266 259.797 166.865 259.578 167.672C258.296 172.345 262.456 176.107 265.059 177.94C265.344 178.14 265.648 178.329 265.942 178.519C267.415 178.215 268.46 177.931 268.859 177.817L277.863 172.402L275.517 173.808V173.827ZM270.131 177.066C265.866 176.458 263.102 175.09 262.95 175.014C262.589 174.834 262.447 174.388 262.627 174.027C262.808 173.666 263.254 173.523 263.615 173.704C263.653 173.723 267.111 175.432 272.23 175.812L270.131 177.076V177.066Z" fill="#F3981C"/>
<path d="M259.284 162.754C259.474 162.687 259.673 162.63 259.873 162.602C260.87 162.431 261.924 162.488 262.998 162.706C262.969 162.659 262.941 162.611 262.912 162.564C262.912 162.564 262.912 162.564 262.922 162.564C262.209 161.272 261.278 160.056 260.091 159.05C257.849 157.159 255.009 156.323 251.884 156.627C243.003 157.501 240.505 163.59 240.41 166.762C240.296 167.75 240.23 168.71 240.211 169.64C240.201 170.229 240.211 170.799 240.239 171.36C240.239 171.455 240.249 171.55 240.258 171.645C240.287 172.196 240.334 172.746 240.401 173.278C240.439 173.611 240.496 173.934 240.553 174.257C240.591 174.485 240.629 174.713 240.676 174.931C240.705 175.093 240.743 175.245 240.781 175.397C240.828 175.615 240.875 175.833 240.942 176.052C240.961 176.118 240.98 176.185 240.999 176.251L244.741 177.458C243.63 174.988 243.003 171.626 243.554 167.038V166.886C243.573 166.629 243.858 160.56 252.198 159.743C252.521 159.714 252.844 159.695 253.157 159.695C255.047 159.695 256.691 160.284 258.068 161.443C258.533 161.833 258.932 162.289 259.293 162.754H259.284Z" fill="#E83828"/>
<path d="M265.942 178.53C266.617 178.388 267.215 178.255 267.69 178.141C267.215 178.255 266.626 178.388 265.942 178.53Z" fill="#E83828"/>
<path d="M264.489 178.818C264.546 178.808 264.594 178.799 264.651 178.789C264.603 178.789 264.546 178.808 264.489 178.818Z" fill="#E83828"/>
<path d="M262.095 179.203C261.782 179.251 261.459 179.289 261.136 179.327C261.459 179.289 261.782 179.241 262.095 179.203Z" fill="#F3981C"/>
<path d="M264.185 178.872C264.28 178.853 264.394 178.834 264.489 178.824C264.394 178.843 264.289 178.862 264.185 178.881V178.872Z" fill="#F3981C"/>
<path d="M256.026 166.703C256.586 164.661 257.755 163.255 259.274 162.742C258.913 162.267 258.514 161.821 258.049 161.431C256.672 160.272 255.028 159.684 253.138 159.684C252.825 159.684 252.502 159.703 252.179 159.731C243.839 160.557 243.554 166.618 243.545 166.874V167.026C242.984 171.614 243.611 174.976 244.723 177.446L251.106 179.498C254.525 179.868 257.944 179.697 260.88 179.346C256.52 175.556 254.8 171.129 256.016 166.694L256.026 166.703Z" fill="#F3981C"/>
</svg>
