<svg width="768" height="1293" viewBox="0 0 768 1293" fill="none" xmlns="http://www.w3.org/2000/svg">
<g clip-path="url(#clip0_2893_33110)">
<path d="M-1666.69 276.158C-1996.07 372.598 -1957.33 177.671 -2183.02 177.671C-2408.71 177.671 -2511 26.2121 -2511 26.2121C-2511 26.2121 -2511 411.156 -2511 504.579C-2511 569.088 -2511 944.363 -2511 1137.58C-2399.78 1049.15 -2264.2 937.544 -2039.32 845.77C-1814.44 753.996 -1539.85 703.973 -1184.46 790.529C-752.559 895.716 -789.904 924.525 -477.346 976.784C-164.789 1029.04 -7.29248 886.336 387.261 1008.94C781.814 1131.55 662.474 1182.67 1014 1286L1014 -160C988.021 -140.891 921.45 70.0195 707.125 118.147C414.864 183.775 340.671 -17.8185 -92.8503 28.1854C-369.687 57.5624 -423.765 183.968 -746.876 252.62C-981.527 302.476 -1240.47 151.365 -1666.69 276.158Z" fill="#CCEAE6"/>
</g>
<defs>
<clipPath id="clip0_2893_33110">
<rect width="1024" height="1293" fill="white" transform="translate(-128)"/>
</clipPath>
</defs>
</svg>
