<svg width="1980" height="1600" viewBox="0 0 1980 1600" fill="none" xmlns="http://www.w3.org/2000/svg">
<g clip-path="url(#clip0_602_2526)">
<path d="M219.785 245.509C-56.3317 315.714 -23.8568 173.813 -213.053 173.813C-402.249 173.813 -488 63.5562 -488 63.5562C-488 63.5562 -487.999 343.783 -487.999 411.792C-487.999 458.752 -487.999 1452.63 -487.999 1593.28C-394.763 1528.91 -281.109 1447.66 -92.5932 1380.85C95.9221 1314.05 326.111 1277.63 624.038 1340.64C986.097 1417.21 954.791 1438.19 1216.81 1476.23C1478.82 1514.27 1610.85 1410.38 1941.61 1499.64C2272.36 1588.89 2172.32 1747.78 2467 1823V-72C2445.22 -58.0891 2389.42 95.4465 2209.75 130.481C1964.75 178.256 1859.26 62.4724 1495.84 95.9617C1263.77 117.347 1261.72 178.397 990.861 228.373C794.154 264.667 577.08 154.663 219.785 245.509Z" fill="#CCEAE6"/>
</g>
<defs>
<clipPath id="clip0_602_2526">
<rect width="1980" height="1600" fill="white"/>
</clipPath>
</defs>
</svg>
