<svg width="392" height="264" viewBox="0 0 392 264" fill="none" xmlns="http://www.w3.org/2000/svg">
<path d="M168.095 208.72C168.095 208.72 168.076 208.654 168.01 208.606C167.887 208.512 167.849 208.417 167.65 208.323C167.452 208.228 167.366 208.19 167.452 208.143C167.622 208.048 167.641 207.935 167.102 207.67C166.449 207.348 165.428 207.112 165.976 207.027C166.052 207.008 166.127 206.998 166.184 206.989C165.759 206.79 165.721 206.781 165.825 206.724C166.014 206.611 165.891 206.459 165.465 206.242C165.229 206.119 164.501 205.901 165.144 205.873C165.163 205.873 165.134 205.826 165.087 205.807C164.737 205.627 164.387 205.447 164.028 205.268C163.914 205.211 163.687 205.116 163.706 205.097C163.895 204.937 163.328 204.766 163.092 204.606C162.723 204.36 162.325 204.123 161.89 203.906C161.521 203.717 160.954 203.565 161.011 203.319C161.011 203.291 160.878 203.225 160.784 203.187C160.519 203.083 160.311 202.969 160.008 202.875C159.743 202.799 159.696 202.572 159.431 202.468C159.176 202.364 159.1 202.222 158.883 202.156C158.59 202.071 158.731 201.957 158.571 201.882C158.221 201.73 157.833 201.608 157.54 201.447C157.237 201.286 156.707 201.248 156.603 200.993C156.603 200.974 156.367 200.964 156.244 200.964C156.131 200.964 155.998 200.964 155.875 200.964C155.648 200.775 155.431 200.596 155.26 200.454C155.327 200.293 155.383 200.17 155.421 200.038C155.535 200.038 155.771 200.038 155.686 199.943C155.535 199.773 155.904 199.744 155.856 199.621C155.951 199.612 156.055 199.593 156.149 199.584C156.112 199.527 156.083 199.489 156.045 199.423C156.225 199.347 156.414 199.262 156.613 199.177C156.471 199.139 156.386 199.111 156.31 199.092C156.131 199.167 156.102 199.044 156.017 198.997C155.8 199.054 155.762 198.969 155.781 198.865C155.837 198.609 155.705 198.382 155.421 198.203C155.355 198.165 155.308 198.108 155.279 198.089C155.516 197.758 155.015 197.692 154.948 197.456C154.948 197.399 155.1 197.333 154.958 197.191C154.854 197.096 154.589 196.973 154.769 196.765C154.854 196.671 154.74 196.567 154.627 196.491C154.343 196.292 154.135 196.027 153.766 195.904C153.615 195.857 153.53 195.621 153.407 195.479C153.265 195.318 153.132 195.167 152.991 195.006L152.792 195.101C152.792 195.101 152.745 195.101 152.735 195.101C152.593 195.186 152.451 195.195 152.442 195.11C152.404 194.807 152.215 194.77 152.045 194.864C152.007 194.883 151.969 194.864 151.941 194.864L151.411 194.599C151.411 194.599 151.335 194.524 151.298 194.543C151.004 194.703 150.957 194.486 150.834 194.429C150.711 194.448 150.55 194.514 150.532 194.467C150.437 194.24 150.002 194.524 149.974 194.23C149.633 194.287 149.368 194.193 149.207 194.041C149.103 194.098 149.056 194.117 149.009 194.136C149.037 194.032 149.009 194.003 148.905 194.003C148.735 194.003 148.555 194.003 148.394 194.003C148.195 194.003 147.978 193.975 147.694 194.145C147.496 194.268 147.259 194.325 147.174 194.183C147.098 194.06 146.966 194.278 146.881 194.259C146.758 194.23 147.042 193.994 146.881 193.937C146.701 193.881 146.833 193.578 146.815 193.389C147.051 193.048 146.966 192.812 146.975 192.566C146.938 192.594 146.919 192.594 146.89 192.604C146.9 192.585 146.919 192.547 146.928 192.547C146.947 192.547 146.966 192.547 146.985 192.547C147.013 192.49 147.042 192.443 147.042 192.415C147.042 192.273 147.098 192.084 147.042 192.017C146.975 191.942 146.786 191.989 146.711 191.885C146.512 192.093 146.398 191.998 146.389 191.894C146.37 191.677 146.2 191.648 146.105 191.535C146.049 191.469 145.963 191.45 145.973 191.308C145.992 191.138 145.822 191.09 145.793 190.958C145.746 190.769 145.604 190.788 145.434 190.816C145.405 190.816 145.368 190.816 145.377 190.797C145.424 190.608 145.245 190.655 145.169 190.684C144.876 190.807 144.791 190.655 144.696 190.495C144.687 190.476 144.677 190.438 144.649 190.438C144.497 190.419 144.384 190.372 144.384 190.183C144.384 190.126 144.289 190.107 144.214 190.107C144.1 190.097 144.006 190.022 143.835 190.107C143.807 190.126 143.76 190.078 143.75 190.031C143.741 189.861 143.646 189.766 143.457 189.889C143.192 190.05 143.079 189.956 142.946 189.889C142.814 189.833 142.719 189.719 142.615 189.634C142.417 189.804 142.246 189.956 142.067 190.107C142.001 189.993 141.878 189.965 141.859 189.795C141.84 189.625 141.603 189.681 141.49 189.615C141.263 189.473 140.97 189.473 140.629 189.653C140.308 189.823 140.137 189.729 139.835 189.719C139.995 189.596 140.062 189.539 140.137 189.483C140.137 189.379 139.939 189.398 140.128 189.171C140.175 189.114 140.194 188.991 140.166 188.944C140.071 188.754 140.241 188.48 140.327 188.253C140.374 188.111 140.327 187.95 140.525 187.799C140.44 187.695 140.629 187.61 140.667 187.506C140.743 187.307 140.818 187.09 140.932 186.92C141.083 186.693 141.234 186.466 141.357 186.248C141.149 185.908 140.724 185.879 140.308 185.851C140.118 185.841 139.91 185.908 139.835 185.718C139.923 185.586 139.98 185.359 140.005 185.037C139.816 185 139.608 185.019 139.485 184.877C139.409 184.792 139.296 184.744 139.229 184.659C139.125 184.527 138.965 184.678 138.813 184.773C138.596 184.64 138.473 184.394 138.151 184.404C138.047 184.404 137.905 184.479 137.839 184.442C137.593 184.3 137.272 184.3 136.997 184.215C136.846 184.167 136.695 184.139 136.515 184.148C136.326 184.148 136.146 184.111 135.919 184.262C135.721 184.101 135.55 183.912 135.219 183.959C135.181 183.959 135.144 183.95 135.134 183.921C135.077 183.817 134.983 183.874 134.85 183.969C134.765 184.035 134.661 184.054 134.633 183.969C134.605 183.884 134.614 183.789 134.605 183.694C134.841 183.581 134.69 183.515 134.718 183.43C134.775 183.241 134.699 183.07 134.945 182.862C135.106 182.72 135.181 182.531 135.229 182.37C135.257 182.285 135.219 182.219 135.2 182.106C135.295 182.115 135.333 182.125 135.38 182.134C135.456 182.002 135.2 181.926 135.522 181.746C135.522 181.746 135.598 181.548 135.494 181.538C135.437 181.538 135.352 181.557 135.314 181.538C135.219 181.453 135.106 181.444 134.926 181.491C134.775 181.529 134.538 181.576 134.652 181.264C134.661 181.235 134.661 181.179 134.661 181.179C134.311 181.273 134.368 180.98 134.33 180.753C134.33 180.715 134.283 180.706 134.255 180.687L134.075 180.536C133.99 180.46 133.914 180.394 133.716 180.573C133.621 180.659 133.489 180.64 133.47 180.573C133.422 180.365 133.214 180.337 133.101 180.205C132.94 180.025 132.732 179.94 132.372 180.11C132.212 180.186 132.164 180.091 132.193 179.93C132.051 180.025 131.919 180.11 131.777 180.214C131.758 180.148 131.767 180.044 131.729 180.053C131.569 180.082 131.455 180.006 131.304 180.034C130.963 180.101 130.736 180.006 130.576 179.807C130.528 179.76 130.5 179.722 130.424 179.703C130.178 179.656 130.008 179.486 129.743 179.448C129.658 179.438 129.639 179.306 129.573 179.249C129.469 179.174 129.355 179.107 129.232 179.051C129.11 178.985 128.949 178.956 128.845 178.88C128.618 178.71 128.353 178.578 128.268 178.266C128.211 178.058 128.012 177.982 127.984 177.746C127.965 177.585 127.927 177.443 127.908 177.301C127.937 177.273 128.003 177.225 128.022 177.188C128.164 176.79 128.022 176.535 128.079 176.176C128.079 176.138 128.031 176.109 128.041 176.09C128.107 175.977 128.183 175.873 128.306 175.845C128.306 175.845 128.325 175.816 128.325 175.807C128.293 175.674 128.347 175.473 128.485 175.201C128.485 175.201 128.466 175.164 128.466 175.135C128.495 175.003 128.542 174.87 128.561 174.747C128.58 174.606 128.561 174.473 128.561 174.312C128.448 174.369 128.315 174.435 128.211 174.483C128.041 174.369 127.937 174.218 127.719 174.227C127.634 174.227 127.615 174.104 127.483 174.18C127.483 174.076 127.483 173.962 127.464 173.877C127.407 173.717 127.379 173.537 127.133 173.556C126.972 173.575 126.849 173.49 126.726 173.423C126.546 173.329 126.329 173.281 126.102 173.272C125.913 173.263 125.714 173.272 125.544 173.215C125.355 173.159 125.213 173.054 125.043 172.979C125.005 172.96 124.948 172.979 124.891 172.988C124.797 173.026 124.721 173.036 124.674 172.988C124.636 172.95 124.57 172.932 124.513 172.96C124.097 173.121 123.964 172.856 123.766 172.686C123.709 172.629 123.728 172.468 123.756 172.336C123.766 172.279 123.898 172.184 123.974 172.109C123.879 172.061 123.747 172.118 123.842 171.872C123.936 171.607 124.116 171.314 124.087 171.078C124.154 171.049 124.182 171.04 124.21 171.031C124.248 170.86 124.106 170.548 124.021 170.246C124.144 170.283 124.22 170.34 124.277 170.321C124.324 170.302 124.352 170.198 124.352 170.132C124.352 170.066 124.277 169.99 124.267 169.915C124.239 169.744 124.163 169.527 124.229 169.394C124.343 169.158 124.22 168.969 124.191 168.723C123.955 168.713 123.756 168.827 123.596 168.59C123.302 168.619 123.151 168.25 122.924 168.212C122.735 168.174 122.612 168.013 122.461 167.976C122.281 167.919 122.281 167.56 122.063 167.616C121.487 166.945 121.364 166.86 120.758 166.548C120.456 166.396 120.172 166.198 119.813 165.98C119.813 165.98 119.727 166.018 119.661 166.056C119.519 166.141 119.387 166.406 119.217 165.933C119.217 165.933 119.037 165.734 118.999 165.763C118.886 165.829 118.772 165.8 118.649 165.763C118.564 165.763 118.469 165.791 118.347 165.838C118.12 165.933 117.855 165.99 117.666 166.122C117.467 166.254 117.41 166.321 117.221 166.283C116.881 166.217 116.54 166.245 115.982 166.623C115.301 167.077 115.036 167.701 114.554 167.437C114.478 167.399 114.403 167.361 114.346 167.333C113.949 167.626 113.93 167.645 113.712 167.607C113.296 167.541 112.908 167.654 112.445 167.947C112.199 168.108 111.821 168.581 111.509 168.231C111.499 168.222 111.433 168.231 111.405 168.25L110.799 168.78C110.733 168.836 110.638 168.959 110.601 168.94C110.27 168.798 110.137 169.111 109.939 169.224C109.626 169.404 109.324 169.612 109.04 169.839C108.794 170.037 108.643 170.368 108.246 170.283C108.198 170.274 108.113 170.35 108.066 170.406C107.933 170.558 107.782 170.671 107.669 170.851C107.565 171.012 107.215 171.002 107.073 171.153C106.931 171.305 106.713 171.324 106.619 171.456C106.496 171.636 106.326 171.513 106.212 171.607C105.985 171.816 105.796 172.061 105.55 172.232C105.295 172.411 105.2 172.79 104.822 172.799C104.793 172.799 104.765 172.969 104.746 173.054C104.727 173.14 104.718 173.234 104.699 173.329C104.387 173.452 104.084 173.575 103.857 173.669C103.64 173.575 103.469 173.499 103.299 173.433C103.328 173.348 103.365 173.159 103.214 173.196C102.959 173.263 102.987 172.969 102.817 172.96C102.817 172.884 102.817 172.799 102.817 172.723C102.741 172.733 102.684 172.742 102.59 172.752C102.524 172.591 102.457 172.421 102.382 172.232C102.306 172.326 102.268 172.383 102.221 172.44C102.278 172.61 102.126 172.582 102.051 172.638C102.079 172.828 101.966 172.828 101.852 172.771C101.559 172.638 101.275 172.657 100.991 172.809C100.925 172.846 100.859 172.865 100.831 172.875C100.519 172.563 100.32 172.932 100.055 172.894C99.9889 172.865 99.9605 172.723 99.7714 172.78C99.639 172.818 99.4404 172.998 99.2796 172.752C99.2134 172.648 99.0715 172.686 98.9675 172.752C98.6837 172.894 98.3622 172.941 98.1257 173.196C98.0311 173.3 97.7758 173.263 97.6055 173.3L97.0286 173.433V173.65C97.0286 173.65 97.0002 173.688 97.0097 173.707C97.0286 173.877 96.9719 174 96.8962 173.962C96.6219 173.849 96.5084 173.991 96.4328 174.218C96.4138 174.265 96.3666 174.303 96.3193 174.331L95.4397 174.814C95.3735 174.851 95.26 174.88 95.2505 174.927C95.1749 175.296 94.8344 175.277 94.6358 175.391C94.5412 175.532 94.475 175.722 94.3899 175.731C94.0021 175.759 93.9454 176.317 93.5198 176.261C93.2455 176.648 92.8766 176.894 92.5078 177.027C92.4699 177.159 92.451 177.216 92.4416 177.273C92.3281 177.206 92.2619 177.235 92.1578 177.339C91.9876 177.519 91.8079 177.708 91.6471 177.887C91.4485 178.105 91.2026 178.322 91.1458 178.682C91.108 178.937 90.9567 179.202 90.673 179.259C90.427 179.306 90.5878 179.514 90.4838 179.599C90.323 179.732 90.2852 179.344 90.0582 179.505C89.8123 179.684 89.5285 179.448 89.2637 179.41C89.0462 179.051 88.649 179.07 88.3274 178.985C88.3274 179.032 88.3085 179.06 88.2896 179.089C88.2707 179.07 88.2423 179.041 88.2423 179.032C88.2517 179.003 88.2801 178.994 88.3085 178.975C88.2612 178.928 88.2328 178.88 88.1855 178.871C88.0058 178.814 87.8072 178.71 87.6559 178.748C87.4762 178.795 87.3627 179.013 87.1546 179.07C87.2398 179.344 86.9939 179.438 86.852 179.42C86.5493 179.372 86.3413 179.543 86.0954 179.609C85.9535 179.647 85.84 179.741 85.6603 179.675C85.4522 179.609 85.2158 179.77 85.0172 179.76C84.724 179.76 84.601 179.902 84.4781 180.101C84.4592 180.129 84.4119 180.167 84.393 180.157C84.1849 180.053 84.0714 180.261 84.0336 180.346C83.9011 180.696 83.608 180.744 83.3148 180.8C83.2769 180.8 83.2202 180.8 83.1918 180.829C83.0216 180.99 82.8419 181.094 82.596 181.037C82.5203 181.018 82.4068 181.122 82.3312 181.188C82.1987 181.311 82.0096 181.377 81.9717 181.595C81.9717 181.633 81.8488 181.671 81.7921 181.661C81.5556 181.623 81.3381 181.689 81.3097 181.935C81.2719 182.266 81.0165 182.361 80.799 182.484C80.5909 182.607 80.345 182.673 80.1275 182.768C80.1558 183.032 80.1842 183.269 80.2126 183.505C79.9951 183.543 79.8343 183.666 79.5978 183.628C79.3614 183.59 79.1912 183.874 78.9831 183.969C78.5669 184.167 78.2737 184.489 78.1792 184.905C78.0846 185.312 77.7914 185.454 77.4793 185.775C77.4793 185.567 77.4793 185.473 77.4793 185.378C77.3469 185.34 77.1672 185.558 77.0537 185.293C77.0253 185.227 76.874 185.17 76.7983 185.179C76.4484 185.227 76.2592 184.952 76.0322 184.792C75.8998 184.697 75.635 184.697 75.6255 184.442C75.408 184.498 75.4742 184.262 75.3796 184.196C75.1905 184.054 74.973 183.903 74.8595 183.732C74.7081 183.496 74.5568 183.269 74.396 183.07C73.734 183.193 73.28 183.647 72.8355 184.073C72.6369 184.271 72.5045 184.517 72.1924 184.536C72.1041 184.404 71.855 184.275 71.4452 184.148C71.2087 184.347 71.0196 184.574 70.7169 184.659C70.5278 184.716 70.3575 184.82 70.1778 184.867C69.8941 184.943 69.9319 185.16 69.913 185.35C69.5253 185.539 69.0713 185.605 68.7592 185.945C68.6646 186.049 68.6173 186.229 68.4944 186.286C68.0687 186.503 67.7472 186.853 67.3594 187.128C67.1513 187.279 66.9622 187.43 66.7919 187.629C66.6122 187.837 66.3853 188.007 66.3474 188.3C65.9313 188.461 65.5151 188.584 65.2503 188.962C65.2219 189 65.1557 189.038 65.1084 189.048C64.9098 189.076 64.9004 189.199 64.9004 189.369C64.9004 189.483 64.8247 189.596 64.6828 189.596C64.5504 189.596 64.418 189.568 64.2856 189.549C64.3802 189.256 64.1343 189.407 64.0397 189.35C63.8506 189.227 63.5479 189.256 63.5101 188.925C63.4817 188.707 63.3115 188.575 63.1412 188.461C63.0561 188.404 62.9237 188.423 62.7724 188.404C62.8764 188.31 62.9332 188.263 62.9899 188.215C62.8764 188.092 62.5359 188.338 62.6116 187.95C62.6116 187.95 62.4224 187.809 62.3089 187.913C62.2427 187.969 62.1954 188.073 62.1198 188.102C61.9117 188.177 61.7887 188.3 61.6753 188.509C61.5807 188.688 61.401 188.953 61.0889 188.735C61.0605 188.717 60.9943 188.698 60.9943 188.698C60.7768 189.104 60.4268 188.953 60.1053 188.925C60.058 188.925 60.0012 188.962 59.9445 188.981L59.5662 189.133C59.377 189.199 59.2162 189.265 59.2541 189.53C59.273 189.662 59.1122 189.795 59.0176 189.795C58.6866 189.795 58.4501 190.003 58.1569 190.078C57.7597 190.192 57.4382 190.4 57.3057 190.826C57.249 191.024 57.0788 191.043 56.8991 190.968C56.8896 191.147 56.8707 191.317 56.8518 191.507C56.7477 191.507 56.6153 191.469 56.5869 191.507C56.464 191.696 56.2465 191.79 56.133 191.961C55.8776 192.339 55.5277 192.566 55.1115 192.679C54.998 192.708 54.9129 192.736 54.8278 192.812C54.5157 193.067 54.1185 193.19 53.8158 193.464C53.7118 193.549 53.5226 193.531 53.3807 193.587C53.1727 193.672 52.9741 193.786 52.7849 193.89C52.5768 194.003 52.3877 194.164 52.1701 194.259C51.7162 194.448 51.2717 194.694 50.7704 194.694C50.4394 194.694 50.1367 194.883 49.8057 194.836C49.5787 194.807 49.3423 194.798 49.1436 194.779C49.1342 194.732 49.1436 194.647 49.1058 194.628C48.7275 194.353 48.2357 194.42 47.8195 194.249C47.7723 194.23 47.6871 194.287 47.6682 194.259C47.5831 194.155 47.5169 194.032 47.6115 193.899C47.6115 193.899 47.5926 193.871 47.5736 193.871C47.3719 193.865 47.1607 193.745 46.94 193.512C46.94 193.512 46.8643 193.521 46.8359 193.512C46.6941 193.445 46.5617 193.341 46.4103 193.294C46.2401 193.237 46.0509 193.209 45.8239 193.162C45.7861 193.294 45.7388 193.464 45.701 193.587C45.3794 193.729 45.0862 193.795 44.8782 194.041C44.8025 194.126 44.6133 194.108 44.585 194.278C44.4431 194.249 44.3012 194.212 44.1688 194.212C43.8946 194.212 43.6297 194.202 43.4217 194.467C43.2798 194.647 43.0433 194.751 42.8353 194.864C42.5042 195.044 42.3529 195.205 41.8138 195.564C41.445 195.829 41.1045 196.103 40.7167 196.321C40.2911 196.567 39.8088 196.765 39.3737 196.983C39.2791 197.03 39.2035 197.106 39.1656 197.181C39.0994 197.304 39.0143 197.389 38.8157 197.465C38.6927 197.512 38.5414 197.597 38.5036 197.673C38.2577 198.184 37.5105 198.345 36.8674 198.59C36.6688 198.666 36.3094 198.657 36.0351 198.638C35.9216 198.638 35.8649 198.486 35.7797 198.392C35.5433 198.505 35.5055 198.657 35.0137 198.581C34.4746 198.505 33.9922 198.326 33.3112 198.411C33.3396 198.335 33.3491 198.297 33.368 198.269C32.81 198.316 32.252 198.373 31.6372 198.42C31.7696 198.316 31.9209 198.25 31.902 198.203C31.902 198.165 31.7129 198.127 31.5805 198.118C31.4481 198.118 31.2778 198.165 31.1359 198.174C30.7955 198.174 30.3415 198.231 30.1334 198.155C29.7456 198.032 29.32 198.127 28.8472 198.127C28.7053 198.335 28.8282 198.524 28.3081 198.647C28.2229 198.912 27.4379 199.016 27.2488 199.205C27.088 199.375 26.7286 199.461 26.5584 199.593C26.3597 199.754 25.6693 199.716 25.6693 199.915C24.1088 200.369 23.8818 200.463 22.9833 200.974C22.5388 201.229 22.0186 201.466 21.4322 201.759C21.4322 201.759 21.4606 201.835 21.5079 201.901C21.593 202.033 22.0281 202.175 21.0444 202.279C21.0255 202.279 20.5905 202.421 20.6094 202.459C20.685 202.563 20.5716 202.667 20.4297 202.771L32.0155 204.398L20.4391 202.809C20.4391 202.809 20.4675 202.865 20.5337 202.922C20.6661 203.017 20.7229 203.102 20.931 203.187C21.1485 203.272 21.2431 203.31 21.1485 203.357C20.9782 203.452 20.9593 203.565 21.5552 203.811C22.2645 204.114 23.3711 204.322 22.7941 204.416C22.709 204.435 22.6334 204.445 22.5672 204.464C23.04 204.643 23.0684 204.653 22.9738 204.719C22.7847 204.833 22.9171 204.984 23.39 205.183C23.6548 205.296 24.4303 205.495 23.7588 205.542C23.7399 205.542 23.7778 205.589 23.8156 205.608C24.1939 205.778 24.5911 205.949 24.9694 206.119C25.0924 206.176 25.3478 206.261 25.3194 206.28C25.1208 206.44 25.7355 206.601 26.0003 206.743C26.407 206.97 26.8516 207.197 27.3244 207.405C27.7311 207.585 28.3459 207.717 28.2986 207.963C28.2986 207.992 28.4405 208.048 28.5445 208.086C28.8282 208.181 29.0647 208.285 29.3862 208.37C29.6794 208.445 29.7456 208.663 30.0294 208.758C30.3037 208.852 30.3982 208.994 30.6347 209.051C30.9468 209.126 30.8049 209.24 30.9846 209.306C31.3629 209.448 31.7885 209.562 32.1101 209.703C32.4411 209.855 33.0086 209.883 33.141 210.12C33.1505 210.138 33.3964 210.138 33.5288 210.138C33.6517 210.138 33.7841 210.138 33.926 210.138C34.1814 210.318 34.4178 210.488 34.607 210.621C34.5408 210.782 34.4935 210.905 34.4556 211.027C34.3327 211.027 34.0773 211.027 34.1814 211.132C34.3516 211.292 33.9544 211.33 34.0111 211.453C33.9071 211.463 33.8031 211.481 33.699 211.491C33.7368 211.548 33.7747 211.585 33.822 211.652C33.6423 211.727 33.4437 211.812 33.2261 211.907C33.3774 211.945 33.472 211.964 33.5571 211.983C33.7463 211.907 33.7841 212.021 33.8787 212.068C34.1057 212.002 34.153 212.087 34.1341 212.191C34.0962 212.446 34.2476 212.654 34.5597 212.834C34.6259 212.872 34.6826 212.919 34.711 212.938C34.484 213.269 35.0231 213.326 35.0988 213.553C35.0988 213.609 34.938 213.676 35.0988 213.818C35.2123 213.912 35.5055 214.016 35.3258 214.234C35.2406 214.328 35.3636 214.432 35.4865 214.498C35.7987 214.688 36.0351 214.943 36.4323 215.056C36.6026 215.104 36.6971 215.331 36.839 215.473C36.9998 215.624 37.1511 215.775 37.3024 215.927L37.5105 215.832C37.5105 215.832 37.5578 215.832 37.5767 215.832C37.728 215.737 37.8794 215.728 37.8888 215.813C37.9456 216.106 38.1442 216.135 38.3996 216.097C38.4468 216.097 38.513 216.116 38.5698 216.144L39.0427 216.409L39.3264 216.541C39.3264 216.541 39.4115 216.608 39.4494 216.589C39.7331 216.409 39.8088 216.636 39.9412 216.683C40.0736 216.655 40.2249 216.579 40.2533 216.626C40.3668 216.853 40.7924 216.541 40.8586 216.835C41.2085 216.759 41.4828 216.835 41.6625 216.986C41.7665 216.929 41.8138 216.901 41.8611 216.872C41.8422 216.986 41.88 217.005 41.9841 217.005C42.1543 217.005 42.3435 216.986 42.5137 216.976C42.7218 216.976 42.9488 216.976 43.2136 216.797C43.4122 216.664 43.6392 216.589 43.7527 216.731C43.8473 216.853 43.9608 216.626 44.0459 216.636C44.1783 216.655 43.904 216.92 44.0837 216.957C44.2729 217.005 44.1688 217.326 44.2067 217.506C43.9986 217.865 44.1121 218.092 44.1215 218.357C44.1594 218.329 44.1783 218.319 44.2067 218.319C44.1972 218.338 44.1783 218.386 44.1783 218.386C44.1594 218.386 44.1405 218.386 44.1215 218.386C44.0932 218.442 44.0742 218.49 44.0742 218.527C44.0742 218.669 44.0459 218.868 44.1121 218.934C44.1877 219.01 44.3769 218.953 44.4715 219.048C44.6512 218.821 44.7836 218.915 44.8025 219.019C44.8403 219.237 45.02 219.256 45.1335 219.369C45.1997 219.435 45.2943 219.445 45.2943 219.596C45.2943 219.776 45.474 219.814 45.5118 219.937C45.578 220.126 45.7199 220.107 45.8902 220.06C45.9185 220.06 45.9564 220.06 45.9564 220.079C45.928 220.277 46.1077 220.22 46.1833 220.183C46.4765 220.041 46.5806 220.192 46.6941 220.353C46.713 220.372 46.7224 220.41 46.7414 220.41C46.9021 220.41 47.0156 220.457 47.044 220.655C47.044 220.712 47.148 220.722 47.2237 220.731C47.3467 220.731 47.4412 220.807 47.6115 220.703C47.6398 220.684 47.6966 220.731 47.7061 220.769C47.7344 220.939 47.8385 221.034 48.0182 220.901C48.2735 220.722 48.3965 220.816 48.5478 220.873C48.6897 220.93 48.8032 221.034 48.9167 221.119C49.1058 220.939 49.2666 220.778 49.4368 220.608C49.5125 220.722 49.6449 220.741 49.6827 220.911C49.7111 221.081 49.957 221.015 50.08 221.081C50.3259 221.214 50.6285 221.195 50.9595 220.996C51.2717 220.797 51.4608 220.892 51.7635 220.892C51.6121 221.024 51.5459 221.081 51.4703 221.147C51.4703 221.251 51.6783 221.223 51.5081 221.459C51.4703 221.516 51.4608 221.649 51.4892 221.686C51.6121 221.876 51.4608 222.159 51.3946 222.405C51.3568 222.547 51.423 222.708 51.2433 222.878C51.3379 222.973 51.1487 223.077 51.1203 223.181C51.0636 223.389 51.0068 223.616 50.9028 223.795C50.7704 224.032 50.638 224.268 50.5339 224.495C50.7798 224.826 51.2244 224.836 51.65 224.845C51.8391 224.845 52.0567 224.77 52.1418 224.959C52.0661 225.097 52.0314 225.334 52.0377 225.668C52.2363 225.696 52.4539 225.668 52.5863 225.801C52.6714 225.886 52.7944 225.923 52.87 226.009C52.993 226.141 53.1443 225.98 53.2862 225.867C53.5226 225.99 53.6739 226.236 54.005 226.207C54.109 226.207 54.2509 226.122 54.3171 226.15C54.5819 226.283 54.9129 226.264 55.2061 226.33C55.3669 226.368 55.5277 226.387 55.7074 226.368C55.906 226.349 56.0857 226.387 56.3127 226.226C56.5302 226.387 56.7288 226.567 57.0693 226.5C57.1071 226.5 57.145 226.5 57.1639 226.538C57.2301 226.642 57.3247 226.576 57.4476 226.472C57.5327 226.406 57.6368 226.377 57.6651 226.463C57.6935 226.548 57.703 226.642 57.7219 226.737C57.4854 226.86 57.6557 226.917 57.6368 227.011C57.5989 227.2 57.6935 227.38 57.4571 227.607C57.3057 227.758 57.249 227.957 57.2112 228.127C57.1922 228.212 57.2395 228.288 57.2679 228.392C57.1733 228.392 57.126 228.382 57.0788 228.373C57.022 228.515 57.2774 228.581 56.9747 228.78C56.9747 228.78 56.918 228.988 57.022 228.988C57.0788 228.988 57.1639 228.959 57.2017 228.988C57.3057 229.073 57.4287 229.073 57.6084 229.016C57.7597 228.969 57.9962 228.912 57.9205 229.234C57.9205 229.262 57.9205 229.319 57.9205 229.319C58.2704 229.205 58.2421 229.508 58.2988 229.726C58.2988 229.763 58.3556 229.763 58.3839 229.792L58.5826 229.934C58.6771 230.009 58.7622 230.066 58.9514 229.877C59.046 229.782 59.1784 229.792 59.2068 229.858C59.2824 230.066 59.4905 230.085 59.6229 230.217C59.8026 230.397 60.0296 230.463 60.3795 230.274C60.5403 230.189 60.5971 230.274 60.5781 230.444C60.7106 230.34 60.843 230.246 60.9754 230.142C60.9943 230.208 61.0038 230.312 61.0416 230.302C61.2118 230.265 61.3348 230.34 61.4861 230.302C61.8266 230.227 62.0725 230.302 62.2616 230.492C62.3089 230.539 62.3468 230.577 62.4224 230.586C62.6872 230.624 62.8764 230.785 63.1507 230.813C63.2453 230.813 63.2736 230.955 63.3493 231.002C63.4628 231.078 63.5952 231.135 63.7181 231.182C63.8506 231.239 64.0113 231.258 64.1343 231.333C64.3897 231.494 64.6734 231.617 64.7963 231.929C64.872 232.137 65.0895 232.203 65.1368 232.44C65.1747 232.601 65.2219 232.752 65.2598 232.884C65.2314 232.922 65.1652 232.97 65.1557 233.007C65.0422 233.424 65.2219 233.679 65.1936 234.038C65.1936 234.076 65.2503 234.104 65.2409 234.123C65.1841 234.246 65.1179 234.36 64.9855 234.388C64.9855 234.388 64.9666 234.417 64.976 234.426C65.0202 234.558 64.9855 234.767 64.872 235.05C64.872 235.05 64.9004 235.088 64.8909 235.116C64.872 235.249 64.8342 235.391 64.8342 235.514C64.8342 235.656 64.8625 235.788 64.8815 235.958C64.995 235.901 65.1179 235.826 65.2219 235.769C65.4016 235.873 65.5246 236.024 65.761 235.996C65.8462 235.996 65.8745 236.119 66.0069 236.024C66.0259 236.128 66.0259 236.242 66.0637 236.327C66.1394 236.488 66.1866 236.668 66.4325 236.63C66.5933 236.611 66.7352 236.686 66.8676 236.743C67.0662 236.828 67.2837 236.866 67.5202 236.866C67.7188 236.866 67.9269 236.857 68.0971 236.895C68.2957 236.942 68.4565 237.046 68.6457 237.112C68.6835 237.131 68.7497 237.112 68.797 237.093C68.8916 237.046 68.9672 237.036 69.024 237.093C69.0618 237.131 69.1375 237.14 69.1942 237.121C69.6104 236.932 69.7712 237.197 69.9887 237.358C70.0549 237.405 70.0549 237.575 70.036 237.708C70.036 237.765 69.9036 237.869 69.8374 237.954C69.9319 237.992 70.0644 237.935 69.9981 238.19C69.9319 238.465 69.7712 238.767 69.8279 239.004C69.7617 239.032 69.7333 239.041 69.7049 239.06C69.7333 239.268 69.7522 239.467 69.7806 239.694C69.6955 239.694 69.6387 239.666 69.6009 239.694C69.5631 239.722 69.5252 239.817 69.5158 239.864C69.5158 239.921 69.5442 239.959 69.5442 240.016C69.5347 240.148 69.5442 240.309 69.478 240.422C69.3172 240.621 69.4874 240.819 69.5158 241.056C69.7617 241.056 69.9698 240.942 70.1589 241.169C70.4616 241.132 70.6507 241.491 70.8966 241.529C71.1047 241.557 71.2371 241.709 71.3979 241.756C71.5965 241.803 71.6154 242.162 71.8424 242.106C72.495 242.758 72.6274 242.834 73.2895 243.127C73.6205 243.269 73.9326 243.458 74.3298 243.666C74.3298 243.666 74.4149 243.628 74.4812 243.581C74.6325 243.496 74.7554 243.231 74.9635 243.695C74.9635 243.695 75.1621 243.884 75.2094 243.855C75.3229 243.789 75.4553 243.808 75.5877 243.855C75.6634 243.855 75.758 243.827 75.8715 243.78C76.089 243.685 76.3349 243.638 76.5146 243.515C76.6943 243.383 76.7605 243.326 76.9307 243.364C77.2523 243.43 77.5833 243.411 78.113 243.052C78.7466 242.616 78.9831 241.992 79.456 242.267C79.5316 242.304 79.6073 242.342 79.6546 242.371C80.0234 242.087 80.0424 242.068 80.2504 242.106C80.6477 242.172 81.026 242.077 81.4516 241.784C81.6786 241.623 82.0569 241.151 82.2555 241.557C82.2555 241.567 82.3312 241.557 82.3501 241.538L82.9175 241.018C82.9837 240.961 83.0689 240.838 83.1067 240.857C83.4188 240.999 83.5417 240.697 83.7309 240.583C84.0241 240.413 84.3173 240.205 84.5727 239.987C84.7996 239.798 84.9415 239.467 85.3198 239.552C85.3671 239.562 85.4428 239.486 85.4901 239.439C85.613 239.297 85.7549 239.183 85.8589 239.004C85.9535 238.843 86.2845 238.862 86.4264 238.71C86.5588 238.569 86.7669 238.54 86.852 238.417C86.9655 238.238 87.1357 238.36 87.2303 238.266C87.4384 238.067 87.6181 237.821 87.8545 237.651C88.091 237.481 88.1761 237.103 88.5449 237.093C88.5733 237.093 88.6017 236.932 88.6206 236.838C88.6395 236.753 88.649 236.658 88.6584 236.563C88.9516 236.441 89.2354 236.327 89.4529 236.242C89.6704 236.336 89.8312 236.412 89.9825 236.488C89.9542 236.573 89.9258 236.753 90.0676 236.724C90.3041 236.668 90.2852 236.951 90.446 236.961C90.446 237.036 90.446 237.121 90.446 237.197C90.5216 237.197 90.5689 237.178 90.6635 237.169C90.7297 237.33 90.7959 237.5 90.8716 237.689C90.9378 237.594 90.9756 237.547 91.0134 237.49C90.9567 237.32 91.0986 237.348 91.1742 237.301C91.1458 237.112 91.2499 237.112 91.3634 237.169C91.6471 237.301 91.9214 237.292 92.1862 237.14C92.243 237.112 92.3092 237.084 92.3375 237.074C92.6402 237.386 92.8199 237.027 93.0847 237.074C93.1414 237.103 93.1793 237.244 93.359 237.197C93.4819 237.159 93.6711 236.989 93.8319 237.235C93.8981 237.339 94.0305 237.301 94.1345 237.244C94.3993 237.103 94.702 237.065 94.929 236.809C95.0236 236.705 95.26 236.743 95.4302 236.715L95.9788 236.592V236.374C95.9788 236.374 95.9977 236.336 95.9977 236.318C95.9788 236.147 96.0261 236.024 96.1017 236.062C96.3666 236.176 96.4706 236.043 96.5368 235.816C96.5557 235.769 96.603 235.731 96.6408 235.703L97.4731 235.239C97.5299 235.202 97.6434 235.183 97.6528 235.135C97.719 234.776 98.0501 234.795 98.2298 234.691C98.3243 234.549 98.3811 234.36 98.4567 234.36C98.8256 234.341 98.8729 233.783 99.2796 233.849C99.5255 233.471 99.8849 233.225 100.235 233.102C100.263 232.97 100.282 232.913 100.292 232.865C100.405 232.932 100.462 232.903 100.556 232.799C100.717 232.62 100.878 232.44 101.029 232.26C101.218 232.052 101.445 231.835 101.493 231.485C101.521 231.229 101.663 230.974 101.928 230.927C102.155 230.889 102.003 230.671 102.098 230.596C102.249 230.473 102.287 230.851 102.505 230.7C102.741 230.529 103.006 230.766 103.261 230.804C103.479 231.163 103.848 231.144 104.16 231.239C104.16 231.191 104.179 231.163 104.188 231.144C104.207 231.163 104.235 231.191 104.235 231.201C104.226 231.22 104.198 231.239 104.179 231.258C104.226 231.305 104.254 231.352 104.302 231.362C104.472 231.418 104.661 231.532 104.812 231.494C104.983 231.447 105.087 231.229 105.285 231.182C105.2 230.908 105.427 230.813 105.569 230.842C105.853 230.898 106.051 230.728 106.288 230.662C106.42 230.624 106.524 230.539 106.704 230.596C106.903 230.671 107.12 230.511 107.309 230.52C107.593 230.529 107.697 230.378 107.82 230.189C107.839 230.161 107.886 230.123 107.905 230.132C108.113 230.236 108.217 230.038 108.246 229.943C108.369 229.593 108.643 229.555 108.927 229.508C108.964 229.508 109.012 229.508 109.04 229.48C109.201 229.328 109.362 229.224 109.608 229.281C109.683 229.3 109.787 229.205 109.863 229.13C109.986 229.007 110.166 228.941 110.203 228.732C110.203 228.695 110.317 228.657 110.374 228.666C110.601 228.704 110.799 228.647 110.828 228.401C110.856 228.07 111.102 227.985 111.3 227.862C111.499 227.739 111.736 227.683 111.934 227.598C111.896 227.333 111.868 227.106 111.84 226.86C112.048 226.831 112.199 226.708 112.426 226.746C112.653 226.784 112.804 226.51 113.003 226.415C113.391 226.226 113.665 225.914 113.75 225.488C113.826 225.091 114.109 224.949 114.393 224.637C114.393 224.845 114.403 224.94 114.403 225.034C114.526 225.072 114.696 224.855 114.809 225.12C114.838 225.186 114.98 225.243 115.055 225.233C115.386 225.186 115.575 225.46 115.793 225.63C115.925 225.725 116.171 225.725 116.19 225.98C116.398 225.923 116.332 226.16 116.427 226.226C116.606 226.368 116.824 226.519 116.928 226.699C117.07 226.935 117.221 227.162 117.391 227.361C118.016 227.248 118.441 226.813 118.857 226.387C119.046 226.198 119.16 225.952 119.463 225.933C119.551 226.065 119.79 226.198 120.181 226.33C120.399 226.141 120.579 225.914 120.862 225.829C121.042 225.782 121.193 225.678 121.373 225.63C121.638 225.564 121.6 225.347 121.609 225.148C121.978 224.959 122.413 224.911 122.697 224.571C122.782 224.467 122.83 224.287 122.943 224.231C123.35 224.022 123.643 223.673 124.012 223.417C124.21 223.275 124.381 223.124 124.541 222.925C124.712 222.717 124.929 222.557 124.948 222.263C125.336 222.112 125.733 221.989 125.988 221.62C126.017 221.582 126.074 221.545 126.121 221.535C126.31 221.507 126.319 221.384 126.319 221.223C126.319 221.109 126.386 220.996 126.518 220.996C126.641 220.996 126.764 221.034 126.896 221.053C126.821 221.336 127.048 221.195 127.133 221.251C127.313 221.374 127.606 221.346 127.653 221.677C127.681 221.894 127.852 222.036 128.022 222.14C128.107 222.197 128.23 222.178 128.381 222.197C128.287 222.292 128.23 222.339 128.183 222.386C128.287 222.509 128.618 222.273 128.552 222.661C128.552 222.661 128.731 222.802 128.845 222.698C128.911 222.642 128.949 222.538 129.015 222.509C129.214 222.434 129.327 222.32 129.431 222.112C129.516 221.942 129.686 221.677 129.98 221.894C130.008 221.913 130.074 221.932 130.074 221.932C130.273 221.535 130.604 221.686 130.916 221.724C130.963 221.724 131.02 221.686 131.067 221.667L131.427 221.526C131.606 221.459 131.758 221.393 131.72 221.128C131.701 220.996 131.843 220.864 131.947 220.864C132.259 220.873 132.486 220.674 132.76 220.589C133.139 220.485 133.432 220.287 133.555 219.861C133.611 219.662 133.772 219.644 133.942 219.729C133.952 219.558 133.961 219.379 133.971 219.199C134.065 219.199 134.198 219.237 134.217 219.199C134.33 219.019 134.538 218.925 134.642 218.754C134.879 218.376 135.21 218.168 135.598 218.055C135.702 218.026 135.787 217.998 135.872 217.932C136.165 217.686 136.534 217.563 136.827 217.298C136.922 217.213 137.111 217.241 137.234 217.184C137.432 217.099 137.612 216.995 137.801 216.891C138 216.778 138.18 216.626 138.378 216.541C138.804 216.352 139.22 216.116 139.702 216.125C140.024 216.125 140.298 215.946 140.62 216.002C140.837 216.04 141.055 216.05 141.253 216.068C141.263 216.116 141.253 216.201 141.291 216.22C141.66 216.504 142.124 216.437 142.521 216.608C142.559 216.626 142.653 216.579 142.672 216.598C142.757 216.702 142.823 216.825 142.729 216.957C142.729 216.957 142.748 216.986 142.767 216.986C142.962 216.992 143.167 217.115 143.381 217.355C143.381 217.355 143.457 217.355 143.476 217.355C143.608 217.43 143.741 217.525 143.883 217.582C144.053 217.648 144.223 217.667 144.441 217.724C144.479 217.591 144.516 217.43 144.554 217.298C144.857 217.156 145.131 217.099 145.33 216.853C145.405 216.768 145.576 216.787 145.604 216.617C145.736 216.645 145.869 216.693 146.011 216.693C146.266 216.693 146.521 216.712 146.72 216.447C146.852 216.277 147.07 216.173 147.269 216.059C147.562 215.898 147.808 215.69 148.035 215.454C148.091 215.369 148.309 215.217 148.47 215.094C148.64 214.971 148.81 214.848 148.999 214.735C149.406 214.498 149.86 214.309 150.276 214.092C150.361 214.045 150.437 213.969 150.475 213.903C150.541 213.78 150.626 213.695 150.815 213.628C150.938 213.591 151.08 213.505 151.118 213.43C151.364 212.91 152.073 212.768 152.669 212.531C152.858 212.456 153.189 212.475 153.445 212.503C153.549 212.512 153.596 212.664 153.681 212.749C153.898 212.635 153.946 212.484 154.4 212.569C154.892 212.664 155.346 212.853 155.989 212.777C155.96 212.853 155.941 212.891 155.932 212.919C156.452 212.881 156.972 212.843 157.549 212.806C157.426 212.91 157.284 212.976 157.294 213.023C157.294 213.061 157.464 213.108 157.587 213.118C157.71 213.118 157.871 213.07 158.003 213.07C158.325 213.07 158.741 213.033 158.94 213.108C159.299 213.25 159.696 213.155 160.141 213.165C160.283 212.957 160.169 212.768 160.661 212.654C160.746 212.389 161.484 212.304 161.673 212.115C161.834 211.954 162.165 211.869 162.325 211.737C162.515 211.576 163.158 211.633 163.167 211.434C164.643 211.009 164.851 210.914 165.711 210.422C166.137 210.176 166.629 209.949 167.187 209.656C167.187 209.656 167.158 209.58 167.121 209.514C167.045 209.372 166.638 209.221 167.565 209.136C167.584 209.136 168 209.004 167.972 208.966C167.906 208.862 168.019 208.758 168.142 208.654L168.095 208.72ZM139.91 189.18C140.043 189.199 140.071 189.246 139.873 189.426C139.891 189.341 139.901 189.265 139.91 189.18ZM77.0726 185.671C76.9686 185.624 76.8929 185.596 76.7889 185.558C76.9402 185.416 77.0348 185.406 77.0726 185.671ZM51.7256 221.469C51.5838 221.469 51.5554 221.412 51.7445 221.223C51.7445 221.318 51.7351 221.384 51.7256 221.469ZM114.762 224.789C114.866 224.836 114.942 224.864 115.036 224.911C114.894 225.053 114.809 225.063 114.762 224.789Z" fill="#F7CE5F"/>
<path d="M60.1719 190.742L38.125 200.423L78.3697 230.861L90.4685 216.88L60.1719 190.742Z" fill="#99D5CE"/>
<path d="M78.3561 232.951C77.926 232.951 77.4848 232.819 77.1098 232.544L37.957 203.645C37.3614 203.205 37.0416 202.479 37.1188 201.742L37.3394 199.707C37.4166 198.981 37.8688 198.343 38.5415 198.035L58.2503 188.85C58.6363 188.674 59.0664 188.608 59.4855 188.685L135.574 201.621C136.71 201.819 137.482 202.897 137.284 204.03C137.085 205.164 135.993 205.934 134.869 205.736L59.4194 192.909L41.6627 201.181L79.5913 229.178C80.5178 229.86 80.7163 231.169 80.0325 232.104C79.6244 232.654 78.9848 232.951 78.3451 232.951H78.3561Z" fill="#9C7625"/>
<path d="M44.9375 184.251C44.9375 184.251 50.6505 190.786 46.4154 201.357L79.6346 225.46L95.4281 219.013L64.161 185.715L44.9375 184.251Z" fill="white"/>
<path d="M79.6397 227.11C79.2978 227.11 78.9559 227 78.6691 226.791L45.4499 202.689C44.8323 202.249 44.6006 201.446 44.8874 200.742C48.6703 191.303 43.8948 185.561 43.6963 185.319C43.2661 184.813 43.1779 184.087 43.4757 183.493C43.7735 182.899 44.4132 182.547 45.0749 182.591L64.2984 184.054C64.7065 184.087 65.0925 184.274 65.3792 184.571L96.6463 217.87C97.0213 218.266 97.1757 218.816 97.0544 219.355C96.9441 219.883 96.5691 220.323 96.0618 220.532L80.2683 226.978C80.0698 227.066 79.8492 227.099 79.6397 227.099V227.11ZM48.4056 200.764L79.8603 223.59L92.5767 218.398L63.394 187.31L48.0196 186.144C49.3982 189.114 50.6886 194.163 48.4167 200.764H48.4056Z" fill="#9C7625"/>
<path d="M145.764 196.286L143.646 187.827L104.427 163.515L44.0215 182.535L80.0531 210.026L79.634 229.684L142.587 207.914L145.764 196.286Z" fill="#99D5CE"/>
<path d="M78.3673 232.951C77.7938 232.951 77.2424 232.72 76.8343 232.291C76.2608 231.675 76.1064 230.795 76.4483 230.025C81.29 219.014 76.3821 208.728 76.338 208.629C75.8307 207.595 76.2608 206.341 77.2975 205.835C78.3342 205.329 79.5915 205.747 80.0989 206.781C80.3084 207.21 84.7421 216.384 81.7973 227.418L141.266 206.176C142.501 204.273 146.537 196.847 140.835 187.904C140.218 186.925 140.505 185.638 141.475 185.022C142.446 184.406 143.747 184.692 144.365 185.66C148.589 192.282 148.357 198.31 147.42 202.205C146.394 206.429 144.343 209.102 144.254 209.212C144.012 209.52 143.681 209.762 143.306 209.894L79.0842 232.841C78.8526 232.929 78.61 232.962 78.3784 232.962L78.3673 232.951Z" fill="#9C7625"/>
<path d="M77.5754 210.004C77.1453 210.004 76.7262 209.872 76.3733 209.63L38.7093 183.305C38.0476 182.843 37.7167 182.04 37.8491 181.248C37.9814 180.456 38.566 179.807 39.338 179.587L102.986 161.502C103.538 161.337 104.144 161.425 104.64 161.722L143.628 184.978C144.334 185.396 144.731 186.188 144.632 187.002C144.543 187.816 143.981 188.498 143.198 188.751L78.2261 209.894C78.0166 209.96 77.796 209.993 77.5754 209.993V210.004ZM44.7201 182.403L77.9173 205.604L137.518 186.21L103.262 165.77L44.7201 182.403Z" fill="#9C7625"/>
<path d="M62.0606 155.969L40.0137 165.649L80.2584 196.088L92.3572 182.106L62.0606 155.969Z" fill="#D7C8A8"/>
<path d="M80.2448 198.179C79.8146 198.179 79.3735 198.047 78.9985 197.772L39.8457 168.873C39.2501 168.433 38.9303 167.707 39.0075 166.97L39.228 164.935C39.3052 164.209 39.7574 163.571 40.4302 163.263L60.139 154.077C60.525 153.901 60.9551 153.835 61.3742 153.912L137.463 166.849C138.599 167.047 139.371 168.125 139.173 169.258C138.974 170.391 137.882 171.161 136.757 170.963L61.308 158.136L43.5514 166.409L81.4911 194.405C82.4175 195.088 82.616 196.397 81.9322 197.332C81.5241 197.882 80.8845 198.179 80.2448 198.179Z" fill="#9C7625"/>
<path d="M46.8262 149.479C46.8262 149.479 52.5392 156.013 48.3041 166.585L81.5233 190.687L97.3168 184.241L66.0497 150.942L46.8262 149.479Z" fill="white"/>
<path d="M81.5205 192.337C81.1786 192.337 80.8367 192.227 80.55 192.018L47.3307 167.916C46.7131 167.476 46.4815 166.672 46.7683 165.968C50.5512 156.53 45.7756 150.788 45.5771 150.557C45.147 150.051 45.0588 149.324 45.3565 148.73C45.6543 148.136 46.294 147.784 46.9557 147.828L66.1792 149.291C66.5873 149.324 66.9733 149.512 67.2601 149.809L98.5272 183.107C98.9022 183.503 99.0566 184.053 98.9353 184.593C98.825 185.121 98.45 185.561 97.9427 185.77L82.1492 192.216C81.9507 192.304 81.7301 192.337 81.5205 192.337ZM50.2865 165.99L81.7411 188.817L94.4575 183.624L65.2749 152.537L49.9005 151.371C51.2791 154.341 52.5695 159.39 50.2975 165.99H50.2865Z" fill="#9C7625"/>
<path d="M147.652 161.514L145.535 153.054L106.316 128.732L45.9102 147.763L81.9418 175.254L81.5227 194.912L144.476 173.141L147.652 161.514Z" fill="#D7C8A8"/>
<path d="M80.256 198.179C79.6825 198.179 79.131 197.948 78.723 197.519C78.1495 196.903 77.9951 196.023 78.337 195.253C83.1787 184.241 78.2708 173.956 78.2267 173.857C77.7193 172.823 78.1495 171.568 79.1862 171.062C80.2229 170.556 81.4802 170.974 81.9875 172.008C82.1971 172.437 86.6307 181.612 83.686 192.646L143.154 171.403C144.389 169.5 148.426 162.075 142.724 153.131C142.106 152.152 142.393 150.865 143.364 150.249C144.334 149.633 145.636 149.919 146.253 150.887C150.477 157.51 150.246 163.538 149.308 167.432C148.283 171.656 146.231 174.33 146.143 174.44C145.9 174.748 145.57 174.99 145.195 175.122L80.9729 198.069C80.7413 198.157 80.4986 198.19 80.267 198.19L80.256 198.179Z" fill="#9C7625"/>
<path d="M79.4641 175.232C79.034 175.232 78.6149 175.1 78.2619 174.858L40.598 148.533C39.9363 148.071 39.6054 147.268 39.7377 146.476C39.8701 145.684 40.4546 145.035 41.2267 144.815L104.875 126.73C105.426 126.565 106.033 126.653 106.529 126.95L145.517 150.205C146.222 150.623 146.619 151.415 146.52 152.229C146.432 153.043 145.869 153.725 145.086 153.978L80.1148 175.122C79.9052 175.188 79.6847 175.221 79.4641 175.221V175.232ZM46.6088 147.62L79.806 170.82L139.407 151.426L105.151 130.987L46.6088 147.62Z" fill="#9C7625"/>
<path d="M101.81 88.2833C101.81 88.2833 82.1451 80.4068 77.4357 80.4178C77.4357 80.4178 72.7484 76.9086 63.1532 76.1826C63.1532 76.1826 51.0103 74.5875 49.5876 87.9093C48.1759 101.143 82.1782 134.387 97.5525 137.412" fill="#CFD4E0"/>
<path d="M96.667 141.251C96.303 141.251 95.9391 141.163 95.6082 140.965C75.8553 129.348 61.7713 117.336 53.7532 105.257C47.8307 96.3354 45.6139 87.5459 47.8417 81.7376C51.4813 72.222 63.9992 73.8721 64.5285 73.9491C64.5947 73.9491 64.6719 73.9711 64.7381 73.9931C64.9587 74.0481 87.0718 79.5264 104.464 87.0839C105.523 87.5459 106.008 88.778 105.545 89.834C105.082 90.8901 103.847 91.3741 102.788 90.9121C86.388 83.7727 65.6204 78.5144 63.8558 78.0744C62.8632 77.9644 54.0731 77.1723 51.757 83.2337C49.3968 89.383 53.0695 111.098 97.7368 137.368C98.7294 137.951 99.0602 139.238 98.4757 140.228C98.0897 140.888 97.3839 141.262 96.667 141.262V141.251Z" fill="#4C4948"/>
<path d="M89.2267 99.9453L89.2204 99.9226L89.2136 99.9L66.7181 25.6479C66.7177 25.6466 66.7173 25.6452 66.7169 25.6439C65.7555 22.4289 63.0167 20.8736 60.4038 21.3931C59.1409 21.6442 57.9755 22.3828 57.2217 23.5513C56.4612 24.7301 56.2034 26.2109 56.4939 27.814L56.5064 27.8831L56.524 27.9511C56.5203 27.9365 56.582 28.2465 56.7055 28.8667C56.8148 29.4153 56.9724 30.2065 57.1757 31.2305C57.5958 33.3456 58.1911 36.3489 58.9035 39.9445C59.561 43.2632 60.3195 47.0927 61.1318 51.1942C62.0777 55.9698 63.0965 61.1142 64.1142 66.2505C66.0075 75.8063 67.9016 85.3596 69.3292 92.5392C70.0431 96.1289 70.6405 99.126 71.0629 101.234C71.2741 102.287 71.4419 103.12 71.5588 103.694C71.6171 103.981 71.6634 104.206 71.6963 104.363C71.7125 104.44 71.7266 104.506 71.7378 104.557C71.7431 104.581 71.7497 104.61 71.7565 104.639C71.7597 104.652 71.7657 104.676 71.7736 104.706C71.7752 104.711 71.7777 104.72 71.7806 104.73C73.1027 109.535 78.0839 112.346 82.8863 111.041C87.7011 109.732 90.5561 104.761 89.2267 99.9453Z" fill="#EED497" stroke="#4C4948" stroke-width="3.80001"/>
<path d="M77.2798 84.8843C77.2798 84.8843 76.0777 94.5098 60.0636 97.084L55.9277 86.0943C55.9277 86.0943 59.232 78.7366 62.557 78.0716C65.882 77.4066 72.0521 78.1849 72.0521 78.1849L77.2688 84.8843H77.2798Z" fill="#CFD4E0"/>
<path d="M167.129 56.6277C170.096 56.5837 172.831 53.2175 172.831 53.2175C170.791 45.8471 175.026 45.5061 175.026 45.5061C183.441 49.0043 195.959 40.4678 191.36 30.9522C186.43 20.7656 173.824 24.7039 167.151 30.4572C160.755 24.3848 148.358 19.8416 142.943 29.7752C137.881 39.0597 149.957 48.1792 158.538 45.099C158.538 45.099 162.751 45.6491 160.347 52.9095C160.347 52.9095 161.593 56.7047 167.151 56.6277H167.129Z" fill="white"/>
<path d="M166.943 58.7186C160.106 58.7186 158.407 53.7683 158.341 53.5593C158.198 53.1413 158.209 52.6792 158.341 52.2612C159.333 49.269 158.925 48.026 158.705 47.6299C158.628 47.4869 158.539 47.3989 158.462 47.3219C155.054 48.29 151.139 47.828 147.588 45.9909C143.816 44.0437 141.07 40.8646 140.066 37.2564C138.621 32.0751 141.301 26.4537 146.584 23.5936C150.896 21.2504 156.587 21.5585 162.201 24.4296C162.245 24.4516 165.146 26.0577 167.208 27.7298C172.127 24.0336 179.505 20.9974 186.046 23.3406C190.259 24.8476 193.214 28.3568 193.975 32.7351C194.748 37.2234 193.027 41.7996 189.476 44.6818C187.314 46.4419 184.612 47.6739 181.866 48.158C180.2 48.444 178.733 48.147 177.443 47.872C176.583 47.696 175.844 47.5309 175.215 47.5859C175.248 47.5859 174.962 47.6519 174.741 48.015C174.498 48.4 174.035 49.6211 174.873 52.6572C175.05 53.3063 174.906 54.0103 174.487 54.5273C174.145 54.9454 171.024 58.6526 167.197 58.7076C167.12 58.7076 167.043 58.7076 166.977 58.7076L166.943 58.7186ZM162.576 52.7232C163.05 53.4053 164.285 54.5713 167.098 54.5383C168.245 54.5163 169.624 53.4933 170.528 52.6242C169.877 49.6211 170.142 47.2559 171.311 45.5728C172.612 43.7027 174.476 43.4497 174.84 43.4277C176.086 43.3287 177.245 43.5707 178.281 43.7797C179.34 43.9997 180.244 44.1868 181.116 44.0437C183.156 43.6807 185.185 42.7677 186.796 41.4476C189.211 39.4785 190.336 36.4863 189.818 33.4391C189.321 30.524 187.413 28.2798 184.612 27.2788C179.461 25.4307 172.811 28.3458 168.51 32.0421C167.627 32.8011 166.304 32.7021 165.554 31.822C165.521 31.789 165.488 31.745 165.466 31.701C164.55 30.953 160.855 28.4779 160.249 28.1368C155.981 25.9477 151.613 25.6177 148.58 27.2678C145.669 28.8519 143.022 32.2951 144.102 36.1453C144.797 38.6314 146.771 40.8646 149.518 42.2836C152.275 43.7027 155.374 44.0217 157.823 43.1417C158.131 43.0317 158.473 42.9877 158.804 43.0317C159.797 43.1637 161.286 43.8457 162.223 45.3418C163.359 47.1349 163.48 49.6211 162.587 52.7232H162.576Z" fill="#4C4948"/>
<path d="M94.1523 135.927C96.0824 152.648 112.46 210.775 185.516 214.461C185.516 214.461 258.241 223.514 285.494 169.512C285.494 169.512 304.839 180.062 323.18 164.177C323.18 164.177 322.783 146.026 285.935 149.227L282.461 138.963L274.498 129.382L262.829 123.87C262.829 123.87 247.907 141.262 268.542 157.543C268.542 157.543 261.44 163.869 246.363 159.149L239.404 149.304L241.378 111.319C241.378 111.319 235.433 53.8403 170.936 52.5202C137.254 51.8272 118.945 61.6178 107.2 80.5499L103.097 87.1282" fill="#CFD4E0"/>
<path d="M99.6816 151.25C99.6816 151.25 103.343 101.99 154.849 104.729C205.494 107.424 208.394 139.645 219.015 178.389C219.015 178.389 226.956 200.533 248.407 205.341C248.407 205.341 214.35 227.551 149.764 209.763C149.764 209.763 107.192 190.237 99.6816 151.239V151.25Z" fill="white"/>
<path d="M194.994 219.169C190.119 219.169 187.009 218.894 186.468 218.839C157.198 217.53 133.926 207.387 117.306 188.708C94.8398 163.462 91.9392 131.208 92.7112 120.911C93.6486 108.502 101.832 46.7998 171.226 50.5401C204.137 52.3112 229.691 68.6581 239.584 94.2786C244.359 106.643 243.422 118.469 242.44 130.988C242.33 132.396 242.22 133.804 242.11 135.223C241.768 139.92 241.382 155.409 250.712 157.664C257.352 159.27 262.039 157.873 264.554 156.652C246.885 139.898 260.539 122.154 260.682 121.978C261.223 121.285 262.149 121.01 262.976 121.285C275.88 125.498 281.847 132.957 284.571 138.468C286.325 142.021 287.009 145.222 287.262 147.313C300.982 145.42 311.515 147.104 318.607 152.329C325.367 157.323 326.316 163.726 326.349 163.99C326.448 164.683 326.183 165.387 325.643 165.849C309.805 179.566 292.28 174.352 286.512 172.031C275.086 193.955 254.385 208.982 226.526 215.539C213.82 218.531 202.372 219.158 194.983 219.158L194.994 219.169ZM165.26 54.5553C141.305 54.5553 123.096 63.0698 111.096 79.9227C99.9021 95.6316 97.4426 114.036 96.9022 121.23C96.2184 130.372 99.0639 161.899 120.449 185.947C136.298 203.768 158.587 213.426 186.711 214.68C186.744 214.68 186.788 214.68 186.821 214.68C187.527 214.746 257.881 221.039 283.667 168.412C283.92 167.906 284.362 167.521 284.902 167.345C285.442 167.169 286.027 167.224 286.534 167.488C287.295 167.895 305.217 177.069 321.937 163.517C321.419 161.844 319.941 158.478 316.004 155.618C309.563 150.932 299.074 149.612 285.663 151.79C285.045 151.889 284.417 151.713 283.942 151.295C283.468 150.877 283.215 150.283 283.237 149.656C283.259 148.974 283.435 133.133 263.153 125.773C260.649 129.756 254.308 142.857 269.384 155.354C269.858 155.75 270.134 156.322 270.145 156.938C270.156 157.554 269.892 158.137 269.428 158.544C269.131 158.797 262.094 164.738 249.742 161.745C245.683 160.766 236.397 156.179 237.952 134.937C238.051 133.507 238.172 132.088 238.283 130.68C239.231 118.645 240.124 107.281 235.691 95.7966C226.415 71.7603 202.24 56.4144 171.017 54.7313C169.065 54.6213 167.146 54.5773 165.271 54.5773L165.26 54.5553Z" fill="#4C4948"/>
<path d="M140.419 190.622C139.978 190.622 139.537 190.457 139.195 190.138C115.725 168.092 114.302 135.553 114.247 134.177C114.214 133.187 114.986 132.362 115.968 132.329C116.96 132.274 117.787 133.066 117.821 134.045C117.832 134.364 119.265 166.519 141.643 187.531C142.36 188.213 142.393 189.335 141.72 190.061C141.367 190.435 140.893 190.622 140.419 190.622Z" fill="#DCDDDD"/>
<path d="M164.651 198.268C164.166 198.268 163.68 198.07 163.327 197.685C131.112 162.406 138.17 121.252 138.236 120.834C138.413 119.866 139.35 119.217 140.321 119.393C141.291 119.569 141.942 120.493 141.766 121.472C141.7 121.868 134.994 161.338 165.974 195.275C166.636 196.001 166.592 197.135 165.853 197.795C165.511 198.103 165.081 198.257 164.651 198.257V198.268Z" fill="#DCDDDD"/>
<path d="M187.745 199.532C187.259 199.532 186.774 199.334 186.421 198.949C174.201 185.539 169.095 165.617 166.966 151.261C164.672 135.805 165.223 123.661 165.245 123.144C165.29 122.154 166.139 121.395 167.12 121.45C168.113 121.494 168.874 122.33 168.83 123.32C168.808 123.804 166.767 172.085 189.068 196.54C189.73 197.266 189.686 198.399 188.947 199.059C188.605 199.367 188.175 199.521 187.745 199.521V199.532Z" fill="#DCDDDD"/>
<path d="M206.947 194.638C206.407 194.638 205.866 194.396 205.514 193.934C187.845 170.7 188.352 139.579 188.375 138.259C188.397 137.291 189.191 136.51 190.161 136.51C190.172 136.51 190.183 136.51 190.205 136.51C191.198 136.532 191.981 137.346 191.959 138.336C191.959 138.644 191.474 169.545 208.37 191.766C208.966 192.558 208.811 193.67 208.028 194.275C207.708 194.517 207.322 194.638 206.947 194.638Z" fill="#DCDDDD"/>
<path d="M225.463 94.6961C225.463 94.6961 264.241 96.6542 276.229 97.8642C278.689 98.1173 281.093 98.8433 283.189 100.152C290.004 104.41 296.324 116.125 237.937 141.658L225.463 94.6851V94.6961Z" fill="#CFD4E0"/>
<path d="M234.566 145.553C233.783 145.553 233.033 145.101 232.691 144.331C232.239 143.297 232.713 142.098 233.739 141.647C278.837 121.923 284.384 110.483 284.682 106.467C284.858 104.113 283.369 102.672 282.101 101.88C280.359 100.791 278.318 100.12 276.024 99.8889C264.223 98.6898 229.283 96.7427 228.93 96.7207C227.805 96.6547 226.945 95.6977 227.011 94.5756C227.078 93.4535 228.026 92.5845 229.162 92.6615C229.515 92.6835 264.543 94.6306 276.443 95.8407C279.366 96.1377 282.002 97.0067 284.274 98.4368C287.417 100.406 289.005 103.365 288.752 106.775C287.98 117.237 270.024 130.229 235.371 145.377C235.107 145.498 234.831 145.553 234.555 145.553H234.566Z" fill="#4C4948"/>
<path d="M65.2712 97.821C64.444 97.821 63.6609 97.326 63.3301 96.5119C62.8999 95.4449 63.4183 94.2238 64.4881 93.7948C67.1792 92.7167 73.4767 89.6915 73.6421 85.0383C73.8517 79.395 63.3126 78.0672 62.9927 78.0342C61.1727 77.8466 60.5736 76.9272 60.6949 75.7832C60.8162 74.6391 61.8419 73.803 62.9889 73.913C68.1282 74.4059 78.1199 77.5358 77.8331 85.1923C77.5795 92.0347 70.3445 95.9509 66.0542 97.678C65.8005 97.777 65.5358 97.832 65.2712 97.832V97.821Z" fill="#4C4948"/>
<path d="M211.514 64.0494L255.531 62.6963L230.054 31.5315L189.787 27.7363L211.514 64.0494Z" fill="#9CADC2"/>
<path d="M211.516 66.0839C210.81 66.0839 210.148 65.7209 209.773 65.1159L186.932 27.8128C186.524 27.1527 186.535 26.3167 186.954 25.6566C187.373 25.0076 188.123 24.6336 188.906 24.7326L230.276 29.5178C230.805 29.5839 231.28 29.8369 231.621 30.2549L257.098 61.4087C257.584 62.0027 257.694 62.8278 257.374 63.5318C257.054 64.2358 256.359 64.6979 255.587 64.7199L211.571 66.0729C211.571 66.0729 211.527 66.0729 211.505 66.0729L211.516 66.0839ZM192.59 29.2428L212.641 61.9807L251.352 60.7926L229.008 33.4561L192.601 29.2428H192.59Z" fill="#4C4948"/>
<path d="M197.398 56.6011L200.52 43.2683C202.373 39.8141 211.538 41.1232 220.967 46.1835C230.397 51.2438 236.54 58.1412 234.687 61.5844L225.269 71.5399C225.269 71.5399 219.909 71.5399 210.391 66.4356C200.873 61.3313 197.398 56.6011 197.398 56.6011Z" fill="#9CADC2"/>
<path d="M225.269 73.5643C225.026 73.5643 219.28 73.4983 209.431 68.218C199.627 62.9597 195.91 58.0094 195.755 57.8004C195.402 57.3273 195.281 56.7113 195.414 56.1393L198.535 42.8065C198.579 42.6305 198.634 42.4655 198.722 42.3115C199.671 40.5624 202.064 38.6593 208.185 39.5283C212.277 40.1114 217.163 41.8385 221.927 44.3906C231.313 49.4179 239.32 57.2723 236.474 62.5416C236.386 62.6956 236.287 62.8497 236.166 62.9707L226.747 72.9262C226.361 73.3333 225.82 73.5643 225.269 73.5643ZM199.616 56.0623C200.917 57.4813 204.501 60.9685 211.361 64.6428C218.144 68.284 222.699 69.197 224.464 69.428L232.967 60.4405C233.452 58.6364 229.173 52.8721 220.008 47.9658C215.652 45.6337 211.251 44.0606 207.623 43.5435C204.347 43.0815 202.858 43.6316 202.428 44.0936L199.616 56.0733V56.0623Z" fill="#4C4948"/>
<path d="M245.385 86.4191C244.056 83.0073 243.713 73.9382 247.134 72.6096C250.556 71.281 256.45 78.1911 257.779 81.603C259.108 85.0148 257.412 88.8623 253.991 90.1909C250.569 91.5195 246.714 89.831 245.385 86.4191Z" fill="#9CADC2"/>
<path d="M259.676 80.8669C258.863 78.7844 256.844 75.9808 254.65 73.8651C252.243 71.5512 249.977 70.3962 247.99 70.4212L243.513 56.9662C243.163 55.8985 242.003 55.3256 240.935 55.6856C239.866 56.0456 239.289 57.1925 239.649 58.2583L244.331 72.3258C243.26 73.724 242.611 75.8315 242.446 78.6155C242.256 81.6493 242.672 85.0824 243.484 87.1649C244.32 89.3215 245.951 91.0196 248.078 91.9526C249.65 92.6453 251.351 92.8473 253.015 92.5648C253.591 92.4669 254.169 92.313 254.725 92.0958C256.888 91.26 258.591 89.6317 259.528 87.5087C260.466 85.3857 260.514 83.0343 259.678 80.8777L259.676 80.8669ZM253.252 88.2956C252.098 88.7482 250.851 88.7146 249.727 88.2247C248.604 87.7349 247.733 86.8227 247.282 85.6831C246.767 84.3646 246.343 81.6025 246.513 78.8509C246.689 75.9981 247.447 74.6643 247.876 74.491C247.919 74.4836 247.961 74.4654 248.005 74.458C249.679 74.1736 254.602 79.0506 255.876 82.3379C256.803 84.7022 255.623 87.3686 253.252 88.2956Z" fill="#4C4948"/>
<path d="M196.796 105.235C196.223 105.235 195.66 105.213 195.087 105.18C187.521 104.729 180.595 101.363 175.565 95.7196C170.536 90.0652 168.022 82.8048 168.474 75.2584C168.926 67.712 172.301 60.8036 177.959 55.7873C183.628 50.771 190.907 48.2628 198.473 48.7139C214.079 49.6489 226.023 63.0697 225.085 78.6356C224.181 93.6294 211.663 105.235 196.796 105.235ZM196.752 52.8501C190.841 52.8501 185.205 54.9732 180.749 58.9225C175.918 63.1907 173.051 69.087 172.665 75.5114C172.279 81.9358 174.429 88.1291 178.709 92.9474C182.988 97.7657 188.899 100.626 195.34 101.011C208.652 101.803 220.111 91.6603 220.905 78.3936C221.7 65.1268 211.531 53.6862 198.23 52.8941C197.734 52.8611 197.248 52.8501 196.752 52.8501Z" fill="#4C4948"/>
<path d="M130.7 101.286C130.127 101.286 129.564 101.264 128.991 101.231C113.385 100.296 101.44 86.8751 102.378 71.3092C103.315 55.7434 116.782 43.8407 132.377 44.7647C139.942 45.2157 146.869 48.5819 151.898 54.2253C156.927 59.8796 159.442 67.14 158.989 74.6864C158.085 89.6803 145.567 101.286 130.7 101.286ZM130.667 48.901C117.995 48.901 107.33 58.7905 106.558 71.5623C105.764 84.829 115.932 96.2697 129.233 97.0617C142.534 97.8538 154.004 87.7112 154.798 74.4444C155.184 68.0201 153.034 61.8267 148.755 57.0084C144.475 52.1901 138.564 49.33 132.123 48.945C131.638 48.912 131.141 48.901 130.667 48.901Z" fill="#4C4948"/>
<path d="M169.762 75.8309C169.233 75.8309 168.693 75.6329 168.284 75.2258C164.06 71.0456 159.406 73.9718 158.888 74.3238C157.928 74.9618 156.627 74.7198 155.976 73.7738C155.325 72.8277 155.557 71.5296 156.505 70.8806C159.219 68.9995 165.803 66.8764 171.229 72.2557C172.045 73.0697 172.056 74.3898 171.229 75.2148C170.821 75.6219 170.281 75.8309 169.74 75.8309H169.762Z" fill="#4C4948"/>
<path d="M133.106 69.6925C131.739 69.5605 130.492 70.1985 129.555 71.2326C131.176 71.3976 132.334 73.0587 132.158 74.9618C131.981 76.8649 130.526 78.273 128.904 78.141C129.632 79.3401 130.746 80.1871 132.114 80.3081C134.617 80.5391 136.867 78.35 137.143 75.4238C137.419 72.4867 135.61 69.9235 133.106 69.6925Z" fill="#4C4948"/>
<path d="M129.704 84.618C129.858 82.9726 126.934 81.3551 123.174 81.0052C119.414 80.6553 116.241 81.7055 116.087 83.3508C115.933 84.9962 118.857 86.6137 122.617 86.9636C126.377 87.3135 129.55 86.2633 129.704 84.618Z" fill="#9A0036"/>
<path d="M206.726 90.6004C206.879 88.955 203.956 87.3375 200.196 86.9876C196.436 86.6377 193.263 87.6879 193.109 89.3333C192.955 90.9787 195.878 92.5962 199.638 92.9461C203.399 93.296 206.572 92.2458 206.726 90.6004Z" fill="#9A0036"/>
<path d="M162.759 99.7359C159.98 99.7359 156.76 98.9438 153.66 96.3367C152.778 95.5886 152.668 94.2685 153.407 93.3885C154.157 92.5084 155.48 92.3984 156.363 93.1355C161.822 97.7337 167.954 94.3455 168.208 94.1915C169.211 93.6195 170.491 93.9715 171.064 94.9616C171.638 95.9626 171.307 97.2277 170.303 97.8107C170.083 97.9318 166.917 99.7249 162.748 99.7249L162.759 99.7359Z" fill="#4C4948"/>
<path d="M191.339 80.3525C191.758 80.3525 192.188 80.2205 192.541 79.9345C194.857 78.0424 199.059 78.2074 199.103 78.2074C200.14 78.2734 201.055 77.4043 201.11 76.2933C201.165 75.1822 200.36 74.2362 199.302 74.1812C199.07 74.1812 193.677 73.9281 190.214 76.7443C189.376 77.4263 189.221 78.6914 189.861 79.5715C190.225 80.0665 190.776 80.3415 191.328 80.3525H191.339Z" fill="#4C4948"/>
<path d="M289.934 48.7691L306.797 30.1994L315.674 40.9149L325.214 41.7045L327.837 53.9367L340.875 56.2765L341.734 66.7443L356.202 74.1493L339.052 91.8239L289.934 48.7691Z" fill="white"/>
<path d="M338.711 93.8864C338.341 93.8251 337.976 93.6643 337.675 93.3913L288.557 50.3365C288.137 49.9659 287.877 49.4434 287.848 48.8809C287.818 48.3184 288.009 47.7703 288.391 47.3542L305.254 28.7845C305.663 28.3394 306.241 28.0895 306.854 28.1019C307.456 28.1125 308.035 28.398 308.416 28.8626L316.725 38.8929L325.393 39.616C326.308 39.6897 327.08 40.364 327.266 41.2646L329.591 52.1206L341.241 54.2078C342.175 54.3737 342.885 55.1493 342.962 56.0988L343.721 65.4128L357.148 72.2884C357.736 72.5865 358.156 73.1578 358.26 73.8107C358.364 74.4636 358.164 75.1329 357.695 75.6015L340.545 93.2761C340.047 93.7845 339.353 93.9928 338.7 93.8846L338.711 93.8864ZM292.913 48.6054L338.938 88.9397L352.731 74.723L340.777 68.6046C340.128 68.2739 339.708 67.6357 339.649 66.9123L338.916 58.0486L327.473 55.9957C326.637 55.8459 325.973 55.2006 325.796 54.3795L323.503 43.6627L315.509 42.9955C314.947 42.9469 314.42 42.6813 314.068 42.2437L306.736 33.4012L292.924 48.6073L292.913 48.6054Z" fill="#9C7625"/>
<path d="M297.03 27.3427L315.129 66.5939L360.616 82.9987L323.631 121.46L279.42 107.073L260.665 67.4567L297.03 27.3427Z" fill="#E2B07F"/>
<path d="M323.291 123.522C323.193 123.506 323.085 123.488 322.979 123.448L278.768 109.061C278.217 108.881 277.769 108.483 277.519 107.962L258.754 68.3441C258.389 67.5811 258.527 66.6785 259.09 66.047L295.465 25.9349C295.943 25.412 296.645 25.1602 297.341 25.2757C298.092 25.4001 298.634 25.8357 298.933 26.465L316.661 64.9188L361.326 81.0201C361.99 81.2639 362.489 81.8262 362.655 82.5116C362.821 83.197 362.623 83.9223 362.125 84.4308L325.14 122.892C324.655 123.391 323.957 123.621 323.282 123.51L323.291 123.522ZM280.934 105.373L323.035 119.064L356.886 83.8635L314.425 68.5624C313.897 68.3746 313.471 67.9805 313.231 67.4724L296.466 31.0962L263.166 67.8266L280.945 105.374L280.934 105.373Z" fill="#9C7625"/>
<path d="M279.319 108.629C278.938 108.565 278.575 108.394 278.263 108.119C277.406 107.353 277.335 106.025 278.103 105.171L312.749 66.7236C313.517 65.8696 314.847 65.8002 315.704 66.5667C316.561 67.3331 316.631 68.6606 315.864 69.5147L281.218 107.962C280.724 108.516 279.993 108.74 279.319 108.629Z" fill="#9C7625"/>
<path d="M314.547 69.5082C313.524 69.3387 312.767 68.4438 312.798 67.3785L313.574 40.8457C313.609 39.6918 314.576 38.7816 315.732 38.8172C316.889 38.8528 317.802 39.8182 317.768 40.9721L316.992 67.5049C316.957 68.6588 315.99 69.569 314.833 69.5334C314.733 69.528 314.645 69.5244 314.547 69.5082Z" fill="#9C7625"/>
<path d="M314.55 69.5079C314.147 69.4412 313.764 69.2551 313.445 68.9568C312.605 68.1596 312.577 66.8393 313.376 66.0016L326.325 52.4924C327.124 51.6547 328.447 51.6287 329.288 52.4259C330.128 53.2231 330.155 54.5434 329.357 55.3812L316.407 68.8903C315.908 69.4097 315.214 69.618 314.55 69.5079Z" fill="#9C7625"/>
<path d="M314.626 68.4284C313.646 68.2661 312.893 67.4164 312.873 66.3873C312.863 65.237 313.781 64.2853 314.945 64.2775L340.784 63.9888C341.937 63.9792 342.891 64.8957 342.9 66.0568C342.911 67.2071 341.993 68.1589 340.829 68.1666L314.99 68.4554C314.867 68.4572 314.745 68.4482 314.626 68.4284Z" fill="#9C7625"/>
</svg>
