<svg width="184" height="240" viewBox="0 0 184 240" fill="none" xmlns="http://www.w3.org/2000/svg">
<path d="M143.353 217.47C143.849 212.219 136.083 207.18 126.028 206.241C115.973 205.283 107.425 208.789 106.929 214.04C106.853 214.94 107.024 215.841 107.387 216.722H107.177L106.605 222.874C106.108 228.124 113.874 233.164 123.929 234.103C133.984 235.042 142.532 231.554 143.028 226.304L143.601 220.133L142.399 220.018C142.933 219.233 143.276 218.39 143.353 217.47Z" fill="#F8D371"/>
<path d="M108.226 222.03C108.131 223.084 108.055 223.602 108.265 224.272C108.322 224.502 108.265 224.847 108.742 224.905C108.971 224.924 108.665 225.384 108.799 225.594C109.18 226.169 109.619 226.763 110.192 227.262C110.764 227.721 111.47 228.047 112.119 228.411C112.767 228.775 113.321 229.389 114.122 229.465C114.771 229.561 115.153 230.136 115.763 230.289C116.412 230.442 117.08 230.596 117.633 230.979C118.053 231.247 118.453 231.554 118.93 231.592C119.236 231.592 119.56 231.42 119.865 231.496C120.151 231.573 120.438 231.88 120.8 231.42C120.838 231.381 120.934 231.496 120.991 231.573C121.239 231.956 121.64 232.014 121.945 231.822C122.231 231.65 122.46 231.707 122.708 231.726C123.376 231.765 124.044 231.86 124.693 231.937C125.189 231.995 125.666 232.263 126.181 232.301C126.715 232.359 127.268 232.148 127.745 232.378C128.241 232.608 128.699 232.569 129.176 232.55C129.444 232.55 129.787 232.742 129.959 232.186C129.959 232.129 130.073 232.129 130.13 232.186C130.97 232.799 131.619 231.784 132.382 231.841C133.183 231.841 133.966 231.554 134.71 231.305C134.9 231.247 135.187 231.324 135.244 230.902C135.263 230.749 135.454 230.672 135.587 230.711C136.312 231.017 136.751 230.462 137.305 230.308C137.934 230.098 138.373 229.58 139.098 229.523C139.442 229.523 139.785 229.312 139.69 228.756C139.651 228.507 140.014 228.469 140.09 228.277C140.167 228.124 140.09 227.856 140.205 227.741C140.262 227.626 140.491 227.626 140.644 227.568C140.682 227.549 140.72 227.511 140.72 227.453C140.586 226.553 141.349 226.399 141.311 225.039C141.273 223.927 141.426 222.816 141.617 221.705C141.712 221.091 141.922 220.478 142.895 220.152C143.334 219.999 143.773 220.037 144.021 220.325C144.193 220.536 144.364 220.766 144.383 220.996C144.441 221.36 144.498 221.704 144.555 222.049C144.65 222.778 145.013 223.506 144.708 224.234C144.612 224.464 144.841 224.751 144.402 224.885C144.345 224.905 144.307 225 144.326 225.039C144.593 225.575 144.631 226.016 144.517 226.61C144.402 227.262 144.154 227.875 143.906 228.45C143.544 229.427 143.296 230.596 142.38 231.19C142.323 231.937 141.731 232.378 141.178 232.55C139.27 233.24 137.782 234.275 135.988 234.773C134.214 235.271 132.439 235.635 130.646 235.808C130.34 235.827 130.111 236.153 129.73 235.961C129.386 235.789 128.967 235.961 128.566 235.961C128.203 235.961 127.841 236.115 127.497 235.961C126.104 235.425 124.712 235.693 123.319 235.482L119.217 234.831C118.377 234.735 117.48 234.773 116.679 234.428C116.336 234.294 115.878 234.428 115.706 233.834C115.649 233.662 115.21 233.911 114.981 233.834C114.408 233.681 113.874 233.393 113.321 233.164C112.577 232.799 111.833 232.435 111.088 232.014C110.631 231.784 110.077 231.688 109.619 231.401C109.123 231.132 108.684 230.787 108.284 230.366C107.768 229.868 107.387 229.197 106.929 228.641C106.49 228.028 105.822 227.453 105.651 226.648C105.536 225.901 105.288 225.23 105.193 224.483C105.021 223.812 105.04 222.912 105.097 222.337C105.25 221.206 105.403 220.057 105.403 218.907C105.403 218.255 105.86 217.7 105.918 217.067C105.937 216.78 107.177 216.492 107.578 216.646C107.654 216.684 107.73 216.741 107.749 216.78C108.074 217.431 108.608 218.064 108.494 218.773C108.341 219.807 108.284 220.861 108.188 221.915L108.226 222.03Z" fill="#9C7625"/>
<path d="M111.429 206.777C112.86 206.087 114.368 205.666 115.856 205.263C116.409 205.129 117.02 205.206 117.535 204.689C117.802 204.439 118.413 204.842 118.947 204.765C120.359 204.554 121.79 204.535 123.202 204.535C124.576 204.497 125.969 204.42 127.342 204.535C128.716 204.65 130.071 205.148 131.406 205.206C132.589 205.263 133.486 205.953 134.555 206.241C135.699 206.528 136.863 206.969 137.817 207.678C138.523 208.195 139.153 208.77 139.897 209.192C140.355 209.46 140.946 209.517 141.385 209.958C141.824 210.322 142.11 210.916 142.835 210.955C142.893 210.955 143.007 211.204 143.045 211.357C143.198 212.085 143.694 212.641 144.152 213.043C144.629 213.407 144.839 213.886 145.01 214.404C145.564 215.803 145.697 217.508 145.22 219.022C144.82 220.133 144.114 221.053 143.389 221.781C142.683 222.605 141.939 223.468 141.023 223.793C140.107 224.1 139.382 224.521 138.6 224.866C138.161 225.077 137.55 225.058 137.34 225.69C137.34 225.748 137.149 225.805 137.054 225.805C135.547 225.614 134.478 226.783 133.066 226.878C131.635 226.936 130.204 227.223 128.773 227.281C128.392 227.281 127.991 227.166 127.628 227.53C127.514 227.664 127.094 227.664 126.903 227.568C125.854 227.051 124.747 227.281 123.679 227.089C122.477 226.859 121.199 226.898 120.054 226.265C119.577 225.978 118.909 225.748 118.184 226.035C117.84 226.169 117.325 225.786 116.867 225.71C116.486 225.652 116.085 225.71 115.723 225.614C115.417 225.518 115.188 225.23 114.921 225.02C114.845 224.962 114.73 224.905 114.635 224.905C112.689 224.713 111.353 223.18 109.75 222.184C108.129 221.149 106.602 219.635 105.763 217.546C105.267 216.416 105.248 214.921 106.24 214.231C106.66 213.925 107.098 214.021 107.385 214.404C107.594 214.691 107.728 214.959 107.862 215.228C107.995 215.668 108.281 216.071 108.51 216.435C109.083 217.221 109.96 217.642 110.514 218.505C110.704 218.773 111.143 218.811 111.086 219.309C111.086 219.386 111.162 219.482 111.22 219.501C112.708 219.827 113.738 220.881 115.112 221.475C116.276 221.935 117.573 221.877 118.718 222.414C119.519 222.126 120.264 222.356 120.912 222.682C123.24 223.717 125.816 223.583 128.277 223.602C130.796 223.602 133.295 223.18 135.623 222.452C136.005 222.318 136.253 221.935 136.768 221.954C137.245 221.954 137.741 221.59 138.161 221.321C138.581 221.111 138.924 220.766 139.325 220.612C141.118 220.018 141.92 218.275 141.843 216.876C141.881 215.4 140.851 213.771 139.344 212.698C138.447 212.009 137.321 211.644 136.367 210.993C135.928 210.744 135.375 210.725 135.089 210.092C135.013 209.901 134.421 210.073 134.116 209.958C133.334 209.709 132.589 209.402 131.788 209.192C130.7 208.866 129.594 208.559 128.449 208.425C127.762 208.31 127.037 208.425 126.35 208.425C125.625 208.368 124.9 208.368 124.175 208.253C123.259 208.176 122.343 207.965 121.408 207.965C120.435 207.946 119.481 208.272 118.546 208.176C116.791 208.004 115.15 208.598 113.624 209.172C112.097 209.728 110.59 210.533 109.693 211.683C109.178 212.296 108.491 212.718 108.224 213.465C108.186 213.752 106.869 214.174 106.488 213.982C106.411 213.944 106.354 213.848 106.335 213.752C106.068 212.622 106.049 211.261 106.908 210.169C108.205 208.636 109.769 207.582 111.41 206.796L111.429 206.777Z" fill="#9C7625"/>
<path d="M173.71 208.598C172.451 203.481 163.483 201.297 153.657 203.73C143.85 206.164 136.924 212.296 138.183 217.412C138.393 218.294 138.87 219.079 139.5 219.788L139.29 219.846L140.778 225.863C142.037 230.979 151.005 233.164 160.831 230.73C170.638 228.296 177.564 222.165 176.305 217.048L174.817 211.031L173.634 211.319C173.882 210.399 173.92 209.479 173.691 208.598H173.71Z" fill="#F8D371"/>
<path d="M142.038 224.521C142.286 225.537 142.381 226.074 142.82 226.629C142.954 226.821 143.011 227.166 143.488 227.07C143.717 227.013 143.564 227.549 143.774 227.702C144.328 228.105 144.938 228.526 145.644 228.814C146.35 229.063 147.094 229.14 147.838 229.274C148.563 229.389 149.307 229.791 150.071 229.619C150.719 229.485 151.273 229.906 151.883 229.868C152.551 229.791 153.219 229.714 153.868 229.906C154.345 230.021 154.822 230.174 155.299 230.059C155.585 229.964 155.833 229.676 156.157 229.657C156.463 229.657 156.825 229.829 157.016 229.274C157.016 229.235 157.169 229.293 157.245 229.35C157.607 229.638 158.008 229.542 158.237 229.274C158.466 229.005 158.695 229.005 158.924 228.929C159.573 228.756 160.221 228.622 160.87 228.469C161.366 228.373 161.9 228.45 162.396 228.316C162.912 228.201 163.37 227.817 163.904 227.875C164.438 227.932 164.877 227.741 165.316 227.568C165.564 227.472 165.945 227.53 165.945 226.974C165.945 226.917 166.041 226.878 166.098 226.898C167.109 227.204 167.357 226.016 168.121 225.825C168.884 225.556 169.513 225.039 170.143 224.541C170.315 224.407 170.601 224.407 170.506 223.985C170.467 223.832 170.639 223.698 170.773 223.698C171.555 223.736 171.784 223.084 172.261 222.739C172.776 222.318 173.024 221.705 173.711 221.398C174.016 221.283 174.283 220.977 174.016 220.478C173.902 220.248 174.226 220.095 174.245 219.884C174.264 219.712 174.112 219.482 174.169 219.348C174.169 219.233 174.398 219.156 174.512 219.041C174.55 219.003 174.57 218.964 174.551 218.907C174.131 218.102 174.799 217.7 174.322 216.416C173.921 215.381 173.711 214.27 173.501 213.177C173.387 212.564 173.387 211.913 174.207 211.28C174.57 210.993 175.008 210.878 175.333 211.07C175.562 211.204 175.81 211.376 175.905 211.587C176.077 211.913 176.249 212.219 176.42 212.526C176.745 213.177 177.336 213.752 177.279 214.519C177.279 214.749 177.565 214.96 177.203 215.247C177.145 215.285 177.145 215.381 177.203 215.419C177.622 215.841 177.813 216.224 177.909 216.837C178.023 217.489 177.985 218.14 177.928 218.773C177.909 219.827 178.042 220.996 177.393 221.858C177.584 222.586 177.165 223.199 176.707 223.544C175.142 224.828 174.054 226.304 172.547 227.358C171.04 228.411 169.475 229.35 167.834 230.098C167.548 230.213 167.434 230.596 167.014 230.538C166.632 230.5 166.289 230.788 165.926 230.941C165.583 231.075 165.278 231.324 164.915 231.305C163.427 231.247 162.187 231.976 160.813 232.225L156.73 232.972C155.909 233.164 155.07 233.489 154.211 233.432C153.849 233.432 153.448 233.681 153.085 233.202C152.99 233.068 152.647 233.432 152.399 233.451C151.807 233.489 151.215 233.394 150.624 233.374C149.804 233.279 148.983 233.183 148.144 233.03C147.628 232.953 147.094 233.049 146.56 232.953C146.007 232.857 145.472 232.685 144.957 232.416C144.308 232.129 143.717 231.612 143.106 231.228C142.477 230.788 141.675 230.481 141.256 229.772C140.893 229.101 140.454 228.546 140.111 227.894C139.729 227.319 139.462 226.457 139.309 225.901C139.08 224.771 138.832 223.659 138.47 222.567C138.26 221.954 138.508 221.283 138.355 220.651C138.279 220.363 139.348 219.693 139.786 219.712C139.863 219.712 139.958 219.75 139.996 219.788C140.512 220.306 141.217 220.708 141.351 221.417C141.542 222.452 141.847 223.468 142.095 224.483L142.038 224.521Z" fill="#9C7625"/>
<path d="M140.053 209.077C141.179 207.946 142.457 207.046 143.735 206.183C144.212 205.857 144.804 205.743 145.128 205.091C145.3 204.765 146.025 204.938 146.483 204.708C147.742 204.037 149.097 203.558 150.413 203.079C151.692 202.581 152.989 202.044 154.325 201.699C155.66 201.354 157.091 201.374 158.389 200.99C159.534 200.665 160.583 200.99 161.69 200.933C162.873 200.818 164.113 200.856 165.258 201.22C166.078 201.469 166.88 201.814 167.719 201.948C168.253 202.044 168.807 201.91 169.379 202.178C169.913 202.389 170.39 202.849 171.077 202.638C171.135 202.638 171.325 202.83 171.421 202.945C171.802 203.596 172.451 203.941 173.023 204.171C173.596 204.344 173.939 204.727 174.283 205.168C175.256 206.298 175.962 207.87 176 209.46C175.981 210.648 175.618 211.74 175.179 212.679C174.779 213.695 174.359 214.749 173.615 215.362C172.852 215.956 172.298 216.588 171.669 217.182C171.325 217.546 170.734 217.719 170.753 218.37C170.753 218.428 170.6 218.543 170.524 218.562C169.036 218.888 168.425 220.344 167.109 220.881C165.773 221.417 164.533 222.165 163.178 222.682C162.816 222.816 162.396 222.835 162.186 223.295C162.11 223.468 161.728 223.602 161.518 223.583C160.354 223.448 159.381 224.023 158.313 224.196C157.092 224.387 155.909 224.847 154.63 224.617C154.077 224.502 153.39 224.502 152.779 225.02C152.512 225.25 151.883 225.077 151.425 225.135C151.043 225.192 150.681 225.403 150.318 225.422C149.994 225.422 149.688 225.231 149.364 225.135C149.269 225.096 149.154 225.096 149.059 225.116C147.17 225.575 145.395 224.579 143.564 224.177C141.694 223.736 139.748 222.816 138.279 221.13C137.439 220.229 136.943 218.83 137.649 217.834C137.935 217.393 138.393 217.336 138.775 217.604C139.061 217.796 139.29 218.006 139.5 218.236C139.767 218.62 140.167 218.888 140.511 219.175C141.312 219.712 142.285 219.846 143.087 220.459C143.354 220.651 143.793 220.536 143.888 221.034C143.888 221.111 144.022 221.187 144.079 221.168C145.586 220.976 146.922 221.647 148.391 221.724C149.65 221.781 150.852 221.283 152.112 221.417C152.76 220.881 153.562 220.862 154.268 220.938C156.805 221.149 159.19 220.152 161.518 219.367C163.903 218.543 166.116 217.317 168.063 215.86C168.387 215.592 168.482 215.151 168.978 215.017C169.436 214.864 169.78 214.365 170.085 213.963C170.409 213.618 170.619 213.177 170.944 212.909C172.451 211.74 172.623 209.843 172.088 208.54C171.631 207.141 170.123 205.953 168.368 205.436C167.299 205.072 166.116 205.11 164.991 204.823C164.495 204.727 163.96 204.899 163.502 204.401C163.369 204.248 162.873 204.593 162.548 204.593C161.728 204.631 160.927 204.574 160.106 204.631C158.98 204.689 157.817 204.765 156.71 205.014C156.023 205.148 155.393 205.493 154.726 205.685C154.02 205.877 153.333 206.107 152.608 206.241C151.711 206.471 150.776 206.586 149.917 206.892C149.002 207.18 148.2 207.812 147.284 208.042C145.567 208.444 144.232 209.575 142.953 210.61C141.694 211.644 140.53 212.89 140.053 214.27C139.767 215.017 139.252 215.63 139.252 216.435C139.309 216.722 138.202 217.566 137.782 217.489C137.706 217.47 137.611 217.412 137.573 217.316C136.943 216.339 136.504 215.055 136.943 213.752C137.668 211.874 138.794 210.361 140.072 209.077H140.053Z" fill="#9C7625"/>
<path d="M153.051 74.967C143.128 85.263 109.757 115.346 44.4778 133.017C43.3175 133.33 38.3717 128.874 38.3717 128.874L13.0689 78.9798C13.0689 78.9798 13.7239 75.2887 14.8255 74.9894C80.2585 57.3141 113.694 27.1601 123.596 16.8813C125.783 14.6258 129.024 17.6485 129.024 17.6485L154.263 67.4024C154.263 67.4024 155.238 72.7115 153.049 74.9861L153.051 74.967Z" fill="#B2E0DA"/>
<path d="M149.418 81.3388C148.065 82.8845 146.002 83.8237 144.303 85.375C142.639 86.9681 140.763 88.3678 138.943 89.7729C138.032 90.4945 137.214 91.2443 136.426 92.0739C135.66 92.8864 134.397 93.2666 133.892 94.3541C133.845 94.4459 133.644 94.5423 133.519 94.6459C131.257 96.2783 129.036 98.0878 126.616 99.3587C123.745 100.741 121.334 102.725 118.554 104.154C114.568 107.393 109.795 109.441 105.359 111.963C103.947 112.714 102.565 113.545 100.919 113.927C99.5099 114.236 98.2694 115.6 96.692 115.661C96.559 115.648 96.3629 115.899 96.1793 116.017C95.7498 116.303 95.3131 116.665 94.8392 116.813C92.0321 117.72 92.0511 117.721 89.9541 119.023C89.71 119.173 89.2767 119.093 88.9774 119.219C87.7385 119.755 86.4688 120.212 85.2642 120.79C84.1619 121.301 82.8622 121.466 82.0224 122.445C81.8298 122.657 81.3215 122.763 80.9425 122.919L77.4148 124.354C76.0773 124.92 74.5958 125.183 73.433 126.131C72.9339 126.545 71.881 126.329 71.5899 126.571C71.0302 127.018 70.4488 127.29 69.8157 127.499C69.1845 127.69 68.5124 127.703 67.8983 127.914C67.3639 128.094 66.9027 128.512 66.3664 128.711C65.0172 129.198 63.4978 129.458 62.343 130.118C61.1069 130.828 59.8082 131.185 58.4987 131.657C57.1666 132.166 55.7385 132.472 54.3929 132.922C53.3429 133.284 52.3235 133.321 51.2916 133.492C50.2596 133.664 49.2533 134.376 48.1904 134.063C48.1334 134.058 48.033 134.106 47.9743 134.12L46.4059 134.49L45.564 134.679C45.1525 134.775 44.7166 134.926 44.2643 134.844C43.8238 134.841 43.396 134.704 42.9925 134.512C42.7889 134.434 42.589 134.319 42.3908 134.185C42.1909 134.07 42.1013 134.003 41.9566 133.912C41.4328 133.574 40.9867 133.223 40.5217 132.871C39.7345 132.277 39.0061 131.668 38.2796 131.041L37.7304 130.565C37.5548 130.394 37.1603 130.107 36.9576 129.818L36.1982 128.321L33.6779 123.346C33.2117 122.397 32.5294 121.504 32.5181 120.406C32.5207 120.175 32.1886 119.836 32.1188 119.56C31.8914 118.518 30.7128 118.213 30.6409 117.148C30.5772 116.198 29.9581 115.447 29.5951 114.623C29.1651 113.696 28.6555 112.801 28.2065 111.873C27.9032 111.228 27.5512 110.694 27.0535 110.281C27.1816 109.331 26.3591 108.502 26.1778 107.58C26.0627 106.972 25.7846 106.06 25.4109 105.755C24.5947 105.061 24.3393 104.113 23.8451 103.258C23.121 101.995 22.6185 100.619 21.6294 99.5244C21.2132 99.0613 20.9206 98.302 20.6571 97.6417C20.4073 97.0405 20.2976 96.3756 20.0287 95.7725C19.5199 94.6654 18.9487 93.6102 18.156 92.6685C17.4665 91.8522 17.3267 90.4915 16.336 89.8197C16.2102 89.7307 16.0681 89.4092 16.0119 89.1921C15.7157 88.0668 15.367 87.0904 14.5019 86.1034C13.8106 85.3061 13.394 84.0345 12.8608 82.9829L11.9656 81.3L11.4514 80.2501C11.321 80.0068 11.2114 79.7461 11.1191 79.5063C11.0729 79.3864 10.9888 79.2629 11.0014 79.1294L11.0962 78.7342C11.1856 78.3963 11.2126 78.1101 11.2206 77.8222L11.2222 77.3988L11.1923 77.1073C11.1696 76.7394 11.2073 76.3388 11.6151 75.8772C11.7434 75.7354 11.8131 75.6073 11.9505 75.3701C12.095 75.0567 12.2739 74.785 12.4375 74.4734C12.8009 73.8728 13.3353 73.2885 13.9683 73.0793L14.3852 72.9265L15.6703 72.5099C16.0058 72.4071 16.3396 72.3234 16.6697 72.2779C20.5913 71.7466 24.2972 70.2517 28.0757 69.2064C29.6892 68.7634 31.1821 67.7699 32.8934 67.9136C33.8364 67.0602 35.3532 67.0314 36.318 66.3534C36.9329 65.9307 37.5262 65.737 38.123 65.5051C42.1437 63.9247 46.2532 62.6222 50.1761 60.8592C52.7751 59.7208 55.3433 58.5025 57.8907 57.3014C58.6142 56.9469 59.2825 56.5678 60.2087 56.502C60.8843 56.4509 61.945 55.9744 62.5489 55.262C62.6583 55.1185 62.9458 54.9149 63.0788 54.9275C64.8426 54.9222 65.9844 53.5874 67.3779 52.8346C70.1043 51.3619 73.0426 50.4868 75.7174 48.9515C76.2853 48.6206 77.0685 48.4449 77.2663 47.7708C77.9067 47.8896 78.1517 47.5279 78.5975 47.0699C79.064 46.5946 79.9764 46.0656 80.5968 45.9899C81.4298 45.896 81.9876 45.4679 82.6351 45.1061C83.3205 44.7479 83.977 44.2907 84.6642 43.9135L88.9939 41.4963L93.2585 38.9574C93.8074 38.6247 94.4386 38.4346 95.039 38.1646C95.6395 37.8945 96.0806 37.2821 96.8269 37.2954C97.1136 37.3035 97.5819 36.8091 97.9698 36.5573C99.3243 35.6084 100.949 34.8393 101.94 33.6825C102.91 32.543 104.424 31.9365 105.139 30.6572C105.346 30.2919 106.003 30.0273 106.402 29.661C108.02 28.1597 110.162 27.1896 111.358 25.2824C112.219 25.0949 112.876 24.4261 113.547 23.8163C114.048 23.3828 114.768 23.0664 114.855 22.3433C114.862 22.2669 115.031 22.1097 115.154 22.0252C115.808 21.5871 116.542 21.3297 117.14 20.6745C117.65 20.1456 117.865 19.4924 118.453 18.9517C119.522 17.9756 120.644 17.0623 121.73 16.1071L122.148 15.7427L122.691 15.2746C123.129 14.8929 123.692 14.6193 124.264 14.4428C125.447 14.0935 126.635 14.3028 127.527 14.5995C127.971 14.969 128.382 15.2777 128.813 15.5882C129.17 15.8723 129.844 16.2445 130.23 16.8202C130.554 17.4478 130.702 17.7121 130.937 18.0617L131.591 19.0479C132.047 19.7072 132.483 20.3647 132.792 21.1449C133.404 22.5889 134.063 24.1338 134.944 25.3534C136.491 27.4447 137.395 29.8406 138.624 32.0557C138.934 32.6242 139.416 33.209 139.288 33.9475C139.272 34.1192 139.617 34.7295 139.836 34.8466C140.274 35.0808 140.339 35.6067 140.616 35.9218C141.393 36.8235 140.887 38.3343 142.149 38.9742L143.861 42.3517L145.572 45.7484C145.829 46.2733 146.168 46.7482 146.181 47.4231C146.194 47.8864 146.59 48.771 146.948 49.0361C147.768 49.6916 148.06 50.6625 148.516 51.5144C149.862 54.1063 151.206 56.7174 152.492 59.342C153.054 60.4927 153.476 61.707 153.957 62.9077C154.207 63.5089 154.555 64.0811 154.865 64.6496C155.011 64.9329 155.174 65.2372 155.28 65.536C155.405 65.8366 155.477 66.0937 155.635 66.6477C155.7 66.7694 155.719 66.9829 155.761 67.1409L155.998 68.0873C156.067 68.3634 156.118 68.6378 156.129 68.9275C156.156 69.6615 155.741 70.6036 155.874 71.0205C156.137 71.8924 155.666 72.4059 155.491 73.0436C155.213 73.9603 154.556 74.6291 153.999 74.8456C153.385 75.0566 152.945 74.8415 152.62 74.4256C152.484 74.2394 152.396 73.9615 152.339 73.7444C152.159 73.0151 151.974 72.7472 151.949 72.3983C151.923 72.0686 152.019 71.6543 152.088 70.7178L152.113 68.8338L152.101 68.3515C152.096 68.197 152.096 68.0045 152.096 68.0045C152.106 67.89 152.156 67.9718 151.97 67.5113C151.408 66.149 150.845 64.8057 150.066 63.5188C149.697 61.5396 148.435 59.8797 147.649 58.0533C146.833 56.1469 146.302 54.0561 145.078 52.3997C143.874 50.7451 143.046 48.9533 142.141 47.1732C141.464 45.8191 140.969 44.3668 140.333 42.9782C139.663 41.5478 138.796 40.1756 138.242 38.7369C137.886 37.8369 137.757 36.766 137.154 36.054C135.824 34.5031 135.267 32.4867 134.175 30.8621C132.644 28.5991 131.618 26.076 130.205 23.7857C129.439 22.5579 128.672 21.3492 128.029 20.0368C127.737 19.4701 127.384 18.7436 127.513 18.6018C127.501 18.5237 127.506 18.4665 127.42 18.362C127.298 18.2349 127.155 18.1251 126.992 18.0325C126.683 17.8491 126.307 17.7748 126.013 17.843C125.723 17.8731 125.52 17.9886 125.455 17.8669C125.226 17.6526 124.996 17.65 124.701 17.9299C124.214 18.4224 123.742 18.9549 123.274 19.4493C122.677 20.0854 121.648 20.4301 121.39 20.9253C120.967 21.7512 120.29 22.2256 119.718 22.8063C119.297 23.2089 118.899 23.7677 118.242 23.8207C118.068 23.8425 117.614 24.1843 117.558 24.3714C117.189 25.4335 116.159 25.9898 115.348 26.6633C113.443 28.3682 111.452 29.9687 109.428 31.5083C107.772 32.8134 106.449 34.4391 104.621 35.5354C103.911 36.7574 102.588 37.382 101.441 38.1583C100.58 38.75 99.599 39.1955 98.6884 39.7055C97.776 40.2345 96.9686 40.8698 95.915 41.27C94.6037 41.761 93.3886 42.8579 92.0882 43.6388C91.3956 44.0733 90.7708 44.803 89.8572 44.7352C89.7433 44.7244 89.4178 44.9243 89.3274 45.0697C88.6757 46.0856 87.435 46.6411 86.5044 46.9567C84.9806 47.466 83.7815 48.3912 82.4142 49.0695L79.0612 50.8867C78.2564 51.2913 77.5168 51.8176 76.5726 52.0741C75.8618 52.2951 75.1284 52.9568 74.3598 53.384C73.5912 53.8113 72.809 54.1795 72.025 54.5668L69.4703 55.8441C68.6067 56.2623 67.7774 56.7223 66.9174 57.1024C65.976 57.5324 65.0501 58.0024 64.1141 58.3753C63.2179 58.7326 62.2583 58.9492 61.3603 59.3257C58.8789 60.4368 56.6445 61.9756 54.0345 62.8242C53.4948 63.4657 52.7261 63.4888 51.9962 63.708C51.3062 63.9118 50.485 64.0838 49.9833 64.7289C49.8323 64.907 49.476 65.0271 49.2128 65.1753C48.6278 65.4853 47.9529 65.3248 47.3082 65.8601C46.8507 66.24 45.997 66.3511 45.3567 66.6366C44.6767 66.9376 43.7921 66.9689 43.3646 67.6403C41.8902 67.423 41.0983 68.9066 39.7625 69.0489C39.3374 69.0854 38.9033 69.2173 38.4746 69.292C38.2603 69.3293 37.9925 69.3231 37.8316 69.404C34.757 71.113 31.2099 71.7376 27.9471 73.0053C27.5492 73.1599 27.1974 73.4344 26.7977 73.608C26.6159 73.7062 26.398 73.7817 26.1855 73.7999C24.2617 74.0787 24.2807 74.0805 22.6367 74.8479C22.2162 75.0388 21.7287 75.1272 21.2928 75.2781C20.1425 75.6883 18.9929 75.8868 17.8571 76.5486C17.5524 76.7313 17.2169 76.834 16.8832 76.9178C16.5893 76.986 16.005 77.0844 16.1696 76.9653C16.0854 76.8418 15.8819 76.7647 15.7417 76.8283C15.7092 76.7675 15.5509 77.0219 15.4171 77.2209C15.3024 77.4217 15.165 77.6588 15.0657 77.8996C14.9401 78.2148 14.9002 78.2303 14.8514 78.3411C14.7836 78.4502 14.7919 78.5664 14.8606 78.65L16.9028 82.5978L19.0319 86.8427C19.2103 87.1869 19.3687 87.7409 19.5668 87.8753C20.4526 88.4408 21.1484 88.9883 20.7292 90.1803C20.7238 90.2375 20.8696 90.5209 20.9419 90.5662C21.8023 90.9946 22.0107 92.0347 22.3964 92.8221C23.8547 95.8482 25.9054 98.4879 27.2218 101.597C27.4427 102.099 27.8861 102.68 27.8709 103.044C27.835 103.83 28.545 103.821 28.681 104.411C28.8069 104.904 29.3299 105.455 29.3663 105.882C29.5225 107.475 30.4257 108.87 31.2366 110.025C31.9959 111.117 32.7725 112.231 33.1447 113.363C33.853 115.606 35.0459 117.586 36.0571 119.665C37.1009 121.805 38.1672 123.908 39.2716 126.015C39.4635 126.418 39.6708 126.862 39.8609 127.284C39.9243 127.425 40.0093 127.337 40.5855 127.526C40.7945 127.546 41.0695 127.88 41.2794 128.093C41.768 128.601 42.1735 129.179 42.7281 129.597C42.9969 129.796 43.2899 129.94 43.5848 130.064C43.7314 130.136 43.8816 130.169 44.011 130.22C44.1765 130.293 44.2715 130.303 44.2543 130.282C44.3321 130.27 44.4026 130.334 44.4314 130.029C44.4332 130.01 44.435 129.991 44.4368 129.972C44.4974 129.939 44.5581 129.906 44.6358 129.894C44.7742 129.85 44.9315 129.807 45.0871 129.783C45.4172 129.738 45.8007 129.736 46.1616 129.77C47.6242 129.91 49.1475 130.016 50.8115 129.443C52.2784 128.928 53.8257 128.575 55.327 128.102C55.9582 127.912 56.5497 127.738 57.1491 127.275C57.6862 126.864 58.7254 126.617 59.4996 126.536C60.7387 126.404 61.8041 126.082 62.8241 125.429C63.1722 125.192 63.6461 125.045 64.0612 124.911C66.6694 124.082 69.2368 123.075 71.8178 122.127C72.4336 121.897 73.0604 121.553 73.6954 121.729C73.9412 121.155 74.6412 121.049 75.1928 120.89C76.042 120.624 76.9338 120.517 77.7486 120.209C78.7416 119.842 79.664 119.41 80.5302 118.761C81.3151 118.162 82.5487 118.087 83.3651 117.356C83.5125 117.216 84.0028 117.302 84.2451 117.171C85.2941 116.616 86.6816 116.536 87.4129 115.49C87.4789 115.4 87.7177 115.307 87.8334 115.299C89.3294 115.287 90.3818 114.29 91.5402 113.592C92.8025 112.808 94.2488 112.714 95.5537 112.088C97.0231 111.343 98.4727 110.403 99.9757 109.911C102.565 109.079 104.863 107.681 107.225 106.405C109.645 105.134 112.069 103.825 114.395 102.333C115.413 101.699 116.311 100.918 117.311 100.263L120.693 98.1403L123.856 96.1124C124.365 95.7952 124.814 95.299 125.444 95.3205C125.577 95.3332 125.882 95.1505 125.972 95.0051C126.619 94.0465 127.478 93.4739 128.598 93.1763C128.913 93.0908 129.234 92.7364 129.575 92.5764C130.518 92.1273 131.017 91.3086 131.712 90.6434C132.345 90.03 133.367 89.7616 133.666 88.8276C133.698 88.6959 134.048 88.4405 134.203 88.4168C136.22 88.1662 136.769 85.6007 138.681 85.2438C138.878 84.3771 139.85 84.4312 140.216 84.0041C140.752 83.4008 141.252 82.7747 141.895 82.2584C142.498 81.7577 143.119 81.2778 143.668 80.7335C144.683 79.7329 145.924 78.9657 146.66 77.6691C146.893 77.2294 147.474 76.5533 148.192 76.4676C148.326 76.4612 148.54 76.2313 148.67 76.0705C149.682 74.8964 151.313 73.8584 152.186 74.1533C152.688 74.3166 153.07 74.7379 153.294 75.2019C153.406 75.4435 153.023 76.0423 152.83 76.4666C152.509 77.2252 152.297 78.052 151.774 78.7144C151.163 79.5031 150.295 80.1711 149.349 81.0626L149.418 81.3388Z" fill="#9C7625"/>
<path d="M140.299 76.8517C139.13 78.0685 137.464 78.8722 136.023 80.1209C134.6 81.3905 133.074 82.5348 131.53 83.6582C130.749 84.219 130.094 84.8688 129.419 85.5167C128.764 86.1665 127.735 86.5112 127.274 87.3335C127.229 87.4061 127.068 87.487 126.964 87.5734C125.11 88.9367 123.213 90.3537 121.25 91.4564C118.949 92.6809 116.853 94.1752 114.622 95.4832C112.948 96.7675 111.138 97.8656 109.312 98.9428C107.47 99.98 105.578 100.935 103.753 101.994C102.616 102.674 101.476 103.374 100.141 103.709C99.0001 104.024 97.9441 105.059 96.6824 105.228C96.5856 105.238 96.4138 105.433 96.2701 105.535C95.9219 105.771 95.5666 106.084 95.1894 106.221C92.906 107.062 92.9078 107.043 91.1779 108.11C90.9736 108.245 90.6335 108.193 90.374 108.303C89.353 108.764 88.3338 109.206 87.3644 109.73C86.4782 110.184 85.4065 110.371 84.7022 111.132C84.553 111.291 84.1207 111.404 83.8214 111.529C82.861 111.957 81.8852 112.346 80.942 112.795C79.8587 113.307 78.6776 113.638 77.7056 114.392C77.2915 114.718 76.4385 114.618 76.1889 114.825C75.7332 115.186 75.2521 115.41 74.7367 115.591C74.2212 115.773 73.6614 115.816 73.1649 116C72.7272 116.17 72.3681 116.521 71.9286 116.71C70.8489 117.185 69.6109 117.509 68.6605 118.035C67.6477 118.612 66.5805 118.953 65.5252 119.372C64.43 119.807 63.285 120.16 62.2088 120.596C61.3524 120.938 60.5349 121.072 59.6947 121.242C58.8545 121.413 58.0335 121.989 57.167 121.829C57.129 121.826 57.0475 121.876 56.9887 121.889C55.2749 122.381 53.5476 122.813 51.8492 123.344L50.0314 123.922C49.0629 124.234 47.9355 123.587 47.4615 123.33C46.8616 122.985 46.3206 122.625 45.8004 122.248C45.2612 121.87 44.7961 121.517 44.2243 121.078C44.047 120.926 43.8108 120.788 43.6769 120.583L43.3718 119.958L42.9518 119.128C42.5661 118.341 42.0421 117.598 41.973 116.706C41.9512 116.531 41.7106 116.238 41.6562 116.002C41.4487 115.155 40.5775 114.841 40.4668 113.983C40.3869 113.206 39.9091 112.583 39.5904 111.898L38.4661 109.597C38.209 109.072 37.9257 108.621 37.5575 108.259C37.6295 107.496 36.9671 106.798 36.8094 106.032C36.7025 105.541 36.4481 104.785 36.1658 104.527C35.5514 103.93 35.3005 103.136 34.9249 102.446C34.3537 101.39 33.9245 100.252 33.1489 99.3316C32.8223 98.9348 32.595 98.2972 32.3569 97.7741C32.155 97.2737 32.0516 96.7441 31.8307 96.2419C31.4178 95.3364 30.9653 94.4464 30.3309 93.6546C29.7825 92.9671 29.6382 91.8563 28.8891 91.2652C28.7823 91.1781 28.6917 90.9192 28.6301 90.7594C28.3539 89.8284 28.0651 89.031 27.3963 88.1973C26.8461 87.529 26.5047 86.4763 26.0693 85.6072L25.3387 84.2095L24.9051 83.3213C24.715 82.899 24.4453 82.5076 24.7165 82.0715C25.1339 80.8986 24.6616 80.6226 25.3486 79.8411C25.5602 79.6303 25.6786 79.3913 26.0347 78.8671C26.3493 78.3773 26.8675 77.9647 27.4019 77.7846L27.9952 77.5909L28.4518 77.4227C28.7684 77.3181 29.066 77.2117 29.3771 77.1643C32.5959 76.5662 35.6326 75.2577 38.7319 74.3017C40.055 73.8888 41.3001 73.0834 42.6785 73.0992C43.4706 72.4239 44.7079 72.3108 45.4874 71.7691C45.9811 71.4119 46.4739 71.2663 46.9912 71.0653C50.3011 69.7059 53.6571 68.4664 56.9171 67.0253L63.2961 64.0141C63.8966 63.744 64.4627 63.4322 65.2007 63.3293C65.7452 63.2464 66.6259 62.849 67.1394 62.282C67.2452 62.1766 67.4722 62.0057 67.588 61.9975C69.0152 61.9024 69.978 60.8392 71.1445 60.2574C73.4206 59.0882 75.7855 58.197 78.0444 57.007C78.5291 56.7452 79.1758 56.595 79.3592 56.0736C79.872 56.1224 80.07 55.8525 80.4687 55.4863C80.8692 55.101 81.6189 54.6719 82.1254 54.5854C82.7874 54.4752 83.2622 54.1162 83.8056 53.8407L85.5038 52.9053L92.6693 48.8718C93.135 48.6082 93.6505 48.4263 94.1316 48.2027C94.6145 47.9599 95.0204 47.5174 95.6164 47.4971C95.848 47.4807 96.2658 47.1163 96.5913 46.9163C97.7515 46.1991 99.0635 45.4963 99.9513 44.6185C100.82 43.7388 102.073 43.2614 102.742 42.2664C102.922 41.9757 103.461 41.7575 103.814 41.4639C105.226 40.3088 106.988 39.5141 108.104 38.0421C108.81 37.8783 109.377 37.3548 109.957 36.8904C110.392 36.5468 110.972 36.2941 111.119 35.7499C111.124 35.6926 111.289 35.5736 111.391 35.5063C111.961 35.1564 112.537 34.9417 113.083 34.4355C113.525 34.0157 113.8 33.5414 114.301 33.1079C116.152 31.5711 118.207 30.3039 119.871 28.5183C120.208 28.3964 120.495 28.1928 120.786 27.951C121.057 27.7266 121.312 27.4621 121.747 27.1186C122.486 26.5923 123.451 26.3185 124.329 26.3635C125.225 26.4104 126.003 26.6962 126.704 27.1864C126.92 27.3417 127.133 27.516 127.328 27.6885C127.501 27.8783 127.59 28.1562 127.701 28.3978L128.131 29.3242C128.419 29.929 128.73 30.4975 129.084 31.0124C130.298 32.7642 131.07 34.7432 132.063 36.6086C132.323 37.0954 132.7 37.574 132.625 38.1635C132.612 38.2971 132.907 38.8256 133.052 38.9164C133.395 39.1415 133.452 39.5512 133.676 39.8227C134.295 40.5746 133.971 41.7756 134.932 42.3483L136.334 45.1574L137.716 47.9837C137.923 48.4269 138.193 48.8182 138.237 49.3614C138.26 49.7293 138.594 50.4541 138.858 50.7101C139.493 51.2903 139.744 52.0841 140.099 52.7916C141.197 54.9558 142.277 57.1182 143.318 59.296C143.784 60.2451 144.129 61.2596 144.534 62.2414C144.957 63.2441 145.622 64.1158 145.862 65.2358C145.889 65.3539 145.99 65.4982 146.055 65.6199C146.217 66.3475 146.315 66.7226 146.308 67.2031C146.29 67.7981 145.949 68.574 146.032 68.9092C146.175 69.6349 145.791 70.0411 145.612 70.5244C145.332 71.2485 144.805 71.7565 144.369 71.9075C143.895 72.0549 143.563 71.9269 143.363 71.6C143.281 71.4574 143.225 71.2403 143.224 71.0477C143.185 70.4473 143.094 70.1885 143.121 69.9023C143.148 69.6162 143.257 69.28 143.37 68.4824C143.417 67.9864 143.467 67.4523 143.478 66.9336C143.44 66.1215 143.654 66.7001 143.294 65.8382C142.825 64.7156 142.356 63.5931 141.747 62.5342C141.401 60.9229 140.402 59.5189 139.759 58.014C139.082 56.4482 138.612 54.7289 137.652 53.3286C136.69 51.9473 136.027 50.4406 135.285 48.9648C134.74 47.835 134.316 46.6398 133.792 45.4927C133.253 44.3057 132.556 43.1614 132.075 41.9608C131.781 41.2206 131.653 40.3422 131.173 39.7383C130.149 38.4089 129.652 36.764 128.783 35.4109C127.563 33.5238 126.707 31.4213 125.585 29.5051C125.535 29.4234 125.464 29.3589 125.352 29.329C125.278 29.3026 124.968 29.1384 124.8 29.0839C124.393 28.9297 124.015 28.8744 123.745 28.8873C123.476 28.9001 123.336 28.9637 122.981 29.0647C122.545 29.2157 121.808 29.9154 121.44 30.5733C121.278 30.8658 120.934 31.2566 120.692 31.3875C119.631 31.8639 118.875 32.7735 117.999 33.5178C117.457 33.9859 116.644 34.2742 116.397 34.6549C115.992 35.29 115.421 35.6591 114.901 36.0907C114.545 36.4034 114.179 36.8305 113.657 36.877C113.523 36.8834 113.131 37.1734 113.08 37.3033C112.678 38.1119 111.832 38.551 111.149 39.0827C109.493 40.3878 107.819 41.6721 106.079 42.8537C104.662 43.8544 103.541 45.172 101.986 46.0056C101.324 46.9243 100.239 47.4561 99.2989 48.0788C98.5818 48.5687 97.7652 48.8951 96.9983 49.3033C96.2315 49.7115 95.5506 50.2241 94.6942 50.566C93.637 51.0043 92.5973 51.8677 91.5068 52.4568C90.9199 52.7859 90.3683 53.3493 89.6583 53.3587C89.5633 53.3496 89.2985 53.5169 89.2307 53.6259C88.6593 54.3992 87.6347 54.8983 86.8805 55.1729C85.6334 55.5931 84.5908 56.283 83.4812 56.8703L80.7323 58.3794C80.0658 58.7394 79.4355 59.122 78.6677 59.3376C78.0762 59.5123 77.4506 60.0494 76.8411 60.4149C76.2145 60.7594 75.5706 61.083 74.9267 61.4067L72.8324 62.4777L70.7055 63.4877C69.9423 63.8578 69.1772 64.2469 68.3986 64.5769C67.6597 64.8915 66.8747 65.0862 66.1531 65.4217C64.1111 66.3437 62.2339 67.5508 60.1078 68.3493C59.6584 68.8454 59.0399 68.902 58.4258 69.113C57.8705 69.3103 57.2031 69.4778 56.7555 69.9549C56.6272 70.0966 56.3314 70.184 56.1099 70.2976C55.627 70.5403 55.078 70.4688 54.5581 70.9005C54.1856 71.1923 53.4818 71.337 52.961 71.5761C52.4003 71.8307 51.6831 71.9164 51.3287 72.4216C50.1284 72.3458 49.4678 73.457 48.377 73.6418C48.0433 73.7255 47.6734 73.7866 47.3207 73.8685C47.1444 73.9094 46.9336 73.9086 46.7916 73.9913C44.2624 75.4058 41.3646 76.0538 38.6914 77.1658C38.3713 77.3086 38.0666 77.4913 37.7447 77.6531C37.5837 77.7341 37.4056 77.7941 37.2482 77.8368C35.6854 78.15 35.6853 78.15 34.3406 78.7918C33.9997 78.9519 33.6072 79.0492 33.2491 79.1884C32.3149 79.5421 31.3553 79.7587 30.4411 80.3068C30.1571 80.4723 29.8597 80.5787 29.545 80.6642C29.3876 80.707 29.2321 80.7307 29.0557 80.7716C28.9191 80.7971 28.627 80.8463 28.7084 80.7963C28.6378 80.7318 28.5292 80.6637 28.4044 80.7673C28.1721 80.9954 27.9461 81.3589 27.7373 81.7432L27.5945 82.0376L27.5249 82.1657C27.5249 82.1657 27.4499 82.351 27.4997 82.4327L29.1472 85.6886L30.8853 89.2033C31.0293 89.5057 31.1605 89.9417 31.3225 90.0533C32.0029 90.5608 32.5331 91.0348 32.2531 91.9705C32.2495 92.0087 32.3609 92.2503 32.4143 92.2939C33.0675 92.6833 33.2559 93.5289 33.5764 94.1946C34.7777 96.6958 36.3859 98.947 37.466 101.514C37.6371 101.934 37.9929 102.43 38.0038 102.72C38.0032 103.336 38.516 103.384 38.6437 103.858C38.7406 104.253 39.157 104.716 39.2177 105.087C39.4028 106.375 40.1168 107.54 40.7522 108.525C41.355 109.448 41.9767 110.374 42.291 111.308C42.9023 113.157 43.8581 114.807 44.672 116.54L45.8768 119.003C45.8768 119.003 45.9112 119.044 46.1076 119.198L46.6812 119.618C47.0567 119.904 47.453 120.173 47.8321 120.421C48.1388 120.623 48.4418 120.864 48.7693 121.049C49.0796 121.213 49.4505 121.345 49.4703 121.135C49.4965 121.06 49.5292 121.121 49.5654 121.144L49.6223 121.149L49.8366 121.112L50.2844 121.039C50.5765 120.99 50.8705 120.922 51.1472 120.833C51.7197 120.656 52.2306 120.32 52.7894 120.084C53.2289 119.895 53.6802 119.784 54.0943 119.458C54.4044 119.218 55.0456 119.125 55.6399 119.124C56.8473 119.123 58.0929 119.127 59.4648 118.603C60.6621 118.101 61.9057 117.719 63.1184 117.257C63.6357 117.056 64.1285 116.91 64.6032 116.551C65.0382 116.208 65.8837 115.98 66.5267 115.868C67.5397 115.695 68.4287 115.414 69.2479 114.857C69.5354 114.653 69.9126 114.516 70.2517 114.375L76.5856 111.841C77.1029 111.64 77.6085 111.361 78.1195 111.429C78.3337 110.987 78.9025 110.849 79.3402 110.679C80.0167 110.416 80.7411 110.254 81.4175 109.991C82.2341 109.665 82.9956 109.314 83.7162 108.786C84.3745 108.309 85.3839 108.175 86.053 107.584C86.1796 107.461 86.5594 107.497 86.7638 107.363C87.6328 106.887 88.7063 106.682 89.3554 105.897C89.4006 105.824 89.5996 105.747 89.6964 105.737C90.9129 105.641 91.7916 104.858 92.7474 104.276C93.8036 103.645 94.9549 103.427 96.0021 102.892C97.2121 102.256 98.4156 101.485 99.6455 101.044C101.785 100.305 103.63 99.0369 105.588 97.9914C107.602 96.9514 109.556 95.7515 111.49 94.5499C112.324 94.0327 113.092 93.4128 113.911 92.8556C114.814 92.2294 115.768 91.6658 116.706 91.0622L119.337 89.3879C119.745 89.1188 120.129 88.7126 120.628 88.7024C120.723 88.7115 120.988 88.5442 121.075 88.437C121.644 87.6828 122.358 87.231 123.268 86.9327C123.525 86.8418 123.799 86.5791 124.081 86.4328C124.848 86.0246 125.291 85.3931 125.879 84.8524C126.423 84.3653 127.251 84.1169 127.531 83.3928C127.578 83.301 127.846 83.0956 127.983 83.0701C129.565 82.7588 130.189 80.8165 131.717 80.4615C131.932 79.8083 132.682 79.7835 133.001 79.4482C133.468 78.9729 133.898 78.4749 134.437 78.045C134.934 77.6497 135.47 77.2579 135.933 76.8208C136.794 76.0175 137.831 75.3848 138.502 74.3708C138.726 74.0264 139.219 73.4766 139.801 73.3973C139.898 73.3873 140.087 73.2128 140.195 73.0883C141.071 72.1324 142.433 71.2997 143.067 71.4947C143.439 71.6072 143.697 71.9205 143.836 72.2802C143.896 72.4591 143.564 72.928 143.378 73.2759C143.054 73.8611 142.839 74.5143 142.388 75.0295C141.85 75.652 141.129 76.1801 140.334 76.8935L140.299 76.8517Z" fill="#9C7625"/>
<path d="M88.9946 77.6252L85.2941 70.536C86.9355 69.9994 88.6721 69.876 90.3672 70.1914C90.6901 70.2222 91.0202 70.1766 91.3213 70.0321C92.2491 69.543 92.6285 68.3664 92.1433 67.4156C91.9324 67.0105 91.5778 66.7073 91.1327 66.5494C88.6008 65.9619 85.9517 66.21 83.5878 67.2938L82.3549 64.9244C81.9982 64.236 81.1787 63.9847 80.495 64.3238C80.495 64.3238 80.476 64.322 80.4552 64.3393C79.7715 64.6784 79.4988 65.5378 79.8364 66.2244L81.0385 68.5139C76.7234 71.1827 75.1379 75.5936 77.0859 79.3207C79.4712 83.8979 83.9688 83.1521 88.177 82.2247L92.3798 90.2857C90.2953 91.0496 88.0405 91.1813 85.8813 90.7063C85.486 90.6301 85.0591 90.6857 84.6974 90.863C83.8212 91.4147 83.5214 92.5604 84.0084 93.4921C84.2193 93.8972 84.574 94.2004 85.0191 94.3583C88.0495 95.1473 91.2602 94.8371 94.0708 93.4879L95.2231 95.6957C95.2231 95.6957 95.2403 95.7166 95.2385 95.7357C95.6349 96.4086 96.4943 96.6444 97.1454 96.2445C97.8118 95.8845 98.0811 95.0632 97.7244 94.3748L96.5376 92.1252C101.786 88.9101 102.23 84.4098 100.38 80.8652C97.8968 76.1054 93.1992 76.736 88.991 77.6634L88.9946 77.6252ZM86.1331 78.2959C83.6333 78.7893 81.5802 79.0173 80.608 77.1346C79.6358 75.2519 80.4525 73.0969 82.6933 71.6935L86.1349 78.2768L86.1331 78.2959ZM94.9155 89.0065L91.0847 81.6739C93.6659 81.1305 95.8737 81.0905 96.9573 83.2148C97.7512 84.7532 97.6625 87.1123 94.9155 89.0065Z" fill="#9C7625"/>
<path d="M105.803 34.3776C105.803 34.3776 116.617 46.9178 137.815 37.7724L134.32 32.5698L123.42 35.1505L109.904 31.7461L105.802 34.3967L105.803 34.3776Z" fill="#B2E0DA"/>
<path d="M147.004 54.5462C147.004 54.5462 132.262 63.9214 133.353 86.8729L137.442 83.3549L139.347 69.8701L147.448 59.7856L147.004 54.5462Z" fill="#B2E0DA"/>
<path d="M70.843 119.474C70.843 119.474 61.9733 107.658 36.521 111.721L39.4185 117.368L51.3518 116.021L63.5901 121.998L70.8448 119.455L70.843 119.474Z" fill="#B2E0DA"/>
<path d="M25.1768 98.0913C25.1768 98.0913 41.9708 92.357 40.5173 70.6029L33.7753 72.7904L34.1356 80.139L30.7291 86.3783L23.1621 92.433L25.1561 98.1086L25.1768 98.0913Z" fill="#B2E0DA"/>
<path d="M131.521 87.0064C131.354 86.3361 131.362 85.6439 131.254 84.9599C131.22 84.7065 131.401 84.4157 130.942 84.1988C130.704 84.0799 131.21 83.8009 131.175 83.5665C131.082 82.9225 131.047 82.2839 131.032 81.6281C130.994 81.0086 130.845 80.3592 130.808 79.7397C130.791 79.1029 131.023 78.4706 130.832 77.8557C130.674 77.3017 131.154 76.8854 131.125 76.3822C131.099 75.8408 131.113 75.284 131.39 74.7906C131.576 74.4426 131.855 74.1227 131.853 73.7376C131.875 73.5087 131.653 73.2181 131.753 72.9773C131.831 72.7538 132.119 72.5503 131.673 72.1998C131.637 72.1771 131.759 72.0926 131.839 72.0617C132.218 71.9053 132.285 71.6036 132.12 71.3185C131.973 71.0542 132.028 70.867 132.103 70.6817C132.268 70.1584 132.45 69.656 132.688 69.159C132.876 68.792 133.192 68.4948 133.38 68.1277C133.55 67.7398 133.576 67.2611 133.963 67.0284C134.349 66.7957 134.514 66.4649 134.681 66.1151C134.775 65.9316 135.094 65.8079 134.71 65.4057C134.676 65.3639 134.721 65.2912 134.76 65.2758C135.625 65.0501 135.195 64.1238 135.66 63.6676C136.143 63.2132 136.358 62.5599 136.734 62.0375C136.824 61.8921 137.059 61.8375 136.843 61.4897C136.778 61.368 136.87 61.2035 136.986 61.1953C137.684 61.1078 137.721 60.5146 138.099 60.1657C138.535 59.803 138.707 59.2034 139.374 59.036C139.649 58.966 139.916 58.7796 139.756 58.2446C139.682 58.0067 140.033 57.9439 140.146 57.7621C140.237 57.6168 140.186 57.3425 140.294 57.218C140.38 57.1107 140.627 57.1343 140.785 57.0915C140.823 57.0951 140.866 57.0415 140.871 56.9843C141.06 56.0013 142.172 55.9918 142.678 55.3085C143.218 54.6669 143.898 54.1543 144.612 53.7025C145 53.4508 145.513 53.2879 146.282 53.8808C146.64 54.1459 146.851 54.5509 146.86 54.8598C146.857 55.0905 146.853 55.3403 146.745 55.4648C146.593 55.662 146.474 55.901 146.34 56.0999C146.052 56.5152 145.955 57.1411 145.422 57.3021C145.265 57.3449 145.274 57.6537 144.912 57.4268C144.857 57.4023 144.798 57.4159 144.794 57.4541C144.706 58.3888 143.944 58.5472 143.475 59.0415C143.107 59.4877 143.092 60.2562 142.532 60.5108C142.688 61.0839 142.399 61.3066 142.079 61.4493C140.921 61.9358 140.506 63.0896 139.81 63.9665C139.074 64.8588 138.572 65.9082 137.964 66.8704C137.872 67.0349 138.054 67.3409 137.758 67.4283C137.481 67.5174 137.508 67.8471 137.391 68.067C137.295 68.2696 137.289 68.5385 137.066 68.6712C136.15 69.2384 136.206 70.264 135.804 71.0726C135.383 71.8794 135.146 72.7615 135.042 73.6563C134.99 74.2095 135.09 74.7772 134.888 75.2969C134.809 75.5204 135.05 75.8128 134.538 75.9566C134.4 76.0011 134.718 76.2817 134.723 76.4361C134.706 76.8194 134.633 77.1783 134.578 77.558C134.492 78.0695 134.386 78.5791 134.432 79.1032C134.459 79.4329 134.641 79.739 134.686 80.0705C134.731 80.402 134.72 80.7282 134.649 81.0679C134.591 81.4858 134.359 81.9065 134.377 82.3316C134.373 82.774 134.621 83.2017 134.444 83.6469C134.099 84.461 134.352 85.2357 134.413 86.0114C134.512 86.7908 134.649 87.5737 134.905 88.3103C135.057 88.729 134.723 89.2169 134.817 89.6493C134.856 89.8455 133.746 90.4328 133.342 90.452C133.266 90.4448 133.171 90.4357 133.133 90.4321C132.687 90.0817 132.023 89.8067 131.957 89.2808C131.859 88.5015 131.661 87.7512 131.503 86.9855L131.521 87.0064Z" fill="#9C7625"/>
<path d="M25.7706 96.2808C26.3141 96.0053 26.8232 95.688 27.2653 95.2682C27.4316 95.13 27.7355 95.159 27.6666 94.6712C27.633 94.4178 28.1035 94.7128 28.2699 94.5747C28.6894 94.1911 29.1931 93.9312 29.6126 93.5476C29.977 93.1396 30.2364 92.6254 30.6007 92.2174C30.946 91.8075 31.5202 91.612 31.7054 91.0714C31.8626 90.6245 32.3864 90.5588 32.5952 90.1745C32.8075 89.752 33.0542 89.3713 33.4766 89.1613C33.7795 88.9977 34.1548 88.8794 34.2614 88.5623C34.3192 88.3561 34.2133 88.0573 34.3262 87.8756C34.4564 87.7147 34.7504 87.6465 34.4273 87.2115C34.3929 87.1698 34.5294 87.1442 34.6054 87.1515C35.0079 87.1513 35.1263 86.9124 35.0358 86.6535C34.9452 86.3947 35.0528 86.2702 35.1224 86.1421C35.3502 85.7595 35.4866 85.3298 35.7316 84.9682C35.9105 84.6965 36.2378 84.4774 36.4186 84.1867C36.6183 83.8977 36.582 83.4708 36.9093 83.2518C37.2557 83.0345 37.3414 82.7347 37.4462 82.4367C37.5004 82.2687 37.7998 82.1432 37.3691 81.8327C37.3329 81.81 37.3591 81.7355 37.3989 81.72C38.2481 81.4544 37.498 80.6708 37.7899 80.2174C38.0837 79.7449 38.1188 79.1708 38.209 78.6212C38.2234 78.4686 38.407 78.3513 38.0433 78.1435C37.9157 78.0736 37.9301 77.921 38.0305 77.8728C38.5966 77.561 38.3549 77.076 38.5067 76.6862C38.6657 76.2202 38.443 75.737 38.8887 75.279C39.0795 75.0854 39.1825 74.8066 38.7292 74.5324C38.5103 74.4153 38.7426 74.1872 38.6829 74.0083C38.6385 73.8693 38.4231 73.7141 38.4167 73.5787C38.4275 73.4643 38.6111 73.347 38.6997 73.2207C38.7223 73.1844 38.7259 73.1462 38.7105 73.1063C38.2001 72.4225 38.842 71.7137 38.6581 71.0225C38.4344 70.3467 38.425 69.6337 38.3759 68.936C38.3549 68.5491 38.4118 68.1503 39.2618 67.673C39.6461 67.4594 40.063 67.3066 40.377 67.4328C40.5977 67.5308 40.8184 67.6288 40.9008 67.7713C41.0329 67.9957 41.184 68.2218 41.2972 68.4443C41.5407 68.9102 42.0537 69.3633 41.8685 69.9038C41.8143 70.0719 42.0866 70.2326 41.6851 70.4253C41.6245 70.458 41.6002 70.5134 41.6346 70.5552C42.3403 71.1999 41.9626 71.9531 42.0307 72.6525C42.0698 73.2529 42.5893 73.8413 42.3571 74.4737C42.8601 74.8295 42.7255 75.2402 42.5601 75.5709C41.97 76.7466 42.1224 77.9737 41.857 79.1611C41.5156 80.3412 41.3225 81.574 40.8879 82.726C40.8129 82.9113 41.0365 83.1828 40.7335 83.3465C40.4514 83.4928 40.5158 83.8262 40.4146 84.086C40.336 84.3095 40.347 84.5993 40.139 84.772C39.271 85.44 39.1014 86.4247 38.6386 87.2661C38.1587 88.0865 37.5322 88.8353 37.1626 89.7048C36.9204 90.2399 36.8212 90.8849 36.3447 91.263C36.1576 91.4184 36.1975 91.8072 35.671 91.6993C35.5209 91.6657 35.6539 92.0826 35.5654 92.2089C35.3412 92.5533 35.0655 92.835 34.8069 93.1376C34.458 93.5856 33.9887 93.8874 33.6416 94.3163C33.4264 94.5652 33.3144 94.9395 33.0956 95.2267C32.8769 95.5138 32.6046 95.7574 32.3171 95.961C31.9653 96.2354 31.4743 96.3619 31.0882 96.5946C30.6831 96.8255 30.4273 97.3016 29.9416 97.3709C29.029 97.4957 28.5391 98.219 27.7967 98.5717C27.0732 98.9263 26.367 99.3017 25.7259 99.7989C25.3552 100.072 24.7944 99.9219 24.429 100.137C24.2473 100.236 23.4736 99.2957 23.3576 98.8997C23.3268 98.8198 23.3358 98.7244 23.3394 98.6862C23.5246 98.1457 23.5741 97.4189 23.9946 97.228C24.6159 96.9407 25.1891 96.5526 25.7778 96.2044L25.7706 96.2808Z" fill="#9C7625"/>
<path d="M69.0424 120.882C68.6161 120.321 68.0443 119.882 67.5105 119.446C67.2952 119.291 67.2327 118.938 66.757 119.105C66.52 119.178 66.6691 118.615 66.4709 118.481C65.9317 118.102 65.5225 117.563 64.9173 117.274C64.3519 116.97 63.7377 116.777 63.1723 116.473C62.6241 116.19 62.224 115.555 61.5502 115.587C60.9767 115.571 60.7422 115.01 60.2573 114.867C59.7327 114.74 59.2325 114.558 58.8298 114.154C58.5267 113.913 58.2289 113.615 57.8472 113.598C57.6003 113.575 57.3146 113.759 57.0749 113.659C56.8542 113.561 56.6704 113.275 56.3233 113.703C56.3007 113.74 56.2165 113.616 56.1857 113.536C56.0318 113.137 55.7351 113.031 55.4666 113.237C55.2016 113.404 55.0343 113.35 54.8443 113.332C54.3143 113.262 53.805 113.175 53.3011 113.031C52.9266 112.937 52.5738 112.615 52.1785 112.539C51.7642 112.461 51.3057 112.648 50.9492 112.364C50.5927 112.08 50.211 112.063 49.8311 112.027C49.6222 112.007 49.3796 111.733 49.1755 112.272C49.1701 112.329 49.0751 112.32 49.0425 112.259C48.4353 111.586 47.8133 112.489 47.1955 112.334C46.5433 112.137 45.893 112.325 45.2518 112.418C45.0772 112.44 44.8791 112.306 44.7653 112.699C44.7147 112.829 44.5384 112.87 44.4506 112.785C43.9204 112.311 43.4439 112.689 42.9465 112.68C42.3712 112.683 41.8603 113.019 41.2189 112.708C40.9448 112.566 40.5992 112.572 40.414 113.112C40.3336 113.355 40.0215 113.21 39.8208 113.306C39.6598 113.387 39.5586 113.647 39.4012 113.69C39.2629 113.734 39.0665 113.581 38.9181 113.528C38.8612 113.523 38.8233 113.519 38.7817 113.554C38.1344 114.32 37.1446 113.84 36.3968 114.25C35.649 114.66 34.8414 114.891 34.0491 115.162C33.615 115.294 33.1312 115.345 32.4498 114.644C32.1349 114.326 31.9221 113.94 31.9926 113.6C32.054 113.356 32.1343 113.113 32.2799 112.992C32.5087 112.802 32.7221 112.572 32.949 112.401C33.4237 112.042 33.8096 111.406 34.4591 111.429C34.649 111.447 34.7936 111.134 35.0687 111.468C35.1031 111.509 35.1981 111.519 35.2207 111.482C35.7649 110.591 36.7246 110.778 37.4806 110.485C38.1363 110.239 38.6741 109.617 39.4185 109.649C39.6851 109.059 40.1482 109.026 40.5797 109.124C42.0469 109.418 43.35 108.811 44.77 108.792C46.1801 108.676 47.6001 108.657 49.0184 108.658C49.2653 108.681 49.4877 108.356 49.751 108.612C50.0161 108.849 50.3552 108.708 50.6781 108.739C50.963 108.766 51.2778 108.68 51.5329 108.82C52.5896 109.402 53.7111 109.297 54.7948 109.593C55.3384 109.721 55.8613 109.868 56.4067 109.977C56.9278 110.142 57.4697 110.29 58.0152 110.4C58.6728 110.539 59.4261 110.476 60.0485 110.786C60.3054 110.907 60.6962 110.828 60.7597 111.373C60.7833 111.53 61.1676 111.316 61.354 111.372C61.799 111.53 62.2179 111.762 62.6386 111.976C63.223 112.282 63.8318 112.532 64.3746 112.872C64.7211 113.059 65.1581 113.101 65.5236 113.29C65.9081 113.48 66.2509 113.706 66.5694 113.986C66.9756 114.352 67.3422 114.733 67.7086 115.115C68.0923 115.517 68.6495 115.705 68.9066 116.23C69.352 117.196 70.2296 117.645 70.8938 118.325C71.4937 119.075 72.0765 119.804 72.7822 120.448C73.1885 120.814 73.1861 121.449 73.5336 121.829C73.6883 122.017 72.9624 123.006 72.5627 123.18C72.4831 123.211 72.4036 123.242 72.3484 123.217C71.7288 123.081 70.9771 123.125 70.6522 122.709C70.1762 122.067 69.598 121.493 69.0804 120.885L69.0424 120.882Z" fill="#9C7625"/>
<path d="M136.168 38.9822C135.611 39.1987 135.056 39.396 134.482 39.5915C134.283 39.6688 133.988 39.5445 133.905 40.0178C133.862 40.264 133.501 39.8254 133.303 39.9027C132.783 40.1228 132.239 40.2057 131.703 40.4048C131.203 40.6267 130.701 40.8676 130.168 41.0286C129.635 41.1896 129.054 41.0572 128.598 41.418C128.186 41.7252 127.736 41.4129 127.302 41.5448C126.866 41.6958 126.396 41.805 125.911 41.6626C125.576 41.5537 125.245 41.4067 124.927 41.5304C124.728 41.6077 124.549 41.8794 124.336 41.8976C124.127 41.8777 123.879 41.6616 123.715 42.1849C123.711 42.2231 123.605 42.1359 123.553 42.0733C123.316 41.7427 123.045 41.7746 122.869 42.0082C122.694 42.2417 122.525 42.2063 122.352 42.2091C121.889 42.242 121.405 42.2922 120.935 42.1897C120.578 42.1172 120.254 41.8939 119.897 41.8214C119.54 41.7488 119.119 41.9398 118.82 41.661C118.52 41.3823 118.195 41.3706 117.876 41.3017C117.686 41.2836 117.521 40.9985 117.283 41.4954C117.279 41.5336 117.184 41.5246 117.169 41.4846C116.761 40.7335 116.074 41.515 115.562 41.2545C115.055 40.9368 114.462 40.9189 113.9 40.7883C113.75 40.7548 113.633 40.5704 113.392 40.8939C113.305 41.0011 113.153 40.9867 113.088 40.865C112.84 40.2447 112.328 40.3884 111.947 40.1596C111.511 39.9064 110.949 39.9684 110.659 39.3826C110.529 39.1392 110.317 38.9458 109.882 39.2894C109.676 39.443 109.551 39.1423 109.361 39.1243C109.209 39.1098 108.986 39.2425 108.839 39.1708C108.729 39.1218 108.694 38.8875 108.63 38.7467C108.615 38.7067 108.56 38.6822 108.52 38.6977C107.606 38.8416 107.316 37.8516 106.633 37.5748C105.929 37.3153 105.323 36.8341 104.781 36.2821C104.481 36.0033 104.215 35.5738 104.644 34.6906C104.835 34.2854 105.17 33.9901 105.448 33.8818C105.666 33.8064 105.882 33.7499 106.012 33.8008C106.215 33.8779 106.443 33.8996 106.647 33.9767C107.056 34.1119 107.643 33.9754 107.871 34.4013C107.935 34.5421 108.194 34.4321 108.062 34.8236C108.056 34.8809 108.07 34.9399 108.11 34.9245C108.938 34.6761 109.2 35.3555 109.755 35.5624C110.216 35.7602 110.85 35.5319 111.217 35.9133C111.673 35.5525 111.922 35.7495 112.11 35.9983C112.794 36.8719 113.849 36.8569 114.757 37.1935C115.683 37.532 116.664 37.7023 117.644 37.8727C117.815 37.889 117.992 37.6364 118.159 37.9024C118.308 38.1476 118.568 38.0376 118.777 38.0575C118.966 38.0756 119.186 37.981 119.365 38.1136C120.096 38.7028 120.92 38.4926 121.701 38.5477C122.482 38.6028 123.283 38.6406 124.063 38.5031C124.533 38.3939 124.987 38.0522 125.481 38.0992C125.69 38.1191 125.87 37.8284 126.133 38.2961C126.198 38.4178 126.348 38.0471 126.486 38.0025C126.801 37.917 127.143 37.9496 127.458 37.864C127.907 37.7721 128.353 37.7183 128.806 37.5882C129.083 37.4991 129.298 37.2501 129.556 37.1592C129.834 37.051 130.108 37 130.415 36.9908C130.783 36.9488 131.18 37.0059 131.548 36.9639C131.937 36.9047 132.256 36.5694 132.667 36.6855C133.435 36.8741 134.062 36.5296 134.716 36.3031C135.368 36.0958 136.039 35.8902 136.627 35.542C136.972 35.3438 137.465 35.6025 137.804 35.4616C137.963 35.3997 138.673 36.4105 138.768 36.8238C138.78 36.9019 138.791 36.98 138.767 37.0354C138.547 37.5342 138.445 38.2173 138.012 38.3302C137.362 38.5185 136.76 38.8076 136.123 39.0549L136.168 38.9822Z" fill="#9C7625"/>
</svg>
