<svg width="100" height="100" viewBox="0 0 100 100" fill="none" xmlns="http://www.w3.org/2000/svg">
<rect x="4" y="4" width="92" height="92" rx="46" fill="white"/>
<path d="M56.3976 31.172V27.1873C56.3976 25.9795 55.4828 25 54.3523 25H30.0453C28.9166 25 28 25.9795 28 27.1873V73.5761C28 74.7839 28.9148 75.7634 30.0453 75.7634H54.3541C55.4828 75.7634 56.3994 74.7839 56.3994 73.5761V69.7838" stroke="#E0B6B7" stroke-width="3" stroke-linecap="round" stroke-linejoin="round"/>
<path d="M34 69.0305H51" stroke="#E0B6B7" stroke-width="2.2" stroke-linecap="round" stroke-linejoin="round"/>
<path d="M56.5234 63.953C63.9663 63.953 69.9999 57.9194 69.9999 50.4765C69.9999 43.0336 63.9663 37 56.5234 37C49.0805 37 43.0469 43.0336 43.0469 50.4765C43.0469 57.9194 49.0805 63.953 56.5234 63.953Z" stroke="#E0B6B7" stroke-width="3" stroke-linecap="round" stroke-linejoin="round"/>
<path d="M52.377 54.4021C53.4131 56.476 55.487 56.476 55.487 56.476H57.561C59.2715 56.476 60.671 55.0764 60.671 53.3659C60.671 51.6554 59.2715 50.2558 57.561 50.2558H55.487C53.7765 50.2558 52.377 48.8563 52.377 47.1457C52.377 45.4352 53.7765 44.0356 55.487 44.0356H57.561C57.561 44.0356 59.6349 44.0356 60.671 46.1096" stroke="#E0B6B7" stroke-width="2.2" stroke-linecap="round" stroke-linejoin="round"/>
<path d="M56.5234 41.9617V44.0356" stroke="#E0B6B7" stroke-width="2.2" stroke-linecap="round" stroke-linejoin="round"/>
<path d="M56.5234 56.4741V58.548" stroke="#E0B6B7" stroke-width="2.2" stroke-linecap="round" stroke-linejoin="round"/>
<path d="M79.3148 62.6411H73" stroke="#E0B6B7" stroke-width="2.2" stroke-linecap="round" stroke-linejoin="round"/>
<path d="M79.3148 39H73" stroke="#E0B6B7" stroke-width="2.2" stroke-linecap="round" stroke-linejoin="round"/>
<path d="M83.001 50.8206H76.6885" stroke="#E0B6B7" stroke-width="2.2" stroke-linecap="round" stroke-linejoin="round"/>
<path d="M97.2001 55.3701C97.1801 56.1501 96.9701 56.9301 96.7501 57.7301C96.5101 58.5301 96.3501 59.3601 96.1401 60.2001C95.9701 61.0601 95.7601 61.9101 95.5301 62.7601L95.1801 64.0401L94.7101 65.2701C94.3901 66.1001 94.1901 66.9201 94.0301 67.7801C93.9201 68.6401 93.1301 69.3401 93.1901 70.2501C93.1901 70.3301 93.0901 70.4701 93.0401 70.5801C92.8101 71.0701 92.5901 71.5601 92.3601 72.0501L92.0301 72.7901L91.6301 73.4901C91.0901 74.4201 90.5201 75.3301 89.8801 76.1601C89.1401 77.1201 88.3401 78.0201 87.6501 78.9901C87.2901 79.4601 86.9501 79.9601 86.5601 80.4101C86.1601 80.8501 85.7501 81.2901 85.3301 81.7101C84.7601 82.5001 84.1901 83.3101 83.5001 84.0201C82.8001 84.7101 82.0801 85.3701 81.3401 86.0301C80.9701 86.3501 80.6101 86.7001 80.2201 86.9901L79.0201 87.8501C78.2201 88.4301 77.4301 89.0101 76.6501 89.6101C75.6201 90.2701 74.6101 91.0001 73.3801 91.3801C73.1201 91.4601 72.8701 91.5901 72.6201 91.7401C72.3601 91.8701 72.1001 92.0101 71.8401 92.1601C71.3101 92.4401 70.7601 92.7101 70.1601 92.7401C70.0601 92.7401 69.9101 92.9301 69.7701 93.0201C69.4401 93.2401 69.1101 93.5301 68.7501 93.6501C66.5701 94.2401 66.5701 94.1901 64.8901 95.0601C64.6901 95.1601 64.3701 95.0701 64.1401 95.1501C63.1401 95.4001 62.1301 95.6201 61.1501 95.9201C60.2601 96.2001 59.2701 96.1901 58.4701 96.7101C58.3001 96.8301 57.8901 96.8101 57.5901 96.8601C56.6301 97.0001 55.6601 97.1501 54.7001 97.2901C53.5901 97.3901 52.4501 97.2501 51.3801 97.6701C50.9001 97.8501 50.2101 97.4701 49.9301 97.5601C49.4101 97.7001 48.9101 97.7201 48.4001 97.6601C47.8901 97.6001 47.4101 97.4101 46.9101 97.3801C46.4801 97.3501 46.0301 97.5301 45.5801 97.5201C44.4801 97.4801 43.3501 97.0601 42.3201 97.1201C41.2101 97.1701 40.1901 96.9801 39.1601 96.7001C38.0801 96.4501 37.0201 96.1201 35.9401 95.8901C35.1101 95.6701 34.4501 95.2101 33.7301 94.8501C33.0201 94.4801 32.0601 94.4501 31.5501 93.8001C31.5301 93.7701 31.4401 93.7501 31.3901 93.7201C29.9401 92.9101 28.4701 92.1501 27.0401 91.3301C25.8401 90.5701 24.6001 89.8501 23.4101 89.0801L19.9901 86.5201C19.3901 85.9901 18.6701 85.5201 18.3501 84.7501C18.2801 84.5901 17.9601 84.4401 17.8401 84.2601C17.4101 83.5801 16.4401 83.6801 16.1701 82.8801C15.9201 82.1901 15.3301 81.7701 14.8801 81.2401C14.4001 80.6301 13.7801 80.1201 13.3501 79.4501C13.0401 79.0101 12.7001 78.6501 12.2701 78.4101C12.2401 77.6901 11.5101 77.1701 11.2501 76.5001C11.0701 76.0701 10.8401 75.3801 10.5401 75.1701C9.89013 74.7001 9.63013 73.9801 9.21013 73.3701C8.55013 72.4701 8.24013 71.3901 7.49013 70.5401C7.18013 70.1801 6.97013 69.5801 6.78013 69.0801C6.69013 68.8501 6.63013 68.6001 6.56013 68.3601C6.52013 68.1101 6.47013 67.8601 6.40013 67.6301C6.11013 66.7501 5.78013 65.9001 5.26013 65.1101C5.04013 64.7601 4.91013 64.3301 4.80013 63.9001C4.70013 63.4601 4.58013 63.0401 4.27013 62.7101C4.19013 62.6201 4.14013 62.3601 4.13013 62.1901C4.08013 61.2901 3.99013 60.5101 3.51013 59.6201C3.18013 58.8801 3.19013 57.8401 3.05013 56.9401C2.93013 55.9801 2.61013 55.0001 2.72013 54.0501C2.76013 53.4401 2.17013 53.1801 2.50013 52.4401C2.67013 52.0401 2.54013 51.2901 2.52013 50.7001C2.48013 50.0901 2.44013 49.4501 2.56013 48.8801C2.71013 48.1201 2.81013 47.3701 2.89013 46.6101C2.96013 45.8501 2.98013 45.0901 3.11013 44.3401L3.42013 42.0701C3.54013 41.3201 3.60013 40.5501 3.86013 39.8301C4.24013 38.6101 4.24013 37.2001 5.03013 36.1601C4.95013 35.1901 5.66013 34.2501 5.71013 33.3501C5.75013 32.7701 5.93013 32.3201 6.10013 31.8501C6.75013 30.3101 7.53013 28.8201 8.25013 27.3101C9.14013 25.8901 9.95013 24.4201 10.8801 23.0301C11.5301 22.1401 12.1601 21.2301 12.7801 20.3201C13.0801 19.8501 13.4201 19.4201 13.7901 19.0101L14.8701 17.7501C15.2801 17.2801 15.6601 16.8001 16.2801 16.4601C16.7501 16.2301 17.4301 15.6501 17.7201 14.9901C17.7801 14.8601 17.9401 14.6501 18.0401 14.6101C18.6901 14.3901 19.1401 13.9701 19.5601 13.4901C19.9801 13.0201 20.4001 12.5601 20.8801 12.1701C21.8501 11.4501 22.8101 10.7201 23.8701 10.1701C24.9301 9.61011 25.9801 9.06011 27.0001 8.43011C27.4201 8.14011 28.0601 8.07011 28.2401 7.55011C28.7401 7.65011 28.9301 7.39011 29.3101 7.05011C29.7001 6.70011 30.4401 6.33011 30.9101 6.30011C31.5401 6.24011 32.0301 6.00011 32.5801 5.82011C33.1601 5.64011 33.7201 5.39011 34.3001 5.20011C34.9101 5.01011 35.5101 4.77011 36.1301 4.61011L38.0101 4.18011C39.2601 3.91011 40.5001 3.57011 41.7801 3.48011C42.2801 3.42011 42.7801 3.48011 43.2801 3.48011C43.7801 3.47011 44.3001 3.21011 44.8001 3.46011C44.9901 3.54011 45.4801 3.40011 45.8401 3.40011C47.1001 3.34011 48.4601 3.46011 49.5901 3.16011C50.7101 2.89011 51.9001 3.31011 52.9701 2.90011C53.2701 2.79011 53.8001 2.95011 54.2201 2.94011C55.0801 2.89011 55.9201 3.18011 56.7701 3.30011C57.6201 3.45011 58.4601 3.55011 59.3401 3.43011C59.8901 3.84011 60.5901 3.99011 61.2701 4.13011C61.7701 4.24011 62.2901 4.56011 62.7901 4.32011C62.8501 4.29011 63.0201 4.34011 63.1201 4.38011C63.7001 4.61011 64.1701 4.96011 64.8201 5.15011C65.3701 5.30011 65.8801 5.25011 66.4801 5.47011C68.6601 6.18011 70.4401 7.64011 72.5601 8.45011C72.9601 9.02011 73.5801 9.34011 74.1801 9.71011C75.2101 10.3801 76.4401 10.6201 77.3901 11.5001C78.3001 12.2901 79.2901 13.1001 80.2901 13.6801C81.1201 14.2201 81.8701 14.8601 82.6001 15.5201C82.9601 15.8501 83.3301 16.1801 83.6701 16.5301C84.0001 16.9001 84.3301 17.2601 84.6701 17.6101C85.0201 17.9701 85.5001 18.3101 85.5501 18.8701C85.5601 19.0001 85.9601 19.3901 86.1401 19.4301C86.5201 19.5301 86.6701 19.8901 86.9101 20.1001C87.6201 20.6801 87.4501 21.8901 88.4801 22.2101L89.3501 23.3801C89.6201 23.7901 89.8601 24.2101 90.1201 24.6201C90.6301 25.4501 91.1401 26.2801 91.6301 27.1201C91.8701 27.5101 92.0901 27.8901 92.1101 28.4101C92.1101 28.7601 92.4101 29.4401 92.6701 29.6601C93.2801 30.1901 93.5001 30.9301 93.8201 31.6101C94.5901 33.7201 95.5001 35.8101 95.9401 38.0301C96.1501 38.9901 96.3301 39.9601 96.4101 40.9501C96.4901 41.9401 96.8701 42.9301 96.7201 43.9301C96.7101 44.0001 96.7401 44.1001 96.7601 44.1801C96.8601 44.5601 97.0401 44.9401 97.0601 45.3301C97.0601 45.8301 96.8101 46.5201 96.9501 46.7901C97.2201 47.3401 96.9701 47.7301 96.9701 48.1501C96.9501 49.3901 96.3601 50.1501 95.5901 50.0001C95.4201 49.9701 95.2301 49.8301 95.0901 49.6601C94.2101 48.6101 94.2501 48.6201 94.1201 46.9401C94.0701 46.4101 94.0901 45.8801 94.0701 45.3501L93.9601 43.7701C93.8701 42.7201 93.8501 41.6401 93.5201 40.6201C93.5701 39.1801 92.9801 37.7801 92.6401 36.3901C92.2001 34.9701 92.0601 33.3701 91.2401 32.1101C90.3601 30.9001 89.8501 29.5601 89.1401 28.2901C88.5701 27.3501 88.1501 26.3201 87.6001 25.3501C87.0301 24.3501 86.1701 23.5201 85.6101 22.5301C85.2401 21.9301 85.0401 21.1401 84.4401 20.7701C83.8201 20.3501 83.3101 19.8101 82.8301 19.2701C82.3401 18.7301 81.9001 18.1401 81.2901 17.7501C80.4701 17.1801 79.7301 16.5301 78.9901 15.8801C78.6401 15.5401 78.2401 15.2501 77.8401 14.9701C77.4401 14.6901 77.0401 14.4101 76.6301 14.1501C75.7401 13.6001 74.8801 13.0301 73.9601 12.5201C73.5501 12.2701 73.1601 12.0401 72.8101 11.6301C72.4401 11.2201 71.8001 10.7901 71.1101 10.7001C70.8201 10.6701 70.3801 10.5401 70.2101 10.3701C69.5101 9.64011 68.5201 9.32011 67.6301 8.90011C67.0601 8.65011 66.5101 8.13011 66.1101 8.12011C65.4301 8.12011 64.9301 7.83011 64.3601 7.65011C63.9601 7.53011 63.4901 7.44011 63.2101 7.06011C63.1401 6.96011 62.7401 6.83011 62.6001 6.87011C61.8001 7.07011 61.0701 6.69011 60.3301 6.51011L58.9901 6.19011L57.6301 5.99011L54.9101 5.55011C53.4001 5.39011 51.9201 5.79011 50.4101 5.53011C49.4901 5.90011 48.4701 5.83011 47.4901 5.86011C46.7401 5.91011 45.9801 5.77011 45.2301 5.78011C44.4801 5.82011 43.7601 6.00011 42.9501 5.95011C42.4501 5.92011 41.9101 5.99011 41.3701 6.09011C40.8201 6.17011 40.3001 6.40011 39.7601 6.50011C39.1801 6.63011 38.6001 7.00011 37.9801 6.77011C37.9001 6.74011 37.6301 6.81011 37.5501 6.89011C36.8901 7.43011 35.9601 7.69011 35.2601 7.78011C34.1201 7.95011 33.1001 8.37011 32.0901 8.80011C31.2501 9.17011 30.4401 9.62011 29.5901 9.99011C29.2901 10.1201 29.0001 10.2801 28.7001 10.4201C28.4101 10.5701 28.1201 10.7401 27.7801 10.8401C27.2601 11.0101 26.7701 11.5601 26.2401 11.9101C25.7201 12.2701 25.1401 12.5401 24.6401 12.9301L22.9801 14.1701C22.4301 14.5901 21.8601 14.9801 21.3301 15.4301C20.7801 15.9401 20.2401 16.4601 19.6601 16.9401C19.1201 17.3901 18.4701 17.7301 17.9601 18.2201C16.6101 19.6901 15.5201 21.3101 14.2801 22.8601C14.1901 23.4601 13.7101 23.7501 13.3301 24.1701C13.1501 24.3601 12.9501 24.5601 12.7801 24.7901C12.6201 25.0201 12.5201 25.2901 12.5101 25.5901C12.5101 25.7601 12.3501 25.9801 12.2501 26.1701C12.0401 26.6001 11.5901 26.8101 11.4701 27.4001C11.3901 27.8201 10.9401 28.2601 10.7101 28.7201C10.5101 29.2201 10.0601 29.6801 10.1901 30.2501C9.29013 30.8701 9.64013 32.0301 9.03013 32.7701C8.86013 33.0201 8.72013 33.3101 8.56013 33.5801C8.48013 33.7201 8.36013 33.8601 8.34013 33.9901C8.24013 34.6201 8.09013 35.2301 7.90013 35.8401C7.81013 36.1401 7.71013 36.4401 7.60013 36.7401L7.36013 37.6601C7.04013 38.8801 6.62013 40.0801 6.43013 41.3301C6.40013 41.6401 6.46013 41.9501 6.46013 42.2701C6.46013 42.4201 6.45013 42.5901 6.41013 42.7301C6.01013 44.0601 6.01013 44.0601 6.02013 45.3501C6.02013 45.6701 5.99013 46.0201 5.99013 46.3601C6.00013 47.2301 5.87013 48.0701 6.05013 48.9701C6.19013 49.8601 5.86013 50.8301 5.73013 51.7701C5.62013 52.6101 5.48013 53.4401 5.54013 54.3501C5.69013 55.4901 5.90013 56.6101 6.06013 57.7501C6.18013 58.8901 6.50013 60.0001 6.78013 61.1101C6.85013 61.3901 6.87013 61.7901 7.00013 61.9201C7.57013 62.4501 7.90013 62.9301 7.50013 63.7201C7.48013 63.7601 7.56013 63.9801 7.62013 64.0201C8.22013 64.4101 8.27013 65.1601 8.48013 65.7601C8.68013 66.3301 8.89013 66.9001 9.15013 67.4401L10.0501 69.0001C10.6601 70.0301 11.1901 71.1001 11.7801 72.1501C11.9601 72.5001 12.3201 72.8901 12.3201 73.1601C12.3201 73.7301 12.8401 73.6801 12.9701 74.0901C13.0801 74.4401 13.4801 74.7901 13.5801 75.0901C13.8701 76.1901 14.7001 77.0801 15.4101 77.8001C16.0601 78.4901 16.8901 79.0501 17.3301 79.7901C17.8001 80.4901 18.2901 81.1801 18.9001 81.7501L20.7501 83.4301L21.6901 84.3101C22.0201 84.5801 22.3701 84.8301 22.7101 85.0901L24.7801 86.6101C25.3301 87.0401 25.9201 87.5201 26.6601 87.5601C26.8101 87.5601 27.0601 87.7601 27.2301 87.9001C27.6401 88.2301 28.0201 88.6201 28.4601 88.9001C28.9001 89.1901 29.4601 89.2401 29.9501 89.4301C30.3501 89.5701 30.6901 89.7901 31.1701 89.7901C31.5201 89.7901 31.9601 90.1401 32.3301 90.5501C33.0601 91.3501 33.9401 92.0201 35.1701 92.4201C35.7201 92.5801 36.2501 92.8001 36.8001 92.9801C37.3601 93.1301 37.9101 93.2801 38.4701 93.4201C38.9401 93.5301 39.3801 93.6801 39.9201 93.6201C40.4101 93.5701 41.1301 93.8501 41.6701 94.0301C42.5101 94.3601 43.3201 94.5101 44.2101 94.4101C44.5201 94.3801 44.8701 94.4301 45.1901 94.4801C46.1901 94.5801 47.1901 94.5901 48.2001 94.6501C49.2001 94.7101 50.2101 94.7801 51.2101 94.6901C51.6901 94.6701 52.2001 94.5701 52.6101 94.8301C52.9101 94.4801 53.4201 94.5701 53.8401 94.5701C54.4901 94.6001 55.1301 94.6401 55.7801 94.5701C56.5501 94.4901 57.2901 94.3401 58.0101 94.0301C58.3401 93.8801 58.7301 93.8601 59.1201 93.8101C59.5101 93.7301 59.9001 93.6401 60.2401 93.4101C60.3701 93.3201 60.7001 93.4401 60.9001 93.3701C61.7201 93.0801 62.7301 93.1601 63.3701 92.5001C63.4201 92.4401 63.6001 92.3801 63.6801 92.3901C64.7601 92.4801 65.5901 91.8101 66.4701 91.3601C67.4501 90.9101 68.4501 90.7601 69.4101 90.3101C69.9401 90.0301 70.4901 89.7501 71.0301 89.4701C71.5701 89.2001 72.0701 88.8601 72.6101 88.6501C73.5301 88.2701 74.4001 87.8001 75.2401 87.2801C76.0301 86.6901 76.8001 86.0801 77.6001 85.5001C78.0001 85.2001 78.4301 84.9301 78.8101 84.5901L79.9301 83.5801C80.6601 82.8901 81.4501 82.2501 82.1201 81.4901C82.7001 80.8301 83.1601 80.0801 83.7201 79.4101C84.0201 79.0301 84.3801 78.6901 84.6701 78.3001L85.5501 77.1301L87.1901 74.9201C87.4201 74.5601 87.5501 74.0801 87.9901 73.9101C88.0801 73.8801 88.2301 73.6601 88.2501 73.5401C88.3901 72.7001 88.8001 72.0701 89.4601 71.5201C89.6401 71.3601 89.7101 71.0201 89.8701 70.7901C90.3001 70.1601 90.3401 69.4501 90.5701 68.7901C90.7601 68.1801 91.4001 67.6501 91.1701 66.9401C91.1401 66.8501 91.2501 66.5501 91.3301 66.4801C91.8901 66.0101 92.0101 65.3201 92.1301 64.6301C92.2301 63.9401 92.3901 63.2801 92.8301 62.7501C92.5601 62.1401 93.1401 61.7601 93.1801 61.3501C93.2401 60.7601 93.2701 60.1901 93.4301 59.6001C93.6001 59.0601 93.6901 58.4901 93.7501 57.9201C93.8501 56.8901 94.2001 55.8601 94.0301 54.8001C93.9901 54.4501 93.9101 53.8001 94.2701 53.4001C94.3301 53.3301 94.3301 53.1001 94.3301 52.9501C94.2601 51.8101 94.6901 50.4401 95.3001 50.1401C95.6601 49.9701 96.0901 49.9901 96.4401 50.1301C96.6201 50.2001 96.7101 50.7201 96.8201 51.0501C97.0201 51.6301 97.3001 52.1901 97.3601 52.8301C97.4101 53.5901 97.3601 54.4101 97.2001 55.3801V55.3701Z" fill="#F6E8E8"/>
</svg>
