<svg width="100" height="100" viewBox="0 0 100 100" fill="none" xmlns="http://www.w3.org/2000/svg">
<rect x="4" y="4" width="92" height="92" rx="46" fill="white"/>
<path d="M39 47H67" stroke="#E0B6B7" stroke-width="2.2" stroke-linecap="round" stroke-linejoin="round"/>
<path d="M52 57H67" stroke="#E0B6B7" stroke-width="2.2" stroke-linecap="round" stroke-linejoin="round"/>
<path d="M39 37H52" stroke="#E0B6B7" stroke-width="2.2" stroke-linecap="round" stroke-linejoin="round"/>
<path d="M73.6347 51.2317V38.2241H61.6103C59.85 38.2241 58.4243 36.7984 58.4243 35.038V23.0137H39.3768C35.6715 23.0137 32.668 26.0172 32.668 29.7225V50.8404" stroke="#E0B6B7" stroke-width="3" stroke-linecap="round" stroke-linejoin="round"/>
<path d="M73.6328 59.6747V55.9248" stroke="#E0B6B7" stroke-width="3" stroke-linecap="round" stroke-linejoin="round"/>
<path d="M52.7383 71.0789H66.9244C70.6296 71.0789 73.6332 68.0754 73.6332 64.3701" stroke="#E0B6B7" stroke-width="3" stroke-linecap="round" stroke-linejoin="round"/>
<path d="M58.4219 23.0137L73.6323 38.2241" stroke="#E0B6B7" stroke-width="3" stroke-linecap="round" stroke-linejoin="round"/>
<path d="M48.1797 75.8545L52.3696 80.079" stroke="#E0B6B7" stroke-width="3" stroke-linecap="round" stroke-linejoin="round"/>
<path d="M38.1007 76.1286C43.5562 76.1286 47.9788 71.6714 47.9788 66.1732C47.9788 60.675 43.5562 56.2178 38.1007 56.2178C32.6452 56.2178 28.2227 60.675 28.2227 66.1732C28.2227 71.6714 32.6452 76.1286 38.1007 76.1286Z" stroke="#E0B6B7" stroke-width="3" stroke-linecap="round" stroke-linejoin="round"/>
<path d="M38.1016 60.5859C41.164 60.5859 43.6454 63.0868 43.6454 66.1732" stroke="#E0B6B7" stroke-width="2.2" stroke-linecap="round" stroke-linejoin="round"/>
<path d="M97.1992 55.3701C97.1792 56.1501 96.9692 56.9301 96.7492 57.7301C96.5092 58.5301 96.3492 59.3601 96.1392 60.2001C95.9692 61.0601 95.7592 61.9101 95.5292 62.7601L95.1792 64.0401L94.7092 65.2701C94.3892 66.1001 94.1892 66.9201 94.0292 67.7801C93.9192 68.6401 93.1292 69.3401 93.1892 70.2501C93.1892 70.3301 93.0892 70.4701 93.0392 70.5801C92.8092 71.0701 92.5892 71.5601 92.3592 72.0501L92.0292 72.7901L91.6292 73.4901C91.0892 74.4201 90.5192 75.3301 89.8792 76.1601C89.1392 77.1201 88.3392 78.0201 87.6492 78.9901C87.2892 79.4601 86.9492 79.9601 86.5592 80.4101C86.1592 80.8501 85.7492 81.2901 85.3292 81.7101C84.7592 82.5001 84.1892 83.3101 83.4992 84.0201C82.7992 84.7101 82.0792 85.3701 81.3392 86.0301C80.9692 86.3501 80.6092 86.7001 80.2192 86.9901L79.0192 87.8501C78.2192 88.4301 77.4292 89.0101 76.6492 89.6101C75.6192 90.2701 74.6092 91.0001 73.3792 91.3801C73.1192 91.4601 72.8692 91.5901 72.6192 91.7401C72.3592 91.8701 72.0992 92.0101 71.8392 92.1601C71.3092 92.4401 70.7592 92.7101 70.1592 92.7401C70.0592 92.7401 69.9092 92.9301 69.7692 93.0201C69.4392 93.2401 69.1092 93.5301 68.7492 93.6501C66.5692 94.2401 66.5692 94.1901 64.8892 95.0601C64.6892 95.1601 64.3692 95.0701 64.1392 95.1501C63.1392 95.4001 62.1292 95.6201 61.1492 95.9201C60.2592 96.2001 59.2692 96.1901 58.4692 96.7101C58.2992 96.8301 57.8892 96.8101 57.5892 96.8601C56.6292 97.0001 55.6592 97.1501 54.6992 97.2901C53.5892 97.3901 52.4492 97.2501 51.3792 97.6701C50.8992 97.8501 50.2092 97.4701 49.9292 97.5601C49.4092 97.7001 48.9092 97.7201 48.3992 97.6601C47.8892 97.6001 47.4092 97.4101 46.9092 97.3801C46.4792 97.3501 46.0292 97.5301 45.5792 97.5201C44.4792 97.4801 43.3492 97.0601 42.3192 97.1201C41.2092 97.1701 40.1892 96.9801 39.1592 96.7001C38.0792 96.4501 37.0192 96.1201 35.9392 95.8901C35.1092 95.6701 34.4492 95.2101 33.7292 94.8501C33.0192 94.4801 32.0592 94.4501 31.5492 93.8001C31.5292 93.7701 31.4392 93.7501 31.3892 93.7201C29.9392 92.9101 28.4692 92.1501 27.0392 91.3301C25.8392 90.5701 24.5992 89.8501 23.4092 89.0801L19.9892 86.5201C19.3892 85.9901 18.6692 85.5201 18.3492 84.7501C18.2792 84.5901 17.9592 84.4401 17.8392 84.2601C17.4092 83.5801 16.4392 83.6801 16.1692 82.8801C15.9192 82.1901 15.3292 81.7701 14.8792 81.2401C14.3992 80.6301 13.7792 80.1201 13.3492 79.4501C13.0392 79.0101 12.6992 78.6501 12.2692 78.4101C12.2392 77.6901 11.5092 77.1701 11.2492 76.5001C11.0692 76.0701 10.8392 75.3801 10.5392 75.1701C9.88916 74.7001 9.62916 73.9801 9.20916 73.3701C8.54916 72.4701 8.23916 71.3901 7.48916 70.5401C7.17916 70.1801 6.96916 69.5801 6.77916 69.0801C6.68916 68.8501 6.62916 68.6001 6.55916 68.3601C6.51916 68.1101 6.46916 67.8601 6.39916 67.6301C6.10916 66.7501 5.77916 65.9001 5.25916 65.1101C5.03916 64.7601 4.90916 64.3301 4.79916 63.9001C4.69916 63.4601 4.57916 63.0401 4.26916 62.7101C4.18916 62.6201 4.13916 62.3601 4.12916 62.1901C4.07916 61.2901 3.98916 60.5101 3.50916 59.6201C3.17916 58.8801 3.18916 57.8401 3.04916 56.9401C2.92916 55.9801 2.60916 55.0001 2.71916 54.0501C2.75916 53.4401 2.16916 53.1801 2.49916 52.4401C2.66916 52.0401 2.53916 51.2901 2.51916 50.7001C2.47916 50.0901 2.43916 49.4501 2.55916 48.8801C2.70916 48.1201 2.80916 47.3701 2.88916 46.6101C2.95916 45.8501 2.97916 45.0901 3.10916 44.3401L3.41916 42.0701C3.53916 41.3201 3.59916 40.5501 3.85916 39.8301C4.23916 38.6101 4.23916 37.2001 5.02916 36.1601C4.94916 35.1901 5.65916 34.2501 5.70916 33.3501C5.74916 32.7701 5.92916 32.3201 6.09916 31.8501C6.74916 30.3101 7.52916 28.8201 8.24916 27.3101C9.13916 25.8901 9.94916 24.4201 10.8792 23.0301C11.5292 22.1401 12.1592 21.2301 12.7792 20.3201C13.0792 19.8501 13.4192 19.4201 13.7892 19.0101L14.8692 17.7501C15.2792 17.2801 15.6592 16.8001 16.2792 16.4601C16.7492 16.2301 17.4292 15.6501 17.7192 14.9901C17.7792 14.8601 17.9392 14.6501 18.0392 14.6101C18.6892 14.3901 19.1392 13.9701 19.5592 13.4901C19.9792 13.0201 20.3992 12.5601 20.8792 12.1701C21.8492 11.4501 22.8092 10.7201 23.8692 10.1701C24.9292 9.61011 25.9792 9.06011 26.9992 8.43011C27.4192 8.14011 28.0592 8.07011 28.2392 7.55011C28.7392 7.65011 28.9292 7.39011 29.3092 7.05011C29.6992 6.70011 30.4392 6.33011 30.9092 6.30011C31.5392 6.24011 32.0292 6.00011 32.5792 5.82011C33.1592 5.64011 33.7192 5.39011 34.2992 5.20011C34.9092 5.01011 35.5092 4.77011 36.1292 4.61011L38.0092 4.18011C39.2592 3.91011 40.4992 3.57011 41.7792 3.48011C42.2792 3.42011 42.7792 3.48011 43.2792 3.48011C43.7792 3.47011 44.2992 3.21011 44.7992 3.46011C44.9892 3.54011 45.4792 3.40011 45.8392 3.40011C47.0992 3.34011 48.4592 3.46011 49.5892 3.16011C50.7092 2.89011 51.8992 3.31011 52.9692 2.90011C53.2692 2.79011 53.7992 2.95011 54.2192 2.94011C55.0792 2.89011 55.9192 3.18011 56.7692 3.30011C57.6192 3.45011 58.4592 3.55011 59.3392 3.43011C59.8892 3.84011 60.5892 3.99011 61.2692 4.13011C61.7692 4.24011 62.2892 4.56011 62.7892 4.32011C62.8492 4.29011 63.0192 4.34011 63.1192 4.38011C63.6992 4.61011 64.1692 4.96011 64.8192 5.15011C65.3692 5.30011 65.8792 5.25011 66.4792 5.47011C68.6592 6.18011 70.4392 7.64011 72.5592 8.45011C72.9592 9.02011 73.5792 9.34011 74.1792 9.71011C75.2092 10.3801 76.4392 10.6201 77.3892 11.5001C78.2992 12.2901 79.2892 13.1001 80.2892 13.6801C81.1192 14.2201 81.8692 14.8601 82.5992 15.5201C82.9592 15.8501 83.3292 16.1801 83.6692 16.5301C83.9992 16.9001 84.3292 17.2601 84.6692 17.6101C85.0192 17.9701 85.4992 18.3101 85.5492 18.8701C85.5592 19.0001 85.9592 19.3901 86.1392 19.4301C86.5192 19.5301 86.6692 19.8901 86.9092 20.1001C87.6192 20.6801 87.4492 21.8901 88.4792 22.2101L89.3492 23.3801C89.6192 23.7901 89.8592 24.2101 90.1192 24.6201C90.6292 25.4501 91.1392 26.2801 91.6292 27.1201C91.8692 27.5101 92.0892 27.8901 92.1092 28.4101C92.1092 28.7601 92.4092 29.4401 92.6692 29.6601C93.2792 30.1901 93.4992 30.9301 93.8192 31.6101C94.5892 33.7201 95.4992 35.8101 95.9392 38.0301C96.1492 38.9901 96.3292 39.9601 96.4092 40.9501C96.4892 41.9401 96.8692 42.9301 96.7192 43.9301C96.7092 44.0001 96.7392 44.1001 96.7592 44.1801C96.8592 44.5601 97.0392 44.9401 97.0592 45.3301C97.0592 45.8301 96.8092 46.5201 96.9492 46.7901C97.2192 47.3401 96.9692 47.7301 96.9692 48.1501C96.9492 49.3901 96.3592 50.1501 95.5892 50.0001C95.4192 49.9701 95.2292 49.8301 95.0892 49.6601C94.2092 48.6101 94.2492 48.6201 94.1192 46.9401C94.0692 46.4101 94.0892 45.8801 94.0692 45.3501L93.9592 43.7701C93.8692 42.7201 93.8492 41.6401 93.5192 40.6201C93.5692 39.1801 92.9792 37.7801 92.6392 36.3901C92.1992 34.9701 92.0592 33.3701 91.2392 32.1101C90.3592 30.9001 89.8492 29.5601 89.1392 28.2901C88.5692 27.3501 88.1492 26.3201 87.5992 25.3501C87.0292 24.3501 86.1692 23.5201 85.6092 22.5301C85.2392 21.9301 85.0392 21.1401 84.4392 20.7701C83.8192 20.3501 83.3092 19.8101 82.8292 19.2701C82.3392 18.7301 81.8992 18.1401 81.2892 17.7501C80.4692 17.1801 79.7292 16.5301 78.9892 15.8801C78.6392 15.5401 78.2392 15.2501 77.8392 14.9701C77.4392 14.6901 77.0392 14.4101 76.6292 14.1501C75.7392 13.6001 74.8792 13.0301 73.9592 12.5201C73.5492 12.2701 73.1592 12.0401 72.8092 11.6301C72.4392 11.2201 71.7992 10.7901 71.1092 10.7001C70.8192 10.6701 70.3792 10.5401 70.2092 10.3701C69.5092 9.64011 68.5192 9.32011 67.6292 8.90011C67.0592 8.65011 66.5092 8.13011 66.1092 8.12011C65.4292 8.12011 64.9292 7.83011 64.3592 7.65011C63.9592 7.53011 63.4892 7.44011 63.2092 7.06011C63.1392 6.96011 62.7392 6.83011 62.5992 6.87011C61.7992 7.07011 61.0692 6.69011 60.3292 6.51011L58.9892 6.19011L57.6292 5.99011L54.9092 5.55011C53.3992 5.39011 51.9192 5.79011 50.4092 5.53011C49.4892 5.90011 48.4692 5.83011 47.4892 5.86011C46.7392 5.91011 45.9792 5.77011 45.2292 5.78011C44.4792 5.82011 43.7592 6.00011 42.9492 5.95011C42.4492 5.92011 41.9092 5.99011 41.3692 6.09011C40.8192 6.17011 40.2992 6.40011 39.7592 6.50011C39.1792 6.63011 38.5992 7.00011 37.9792 6.77011C37.8992 6.74011 37.6292 6.81011 37.5492 6.89011C36.8892 7.43011 35.9592 7.69011 35.2592 7.78011C34.1192 7.95011 33.0992 8.37011 32.0892 8.80011C31.2492 9.17011 30.4392 9.62011 29.5892 9.99011C29.2892 10.1201 28.9992 10.2801 28.6992 10.4201C28.4092 10.5701 28.1192 10.7401 27.7792 10.8401C27.2592 11.0101 26.7692 11.5601 26.2392 11.9101C25.7192 12.2701 25.1392 12.5401 24.6392 12.9301L22.9792 14.1701C22.4292 14.5901 21.8592 14.9801 21.3292 15.4301C20.7792 15.9401 20.2392 16.4601 19.6592 16.9401C19.1192 17.3901 18.4692 17.7301 17.9592 18.2201C16.6092 19.6901 15.5192 21.3101 14.2792 22.8601C14.1892 23.4601 13.7092 23.7501 13.3292 24.1701C13.1492 24.3601 12.9492 24.5601 12.7792 24.7901C12.6192 25.0201 12.5192 25.2901 12.5092 25.5901C12.5092 25.7601 12.3492 25.9801 12.2492 26.1701C12.0392 26.6001 11.5892 26.8101 11.4692 27.4001C11.3892 27.8201 10.9392 28.2601 10.7092 28.7201C10.5092 29.2201 10.0592 29.6801 10.1892 30.2501C9.28916 30.8701 9.63916 32.0301 9.02916 32.7701C8.85916 33.0201 8.71916 33.3101 8.55916 33.5801C8.47916 33.7201 8.35916 33.8601 8.33916 33.9901C8.23916 34.6201 8.08916 35.2301 7.89916 35.8401C7.80916 36.1401 7.70916 36.4401 7.59916 36.7401L7.35916 37.6601C7.03916 38.8801 6.61916 40.0801 6.42916 41.3301C6.39916 41.6401 6.45916 41.9501 6.45916 42.2701C6.45916 42.4201 6.44916 42.5901 6.40916 42.7301C6.00916 44.0601 6.00916 44.0601 6.01916 45.3501C6.01916 45.6701 5.98916 46.0201 5.98916 46.3601C5.99916 47.2301 5.86916 48.0701 6.04916 48.9701C6.18916 49.8601 5.85916 50.8301 5.72916 51.7701C5.61916 52.6101 5.47916 53.4401 5.53916 54.3501C5.68916 55.4901 5.89916 56.6101 6.05916 57.7501C6.17916 58.8901 6.49916 60.0001 6.77916 61.1101C6.84916 61.3901 6.86916 61.7901 6.99916 61.9201C7.56916 62.4501 7.89916 62.9301 7.49916 63.7201C7.47916 63.7601 7.55916 63.9801 7.61916 64.0201C8.21916 64.4101 8.26916 65.1601 8.47916 65.7601C8.67916 66.3301 8.88916 66.9001 9.14916 67.4401L10.0492 69.0001C10.6592 70.0301 11.1892 71.1001 11.7792 72.1501C11.9592 72.5001 12.3192 72.8901 12.3192 73.1601C12.3192 73.7301 12.8392 73.6801 12.9692 74.0901C13.0792 74.4401 13.4792 74.7901 13.5792 75.0901C13.8692 76.1901 14.6992 77.0801 15.4092 77.8001C16.0592 78.4901 16.8892 79.0501 17.3292 79.7901C17.7992 80.4901 18.2892 81.1801 18.8992 81.7501L20.7492 83.4301L21.6892 84.3101C22.0192 84.5801 22.3692 84.8301 22.7092 85.0901L24.7792 86.6101C25.3292 87.0401 25.9192 87.5201 26.6592 87.5601C26.8092 87.5601 27.0592 87.7601 27.2292 87.9001C27.6392 88.2301 28.0192 88.6201 28.4592 88.9001C28.8992 89.1901 29.4592 89.2401 29.9492 89.4301C30.3492 89.5701 30.6892 89.7901 31.1692 89.7901C31.5192 89.7901 31.9592 90.1401 32.3292 90.5501C33.0592 91.3501 33.9392 92.0201 35.1692 92.4201C35.7192 92.5801 36.2492 92.8001 36.7992 92.9801C37.3592 93.1301 37.9092 93.2801 38.4692 93.4201C38.9392 93.5301 39.3792 93.6801 39.9192 93.6201C40.4092 93.5701 41.1292 93.8501 41.6692 94.0301C42.5092 94.3601 43.3192 94.5101 44.2092 94.4101C44.5192 94.3801 44.8692 94.4301 45.1892 94.4801C46.1892 94.5801 47.1892 94.5901 48.1992 94.6501C49.1992 94.7101 50.2092 94.7801 51.2092 94.6901C51.6892 94.6701 52.1992 94.5701 52.6092 94.8301C52.9092 94.4801 53.4192 94.5701 53.8392 94.5701C54.4892 94.6001 55.1292 94.6401 55.7792 94.5701C56.5492 94.4901 57.2892 94.3401 58.0092 94.0301C58.3392 93.8801 58.7292 93.8601 59.1192 93.8101C59.5092 93.7301 59.8992 93.6401 60.2392 93.4101C60.3692 93.3201 60.6992 93.4401 60.8992 93.3701C61.7192 93.0801 62.7292 93.1601 63.3692 92.5001C63.4192 92.4401 63.5992 92.3801 63.6792 92.3901C64.7592 92.4801 65.5892 91.8101 66.4692 91.3601C67.4492 90.9101 68.4492 90.7601 69.4092 90.3101C69.9392 90.0301 70.4892 89.7501 71.0292 89.4701C71.5692 89.2001 72.0692 88.8601 72.6092 88.6501C73.5292 88.2701 74.3992 87.8001 75.2392 87.2801C76.0292 86.6901 76.7992 86.0801 77.5992 85.5001C77.9992 85.2001 78.4292 84.9301 78.8092 84.5901L79.9292 83.5801C80.6592 82.8901 81.4492 82.2501 82.1192 81.4901C82.6992 80.8301 83.1592 80.0801 83.7192 79.4101C84.0192 79.0301 84.3792 78.6901 84.6692 78.3001L85.5492 77.1301L87.1892 74.9201C87.4192 74.5601 87.5492 74.0801 87.9892 73.9101C88.0792 73.8801 88.2292 73.6601 88.2492 73.5401C88.3892 72.7001 88.7992 72.0701 89.4592 71.5201C89.6392 71.3601 89.7092 71.0201 89.8692 70.7901C90.2992 70.1601 90.3392 69.4501 90.5692 68.7901C90.7592 68.1801 91.3992 67.6501 91.1692 66.9401C91.1392 66.8501 91.2492 66.5501 91.3292 66.4801C91.8892 66.0101 92.0092 65.3201 92.1292 64.6301C92.2292 63.9401 92.3892 63.2801 92.8292 62.7501C92.5592 62.1401 93.1392 61.7601 93.1792 61.3501C93.2392 60.7601 93.2692 60.1901 93.4292 59.6001C93.5992 59.0601 93.6892 58.4901 93.7492 57.9201C93.8492 56.8901 94.1992 55.8601 94.0292 54.8001C93.9892 54.4501 93.9092 53.8001 94.2692 53.4001C94.3292 53.3301 94.3292 53.1001 94.3292 52.9501C94.2592 51.8101 94.6892 50.4401 95.2992 50.1401C95.6592 49.9701 96.0892 49.9901 96.4392 50.1301C96.6192 50.2001 96.7092 50.7201 96.8192 51.0501C97.0192 51.6301 97.2992 52.1901 97.3592 52.8301C97.4092 53.5901 97.3592 54.4101 97.1992 55.3801V55.3701Z" fill="#F6E8E8"/>
</svg>
